version: 1
n_points: 120
{
45.467750 52.667750
46.680500 51.638750
48.000000 50.719250
49.335500 49.833250
50.843250 49.387250
52.470500 49.308500
54.068250 49.492250
55.547750 50.057750
56.900500 50.883000
58.182750 51.657250
58.570250 52.693750
57.168750 53.351750
55.635250 53.784750
54.088750 54.137250
52.495750 54.321000
50.902750 54.504750
49.278750 54.557250
47.713500 54.294750
46.301500 53.711250
45.441500 52.772500
83.122750 51.784750
84.240500 50.716250
85.437000 49.744250
86.743250 49.034500
88.152750 48.594750
89.707750 48.527750
91.223000 48.677000
92.691500 49.085500
94.102250 49.686750
95.387250 50.408750
95.396250 51.345500
94.206000 52.262250
92.833000 52.896500
91.320000 53.187750
89.758250 53.251750
88.237500 53.102500
86.708750 52.903500
85.181250 52.729500
83.682250 52.505750
83.371500 51.536250
56.377250 91.071750
57.252000 90.004000
58.217750 89.060750
59.212500 88.134000
60.299500 87.334750
61.428000 86.561000
62.568250 85.802750
63.720250 85.080500
64.880250 84.415750
66.142250 84.025250
67.444500 84.231250
68.744750 84.583250
70.056500 84.877750
71.330750 84.575250
72.563000 84.030250
73.871000 83.741000
75.188500 83.968500
76.477750 84.415000
77.727500 84.995250
78.924250 85.655000
80.074250 86.393250
81.199250 87.159250
82.282750 87.985250
83.304500 88.875000
84.271000 89.785000
85.219750 90.705250
84.578500 91.575750
83.391250 92.183500
82.200750 92.838000
81.003750 93.489750
79.800500 94.140500
78.631000 94.830000
77.393000 95.429500
76.161250 96.026000
74.844500 96.433000
73.487000 96.584000
72.107250 96.612500
70.734500 96.555750
69.368750 96.442000
67.987000 96.413750
66.605500 96.385250
65.237500 96.271500
63.900750 96.044250
62.608250 95.650750
61.425250 95.011750
60.269000 94.282250
59.167250 93.518250
58.082000 92.720000
57.147500 91.757000
56.434000 90.816250
57.296250 91.343250
59.171750 90.940500
60.976250 90.373250
62.743000 89.656750
64.577250 89.144000
66.466750 88.891500
68.402250 88.848500
70.339750 88.891500
72.261750 88.999000
74.171000 89.196750
76.052000 89.536750
77.919000 89.915750
79.791500 90.353500
81.651750 90.784250
83.535250 91.042250
82.847500 91.106750
81.025000 90.711750
79.222750 90.230000
77.446750 89.686250
75.607000 89.282500
73.742250 89.016750
71.808750 88.977500
69.884000 88.934500
67.951500 88.934500
66.017500 88.956000
64.199500 89.235500
62.465250 89.773250
60.802000 90.526000
59.042500 91.042250
57.404000 91.321750
}
