version: 1
n_points: 120
{
44.896250 52.862750
46.030750 51.778250
47.339000 50.954250
48.826750 50.457000
50.305250 50.007750
51.851000 49.805500
53.376250 50.056000
54.769750 50.555500
56.150500 51.059750
57.525000 51.733750
57.617500 52.817000
56.277500 53.574750
54.812000 54.126500
53.295750 54.566750
51.757750 54.817250
50.182500 54.867500
48.604000 54.804250
47.078500 54.542750
45.736500 53.853250
44.946500 52.937750
81.865000 52.077000
83.107000 51.041750
84.318750 50.010000
85.632500 49.211000
87.030250 48.561500
88.606250 48.458250
90.163750 48.652750
91.701750 49.001000
93.209000 49.440500
94.467500 50.385250
94.747250 51.387000
93.333000 52.151750
91.957250 52.970250
90.496250 53.499750
88.895250 53.627750
87.300500 53.472750
85.768250 53.072250
84.250750 52.671500
82.637750 52.594000
82.046000 51.921750
56.088000 91.250000
56.865500 90.193000
57.751250 89.230500
58.658750 88.324250
59.658500 87.501000
60.796000 86.850500
61.965500 86.238250
63.076500 85.643500
64.327500 85.358500
65.643500 85.358500
66.935250 85.547750
68.223500 85.746500
69.528250 85.802750
70.742250 85.365500
71.921000 84.872250
73.156250 84.485750
74.455250 84.510000
75.669250 84.976000
76.839000 85.551750
77.987250 86.179250
79.112000 86.853500
80.213750 87.549500
81.268500 88.318000
82.311250 89.107250
83.266750 89.965750
84.163000 90.872000
83.315000 91.758750
82.162250 92.377750
81.077250 93.099250
79.992750 93.820000
78.844750 94.448000
77.728000 95.132500
76.530000 95.676250
75.264500 96.042500
73.981000 96.322750
72.693500 96.568250
71.387750 96.705000
70.075750 96.826000
68.755250 96.874500
67.437750 96.814750
66.135250 96.656500
64.853500 96.394250
63.585000 96.089500
62.352250 95.642750
61.217750 94.997750
60.201500 94.175250
59.195250 93.367250
58.154250 92.588750
57.109750 91.821250
56.112250 91.128750
56.650000 91.316750
58.385750 90.628750
60.219750 90.387000
62.073250 90.188750
63.923250 89.997000
65.808250 89.967000
67.688500 89.907000
69.580750 89.907000
71.471000 89.918750
73.353250 89.967000
75.226250 90.057000
77.051000 90.330000
78.872750 90.656750
80.745250 90.776750
82.585750 90.878000
81.827000 90.926750
79.996250 90.656750
78.188500 90.338250
76.346000 90.074000
74.514000 89.766250
72.638250 89.697000
70.760000 89.637000
68.925000 89.907000
67.054000 89.997000
65.207500 90.177000
63.329500 90.237000
61.495750 90.417000
59.702750 90.746750
57.936500 91.166750
56.770000 91.316750
}
