version: 1
n_points: 120
{
43.720500 53.833500
44.780250 52.699000
46.069750 51.778000
47.465000 51.089750
48.992750 50.787000
50.568000 50.537500
52.159500 50.591250
53.592750 51.249500
54.937500 52.101750
56.253500 52.968250
56.499250 53.663000
55.160250 54.503250
53.713250 55.156000
52.178750 55.557250
50.609750 55.784500
49.031250 55.993000
47.436000 56.051250
45.939500 55.673750
44.593750 54.915250
43.720500 53.814500
80.853750 52.823000
82.134000 51.821000
83.433500 50.823750
84.805000 49.957500
86.306000 49.540250
87.942750 49.345500
89.606250 49.345500
91.172500 49.707000
92.685500 50.295250
93.970000 51.209500
93.946250 52.194750
92.616750 53.140250
91.192500 53.913750
89.634250 54.289250
87.972750 54.353250
86.314250 54.297750
84.718500 54.018250
83.147000 53.657750
81.579500 53.382000
80.992750 52.656250
55.175500 93.142250
55.996500 91.871250
56.793500 90.581000
57.672500 89.371750
58.730750 88.305000
59.555250 87.089000
60.521500 85.974250
61.870500 85.483000
63.355500 85.712750
64.794000 86.142000
66.266000 86.439250
67.771250 86.562750
69.112250 86.022000
70.486500 85.419250
71.934250 85.078000
73.406000 85.319250
74.734250 86.051000
76.004000 86.876500
77.321500 87.631500
78.574750 88.477250
79.801500 89.339000
81.054500 90.189500
82.293000 91.062000
83.457500 91.927500
84.100250 92.796250
83.123750 93.913000
82.189000 95.078750
81.086500 96.113750
79.989750 97.143250
78.912250 98.186750
77.831500 99.218250
76.696500 100.230750
75.449000 101.074000
74.106750 101.745500
72.650500 102.151250
71.116000 102.151250
69.581500 102.151250
68.047000 102.151250
66.517750 102.185000
64.983250 102.185000
63.488000 102.022250
62.062250 101.663750
60.752250 100.941250
59.492500 100.108750
58.315750 99.184250
57.379250 98.079000
56.619500 96.847000
56.187750 95.479250
55.715500 94.219500
55.141750 93.041000
59.995250 92.310250
61.154250 91.423500
62.253500 90.635000
63.533750 90.194000
64.960500 90.057250
66.411750 90.091500
67.877000 90.091500
69.317500 89.955000
70.766750 89.886750
72.195500 89.920750
73.580250 90.210500
74.925000 90.582000
76.212000 91.115500
77.370250 91.812750
77.351000 93.149000
76.576750 94.307250
75.549750 95.285750
74.340500 96.061000
73.069750 96.679250
71.675250 96.850500
70.226250 96.918750
68.761000 96.918750
67.303750 96.884500
65.897500 96.661000
64.504000 96.356750
63.170250 95.929000
61.985250 95.348500
61.035250 94.442750
60.190500 93.427250
60.063500 92.344500
}
