version: 1
n_points: 120
{
43.215250 53.605250
44.356000 52.442500
45.691250 51.545500
47.069750 50.769000
48.567250 50.316000
50.169750 50.188500
51.735000 50.473250
53.214250 51.054500
54.626500 51.798500
55.915250 52.747750
56.328750 53.724000
54.876750 54.432750
53.421250 55.083750
51.855500 55.434250
50.252500 55.620250
48.633000 55.705250
47.004000 55.708000
45.417250 55.457000
44.074000 54.746500
43.127500 53.736750
80.522250 52.732250
81.762500 51.608000
83.103250 50.644000
84.490000 49.776750
86.028500 49.137250
87.658750 48.903500
89.304750 49.074250
90.868000 49.599750
92.329500 50.311250
93.747000 51.165000
93.779000 52.180000
92.498750 53.228000
91.017250 53.921500
89.406750 54.207250
87.745000 54.356500
86.072500 54.298500
84.437750 54.124500
82.822500 53.824250
81.264250 53.445250
80.551250 52.616250
53.962000 92.760500
54.550000 91.369250
55.357000 90.134250
56.139000 88.868250
57.024250 87.705000
58.065750 86.676750
59.067500 85.562000
60.285250 84.726500
61.781500 84.603250
63.253500 84.909500
64.732000 85.217750
66.204750 85.465250
67.706500 85.549750
69.128250 85.115750
70.510500 84.532250
71.967250 84.326250
73.371250 84.842500
74.723500 85.534250
76.032500 86.286250
77.332000 87.060000
78.637000 87.823500
79.860000 88.708000
81.049500 89.620500
82.218000 90.542500
83.204500 91.654500
83.112250 93.043500
82.264750 94.192750
81.109750 95.162250
80.080500 96.223000
78.913250 97.170500
77.854750 98.233250
76.759500 99.276500
75.497750 100.092250
74.142000 100.767750
72.694250 101.194500
71.210500 101.478250
69.694500 101.564000
68.163500 101.564000
66.647250 101.502250
65.142250 101.371250
63.661500 101.103750
62.210750 100.701750
60.824750 100.101000
59.524750 99.339000
58.304250 98.459000
57.303250 97.363750
56.342000 96.217750
55.506750 94.982250
54.757000 93.740000
53.931250 92.637250
58.787500 92.015500
59.793000 91.056500
60.995500 90.378750
62.295250 89.822250
63.697250 89.618000
65.133750 89.511500
66.566250 89.605000
67.982250 89.778000
69.409750 89.884500
70.851500 89.857750
72.275750 89.937750
73.648250 90.177500
74.939500 90.613000
76.216500 91.117500
77.455750 91.706500
77.460750 92.759500
76.424250 93.691250
75.029250 93.853500
73.587000 93.800250
72.145000 93.747000
70.698500 93.773500
69.245750 93.773500
67.793000 93.773500
66.357750 93.773500
64.911250 93.800250
63.458500 93.800250
62.027750 93.853500
60.622250 93.693750
59.429750 93.057250
58.841000 91.988750
}
