version: 1
n_points: 120
{
43.497000 53.209000
44.695750 52.075250
46.132000 51.273000
47.626500 50.639500
49.193250 50.213750
50.805000 50.148750
52.442000 50.376500
54.003250 50.860000
55.469250 51.572250
56.783250 52.560750
56.796750 53.616000
55.320250 54.264500
53.793750 54.910000
52.199750 55.227500
50.564250 55.421750
48.901250 55.488000
47.264750 55.357750
45.714250 54.985250
44.343500 54.264750
43.399250 53.339250
79.968500 52.986500
81.202000 51.779750
82.631500 50.823250
84.131250 49.988750
85.651250 49.232750
87.311500 48.934250
89.047000 48.988000
90.733000 49.217750
92.256500 50.046750
93.707500 50.879500
94.367000 52.044500
93.027750 53.082250
91.432500 53.763000
89.791000 54.274500
88.056000 54.355000
86.317000 54.309000
84.678750 53.925750
83.091000 53.389000
81.430250 53.120500
80.049000 52.986500
54.027750 92.610500
54.988500 91.391000
55.752500 90.077000
56.655250 88.812000
57.630750 87.605250
58.657750 86.459750
59.940000 85.593250
61.356000 85.038250
62.887750 84.986250
64.432000 85.119250
65.967750 85.329000
67.488250 85.588500
69.041750 85.653000
70.489750 85.204750
71.934500 84.650000
73.457500 84.455750
74.907500 84.948750
76.246500 85.737500
77.579750 86.540000
78.783250 87.497500
80.029750 88.428250
81.138750 89.490250
82.306000 90.488500
83.403250 91.535000
84.090250 92.692250
83.333000 93.995750
82.326250 95.167750
81.327500 96.356500
80.289750 97.504250
79.353750 98.706250
78.223750 99.771500
77.010250 100.752250
75.712250 101.603500
74.287000 102.242500
72.768500 102.512750
71.212000 102.609750
69.652000 102.706750
68.093250 102.674500
66.558000 102.448000
65.043000 102.114500
63.548500 101.706000
62.107500 101.148250
60.760500 100.378750
59.486000 99.514500
58.371000 98.474500
57.288500 97.384250
56.352000 96.164500
55.396000 94.981750
54.632500 93.700500
54.157250 92.448750
58.902250 92.263750
59.953500 91.184250
61.238750 90.450250
62.607250 89.893500
64.091500 89.667750
65.598750 89.526750
67.114000 89.526750
68.646000 89.555000
70.171000 89.611250
71.680000 89.724250
73.182750 89.893500
74.681000 90.091000
76.132250 90.354000
77.451500 91.027750
78.315000 92.044000
78.058750 93.481750
77.145750 94.654250
75.709000 95.000750
74.182250 95.028750
72.643750 95.028750
71.108750 95.000750
69.573500 94.972500
68.035000 94.972500
66.507750 94.916000
64.976000 94.944250
63.444000 94.972500
61.981000 94.778000
60.661250 94.215500
59.523000 93.335000
58.817500 92.320000
}
