version: 1
n_points: 120
{
43.190500 52.170500
44.440750 51.313750
45.638000 50.352750
47.019000 49.643250
48.524750 49.257500
50.127750 49.231250
51.675500 49.445500
53.119000 49.974750
54.464250 50.664000
55.639750 51.629500
56.472750 52.377250
55.231500 53.172250
53.682500 53.404000
52.087500 53.456500
50.497000 53.509000
48.895750 53.543000
47.303000 53.613750
45.754500 53.404000
44.352250 52.886250
43.216750 52.170500
80.600250 51.467000
81.869250 50.547750
83.163750 49.714250
84.476500 48.905000
85.842500 48.221500
87.350500 48.006250
88.921750 47.962500
90.440500 48.181500
91.853750 48.716000
93.134000 49.501500
93.653500 50.351250
92.476000 51.234750
91.007250 51.686000
89.477250 51.905000
87.952750 52.146000
86.395000 52.233500
84.816750 52.233500
83.242000 52.211500
81.737500 52.014500
80.512750 51.576500
49.194250 86.855500
50.299750 85.237250
51.589500 83.761500
53.143250 82.592000
54.849500 81.810000
56.666000 81.251000
58.635000 81.127750
60.596000 81.023000
62.586000 80.988000
64.576000 81.023000
66.560250 81.092750
68.558250 81.092750
70.548250 81.127750
72.530000 81.058000
74.495000 80.918250
76.449000 80.708750
78.414000 80.569000
80.382500 80.720500
82.318500 81.013250
84.191250 81.409750
85.690750 82.560000
86.991000 84.000000
88.030500 85.578250
87.807250 87.476250
87.039000 89.187250
86.241250 90.922500
85.374750 92.621000
84.276750 94.241250
82.787000 95.519000
81.230250 96.728750
79.615500 97.854750
77.954250 98.922250
76.170250 99.644750
74.240000 99.952250
72.269750 100.091750
70.285250 100.196500
68.292750 100.231500
66.311250 100.161750
64.385250 99.812500
62.465750 99.446000
60.563500 99.018500
58.836250 98.139000
57.141000 97.115250
55.602250 95.917750
54.197500 94.557250
52.920250 93.131000
51.678750 91.649750
50.556250 90.117500
49.506000 88.564250
49.229000 86.820500
51.986750 86.518500
53.870750 84.937500
56.597500 84.772750
59.339500 84.897500
62.034000 85.271500
64.751750 85.567250
67.500500 85.676750
70.219500 85.521000
72.924000 85.209250
75.639250 84.918000
78.318500 84.498000
81.026250 84.180250
83.735000 84.336250
86.291750 84.866250
85.974250 87.193000
84.381250 89.384250
82.202500 91.005750
79.747000 92.209000
77.314250 93.464500
74.785000 94.351250
72.063750 94.624250
69.314500 94.717750
66.555000 94.749000
63.848250 94.437250
61.230250 93.915000
58.667750 93.039000
56.233750 91.825750
53.901250 90.509000
52.079000 88.762000
51.986750 86.456250
}
