version: 1
n_points: 120
{
44.806250 51.451500
45.928250 50.481000
47.174000 49.791000
48.497750 49.199750
49.932500 48.925750
51.439000 48.875250
52.924000 49.001500
54.222750 49.592750
55.433250 50.409750
56.588000 51.286750
57.763000 51.708250
56.581000 52.386000
55.080500 52.345250
53.574000 52.310000
52.071000 52.259500
50.566250 52.209000
49.073750 52.107250
47.591500 52.007000
46.124500 51.880750
44.781000 51.552500
82.254500 50.697250
83.486500 49.792500
84.790250 49.005500
86.140250 48.286000
87.571000 47.746250
89.067000 47.378000
90.600000 47.280500
92.106250 47.450750
93.574250 47.852500
94.883750 48.596500
94.653750 49.576500
93.189500 49.935500
91.681750 50.120000
90.197000 50.374000
88.700000 50.657250
87.224750 50.974250
85.717250 51.135750
84.213250 51.277750
82.693250 51.366750
82.370000 50.605000
48.995750 85.268250
50.551750 83.821500
52.343750 82.671000
54.290000 81.755250
56.332000 81.050250
58.382250 80.606500
60.493250 80.351500
62.640250 80.169250
64.800750 80.169250
66.920000 80.351500
69.060750 80.497250
71.230000 80.460750
73.345250 80.174500
75.491750 80.023750
77.643250 79.878000
79.750500 79.623000
81.916000 79.676000
84.049500 79.914500
86.111750 80.460750
88.021750 81.308500
89.688250 82.615250
91.352250 83.882500
91.762250 85.795500
91.097250 87.810000
90.261000 89.744750
89.056500 91.497250
87.673750 93.098500
86.334750 94.720000
84.858500 96.241500
83.440500 97.805000
81.730250 99.088250
79.708250 99.820500
77.593250 100.091000
75.444500 100.236750
73.269500 100.236750
71.098750 100.273250
68.932250 100.309500
66.786250 100.164000
64.689250 99.798500
62.584750 99.362750
60.540250 98.706750
58.697250 97.631250
56.901250 96.468500
55.281250 95.086250
53.787750 93.577250
52.306500 92.038750
50.837000 90.532750
49.670000 88.856000
48.854500 87.020500
48.995750 85.195250
51.006750 86.101000
53.006250 84.151500
56.030750 83.851750
59.115500 83.964000
62.169500 84.278000
65.197750 84.676500
68.247250 84.973750
71.313250 84.768250
74.340000 84.271750
77.340750 83.776750
80.353750 83.289250
83.412000 83.064250
86.496750 82.951750
89.455000 83.460000
89.848000 86.024750
88.121500 88.501500
85.808500 90.482000
83.341000 92.306750
80.531750 93.567500
77.615000 94.548250
74.577750 94.986250
71.481250 94.986250
68.400250 94.798750
65.328250 94.536500
62.266500 94.242750
59.284250 93.670250
56.676750 92.141500
54.305250 90.224750
51.905750 88.349750
51.119250 86.213500
}
