version: 1
n_points: 120
{
44.424750 52.367750
45.707500 51.270750
47.151250 50.387250
48.654750 49.645000
50.272000 49.163500
51.959500 49.053000
53.645000 49.163500
55.226750 49.688500
56.765000 50.388750
58.249250 51.054000
58.794750 52.169250
57.270750 52.671750
55.604750 52.855250
53.996000 53.265750
52.377000 53.695750
50.701750 53.832000
48.994250 53.832000
47.347750 53.636000
45.816500 53.077500
44.452500 52.478250
82.502000 50.782250
83.821000 49.790000
85.301750 49.028250
86.745500 48.238250
88.246750 47.650750
89.913500 47.541750
91.591000 47.596250
93.171500 47.945750
94.679000 48.606500
96.071000 49.456500
96.259750 50.506500
94.826250 51.305000
93.298500 51.953000
91.690000 52.334250
90.016500 52.388750
88.343250 52.307000
86.691500 52.143750
85.055750 51.974500
83.505500 51.622250
82.447500 50.836500
54.871250 91.460500
55.721750 90.026500
56.523250 88.607000
57.263000 87.158250
58.056250 85.777500
59.097750 84.489250
60.406000 83.474500
61.858000 82.740000
63.470000 82.573500
65.136500 82.696750
66.790250 82.902000
68.380250 83.220500
70.019000 83.317000
71.497250 82.731250
72.975500 82.190500
74.598750 82.259250
76.154000 82.789500
77.705750 83.393500
79.262000 84.015000
80.786250 84.692500
82.271750 85.436250
83.781750 86.140250
85.166000 87.035750
86.403000 88.144000
86.938500 89.524000
86.835500 91.155250
86.210250 92.635250
85.173000 93.922500
83.991500 95.025750
82.803000 96.179750
81.654500 97.362750
80.347750 98.395250
78.907500 99.235500
77.331500 99.769250
75.715750 100.042500
74.076000 100.268500
72.394500 100.284250
70.718750 100.233500
69.065250 100.060000
67.407750 99.896750
65.778500 99.605500
64.150000 99.357250
62.545000 98.979500
60.970250 98.464500
59.449000 97.852250
58.091750 96.947000
57.049250 95.664000
56.141750 94.333250
55.402500 92.918750
54.768250 91.598000
57.332500 91.297500
58.896250 90.145500
60.539250 89.122000
62.021750 88.232500
63.789500 87.466250
65.710500 87.226000
67.690000 87.211000
69.651500 87.358000
71.612000 87.505000
73.573750 87.622500
75.510750 87.818250
77.387250 88.181250
79.199000 88.795000
80.909500 89.708000
82.606500 90.474250
82.995250 91.419000
81.311000 92.244500
79.412250 92.620500
77.474000 92.797000
75.504750 92.855750
73.535750 92.797000
71.569000 92.708750
69.593000 92.679500
67.635750 92.826500
65.680500 92.944000
63.704500 92.973500
61.758000 92.885250
59.813000 92.767500
57.981250 92.444250
57.420500 91.209500
}
