version: 1
n_points: 120
{
44.813500 51.423750
46.037000 50.414000
47.426250 49.632000
48.883750 48.990750
50.429000 48.683250
52.004750 48.765250
53.587250 48.934000
55.115500 49.304000
56.584750 49.869000
57.902750 50.697750
57.832750 51.862750
56.420750 52.470750
54.868750 52.793750
53.327000 53.167000
51.764750 53.401250
50.174250 53.523250
48.574750 53.456750
47.027000 53.204500
45.690500 52.447750
44.680750 51.490000
82.431000 50.498750
83.698750 49.391750
85.112000 48.462750
86.576500 47.794000
88.150000 47.299250
89.801250 46.965250
91.486750 46.965250
93.040500 47.596000
94.596500 48.290500
96.085500 49.074000
96.438750 50.179250
94.931750 50.925500
93.364750 51.556000
91.733000 51.973250
90.043250 52.056750
88.335500 52.056750
86.654250 51.945500
85.002250 51.701000
83.379000 51.363250
82.403250 50.471000
56.129250 91.960750
56.725000 90.533000
57.268000 89.116750
58.129250 87.815500
59.148000 86.618000
60.249750 85.486500
61.358250 84.378000
62.508750 83.316750
63.700750 82.335250
65.157750 81.875000
66.722000 81.771000
68.093750 82.315750
69.661500 82.337000
71.229000 82.218000
72.772750 81.908000
74.246250 81.382000
75.683000 81.581500
76.887250 82.566250
78.045500 83.635500
79.184750 84.716750
80.301500 85.821250
81.427000 86.917000
82.550750 88.018250
83.754500 89.023000
84.814250 90.135750
85.715500 91.316750
85.309750 92.742500
84.307500 93.942500
83.312000 95.139000
82.175250 96.227750
80.932250 97.191000
79.717250 98.167750
78.435250 99.049000
77.051750 99.784750
75.552750 100.215500
74.048750 100.571500
72.479500 100.653250
70.898750 100.690750
69.315750 100.661000
67.729000 100.661000
66.173500 100.453500
64.662250 100.029250
63.180750 99.515500
61.761750 98.824000
60.344750 98.150500
59.170500 97.147250
58.134000 95.987500
57.175500 94.765250
56.414750 93.396000
55.920500 92.050250
62.227250 90.876500
63.204000 89.868750
64.367250 89.156000
65.634000 88.553750
66.953750 88.181500
68.315750 87.883000
69.705750 87.716750
71.113750 87.747750
72.489750 87.933750
73.882000 88.061000
75.253000 88.279250
76.579750 88.670000
77.898500 89.109500
79.075250 89.850000
80.154750 90.608750
80.387000 91.632500
79.171000 92.209500
77.836500 92.580500
76.453750 92.747250
75.059750 92.828250
73.646750 92.828250
72.248250 92.766250
70.845250 92.704250
69.441000 92.651250
68.038250 92.580500
66.631500 92.541000
65.229500 92.487500
63.831250 92.425500
62.722750 91.970250
62.227250 90.907500
}
