version: 1
n_points: 120
{
45.202250 51.187250
46.374500 50.044750
47.702500 49.163750
49.209750 48.583750
50.802000 48.178250
52.446000 48.088500
54.050000 48.356250
55.608000 48.833500
57.122500 49.475250
58.578000 50.173000
58.568500 51.237750
57.075750 51.894750
55.527750 52.341000
53.955750 52.796000
52.368000 53.183500
50.729500 53.272750
49.091000 53.183500
47.487000 52.922000
46.041500 52.289500
45.172500 51.187250
83.013750 49.963750
84.354750 48.990750
85.796500 48.183250
87.288500 47.453500
88.824250 46.871250
90.449500 46.650750
92.092250 46.796750
93.652000 47.331750
95.120500 48.094750
96.505750 48.936500
96.104500 49.994250
94.698500 50.862500
93.155000 51.447000
91.563500 51.865000
89.899750 51.865000
88.288000 51.578250
86.691750 51.226500
85.063750 50.972000
83.435000 50.828000
83.215250 49.906000
58.192500 90.927000
58.885000 89.849500
59.690750 88.880750
60.522000 87.914750
61.414000 87.016500
62.411750 86.230000
63.455500 85.513500
64.498750 84.816750
65.590000 84.212250
66.786000 83.963250
68.050750 84.031500
69.321500 84.099750
70.600500 84.134000
71.879250 84.099750
73.127750 84.168000
74.291000 84.673250
75.338750 85.372750
76.248500 86.248500
77.229750 87.051250
78.196750 87.889500
79.076750 88.803750
79.931000 89.754000
80.517500 90.868500
80.688250 92.102750
80.155750 93.220500
79.485000 94.289000
78.759000 95.331500
77.969000 96.309000
77.124250 97.269750
76.222500 98.143750
75.252500 98.957000
74.227500 99.709000
73.154500 100.377500
72.019750 100.944750
70.799500 101.270250
69.518250 101.304250
68.247500 101.236000
67.027000 100.972000
65.793250 100.701250
64.573000 100.359000
63.360000 99.962250
62.218500 99.391500
61.297750 98.536750
60.550000 97.519250
59.843750 96.469750
59.275750 95.389500
58.866750 94.229500
58.567000 93.042500
58.226750 91.884250
58.226750 90.790500
68.942000 90.678250
68.735250 90.895500
68.528250 91.112500
68.321500 91.329750
68.241750 91.597500
68.241750 91.897500
68.346500 92.154750
68.522750 92.393000
68.734750 92.605000
68.987000 92.751500
69.253000 92.845750
69.552750 92.845750
69.825250 92.779000
70.094000 92.660750
70.331750 92.484250
70.550250 92.297000
70.748750 92.075750
70.962250 91.873250
71.143000 91.659000
71.274500 91.413500
71.209750 91.142000
71.003750 90.942000
70.746250 90.813250
70.482000 90.711500
70.223500 90.611500
69.937500 90.578000
69.638750 90.581500
69.365000 90.644750
69.093250 90.727000
68.908750 90.911500
}
