version: 1
n_points: 120
{
45.264750 50.687250
46.648500 49.675000
48.036750 48.708500
49.548500 47.929000
51.201750 47.605250
52.911750 47.661250
54.582000 47.969500
56.230750 48.384000
57.820500 48.951750
59.239750 49.818750
58.752750 51.060000
57.140000 51.585500
55.509000 52.032250
53.838000 52.284500
52.157500 52.508500
50.479500 52.704750
48.791250 52.788750
47.159250 52.508500
45.739000 51.836000
45.376750 50.547250
82.310000 49.673250
83.678500 48.613000
85.158000 47.701750
86.644250 46.825500
88.261250 46.224750
89.976500 45.906750
91.715750 45.884750
93.353500 46.418750
94.908000 47.196500
96.400250 48.076000
96.785750 49.226750
95.236500 49.991500
93.631500 50.612750
91.993500 51.141500
90.279750 51.360500
88.534250 51.390000
86.843750 51.126250
85.196000 50.709250
83.625500 50.176500
82.398750 49.495750
55.721250 93.985750
56.718000 92.420500
57.745500 90.879250
58.665000 89.297000
59.746750 87.818750
60.819750 86.358000
62.258500 85.236500
63.897750 84.352500
65.609500 83.709500
67.416500 83.452500
69.282000 83.495500
71.127000 83.452500
72.864000 82.995250
74.698250 82.853250
76.516250 83.110000
78.252250 83.675500
79.708000 84.788500
81.091750 86.001250
82.265750 87.389250
83.364250 88.813000
84.431750 90.283250
85.332750 91.869250
85.993500 93.532250
86.420750 95.268500
86.314750 97.111000
85.442500 98.727000
84.630250 100.358750
83.767750 101.991750
82.690250 103.454750
81.640250 104.961500
80.475500 106.391750
79.045500 107.522000
77.384500 108.330500
75.649000 109.006000
73.852250 109.351000
71.998250 109.443000
70.134750 109.392250
68.318000 109.143250
66.507000 108.843500
64.714000 108.472750
63.047750 107.775500
61.691500 106.550000
60.502250 105.146500
59.380500 103.682250
58.301500 102.218000
57.342000 100.701750
56.791750 99.005250
56.363500 97.269000
55.889500 95.567000
55.807000 93.857250
59.749500 93.201750
61.285750 91.665500
63.107750 90.491500
64.999000 89.551250
66.823500 88.707500
68.889250 88.189000
71.077250 88.102500
73.254750 88.232250
75.383750 88.534750
77.389750 89.274250
79.143000 90.556750
80.995500 91.703250
82.720250 92.967250
83.603250 94.497500
82.403000 96.173250
80.917750 97.750750
79.484250 99.387750
78.174250 101.120250
76.521750 102.489500
74.492750 103.183750
72.420500 103.702250
70.235250 103.832000
68.066750 103.604500
66.034250 102.912250
64.134000 101.950750
62.407250 100.656000
61.348500 98.972250
60.657000 97.052500
60.138500 95.036000
59.965500 92.942500
}
