version: 1
n_points: 120
{
45.772500 47.768250
46.951750 46.643750
48.277250 45.675250
49.759250 44.952250
51.364750 44.559250
53.007250 44.394750
54.652750 44.484250
56.224750 44.944500
57.649750 45.711250
59.110000 46.322500
59.179250 47.417000
57.689750 48.111000
56.199250 48.781750
54.617000 49.209000
52.973750 49.351500
51.322750 49.496250
49.654500 49.496250
48.029500 49.267000
46.547500 48.700750
45.882250 47.658500
83.489500 46.145750
84.799250 45.124000
86.224500 44.245000
87.797250 43.634250
89.388500 43.181750
91.062000 43.063250
92.730000 43.204000
94.333500 43.544750
95.748500 44.346250
97.058250 45.331250
97.153500 46.515750
95.609750 47.166250
93.963500 47.499750
92.298000 47.701500
90.607000 47.759000
88.907750 47.759000
87.259500 47.586250
85.629000 47.316250
84.058500 46.801250
83.691000 46.030500
53.915000 88.989250
54.566000 86.453500
56.061750 84.281500
57.111500 81.937750
58.125500 79.688000
60.367500 78.393250
62.859250 77.505500
65.451500 76.972750
68.152250 76.854250
70.867000 76.795000
73.490750 76.635250
76.089500 76.321500
78.765750 76.499000
81.242500 77.387000
83.708750 78.275000
86.182250 79.195500
87.993000 80.920500
89.432000 83.063500
90.301000 85.418750
90.793500 87.954000
90.912000 90.633500
90.497500 93.190500
89.668750 95.551750
88.763750 97.920250
87.991500 100.315500
87.478500 102.852750
86.945750 105.392250
86.290000 107.881750
85.229250 110.233500
83.986250 112.489500
82.642750 114.602750
80.361750 115.508750
77.892000 116.337500
75.373500 116.870250
72.711250 117.107000
70.073500 116.811000
67.499000 116.337500
65.105500 115.452000
63.219000 113.921000
61.377500 112.197750
60.426500 109.852750
59.495500 107.533750
58.413750 105.287750
57.242250 103.314500
56.261750 101.103500
55.631500 98.694500
55.098750 96.186750
54.566000 93.713500
53.825000 91.326500
53.737250 88.752500
55.519000 89.162250
57.233000 86.041250
60.124250 84.046000
63.564000 82.984250
67.110500 82.433750
70.855750 82.250250
74.572000 81.944500
78.382250 81.944500
82.087750 82.250250
85.473250 83.403500
87.925750 85.847000
89.834500 88.723250
88.941500 92.135000
87.786000 95.370000
86.714750 98.736750
85.370500 102.066250
83.467500 105.071500
81.215750 107.935000
78.880250 110.510000
75.482500 111.611250
71.791500 111.978250
68.158000 111.611250
65.177250 110.014500
63.100250 107.387000
60.990500 104.665500
59.514750 101.538250
57.904500 98.645750
56.253000 95.806000
55.335500 92.519250
55.457750 88.917750
}
