version: 1
n_points: 120
{
45.476750 48.991500
46.734250 47.973750
48.068500 47.091000
49.457500 46.353000
51.022250 46.110750
52.634250 45.995500
54.229250 46.105250
55.716250 46.650000
57.095500 47.444750
58.521500 48.012000
58.623000 49.039500
57.238750 49.703500
55.744750 50.143750
54.201500 50.489500
52.637500 50.777500
51.033000 50.864000
49.430000 50.748750
47.973500 50.374250
46.540500 49.824750
45.534250 48.991500
83.402500 47.537750
84.664500 46.638750
85.982500 45.852750
87.438750 45.280000
88.947250 44.913750
90.474250 44.688000
92.023750 44.744250
93.515500 45.111250
94.925000 45.638250
96.241000 46.388250
96.315250 47.604750
94.875250 48.164250
93.420500 48.666000
91.904750 48.948500
90.353000 49.061500
88.785500 49.089750
87.228000 49.041250
85.701750 48.849250
84.353500 48.347500
83.346250 47.594250
49.960500 83.162500
51.567500 81.708000
53.503250 80.705750
55.549000 80.033000
57.646750 79.482500
59.693750 78.710250
61.704750 77.993000
63.765250 77.361500
65.902500 77.085250
68.081250 77.203750
70.258500 77.328750
72.432250 77.480000
74.624250 77.467000
76.798000 77.282500
78.998250 77.322000
81.185750 77.440500
83.379500 77.519250
85.504000 77.868000
87.507250 78.652500
89.452250 79.492500
91.368500 80.425250
93.228750 81.505250
93.409750 83.443750
92.635250 85.357750
92.029500 87.383750
90.943250 89.161250
89.307250 90.578750
87.841250 92.162500
86.261250 93.632000
84.478750 94.856000
82.772250 96.168000
80.943750 97.286250
78.887500 97.869250
76.707000 98.030500
74.502000 98.040250
72.300000 98.079750
70.106250 98.000750
67.899500 98.000750
65.753000 97.764000
63.571750 97.606250
61.476250 97.085500
59.821000 95.701250
58.256500 94.221000
56.654250 92.764500
54.999500 91.385750
53.316250 90.032000
51.720000 88.552750
50.369250 86.925750
49.960500 84.925500
50.118500 82.807500
51.821750 83.341000
54.407250 81.973750
57.522750 82.010750
60.698250 81.899750
63.890000 81.862750
67.077750 81.826000
70.262000 81.899750
73.441750 82.010750
76.633750 82.047500
79.812000 81.936750
82.899750 81.493250
86.022500 81.170000
89.200500 81.142000
91.769000 82.263500
91.241250 85.051500
88.961500 87.145000
86.547500 89.148250
83.992500 90.890250
81.039750 92.031500
78.005500 92.732750
74.869750 93.023000
71.680750 93.052500
68.506500 92.949000
65.369750 92.616500
62.300000 92.136000
59.466750 91.099000
56.826750 89.639250
54.297750 87.929000
52.031250 86.063250
51.748000 83.193250
}
