version: 1
n_points: 120
{
45.430250 49.573500
46.617500 48.536000
48.019750 47.790500
49.471250 47.153500
50.991750 46.883000
52.569250 46.791500
54.102500 47.028250
55.541000 47.599750
56.917000 48.346750
58.267250 48.892750
58.246000 49.931250
56.924000 50.663750
55.386750 50.905500
53.858500 51.231000
52.311250 51.431000
50.720250 51.467750
49.134500 51.408750
47.611750 51.171750
46.315750 50.459000
45.519000 49.632750
82.004750 48.997000
83.420500 48.020500
84.842500 47.084250
86.289500 46.187000
87.788000 45.446750
89.460250 45.106750
91.164500 44.981250
92.798000 45.358250
94.374500 46.021000
95.890000 46.747250
96.170750 47.851000
94.718000 48.664250
93.076250 48.997000
91.383250 49.170750
89.680250 49.310750
87.982000 49.472750
86.297250 49.656000
84.588250 49.781500
82.890250 49.687250
82.099000 48.840250
50.886500 83.760000
53.361500 82.380000
56.491000 82.452750
59.684500 82.452750
62.855250 82.343750
66.022500 82.416500
69.197500 82.530000
72.366000 82.670500
75.503750 82.489000
78.587000 82.126000
81.737250 81.908000
84.785000 81.399750
87.899250 81.145500
90.891750 81.642250
91.194000 83.998250
89.298250 86.309500
86.637000 87.954000
83.890250 89.518000
80.966500 90.631000
77.923250 91.385750
74.809000 91.775750
71.644750 91.966750
68.451250 91.966750
65.331750 91.625500
62.352750 90.800500
59.442750 89.992500
56.503500 89.231750
53.801000 88.081250
51.762500 86.016000
50.995500 83.614750
48.975000 83.218750
50.812750 82.030500
52.777250 81.071000
54.772500 80.162500
56.769250 79.291250
58.833250 78.639250
60.921500 78.030500
63.054000 77.626500
65.232250 77.585500
67.347250 77.966500
69.516750 78.161250
71.691500 78.049000
73.757250 77.386250
75.830250 76.804250
78.002250 76.680750
80.176750 76.845250
82.319500 77.215500
84.462000 77.626500
86.576500 78.186250
88.650250 78.837250
90.670500 79.580000
92.566000 80.591750
93.712750 82.156500
93.336750 84.217750
92.239500 86.049000
90.868500 87.666500
89.398250 89.216250
87.791000 90.621250
86.157750 92.007500
84.458000 93.337000
82.660500 94.542750
80.710250 95.415000
78.662750 96.185250
76.569750 96.664750
74.404500 96.829250
72.203250 96.829250
70.011750 96.788250
67.839750 96.664750
65.704000 96.374750
63.591750 95.934250
61.475250 95.472250
59.463250 94.733750
57.612000 93.583000
55.709250 92.507000
53.885750 91.337000
52.088250 90.115000
50.481250 88.713750
49.379750 86.954250
48.687250 85.040000
48.975000 83.054250
}
