version: 1
n_points: 120
{
45.449000 51.360750
46.637750 50.251750
47.961750 49.321000
49.463000 48.658250
51.039500 48.343000
52.697000 48.328250
54.323250 48.411750
55.870000 48.878500
57.271500 49.662750
58.595250 50.512750
58.364500 51.444250
56.931000 52.185750
55.385250 52.708250
53.777000 52.974500
52.138750 53.113500
50.495750 53.197000
48.886750 53.336000
47.357500 52.974500
45.967500 52.296500
45.560250 51.138250
82.943750 50.522250
84.099000 49.333750
85.517250 48.460500
87.007000 47.700000
88.577750 47.179750
90.211750 47.027500
91.895250 46.999500
93.495000 47.340000
95.022750 47.908250
96.482750 48.625500
96.714250 49.831250
95.298500 50.675750
93.705250 51.119000
92.076000 51.403250
90.408750 51.545250
88.732000 51.602000
87.053500 51.573750
85.395250 51.460000
83.791250 51.201750
83.057500 50.380250
55.656000 89.793500
56.270750 88.237250
56.940250 86.730250
57.803000 85.286500
58.815250 83.947500
59.627500 82.467500
60.586750 81.130000
61.989000 80.237000
63.604750 79.870500
65.288750 79.773000
66.931500 80.058250
68.512750 80.592000
70.146500 80.789500
71.737750 80.373000
73.298000 79.809250
74.963500 79.664000
76.575250 80.104250
78.087750 80.841250
79.558500 81.669500
80.952250 82.635000
82.392000 83.534250
83.683000 84.625000
84.954000 85.725000
85.951500 87.066250
86.707500 88.542250
87.018000 90.133250
86.391750 91.640000
85.297000 92.900750
84.166250 94.145500
83.056000 95.395750
81.800500 96.526250
80.470500 97.509500
79.096750 98.443000
77.558250 99.084750
75.921000 99.476750
74.235750 99.596250
72.536000 99.596250
70.844250 99.523500
69.159750 99.414750
67.493250 99.234000
65.892250 98.724250
64.265500 98.254500
62.723250 97.567000
61.272250 96.708500
59.836750 95.841250
58.634250 94.696000
57.450000 93.511750
56.350000 92.266750
55.383000 91.009250
55.656000 89.648250
58.496750 90.132250
59.815500 88.919250
61.376000 88.012500
62.935500 87.098500
64.596500 86.380000
66.345250 85.962000
68.129750 85.708500
69.945250 85.717250
71.766500 85.752500
73.579000 85.858500
75.382500 86.027000
77.158250 86.353000
78.822250 86.979500
80.444750 87.755500
81.897000 88.808750
82.646750 89.973000
81.270250 91.107250
79.601250 91.783000
77.809000 91.969000
75.983500 91.969000
74.161250 92.004250
72.335750 92.004250
70.514500 91.969000
68.704750 91.863000
66.893500 91.757000
65.082500 91.651000
63.291750 91.459750
61.525250 91.191750
59.814500 90.838750
58.496750 90.238250
}
