version: 1
n_points: 120
{
47.482750 51.986500
48.583500 51.196250
49.677250 50.411750
50.885750 49.825000
52.206250 49.599000
53.576500 49.599000
54.920750 49.766000
56.243750 50.036250
57.527500 50.443000
58.641000 51.159250
58.098000 52.074750
56.807250 52.507500
55.486000 52.822000
54.158750 53.060750
52.803500 53.132500
51.446250 53.204000
50.076000 53.204000
48.722500 53.228000
47.459000 52.900750
47.602250 51.891000
83.613750 50.874750
84.909750 49.935500
86.372250 49.311250
87.901750 48.835250
89.466500 48.540250
91.064500 48.381500
92.666250 48.486500
94.184000 48.986500
95.655250 49.638000
97.108500 50.284500
96.736000 50.883750
95.163250 51.211250
93.590000 51.465250
91.992500 51.615000
90.387000 51.706750
88.778750 51.767500
87.162750 51.787250
85.559250 51.706750
83.976000 51.559250
83.828250 50.794250
58.309250 85.465500
58.842250 84.127500
59.420250 82.832250
60.369250 81.773000
61.344750 80.717750
62.322500 79.664250
63.385500 78.729250
64.443500 77.815500
65.719500 77.224750
67.124500 77.069250
68.531750 77.263250
69.945250 77.419000
71.331750 77.652750
72.738250 77.687250
74.129500 77.445250
75.532500 77.224750
76.957000 77.297000
78.335750 77.629000
79.670500 78.164500
80.834000 78.971250
81.751000 80.064500
82.606750 81.192250
83.510000 82.262750
84.236750 83.477500
84.469750 84.850250
84.214750 86.231000
83.442250 87.434500
82.492750 88.506750
81.471250 89.491250
80.529250 90.533500
79.464250 91.497500
78.300500 92.338250
77.077500 93.062750
75.752500 93.614000
74.413250 94.108750
73.042250 94.444750
71.635000 94.639000
70.199750 94.678000
68.758000 94.678000
67.346000 94.502750
65.969500 94.172750
64.620250 93.732500
63.361750 93.083750
62.182250 92.319000
61.171750 91.346000
60.397750 90.158250
59.482750 89.084000
58.704750 87.927750
58.309250 86.619000
58.309250 85.232250
67.579750 85.322250
68.073000 84.829000
68.606500 84.391500
69.186000 84.023750
69.820750 83.738250
70.479750 83.513750
71.150250 83.354250
71.832250 83.252250
72.528750 83.244500
73.218750 83.276500
73.875250 83.436250
74.513500 83.706500
75.067500 84.115250
75.545250 84.593000
75.827000 85.196750
75.546000 85.795000
74.925750 86.044500
74.252500 86.157250
73.580000 86.284250
72.916250 86.463000
72.243500 86.600750
71.561500 86.696750
70.876750 86.760750
70.179250 86.760750
69.481750 86.760750
68.788250 86.728750
68.116250 86.600750
67.579750 86.315750
67.421750 85.704000
67.803750 85.258250
}
