version: 1
n_points: 120
{
45.523500 52.499750
46.842500 51.832000
48.174750 51.213500
49.554000 50.711500
50.981500 50.403000
52.434500 50.276000
53.902750 50.276000
55.357750 50.434750
56.741750 50.865750
57.885750 51.710000
57.881000 52.690750
56.453500 52.912750
54.982750 52.976250
53.506000 53.008000
52.025000 53.008000
50.553250 52.944500
49.077500 52.912750
47.596750 52.912750
46.135500 52.853500
45.777500 52.468000
85.443000 51.322250
86.749250 50.477000
88.180250 49.851500
89.652750 49.387000
91.203750 49.240000
92.774000 49.210750
94.314750 49.429000
95.838250 49.807250
97.349500 50.233500
98.810750 50.764000
98.418000 51.322250
96.884500 51.540500
95.330750 51.728000
93.771000 51.856000
92.207250 51.948750
90.638000 52.001750
89.063000 52.001750
87.491750 51.977500
85.947750 51.856000
85.564250 51.200750
56.246250 82.650000
56.780500 81.145500
57.540750 79.764250
58.298750 78.351750
59.225000 77.054750
60.178250 75.785000
61.515000 75.038000
63.081500 74.774500
64.674750 74.807250
66.223250 75.071000
67.819000 75.169750
69.417250 75.268750
71.008000 75.367500
72.614500 75.400500
74.210500 75.288750
75.756500 74.905250
77.294500 74.510750
78.857000 74.260750
80.444500 74.148250
82.033000 74.181250
83.567000 74.562000
84.964500 75.343000
86.224500 76.315000
87.183750 77.533500
87.913000 78.920250
88.110750 80.473750
87.781750 81.990000
86.524750 82.880500
84.957250 83.078250
83.382000 83.243000
81.895500 83.658750
80.632000 84.604500
79.297250 85.466250
78.023500 86.408500
76.605000 87.134000
75.090750 87.660000
73.507500 87.790500
71.910500 87.691500
70.302750 87.658500
68.707000 87.559750
67.122250 87.362000
65.545250 87.100000
64.051000 86.547500
62.606000 85.879500
61.342000 84.977750
60.011000 84.252250
58.445750 84.252250
57.074500 84.758750
56.081500 83.858250
56.312000 82.419250
58.589000 84.517500
60.223500 83.505000
61.946250 82.682250
63.742250 82.071000
65.604500 81.750000
67.519750 81.620000
69.447500 81.652500
71.379250 81.652500
73.307750 81.677500
75.233000 81.720000
77.154500 81.782750
79.086250 81.782750
80.999750 81.880250
82.879000 82.173250
84.667500 82.775750
84.288000 82.857000
82.438250 82.523750
80.554250 82.271000
78.622500 82.271000
76.703750 82.206000
74.795000 82.108250
72.887000 81.978000
70.986000 81.847750
69.069500 81.782750
67.161750 81.924250
65.276750 82.173250
63.420000 82.476500
61.709250 83.117500
60.012750 83.903250
58.621750 84.582500
}
