version: 1
n_points: 120
{
45.933000 53.622000
47.238000 52.838500
48.601500 52.174750
50.046000 51.709750
51.546000 51.434750
53.053750 51.217000
54.573250 51.169500
56.046750 51.473750
57.402500 52.143000
58.535750 53.126000
58.613000 53.888250
57.093750 53.978000
55.576250 54.097250
54.054750 54.173250
52.539250 54.308250
51.025000 54.458500
49.498000 54.477500
47.973000 54.436250
46.484000 54.211250
46.085250 53.584000
85.916750 52.174750
87.248750 51.164500
88.767750 50.495250
90.364500 50.106250
92.024750 49.970500
93.701250 49.955000
95.364000 50.101750
97.013000 50.353750
98.577000 50.907750
99.997250 51.775250
99.881000 52.227250
98.226750 52.411000
96.574750 52.639750
94.925500 52.881500
93.273000 53.130750
91.602250 53.224500
89.925250 53.250750
88.265000 53.145750
86.705750 52.740000
86.179250 51.991250
51.959000 86.075750
53.608500 85.035000
55.399250 84.348000
57.220250 83.719750
59.033500 83.050000
60.849500 82.340000
62.652000 81.632250
64.450500 81.010250
66.356500 80.814000
68.304500 80.892500
70.255250 80.971000
72.215250 81.010250
74.164250 80.892500
76.041000 80.494000
77.843750 79.793000
79.671000 79.322000
81.602750 79.517500
83.473500 80.062500
85.280250 80.782500
87.036250 81.620750
88.791500 82.463750
90.414250 83.528000
91.956500 84.686750
92.678000 86.299250
92.143500 88.075000
90.862000 89.501500
89.356500 90.732250
87.800250 91.895750
86.250500 93.053000
84.661750 94.170500
83.175250 95.382000
81.430500 96.215000
79.584750 96.666750
77.639250 96.756000
75.673000 96.756000
73.706500 96.756000
71.740000 96.756000
69.798500 96.638250
67.876250 96.481250
65.950500 96.271500
64.093250 95.774500
62.280750 95.118250
60.498500 94.370000
58.677750 93.732500
57.006000 92.938000
55.428250 91.915000
54.032750 90.615750
52.964250 89.083500
51.968750 87.538250
52.194500 85.840000
55.471000 86.559750
57.785500 85.597750
60.401250 85.905750
63.032000 86.213500
65.709000 86.406000
68.334250 86.790750
70.962500 87.175500
73.643000 87.120500
76.266000 86.605250
78.844250 85.982750
81.377500 85.290000
83.953500 84.722500
86.617000 84.520500
89.271750 84.597500
90.985250 86.242500
89.333750 88.020250
86.906500 89.176250
84.477500 90.255250
81.936000 91.138500
79.301500 91.407750
76.608000 91.331000
73.919250 91.215500
71.236000 91.100000
68.557500 90.946250
65.865000 90.869250
63.163000 90.869250
60.504250 90.715250
57.986250 89.952750
55.752000 88.726000
55.663500 86.482750
}
