version: 1
n_points: 120
{
46.351750 53.995250
47.794250 53.210250
49.236750 52.517000
50.740500 51.897000
52.307000 51.481250
53.942250 51.406250
55.504500 51.693750
57.020250 52.237250
58.425750 52.972500
59.742250 53.707750
59.282750 54.649750
57.865500 55.369750
56.265750 55.625500
54.671250 55.951250
53.052750 56.169000
51.433750 56.350250
49.797250 56.454500
48.280750 55.977250
46.957250 55.176000
46.511750 53.899500
83.940000 53.948000
85.343250 52.914750
86.792250 51.974750
88.258500 51.048250
89.833250 50.300500
91.525750 50.087500
93.246750 50.272750
94.916000 50.710500
96.506250 51.363750
97.828500 52.474750
98.704250 53.366250
97.063750 53.864000
95.422250 54.463000
93.793250 55.084750
92.070750 55.296500
90.318000 55.322750
88.579500 55.190500
86.877500 54.899750
85.250000 54.423750
83.992750 53.868500
55.207750 94.860750
56.248000 93.136750
57.381250 91.547500
58.613000 89.964500
59.765750 88.343750
61.074500 86.851750
62.704000 85.756750
64.648500 85.608000
66.602000 85.881500
68.595750 86.018000
70.545500 86.257500
72.561500 86.250250
74.521250 85.933250
76.142250 84.803750
78.069500 84.468500
79.847250 85.279000
81.490500 86.411250
82.889500 87.810250
84.160750 89.355000
85.245250 91.025750
86.230000 92.746000
87.341750 94.368500
87.752000 96.270000
87.661000 98.271000
87.449500 100.252000
86.991750 102.170000
86.151500 103.936500
84.861750 105.454000
83.415750 106.854500
81.914000 108.174000
80.406000 109.495750
78.633000 110.405000
76.729500 111.015000
74.774250 111.406250
72.758250 111.497500
70.738250 111.543000
68.722250 111.634250
66.699000 111.679750
64.683000 111.588750
62.734750 111.181500
60.870250 110.431750
59.174000 109.378500
58.216000 107.766750
57.896250 105.844000
57.090750 104.082000
56.239000 102.301500
55.838750 100.361750
55.618000 98.379750
55.481250 96.405750
55.481250 94.632750
57.925500 94.703750
59.869750 93.164500
61.989750 92.049250
64.341250 91.293500
66.693500 90.834750
69.151750 90.564750
71.650750 90.474750
74.149500 90.564750
76.516750 91.177500
78.810500 91.919500
81.077750 92.805750
83.186000 94.129750
85.215500 95.450500
87.078000 96.929750
85.547750 98.708250
83.902000 100.534000
81.934000 102.044500
79.808750 103.309500
77.520250 104.218000
75.136000 104.871000
72.663250 105.051000
70.153750 105.096000
67.637000 105.096000
65.198500 104.751000
62.914250 103.968750
60.785250 102.904250
59.055500 101.322250
58.243250 99.160250
57.880750 96.793750
58.015500 94.613750
}
