version: 1
n_points: 120
{
46.158500 54.269000
47.305250 53.223250
48.650750 52.438750
50.114750 51.932000
51.652250 51.708250
53.214000 51.633750
54.747000 51.828000
56.263000 52.167500
57.569250 52.992250
58.904500 53.763500
58.660750 54.794500
57.162750 55.114250
55.638250 55.412750
54.137750 55.819250
52.623750 56.224500
51.073500 56.382250
49.535000 56.198500
48.024500 55.848500
46.687500 55.080500
46.282750 54.169500
83.064250 54.127750
84.452000 53.023750
85.981250 52.120500
87.563500 51.322000
89.233000 50.711750
90.992750 50.478250
92.778500 50.478250
94.512000 50.859250
96.204250 51.426250
97.753750 52.287000
97.540000 53.357250
95.891500 54.029250
94.177750 54.511250
92.430000 54.798750
90.655750 54.959750
88.874750 55.056750
87.090250 55.120750
85.305500 55.067000
83.565750 54.848250
83.064250 53.913250
55.857750 94.425000
56.722500 93.081250
57.622750 91.760750
58.472000 90.400250
59.422250 89.120500
60.459750 87.917000
61.561750 86.787250
62.868250 85.923000
64.377500 85.433250
65.996250 85.350500
67.541250 85.682000
69.136750 85.889000
70.759000 85.930500
72.308000 85.640500
73.732500 84.917000
75.268500 84.521750
76.894000 84.563250
78.459750 84.883250
79.877000 85.654000
81.151750 86.628500
82.289000 87.748500
83.480250 88.841000
84.578250 90.000750
85.608500 91.232500
86.359500 92.569250
86.811000 94.065250
86.332500 95.547500
85.175000 96.641250
83.871500 97.571750
82.648000 98.629500
81.441750 99.711250
80.105500 100.610500
78.705000 101.412250
77.306750 102.220250
75.878000 102.937250
74.366500 103.416750
72.762750 103.582500
71.130750 103.582500
69.517000 103.492250
67.926000 103.254500
66.326000 103.077750
64.804250 102.627750
63.357750 101.911250
61.949250 101.138000
60.590000 100.276000
59.354000 99.288750
58.333250 98.050000
57.484250 96.755750
56.491750 95.514750
55.982250 94.218000
60.785000 93.936000
62.095250 92.977250
63.503000 92.193500
65.007750 91.617000
66.486250 91.187000
68.054000 90.884500
69.654250 90.670500
71.281250 90.643500
72.887250 90.799250
74.500000 90.899250
76.108000 91.059250
77.686750 91.327000
79.225500 91.772000
80.636000 92.497750
81.822250 93.428750
81.054250 94.525750
79.628250 95.273250
78.104500 95.761000
76.524500 96.013750
74.929000 96.205500
73.305250 96.237500
71.674000 96.237500
70.042500 96.237500
68.411250 96.237500
66.785250 96.195250
65.174750 96.024500
63.569000 95.886000
62.006750 95.665750
60.689000 95.088750
60.944750 93.936000
}
