version: 1
n_points: 120
{
47.096500 55.575250
48.242000 54.872500
49.507000 54.399250
50.821250 54.082250
52.153250 53.896500
53.497750 53.807000
54.848500 53.827500
56.145500 54.154250
57.396750 54.658250
58.557500 55.330000
58.420500 56.061750
57.069750 56.103750
55.720750 56.164750
54.368250 56.205250
53.015750 56.246000
51.656750 56.246000
50.297750 56.246000
48.945500 56.205250
47.611000 56.103750
47.137000 55.555000
84.945750 54.573500
86.355500 53.692750
87.934750 53.164500
89.554000 52.766250
91.203500 52.588000
92.835750 52.859250
94.480000 53.097000
96.112750 53.432500
97.727500 53.835250
99.262750 54.446250
98.907500 54.917000
97.261500 55.133500
95.601750 55.260750
93.926500 55.260750
92.251000 55.260750
90.575750 55.260750
88.900500 55.260750
87.225000 55.260750
85.559000 55.311500
84.996500 54.573500
56.861250 89.809000
57.235500 88.281500
57.791250 86.833500
58.301250 85.341000
58.870000 83.899500
59.595750 82.533250
60.583000 81.326750
61.778500 80.461000
63.334250 80.238250
64.907250 80.238250
66.343750 80.683500
67.899750 80.869000
69.488250 80.906000
71.082750 80.906000
72.677250 80.906000
74.259500 80.831750
75.826500 80.644000
77.356250 80.266250
78.883250 79.904500
80.427750 79.682000
81.945250 79.963750
83.203250 80.910000
84.264000 82.034000
84.608750 83.554000
84.868500 85.100750
85.091000 86.645500
85.271000 88.203000
85.122500 89.709000
84.113500 90.847750
82.560750 90.996000
81.101750 91.387000
79.774000 92.158250
78.643250 93.252250
77.527750 94.367500
76.461500 95.508000
75.353500 96.597750
74.032000 97.434500
72.551000 97.858750
70.974000 97.858750
69.385500 97.821750
67.818000 97.673250
66.301250 97.274000
64.889250 96.697750
63.531750 95.923000
62.326000 94.914250
61.368000 93.685250
60.321250 92.499750
59.136500 91.484500
57.841500 90.715250
56.824250 89.883250
58.807250 90.738250
60.367500 90.016000
61.980000 89.512250
63.629250 89.185500
65.292000 88.877500
66.963500 88.499500
68.643750 88.282750
70.348250 88.391250
72.063750 88.463250
73.793750 88.463750
75.510500 88.571750
77.216750 88.726000
78.853250 89.187250
80.491750 89.618750
82.053000 90.088250
81.782500 90.160500
80.123500 89.859500
78.474500 89.470250
76.855750 88.932750
75.239000 88.446500
73.613000 88.103250
71.921250 87.957750
70.205500 87.945750
68.524750 88.154250
66.886250 88.432000
65.319500 88.932750
63.711000 89.366000
62.089250 89.767000
60.489500 90.240000
58.951750 90.593750
}
