version: 1
n_points: 120
{
46.588000 55.865500
47.789000 54.877500
49.140250 54.117750
50.618250 53.650500
52.131250 53.334750
53.694000 53.255000
55.233500 53.458250
56.747500 53.819500
58.157750 54.471500
59.320750 55.465500
59.279750 56.424750
57.759000 56.691250
56.200000 56.781500
54.645250 56.904250
53.082250 56.984250
51.508500 56.984250
49.939250 57.010750
48.384250 56.881500
46.888250 56.618500
46.801000 55.652250
84.279750 55.549250
85.514750 54.603000
86.822750 53.776500
88.201750 53.070750
89.688000 52.596500
91.232500 52.419750
92.790500 52.492000
94.328250 52.723250
95.837500 53.142750
97.232750 53.746000
97.282750 54.813250
95.784750 55.212750
94.257500 55.570500
92.721250 55.838250
91.173000 55.982500
89.604000 55.982500
88.041000 56.044000
86.494250 56.175250
84.942750 56.271500
84.400000 55.453000
57.226000 91.150500
57.686500 89.684750
58.207250 88.245000
58.689500 86.807750
59.294750 85.415250
60.167750 84.178750
61.213750 83.075500
62.394250 82.182750
63.861500 81.856000
65.339000 81.638250
66.868000 81.529250
68.422750 81.529250
69.977500 81.529250
71.527750 81.493000
73.082750 81.493000
74.621250 81.602000
76.170000 81.638250
77.707500 81.711000
79.236750 81.819750
80.747500 82.001250
82.214250 82.369250
83.333750 83.384500
84.369500 84.479000
85.073000 85.803000
85.581250 87.192500
86.050750 88.604000
86.114000 90.121250
85.144500 91.259500
83.696500 91.586250
82.214500 91.890000
80.909500 92.627500
79.818500 93.672000
78.843750 94.828000
77.950500 96.058500
76.968250 97.222000
75.768000 97.986500
74.323000 98.411750
72.802500 98.557000
71.247750 98.557000
69.727500 98.399750
68.265500 97.995500
66.826750 97.504250
65.446000 96.865500
64.143000 96.070500
62.918500 95.158750
61.679500 94.297000
60.575000 93.301250
59.438250 92.293000
58.275250 91.328500
57.516500 90.751250
59.462250 91.971250
61.034250 91.310750
62.663000 90.857750
64.296500 90.491250
65.945500 90.134750
67.612000 89.841000
69.300000 89.685500
70.999000 89.598750
72.700750 89.529250
74.397750 89.636000
76.082750 89.841750
77.747250 90.168000
79.396750 90.580500
81.052500 90.932250
82.648250 91.324750
82.070250 91.217000
80.452250 90.812750
78.792500 90.538000
77.127250 90.234250
75.460250 89.924250
73.792250 89.672750
72.131750 89.421500
70.435250 89.401500
68.772250 89.622000
67.136500 89.935000
65.512500 90.283250
63.895750 90.642500
62.274000 90.996000
60.744000 91.576000
59.534000 92.150750
}
