version: 1
n_points: 120
{
47.210500 56.979750
48.391250 56.056250
49.713500 55.355000
51.083000 54.738750
52.528000 54.422500
54.024750 54.369250
55.529250 54.416000
56.994000 54.664750
58.427000 55.049250
59.794750 55.567750
59.105750 56.399500
57.751000 56.953000
56.296750 57.272750
54.818250 57.480500
53.341250 57.671000
51.865000 57.832000
50.372000 57.912000
48.864250 57.938750
47.433750 57.805500
47.397000 56.873000
84.501500 55.634250
85.788500 54.775500
87.245250 54.250500
88.745750 53.894250
90.296000 53.819750
91.837250 53.939000
93.367500 54.106250
94.915500 54.201750
96.429250 54.483250
97.854000 55.013500
97.145250 55.825250
95.643000 56.119750
94.104000 56.285250
92.567500 56.446000
91.025250 56.589250
89.468750 56.637000
87.910000 56.660750
86.353000 56.684750
84.832750 56.516000
84.788000 55.419250
54.152500 91.208750
55.915250 91.139500
57.441500 90.355500
59.005750 89.568000
60.597500 88.817500
62.155000 88.023250
63.786000 87.346500
65.473500 87.043500
67.206750 87.217000
68.924000 87.536000
70.643250 87.841750
72.401000 87.911250
73.880250 87.239750
75.449750 86.677000
77.182000 86.731000
78.885750 87.105250
80.543000 87.648500
82.137500 88.388250
83.660000 89.232000
85.219750 90.046500
86.707750 90.946750
88.294000 91.653000
89.954000 91.972500
89.894250 92.781500
88.687500 94.057500
87.569500 95.379000
86.316500 96.545500
85.030500 97.689750
83.594250 98.664750
82.150500 99.657250
80.628500 100.525750
79.013750 101.234750
77.434000 102.008750
75.816500 102.696750
74.128000 103.114750
72.389750 103.288250
70.632000 103.219000
68.921000 102.941250
67.223750 102.594000
65.535250 102.247000
63.900500 101.723500
62.285000 101.019750
60.768500 100.174750
59.407750 99.112500
58.151750 97.913250
56.962000 96.654500
56.096250 95.174000
55.325250 93.666000
54.310250 92.319500
54.291250 91.000500
62.057000 93.404000
63.422250 92.953750
64.851500 92.889500
66.301500 92.889500
67.743750 92.921500
69.193750 92.921500
70.604250 92.793000
72.025750 92.696500
73.468250 92.664250
74.910500 92.696500
76.350250 92.760750
77.783500 92.857250
79.228250 92.889500
80.636250 93.018000
81.096750 93.919250
79.926000 94.665250
78.628250 95.140750
77.245750 95.398000
75.837000 95.623250
74.408000 95.752000
72.977500 95.880500
71.538000 95.945000
70.095750 95.977000
68.668500 95.880500
67.256750 95.698250
65.879000 95.430250
64.525000 95.120500
63.190000 94.754750
61.949750 94.326000
62.121250 93.339750
}
