version: 1
n_points: 120
{
45.728500 54.666250
46.940250 53.627750
48.320750 52.829500
49.768750 52.173000
51.315000 51.827750
52.930250 51.854750
54.519500 52.055000
56.050250 52.568750
57.350500 53.475750
58.739750 54.161500
58.505000 55.361750
57.139500 56.017750
55.557000 56.180000
53.988000 56.450500
52.399500 56.641750
50.781750 56.666750
49.188500 56.504250
47.646250 56.125500
46.177250 55.558250
45.836500 54.450000
83.261500 54.579250
84.587500 53.584000
85.976500 52.685750
87.432500 51.895500
88.987250 51.318500
90.592500 50.934750
92.250250 50.934750
93.865000 51.260500
95.399750 51.884500
96.820500 52.725250
96.832500 53.522000
95.321250 54.183250
93.793250 54.815250
92.181750 55.194750
90.539750 55.358250
88.884750 55.285250
87.227500 55.215000
85.570500 55.149500
83.931000 55.025500
83.400500 54.440250
49.937750 87.812750
51.991500 87.291500
54.038000 86.795000
56.083250 86.493500
58.075250 85.966000
60.054000 85.357750
62.089250 84.910750
64.192250 84.797750
66.290500 84.959750
68.373500 85.214250
70.455000 85.443250
72.570750 85.513750
74.567500 85.023750
76.430250 84.119250
78.476000 83.780000
80.567750 83.984750
82.584750 84.599750
84.606750 85.223500
86.666000 85.721500
88.715000 86.266250
90.709500 86.905000
92.538250 87.624250
92.147500 89.434000
91.190250 91.311000
90.332500 93.221500
89.120000 94.924000
87.814250 96.555500
86.461250 98.156000
84.915000 99.550750
83.213000 100.759750
81.421000 101.825500
79.499250 102.719750
77.459250 103.189250
75.381250 103.490750
73.251250 103.490750
71.136500 103.415250
69.006500 103.415250
66.932000 103.125500
64.900250 102.624000
62.874000 102.025500
61.005500 101.072500
59.327250 99.802500
57.573250 98.659000
55.983250 97.295000
54.638500 95.744000
53.385500 94.124500
52.025750 92.576250
50.705750 90.954750
49.636250 89.249750
49.937750 87.511250
54.057750 89.624000
55.654000 88.452250
58.447500 89.093750
61.332500 89.472500
64.216000 89.851500
67.145750 89.927250
70.076250 90.003000
72.989250 89.851500
75.838250 89.331250
78.721000 88.904250
81.613750 88.563250
84.503250 88.222250
87.397250 87.881500
90.290750 87.646500
90.400000 89.375500
88.551750 91.569000
86.241500 93.355250
83.799250 94.901500
81.149250 96.130000
78.394250 97.120500
75.531250 97.770750
72.631750 98.148250
69.716000 97.996750
66.824750 97.655750
63.969500 96.989250
61.197000 96.035000
58.569000 94.777250
56.091000 93.265250
53.987000 91.480500
53.944250 88.752750
}
