version: 1
n_points: 120
{
45.357000 54.161500
46.532750 53.170000
47.940250 52.510250
49.399500 51.963250
50.883500 51.541500
52.441500 51.557000
53.997750 51.635000
55.501750 51.954250
56.868000 52.675750
58.182750 53.516000
58.567500 54.547000
57.135000 55.125250
55.674500 55.605250
54.155000 55.830250
52.613250 55.984750
51.054750 56.036750
49.494500 56.009000
47.999500 55.672250
46.619000 55.001000
45.409000 54.239750
83.084000 53.965500
84.482750 53.030750
85.713500 51.916250
87.100500 50.993250
88.639750 50.340000
90.292250 50.136750
91.973500 50.247750
93.599250 50.654250
95.164000 51.252500
96.527500 52.210000
96.676500 53.379000
95.242750 54.195000
93.610250 54.487750
91.931000 54.603750
90.240000 54.661750
88.544500 54.678500
86.855500 54.748750
85.161000 54.777750
83.480250 54.685750
83.432000 53.733500
49.836250 87.828500
51.538750 86.691500
53.285250 85.935500
55.030250 85.205750
56.929500 84.685500
58.949750 84.435500
61.018000 84.399750
63.075500 84.507000
65.121250 84.744750
67.181750 84.899750
69.230000 85.114000
71.295750 85.221250
73.372750 85.185500
75.348250 84.685500
77.341000 84.292750
79.371000 83.989750
81.412000 83.971250
83.366250 84.435500
85.328000 84.949250
87.314250 85.404250
89.309000 85.832500
91.228250 86.364000
92.693500 87.322750
92.237750 89.302750
91.511000 91.233500
90.412000 92.962750
88.973000 94.442000
87.494500 95.884500
86.191500 97.454500
84.526000 98.626500
82.656500 99.496000
80.805500 100.397500
78.864500 101.078500
76.827500 101.364250
74.754750 101.364250
72.671750 101.364250
70.594750 101.328500
68.525000 101.221250
66.465500 101.030500
64.456500 100.535250
62.565250 99.710750
60.763000 98.719250
59.087500 97.543750
57.397500 96.420250
55.746250 95.202750
54.093500 93.997500
52.426500 92.811500
50.845500 91.516250
50.132500 89.706750
50.050500 87.757000
52.672750 88.984750
54.485250 87.552250
57.393000 87.929250
60.271500 88.494750
63.120500 89.156750
66.078750 89.361750
69.049500 89.211000
72.008750 89.022500
74.955500 88.758750
77.909750 88.494750
80.841750 88.155500
83.770750 87.816000
86.655000 87.434750
89.611500 87.212750
90.484250 88.991500
88.605500 91.170000
86.232750 92.884250
83.550750 94.149750
80.772000 95.162000
77.948250 95.970750
75.033500 96.473750
72.088000 96.789000
69.132000 96.562750
66.218750 96.097250
63.379500 95.394000
60.580250 94.597250
57.756750 93.695500
55.026250 92.544750
52.710500 90.832250
52.823750 88.344000
}
