version: 1
n_points: 120
{
45.336500 51.230000
46.544500 50.131250
47.920500 49.279250
49.406250 48.552500
50.943750 48.165500
52.593500 48.072500
54.214750 48.310000
55.742500 48.899750
57.151000 49.753250
58.642000 50.335000
58.531500 51.510250
57.144000 52.199500
55.503750 52.349250
53.899500 52.710000
52.306250 53.125000
50.677250 53.368250
49.037500 53.267000
47.463250 52.846000
46.006250 52.074500
45.386250 51.080750
83.048000 50.577750
84.326750 49.442000
85.729000 48.490000
87.238250 47.704500
88.838000 47.133500
90.533500 46.901500
92.178250 47.307000
93.809250 47.840750
95.324250 48.609250
96.763500 49.519250
96.986000 50.540500
95.562000 51.418750
93.894250 51.678000
92.200250 51.852250
90.490250 51.973250
88.765250 51.973250
87.044750 51.946500
85.320000 51.946500
83.676250 51.716000
83.075000 50.416750
50.704250 85.099750
52.556750 84.365500
54.409250 83.655250
56.229000 82.862250
57.955250 81.921250
59.771000 81.222250
61.698000 80.785000
63.691000 80.746000
65.690250 80.746000
67.651500 80.979250
69.590750 81.314500
71.553250 81.523500
73.523000 81.341750
75.418000 80.839750
77.321750 80.357500
79.311750 80.396250
81.258250 80.720500
83.126750 81.407750
85.021500 82.017500
86.962750 82.492500
88.881250 83.000750
90.615000 83.714500
92.341750 84.516750
91.950750 86.258250
90.853500 87.864750
89.735000 89.488500
88.596250 91.093750
87.133750 92.439500
85.641250 93.714000
84.051500 94.861000
82.280250 95.746500
80.461750 96.534000
78.561000 97.115750
76.610000 97.422000
74.617000 97.383000
72.632750 97.266500
70.658250 97.076500
68.700750 96.800000
66.801500 96.316250
64.903250 95.844750
62.981500 95.437500
61.091250 94.872250
59.216750 94.253750
57.434000 93.381000
55.671500 92.479750
53.893250 91.592000
52.403750 90.322500
51.326250 88.779250
50.937500 86.892750
50.782000 84.983000
53.682000 86.838250
53.870250 85.043250
56.546250 85.592750
59.317250 85.739250
62.130000 85.776000
64.934250 85.702750
67.724500 85.519500
70.501750 85.263000
73.282750 85.080000
76.074500 84.930250
78.881750 84.860000
81.656000 84.677000
84.408250 84.315250
87.190750 84.127500
89.886500 84.321500
89.095250 86.552750
86.829250 88.123500
84.478750 89.597750
82.042000 90.865250
79.363250 91.575750
76.613750 92.003750
73.864750 92.333250
71.069250 92.296750
68.314000 92.025750
65.552500 91.600750
62.801750 91.172750
60.072500 90.721500
57.460500 89.844000
54.931000 88.745000
53.535250 86.691750
}
