version: 1
n_points: 120
{
45.407250 52.106250
46.629000 50.987500
48.054000 50.136750
49.558750 49.409750
51.159750 49.003750
52.828500 48.889750
54.483500 49.030750
56.068250 49.550250
57.520000 50.364750
58.907750 51.118750
58.567250 52.180000
57.199000 53.065750
55.651250 53.545250
54.029500 53.827500
52.385750 54.025000
50.731250 54.138000
49.063500 54.081500
47.472500 53.827500
46.071750 53.065750
45.520250 52.021750
82.787500 51.256750
84.014000 50.089750
85.364250 49.074500
86.885250 48.332750
88.506250 47.861000
90.191250 47.711000
91.883750 47.860000
93.525750 48.307000
95.101750 48.932750
96.434000 49.976000
96.442000 51.118500
94.883250 51.823250
93.269250 52.391000
91.604500 52.697500
89.911500 52.865500
88.195250 52.895500
86.488500 52.806000
84.807500 52.579500
83.193250 52.139000
82.936500 51.167250
55.918000 91.921250
56.672750 90.581250
57.533000 89.288000
58.365250 87.976750
59.230000 86.688750
60.003500 85.345500
61.044250 84.216250
62.279750 83.285750
63.573000 82.426000
65.059500 82.079000
66.612250 82.113000
68.110500 82.325250
69.636250 82.486250
71.194500 82.418500
72.690500 82.106250
74.141750 81.671750
75.664500 81.889500
77.115250 82.404250
78.384250 83.299750
79.687000 84.168500
80.902500 85.139250
82.090000 86.154250
83.192000 87.191000
84.266750 88.333750
85.302500 89.465000
86.133000 90.709250
85.820250 92.156500
85.074500 93.475750
84.129500 94.708500
83.102500 95.892500
82.048000 97.013250
80.705000 97.796000
79.321000 98.529500
77.821750 98.980500
76.317500 99.319750
74.775000 99.523500
73.209000 99.591250
71.634750 99.591250
70.072750 99.490250
68.509500 99.376500
66.973500 99.116250
65.456000 98.811500
63.939750 98.532000
62.476250 97.987750
61.011750 97.420250
59.685500 96.621750
58.595750 95.515500
57.552250 94.409000
56.609250 93.200250
55.986000 91.921250
62.452250 90.781000
63.462250 89.943500
64.547000 89.232750
65.732000 88.640250
66.962750 88.215000
68.244250 87.954000
69.578500 87.914750
70.919750 87.880250
72.263500 87.845750
73.613000 87.845750
74.946000 87.914750
76.217250 88.178500
77.412250 88.640000
78.514000 89.350500
79.575750 90.121250
79.953000 91.167000
78.856000 91.816000
77.569750 92.095250
76.239250 92.196750
74.889750 92.196750
73.540250 92.196750
72.196500 92.162250
70.857000 92.093000
69.522750 91.998250
68.186000 91.920500
66.842250 91.886000
65.492750 91.886000
64.157000 91.816750
62.852500 91.678750
62.521250 90.746250
}
