version: 1
n_points: 120
{
44.848000 51.987500
45.967500 50.733000
47.383000 49.836000
48.909000 49.118500
50.474250 48.641000
52.170500 48.672500
53.795500 49.026250
55.403000 49.507250
56.920000 50.241250
58.237750 51.264750
58.120500 52.360000
56.675500 53.191000
55.066250 53.643250
53.446000 54.008000
51.778000 54.229000
50.099500 54.355250
48.410750 54.292000
46.845000 53.858250
45.398500 53.074500
44.974250 51.924250
81.984250 51.519750
83.565000 50.564250
85.029500 49.474750
86.626250 48.617250
88.267750 47.811750
90.031500 47.297750
91.829000 47.429500
93.560500 48.040250
95.193750 48.863250
96.812750 49.732250
97.014250 51.096000
95.402500 51.961750
93.742250 52.719250
91.985750 53.139250
90.166500 53.349250
88.334500 53.319250
86.515000 53.139250
84.720750 52.781750
83.056000 52.209500
82.194250 51.309750
58.539250 91.130500
59.061750 89.945000
59.755250 88.872250
60.612000 87.912000
61.483250 86.957500
62.383750 86.032500
63.295500 85.124000
64.228250 84.226000
65.234750 83.428000
66.402500 82.927500
67.687250 82.865250
68.969750 82.962000
70.249000 83.092750
71.515000 83.312500
72.755750 83.645250
73.996250 84.000750
75.164250 84.529000
76.223750 85.232250
77.157000 86.117750
78.058500 87.035000
78.897000 88.012250
79.584250 89.080250
80.001000 90.289000
80.093250 91.548250
79.792750 92.788750
79.410750 94.003000
78.907500 95.167000
78.192250 96.238500
77.421000 97.275250
76.537750 98.205500
75.672000 99.152250
74.793250 100.088250
73.695250 100.760250
72.516250 101.280250
71.255750 101.549000
69.963250 101.583000
68.714250 101.357750
67.461250 101.142750
66.192750 100.951500
64.992750 100.521500
63.848000 99.936750
62.685500 99.388750
61.549250 98.799750
60.680250 97.925000
60.038750 96.832000
59.511250 95.679500
58.921250 94.571250
58.686750 93.335750
58.643500 92.049250
58.817000 90.818000
68.814250 91.298000
69.053500 91.144000
69.293000 90.990250
69.532250 90.836500
69.771500 90.682500
70.015250 90.561000
70.276500 90.489500
70.555250 90.466000
70.835250 90.447000
71.119750 90.447000
71.356250 90.563000
71.560250 90.757000
71.560250 91.041500
71.453500 91.288500
71.279750 91.501000
71.078500 91.702250
70.883750 91.897000
70.671500 92.071500
70.442500 92.222250
70.223750 92.380750
69.994000 92.458250
69.709500 92.458250
69.450000 92.397750
69.203500 92.306000
69.006750 92.148750
68.853000 91.972750
68.773500 91.721250
68.792000 91.474750
69.004500 91.301000
69.201000 91.143250
}
