version: 1
n_points: 120
{
44.621000 51.666250
46.014000 50.694250
47.471750 49.846000
49.024000 49.131250
50.675250 48.968750
52.264000 49.222500
53.869500 49.549000
55.498500 49.926250
57.094250 50.390500
58.517250 51.175750
57.906000 52.478000
56.349250 53.113250
54.719500 53.550250
53.062750 53.909000
51.389750 54.160750
49.725000 54.421750
48.023000 54.421750
46.481000 53.932500
45.217500 52.863750
44.824000 51.492250
81.661250 51.365000
83.127000 50.285750
84.733500 49.442500
86.301750 48.521750
87.967250 47.795500
89.720000 47.396000
91.551750 47.407500
93.304250 47.911750
94.948500 48.672000
96.327250 49.827500
96.393750 51.057750
94.763000 51.899750
93.050750 52.549750
91.262750 52.900250
89.430500 52.963250
87.594500 52.921500
85.784250 52.723500
83.987000 52.537000
82.257000 52.142250
81.901000 51.178500
52.475250 87.989250
53.853500 86.864000
55.429250 86.009000
56.958250 85.102250
58.618250 84.432250
60.352000 83.962750
62.112000 83.691000
63.918000 83.689250
65.688750 83.947000
67.472000 84.112750
69.258750 84.234750
71.058250 84.275750
72.855250 84.210500
74.656500 84.178000
76.456250 84.135750
78.250500 84.047750
80.051500 84.015000
81.849750 84.070000
83.597750 84.373500
85.279000 84.943750
86.666000 86.054500
87.767750 87.430750
88.779750 88.901000
88.934750 90.644000
87.906250 92.109500
86.733750 93.461000
85.573250 94.828250
84.394250 96.170000
82.953750 97.248250
81.399250 98.153750
79.757750 98.868750
78.042250 99.407750
76.283250 99.788750
74.504500 100.042000
72.711250 100.172250
70.918500 100.042000
69.127750 99.879000
67.357500 99.595250
65.612750 99.173000
63.875250 98.698000
62.170500 98.133250
60.508500 97.450500
58.858500 96.735250
57.249750 95.928250
55.721250 95.007000
54.293750 93.944750
53.091500 92.645000
52.289750 91.071500
52.084250 89.334750
52.670500 87.793750
55.164750 89.107000
56.701000 87.815250
59.166000 87.972750
61.662000 88.004250
64.143500 88.142750
66.635500 88.174000
69.134250 88.161750
71.624000 88.256250
74.123750 88.256250
76.623750 88.256250
79.110750 88.161750
81.586750 87.972750
84.070000 87.846750
86.534500 87.657750
87.523500 88.412750
85.807750 90.166000
83.651500 91.405500
81.383250 92.412750
79.069500 93.315500
76.682750 93.997000
74.219000 94.305500
71.723000 94.337000
69.223000 94.337000
66.740000 94.211000
64.280000 93.927500
61.836500 93.549500
59.511250 92.745250
57.275750 91.680000
55.117500 90.477500
55.196500 88.697250
}
