version: 1
n_points: 120
{
44.377250 51.952250
45.594000 50.682000
47.048750 49.679250
48.640500 48.880000
50.311500 48.331000
52.055750 48.395000
53.749750 48.943250
55.441500 49.494500
57.110000 50.097500
58.429500 51.226250
58.152250 52.649500
56.529500 53.357750
54.824000 53.885500
53.096250 54.276500
51.341000 54.521250
49.567500 54.619250
47.792500 54.542500
46.105750 54.052000
44.540500 53.257250
44.475000 51.732000
82.050000 51.851250
83.553750 50.750500
85.095500 49.711250
86.664250 48.712500
88.333750 47.903500
90.096750 47.316250
91.945750 47.289250
93.712750 47.807500
95.245250 48.807500
96.812250 49.788000
96.768250 51.051000
95.074000 51.821500
93.383500 52.581750
91.593750 53.080000
89.764000 53.357750
87.902250 53.372750
86.055500 53.220000
84.205000 53.052750
82.372500 52.817500
82.103500 51.744000
49.354250 85.903000
51.430750 85.523000
53.470500 85.227250
55.271250 84.762750
57.192500 84.272000
59.193750 83.665000
61.228500 83.217250
63.268000 82.862750
65.351250 82.693750
67.451500 82.778250
69.531000 82.989250
71.624250 83.116000
73.693750 82.947250
75.700750 82.441750
77.778500 82.229250
79.891250 82.263000
82.002750 82.315750
84.097500 82.482750
86.178250 82.736000
88.218750 83.166500
90.151750 83.985250
92.081500 84.844500
92.402000 86.539500
91.622500 88.437750
90.707000 90.295750
89.493000 91.977500
88.013000 93.439500
86.425500 94.793250
84.792500 96.068750
82.973250 97.104500
81.145250 98.107500
79.278250 99.068250
77.318000 99.795250
75.238250 100.006500
73.135000 99.922000
71.018250 99.922000
68.912250 99.854000
66.854500 99.466750
64.823750 99.035250
62.825500 98.486250
60.855500 97.810750
58.926000 97.086000
57.092000 96.084500
55.356250 95.011750
53.671500 93.804250
52.162750 92.364500
50.888500 90.730750
49.749500 89.042750
49.205000 87.192250
49.903250 85.480750
52.980500 88.107750
54.422250 86.483250
57.197500 87.022750
60.080750 87.191500
62.956750 87.438250
65.846750 87.614250
68.739250 87.755250
71.647250 87.743750
74.534000 87.544000
77.399250 87.166500
80.256250 86.758000
83.099750 86.310250
85.932250 85.829500
88.815000 85.640750
90.525250 86.548250
88.631000 88.653750
86.666250 90.756750
84.278000 92.360750
81.723250 93.682250
78.951500 94.416750
76.079500 94.663500
73.178000 94.593000
70.281250 94.487250
67.387750 94.381500
64.497500 94.240500
61.632250 94.055000
58.931250 93.530000
56.443500 92.240500
54.344500 90.282500
52.910000 88.072500
}
