version: 1
n_points: 120
{
44.045500 52.143750
45.292500 50.782500
46.739500 49.627000
48.401250 48.832250
50.172750 48.334500
52.009250 48.304750
53.756250 48.820000
55.410250 49.623500
56.842500 50.774250
58.496250 51.586000
58.980000 52.893500
57.324250 53.632250
55.579000 54.115000
53.807750 54.568000
52.000250 54.843000
50.149750 54.918250
48.315500 54.753000
46.627250 54.185500
45.175250 53.203250
44.105500 52.113750
82.472750 52.091500
83.854250 50.862000
85.366750 49.803000
86.869250 48.744500
88.540250 47.978750
90.324500 47.504250
92.148000 47.478250
93.863000 48.118250
95.510000 48.955500
97.123750 49.836500
97.456000 51.312750
95.822750 52.135250
94.148750 52.915750
92.437250 53.583250
90.621000 53.832000
88.764500 53.859500
86.927250 53.695500
85.133750 53.279500
83.380750 52.837500
82.693750 51.898250
49.139750 86.147750
51.243500 85.907750
53.289500 85.597750
55.304500 85.069500
57.273500 84.305000
59.172750 83.394000
61.234750 83.130750
63.336750 83.268000
65.439750 83.439250
67.528750 83.706500
69.597750 84.056500
71.694000 84.227750
73.774000 83.987750
75.742750 83.370750
77.816250 83.096500
79.929250 83.028000
82.015750 83.267250
84.053500 83.819750
86.069250 84.460750
88.112250 85.036500
90.115250 85.599250
92.122000 86.076000
92.590000 87.391000
91.620000 89.228250
90.628750 91.073500
89.348500 92.736250
87.981750 94.343250
86.470500 95.818750
84.811500 97.102000
83.202250 98.466000
81.445500 99.645250
79.600500 100.632750
77.554250 101.097750
75.456250 101.267000
73.337500 101.232750
71.213500 101.232750
69.089500 101.232750
66.973000 101.164000
64.881750 100.889750
62.852250 100.329250
60.908000 99.529250
59.092750 98.485750
57.366000 97.288250
55.701750 95.996500
54.071750 94.658500
52.682250 93.095500
51.313000 91.520000
49.962000 89.952250
49.139750 88.107750
49.071000 86.182000
52.506250 88.902750
53.764750 86.893750
56.534250 87.624250
59.451500 88.127750
62.429000 88.245250
65.424000 88.245250
68.403250 88.135750
71.393750 88.099250
74.370750 87.989500
77.327750 87.692500
80.259000 87.215250
83.188000 86.684000
86.126500 86.272750
89.109500 86.199750
90.646250 87.362500
89.153000 89.831750
87.219500 92.031250
84.691000 93.539250
81.839250 94.222750
78.958000 94.988500
76.012250 95.349250
73.060500 95.681000
70.089000 95.879250
67.110500 95.769750
64.139750 95.561500
61.207750 95.004750
58.312250 94.320250
55.746250 92.860500
53.381000 91.165500
52.433250 88.647000
}
