version: 1
n_points: 120
{
43.547000 52.348250
44.928750 51.034000
46.446250 49.907750
48.088750 48.996500
49.897000 48.469000
51.798000 48.385000
53.615500 48.843500
55.211750 49.860500
56.785000 50.909750
58.368250 51.938750
58.324250 52.886250
56.566500 53.620500
54.841500 54.379250
53.018500 54.846750
51.151000 55.130750
49.256500 55.263500
47.351750 55.230750
45.831000 54.391250
44.233500 53.428000
43.678000 52.119000
81.829000 51.993500
83.108000 50.714500
84.600000 49.673750
86.111750 48.667750
87.828250 48.045250
89.608750 47.641250
91.410000 47.394250
93.137000 47.862250
94.672250 48.821500
96.136500 49.892250
97.123250 51.088500
95.631250 52.114250
93.947250 52.821500
92.212750 53.385250
90.420000 53.658250
88.598000 53.545250
86.801750 53.351250
85.035000 53.015000
83.280750 52.670500
81.913500 51.908750
54.848000 93.422500
55.578500 91.997750
56.381250 90.634000
57.273750 89.315250
58.317500 88.097000
59.338750 86.863250
60.409750 85.673000
61.685750 84.718750
63.173250 84.103000
64.733250 83.803000
66.332500 83.834250
67.880750 84.153500
69.469250 84.219750
71.015250 83.837750
72.504750 83.288750
74.077750 83.073750
75.651750 83.352500
77.079000 84.084250
78.422750 84.963500
79.725500 85.913250
80.953250 86.953000
82.113250 88.078250
83.196750 89.265750
84.264250 90.460250
85.249000 91.714250
85.721250 93.223500
85.397500 94.764250
84.401000 96.010000
83.113750 96.978250
81.798000 97.913250
80.496750 98.855250
79.170750 99.764750
77.753250 100.512250
76.247000 101.060500
74.723500 101.563500
73.133000 101.792000
71.524750 101.861500
69.906750 101.861500
68.293000 101.826750
66.686250 101.756000
65.111750 101.479500
63.566750 101.075000
62.067500 100.482500
60.811250 99.549500
59.723500 98.409250
58.524500 97.342000
57.365500 96.223750
56.125750 95.221000
54.880500 94.253750
54.917500 93.110000
62.457250 92.574000
63.346250 91.702750
64.424750 91.095250
65.567000 90.593000
66.749500 90.218500
67.952750 89.957000
69.185000 89.843000
70.432500 89.809000
71.682750 89.843000
72.929750 89.897500
74.164000 90.013750
75.386500 90.204250
76.591000 90.457500
77.754250 90.903250
78.657750 91.672250
78.407750 92.723000
77.258000 93.120000
76.063500 93.420500
74.844750 93.633500
73.616500 93.802750
72.377500 93.905250
71.138500 93.992750
69.894750 94.076000
68.644500 94.110000
67.397250 94.041750
66.163500 93.905250
64.938000 93.734500
63.765000 93.461500
62.628000 93.144500
62.559750 92.471500
}
