version: 1
n_points: 120
{
43.875750 52.414250
44.966500 50.921000
46.429500 49.780000
48.116250 48.996000
49.924500 48.517000
51.777250 48.415250
53.539000 49.038750
55.138250 49.966750
56.661250 51.028250
58.281250 51.918750
58.319500 53.082000
56.720000 54.022500
54.943250 54.588500
53.113000 54.990750
51.267750 55.211750
49.415750 55.393000
47.548250 55.332750
45.818750 54.704250
44.370000 53.593000
43.956250 52.152750
80.773000 51.849500
82.595000 51.016500
84.222750 49.930250
85.841500 48.794000
87.656250 47.966250
89.563500 47.459500
91.560750 47.363750
93.443000 47.923750
95.209000 48.842250
96.778250 49.982750
96.477750 51.685500
94.699250 52.517000
92.837250 53.255500
90.904500 53.756750
88.891500 53.756750
86.931250 53.513500
85.000750 53.085500
83.033750 52.803000
81.069000 52.555750
80.949750 51.743500
57.474500 94.630500
58.277000 93.451250
59.103000 92.315750
60.036500 91.239250
61.006750 90.193500
61.914000 89.098000
62.821250 88.002500
63.662500 86.859500
64.629500 85.854750
65.886750 85.321750
67.226500 85.623250
68.624250 85.736250
70.029000 85.585500
71.429000 85.368500
72.834500 85.171000
74.184000 85.460500
75.274750 86.345000
76.350750 87.238500
77.384250 88.234500
78.411750 89.224250
79.294750 90.331750
80.137250 91.477250
80.971750 92.622500
81.792500 93.773250
81.873750 95.127500
81.324750 96.407750
80.630500 97.613500
79.731500 98.717000
78.735500 99.750750
77.766500 100.795250
76.810500 101.824000
75.724250 102.714750
74.685250 103.688000
73.532000 104.504750
72.180500 104.916500
70.778500 105.145250
69.353000 105.220750
67.921250 105.258500
66.498000 105.150750
65.100500 104.936250
63.736750 104.617750
62.428250 104.155000
61.376000 103.243000
60.715500 102.033750
60.260500 100.730250
59.569500 99.514250
58.784000 98.328250
58.256000 97.013000
57.933500 95.655000
57.625250 94.404250
67.447500 94.225750
67.793500 94.095000
68.139250 93.964000
68.485250 93.833250
68.837500 93.736750
69.207250 93.736750
69.577000 93.736750
69.938750 93.771750
70.285750 93.841500
70.645000 93.886250
70.975000 93.972000
71.184500 94.152750
71.254250 94.493750
71.219500 94.849000
71.124500 95.184000
70.899000 95.454250
70.603750 95.668750
70.268750 95.801250
69.930750 95.935500
69.582250 96.002750
69.214000 96.007000
68.867000 95.937000
68.548750 95.797500
68.257000 95.594000
67.971500 95.404000
67.791750 95.129000
67.587250 94.843750
67.482500 94.558250
67.513000 94.230000
67.727000 94.051250
}
