version: 1
n_points: 120
{
43.772000 52.673750
45.059000 51.437750
46.416250 50.274750
47.917750 49.323500
49.633750 48.802500
51.404750 48.626750
53.085750 49.071000
54.605000 49.991000
56.116500 50.951000
57.662750 51.817750
57.822500 53.004750
56.301000 53.875000
54.614250 54.473000
52.896500 54.974500
51.148500 55.367000
49.367500 55.499250
47.576750 55.478000
45.955250 54.908000
44.609500 53.842250
43.899250 52.572000
82.361250 51.806750
83.573750 50.513500
84.995750 49.441250
86.557750 48.574000
88.217000 47.939250
89.979000 47.737250
91.746500 47.897750
93.479250 48.286000
95.090500 49.022000
96.389250 50.191250
96.528000 51.649500
95.033750 52.597750
93.369750 53.210000
91.656500 53.731500
89.891750 53.977250
88.109000 54.002000
86.347500 53.780000
84.597000 53.508750
82.922000 53.009000
82.386000 51.757500
55.425000 97.526000
56.066750 95.790750
57.006500 94.182000
58.093500 92.686000
59.155500 91.174750
60.445000 89.840000
61.686250 88.483000
63.117000 87.348750
64.867000 86.817000
66.712500 86.997750
68.586750 87.042750
70.461000 86.997750
72.264250 86.734000
74.126000 86.636250
75.841000 87.287500
77.341750 88.311250
78.436750 89.811250
79.684000 91.194000
80.830000 92.667250
81.901000 94.173750
82.855500 95.769000
83.440250 97.512750
83.645750 99.337750
83.628500 101.208250
83.349750 103.034750
82.749000 104.795500
82.049000 106.534000
81.355750 108.246500
80.482250 109.903250
79.582500 111.538750
78.414250 112.944500
76.837250 113.932000
75.178250 114.799500
73.462500 115.530250
71.652750 115.959750
69.814750 115.735750
67.993500 115.374250
66.206000 114.856000
64.486250 114.121250
62.854250 113.224000
61.376000 112.107500
60.155000 110.712750
59.157000 109.174000
58.423250 107.468250
57.556750 105.810750
56.711000 104.139750
55.786500 102.526000
55.244250 100.820750
55.199000 98.979250
55.425000 97.209500
59.478500 98.012250
60.200000 96.107000
61.627750 94.650750
63.280500 93.472250
65.206500 92.734250
67.187750 92.283250
69.262500 92.191500
71.347500 92.240750
73.310000 92.734250
75.249750 93.375500
77.129000 94.260250
78.889250 95.360750
80.373500 96.709250
80.838000 98.622000
80.058750 100.419500
78.877750 102.081000
77.777000 103.838500
76.663000 105.573000
75.440000 107.198250
73.611750 107.989000
71.684250 108.459500
69.653750 108.716750
67.706000 108.272750
65.924500 107.385000
64.416750 106.151750
63.016750 104.658500
62.032500 102.934500
60.909000 101.268250
59.971750 99.600000
59.577000 97.765750
}
