version: 1
n_points: 120
{
43.902000 51.841250
45.172500 50.563250
46.545000 49.451000
48.125500 48.624500
49.795750 48.084500
51.589500 48.052750
53.358250 48.258250
55.040250 48.829500
56.516500 49.798250
57.847250 50.980000
57.918500 52.348250
56.371750 53.136000
54.666750 53.620000
52.937500 54.070250
51.198000 54.398500
49.450750 54.651000
47.666250 54.682750
46.053750 54.146000
44.683250 53.127750
44.028250 51.746500
81.609250 51.311250
82.946250 50.001750
84.368750 48.781000
85.930250 47.755750
87.705500 47.127250
89.524750 46.683750
91.398500 46.618500
93.174750 47.190750
94.903250 47.920250
96.399750 49.010500
97.299750 50.550750
95.835000 51.643000
94.119000 52.390000
92.314500 52.798000
90.443250 52.941000
88.561250 52.885750
86.700500 52.747750
84.894500 52.361000
83.119500 51.863750
81.554000 51.283750
53.535750 98.495500
53.535750 96.119000
53.879250 93.829250
54.565750 91.620500
55.934750 89.802250
57.514000 88.078750
59.242750 86.608500
61.527250 86.192750
63.878000 86.364500
66.182250 86.708000
68.479750 86.994000
70.871000 86.994000
73.262250 86.994000
75.573000 87.108500
77.744500 87.737750
79.916750 88.682750
81.934750 89.892000
83.702000 91.410250
84.969500 93.383250
86.121250 95.400500
87.109000 97.449500
87.296750 99.773000
87.354000 102.140750
87.060000 104.462500
86.381250 106.642500
85.866250 108.881750
85.421000 111.117000
84.639250 113.252250
83.461250 115.263250
82.400750 117.296750
80.899500 119.026750
78.984750 120.333250
76.769750 121.098250
74.493500 121.498750
72.166500 121.727750
69.788750 121.785000
67.424500 121.670500
65.310750 120.926500
63.190000 120.051750
61.369500 118.632000
60.142500 116.718250
58.950750 114.782750
57.992750 112.737250
56.932000 110.704000
56.282500 108.615250
55.824750 106.362500
54.987750 104.260500
54.040750 102.194750
53.478500 99.987250
53.650250 97.751750
55.068750 98.160500
55.495500 95.062750
57.653750 93.003750
60.684250 92.307250
63.980250 92.307250
67.226000 92.023250
70.513000 91.966250
73.746000 92.250500
76.864000 92.919250
79.999750 93.634500
82.962250 94.661250
85.350750 96.562500
86.721500 99.077250
85.755500 102.023750
84.964000 105.032500
83.937000 107.994250
82.549000 110.767500
80.420750 113.155750
77.982000 115.253500
75.028500 116.345250
71.849000 116.856750
68.650250 116.800000
65.629750 115.890750
63.129750 114.007000
60.964750 111.657250
59.217000 109.045750
57.569000 106.391750
56.558000 103.571000
55.466500 100.696750
55.182250 97.819500
}
