version: 1
n_points: 120
{
43.620250 53.157500
44.892750 51.911750
46.305250 50.822000
47.818750 49.891000
49.522250 49.373750
51.258000 49.621000
52.999750 49.977750
54.692500 50.542000
56.268250 51.374250
57.775250 52.311750
57.721500 53.762000
56.194500 54.637250
54.501750 55.121000
52.748750 55.438500
50.997250 55.698750
49.242000 55.921500
47.493000 55.707000
45.765500 55.312750
44.176250 54.518500
43.727500 53.050250
81.337500 52.627250
82.804250 51.417250
84.399750 50.396250
86.004000 49.383500
87.793250 48.754000
89.661250 48.456000
91.567500 48.431250
93.383250 48.937000
95.121750 49.687000
96.567500 50.849250
96.602750 52.468250
94.953750 53.402000
93.133750 53.924750
91.285000 54.355500
89.391250 54.564000
87.474250 54.534250
85.578250 54.415000
83.742500 53.938250
81.912500 53.521250
81.546250 52.448500
49.844250 89.267500
51.372750 87.928250
53.166750 86.962000
55.075250 86.198750
57.038500 85.630500
59.043000 85.203500
61.064500 84.872750
63.107750 84.855750
65.028750 85.323750
67.049000 85.554750
69.102750 85.668250
71.164000 85.592500
73.154750 85.109000
75.070250 84.383000
77.078000 84.115000
79.090750 84.399000
81.080000 84.879000
83.010250 85.598000
84.902500 86.388250
86.783750 87.209500
88.576250 88.194500
90.274250 89.160750
90.258250 91.095000
89.454750 92.938750
88.789250 94.799750
87.973500 96.676000
86.712000 98.281000
85.358750 99.804750
83.843250 101.185000
82.029000 102.143250
80.169500 103.015250
78.279000 103.820750
76.299500 104.367000
74.267750 104.615000
72.207250 104.686500
70.141250 104.648750
68.092250 104.465500
66.064250 104.183250
64.090750 103.601000
62.124500 103.034250
60.245000 102.234250
58.399750 101.338000
56.560500 100.430000
54.917750 99.229750
53.377750 97.887750
51.861750 96.584000
50.642750 94.953250
49.957750 93.048500
49.707250 91.039500
49.920000 89.153750
52.565000 91.191250
53.187250 89.015000
56.002750 88.921000
58.870250 89.267250
61.770750 89.463500
64.693250 89.542000
67.620250 89.620500
70.558500 89.620500
73.496500 89.620500
76.413000 89.485250
79.266750 88.992000
82.161500 88.796000
85.071250 88.639000
88.000250 88.678250
89.139000 90.449500
87.857500 92.934250
85.851750 95.010750
83.348750 96.440000
80.609250 97.450000
77.829000 98.358500
74.956250 98.808750
72.057500 99.123000
69.146750 98.943500
66.240250 98.730250
63.359500 98.377000
60.501250 97.827250
57.771000 96.800750
55.368000 95.211250
53.181250 93.366000
52.368750 90.877000
}
