version: 1
n_points: 120
{
44.143500 53.270750
45.150500 51.921500
46.478250 50.875500
48.018500 50.194500
49.652250 49.694750
51.344250 49.547250
52.960250 49.970500
54.412750 50.837750
55.820250 51.772750
57.281500 52.624250
57.965250 53.575250
56.484000 54.396250
54.875750 54.939500
53.225000 55.363750
51.561000 55.668750
49.877250 55.846750
48.172750 55.867000
46.555500 55.412500
45.135000 54.564000
44.163750 53.311000
81.764750 53.033250
83.127250 51.833250
84.662000 50.865750
86.168250 49.872750
87.830000 49.155250
89.586750 48.693750
91.389000 48.625250
93.102500 49.180000
94.742500 49.962750
96.323000 50.834750
96.679250 51.994250
95.313250 53.158750
93.654750 53.888000
91.900750 54.303000
90.098000 54.482000
88.284000 54.500000
86.492500 54.303250
84.701750 54.102250
82.979750 53.754250
81.889000 52.909000
49.154500 88.285500
51.169250 87.910500
53.120250 87.351000
55.001000 86.636750
56.810250 85.733500
58.657000 84.865000
60.561500 84.274250
62.602250 84.199250
64.613750 84.454000
66.606000 84.905500
68.607500 85.249000
70.640750 85.246000
72.633500 84.874000
74.546500 84.282500
76.476250 83.712000
78.421250 84.118750
80.378250 84.673000
82.344250 85.278250
84.302000 85.855750
86.256500 86.411000
88.223250 86.925500
90.156250 87.385750
91.553250 88.236250
90.997250 90.109750
89.966500 91.871500
88.712000 93.451000
87.587000 95.093500
86.172500 96.486500
84.496250 97.629250
82.724750 98.622750
80.962750 99.635000
79.083000 100.414500
77.125500 100.993750
75.139500 101.406250
73.105000 101.518750
71.052750 101.556250
69.004500 101.475000
66.984500 101.256250
64.985750 100.956250
63.010250 100.499250
61.065500 99.906750
59.213500 99.056750
57.527000 97.945500
55.940500 96.720500
54.373500 95.436000
52.865000 94.132000
51.362750 92.814750
50.192500 91.186250
49.151000 89.556750
49.454250 88.060500
52.511250 89.539000
54.350250 88.180500
57.166000 88.656500
60.035750 88.859750
62.895500 89.165500
65.776750 89.382500
68.673750 89.471000
71.573250 89.403250
74.454750 89.233250
77.327250 88.939000
80.209500 88.724000
83.062250 88.350250
85.939750 88.146500
88.818000 88.078500
89.153750 89.445500
86.899500 91.186000
84.745000 93.059000
82.192250 94.352500
79.635250 95.642000
76.876000 96.489750
74.034500 96.943000
71.136250 97.011000
68.256000 96.773250
65.413750 96.297750
62.584250 95.720500
59.751250 95.177000
56.950250 94.483000
54.320250 93.317750
52.205750 91.497000
52.511250 89.063500
}
