version: 1
n_points: 120
{
44.243250 53.322250
45.388750 51.992000
46.782750 50.929000
48.361250 50.170750
49.984000 49.613000
51.728500 49.505500
53.357500 50.138000
54.918750 50.964750
56.333750 51.980000
57.767000 52.933000
57.560000 54.165000
56.070750 54.950000
54.396500 55.358500
52.714750 55.766250
51.042250 56.092750
49.287250 56.185000
47.526500 56.092750
45.936750 55.600750
44.611250 54.706250
44.366250 53.199250
81.906250 52.739750
83.387000 51.620500
84.852750 50.506250
86.471000 49.594750
88.170000 48.871000
89.959750 48.483000
91.795000 48.669750
93.603500 49.039250
95.261500 49.847000
96.695000 51.002250
96.410500 52.452250
94.878000 53.473500
93.164500 54.130750
91.383250 54.581000
89.548750 54.770750
87.691000 54.687250
85.859000 54.484000
84.051000 54.214250
82.315000 53.750750
81.989500 52.600500
54.164500 93.230750
54.617750 91.470250
55.302500 89.793250
56.102750 88.152750
57.083750 86.631250
58.431750 85.417000
59.977750 84.476000
61.732250 84.098000
63.485500 84.378500
65.239750 84.819000
66.905250 85.379750
68.704750 85.580000
70.532500 85.660250
72.350500 85.539750
74.023750 84.883250
75.688500 84.258250
77.467500 84.458500
79.171000 85.065250
80.700250 86.039750
82.154750 87.133750
83.429250 88.448250
84.591000 89.850500
85.710250 91.272250
86.838500 92.698750
87.779000 94.200000
87.796500 95.969250
86.949000 97.537500
85.897000 98.990250
84.767250 100.359750
83.517250 101.686250
82.111750 102.798250
80.495000 103.627000
78.793250 104.248750
76.996250 104.446250
75.168500 104.526250
73.327750 104.526250
71.487000 104.526250
69.656250 104.483000
67.841000 104.326000
66.040500 104.078750
64.276000 103.645000
62.525500 103.120750
60.813500 102.470000
59.241750 101.557250
57.767000 100.518500
56.344250 99.416000
55.045500 98.157250
54.244750 96.605500
54.084500 94.831000
54.164500 93.070500
57.243250 93.983250
58.657500 92.438750
60.337250 91.182750
62.203500 90.202750
64.253750 89.783500
66.359750 89.946250
68.472250 90.097000
70.604250 90.141500
72.723000 90.239250
74.846500 90.337000
76.885250 90.749000
78.868000 91.463500
80.842250 92.173750
82.819500 92.811250
84.754250 93.417250
83.698250 94.811500
82.116250 96.165000
80.161500 96.978500
78.169750 97.665000
76.097000 97.988000
73.965250 97.955250
71.854750 97.792500
69.762000 97.564750
67.645750 97.467000
65.542750 97.336750
63.518750 96.946000
61.460250 96.653000
59.440250 96.295000
57.516750 95.689500
57.340750 93.918250
}
