version: 1
n_points: 120
{
81.686750 53.003500
83.058250 51.792500
84.539750 50.699750
86.144250 49.795750
87.819250 48.994000
89.582000 48.406000
91.416250 48.419250
93.166250 48.954250
94.861750 49.706500
96.437500 50.637750
97.272500 52.029500
95.731000 53.012750
94.068750 53.826250
92.292000 54.331000
90.446500 54.483750
88.588750 54.412000
86.764250 54.173250
84.927000 54.030000
83.171250 53.566500
81.806250 52.931750
44.170500 52.999750
45.463500 51.678000
46.903250 50.581750
48.438750 49.795250
50.142500 49.423250
51.968500 49.394750
53.628250 50.011750
55.217500 50.912500
56.806000 51.778500
58.395000 52.661000
58.422250 53.742000
56.769000 54.487500
55.011000 55.022500
53.256500 55.509250
51.457500 55.775000
49.652250 55.975250
47.814500 55.918000
46.085250 55.487750
44.684250 54.457500
44.285000 52.914000
57.841000 94.124250
58.770250 93.210750
59.568000 92.194750
60.464500 91.261750
61.349500 90.346000
62.366500 89.533250
63.478000 88.893250
64.615250 88.320750
65.719250 87.697000
66.804750 87.072250
67.970750 86.680500
69.201500 86.402750
70.484500 86.296250
71.784750 86.262500
73.038250 86.505500
74.242750 86.994500
75.303500 87.731500
76.289250 88.535750
77.254750 89.379000
78.074250 90.378250
78.729000 91.498500
79.305500 92.649500
79.922000 93.795250
80.346500 95.004750
80.560250 96.272500
80.226000 97.435500
79.326000 98.350250
78.392250 99.250250
77.444750 100.147000
76.425750 100.944500
75.373750 101.695000
74.334500 102.464250
73.264500 103.198250
72.096750 103.765750
70.859250 104.136000
69.605500 104.441500
68.313500 104.550250
67.016250 104.482750
65.753750 104.246500
64.535250 103.942750
63.422500 103.383500
62.405500 102.670000
61.439000 101.859750
60.694000 100.823500
60.212000 99.666750
59.686750 98.523750
59.166500 97.372750
58.637750 96.202750
58.212250 95.028750
58.009750 93.921750
67.311000 94.223250
67.689750 94.097000
68.068250 93.971000
68.446750 93.844750
68.824750 93.716500
69.200250 93.646250
69.599250 93.646250
69.994750 93.668500
70.385000 93.723000
70.774250 93.790500
71.150250 93.899750
71.522000 94.020250
71.736000 94.258750
71.710750 94.620000
71.436250 94.907750
71.097750 95.100250
70.724750 95.209750
70.344250 95.300750
69.973750 95.393000
69.598250 95.493000
69.215250 95.531500
68.816250 95.531500
68.417000 95.531500
68.028750 95.486250
67.654250 95.413000
67.381500 95.217000
67.234000 94.879000
67.195750 94.496000
67.267500 94.146250
67.618750 94.031000
}
