version: 1
n_points: 120
{
44.487000 53.000000
45.566500 51.646250
46.998000 50.675000
48.636750 50.065250
50.365000 49.791000
52.123500 49.712750
53.781500 50.065250
55.440000 50.653500
56.917750 51.576750
58.370000 52.511000
57.997250 53.801000
56.514250 54.734500
54.834500 55.228250
53.142000 55.554750
51.410250 55.801500
49.658000 55.962000
47.953500 55.652000
46.287000 55.134250
44.817000 54.262250
44.679000 52.862750
82.202500 52.453250
83.654500 51.290000
85.105000 50.128250
86.652250 49.115500
88.412500 48.558500
90.244000 48.294500
92.092500 48.333000
93.883750 48.780250
95.530500 49.635250
97.008500 50.724500
97.159500 51.824000
95.610250 52.839750
93.986250 53.730250
92.236750 54.331000
90.393750 54.500250
88.526750 54.482750
86.679750 54.342750
84.871750 53.999000
83.120250 53.476000
82.202500 52.374500
58.619000 95.343750
59.347250 94.216250
60.058500 93.097500
60.960000 92.113500
61.825750 91.095500
62.729750 90.109250
63.638500 89.164250
64.754000 88.444000
65.984250 87.943500
67.262500 87.757250
68.589250 87.862750
69.885500 88.108500
71.209750 88.214000
72.472250 87.862750
73.750750 87.616750
75.024750 87.945750
76.240250 88.499750
77.387500 89.203750
78.530000 89.910250
79.618500 90.668750
80.650500 91.525000
81.565750 92.487250
82.410750 93.510000
83.148250 94.620000
83.556000 95.844000
83.041500 97.017500
82.061500 97.927000
81.095250 98.858250
80.138000 99.780500
79.114000 100.646500
78.013750 101.406000
76.892750 102.115750
75.685000 102.685500
74.436000 103.173000
73.195250 103.679250
71.911000 104.084000
70.588250 104.229750
69.255500 104.159500
67.939750 104.019000
66.602000 103.948750
65.275000 103.843500
64.001750 103.549250
62.869000 102.860000
61.986250 101.907000
61.288500 100.840750
60.515750 99.767750
59.994250 98.585750
59.533250 97.383000
59.033750 96.208000
58.689250 95.062750
65.955750 94.190750
66.575250 93.925250
67.193500 93.656750
67.846750 93.546000
68.504250 93.443250
69.163250 93.342500
69.822250 93.240500
70.483000 93.172750
71.157000 93.172750
71.825750 93.138750
72.500000 93.138750
73.166250 93.104750
73.757500 93.304500
74.067000 93.810750
73.883000 94.408750
73.353500 94.802000
72.780500 95.104250
72.187250 95.358000
71.567750 95.548500
70.925500 95.684250
70.267500 95.752000
69.609250 95.820000
68.935000 95.820000
68.261000 95.820000
67.608750 95.752000
66.996250 95.593500
66.426750 95.306750
65.899500 94.937500
65.684250 94.487000
66.125250 94.055000
}
