version: 1
n_points: 120
{
45.433000 50.566500
46.510750 49.441500
47.968500 48.689750
49.508500 48.034500
51.110750 47.659500
52.817500 47.565750
54.555250 47.565750
56.193250 47.909500
57.681000 48.587250
59.123000 49.394000
59.460250 50.441250
57.941500 50.954500
56.296250 51.285250
54.645250 51.535500
53.073000 51.848000
51.450750 52.098000
49.763000 52.223000
48.051000 52.160500
46.784000 51.323750
45.495500 50.566500
83.548750 49.176000
84.872000 48.339750
86.103000 47.325000
87.399000 46.434750
88.798000 45.794750
90.438250 45.713750
92.112000 45.713750
93.629250 46.227500
95.094750 46.794250
96.421750 47.658250
97.226500 48.807000
95.966750 49.608750
94.504250 50.176500
92.965000 50.582750
91.291000 50.582750
89.617250 50.582750
87.972250 50.501500
86.398250 50.204000
84.836000 49.949500
83.548750 49.176000
54.499500 94.860000
55.355500 93.125250
55.907000 91.080000
56.715750 89.152750
58.148500 87.663750
59.935750 86.527000
61.878750 85.606250
63.867750 84.781500
65.732000 84.021500
67.795250 83.430250
69.906750 83.148750
72.124250 83.092500
74.365000 83.092500
76.606000 83.092500
78.838250 83.128250
80.512250 84.387750
82.061750 85.866000
83.539000 87.401250
84.625000 89.235250
85.879500 90.937250
86.932000 92.779500
87.718750 94.810750
87.944000 96.978250
87.718750 99.156000
86.874250 101.111500
86.198750 102.984750
85.420250 104.862750
84.829250 106.814500
83.801750 108.670500
82.384500 110.160250
80.900750 111.528750
79.521750 112.933500
77.649750 113.890750
75.618500 114.341250
73.410000 114.453750
71.169250 114.453750
68.928250 114.453750
66.687500 114.453750
64.748000 113.778500
63.191250 112.750250
61.662250 111.481750
60.234500 109.893250
59.009750 108.322750
57.877750 106.652750
57.106750 104.843000
56.751500 102.729250
56.049500 100.858000
55.222500 98.943250
54.724750 96.918250
54.443250 94.860000
57.963000 95.219000
58.482750 92.612000
60.339000 91.045000
62.962000 90.200250
65.388500 89.256000
67.897000 88.610000
70.481250 87.914250
73.253500 87.715500
75.969000 88.198000
78.509500 89.156500
80.961250 90.249750
83.134500 91.903500
85.092500 93.579250
85.306750 96.322500
84.150750 98.769750
82.690000 100.804250
81.621750 103.164250
80.423750 105.450500
78.798750 107.443250
76.305250 108.387500
73.767500 109.078250
70.939750 109.232250
68.215000 108.800250
65.921500 107.592250
63.730750 106.250750
61.640250 104.571500
60.248750 102.528750
59.205250 100.242000
58.609000 97.695250
57.913250 95.169250
}
