version: 1
n_points: 120
{
45.799250 48.539250
46.738750 47.298750
47.958000 46.397500
49.412500 45.803250
50.899750 45.341250
52.471000 45.299250
54.044500 45.372250
55.532500 45.762000
56.973500 46.289750
58.290500 47.116000
59.033000 48.160250
57.803000 49.078500
56.308750 49.465000
54.782500 49.751250
53.220750 49.885750
51.661500 50.012000
50.083000 50.033000
48.582750 49.759500
47.158000 49.230500
45.799250 48.518250
84.373250 46.765500
85.473500 45.754250
86.805500 44.968500
88.190750 44.289250
89.689250 43.975500
91.264500 43.975500
92.788000 44.195250
94.210250 44.714500
95.654250 45.221500
96.916250 46.002750
97.251250 47.133250
95.929250 47.879750
94.514500 48.474250
93.018500 48.809500
91.455000 48.846000
89.879750 48.846000
88.310000 48.822500
86.905500 48.342250
85.587500 47.569250
84.373250 46.836250
54.013750 92.487000
54.137250 89.893750
54.899750 87.651500
56.125750 85.424250
57.447750 83.375500
59.361750 81.748750
61.631000 80.884750
64.100000 80.267500
66.598750 79.835750
69.269250 79.774000
71.767500 80.267500
74.410000 80.299000
76.777250 79.588750
79.432250 79.650500
81.676750 80.786750
83.984500 81.911500
85.840000 83.581750
87.306750 85.633000
88.450250 87.803250
89.224250 90.189500
89.252500 92.852500
89.252500 95.533250
89.067500 98.152750
88.576750 100.689250
87.641000 102.930500
86.960250 105.200250
86.344250 107.568250
85.549750 109.905250
84.809250 112.203750
83.821750 114.436000
82.297000 116.228750
80.216750 117.419500
77.896500 118.221750
75.562500 119.024000
73.009500 119.332750
70.380000 119.209250
67.938750 118.715500
65.554500 118.310750
63.769000 116.749250
62.164750 115.083500
60.838000 113.109000
59.675500 110.993250
58.731250 108.710500
57.778500 106.456750
56.976250 104.049000
56.215750 101.766250
55.309750 99.481500
54.384250 97.237750
53.952250 94.833500
53.828750 92.240250
56.226250 91.933250
57.427000 88.863000
59.907750 86.927500
63.357750 86.264000
66.828500 85.480000
70.189000 84.635500
73.845000 84.635500
77.501000 84.635500
80.627500 85.575750
83.611000 87.230500
85.859750 89.682250
87.769250 92.393000
87.769250 96.049000
86.745000 99.349500
85.417000 102.371000
83.829500 105.281750
82.039750 108.041250
80.132000 110.607500
77.576500 112.714750
74.566000 113.947000
71.112000 114.489750
67.740750 114.067500
64.961250 112.308250
62.723000 109.992750
60.953750 107.155000
59.431250 104.073000
58.216500 100.952500
56.648500 98.090500
55.804000 94.861250
56.166000 91.390500
}
