version: 1
n_points: 120
{
46.001000 47.803250
46.846250 46.568750
48.233250 45.716500
49.645500 44.913250
51.196000 44.460750
52.811250 44.333500
54.419750 44.563500
55.971000 45.039750
57.474500 45.688750
59.008500 46.150750
59.803750 47.131750
58.515000 48.066500
56.970000 48.557250
55.361500 48.827000
53.762250 49.071000
52.150250 49.271000
50.499750 49.271000
48.892500 49.115250
47.435500 48.509250
46.045500 47.758750
84.207000 46.219250
85.176750 45.036750
86.457000 44.134750
87.888750 43.446250
89.366500 42.897750
90.957750 42.855500
92.523750 43.125500
94.072250 43.454000
95.475500 44.105500
96.680500 45.125000
97.716500 46.045500
96.323000 46.819250
94.861250 47.453500
93.318500 47.798750
91.727750 47.898000
90.124250 47.898000
88.520750 47.898000
87.018000 47.530250
85.592000 46.945750
84.230500 46.243000
53.882500 87.843250
54.814250 85.653250
56.197250 83.452250
57.594750 81.322250
59.503750 79.705500
61.981750 78.909250
64.528750 78.217000
67.048750 77.588000
69.712500 77.525000
72.402250 77.525000
75.092000 77.525000
77.781750 77.525000
80.445250 77.588000
82.915250 78.325500
84.985250 79.812000
86.679750 81.821250
88.025250 84.047500
89.554250 86.079750
90.861250 88.196500
91.003250 90.847750
90.437000 93.400500
89.807750 95.752750
89.178750 98.187750
88.486500 100.592250
87.857500 103.069000
87.187500 105.500500
86.410250 107.962750
85.403750 110.121750
84.334000 112.401500
83.146000 114.638500
80.986250 115.879250
78.633500 116.709500
76.070500 117.099250
73.547000 117.476750
70.935500 117.665500
68.245750 117.665500
65.976750 116.792000
63.890500 115.402750
62.002000 113.831000
60.355000 111.987250
58.853250 109.927500
57.720500 107.686250
57.150000 105.195250
56.651000 102.632250
56.210500 100.102500
55.824250 97.514750
54.848000 95.247750
53.945500 92.926500
53.693750 90.344250
53.693750 87.654500
55.830250 90.347750
56.829500 87.162500
59.669250 85.099250
63.005250 84.029750
66.541750 83.162250
70.315250 83.162250
73.968500 82.700750
77.726500 82.634750
81.457250 82.766750
84.638000 84.097500
87.385250 86.239000
88.989000 89.299500
88.869750 92.761500
87.943250 96.196500
86.615750 99.453500
85.020500 102.490500
83.234750 105.509750
81.466000 108.414250
79.364250 111.157000
75.985750 111.970000
72.484250 112.629250
68.710750 112.629250
65.919500 110.918500
63.567000 108.620000
61.517500 105.989250
59.734000 103.151000
58.305000 100.026000
57.016750 96.873000
56.094000 93.601000
55.698500 90.018000
}
