version: 1
n_points: 120
{
46.079500 47.898500
46.991750 46.634500
48.350250 45.803000
49.845500 45.346500
51.369000 44.894000
52.978250 44.742500
54.573500 44.889500
56.050500 45.461500
57.491500 46.148250
58.976750 46.726000
59.423000 47.632750
58.137000 48.590500
56.610750 49.059750
55.081000 49.509750
53.485000 49.716250
51.855750 49.716250
50.226500 49.716250
48.665500 49.416750
47.197000 48.848500
46.003750 47.923750
83.950250 46.519250
85.097000 45.430000
86.467750 44.606500
87.967750 44.052250
89.449750 43.474000
91.017750 43.237000
92.623000 43.283250
94.098000 43.867750
95.505000 44.619250
96.948750 45.261250
97.052250 46.475000
95.693500 47.285500
94.225500 47.808500
92.677000 48.066500
91.069000 48.113250
89.455750 48.113250
87.842500 48.113250
86.270750 47.878750
84.820750 47.342750
83.926750 46.425250
52.874250 85.630000
53.795500 83.654250
55.506000 82.010750
57.404000 80.489750
59.385750 79.174000
61.517250 77.986000
63.862250 77.250000
66.296250 76.860750
68.722000 76.416750
71.205750 76.305750
73.716000 76.305750
76.114000 76.083500
78.624000 76.083500
81.044250 76.542750
83.362000 77.352500
85.528750 78.587500
87.735750 79.600750
89.708250 80.928500
91.214750 82.843000
91.670500 85.202250
91.837000 87.669500
91.892500 90.166500
91.447500 92.572500
90.616000 94.847500
89.501000 96.962500
88.475000 99.093500
87.341250 101.205000
86.177250 103.277250
84.640750 105.148000
83.289750 107.019000
81.645250 108.809500
79.363750 109.440750
77.006500 110.051250
74.516250 110.162250
72.006000 110.162250
69.496000 110.162250
67.047500 110.144500
64.921250 109.053750
62.874500 107.942250
60.906500 106.539000
59.191750 104.925250
57.705000 103.006750
56.618750 100.889500
55.539500 98.787750
54.594750 96.578750
53.873250 94.411500
53.207250 92.123750
52.874250 89.699500
52.596750 87.284750
52.874250 85.019500
54.005500 88.929500
54.723750 85.671000
57.223000 83.884000
60.428750 82.671500
63.827000 82.312500
67.227750 81.902000
70.651250 81.594250
74.143250 81.491750
77.650000 81.491750
81.156750 81.491750
84.663500 81.491750
87.734250 82.545500
90.065750 84.833750
90.784000 88.136000
90.126250 91.424500
88.380500 94.339750
86.432750 97.076500
84.169000 99.615250
81.653500 101.872750
78.776750 103.686750
75.693250 104.714500
72.271250 105.240250
68.890500 105.036000
65.869500 103.687750
62.889250 102.173250
60.461250 99.943000
58.332250 97.411000
56.743250 94.642250
55.134000 91.861000
53.851750 88.980750
}
