version: 1
n_points: 120
{
43.791500 52.917750
44.801250 51.534250
46.247750 50.531750
47.789250 49.674250
49.423250 49.151500
51.140000 48.897000
52.868500 49.186000
54.475250 49.885750
55.945250 50.821250
57.419500 51.697000
58.020500 52.933750
56.618250 53.909750
54.953250 54.459750
53.225750 54.752000
51.513250 55.055250
49.770000 55.285250
48.004750 55.360750
46.294000 55.080750
44.869750 54.156750
43.740500 52.994000
82.604750 51.573250
83.810250 50.326500
85.276000 49.354000
86.848250 48.559000
88.412250 47.861250
90.156250 47.735750
91.915250 47.826500
93.566250 48.378250
95.096000 49.216250
96.613250 50.080250
96.887500 51.447000
95.507000 52.481500
93.922750 53.214250
92.240750 53.643500
90.502500 53.862250
88.734000 53.921000
86.966000 53.841750
85.294000 53.454250
83.783250 52.616750
82.554250 51.548000
55.759000 97.350500
55.893000 95.466250
56.878250 93.996000
58.001000 92.464250
59.381000 91.181500
60.779500 89.947250
62.292250 88.824500
63.786500 87.662000
65.213250 86.658250
67.083000 86.581750
68.999250 86.626500
70.921000 86.626500
72.686500 86.212000
74.549000 85.956250
76.256250 86.569500
77.793000 87.570500
79.143250 88.900750
80.273500 90.417750
81.230750 92.058750
82.286500 93.618500
83.133750 95.308000
83.685750 97.113250
83.998500 98.970500
83.998500 100.892250
83.998500 102.814000
83.730500 104.673000
83.194250 106.454750
82.524000 108.159750
81.717000 109.819500
80.501500 111.269500
79.090250 112.494250
77.582250 113.577250
75.882750 114.374500
74.069750 114.860750
72.191250 115.134000
70.289250 115.243750
68.370500 115.268000
66.667750 114.597750
64.978750 113.922750
63.289750 113.102750
61.786250 112.003000
60.364750 110.758500
59.302500 109.218000
58.261750 107.672500
57.385750 106.055250
56.715000 104.311250
56.383500 102.464000
56.057250 100.642250
55.653500 98.820750
55.580250 96.948250
59.401750 97.714750
60.156750 95.849000
61.556250 94.449500
63.381750 93.589750
65.310750 92.982250
67.414500 92.718500
69.525250 92.499500
71.705000 92.499500
73.736500 92.830250
75.380750 93.851500
77.351500 94.562000
79.089750 95.672500
80.611250 97.049250
80.899000 99.030000
80.003500 100.919750
79.057250 102.781750
78.089250 104.572250
77.007750 106.321000
75.615750 107.758750
73.714750 108.521750
71.632500 109.035000
69.492000 109.111000
67.509500 108.483250
65.615000 107.702500
64.032750 106.380250
62.764000 104.861500
61.787500 103.094250
60.713500 101.392750
60.029500 99.495500
59.305250 97.666250
}
