version: 1
n_points: 120
{
43.928000 51.899000
44.947250 50.444250
46.387250 49.349750
47.952000 48.468000
49.634750 47.954750
51.412500 48.168000
53.118500 48.744750
54.812500 49.356250
56.467000 50.072500
57.895500 51.050750
57.559250 52.620500
56.124500 53.635750
54.345250 53.955750
52.578750 54.379750
50.800500 54.675250
48.976750 54.745750
47.153000 54.684000
45.537500 54.004500
44.259750 52.907250
43.957750 51.602250
82.134500 51.163500
83.552000 49.987500
85.081750 48.922750
86.638500 47.931000
88.353750 47.207250
90.150500 46.869250
91.951000 47.258750
93.659750 47.848250
95.270500 48.686000
96.651000 49.859000
96.904250 51.452250
95.242250 52.209500
93.584750 53.053750
91.812500 53.508500
89.963750 53.593250
88.111250 53.447000
86.307750 53.158750
84.618250 52.554500
82.835500 52.209000
82.162750 50.994000
55.145000 100.994250
55.837750 98.854000
56.167500 96.603750
56.903750 94.535750
58.073000 92.633250
59.192250 90.712750
60.740500 89.056250
62.426250 87.723000
64.556000 87.350000
66.865500 87.507250
69.045250 87.989500
71.370000 87.914000
73.342000 87.190000
75.688500 87.190000
77.681250 88.091500
79.527000 89.346500
81.282250 90.803250
82.494000 92.754250
83.442500 94.853250
84.380500 96.921250
85.190750 98.954500
85.844750 101.101250
85.844750 103.447750
85.685000 105.756750
85.152000 107.924500
84.938750 110.201750
84.565750 112.442000
84.299250 114.710500
83.405750 116.638750
82.273750 118.484750
81.208000 120.326500
79.280750 121.309500
77.491500 122.473750
75.497250 123.326500
73.239000 123.539750
70.892500 123.539750
68.545750 123.539750
66.334500 123.219750
64.364750 122.313750
62.606750 121.125250
61.017750 119.552250
59.592750 117.914000
58.319250 116.107500
57.383500 114.135000
56.955250 111.863500
56.210750 109.840500
55.791500 107.617500
55.411500 105.480000
55.198250 103.212250
55.145000 100.887750
57.725750 101.494000
58.876750 98.914750
60.356250 96.502250
62.373000 94.731000
65.045750 93.824000
67.731000 93.136250
70.626250 92.871750
73.585750 92.871750
76.197000 93.830500
78.637750 95.269500
81.012750 96.639500
82.724000 98.804250
83.751500 101.318000
83.872750 104.131250
83.310000 106.907750
82.344750 109.513000
81.106500 111.851750
79.547000 114.017000
77.511000 115.828500
75.002500 117.030000
72.212000 117.522000
69.308750 117.680750
66.807000 116.746500
64.395750 115.464000
62.358500 113.849750
60.635000 111.712000
59.503500 109.344500
58.578500 106.793500
58.043000 104.027000
57.567000 101.282500
}
