version: 1
n_points: 120
{
44.063000 51.145500
45.165000 49.857000
46.532500 48.777500
48.104750 48.017500
49.700750 47.323750
51.488000 47.290250
53.242500 47.452000
54.670500 48.496500
56.236500 49.290250
57.709250 50.195250
58.053250 51.743500
56.559250 52.623750
54.887250 53.163000
53.206750 53.672250
51.488500 54.036250
49.713750 54.167000
47.918500 54.167000
46.352250 53.462750
44.941250 52.483250
44.010750 51.171500
82.872750 49.533000
84.075000 48.372500
85.626250 47.580250
87.246000 46.923250
88.787500 46.202000
90.527000 46.101750
92.297750 46.101750
93.921750 46.706500
95.323500 47.706000
96.607000 48.840500
96.561750 50.371000
95.195000 51.437000
93.554500 51.964250
91.841250 52.288250
90.089750 52.413500
88.322000 52.393000
86.597500 52.161250
85.023500 51.446750
83.526000 50.610750
82.822750 49.307750
54.740750 98.287500
55.499000 96.150750
56.565500 94.121250
57.512750 92.039500
58.738500 90.085250
59.950250 88.167250
61.644250 86.783250
63.973500 86.656000
66.221250 87.045750
68.490500 87.638250
70.885000 87.690000
73.202250 87.483250
75.564250 87.276500
77.716500 88.140750
79.664750 89.373500
81.490000 90.866000
83.038000 92.588750
84.228500 94.577500
85.064750 96.776250
85.492000 99.099250
86.171750 101.192750
86.430250 103.539000
86.430250 105.942000
86.215250 108.289500
85.740750 110.556750
85.396250 112.822000
84.931000 115.063750
83.951750 117.047250
83.006000 119.081500
81.932750 121.034500
80.015750 122.123500
77.887500 123.049750
75.606750 123.411750
73.306500 123.874500
70.916250 123.928500
68.513250 123.928500
66.309750 123.256500
64.277500 122.247500
62.361250 121.225250
60.821750 119.602500
59.564000 117.740500
58.359500 115.747000
57.673500 113.523750
56.963750 111.370250
56.178500 109.232500
55.671250 106.963500
55.133500 104.728750
54.637500 102.460750
54.740750 100.100500
54.792500 97.719000
56.756500 98.821250
58.048250 96.311500
60.143500 94.368500
62.911000 93.361500
66.024500 92.866500
69.153500 92.539500
72.352000 92.598250
75.190750 93.244000
77.981000 94.183250
80.924000 95.024250
83.504500 96.643750
85.149250 99.129000
85.700000 102.148500
84.998250 105.156000
84.175250 108.093750
82.980500 111.011500
81.646750 113.676750
79.778750 115.838500
77.011000 117.295000
74.065500 118.205250
70.963250 118.547500
67.775250 118.488750
65.279250 116.967250
62.941250 115.093750
60.983500 112.898250
59.483000 110.295500
58.517750 107.516250
57.813000 104.633250
56.991500 101.819500
56.874000 98.645250
}
