version: 1
n_points: 120
{
44.206500 52.111500
45.259500 50.838000
46.746750 49.958250
48.331250 49.322500
49.970000 48.915500
51.710750 48.915500
53.409750 49.144500
54.895250 49.966500
56.340000 50.840250
57.852000 51.620750
57.656250 53.012000
56.195000 53.845500
54.610750 54.435750
52.882500 54.552000
51.150500 54.639000
49.428000 54.755250
47.687250 54.755250
46.103000 54.224000
44.700250 53.215250
44.293750 51.850000
83.001250 50.993250
84.093750 49.856750
85.437000 48.888000
86.898250 48.092750
88.451500 47.507750
90.113000 47.356750
91.774000 47.549750
93.390250 47.957750
94.750250 48.922250
96.123750 49.881000
96.421000 51.175500
95.092500 52.184750
93.538500 52.803250
91.932750 53.256500
90.272750 53.440000
88.591750 53.430000
86.957000 53.139500
85.407250 52.715000
83.979500 51.926750
82.913000 50.883250
52.745000 95.345500
53.440750 93.216500
54.716750 91.349250
56.152750 89.513750
57.814000 88.063250
59.870500 87.040000
62.106500 86.340500
64.499000 86.370250
66.745250 87.037000
69.071000 87.177500
71.470500 87.177500
73.816750 87.026750
76.191250 86.966750
78.396000 87.757000
80.512500 88.704250
82.652500 89.707000
84.428250 91.194500
85.895750 93.035000
87.183500 94.978000
88.314750 97.004000
88.737250 99.306750
88.692250 101.698750
87.875000 103.815750
87.314500 106.018250
86.524000 108.122000
85.891750 110.338250
85.389750 112.580000
84.492500 114.609250
83.097750 116.505250
81.499250 118.053000
79.381250 119.112000
77.292000 119.976250
74.973000 120.471500
72.600000 120.587500
70.209250 120.535000
67.927000 120.062250
65.681750 119.612250
63.548750 118.744000
61.549750 117.693500
59.886250 116.148250
58.436250 114.357500
57.329750 112.368250
56.491000 110.219250
55.705500 108.055000
55.055000 105.867750
54.186000 103.726500
53.254750 101.652000
52.850500 99.380250
52.692250 97.034500
52.692250 94.924000
54.195250 96.288000
55.535000 93.683500
58.447750 92.968000
61.619000 92.546500
64.791250 92.177500
68.046000 92.177500
71.300750 92.177500
74.555500 92.177500
77.715250 92.599000
80.815250 93.336750
83.730000 94.434000
86.220500 96.273000
87.236500 99.104000
86.665250 102.164500
85.730500 105.096500
84.366750 107.913500
82.380250 110.111000
79.821500 111.976250
77.120000 113.572750
74.164250 114.679250
70.909500 114.679250
67.727250 115.048250
64.921000 113.941500
62.395000 112.192000
60.274250 109.936500
58.569000 107.386250
57.034250 104.818250
55.779000 101.985000
54.564000 99.241250
54.195250 96.235250
}
