version: 1
n_points: 120
{
47.208750 51.692750
48.185000 50.800750
49.384250 50.141500
50.696750 49.789750
52.043250 49.554250
53.405000 49.450000
54.775500 49.461000
56.101000 49.764250
57.180000 50.540750
58.285000 51.275500
59.246500 51.779500
57.962000 52.167000
56.591250 52.167000
55.225000 52.244000
53.873500 52.440250
52.506500 52.495000
51.135500 52.495000
49.764750 52.495000
48.452750 52.223750
47.263500 51.692750
85.019000 50.499250
85.953000 49.613250
87.084250 48.959750
88.314750 48.526000
89.582250 48.218000
90.888250 48.148750
92.204000 48.148750
93.507500 48.282250
94.783000 48.539500
95.945000 49.137250
96.434500 49.836750
95.184750 50.225250
93.919750 50.573500
92.644750 50.888250
91.345500 51.040250
90.032500 51.076250
88.716750 51.077250
87.401000 51.077250
86.095000 51.000000
85.019000 50.441500
58.499250 82.825500
58.529000 81.420750
59.024750 80.102750
59.270250 78.718750
59.967000 77.509750
60.925000 76.461750
62.067500 75.708250
63.382000 75.209250
64.719750 74.792500
66.143250 74.670250
67.577500 74.670250
69.000000 74.759250
70.423500 74.818500
71.850500 74.878000
73.278000 74.818500
74.664000 74.476750
76.029000 74.077250
77.433000 73.929000
78.867250 73.929000
80.277750 74.038750
81.471500 74.808250
82.566250 75.713500
83.403750 76.847250
84.002500 78.125750
84.210000 79.512500
84.210000 80.946750
84.210000 82.381000
84.210000 83.815250
84.003000 85.195750
83.341250 86.456500
82.311500 87.422500
81.158000 88.227000
79.903250 88.889500
78.599500 89.464500
77.200500 89.740750
75.773500 89.824000
74.342750 89.853500
72.913000 89.908500
71.491250 90.031500
70.057000 90.031500
68.677750 89.736000
67.365250 89.260000
66.037750 88.769500
64.724000 88.204750
63.483000 87.504750
62.328500 86.683000
61.213750 85.801500
60.119750 84.909750
59.260750 83.794500
58.469500 82.766000
59.834500 85.228000
60.937750 83.940250
62.404750 82.958750
63.883750 82.024750
65.650750 81.914750
67.392250 82.182500
69.150000 82.332000
70.932750 82.360750
72.715000 82.336250
74.441500 81.994500
76.154750 81.605500
77.928000 81.680250
79.562500 82.344250
81.113750 83.174750
82.636000 84.028500
82.337250 83.873500
80.831000 83.061500
79.304000 82.233250
77.676750 81.691500
75.890250 81.691500
74.120750 81.787250
72.487750 82.392500
70.713250 82.488000
68.930250 82.460250
67.256250 82.042000
65.486500 81.946500
63.721000 82.010250
62.380500 83.032500
60.958000 83.981250
59.898250 85.164250
}
