version: 1
n_points: 120
{
47.782500 51.782000
48.772500 51.166500
49.795250 50.546750
50.891500 50.082750
52.080000 49.973750
53.286500 49.973750
54.493000 49.973750
55.689250 50.029750
56.766250 50.549000
57.546750 51.419500
58.095500 52.018750
56.907750 52.191750
55.721000 52.372000
54.532000 52.486250
53.325500 52.486250
52.118750 52.486250
50.912250 52.486250
49.705750 52.486250
48.507250 52.429250
47.744500 51.763000
85.951250 50.606000
86.943000 49.926250
88.037500 49.389500
89.196250 49.012000
90.400750 48.848500
91.632250 48.848500
92.863750 48.848500
94.072750 49.032250
95.235250 49.390000
96.313250 49.957250
96.059500 50.156500
94.844000 50.298250
93.681750 50.682750
92.501750 51.004500
91.296750 51.204250
90.067500 51.219250
88.835750 51.219250
87.605500 51.239500
86.386250 51.178250
85.971750 50.463000
57.488750 82.745500
57.828500 81.358250
58.427000 80.051000
59.220250 78.832750
60.019750 77.616250
60.746250 76.369750
61.741750 75.370500
63.067500 74.904500
64.523000 74.884750
65.980750 74.884750
67.438750 74.884750
68.879750 75.017750
70.317250 75.163500
71.775000 75.163500
73.196000 74.963750
74.564000 74.500500
75.968000 74.138000
77.398750 73.931000
78.838500 73.735750
80.271750 73.574500
81.596250 73.989500
82.740250 74.882500
83.767000 75.908000
84.680500 77.030250
85.495500 78.235500
86.084500 79.555000
86.339500 80.978250
85.856000 82.281250
84.696750 83.148750
83.567500 84.040000
82.389000 84.879000
81.139500 85.617500
79.852000 86.292250
78.575750 86.975750
77.208750 87.452250
75.799250 87.770750
74.365750 87.962000
72.917250 88.076000
71.460250 88.097500
70.002500 88.097500
68.550250 88.041750
67.113500 87.833000
65.675250 87.596750
64.333250 87.095000
63.050000 86.436500
61.722250 85.865750
60.385000 85.308250
59.042250 84.777500
57.901250 83.961000
57.433000 82.689750
59.313500 84.518750
60.665750 83.433000
62.196750 82.584250
63.795500 81.883500
65.474500 81.401000
67.223500 81.413000
68.966000 81.561250
70.718750 81.561250
72.461750 81.512000
74.181750 81.264500
75.920000 81.142250
77.672500 81.142250
79.385750 81.482750
81.054000 82.011000
82.568500 82.841000
82.403500 82.804250
80.811750 82.117500
79.213500 81.505000
77.524750 81.166750
75.784500 81.263000
74.048750 81.430250
72.318000 81.635250
70.571000 81.684500
68.818250 81.684500
67.119750 81.388750
65.371250 81.364000
63.672250 81.669250
62.125750 82.458750
60.596500 83.260250
59.436750 84.370750
}
