version: 1
n_points: 120
{
47.856250 52.296000
48.832750 51.527000
50.028750 51.099750
51.260500 50.803250
52.513250 50.645000
53.782000 50.580750
55.052750 50.548750
56.274000 50.814750
57.302750 51.549750
58.314500 52.302250
58.702500 52.841500
57.448000 53.036750
56.223500 53.354000
54.957500 53.418000
53.684500 53.418000
52.411750 53.418000
51.138750 53.418000
49.869000 53.379000
48.636250 53.095750
47.840250 52.215750
86.550500 51.217750
87.632750 50.265250
88.817000 49.423500
90.250000 49.146500
91.725500 49.144750
93.193250 49.245750
94.615750 49.601250
96.031750 50.015750
97.401000 50.539250
98.740750 51.139000
98.745000 51.499500
97.270000 51.508250
95.832750 51.810500
94.396250 52.135000
92.951000 52.385000
91.482500 52.465500
90.013250 52.425750
88.562250 52.211750
87.129500 52.002750
86.610750 51.157500
55.746750 83.374000
56.156750 81.889750
56.936500 80.488750
57.812500 79.143250
58.801000 77.899000
59.972750 76.818250
61.324750 75.981000
62.878250 75.780000
64.446250 76.076500
66.037000 76.254500
67.646750 76.286250
69.259000 76.286250
70.871000 76.286250
72.483000 76.286250
74.095250 76.286250
75.691000 76.154750
77.214000 75.701250
78.763000 75.318250
80.312750 74.988750
81.915750 74.925500
83.500500 75.071750
85.015000 75.598750
86.280000 76.537500
87.243750 77.822250
88.234750 79.075750
89.256000 80.317000
89.635500 81.845500
88.907750 83.163250
87.559250 84.032500
86.094000 84.701750
84.611500 85.326750
83.171500 86.016500
81.672000 86.599000
80.083500 86.808000
78.498750 87.068000
76.915250 87.325750
75.346750 87.682500
73.764500 87.899000
72.152250 87.899000
70.540250 87.899000
68.928250 87.899000
67.321250 87.857750
65.761250 87.524250
64.277250 86.924250
62.760750 86.415750
61.186500 86.103500
59.655500 85.660250
58.132500 85.160750
56.749250 84.362250
55.683500 83.374000
58.022500 84.619250
59.678750 83.600500
61.508000 82.942000
63.431750 82.555500
65.391750 82.403750
67.370000 82.403750
69.348000 82.403750
71.326250 82.403750
73.298250 82.464500
75.276500 82.464500
77.254500 82.464500
79.232750 82.464500
81.210750 82.464500
83.174000 82.564000
85.099500 82.919750
84.895000 82.950000
82.956250 82.768000
80.989250 82.677000
79.011250 82.677000
77.033000 82.677000
75.055000 82.677000
73.081750 82.646500
71.103500 82.646500
69.127500 82.616250
67.158500 82.555500
65.180500 82.555500
63.212000 82.563250
61.313750 82.992250
59.467750 83.539750
57.961750 84.498000
}
