version: 1
n_points: 120
{
46.448000 58.905000
47.935750 58.376500
49.486000 58.022750
51.061500 57.793500
52.610250 57.460750
54.181750 57.250750
55.756000 57.043750
57.334000 56.837250
58.927000 56.759750
60.526500 56.759750
60.184500 56.759750
58.584750 56.759750
56.994750 56.837000
55.432000 57.070000
53.907500 57.390500
52.348250 57.612750
50.794500 57.897000
49.249000 58.181250
47.705500 58.465750
46.267000 58.775750
82.439500 56.311500
84.111250 56.151500
85.829750 56.151500
87.548250 56.151500
89.266500 56.151500
90.966000 56.311500
92.657500 56.537250
94.318000 56.960750
95.988000 57.301750
97.670750 57.590500
97.644500 57.520500
96.022000 57.084250
94.361750 56.791000
92.658500 56.711250
91.015250 56.443000
89.340000 56.204750
87.621500 56.204750
85.903000 56.204750
84.184500 56.204750
82.466000 56.204750
54.616000 92.893500
56.098000 92.247500
57.452750 91.342750
58.916500 90.645750
60.302000 89.794000
61.700000 88.962500
63.124500 88.223000
64.660500 87.724750
66.239000 87.465500
67.870000 87.560500
69.461500 87.894000
71.096000 87.953000
72.725250 87.875500
74.238500 87.293750
75.824000 86.945250
77.398250 87.269250
78.918000 87.871750
80.438500 88.479500
81.983250 89.031750
83.497500 89.637250
84.926500 90.430250
86.389500 91.167000
87.802750 91.992250
89.155500 92.887750
88.792000 94.163500
87.800250 95.438750
86.598500 96.534250
85.204500 97.396750
83.972250 98.445500
82.750000 99.524750
81.328250 100.323250
79.913000 101.139000
78.517250 101.988750
76.937750 102.358500
75.303500 102.449500
73.661750 102.449500
72.025000 102.514500
70.407000 102.742000
68.765250 102.742000
67.164250 102.541250
65.640750 101.963750
64.102250 101.396750
62.604000 100.755250
61.257250 99.854500
59.953500 98.881000
58.753500 97.775250
57.737500 96.535000
56.640500 95.343250
55.634000 94.106500
54.648500 92.893500
63.119500 93.660500
64.182750 93.698500
65.414000 93.393750
66.695250 93.241250
67.970000 93.050750
69.267750 92.974500
70.575500 92.974500
71.883000 92.974500
73.190750 92.974500
74.498500 92.974500
75.806250 92.974500
77.114000 92.974500
78.402250 93.089000
79.660750 93.361500
79.735250 94.494250
78.568000 94.979750
77.403250 95.567250
76.174750 95.976000
74.892500 96.175000
73.602500 96.365500
72.294750 96.365500
70.987000 96.365500
69.679250 96.365500
68.371500 96.365500
67.089500 96.215750
65.845000 95.946500
64.574500 95.661500
63.367000 95.232000
62.433750 94.490250
63.157500 93.622250
}
