version: 1
n_points: 68
{
76.000000 167.000000
79.000000 192.000000
87.000000 217.000000
90.000000 238.000000
101.000000 263.000000
115.000000 281.000000
132.000000 288.000000
150.000000 295.000000
178.000000 305.000000
207.000000 298.000000
224.000000 291.000000
238.000000 281.000000
253.000000 263.000000
260.000000 238.000000
267.000000 213.000000
270.000000 189.000000
274.000000 164.000000
97.000000 132.000000
108.000000 122.000000
125.000000 118.000000
140.000000 118.000000
150.000000 118.000000
203.000000 118.000000
217.000000 118.000000
231.000000 118.000000
245.000000 122.000000
256.000000 132.000000
178.000000 150.000000
178.000000 167.000000
175.000000 182.000000
175.000000 196.000000
161.000000 210.000000
168.000000 210.000000
175.000000 213.000000
185.000000 213.000000
193.000000 210.000000
115.000000 153.000000
125.000000 150.000000
140.000000 150.000000
150.000000 153.000000
140.000000 157.000000
125.000000 157.000000
203.000000 153.000000
217.000000 150.000000
228.000000 150.000000
238.000000 153.000000
228.000000 160.000000
214.000000 157.000000
147.000000 249.000000
154.000000 238.000000
168.000000 231.000000
178.000000 231.000000
185.000000 231.000000
200.000000 238.000000
210.000000 249.000000
200.000000 256.000000
189.000000 259.000000
178.000000 259.000000
168.000000 259.000000
157.000000 256.000000
147.000000 249.000000
168.000000 242.000000
178.000000 242.000000
185.000000 242.000000
207.000000 249.000000
185.000000 245.000000
178.000000 245.000000
168.000000 245.000000
}
