version: 1
n_points: 68
{
78.000000 166.000000
81.000000 195.000000
85.000000 219.000000
92.000000 241.000000
103.000000 265.000000
117.000000 279.000000
131.000000 290.000000
148.000000 297.000000
180.000000 304.000000
208.000000 297.000000
226.000000 290.000000
240.000000 279.000000
254.000000 262.000000
261.000000 241.000000
268.000000 216.000000
272.000000 191.000000
276.000000 166.000000
99.000000 135.000000
110.000000 120.000000
124.000000 117.000000
138.000000 117.000000
152.000000 120.000000
205.000000 120.000000
216.000000 117.000000
230.000000 117.000000
247.000000 120.000000
258.000000 135.000000
177.000000 152.000000
177.000000 170.000000
177.000000 184.000000
177.000000 198.000000
163.000000 209.000000
170.000000 212.000000
177.000000 212.000000
187.000000 212.000000
194.000000 212.000000
117.000000 156.000000
127.000000 149.000000
138.000000 149.000000
152.000000 156.000000
141.000000 159.000000
127.000000 159.000000
205.000000 156.000000
216.000000 149.000000
230.000000 149.000000
240.000000 152.000000
230.000000 159.000000
216.000000 159.000000
145.000000 248.000000
155.000000 237.000000
170.000000 230.000000
177.000000 230.000000
187.000000 230.000000
201.000000 237.000000
212.000000 248.000000
201.000000 255.000000
191.000000 258.000000
180.000000 258.000000
166.000000 262.000000
159.000000 255.000000
148.000000 248.000000
170.000000 241.000000
177.000000 241.000000
187.000000 241.000000
208.000000 248.000000
187.000000 248.000000
180.000000 248.000000
170.000000 248.000000
}
