version: 1
n_points: 68
{
76.000000 167.000000
80.000000 192.000000
87.000000 216.000000
90.000000 238.000000
101.000000 262.000000
115.000000 280.000000
133.000000 287.000000
151.000000 294.000000
179.000000 305.000000
207.000000 298.000000
225.000000 291.000000
239.000000 280.000000
253.000000 262.000000
260.000000 238.000000
267.000000 213.000000
271.000000 192.000000
275.000000 163.000000
97.000000 131.000000
108.000000 121.000000
126.000000 117.000000
140.000000 117.000000
151.000000 117.000000
204.000000 117.000000
218.000000 117.000000
232.000000 117.000000
246.000000 121.000000
260.000000 135.000000
179.000000 153.000000
179.000000 167.000000
175.000000 184.000000
175.000000 195.000000
161.000000 209.000000
168.000000 213.000000
175.000000 213.000000
186.000000 213.000000
193.000000 209.000000
115.000000 153.000000
126.000000 149.000000
140.000000 149.000000
151.000000 153.000000
140.000000 156.000000
126.000000 160.000000
204.000000 153.000000
218.000000 149.000000
229.000000 149.000000
239.000000 153.000000
229.000000 160.000000
214.000000 160.000000
147.000000 248.000000
158.000000 238.000000
172.000000 231.000000
179.000000 231.000000
186.000000 231.000000
200.000000 238.000000
211.000000 248.000000
200.000000 255.000000
190.000000 259.000000
179.000000 259.000000
168.000000 259.000000
158.000000 255.000000
147.000000 248.000000
168.000000 241.000000
179.000000 241.000000
186.000000 241.000000
207.000000 248.000000
186.000000 245.000000
179.000000 245.000000
168.000000 245.000000
}
