version: 1
n_points: 68
{
77.000000 167.000000
80.000000 196.000000
87.000000 217.000000
91.000000 241.000000
102.000000 263.000000
116.000000 280.000000
130.000000 291.000000
147.000000 298.000000
179.000000 305.000000
208.000000 298.000000
225.000000 291.000000
239.000000 280.000000
253.000000 263.000000
261.000000 238.000000
264.000000 217.000000
271.000000 192.000000
275.000000 164.000000
98.000000 132.000000
109.000000 121.000000
123.000000 118.000000
137.000000 118.000000
151.000000 118.000000
204.000000 118.000000
218.000000 118.000000
232.000000 118.000000
246.000000 121.000000
257.000000 135.000000
179.000000 153.000000
176.000000 167.000000
176.000000 185.000000
176.000000 196.000000
162.000000 210.000000
169.000000 213.000000
176.000000 213.000000
186.000000 213.000000
193.000000 210.000000
116.000000 153.000000
126.000000 150.000000
140.000000 150.000000
151.000000 153.000000
140.000000 157.000000
126.000000 160.000000
204.000000 153.000000
215.000000 150.000000
229.000000 150.000000
239.000000 153.000000
229.000000 160.000000
215.000000 160.000000
144.000000 249.000000
155.000000 238.000000
169.000000 231.000000
179.000000 231.000000
186.000000 231.000000
200.000000 238.000000
211.000000 249.000000
200.000000 256.000000
190.000000 259.000000
179.000000 259.000000
165.000000 259.000000
158.000000 256.000000
147.000000 249.000000
169.000000 241.000000
179.000000 241.000000
186.000000 241.000000
208.000000 249.000000
186.000000 245.000000
179.000000 245.000000
169.000000 245.000000
}
