version: 1
n_points: 68
{
82.000000 166.000000
85.000000 194.000000
92.000000 219.000000
96.000000 240.000000
106.000000 265.000000
121.000000 282.000000
135.000000 290.000000
152.000000 297.000000
184.000000 304.000000
213.000000 297.000000
230.000000 290.000000
245.000000 279.000000
259.000000 261.000000
266.000000 236.000000
269.000000 215.000000
276.000000 190.000000
276.000000 166.000000
103.000000 134.000000
113.000000 120.000000
128.000000 116.000000
142.000000 116.000000
156.000000 120.000000
209.000000 120.000000
220.000000 116.000000
234.000000 116.000000
252.000000 120.000000
262.000000 134.000000
181.000000 151.000000
181.000000 169.000000
181.000000 183.000000
177.000000 197.000000
167.000000 208.000000
174.000000 212.000000
181.000000 212.000000
191.000000 212.000000
198.000000 212.000000
121.000000 155.000000
131.000000 148.000000
142.000000 148.000000
156.000000 155.000000
145.000000 159.000000
131.000000 159.000000
209.000000 155.000000
220.000000 148.000000
234.000000 148.000000
245.000000 151.000000
234.000000 159.000000
220.000000 159.000000
149.000000 247.000000
160.000000 236.000000
174.000000 229.000000
181.000000 229.000000
188.000000 229.000000
206.000000 236.000000
216.000000 247.000000
202.000000 254.000000
195.000000 258.000000
181.000000 261.000000
170.000000 261.000000
160.000000 254.000000
152.000000 247.000000
174.000000 240.000000
181.000000 240.000000
191.000000 240.000000
213.000000 247.000000
191.000000 247.000000
181.000000 247.000000
174.000000 247.000000
}
