version: 1
n_points: 68
{
79.000000 169.000000
83.000000 194.000000
90.000000 219.000000
94.000000 240.000000
104.000000 265.000000
119.000000 283.000000
133.000000 290.000000
151.000000 297.000000
179.000000 304.000000
211.000000 297.000000
229.000000 290.000000
240.000000 279.000000
254.000000 262.000000
265.000000 237.000000
268.000000 215.000000
275.000000 190.000000
275.000000 165.000000
97.000000 133.000000
112.000000 123.000000
126.000000 116.000000
140.000000 116.000000
154.000000 119.000000
208.000000 119.000000
218.000000 116.000000
233.000000 116.000000
247.000000 123.000000
261.000000 133.000000
179.000000 151.000000
179.000000 169.000000
176.000000 183.000000
176.000000 197.000000
165.000000 208.000000
169.000000 212.000000
179.000000 212.000000
190.000000 212.000000
197.000000 212.000000
119.000000 155.000000
129.000000 148.000000
140.000000 148.000000
154.000000 155.000000
144.000000 158.000000
129.000000 158.000000
208.000000 155.000000
218.000000 148.000000
229.000000 148.000000
240.000000 155.000000
229.000000 158.000000
218.000000 158.000000
147.000000 247.000000
158.000000 237.000000
172.000000 230.000000
179.000000 230.000000
186.000000 230.000000
201.000000 237.000000
211.000000 247.000000
201.000000 254.000000
190.000000 258.000000
179.000000 262.000000
169.000000 262.000000
158.000000 254.000000
151.000000 247.000000
169.000000 240.000000
179.000000 240.000000
190.000000 240.000000
211.000000 247.000000
190.000000 247.000000
179.000000 247.000000
169.000000 247.000000
}
