version: 1
n_points: 68
{
74.000000 166.000000
78.000000 195.000000
85.000000 217.000000
92.000000 242.000000
103.000000 267.000000
117.000000 285.000000
132.000000 292.000000
149.000000 299.000000
178.000000 307.000000
207.000000 303.000000
225.000000 292.000000
239.000000 281.000000
254.000000 263.000000
261.000000 238.000000
264.000000 213.000000
272.000000 192.000000
275.000000 163.000000
96.000000 134.000000
106.000000 120.000000
124.000000 116.000000
139.000000 116.000000
149.000000 116.000000
203.000000 116.000000
218.000000 116.000000
232.000000 116.000000
246.000000 120.000000
257.000000 134.000000
178.000000 152.000000
175.000000 170.000000
175.000000 184.000000
175.000000 195.000000
160.000000 210.000000
167.000000 213.000000
175.000000 213.000000
185.000000 213.000000
193.000000 210.000000
117.000000 156.000000
128.000000 152.000000
139.000000 149.000000
149.000000 156.000000
139.000000 159.000000
128.000000 159.000000
203.000000 156.000000
214.000000 149.000000
229.000000 149.000000
239.000000 156.000000
229.000000 159.000000
214.000000 159.000000
146.000000 249.000000
157.000000 238.000000
171.000000 231.000000
178.000000 231.000000
185.000000 231.000000
200.000000 238.000000
211.000000 249.000000
200.000000 256.000000
189.000000 260.000000
178.000000 260.000000
167.000000 260.000000
157.000000 256.000000
149.000000 249.000000
167.000000 242.000000
178.000000 242.000000
185.000000 242.000000
207.000000 249.000000
185.000000 246.000000
178.000000 246.000000
167.000000 246.000000
}
