version: 1
n_points: 68
{
73.000000 166.000000
77.000000 194.000000
84.000000 216.000000
91.000000 241.000000
98.000000 266.000000
116.000000 281.000000
131.000000 292.000000
149.000000 299.000000
177.000000 306.000000
206.000000 302.000000
224.000000 292.000000
239.000000 281.000000
249.000000 263.000000
260.000000 238.000000
264.000000 216.000000
271.000000 191.000000
271.000000 162.000000
95.000000 133.000000
105.000000 122.000000
120.000000 115.000000
134.000000 115.000000
149.000000 119.000000
203.000000 119.000000
217.000000 115.000000
228.000000 115.000000
246.000000 119.000000
257.000000 133.000000
174.000000 151.000000
174.000000 169.000000
174.000000 184.000000
174.000000 194.000000
159.000000 209.000000
167.000000 212.000000
174.000000 212.000000
185.000000 212.000000
192.000000 209.000000
116.000000 155.000000
127.000000 151.000000
138.000000 151.000000
149.000000 155.000000
138.000000 158.000000
127.000000 158.000000
203.000000 155.000000
213.000000 148.000000
228.000000 148.000000
235.000000 155.000000
228.000000 158.000000
213.000000 158.000000
145.000000 248.000000
156.000000 238.000000
170.000000 230.000000
177.000000 230.000000
185.000000 230.000000
199.000000 238.000000
210.000000 248.000000
199.000000 256.000000
188.000000 259.000000
177.000000 263.000000
167.000000 263.000000
156.000000 256.000000
149.000000 248.000000
167.000000 241.000000
177.000000 241.000000
185.000000 241.000000
206.000000 248.000000
185.000000 248.000000
177.000000 248.000000
167.000000 248.000000
}
