version: 1
n_points: 68
{
70.000000 165.000000
73.000000 193.000000
80.000000 218.000000
88.000000 240.000000
98.000000 265.000000
113.000000 283.000000
127.000000 290.000000
145.000000 301.000000
174.000000 308.000000
203.000000 301.000000
221.000000 294.000000
235.000000 283.000000
249.000000 262.000000
257.000000 236.000000
260.000000 215.000000
267.000000 190.000000
267.000000 165.000000
91.000000 132.000000
102.000000 121.000000
116.000000 114.000000
131.000000 114.000000
145.000000 118.000000
199.000000 118.000000
213.000000 114.000000
228.000000 114.000000
242.000000 121.000000
253.000000 132.000000
170.000000 150.000000
170.000000 168.000000
170.000000 182.000000
170.000000 193.000000
156.000000 208.000000
163.000000 211.000000
170.000000 211.000000
181.000000 211.000000
188.000000 208.000000
113.000000 154.000000
120.000000 147.000000
134.000000 147.000000
145.000000 154.000000
134.000000 157.000000
120.000000 157.000000
199.000000 154.000000
210.000000 147.000000
224.000000 147.000000
231.000000 154.000000
224.000000 157.000000
210.000000 157.000000
142.000000 251.000000
152.000000 236.000000
163.000000 229.000000
174.000000 229.000000
181.000000 229.000000
195.000000 236.000000
206.000000 251.000000
195.000000 258.000000
185.000000 265.000000
174.000000 265.000000
159.000000 265.000000
152.000000 262.000000
145.000000 247.000000
163.000000 240.000000
174.000000 240.000000
181.000000 240.000000
203.000000 251.000000
181.000000 251.000000
174.000000 254.000000
163.000000 251.000000
}
