version: 1
n_points: 68
{
81.000000 165.000000
84.000000 194.000000
88.000000 219.000000
95.000000 240.000000
102.000000 265.000000
120.000000 280.000000
135.000000 291.000000
149.000000 298.000000
181.000000 305.000000
210.000000 301.000000
228.000000 291.000000
242.000000 280.000000
257.000000 262.000000
268.000000 237.000000
271.000000 215.000000
275.000000 190.000000
275.000000 165.000000
102.000000 133.000000
113.000000 122.000000
128.000000 118.000000
142.000000 118.000000
156.000000 118.000000
207.000000 118.000000
221.000000 118.000000
235.000000 118.000000
250.000000 122.000000
260.000000 133.000000
181.000000 151.000000
178.000000 168.000000
178.000000 183.000000
178.000000 197.000000
163.000000 212.000000
171.000000 212.000000
181.000000 215.000000
189.000000 212.000000
196.000000 212.000000
124.000000 158.000000
131.000000 154.000000
145.000000 154.000000
153.000000 158.000000
145.000000 161.000000
131.000000 161.000000
207.000000 158.000000
217.000000 154.000000
232.000000 158.000000
239.000000 158.000000
232.000000 161.000000
217.000000 161.000000
149.000000 248.000000
160.000000 237.000000
174.000000 230.000000
181.000000 233.000000
189.000000 230.000000
203.000000 237.000000
214.000000 248.000000
203.000000 255.000000
192.000000 258.000000
181.000000 262.000000
171.000000 262.000000
160.000000 255.000000
149.000000 248.000000
171.000000 244.000000
181.000000 240.000000
189.000000 244.000000
210.000000 248.000000
189.000000 248.000000
181.000000 248.000000
171.000000 248.000000
}
