version: 1
n_points: 68
{
75.000000 165.000000
79.000000 193.000000
86.000000 219.000000
93.000000 240.000000
101.000000 265.000000
119.000000 283.000000
133.000000 291.000000
151.000000 301.000000
180.000000 309.000000
209.000000 301.000000
227.000000 291.000000
241.000000 283.000000
252.000000 262.000000
263.000000 240.000000
266.000000 215.000000
273.000000 190.000000
273.000000 165.000000
97.000000 132.000000
108.000000 121.000000
126.000000 114.000000
140.000000 114.000000
151.000000 118.000000
205.000000 118.000000
216.000000 114.000000
230.000000 114.000000
248.000000 121.000000
259.000000 132.000000
176.000000 150.000000
176.000000 168.000000
176.000000 183.000000
176.000000 197.000000
162.000000 211.000000
169.000000 211.000000
176.000000 215.000000
187.000000 211.000000
194.000000 211.000000
119.000000 154.000000
129.000000 150.000000
140.000000 150.000000
151.000000 154.000000
140.000000 157.000000
129.000000 157.000000
205.000000 154.000000
216.000000 150.000000
230.000000 150.000000
237.000000 154.000000
227.000000 157.000000
216.000000 157.000000
147.000000 247.000000
158.000000 237.000000
169.000000 229.000000
180.000000 233.000000
187.000000 229.000000
201.000000 237.000000
212.000000 251.000000
201.000000 255.000000
191.000000 258.000000
180.000000 262.000000
169.000000 262.000000
158.000000 255.000000
147.000000 247.000000
169.000000 244.000000
180.000000 240.000000
187.000000 244.000000
209.000000 247.000000
187.000000 247.000000
180.000000 247.000000
169.000000 247.000000
}
