version: 1
n_points: 68
{
80.000000 165.000000
84.000000 194.000000
87.000000 215.000000
95.000000 241.000000
102.000000 266.000000
120.000000 280.000000
134.000000 291.000000
148.000000 298.000000
181.000000 305.000000
210.000000 302.000000
227.000000 291.000000
242.000000 280.000000
256.000000 262.000000
263.000000 237.000000
271.000000 215.000000
274.000000 190.000000
274.000000 165.000000
98.000000 133.000000
112.000000 122.000000
127.000000 118.000000
141.000000 115.000000
156.000000 118.000000
206.000000 118.000000
220.000000 118.000000
235.000000 118.000000
249.000000 122.000000
260.000000 133.000000
181.000000 151.000000
177.000000 169.000000
177.000000 183.000000
177.000000 197.000000
163.000000 212.000000
170.000000 212.000000
177.000000 212.000000
188.000000 212.000000
195.000000 212.000000
120.000000 154.000000
130.000000 154.000000
141.000000 151.000000
152.000000 154.000000
145.000000 158.000000
130.000000 158.000000
206.000000 154.000000
217.000000 154.000000
231.000000 154.000000
238.000000 154.000000
231.000000 161.000000
217.000000 158.000000
148.000000 248.000000
156.000000 237.000000
170.000000 230.000000
181.000000 233.000000
188.000000 230.000000
202.000000 237.000000
213.000000 248.000000
202.000000 255.000000
192.000000 258.000000
181.000000 262.000000
166.000000 262.000000
159.000000 255.000000
148.000000 248.000000
170.000000 244.000000
181.000000 241.000000
188.000000 244.000000
210.000000 248.000000
188.000000 248.000000
181.000000 248.000000
170.000000 248.000000
}
