version: 1
n_points: 68
{
73.000000 165.000000
76.000000 190.000000
80.000000 216.000000
87.000000 237.000000
98.000000 263.000000
112.000000 281.000000
127.000000 292.000000
145.000000 302.000000
174.000000 313.000000
206.000000 302.000000
221.000000 292.000000
235.000000 281.000000
250.000000 263.000000
257.000000 237.000000
261.000000 212.000000
268.000000 190.000000
271.000000 161.000000
91.000000 133.000000
101.000000 118.000000
120.000000 114.000000
130.000000 114.000000
145.000000 118.000000
199.000000 118.000000
214.000000 114.000000
224.000000 114.000000
242.000000 122.000000
253.000000 133.000000
170.000000 151.000000
170.000000 169.000000
170.000000 183.000000
170.000000 194.000000
156.000000 208.000000
163.000000 212.000000
170.000000 212.000000
181.000000 212.000000
188.000000 208.000000
112.000000 154.000000
123.000000 147.000000
134.000000 147.000000
145.000000 154.000000
134.000000 158.000000
123.000000 158.000000
199.000000 154.000000
210.000000 147.000000
224.000000 147.000000
232.000000 154.000000
224.000000 158.000000
210.000000 158.000000
141.000000 252.000000
152.000000 237.000000
167.000000 230.000000
174.000000 230.000000
181.000000 227.000000
195.000000 237.000000
206.000000 252.000000
195.000000 263.000000
185.000000 270.000000
174.000000 270.000000
159.000000 270.000000
152.000000 263.000000
145.000000 252.000000
163.000000 241.000000
174.000000 241.000000
181.000000 241.000000
203.000000 252.000000
185.000000 255.000000
174.000000 255.000000
163.000000 255.000000
}
