version: 1
n_points: 68
{
68.000000 164.000000
76.000000 193.000000
79.000000 215.000000
87.000000 240.000000
97.000000 262.000000
112.000000 280.000000
126.000000 291.000000
144.000000 298.000000
173.000000 309.000000
205.000000 301.000000
223.000000 291.000000
234.000000 280.000000
249.000000 262.000000
256.000000 237.000000
259.000000 215.000000
267.000000 190.000000
267.000000 164.000000
90.000000 132.000000
101.000000 118.000000
119.000000 114.000000
133.000000 114.000000
144.000000 118.000000
198.000000 118.000000
213.000000 114.000000
227.000000 114.000000
241.000000 121.000000
252.000000 132.000000
173.000000 150.000000
173.000000 168.000000
169.000000 182.000000
169.000000 193.000000
155.000000 208.000000
162.000000 208.000000
169.000000 211.000000
180.000000 211.000000
187.000000 208.000000
112.000000 154.000000
123.000000 146.000000
133.000000 146.000000
144.000000 154.000000
133.000000 157.000000
123.000000 157.000000
198.000000 154.000000
209.000000 146.000000
223.000000 146.000000
234.000000 154.000000
223.000000 157.000000
209.000000 157.000000
141.000000 251.000000
151.000000 237.000000
166.000000 226.000000
173.000000 229.000000
180.000000 226.000000
195.000000 237.000000
205.000000 251.000000
195.000000 258.000000
184.000000 265.000000
173.000000 265.000000
162.000000 265.000000
151.000000 262.000000
144.000000 247.000000
162.000000 240.000000
173.000000 240.000000
180.000000 240.000000
202.000000 251.000000
184.000000 251.000000
173.000000 255.000000
162.000000 251.000000
}
