version: 1
n_points: 68
{
69.000000 165.000000
72.000000 194.000000
80.000000 215.000000
87.000000 241.000000
94.000000 262.000000
112.000000 280.000000
126.000000 291.000000
144.000000 302.000000
173.000000 309.000000
202.000000 302.000000
220.000000 295.000000
235.000000 280.000000
246.000000 262.000000
256.000000 237.000000
260.000000 215.000000
267.000000 190.000000
267.000000 165.000000
90.000000 132.000000
101.000000 122.000000
116.000000 114.000000
130.000000 114.000000
144.000000 118.000000
199.000000 118.000000
209.000000 114.000000
224.000000 114.000000
242.000000 122.000000
253.000000 132.000000
170.000000 150.000000
170.000000 168.000000
170.000000 183.000000
170.000000 197.000000
155.000000 208.000000
163.000000 212.000000
170.000000 212.000000
181.000000 212.000000
188.000000 212.000000
112.000000 154.000000
119.000000 147.000000
134.000000 147.000000
144.000000 154.000000
134.000000 158.000000
119.000000 158.000000
199.000000 154.000000
209.000000 147.000000
224.000000 147.000000
231.000000 154.000000
224.000000 158.000000
209.000000 158.000000
141.000000 251.000000
152.000000 237.000000
163.000000 230.000000
173.000000 230.000000
181.000000 230.000000
195.000000 237.000000
206.000000 251.000000
195.000000 262.000000
184.000000 270.000000
173.000000 270.000000
159.000000 270.000000
152.000000 262.000000
144.000000 251.000000
163.000000 241.000000
173.000000 241.000000
181.000000 241.000000
202.000000 251.000000
181.000000 255.000000
173.000000 255.000000
163.000000 255.000000
}
