version: 1
n_points: 68
{
69.000000 165.000000
72.000000 191.000000
80.000000 216.000000
87.000000 241.000000
94.000000 262.000000
112.000000 280.000000
126.000000 291.000000
144.000000 298.000000
173.000000 309.000000
202.000000 302.000000
220.000000 291.000000
234.000000 280.000000
248.000000 262.000000
255.000000 237.000000
259.000000 212.000000
266.000000 191.000000
270.000000 162.000000
90.000000 130.000000
101.000000 119.000000
115.000000 115.000000
130.000000 112.000000
144.000000 115.000000
198.000000 115.000000
209.000000 115.000000
223.000000 115.000000
241.000000 119.000000
252.000000 130.000000
169.000000 148.000000
169.000000 165.000000
169.000000 180.000000
169.000000 194.000000
155.000000 209.000000
162.000000 209.000000
169.000000 212.000000
180.000000 209.000000
187.000000 209.000000
108.000000 151.000000
119.000000 148.000000
130.000000 148.000000
144.000000 151.000000
133.000000 155.000000
119.000000 158.000000
198.000000 151.000000
209.000000 148.000000
223.000000 148.000000
230.000000 151.000000
223.000000 158.000000
209.000000 158.000000
141.000000 248.000000
151.000000 237.000000
162.000000 227.000000
169.000000 227.000000
180.000000 227.000000
194.000000 237.000000
205.000000 252.000000
194.000000 259.000000
184.000000 266.000000
173.000000 270.000000
159.000000 266.000000
151.000000 262.000000
144.000000 248.000000
162.000000 241.000000
169.000000 237.000000
180.000000 241.000000
202.000000 248.000000
180.000000 252.000000
173.000000 255.000000
162.000000 255.000000
}
