version: 1
n_points: 68
{
68.000000 166.000000
72.000000 191.000000
79.000000 216.000000
86.000000 238.000000
94.000000 263.000000
108.000000 281.000000
126.000000 292.000000
141.000000 299.000000
173.000000 310.000000
202.000000 303.000000
220.000000 292.000000
234.000000 281.000000
245.000000 263.000000
256.000000 238.000000
260.000000 213.000000
267.000000 187.000000
267.000000 162.000000
90.000000 130.000000
101.000000 119.000000
115.000000 115.000000
130.000000 115.000000
144.000000 115.000000
198.000000 115.000000
209.000000 115.000000
224.000000 115.000000
238.000000 119.000000
253.000000 130.000000
169.000000 148.000000
169.000000 166.000000
169.000000 180.000000
169.000000 195.000000
155.000000 209.000000
162.000000 209.000000
169.000000 213.000000
180.000000 209.000000
187.000000 209.000000
112.000000 151.000000
119.000000 148.000000
133.000000 148.000000
144.000000 151.000000
133.000000 155.000000
119.000000 155.000000
198.000000 151.000000
209.000000 148.000000
220.000000 148.000000
231.000000 151.000000
220.000000 159.000000
209.000000 159.000000
141.000000 249.000000
148.000000 234.000000
162.000000 227.000000
169.000000 227.000000
177.000000 227.000000
195.000000 238.000000
202.000000 249.000000
195.000000 260.000000
184.000000 267.000000
169.000000 271.000000
159.000000 267.000000
151.000000 263.000000
141.000000 249.000000
162.000000 242.000000
169.000000 238.000000
180.000000 242.000000
202.000000 249.000000
180.000000 252.000000
173.000000 256.000000
162.000000 256.000000
}
