version: 1
n_points: 68
{
75.000000 164.000000
79.000000 193.000000
82.000000 215.000000
90.000000 241.000000
101.000000 266.000000
115.000000 284.000000
130.000000 295.000000
148.000000 303.000000
177.000000 314.000000
207.000000 303.000000
225.000000 292.000000
236.000000 281.000000
251.000000 262.000000
258.000000 237.000000
265.000000 211.000000
269.000000 189.000000
272.000000 164.000000
97.000000 131.000000
108.000000 120.000000
123.000000 113.000000
137.000000 113.000000
148.000000 116.000000
203.000000 116.000000
214.000000 116.000000
229.000000 116.000000
243.000000 120.000000
258.000000 131.000000
174.000000 149.000000
174.000000 167.000000
174.000000 182.000000
174.000000 197.000000
159.000000 211.000000
166.000000 211.000000
174.000000 215.000000
185.000000 211.000000
192.000000 211.000000
115.000000 153.000000
126.000000 149.000000
137.000000 149.000000
148.000000 153.000000
137.000000 156.000000
126.000000 156.000000
203.000000 153.000000
214.000000 149.000000
225.000000 149.000000
236.000000 153.000000
225.000000 156.000000
214.000000 156.000000
148.000000 252.000000
155.000000 241.000000
170.000000 230.000000
177.000000 230.000000
181.000000 230.000000
199.000000 241.000000
207.000000 252.000000
196.000000 262.000000
188.000000 270.000000
177.000000 270.000000
163.000000 270.000000
155.000000 262.000000
152.000000 252.000000
166.000000 244.000000
177.000000 241.000000
185.000000 244.000000
203.000000 252.000000
185.000000 255.000000
177.000000 255.000000
166.000000 255.000000
}
