version: 1
n_points: 68
{
74.000000 164.000000
77.000000 193.000000
85.000000 219.000000
88.000000 241.000000
99.000000 266.000000
114.000000 285.000000
129.000000 292.000000
147.000000 303.000000
176.000000 310.000000
209.000000 303.000000
224.000000 292.000000
239.000000 281.000000
250.000000 263.000000
261.000000 237.000000
264.000000 211.000000
268.000000 189.000000
272.000000 164.000000
96.000000 131.000000
107.000000 120.000000
121.000000 113.000000
136.000000 113.000000
147.000000 116.000000
202.000000 116.000000
217.000000 116.000000
228.000000 116.000000
246.000000 120.000000
257.000000 131.000000
176.000000 149.000000
173.000000 168.000000
173.000000 186.000000
173.000000 197.000000
162.000000 211.000000
165.000000 211.000000
176.000000 215.000000
184.000000 211.000000
191.000000 211.000000
114.000000 153.000000
125.000000 149.000000
136.000000 149.000000
147.000000 153.000000
136.000000 157.000000
125.000000 157.000000
202.000000 153.000000
213.000000 149.000000
228.000000 149.000000
235.000000 153.000000
224.000000 157.000000
213.000000 157.000000
147.000000 252.000000
154.000000 241.000000
169.000000 230.000000
176.000000 233.000000
184.000000 230.000000
198.000000 241.000000
206.000000 252.000000
198.000000 263.000000
187.000000 270.000000
176.000000 270.000000
165.000000 270.000000
158.000000 263.000000
151.000000 252.000000
169.000000 244.000000
176.000000 241.000000
184.000000 244.000000
206.000000 252.000000
184.000000 255.000000
176.000000 255.000000
165.000000 255.000000
}
