version: 1
n_points: 68
{
73.000000 166.000000
77.000000 192.000000
81.000000 217.000000
88.000000 239.000000
99.000000 264.000000
113.000000 286.000000
128.000000 293.000000
146.000000 304.000000
175.000000 315.000000
208.000000 304.000000
222.000000 293.000000
237.000000 283.000000
248.000000 261.000000
259.000000 235.000000
262.000000 213.000000
270.000000 188.000000
270.000000 163.000000
91.000000 133.000000
102.000000 119.000000
121.000000 115.000000
131.000000 115.000000
146.000000 115.000000
201.000000 115.000000
212.000000 115.000000
226.000000 115.000000
241.000000 119.000000
255.000000 130.000000
172.000000 152.000000
172.000000 170.000000
172.000000 184.000000
172.000000 195.000000
157.000000 210.000000
164.000000 213.000000
172.000000 213.000000
182.000000 213.000000
190.000000 210.000000
113.000000 155.000000
124.000000 148.000000
135.000000 148.000000
146.000000 155.000000
135.000000 159.000000
124.000000 159.000000
201.000000 152.000000
212.000000 148.000000
222.000000 148.000000
233.000000 152.000000
222.000000 159.000000
212.000000 159.000000
146.000000 253.000000
153.000000 239.000000
168.000000 228.000000
175.000000 232.000000
182.000000 228.000000
197.000000 239.000000
204.000000 253.000000
197.000000 264.000000
186.000000 272.000000
175.000000 272.000000
161.000000 272.000000
153.000000 264.000000
146.000000 253.000000
164.000000 243.000000
175.000000 243.000000
182.000000 243.000000
201.000000 253.000000
182.000000 257.000000
175.000000 257.000000
164.000000 257.000000
}
