version: 1
n_points: 68
{
72.000000 165.000000
76.000000 194.000000
80.000000 216.000000
87.000000 238.000000
98.000000 263.000000
112.000000 285.000000
127.000000 292.000000
145.000000 303.000000
174.000000 314.000000
207.000000 303.000000
222.000000 292.000000
236.000000 282.000000
247.000000 263.000000
258.000000 238.000000
262.000000 212.000000
269.000000 187.000000
269.000000 161.000000
91.000000 132.000000
101.000000 121.000000
120.000000 114.000000
131.000000 114.000000
145.000000 118.000000
200.000000 118.000000
211.000000 114.000000
225.000000 114.000000
240.000000 121.000000
254.000000 132.000000
171.000000 150.000000
171.000000 169.000000
171.000000 183.000000
171.000000 198.000000
156.000000 212.000000
163.000000 212.000000
171.000000 212.000000
182.000000 212.000000
189.000000 212.000000
112.000000 154.000000
123.000000 147.000000
134.000000 147.000000
145.000000 154.000000
134.000000 158.000000
123.000000 158.000000
200.000000 154.000000
211.000000 147.000000
222.000000 147.000000
233.000000 154.000000
222.000000 158.000000
211.000000 158.000000
145.000000 252.000000
152.000000 238.000000
167.000000 231.000000
174.000000 231.000000
182.000000 231.000000
196.000000 238.000000
203.000000 252.000000
196.000000 263.000000
185.000000 271.000000
174.000000 271.000000
160.000000 271.000000
152.000000 263.000000
145.000000 252.000000
163.000000 241.000000
174.000000 241.000000
182.000000 241.000000
200.000000 252.000000
182.000000 256.000000
174.000000 260.000000
163.000000 256.000000
}
