version: 1
n_points: 68
{
75.000000 165.000000
75.000000 188.000000
82.000000 215.000000
86.000000 238.000000
97.000000 264.000000
113.000000 283.000000
128.000000 295.000000
147.000000 314.000000
181.000000 321.000000
208.000000 314.000000
227.000000 299.000000
238.000000 283.000000
250.000000 260.000000
261.000000 238.000000
265.000000 211.000000
269.000000 188.000000
273.000000 161.000000
94.000000 127.000000
105.000000 112.000000
120.000000 108.000000
132.000000 104.000000
147.000000 108.000000
200.000000 108.000000
216.000000 108.000000
227.000000 108.000000
246.000000 116.000000
257.000000 127.000000
174.000000 142.000000
174.000000 161.000000
170.000000 173.000000
170.000000 188.000000
158.000000 203.000000
162.000000 203.000000
174.000000 207.000000
181.000000 203.000000
189.000000 203.000000
113.000000 146.000000
124.000000 142.000000
136.000000 142.000000
147.000000 146.000000
136.000000 150.000000
124.000000 150.000000
200.000000 146.000000
212.000000 142.000000
227.000000 142.000000
235.000000 146.000000
227.000000 150.000000
212.000000 150.000000
147.000000 260.000000
155.000000 234.000000
166.000000 222.000000
174.000000 222.000000
181.000000 222.000000
196.000000 238.000000
204.000000 260.000000
196.000000 279.000000
185.000000 291.000000
174.000000 295.000000
162.000000 295.000000
151.000000 283.000000
147.000000 260.000000
166.000000 238.000000
174.000000 234.000000
185.000000 238.000000
200.000000 260.000000
185.000000 279.000000
174.000000 283.000000
162.000000 279.000000
}
