version: 1
n_points: 68
{
73.000000 167.000000
77.000000 193.000000
81.000000 218.000000
88.000000 240.000000
99.000000 266.000000
114.000000 284.000000
128.000000 292.000000
147.000000 303.000000
176.000000 314.000000
209.000000 306.000000
223.000000 295.000000
238.000000 281.000000
249.000000 262.000000
260.000000 237.000000
264.000000 215.000000
267.000000 189.000000
271.000000 164.000000
92.000000 131.000000
106.000000 120.000000
121.000000 112.000000
136.000000 112.000000
147.000000 116.000000
201.000000 116.000000
216.000000 116.000000
227.000000 116.000000
245.000000 120.000000
256.000000 131.000000
172.000000 149.000000
172.000000 167.000000
172.000000 182.000000
172.000000 196.000000
158.000000 211.000000
165.000000 211.000000
172.000000 211.000000
183.000000 211.000000
191.000000 211.000000
114.000000 153.000000
125.000000 149.000000
136.000000 149.000000
147.000000 153.000000
136.000000 156.000000
125.000000 156.000000
201.000000 153.000000
212.000000 149.000000
227.000000 149.000000
234.000000 153.000000
223.000000 156.000000
212.000000 156.000000
147.000000 255.000000
154.000000 237.000000
169.000000 229.000000
176.000000 229.000000
183.000000 229.000000
198.000000 240.000000
205.000000 255.000000
198.000000 266.000000
187.000000 273.000000
176.000000 273.000000
165.000000 273.000000
154.000000 266.000000
147.000000 251.000000
169.000000 240.000000
176.000000 240.000000
183.000000 240.000000
201.000000 251.000000
187.000000 259.000000
176.000000 259.000000
165.000000 259.000000
}
