version: 1
n_points: 68
{
74.000000 166.000000
77.000000 192.000000
81.000000 217.000000
88.000000 239.000000
99.000000 265.000000
114.000000 283.000000
129.000000 294.000000
147.000000 305.000000
176.000000 312.000000
209.000000 305.000000
224.000000 294.000000
238.000000 283.000000
249.000000 265.000000
260.000000 239.000000
264.000000 213.000000
271.000000 192.000000
271.000000 162.000000
92.000000 133.000000
107.000000 118.000000
121.000000 115.000000
136.000000 115.000000
147.000000 115.000000
202.000000 118.000000
216.000000 115.000000
227.000000 115.000000
246.000000 122.000000
257.000000 133.000000
176.000000 151.000000
173.000000 166.000000
173.000000 181.000000
173.000000 195.000000
158.000000 210.000000
165.000000 210.000000
176.000000 213.000000
184.000000 213.000000
191.000000 210.000000
114.000000 151.000000
125.000000 148.000000
136.000000 148.000000
147.000000 151.000000
136.000000 155.000000
125.000000 159.000000
202.000000 151.000000
213.000000 148.000000
227.000000 148.000000
235.000000 151.000000
227.000000 159.000000
213.000000 159.000000
147.000000 254.000000
154.000000 239.000000
169.000000 228.000000
176.000000 232.000000
184.000000 228.000000
198.000000 239.000000
205.000000 254.000000
198.000000 265.000000
187.000000 272.000000
176.000000 276.000000
165.000000 272.000000
154.000000 268.000000
151.000000 254.000000
169.000000 243.000000
176.000000 239.000000
184.000000 243.000000
202.000000 254.000000
187.000000 257.000000
176.000000 261.000000
165.000000 261.000000
}
