version: 1
n_points: 68
{
70.000000 163.000000
73.000000 190.000000
81.000000 213.000000
85.000000 236.000000
96.000000 259.000000
112.000000 278.000000
127.000000 289.000000
146.000000 305.000000
181.000000 316.000000
211.000000 305.000000
227.000000 289.000000
238.000000 274.000000
253.000000 255.000000
261.000000 228.000000
265.000000 205.000000
273.000000 182.000000
273.000000 159.000000
89.000000 124.000000
100.000000 109.000000
116.000000 101.000000
131.000000 101.000000
146.000000 105.000000
200.000000 101.000000
211.000000 101.000000
227.000000 101.000000
242.000000 109.000000
257.000000 121.000000
173.000000 136.000000
173.000000 155.000000
173.000000 167.000000
173.000000 182.000000
158.000000 197.000000
165.000000 197.000000
173.000000 201.000000
184.000000 197.000000
192.000000 197.000000
112.000000 144.000000
123.000000 140.000000
135.000000 136.000000
146.000000 144.000000
135.000000 147.000000
123.000000 147.000000
200.000000 140.000000
211.000000 136.000000
227.000000 136.000000
234.000000 144.000000
227.000000 147.000000
211.000000 144.000000
142.000000 255.000000
150.000000 228.000000
165.000000 216.000000
173.000000 216.000000
181.000000 216.000000
200.000000 228.000000
207.000000 255.000000
200.000000 282.000000
188.000000 297.000000
173.000000 301.000000
161.000000 297.000000
150.000000 282.000000
146.000000 255.000000
165.000000 232.000000
173.000000 228.000000
184.000000 228.000000
207.000000 255.000000
188.000000 282.000000
173.000000 285.000000
161.000000 285.000000
}
