version: 1
n_points: 68
{
70.000000 162.000000
74.000000 189.000000
81.000000 212.000000
85.000000 235.000000
97.000000 262.000000
112.000000 281.000000
127.000000 293.000000
147.000000 304.000000
181.000000 312.000000
212.000000 304.000000
227.000000 289.000000
239.000000 274.000000
254.000000 254.000000
262.000000 231.000000
266.000000 208.000000
273.000000 181.000000
273.000000 158.000000
89.000000 124.000000
101.000000 108.000000
116.000000 101.000000
131.000000 101.000000
147.000000 101.000000
200.000000 101.000000
212.000000 101.000000
227.000000 101.000000
243.000000 108.000000
258.000000 120.000000
174.000000 135.000000
174.000000 154.000000
174.000000 166.000000
170.000000 181.000000
158.000000 201.000000
166.000000 197.000000
174.000000 201.000000
185.000000 197.000000
193.000000 197.000000
112.000000 143.000000
124.000000 135.000000
135.000000 135.000000
147.000000 143.000000
135.000000 147.000000
124.000000 147.000000
200.000000 139.000000
212.000000 135.000000
227.000000 135.000000
235.000000 143.000000
227.000000 147.000000
212.000000 143.000000
147.000000 258.000000
154.000000 231.000000
166.000000 216.000000
174.000000 216.000000
181.000000 216.000000
200.000000 231.000000
208.000000 254.000000
197.000000 285.000000
189.000000 297.000000
174.000000 300.000000
162.000000 297.000000
151.000000 285.000000
147.000000 258.000000
166.000000 231.000000
174.000000 227.000000
185.000000 231.000000
204.000000 258.000000
185.000000 285.000000
174.000000 289.000000
162.000000 285.000000
}
