version: 1
n_points: 68
{
70.000000 162.000000
74.000000 189.000000
81.000000 212.000000
85.000000 235.000000
97.000000 258.000000
112.000000 278.000000
127.000000 285.000000
147.000000 297.000000
177.000000 308.000000
212.000000 304.000000
223.000000 285.000000
239.000000 274.000000
250.000000 255.000000
262.000000 231.000000
265.000000 208.000000
273.000000 185.000000
273.000000 159.000000
89.000000 120.000000
101.000000 109.000000
120.000000 101.000000
131.000000 97.000000
147.000000 101.000000
200.000000 101.000000
212.000000 101.000000
227.000000 101.000000
242.000000 109.000000
258.000000 120.000000
173.000000 136.000000
173.000000 151.000000
173.000000 166.000000
170.000000 178.000000
158.000000 197.000000
166.000000 197.000000
173.000000 197.000000
181.000000 197.000000
189.000000 197.000000
112.000000 139.000000
124.000000 136.000000
135.000000 136.000000
147.000000 139.000000
135.000000 143.000000
124.000000 143.000000
200.000000 139.000000
212.000000 136.000000
223.000000 136.000000
235.000000 139.000000
223.000000 143.000000
212.000000 143.000000
147.000000 258.000000
154.000000 228.000000
166.000000 216.000000
173.000000 216.000000
181.000000 216.000000
196.000000 231.000000
204.000000 258.000000
196.000000 285.000000
185.000000 301.000000
173.000000 301.000000
158.000000 297.000000
150.000000 285.000000
147.000000 258.000000
166.000000 228.000000
173.000000 228.000000
185.000000 231.000000
200.000000 258.000000
185.000000 285.000000
173.000000 289.000000
162.000000 289.000000
}
