version: 1
n_points: 68
{
71.000000 162.000000
75.000000 189.000000
83.000000 212.000000
87.000000 235.000000
98.000000 258.000000
113.000000 277.000000
129.000000 292.000000
144.000000 308.000000
178.000000 319.000000
209.000000 308.000000
224.000000 288.000000
240.000000 273.000000
251.000000 254.000000
263.000000 231.000000
266.000000 208.000000
274.000000 185.000000
274.000000 158.000000
91.000000 120.000000
102.000000 109.000000
117.000000 101.000000
133.000000 101.000000
148.000000 101.000000
201.000000 101.000000
213.000000 101.000000
228.000000 101.000000
243.000000 109.000000
259.000000 120.000000
175.000000 136.000000
175.000000 151.000000
171.000000 166.000000
171.000000 178.000000
159.000000 197.000000
163.000000 197.000000
175.000000 197.000000
182.000000 197.000000
190.000000 197.000000
110.000000 143.000000
121.000000 136.000000
133.000000 136.000000
148.000000 143.000000
136.000000 143.000000
121.000000 147.000000
201.000000 139.000000
213.000000 136.000000
224.000000 136.000000
236.000000 143.000000
224.000000 147.000000
213.000000 143.000000
148.000000 258.000000
152.000000 231.000000
167.000000 216.000000
175.000000 216.000000
182.000000 216.000000
198.000000 231.000000
205.000000 258.000000
198.000000 285.000000
186.000000 300.000000
171.000000 304.000000
159.000000 300.000000
152.000000 285.000000
148.000000 258.000000
167.000000 231.000000
175.000000 227.000000
186.000000 231.000000
201.000000 258.000000
186.000000 288.000000
175.000000 292.000000
163.000000 288.000000
}
