version: 1
n_points: 68
{
71.000000 163.000000
74.000000 190.000000
82.000000 213.000000
86.000000 236.000000
97.000000 259.000000
113.000000 282.000000
128.000000 293.000000
143.000000 312.000000
178.000000 320.000000
209.000000 309.000000
224.000000 293.000000
239.000000 278.000000
251.000000 259.000000
263.000000 232.000000
266.000000 209.000000
274.000000 186.000000
274.000000 159.000000
90.000000 120.000000
101.000000 109.000000
117.000000 101.000000
132.000000 101.000000
147.000000 101.000000
201.000000 101.000000
213.000000 101.000000
228.000000 101.000000
243.000000 109.000000
259.000000 120.000000
174.000000 136.000000
174.000000 151.000000
174.000000 167.000000
170.000000 178.000000
159.000000 197.000000
167.000000 197.000000
174.000000 197.000000
186.000000 197.000000
193.000000 197.000000
113.000000 144.000000
124.000000 136.000000
136.000000 136.000000
147.000000 144.000000
136.000000 144.000000
124.000000 147.000000
201.000000 140.000000
213.000000 136.000000
224.000000 136.000000
236.000000 144.000000
224.000000 147.000000
213.000000 144.000000
143.000000 259.000000
151.000000 232.000000
167.000000 216.000000
174.000000 216.000000
182.000000 216.000000
197.000000 228.000000
209.000000 259.000000
197.000000 286.000000
190.000000 297.000000
174.000000 301.000000
159.000000 297.000000
151.000000 286.000000
147.000000 259.000000
167.000000 232.000000
174.000000 228.000000
186.000000 232.000000
205.000000 259.000000
186.000000 286.000000
174.000000 289.000000
163.000000 286.000000
}
