version: 1
n_points: 68
{
72.000000 161.000000
75.000000 188.000000
79.000000 211.000000
87.000000 237.000000
98.000000 260.000000
114.000000 279.000000
129.000000 291.000000
144.000000 306.000000
178.000000 321.000000
209.000000 310.000000
224.000000 291.000000
239.000000 275.000000
251.000000 256.000000
262.000000 230.000000
266.000000 207.000000
273.000000 184.000000
273.000000 157.000000
91.000000 119.000000
102.000000 108.000000
117.000000 100.000000
133.000000 100.000000
148.000000 100.000000
201.000000 100.000000
213.000000 100.000000
228.000000 100.000000
243.000000 108.000000
258.000000 119.000000
174.000000 135.000000
174.000000 154.000000
174.000000 165.000000
171.000000 180.000000
159.000000 199.000000
163.000000 199.000000
174.000000 199.000000
182.000000 195.000000
190.000000 195.000000
110.000000 142.000000
121.000000 135.000000
133.000000 135.000000
148.000000 142.000000
136.000000 146.000000
121.000000 146.000000
201.000000 142.000000
213.000000 135.000000
224.000000 135.000000
235.000000 142.000000
228.000000 146.000000
213.000000 146.000000
144.000000 256.000000
152.000000 230.000000
167.000000 215.000000
174.000000 215.000000
182.000000 215.000000
197.000000 230.000000
205.000000 256.000000
197.000000 283.000000
186.000000 298.000000
174.000000 302.000000
159.000000 298.000000
152.000000 283.000000
148.000000 256.000000
167.000000 230.000000
174.000000 226.000000
186.000000 230.000000
205.000000 256.000000
186.000000 287.000000
174.000000 291.000000
163.000000 287.000000
}
