version: 1
n_points: 68
{
69.000000 159.000000
73.000000 184.000000
76.000000 206.000000
84.000000 232.000000
91.000000 254.000000
106.000000 276.000000
124.000000 287.000000
143.000000 299.000000
176.000000 310.000000
205.000000 299.000000
227.000000 287.000000
242.000000 273.000000
253.000000 251.000000
264.000000 225.000000
268.000000 203.000000
272.000000 181.000000
272.000000 151.000000
91.000000 125.000000
102.000000 114.000000
117.000000 107.000000
132.000000 107.000000
146.000000 111.000000
198.000000 111.000000
213.000000 107.000000
224.000000 107.000000
242.000000 114.000000
253.000000 122.000000
172.000000 140.000000
172.000000 159.000000
168.000000 173.000000
168.000000 184.000000
154.000000 195.000000
161.000000 199.000000
172.000000 199.000000
183.000000 199.000000
191.000000 199.000000
110.000000 144.000000
121.000000 140.000000
132.000000 140.000000
146.000000 144.000000
135.000000 148.000000
121.000000 148.000000
198.000000 144.000000
209.000000 140.000000
224.000000 140.000000
231.000000 144.000000
224.000000 148.000000
209.000000 148.000000
128.000000 232.000000
143.000000 221.000000
161.000000 214.000000
172.000000 218.000000
183.000000 214.000000
205.000000 221.000000
220.000000 236.000000
205.000000 254.000000
191.000000 265.000000
176.000000 269.000000
157.000000 265.000000
146.000000 258.000000
132.000000 232.000000
157.000000 225.000000
172.000000 225.000000
187.000000 225.000000
216.000000 236.000000
187.000000 254.000000
176.000000 254.000000
161.000000 254.000000
}
