version: 1
n_points: 68
{
68.000000 157.000000
72.000000 183.000000
75.000000 209.000000
83.000000 231.000000
90.000000 256.000000
105.000000 275.000000
123.000000 286.000000
142.000000 293.000000
175.000000 304.000000
208.000000 293.000000
226.000000 282.000000
241.000000 271.000000
255.000000 249.000000
263.000000 223.000000
270.000000 201.000000
274.000000 179.000000
274.000000 150.000000
90.000000 124.000000
101.000000 113.000000
116.000000 110.000000
130.000000 110.000000
142.000000 110.000000
197.000000 110.000000
211.000000 110.000000
222.000000 110.000000
241.000000 113.000000
252.000000 124.000000
171.000000 143.000000
171.000000 157.000000
167.000000 172.000000
167.000000 187.000000
153.000000 198.000000
160.000000 201.000000
171.000000 201.000000
182.000000 201.000000
189.000000 198.000000
108.000000 146.000000
119.000000 143.000000
130.000000 139.000000
145.000000 146.000000
134.000000 150.000000
119.000000 150.000000
197.000000 143.000000
208.000000 139.000000
222.000000 139.000000
233.000000 143.000000
222.000000 146.000000
208.000000 146.000000
127.000000 231.000000
138.000000 220.000000
160.000000 216.000000
171.000000 216.000000
182.000000 216.000000
204.000000 220.000000
222.000000 231.000000
204.000000 249.000000
189.000000 256.000000
175.000000 260.000000
160.000000 260.000000
145.000000 253.000000
130.000000 231.000000
156.000000 223.000000
171.000000 223.000000
186.000000 227.000000
219.000000 231.000000
189.000000 245.000000
175.000000 249.000000
160.000000 249.000000
}
