version: 1
n_points: 68
{
70.000000 161.000000
74.000000 184.000000
78.000000 211.000000
85.000000 233.000000
93.000000 260.000000
108.000000 279.000000
127.000000 290.000000
150.000000 309.000000
180.000000 317.000000
210.000000 305.000000
226.000000 290.000000
241.000000 275.000000
252.000000 252.000000
263.000000 230.000000
267.000000 203.000000
271.000000 180.000000
271.000000 154.000000
89.000000 123.000000
100.000000 112.000000
116.000000 104.000000
131.000000 104.000000
146.000000 108.000000
199.000000 108.000000
210.000000 104.000000
226.000000 104.000000
241.000000 112.000000
256.000000 123.000000
172.000000 139.000000
172.000000 157.000000
172.000000 169.000000
172.000000 184.000000
157.000000 195.000000
161.000000 199.000000
172.000000 199.000000
184.000000 199.000000
191.000000 199.000000
112.000000 146.000000
123.000000 139.000000
135.000000 139.000000
146.000000 146.000000
135.000000 146.000000
123.000000 150.000000
199.000000 142.000000
210.000000 139.000000
226.000000 139.000000
233.000000 142.000000
222.000000 146.000000
210.000000 146.000000
135.000000 241.000000
146.000000 226.000000
165.000000 214.000000
172.000000 218.000000
184.000000 214.000000
203.000000 226.000000
218.000000 241.000000
207.000000 267.000000
191.000000 279.000000
180.000000 283.000000
161.000000 279.000000
150.000000 267.000000
138.000000 245.000000
161.000000 226.000000
176.000000 226.000000
188.000000 226.000000
214.000000 241.000000
191.000000 267.000000
176.000000 271.000000
165.000000 267.000000
}
