version: 1
n_points: 68
{
66.000000 163.000000
74.000000 191.000000
81.000000 213.000000
84.000000 238.000000
95.000000 259.000000
109.000000 277.000000
124.000000 284.000000
142.000000 291.000000
174.000000 298.000000
206.000000 295.000000
224.000000 284.000000
238.000000 273.000000
252.000000 255.000000
260.000000 230.000000
263.000000 209.000000
267.000000 184.000000
270.000000 159.000000
91.000000 127.000000
102.000000 116.000000
116.000000 109.000000
131.000000 109.000000
145.000000 112.000000
199.000000 112.000000
209.000000 109.000000
224.000000 109.000000
242.000000 116.000000
252.000000 127.000000
170.000000 141.000000
170.000000 159.000000
170.000000 173.000000
167.000000 184.000000
156.000000 202.000000
163.000000 202.000000
170.000000 202.000000
181.000000 202.000000
188.000000 202.000000
113.000000 148.000000
124.000000 148.000000
134.000000 145.000000
145.000000 148.000000
134.000000 152.000000
124.000000 152.000000
199.000000 148.000000
209.000000 145.000000
220.000000 148.000000
231.000000 148.000000
220.000000 152.000000
209.000000 152.000000
142.000000 241.000000
149.000000 227.000000
163.000000 220.000000
170.000000 220.000000
181.000000 220.000000
195.000000 227.000000
206.000000 241.000000
195.000000 248.000000
184.000000 255.000000
174.000000 259.000000
159.000000 259.000000
152.000000 252.000000
142.000000 241.000000
163.000000 230.000000
174.000000 230.000000
181.000000 230.000000
206.000000 241.000000
184.000000 245.000000
174.000000 245.000000
163.000000 245.000000
}
