version: 1
n_points: 68
{
66.000000 164.000000
70.000000 189.000000
77.000000 210.000000
84.000000 236.000000
95.000000 257.000000
109.000000 275.000000
124.000000 286.000000
142.000000 293.000000
174.000000 300.000000
203.000000 293.000000
224.000000 282.000000
239.000000 271.000000
253.000000 253.000000
260.000000 228.000000
264.000000 207.000000
267.000000 182.000000
271.000000 157.000000
88.000000 128.000000
99.000000 117.000000
117.000000 110.000000
131.000000 110.000000
142.000000 110.000000
195.000000 110.000000
210.000000 110.000000
224.000000 110.000000
239.000000 114.000000
253.000000 124.000000
170.000000 142.000000
170.000000 160.000000
167.000000 171.000000
167.000000 185.000000
152.000000 200.000000
160.000000 200.000000
170.000000 203.000000
181.000000 200.000000
188.000000 200.000000
109.000000 146.000000
120.000000 142.000000
131.000000 142.000000
142.000000 146.000000
131.000000 149.000000
120.000000 149.000000
199.000000 146.000000
210.000000 139.000000
221.000000 139.000000
231.000000 146.000000
221.000000 149.000000
210.000000 149.000000
138.000000 239.000000
145.000000 225.000000
163.000000 218.000000
170.000000 218.000000
181.000000 218.000000
199.000000 225.000000
210.000000 239.000000
199.000000 250.000000
185.000000 257.000000
174.000000 257.000000
160.000000 257.000000
149.000000 250.000000
138.000000 239.000000
160.000000 228.000000
170.000000 228.000000
185.000000 228.000000
210.000000 236.000000
185.000000 243.000000
174.000000 246.000000
160.000000 246.000000
}
