version: 1
n_points: 68
{
67.000000 164.000000
74.000000 189.000000
77.000000 214.000000
85.000000 238.000000
95.000000 260.000000
109.000000 278.000000
124.000000 288.000000
142.000000 295.000000
174.000000 303.000000
206.000000 295.000000
223.000000 285.000000
238.000000 274.000000
248.000000 256.000000
259.000000 231.000000
263.000000 206.000000
266.000000 185.000000
270.000000 157.000000
88.000000 128.000000
99.000000 117.000000
117.000000 110.000000
131.000000 110.000000
142.000000 110.000000
198.000000 110.000000
209.000000 110.000000
223.000000 110.000000
241.000000 114.000000
252.000000 125.000000
170.000000 142.000000
170.000000 160.000000
170.000000 174.000000
166.000000 185.000000
156.000000 199.000000
163.000000 203.000000
170.000000 203.000000
181.000000 203.000000
188.000000 199.000000
109.000000 149.000000
120.000000 142.000000
131.000000 142.000000
145.000000 146.000000
134.000000 149.000000
120.000000 153.000000
198.000000 146.000000
209.000000 142.000000
223.000000 142.000000
231.000000 146.000000
220.000000 149.000000
209.000000 149.000000
138.000000 242.000000
149.000000 228.000000
163.000000 221.000000
170.000000 221.000000
181.000000 217.000000
195.000000 228.000000
209.000000 242.000000
195.000000 249.000000
184.000000 256.000000
174.000000 256.000000
159.000000 256.000000
152.000000 253.000000
142.000000 242.000000
163.000000 231.000000
174.000000 231.000000
184.000000 231.000000
206.000000 238.000000
184.000000 242.000000
174.000000 246.000000
163.000000 246.000000
}
