version: 1
n_points: 68
{
70.000000 163.000000
73.000000 192.000000
80.000000 213.000000
88.000000 238.000000
95.000000 260.000000
113.000000 278.000000
127.000000 285.000000
141.000000 292.000000
174.000000 299.000000
206.000000 292.000000
221.000000 285.000000
235.000000 274.000000
249.000000 256.000000
256.000000 231.000000
264.000000 210.000000
267.000000 184.000000
271.000000 159.000000
88.000000 130.000000
98.000000 116.000000
116.000000 109.000000
131.000000 109.000000
141.000000 112.000000
199.000000 109.000000
210.000000 109.000000
224.000000 109.000000
239.000000 112.000000
253.000000 127.000000
170.000000 141.000000
170.000000 159.000000
170.000000 174.000000
167.000000 188.000000
156.000000 202.000000
163.000000 202.000000
170.000000 206.000000
181.000000 202.000000
188.000000 202.000000
109.000000 148.000000
120.000000 145.000000
131.000000 145.000000
145.000000 148.000000
134.000000 152.000000
120.000000 152.000000
199.000000 148.000000
210.000000 141.000000
221.000000 141.000000
231.000000 148.000000
221.000000 152.000000
210.000000 152.000000
138.000000 242.000000
149.000000 231.000000
163.000000 224.000000
170.000000 224.000000
177.000000 220.000000
195.000000 231.000000
210.000000 242.000000
195.000000 249.000000
185.000000 253.000000
174.000000 256.000000
159.000000 256.000000
152.000000 253.000000
141.000000 242.000000
163.000000 235.000000
170.000000 235.000000
181.000000 235.000000
206.000000 242.000000
181.000000 242.000000
174.000000 242.000000
163.000000 242.000000
}
