version: 1
n_points: 68
{
69.000000 164.000000
73.000000 192.000000
80.000000 214.000000
87.000000 239.000000
98.000000 260.000000
112.000000 278.000000
127.000000 285.000000
144.000000 292.000000
173.000000 300.000000
205.000000 292.000000
223.000000 285.000000
237.000000 275.000000
252.000000 257.000000
259.000000 232.000000
262.000000 210.000000
266.000000 185.000000
269.000000 160.000000
91.000000 128.000000
102.000000 117.000000
116.000000 110.000000
130.000000 110.000000
144.000000 110.000000
198.000000 110.000000
212.000000 110.000000
223.000000 110.000000
241.000000 114.000000
252.000000 128.000000
169.000000 142.000000
169.000000 160.000000
169.000000 175.000000
169.000000 189.000000
155.000000 203.000000
162.000000 203.000000
169.000000 207.000000
180.000000 203.000000
191.000000 203.000000
109.000000 150.000000
119.000000 146.000000
130.000000 142.000000
144.000000 150.000000
134.000000 153.000000
119.000000 153.000000
198.000000 146.000000
209.000000 142.000000
223.000000 142.000000
234.000000 146.000000
223.000000 153.000000
209.000000 153.000000
141.000000 242.000000
148.000000 232.000000
166.000000 225.000000
173.000000 225.000000
180.000000 225.000000
194.000000 232.000000
209.000000 242.000000
194.000000 250.000000
184.000000 253.000000
173.000000 253.000000
162.000000 257.000000
152.000000 250.000000
141.000000 242.000000
162.000000 235.000000
173.000000 235.000000
184.000000 235.000000
205.000000 242.000000
184.000000 239.000000
173.000000 242.000000
162.000000 242.000000
}
