version: 1
n_points: 68
{
71.000000 165.000000
75.000000 190.000000
82.000000 216.000000
86.000000 237.000000
97.000000 263.000000
111.000000 277.000000
126.000000 288.000000
144.000000 296.000000
173.000000 303.000000
206.000000 296.000000
224.000000 285.000000
235.000000 277.000000
249.000000 256.000000
257.000000 234.000000
260.000000 208.000000
267.000000 183.000000
267.000000 157.000000
86.000000 125.000000
97.000000 110.000000
111.000000 103.000000
126.000000 99.000000
140.000000 103.000000
198.000000 99.000000
209.000000 99.000000
224.000000 99.000000
242.000000 106.000000
253.000000 121.000000
169.000000 143.000000
169.000000 161.000000
169.000000 176.000000
169.000000 190.000000
155.000000 205.000000
162.000000 205.000000
169.000000 208.000000
180.000000 205.000000
187.000000 205.000000
107.000000 150.000000
118.000000 143.000000
129.000000 143.000000
144.000000 146.000000
133.000000 150.000000
118.000000 154.000000
198.000000 146.000000
209.000000 139.000000
220.000000 139.000000
231.000000 146.000000
220.000000 150.000000
209.000000 150.000000
140.000000 245.000000
147.000000 234.000000
162.000000 223.000000
169.000000 226.000000
180.000000 223.000000
195.000000 230.000000
206.000000 245.000000
195.000000 252.000000
184.000000 256.000000
173.000000 259.000000
162.000000 259.000000
151.000000 256.000000
144.000000 245.000000
162.000000 237.000000
173.000000 237.000000
180.000000 237.000000
206.000000 245.000000
184.000000 245.000000
173.000000 245.000000
162.000000 245.000000
}
