version: 1
n_points: 68
{
70.000000 164.000000
73.000000 189.000000
80.000000 214.000000
88.000000 239.000000
95.000000 260.000000
112.000000 278.000000
127.000000 288.000000
144.000000 295.000000
173.000000 303.000000
205.000000 295.000000
223.000000 285.000000
237.000000 274.000000
248.000000 256.000000
258.000000 231.000000
262.000000 207.000000
265.000000 182.000000
269.000000 157.000000
88.000000 121.000000
98.000000 103.000000
112.000000 96.000000
127.000000 93.000000
141.000000 96.000000
198.000000 96.000000
212.000000 93.000000
226.000000 96.000000
240.000000 103.000000
251.000000 118.000000
169.000000 143.000000
169.000000 160.000000
169.000000 175.000000
169.000000 189.000000
155.000000 203.000000
162.000000 203.000000
169.000000 207.000000
180.000000 203.000000
187.000000 203.000000
109.000000 146.000000
120.000000 143.000000
130.000000 143.000000
141.000000 146.000000
130.000000 153.000000
120.000000 153.000000
198.000000 146.000000
208.000000 143.000000
223.000000 139.000000
233.000000 146.000000
223.000000 150.000000
208.000000 150.000000
141.000000 246.000000
148.000000 231.000000
162.000000 224.000000
173.000000 224.000000
180.000000 224.000000
194.000000 231.000000
208.000000 242.000000
194.000000 249.000000
184.000000 256.000000
173.000000 260.000000
162.000000 260.000000
152.000000 253.000000
141.000000 246.000000
162.000000 235.000000
173.000000 235.000000
184.000000 235.000000
205.000000 242.000000
184.000000 242.000000
173.000000 246.000000
162.000000 246.000000
}
