version: 1
n_points: 68
{
70.000000 164.000000
73.000000 189.000000
80.000000 214.000000
84.000000 235.000000
95.000000 261.000000
113.000000 278.000000
127.000000 286.000000
145.000000 293.000000
173.000000 303.000000
202.000000 296.000000
224.000000 286.000000
234.000000 275.000000
249.000000 253.000000
256.000000 232.000000
263.000000 207.000000
267.000000 182.000000
267.000000 157.000000
88.000000 121.000000
98.000000 103.000000
113.000000 96.000000
127.000000 92.000000
141.000000 96.000000
199.000000 92.000000
209.000000 92.000000
224.000000 92.000000
241.000000 103.000000
252.000000 117.000000
170.000000 142.000000
170.000000 160.000000
166.000000 175.000000
166.000000 189.000000
156.000000 203.000000
163.000000 203.000000
170.000000 207.000000
181.000000 203.000000
188.000000 203.000000
109.000000 146.000000
116.000000 142.000000
131.000000 142.000000
141.000000 146.000000
131.000000 153.000000
120.000000 153.000000
199.000000 146.000000
209.000000 139.000000
220.000000 139.000000
231.000000 146.000000
220.000000 150.000000
209.000000 150.000000
141.000000 243.000000
148.000000 232.000000
163.000000 225.000000
170.000000 225.000000
177.000000 221.000000
195.000000 232.000000
206.000000 243.000000
195.000000 250.000000
184.000000 257.000000
173.000000 257.000000
159.000000 257.000000
152.000000 253.000000
141.000000 243.000000
163.000000 235.000000
173.000000 235.000000
181.000000 235.000000
206.000000 243.000000
181.000000 243.000000
173.000000 243.000000
163.000000 243.000000
}
