version: 1
n_points: 68
{
70.000000 164.000000
74.000000 189.000000
77.000000 214.000000
84.000000 235.000000
95.000000 260.000000
109.000000 278.000000
124.000000 285.000000
141.000000 292.000000
173.000000 303.000000
202.000000 296.000000
223.000000 285.000000
234.000000 274.000000
248.000000 257.000000
259.000000 232.000000
262.000000 207.000000
266.000000 182.000000
269.000000 157.000000
88.000000 121.000000
99.000000 104.000000
113.000000 97.000000
127.000000 93.000000
141.000000 97.000000
198.000000 93.000000
212.000000 93.000000
227.000000 93.000000
241.000000 104.000000
252.000000 118.000000
170.000000 143.000000
170.000000 161.000000
166.000000 175.000000
166.000000 189.000000
156.000000 203.000000
163.000000 203.000000
170.000000 207.000000
180.000000 203.000000
188.000000 203.000000
109.000000 146.000000
116.000000 143.000000
131.000000 143.000000
141.000000 146.000000
131.000000 153.000000
116.000000 153.000000
198.000000 146.000000
209.000000 139.000000
223.000000 139.000000
234.000000 146.000000
223.000000 150.000000
209.000000 150.000000
138.000000 242.000000
148.000000 232.000000
163.000000 225.000000
170.000000 225.000000
180.000000 225.000000
195.000000 232.000000
209.000000 242.000000
195.000000 250.000000
184.000000 257.000000
173.000000 257.000000
159.000000 257.000000
152.000000 253.000000
141.000000 242.000000
163.000000 235.000000
173.000000 235.000000
180.000000 235.000000
205.000000 242.000000
180.000000 242.000000
173.000000 242.000000
163.000000 242.000000
}
