version: 1
n_points: 68
{
70.000000 165.000000
74.000000 194.000000
81.000000 216.000000
85.000000 238.000000
96.000000 263.000000
110.000000 281.000000
129.000000 288.000000
143.000000 296.000000
176.000000 303.000000
205.000000 296.000000
223.000000 288.000000
234.000000 278.000000
249.000000 256.000000
256.000000 234.000000
259.000000 208.000000
267.000000 183.000000
267.000000 158.000000
89.000000 128.000000
99.000000 114.000000
114.000000 110.000000
129.000000 107.000000
143.000000 110.000000
198.000000 107.000000
209.000000 107.000000
223.000000 107.000000
241.000000 110.000000
252.000000 125.000000
169.000000 143.000000
169.000000 161.000000
169.000000 176.000000
169.000000 190.000000
154.000000 205.000000
161.000000 205.000000
169.000000 208.000000
179.000000 205.000000
187.000000 205.000000
107.000000 150.000000
118.000000 143.000000
129.000000 143.000000
143.000000 150.000000
132.000000 154.000000
118.000000 154.000000
198.000000 147.000000
209.000000 143.000000
223.000000 143.000000
230.000000 147.000000
223.000000 154.000000
209.000000 154.000000
139.000000 248.000000
150.000000 234.000000
165.000000 227.000000
172.000000 227.000000
179.000000 223.000000
194.000000 234.000000
209.000000 245.000000
194.000000 256.000000
183.000000 263.000000
172.000000 263.000000
161.000000 263.000000
150.000000 256.000000
143.000000 248.000000
161.000000 238.000000
172.000000 238.000000
183.000000 238.000000
205.000000 245.000000
183.000000 248.000000
172.000000 248.000000
161.000000 248.000000
}
