version: 1
n_points: 68
{
70.000000 164.000000
73.000000 189.000000
80.000000 214.000000
84.000000 235.000000
95.000000 260.000000
109.000000 278.000000
123.000000 285.000000
141.000000 292.000000
173.000000 303.000000
201.000000 295.000000
223.000000 285.000000
233.000000 274.000000
248.000000 256.000000
258.000000 231.000000
262.000000 206.000000
266.000000 181.000000
269.000000 157.000000
88.000000 121.000000
98.000000 103.000000
112.000000 96.000000
127.000000 92.000000
141.000000 96.000000
198.000000 96.000000
209.000000 92.000000
223.000000 96.000000
241.000000 103.000000
251.000000 117.000000
169.000000 142.000000
169.000000 160.000000
166.000000 174.000000
166.000000 189.000000
155.000000 203.000000
162.000000 206.000000
169.000000 206.000000
180.000000 206.000000
187.000000 203.000000
109.000000 149.000000
116.000000 142.000000
130.000000 142.000000
141.000000 146.000000
130.000000 153.000000
116.000000 153.000000
198.000000 146.000000
209.000000 139.000000
219.000000 139.000000
230.000000 146.000000
219.000000 149.000000
209.000000 149.000000
137.000000 246.000000
148.000000 231.000000
162.000000 224.000000
169.000000 224.000000
180.000000 224.000000
194.000000 231.000000
209.000000 242.000000
194.000000 249.000000
184.000000 253.000000
173.000000 256.000000
159.000000 256.000000
152.000000 253.000000
141.000000 242.000000
162.000000 235.000000
169.000000 235.000000
180.000000 235.000000
205.000000 242.000000
180.000000 242.000000
173.000000 242.000000
162.000000 242.000000
}
