version: 1
n_points: 68
{
68.000000 165.000000
72.000000 191.000000
76.000000 213.000000
83.000000 239.000000
94.000000 262.000000
109.000000 280.000000
124.000000 288.000000
143.000000 295.000000
172.000000 299.000000
202.000000 295.000000
217.000000 288.000000
232.000000 277.000000
247.000000 258.000000
258.000000 232.000000
262.000000 206.000000
269.000000 184.000000
273.000000 154.000000
87.000000 128.000000
98.000000 117.000000
113.000000 113.000000
128.000000 113.000000
143.000000 113.000000
195.000000 113.000000
210.000000 113.000000
221.000000 113.000000
239.000000 117.000000
251.000000 128.000000
169.000000 146.000000
169.000000 165.000000
165.000000 180.000000
165.000000 195.000000
154.000000 210.000000
161.000000 213.000000
169.000000 213.000000
176.000000 213.000000
184.000000 210.000000
109.000000 150.000000
117.000000 143.000000
128.000000 143.000000
143.000000 150.000000
132.000000 154.000000
117.000000 154.000000
195.000000 146.000000
206.000000 143.000000
221.000000 143.000000
232.000000 146.000000
221.000000 154.000000
206.000000 150.000000
135.000000 247.000000
146.000000 243.000000
161.000000 239.000000
169.000000 243.000000
176.000000 239.000000
195.000000 243.000000
210.000000 247.000000
195.000000 251.000000
184.000000 254.000000
169.000000 254.000000
158.000000 254.000000
150.000000 251.000000
139.000000 247.000000
161.000000 247.000000
169.000000 247.000000
180.000000 247.000000
206.000000 243.000000
180.000000 243.000000
169.000000 243.000000
161.000000 243.000000
}
