version: 1
n_points: 68
{
68.000000 163.000000
72.000000 189.000000
79.000000 215.000000
83.000000 237.000000
94.000000 263.000000
109.000000 282.000000
128.000000 290.000000
142.000000 297.000000
172.000000 305.000000
202.000000 297.000000
221.000000 290.000000
236.000000 278.000000
247.000000 256.000000
258.000000 230.000000
262.000000 208.000000
265.000000 181.000000
269.000000 155.000000
87.000000 129.000000
98.000000 118.000000
113.000000 114.000000
128.000000 111.000000
142.000000 114.000000
195.000000 114.000000
210.000000 111.000000
224.000000 111.000000
239.000000 118.000000
251.000000 126.000000
169.000000 148.000000
169.000000 163.000000
169.000000 181.000000
169.000000 193.000000
154.000000 211.000000
161.000000 211.000000
169.000000 215.000000
180.000000 211.000000
187.000000 211.000000
109.000000 148.000000
116.000000 144.000000
131.000000 144.000000
142.000000 148.000000
131.000000 152.000000
120.000000 152.000000
195.000000 148.000000
210.000000 140.000000
221.000000 140.000000
232.000000 148.000000
221.000000 152.000000
206.000000 152.000000
139.000000 249.000000
150.000000 245.000000
165.000000 241.000000
172.000000 245.000000
180.000000 241.000000
195.000000 245.000000
210.000000 245.000000
195.000000 252.000000
183.000000 256.000000
172.000000 256.000000
161.000000 256.000000
150.000000 252.000000
139.000000 249.000000
161.000000 249.000000
172.000000 249.000000
183.000000 249.000000
206.000000 245.000000
180.000000 245.000000
172.000000 245.000000
161.000000 245.000000
}
