version: 1
n_points: 68
{
65.000000 163.000000
69.000000 189.000000
76.000000 211.000000
83.000000 233.000000
94.000000 255.000000
109.000000 270.000000
124.000000 277.000000
146.000000 284.000000
179.000000 288.000000
205.000000 281.000000
220.000000 270.000000
234.000000 262.000000
249.000000 247.000000
260.000000 225.000000
268.000000 203.000000
271.000000 181.000000
275.000000 155.000000
87.000000 130.000000
98.000000 115.000000
113.000000 111.000000
127.000000 111.000000
142.000000 115.000000
194.000000 115.000000
209.000000 111.000000
223.000000 111.000000
238.000000 115.000000
253.000000 126.000000
168.000000 144.000000
168.000000 163.000000
168.000000 181.000000
168.000000 192.000000
153.000000 211.000000
161.000000 211.000000
168.000000 214.000000
179.000000 211.000000
186.000000 211.000000
109.000000 148.000000
116.000000 144.000000
131.000000 141.000000
142.000000 148.000000
131.000000 152.000000
116.000000 152.000000
198.000000 144.000000
209.000000 141.000000
220.000000 141.000000
231.000000 144.000000
220.000000 152.000000
209.000000 152.000000
135.000000 244.000000
150.000000 240.000000
164.000000 240.000000
172.000000 240.000000
179.000000 236.000000
194.000000 240.000000
209.000000 240.000000
194.000000 247.000000
183.000000 251.000000
172.000000 251.000000
161.000000 251.000000
150.000000 247.000000
139.000000 244.000000
161.000000 244.000000
172.000000 244.000000
183.000000 244.000000
209.000000 240.000000
183.000000 240.000000
172.000000 240.000000
161.000000 240.000000
}
