version: 1
n_points: 68
{
63.000000 161.000000
71.000000 186.000000
74.000000 211.000000
81.000000 233.000000
92.000000 255.000000
107.000000 269.000000
125.000000 276.000000
146.000000 287.000000
179.000000 287.000000
204.000000 280.000000
219.000000 269.000000
237.000000 262.000000
251.000000 244.000000
262.000000 226.000000
266.000000 204.000000
273.000000 179.000000
277.000000 153.000000
85.000000 128.000000
96.000000 117.000000
114.000000 114.000000
125.000000 114.000000
139.000000 114.000000
193.000000 114.000000
208.000000 110.000000
222.000000 110.000000
237.000000 117.000000
251.000000 125.000000
168.000000 146.000000
168.000000 164.000000
165.000000 182.000000
165.000000 197.000000
154.000000 208.000000
161.000000 211.000000
168.000000 215.000000
179.000000 211.000000
186.000000 211.000000
107.000000 150.000000
118.000000 143.000000
128.000000 143.000000
143.000000 150.000000
132.000000 153.000000
118.000000 153.000000
197.000000 146.000000
208.000000 143.000000
219.000000 143.000000
230.000000 146.000000
219.000000 150.000000
208.000000 150.000000
136.000000 244.000000
146.000000 240.000000
161.000000 240.000000
168.000000 240.000000
179.000000 240.000000
193.000000 240.000000
208.000000 240.000000
193.000000 247.000000
183.000000 251.000000
172.000000 251.000000
161.000000 251.000000
150.000000 247.000000
136.000000 240.000000
161.000000 244.000000
168.000000 244.000000
183.000000 244.000000
208.000000 240.000000
183.000000 240.000000
172.000000 244.000000
161.000000 240.000000
}
