version: 1
n_points: 68
{
63.000000 160.000000
71.000000 189.000000
74.000000 210.000000
81.000000 232.000000
92.000000 257.000000
107.000000 272.000000
125.000000 279.000000
146.000000 286.000000
179.000000 290.000000
204.000000 282.000000
218.000000 272.000000
236.000000 264.000000
251.000000 246.000000
262.000000 225.000000
265.000000 203.000000
272.000000 178.000000
276.000000 153.000000
85.000000 128.000000
96.000000 117.000000
114.000000 113.000000
128.000000 113.000000
139.000000 113.000000
193.000000 113.000000
208.000000 113.000000
222.000000 113.000000
236.000000 117.000000
251.000000 124.000000
168.000000 146.000000
168.000000 164.000000
164.000000 182.000000
164.000000 196.000000
154.000000 210.000000
161.000000 210.000000
168.000000 214.000000
179.000000 214.000000
186.000000 210.000000
107.000000 149.000000
117.000000 146.000000
128.000000 142.000000
143.000000 149.000000
132.000000 153.000000
117.000000 153.000000
197.000000 146.000000
208.000000 142.000000
218.000000 142.000000
229.000000 146.000000
218.000000 153.000000
208.000000 153.000000
132.000000 243.000000
146.000000 239.000000
164.000000 239.000000
172.000000 239.000000
179.000000 239.000000
193.000000 239.000000
211.000000 239.000000
193.000000 246.000000
182.000000 250.000000
172.000000 250.000000
161.000000 250.000000
146.000000 246.000000
136.000000 243.000000
161.000000 243.000000
172.000000 246.000000
182.000000 243.000000
208.000000 239.000000
182.000000 243.000000
172.000000 243.000000
161.000000 243.000000
}
