version: 1
n_points: 68
{
64.000000 159.000000
67.000000 188.000000
74.000000 210.000000
82.000000 235.000000
92.000000 257.000000
107.000000 275.000000
121.000000 282.000000
143.000000 289.000000
175.000000 293.000000
204.000000 285.000000
222.000000 278.000000
236.000000 267.000000
251.000000 249.000000
261.000000 228.000000
265.000000 206.000000
272.000000 181.000000
276.000000 152.000000
85.000000 131.000000
96.000000 120.000000
114.000000 113.000000
128.000000 113.000000
139.000000 116.000000
197.000000 116.000000
207.000000 113.000000
222.000000 113.000000
236.000000 116.000000
251.000000 127.000000
168.000000 149.000000
168.000000 167.000000
164.000000 181.000000
164.000000 195.000000
154.000000 210.000000
161.000000 213.000000
168.000000 213.000000
179.000000 213.000000
186.000000 210.000000
107.000000 149.000000
118.000000 145.000000
128.000000 141.000000
143.000000 149.000000
132.000000 152.000000
118.000000 152.000000
197.000000 149.000000
207.000000 141.000000
218.000000 141.000000
229.000000 145.000000
218.000000 152.000000
207.000000 152.000000
132.000000 242.000000
146.000000 242.000000
164.000000 239.000000
171.000000 242.000000
179.000000 239.000000
197.000000 239.000000
211.000000 239.000000
197.000000 246.000000
182.000000 249.000000
171.000000 249.000000
157.000000 249.000000
146.000000 246.000000
136.000000 242.000000
157.000000 246.000000
171.000000 246.000000
182.000000 246.000000
207.000000 239.000000
182.000000 242.000000
171.000000 242.000000
161.000000 242.000000
}
