version: 1
n_points: 68
{
62.000000 162.000000
70.000000 187.000000
73.000000 213.000000
80.000000 235.000000
91.000000 257.000000
110.000000 271.000000
124.000000 279.000000
142.000000 286.000000
175.000000 289.000000
201.000000 282.000000
219.000000 275.000000
233.000000 268.000000
248.000000 249.000000
259.000000 228.000000
266.000000 206.000000
270.000000 180.000000
273.000000 155.000000
88.000000 129.000000
99.000000 118.000000
113.000000 111.000000
128.000000 111.000000
139.000000 115.000000
197.000000 115.000000
208.000000 111.000000
223.000000 111.000000
237.000000 115.000000
252.000000 126.000000
168.000000 147.000000
168.000000 166.000000
168.000000 180.000000
168.000000 195.000000
153.000000 209.000000
161.000000 213.000000
168.000000 213.000000
179.000000 213.000000
186.000000 209.000000
106.000000 147.000000
117.000000 144.000000
128.000000 144.000000
142.000000 147.000000
131.000000 151.000000
117.000000 155.000000
197.000000 147.000000
208.000000 140.000000
219.000000 140.000000
230.000000 147.000000
219.000000 151.000000
208.000000 151.000000
131.000000 242.000000
146.000000 238.000000
161.000000 238.000000
168.000000 238.000000
179.000000 238.000000
193.000000 238.000000
208.000000 242.000000
193.000000 246.000000
182.000000 249.000000
172.000000 249.000000
157.000000 249.000000
146.000000 246.000000
135.000000 242.000000
161.000000 246.000000
172.000000 246.000000
182.000000 246.000000
208.000000 238.000000
182.000000 242.000000
172.000000 242.000000
161.000000 242.000000
}
