version: 1
n_points: 68
{
66.000000 163.000000
69.000000 189.000000
77.000000 214.000000
84.000000 236.000000
91.000000 262.000000
106.000000 281.000000
121.000000 292.000000
143.000000 303.000000
172.000000 310.000000
205.000000 303.000000
224.000000 288.000000
238.000000 277.000000
249.000000 255.000000
260.000000 229.000000
264.000000 207.000000
268.000000 181.000000
268.000000 156.000000
88.000000 130.000000
99.000000 119.000000
113.000000 115.000000
128.000000 112.000000
143.000000 115.000000
194.000000 115.000000
205.000000 112.000000
220.000000 112.000000
238.000000 119.000000
249.000000 126.000000
168.000000 145.000000
168.000000 163.000000
165.000000 178.000000
165.000000 192.000000
150.000000 203.000000
157.000000 207.000000
168.000000 207.000000
179.000000 207.000000
187.000000 203.000000
106.000000 148.000000
117.000000 145.000000
128.000000 145.000000
143.000000 148.000000
132.000000 152.000000
117.000000 156.000000
194.000000 148.000000
209.000000 141.000000
220.000000 145.000000
231.000000 148.000000
220.000000 152.000000
205.000000 152.000000
135.000000 244.000000
143.000000 233.000000
161.000000 225.000000
168.000000 225.000000
179.000000 225.000000
198.000000 233.000000
213.000000 240.000000
198.000000 255.000000
183.000000 262.000000
172.000000 262.000000
157.000000 262.000000
146.000000 255.000000
135.000000 244.000000
157.000000 236.000000
172.000000 236.000000
183.000000 236.000000
209.000000 240.000000
183.000000 247.000000
172.000000 251.000000
157.000000 247.000000
}
