version: 1
n_points: 68
{
68.000000 165.000000
71.000000 191.000000
75.000000 217.000000
82.000000 239.000000
94.000000 265.000000
108.000000 284.000000
123.000000 291.000000
142.000000 302.000000
175.000000 310.000000
205.000000 302.000000
224.000000 291.000000
238.000000 276.000000
250.000000 258.000000
257.000000 232.000000
261.000000 206.000000
268.000000 183.000000
268.000000 154.000000
86.000000 131.000000
97.000000 120.000000
112.000000 113.000000
127.000000 113.000000
142.000000 116.000000
194.000000 116.000000
209.000000 113.000000
224.000000 113.000000
238.000000 116.000000
250.000000 128.000000
168.000000 146.000000
168.000000 161.000000
168.000000 176.000000
168.000000 191.000000
153.000000 206.000000
160.000000 206.000000
168.000000 206.000000
179.000000 206.000000
186.000000 206.000000
108.000000 150.000000
120.000000 146.000000
131.000000 146.000000
142.000000 150.000000
131.000000 154.000000
120.000000 154.000000
194.000000 146.000000
209.000000 142.000000
220.000000 142.000000
231.000000 146.000000
220.000000 154.000000
205.000000 150.000000
138.000000 246.000000
146.000000 232.000000
164.000000 224.000000
172.000000 224.000000
179.000000 224.000000
198.000000 232.000000
209.000000 243.000000
198.000000 261.000000
186.000000 269.000000
172.000000 269.000000
160.000000 269.000000
149.000000 261.000000
138.000000 246.000000
160.000000 235.000000
172.000000 235.000000
183.000000 235.000000
209.000000 243.000000
186.000000 254.000000
172.000000 258.000000
160.000000 254.000000
}
