version: 1
n_points: 68
{
67.000000 160.000000
67.000000 186.000000
74.000000 208.000000
78.000000 233.000000
89.000000 259.000000
103.000000 277.000000
118.000000 291.000000
136.000000 299.000000
169.000000 306.000000
198.000000 302.000000
220.000000 291.000000
234.000000 277.000000
249.000000 255.000000
260.000000 229.000000
263.000000 204.000000
267.000000 179.000000
271.000000 153.000000
85.000000 128.000000
96.000000 120.000000
111.000000 113.000000
125.000000 113.000000
140.000000 117.000000
194.000000 117.000000
205.000000 113.000000
220.000000 113.000000
238.000000 117.000000
249.000000 128.000000
169.000000 146.000000
165.000000 164.000000
165.000000 179.000000
165.000000 193.000000
151.000000 204.000000
158.000000 208.000000
165.000000 211.000000
176.000000 208.000000
187.000000 208.000000
107.000000 149.000000
114.000000 146.000000
129.000000 142.000000
140.000000 149.000000
129.000000 153.000000
118.000000 153.000000
194.000000 146.000000
205.000000 142.000000
220.000000 142.000000
231.000000 146.000000
220.000000 153.000000
205.000000 153.000000
125.000000 237.000000
140.000000 233.000000
158.000000 233.000000
169.000000 233.000000
176.000000 233.000000
198.000000 237.000000
212.000000 237.000000
194.000000 248.000000
180.000000 251.000000
169.000000 251.000000
154.000000 251.000000
140.000000 248.000000
129.000000 237.000000
154.000000 240.000000
169.000000 240.000000
180.000000 240.000000
209.000000 237.000000
180.000000 240.000000
169.000000 240.000000
154.000000 240.000000
}
