version: 1
n_points: 68
{
69.000000 163.000000
72.000000 192.000000
76.000000 214.000000
83.000000 239.000000
94.000000 261.000000
109.000000 280.000000
124.000000 291.000000
142.000000 298.000000
175.000000 305.000000
204.000000 298.000000
222.000000 287.000000
237.000000 276.000000
248.000000 258.000000
259.000000 232.000000
263.000000 206.000000
266.000000 181.000000
266.000000 155.000000
87.000000 130.000000
98.000000 119.000000
113.000000 115.000000
127.000000 115.000000
142.000000 115.000000
193.000000 115.000000
208.000000 115.000000
222.000000 111.000000
237.000000 119.000000
252.000000 126.000000
168.000000 144.000000
168.000000 163.000000
168.000000 177.000000
168.000000 192.000000
153.000000 206.000000
160.000000 206.000000
168.000000 206.000000
179.000000 206.000000
190.000000 203.000000
105.000000 152.000000
116.000000 144.000000
127.000000 144.000000
142.000000 148.000000
131.000000 155.000000
116.000000 155.000000
197.000000 148.000000
208.000000 144.000000
219.000000 144.000000
230.000000 148.000000
219.000000 152.000000
208.000000 152.000000
135.000000 247.000000
146.000000 232.000000
164.000000 225.000000
171.000000 225.000000
179.000000 225.000000
197.000000 232.000000
208.000000 243.000000
197.000000 258.000000
186.000000 265.000000
171.000000 269.000000
160.000000 265.000000
149.000000 261.000000
138.000000 247.000000
160.000000 236.000000
171.000000 236.000000
182.000000 236.000000
208.000000 243.000000
182.000000 250.000000
171.000000 254.000000
160.000000 254.000000
}
