version: 1
n_points: 68
{
69.000000 164.000000
73.000000 189.000000
80.000000 215.000000
84.000000 237.000000
95.000000 262.000000
109.000000 281.000000
124.000000 288.000000
142.000000 299.000000
172.000000 306.000000
205.000000 299.000000
223.000000 288.000000
234.000000 277.000000
249.000000 255.000000
256.000000 229.000000
260.000000 207.000000
263.000000 182.000000
267.000000 156.000000
87.000000 123.000000
95.000000 109.000000
113.000000 101.000000
128.000000 98.000000
139.000000 101.000000
197.000000 101.000000
208.000000 98.000000
223.000000 98.000000
238.000000 105.000000
249.000000 120.000000
168.000000 142.000000
168.000000 160.000000
168.000000 175.000000
168.000000 189.000000
153.000000 204.000000
161.000000 204.000000
168.000000 207.000000
179.000000 204.000000
186.000000 204.000000
106.000000 149.000000
117.000000 142.000000
128.000000 142.000000
142.000000 149.000000
131.000000 153.000000
117.000000 153.000000
194.000000 145.000000
208.000000 142.000000
219.000000 142.000000
230.000000 145.000000
219.000000 153.000000
208.000000 153.000000
139.000000 248.000000
150.000000 233.000000
164.000000 222.000000
172.000000 222.000000
179.000000 222.000000
194.000000 229.000000
205.000000 244.000000
194.000000 259.000000
183.000000 266.000000
172.000000 266.000000
161.000000 266.000000
150.000000 259.000000
142.000000 248.000000
161.000000 233.000000
172.000000 233.000000
183.000000 233.000000
205.000000 244.000000
183.000000 251.000000
172.000000 251.000000
161.000000 251.000000
}
