version: 1
n_points: 68
{
70.000000 163.000000
74.000000 188.000000
77.000000 214.000000
85.000000 235.000000
96.000000 261.000000
110.000000 279.000000
125.000000 290.000000
143.000000 297.000000
175.000000 308.000000
204.000000 301.000000
222.000000 286.000000
237.000000 275.000000
248.000000 254.000000
255.000000 228.000000
259.000000 206.000000
266.000000 181.000000
266.000000 156.000000
88.000000 119.000000
96.000000 105.000000
114.000000 98.000000
128.000000 94.000000
139.000000 98.000000
197.000000 98.000000
208.000000 94.000000
222.000000 94.000000
241.000000 105.000000
248.000000 119.000000
168.000000 145.000000
168.000000 163.000000
168.000000 177.000000
168.000000 188.000000
154.000000 206.000000
161.000000 206.000000
168.000000 206.000000
179.000000 206.000000
186.000000 203.000000
106.000000 148.000000
117.000000 141.000000
128.000000 145.000000
143.000000 148.000000
132.000000 152.000000
117.000000 152.000000
197.000000 145.000000
208.000000 141.000000
222.000000 141.000000
230.000000 145.000000
219.000000 152.000000
208.000000 152.000000
139.000000 246.000000
150.000000 232.000000
164.000000 225.000000
172.000000 225.000000
179.000000 225.000000
193.000000 232.000000
208.000000 243.000000
197.000000 257.000000
186.000000 264.000000
172.000000 268.000000
161.000000 268.000000
150.000000 261.000000
143.000000 246.000000
161.000000 235.000000
172.000000 235.000000
183.000000 235.000000
204.000000 243.000000
183.000000 250.000000
172.000000 254.000000
161.000000 254.000000
}
