version: 1
n_points: 68
{
67.000000 165.000000
74.000000 190.000000
78.000000 215.000000
85.000000 237.000000
96.000000 263.000000
110.000000 281.000000
125.000000 288.000000
143.000000 299.000000
172.000000 306.000000
205.000000 299.000000
223.000000 288.000000
234.000000 277.000000
248.000000 255.000000
255.000000 230.000000
259.000000 208.000000
263.000000 183.000000
266.000000 157.000000
85.000000 128.000000
96.000000 114.000000
114.000000 106.000000
128.000000 106.000000
139.000000 106.000000
197.000000 106.000000
208.000000 103.000000
223.000000 103.000000
237.000000 110.000000
248.000000 121.000000
168.000000 143.000000
168.000000 161.000000
168.000000 175.000000
168.000000 190.000000
154.000000 204.000000
161.000000 204.000000
168.000000 204.000000
179.000000 204.000000
186.000000 204.000000
107.000000 150.000000
117.000000 143.000000
128.000000 143.000000
143.000000 150.000000
132.000000 154.000000
117.000000 154.000000
197.000000 146.000000
208.000000 143.000000
219.000000 143.000000
230.000000 146.000000
219.000000 150.000000
205.000000 150.000000
139.000000 248.000000
146.000000 230.000000
161.000000 223.000000
168.000000 223.000000
179.000000 223.000000
194.000000 230.000000
208.000000 244.000000
194.000000 255.000000
183.000000 263.000000
172.000000 266.000000
157.000000 266.000000
150.000000 259.000000
139.000000 244.000000
161.000000 233.000000
172.000000 233.000000
183.000000 233.000000
205.000000 244.000000
183.000000 252.000000
172.000000 252.000000
161.000000 252.000000
}
