version: 1
n_points: 68
{
66.000000 166.000000
74.000000 191.000000
77.000000 216.000000
85.000000 238.000000
95.000000 264.000000
110.000000 278.000000
124.000000 289.000000
143.000000 296.000000
172.000000 307.000000
204.000000 300.000000
223.000000 289.000000
233.000000 274.000000
248.000000 256.000000
255.000000 231.000000
259.000000 209.000000
266.000000 184.000000
266.000000 158.000000
85.000000 129.000000
95.000000 118.000000
114.000000 111.000000
128.000000 111.000000
143.000000 111.000000
197.000000 111.000000
208.000000 107.000000
223.000000 107.000000
237.000000 115.000000
252.000000 126.000000
168.000000 144.000000
168.000000 162.000000
168.000000 176.000000
168.000000 187.000000
154.000000 205.000000
161.000000 205.000000
168.000000 205.000000
179.000000 205.000000
190.000000 202.000000
106.000000 151.000000
117.000000 144.000000
128.000000 144.000000
143.000000 147.000000
132.000000 151.000000
117.000000 155.000000
197.000000 147.000000
208.000000 140.000000
219.000000 140.000000
230.000000 147.000000
219.000000 151.000000
208.000000 151.000000
139.000000 245.000000
146.000000 231.000000
164.000000 224.000000
172.000000 224.000000
179.000000 224.000000
197.000000 231.000000
208.000000 245.000000
197.000000 256.000000
186.000000 264.000000
172.000000 264.000000
161.000000 264.000000
150.000000 260.000000
139.000000 245.000000
161.000000 234.000000
172.000000 234.000000
183.000000 234.000000
204.000000 242.000000
183.000000 249.000000
172.000000 253.000000
161.000000 253.000000
}
