version: 1
n_points: 68
{
67.000000 163.000000
71.000000 193.000000
78.000000 215.000000
86.000000 238.000000
97.000000 264.000000
116.000000 279.000000
131.000000 290.000000
149.000000 301.000000
179.000000 308.000000
209.000000 301.000000
224.000000 286.000000
235.000000 275.000000
250.000000 256.000000
257.000000 230.000000
261.000000 208.000000
265.000000 182.000000
269.000000 156.000000
86.000000 129.000000
97.000000 115.000000
112.000000 111.000000
127.000000 111.000000
142.000000 111.000000
194.000000 111.000000
205.000000 107.000000
220.000000 107.000000
235.000000 115.000000
250.000000 126.000000
168.000000 144.000000
168.000000 163.000000
168.000000 178.000000
168.000000 193.000000
157.000000 211.000000
160.000000 211.000000
168.000000 211.000000
179.000000 211.000000
187.000000 211.000000
108.000000 152.000000
119.000000 148.000000
131.000000 144.000000
142.000000 148.000000
131.000000 156.000000
119.000000 156.000000
194.000000 148.000000
205.000000 144.000000
220.000000 144.000000
228.000000 148.000000
220.000000 152.000000
205.000000 152.000000
149.000000 260.000000
153.000000 245.000000
164.000000 234.000000
172.000000 238.000000
175.000000 234.000000
190.000000 245.000000
198.000000 256.000000
190.000000 267.000000
183.000000 275.000000
172.000000 275.000000
160.000000 275.000000
153.000000 267.000000
149.000000 256.000000
164.000000 249.000000
172.000000 249.000000
179.000000 249.000000
194.000000 256.000000
179.000000 260.000000
172.000000 264.000000
164.000000 260.000000
}
