version: 1
n_points: 68
{
67.000000 164.000000
71.000000 190.000000
78.000000 216.000000
86.000000 238.000000
97.000000 261.000000
115.000000 276.000000
130.000000 290.000000
149.000000 302.000000
182.000000 309.000000
208.000000 298.000000
220.000000 283.000000
234.000000 272.000000
246.000000 253.000000
257.000000 231.000000
261.000000 209.000000
268.000000 183.000000
268.000000 157.000000
86.000000 127.000000
97.000000 116.000000
112.000000 108.000000
127.000000 108.000000
141.000000 112.000000
194.000000 108.000000
208.000000 108.000000
220.000000 108.000000
238.000000 112.000000
249.000000 123.000000
168.000000 145.000000
168.000000 164.000000
164.000000 179.000000
168.000000 194.000000
156.000000 209.000000
160.000000 212.000000
168.000000 212.000000
179.000000 212.000000
182.000000 209.000000
108.000000 149.000000
119.000000 145.000000
130.000000 145.000000
141.000000 149.000000
130.000000 153.000000
119.000000 153.000000
194.000000 145.000000
205.000000 142.000000
220.000000 142.000000
227.000000 145.000000
220.000000 153.000000
205.000000 149.000000
149.000000 261.000000
153.000000 246.000000
164.000000 235.000000
168.000000 238.000000
175.000000 235.000000
186.000000 246.000000
197.000000 257.000000
190.000000 268.000000
182.000000 276.000000
171.000000 276.000000
164.000000 276.000000
156.000000 268.000000
149.000000 257.000000
164.000000 250.000000
171.000000 246.000000
179.000000 250.000000
194.000000 257.000000
179.000000 261.000000
171.000000 264.000000
164.000000 264.000000
}
