version: 1
n_points: 68
{
65.000000 162.000000
69.000000 189.000000
77.000000 212.000000
81.000000 235.000000
92.000000 258.000000
111.000000 274.000000
127.000000 281.000000
146.000000 289.000000
188.000000 293.000000
207.000000 285.000000
219.000000 274.000000
234.000000 266.000000
249.000000 251.000000
257.000000 228.000000
265.000000 204.000000
269.000000 181.000000
269.000000 155.000000
85.000000 124.000000
96.000000 109.000000
111.000000 101.000000
127.000000 101.000000
142.000000 101.000000
196.000000 101.000000
207.000000 97.000000
223.000000 101.000000
238.000000 105.000000
249.000000 120.000000
169.000000 135.000000
169.000000 151.000000
169.000000 166.000000
165.000000 178.000000
154.000000 197.000000
161.000000 197.000000
169.000000 197.000000
177.000000 197.000000
184.000000 197.000000
108.000000 143.000000
119.000000 135.000000
131.000000 135.000000
142.000000 139.000000
131.000000 143.000000
119.000000 147.000000
196.000000 139.000000
207.000000 135.000000
219.000000 135.000000
230.000000 139.000000
219.000000 143.000000
207.000000 143.000000
142.000000 254.000000
150.000000 228.000000
161.000000 216.000000
169.000000 216.000000
177.000000 216.000000
192.000000 228.000000
200.000000 254.000000
192.000000 281.000000
184.000000 293.000000
169.000000 297.000000
157.000000 293.000000
150.000000 277.000000
146.000000 254.000000
161.000000 228.000000
169.000000 224.000000
180.000000 228.000000
196.000000 251.000000
180.000000 285.000000
173.000000 285.000000
161.000000 285.000000
}
