version: 1
n_points: 68
{
67.000000 165.000000
71.000000 191.000000
78.000000 214.000000
86.000000 236.000000
97.000000 259.000000
112.000000 274.000000
131.000000 289.000000
150.000000 304.000000
180.000000 308.000000
206.000000 296.000000
217.000000 281.000000
232.000000 270.000000
248.000000 251.000000
259.000000 229.000000
263.000000 206.000000
266.000000 180.000000
270.000000 153.000000
86.000000 127.000000
97.000000 112.000000
112.000000 108.000000
127.000000 108.000000
142.000000 108.000000
195.000000 108.000000
206.000000 104.000000
221.000000 104.000000
236.000000 112.000000
248.000000 123.000000
168.000000 142.000000
165.000000 161.000000
165.000000 176.000000
165.000000 191.000000
153.000000 210.000000
161.000000 210.000000
168.000000 210.000000
176.000000 210.000000
184.000000 206.000000
108.000000 146.000000
116.000000 142.000000
127.000000 142.000000
142.000000 146.000000
131.000000 150.000000
120.000000 150.000000
195.000000 146.000000
206.000000 142.000000
217.000000 142.000000
229.000000 146.000000
217.000000 150.000000
206.000000 150.000000
150.000000 259.000000
153.000000 244.000000
165.000000 232.000000
168.000000 236.000000
176.000000 232.000000
187.000000 244.000000
195.000000 259.000000
187.000000 270.000000
184.000000 278.000000
172.000000 281.000000
165.000000 281.000000
157.000000 274.000000
150.000000 259.000000
165.000000 248.000000
172.000000 244.000000
180.000000 248.000000
195.000000 259.000000
180.000000 266.000000
172.000000 270.000000
165.000000 270.000000
}
