version: 1
n_points: 68
{
64.000000 160.000000
68.000000 186.000000
75.000000 209.000000
79.000000 235.000000
90.000000 261.000000
105.000000 279.000000
120.000000 290.000000
142.000000 301.000000
172.000000 313.000000
205.000000 301.000000
224.000000 287.000000
235.000000 275.000000
250.000000 253.000000
257.000000 227.000000
261.000000 201.000000
265.000000 179.000000
268.000000 153.000000
86.000000 127.000000
98.000000 116.000000
112.000000 108.000000
127.000000 108.000000
142.000000 108.000000
194.000000 108.000000
205.000000 108.000000
220.000000 108.000000
239.000000 112.000000
250.000000 123.000000
168.000000 142.000000
168.000000 156.000000
168.000000 168.000000
164.000000 182.000000
150.000000 197.000000
157.000000 197.000000
168.000000 201.000000
179.000000 197.000000
187.000000 197.000000
105.000000 145.000000
116.000000 142.000000
127.000000 142.000000
142.000000 145.000000
131.000000 149.000000
116.000000 149.000000
194.000000 142.000000
205.000000 138.000000
220.000000 138.000000
228.000000 142.000000
220.000000 149.000000
205.000000 145.000000
127.000000 238.000000
138.000000 223.000000
161.000000 216.000000
168.000000 216.000000
179.000000 216.000000
202.000000 223.000000
216.000000 235.000000
202.000000 257.000000
187.000000 268.000000
172.000000 268.000000
157.000000 268.000000
142.000000 261.000000
131.000000 238.000000
157.000000 227.000000
172.000000 227.000000
183.000000 227.000000
213.000000 235.000000
187.000000 253.000000
172.000000 257.000000
157.000000 257.000000
}
