version: 1
n_points: 68
{
69.000000 160.000000
69.000000 186.000000
77.000000 209.000000
81.000000 232.000000
92.000000 259.000000
107.000000 282.000000
123.000000 297.000000
146.000000 312.000000
176.000000 320.000000
207.000000 308.000000
222.000000 289.000000
237.000000 274.000000
249.000000 255.000000
256.000000 228.000000
260.000000 202.000000
268.000000 179.000000
268.000000 152.000000
84.000000 125.000000
96.000000 114.000000
111.000000 106.000000
126.000000 106.000000
138.000000 106.000000
195.000000 106.000000
207.000000 102.000000
222.000000 102.000000
237.000000 110.000000
249.000000 121.000000
168.000000 140.000000
168.000000 156.000000
168.000000 167.000000
168.000000 182.000000
153.000000 198.000000
157.000000 198.000000
168.000000 202.000000
180.000000 198.000000
188.000000 198.000000
107.000000 144.000000
119.000000 140.000000
130.000000 140.000000
142.000000 144.000000
130.000000 148.000000
119.000000 148.000000
195.000000 140.000000
207.000000 137.000000
218.000000 137.000000
230.000000 140.000000
218.000000 144.000000
207.000000 144.000000
134.000000 247.000000
146.000000 228.000000
161.000000 217.000000
168.000000 217.000000
180.000000 217.000000
199.000000 228.000000
211.000000 244.000000
199.000000 270.000000
188.000000 282.000000
172.000000 286.000000
157.000000 286.000000
146.000000 274.000000
134.000000 247.000000
161.000000 228.000000
172.000000 228.000000
184.000000 228.000000
211.000000 244.000000
184.000000 270.000000
172.000000 274.000000
161.000000 274.000000
}
