version: 1
n_points: 68
{
66.000000 162.000000
70.000000 189.000000
77.000000 212.000000
81.000000 234.000000
93.000000 257.000000
108.000000 276.000000
127.000000 287.000000
149.000000 299.000000
180.000000 306.000000
206.000000 299.000000
221.000000 284.000000
237.000000 268.000000
248.000000 249.000000
259.000000 227.000000
263.000000 204.000000
267.000000 181.000000
271.000000 155.000000
85.000000 124.000000
96.000000 113.000000
112.000000 105.000000
127.000000 102.000000
138.000000 105.000000
195.000000 105.000000
206.000000 102.000000
221.000000 102.000000
237.000000 109.000000
248.000000 120.000000
168.000000 139.000000
168.000000 155.000000
168.000000 166.000000
168.000000 181.000000
153.000000 196.000000
161.000000 196.000000
168.000000 200.000000
180.000000 196.000000
187.000000 196.000000
108.000000 143.000000
115.000000 139.000000
127.000000 136.000000
142.000000 143.000000
130.000000 147.000000
119.000000 147.000000
195.000000 139.000000
206.000000 136.000000
218.000000 136.000000
229.000000 139.000000
218.000000 143.000000
206.000000 143.000000
138.000000 249.000000
146.000000 227.000000
161.000000 215.000000
168.000000 219.000000
180.000000 215.000000
195.000000 227.000000
206.000000 246.000000
199.000000 276.000000
187.000000 287.000000
172.000000 291.000000
161.000000 287.000000
149.000000 276.000000
138.000000 249.000000
161.000000 230.000000
168.000000 227.000000
180.000000 230.000000
206.000000 246.000000
184.000000 276.000000
172.000000 280.000000
161.000000 280.000000
}
