version: 1
n_points: 68
{
64.000000 160.000000
68.000000 186.000000
75.000000 208.000000
79.000000 234.000000
90.000000 256.000000
105.000000 274.000000
120.000000 289.000000
142.000000 297.000000
172.000000 308.000000
205.000000 297.000000
223.000000 286.000000
238.000000 271.000000
249.000000 252.000000
257.000000 226.000000
264.000000 200.000000
268.000000 178.000000
268.000000 152.000000
87.000000 126.000000
98.000000 115.000000
112.000000 108.000000
127.000000 108.000000
142.000000 108.000000
194.000000 108.000000
209.000000 108.000000
220.000000 108.000000
238.000000 112.000000
249.000000 123.000000
168.000000 141.000000
168.000000 156.000000
168.000000 171.000000
168.000000 182.000000
149.000000 197.000000
157.000000 197.000000
168.000000 200.000000
179.000000 197.000000
186.000000 197.000000
105.000000 145.000000
116.000000 141.000000
127.000000 141.000000
142.000000 145.000000
131.000000 149.000000
116.000000 149.000000
194.000000 141.000000
205.000000 138.000000
220.000000 138.000000
227.000000 141.000000
220.000000 149.000000
205.000000 145.000000
127.000000 234.000000
138.000000 223.000000
161.000000 215.000000
168.000000 215.000000
179.000000 215.000000
201.000000 219.000000
216.000000 234.000000
201.000000 256.000000
186.000000 263.000000
172.000000 267.000000
157.000000 263.000000
142.000000 256.000000
127.000000 234.000000
157.000000 226.000000
172.000000 226.000000
183.000000 226.000000
212.000000 234.000000
183.000000 252.000000
172.000000 252.000000
157.000000 252.000000
}
