version: 1
n_points: 68
{
67.000000 160.000000
71.000000 187.000000
74.000000 209.000000
82.000000 236.000000
93.000000 262.000000
108.000000 281.000000
123.000000 292.000000
146.000000 307.000000
180.000000 315.000000
210.000000 303.000000
225.000000 288.000000
236.000000 277.000000
251.000000 254.000000
259.000000 228.000000
263.000000 202.000000
266.000000 179.000000
270.000000 153.000000
86.000000 126.000000
97.000000 115.000000
112.000000 107.000000
127.000000 107.000000
142.000000 111.000000
195.000000 107.000000
206.000000 107.000000
221.000000 107.000000
236.000000 111.000000
251.000000 123.000000
168.000000 141.000000
168.000000 156.000000
168.000000 168.000000
168.000000 183.000000
153.000000 198.000000
161.000000 198.000000
168.000000 202.000000
180.000000 198.000000
187.000000 198.000000
108.000000 145.000000
120.000000 141.000000
131.000000 141.000000
142.000000 145.000000
131.000000 149.000000
120.000000 149.000000
195.000000 141.000000
206.000000 138.000000
221.000000 138.000000
229.000000 141.000000
221.000000 149.000000
206.000000 145.000000
131.000000 243.000000
142.000000 224.000000
161.000000 217.000000
172.000000 217.000000
180.000000 217.000000
202.000000 224.000000
214.000000 239.000000
202.000000 266.000000
191.000000 277.000000
176.000000 281.000000
161.000000 281.000000
146.000000 269.000000
135.000000 243.000000
157.000000 228.000000
172.000000 228.000000
184.000000 228.000000
214.000000 239.000000
187.000000 266.000000
176.000000 269.000000
161.000000 266.000000
}
