version: 1
n_points: 68
{
66.000000 159.000000
70.000000 184.000000
74.000000 209.000000
81.000000 231.000000
88.000000 256.000000
103.000000 274.000000
121.000000 285.000000
139.000000 292.000000
175.000000 300.000000
204.000000 292.000000
225.000000 278.000000
240.000000 267.000000
254.000000 249.000000
261.000000 224.000000
265.000000 202.000000
269.000000 177.000000
269.000000 152.000000
84.000000 126.000000
95.000000 115.000000
113.000000 112.000000
128.000000 108.000000
142.000000 112.000000
193.000000 112.000000
207.000000 108.000000
222.000000 108.000000
236.000000 115.000000
251.000000 123.000000
168.000000 144.000000
168.000000 159.000000
168.000000 173.000000
168.000000 188.000000
149.000000 199.000000
160.000000 199.000000
171.000000 202.000000
182.000000 199.000000
189.000000 199.000000
106.000000 148.000000
117.000000 144.000000
128.000000 141.000000
142.000000 148.000000
131.000000 152.000000
117.000000 152.000000
196.000000 144.000000
207.000000 141.000000
218.000000 141.000000
229.000000 144.000000
218.000000 148.000000
207.000000 148.000000
124.000000 231.000000
139.000000 220.000000
160.000000 217.000000
171.000000 217.000000
182.000000 217.000000
204.000000 220.000000
218.000000 231.000000
204.000000 246.000000
189.000000 253.000000
171.000000 256.000000
157.000000 256.000000
142.000000 249.000000
128.000000 231.000000
157.000000 227.000000
171.000000 224.000000
186.000000 227.000000
218.000000 227.000000
186.000000 242.000000
171.000000 246.000000
157.000000 246.000000
}
