version: 1
n_points: 68
{
67.000000 162.000000
70.000000 187.000000
77.000000 213.000000
85.000000 234.000000
92.000000 259.000000
110.000000 277.000000
124.000000 284.000000
142.000000 291.000000
171.000000 298.000000
203.000000 291.000000
221.000000 281.000000
235.000000 270.000000
249.000000 252.000000
257.000000 227.000000
260.000000 205.000000
267.000000 180.000000
267.000000 155.000000
85.000000 130.000000
95.000000 116.000000
113.000000 112.000000
128.000000 109.000000
142.000000 112.000000
192.000000 112.000000
206.000000 109.000000
221.000000 109.000000
235.000000 116.000000
249.000000 123.000000
167.000000 141.000000
167.000000 159.000000
167.000000 173.000000
167.000000 184.000000
153.000000 198.000000
160.000000 202.000000
167.000000 202.000000
178.000000 198.000000
188.000000 198.000000
106.000000 148.000000
117.000000 144.000000
128.000000 141.000000
142.000000 148.000000
131.000000 152.000000
117.000000 152.000000
196.000000 144.000000
206.000000 141.000000
217.000000 141.000000
228.000000 144.000000
217.000000 148.000000
206.000000 148.000000
135.000000 241.000000
145.000000 227.000000
160.000000 216.000000
171.000000 220.000000
178.000000 216.000000
196.000000 223.000000
206.000000 238.000000
196.000000 248.000000
181.000000 252.000000
171.000000 256.000000
156.000000 256.000000
149.000000 252.000000
138.000000 241.000000
160.000000 227.000000
171.000000 227.000000
181.000000 227.000000
203.000000 238.000000
181.000000 241.000000
171.000000 241.000000
160.000000 241.000000
}
