version: 1
n_points: 68
{
64.000000 161.000000
67.000000 187.000000
75.000000 208.000000
82.000000 230.000000
89.000000 255.000000
104.000000 273.000000
122.000000 284.000000
140.000000 291.000000
172.000000 298.000000
204.000000 291.000000
223.000000 280.000000
237.000000 270.000000
251.000000 248.000000
262.000000 226.000000
266.000000 201.000000
269.000000 179.000000
269.000000 154.000000
85.000000 129.000000
96.000000 115.000000
114.000000 111.000000
129.000000 111.000000
140.000000 111.000000
194.000000 111.000000
208.000000 111.000000
223.000000 111.000000
237.000000 115.000000
251.000000 125.000000
168.000000 143.000000
168.000000 161.000000
168.000000 172.000000
168.000000 187.000000
150.000000 198.000000
158.000000 201.000000
168.000000 201.000000
179.000000 201.000000
190.000000 198.000000
107.000000 147.000000
118.000000 143.000000
129.000000 143.000000
140.000000 147.000000
129.000000 151.000000
118.000000 151.000000
197.000000 147.000000
208.000000 140.000000
219.000000 143.000000
230.000000 143.000000
219.000000 151.000000
204.000000 151.000000
125.000000 234.000000
140.000000 223.000000
161.000000 216.000000
168.000000 219.000000
179.000000 216.000000
201.000000 219.000000
219.000000 230.000000
201.000000 248.000000
186.000000 255.000000
172.000000 255.000000
158.000000 255.000000
143.000000 248.000000
129.000000 234.000000
158.000000 226.000000
172.000000 226.000000
186.000000 226.000000
215.000000 230.000000
186.000000 241.000000
172.000000 244.000000
158.000000 244.000000
}
