version: 1
n_points: 68
{
68.000000 165.000000
71.000000 190.000000
78.000000 215.000000
86.000000 236.000000
96.000000 261.000000
110.000000 275.000000
125.000000 286.000000
142.000000 293.000000
174.000000 300.000000
206.000000 289.000000
224.000000 282.000000
235.000000 272.000000
249.000000 254.000000
256.000000 229.000000
260.000000 204.000000
267.000000 183.000000
267.000000 154.000000
86.000000 130.000000
96.000000 119.000000
114.000000 112.000000
128.000000 112.000000
142.000000 112.000000
192.000000 112.000000
206.000000 112.000000
221.000000 112.000000
238.000000 115.000000
249.000000 126.000000
167.000000 144.000000
167.000000 158.000000
167.000000 172.000000
167.000000 186.000000
153.000000 201.000000
160.000000 201.000000
171.000000 204.000000
181.000000 201.000000
189.000000 201.000000
107.000000 151.000000
118.000000 144.000000
128.000000 144.000000
142.000000 147.000000
132.000000 151.000000
118.000000 154.000000
196.000000 147.000000
206.000000 140.000000
221.000000 140.000000
228.000000 144.000000
217.000000 151.000000
206.000000 151.000000
139.000000 240.000000
150.000000 225.000000
164.000000 218.000000
171.000000 218.000000
178.000000 218.000000
196.000000 225.000000
206.000000 236.000000
196.000000 247.000000
185.000000 254.000000
174.000000 254.000000
160.000000 257.000000
150.000000 250.000000
142.000000 240.000000
160.000000 229.000000
171.000000 229.000000
181.000000 229.000000
206.000000 236.000000
185.000000 240.000000
174.000000 243.000000
160.000000 243.000000
}
