version: 1
n_points: 68
{
68.000000 167.000000
72.000000 192.000000
79.000000 217.000000
86.000000 239.000000
100.000000 260.000000
118.000000 274.000000
136.000000 282.000000
157.000000 289.000000
190.000000 292.000000
218.000000 282.000000
232.000000 274.000000
243.000000 264.000000
257.000000 246.000000
261.000000 224.000000
265.000000 200.000000
268.000000 178.000000
272.000000 150.000000
90.000000 132.000000
100.000000 117.000000
115.000000 110.000000
129.000000 110.000000
143.000000 110.000000
197.000000 114.000000
207.000000 110.000000
222.000000 110.000000
236.000000 114.000000
250.000000 125.000000
172.000000 142.000000
172.000000 160.000000
172.000000 175.000000
175.000000 185.000000
165.000000 203.000000
172.000000 203.000000
182.000000 203.000000
190.000000 200.000000
197.000000 200.000000
111.000000 150.000000
118.000000 142.000000
133.000000 142.000000
143.000000 146.000000
133.000000 153.000000
122.000000 153.000000
197.000000 146.000000
207.000000 139.000000
222.000000 142.000000
232.000000 146.000000
222.000000 150.000000
207.000000 150.000000
165.000000 242.000000
172.000000 232.000000
182.000000 221.000000
190.000000 224.000000
193.000000 221.000000
207.000000 224.000000
218.000000 232.000000
211.000000 239.000000
204.000000 242.000000
193.000000 246.000000
182.000000 246.000000
175.000000 246.000000
168.000000 242.000000
182.000000 235.000000
190.000000 232.000000
200.000000 232.000000
218.000000 232.000000
200.000000 232.000000
190.000000 232.000000
182.000000 235.000000
}
