version: 1
n_points: 68
{
68.000000 168.000000
72.000000 193.000000
79.000000 215.000000
86.000000 240.000000
100.000000 261.000000
118.000000 275.000000
136.000000 286.000000
157.000000 290.000000
190.000000 293.000000
218.000000 283.000000
229.000000 275.000000
243.000000 265.000000
254.000000 247.000000
261.000000 225.000000
264.000000 200.000000
268.000000 179.000000
268.000000 154.000000
90.000000 129.000000
97.000000 118.000000
115.000000 111.000000
129.000000 111.000000
143.000000 111.000000
197.000000 111.000000
207.000000 111.000000
222.000000 111.000000
236.000000 115.000000
250.000000 125.000000
172.000000 143.000000
172.000000 161.000000
172.000000 175.000000
175.000000 186.000000
165.000000 204.000000
172.000000 204.000000
182.000000 204.000000
190.000000 200.000000
197.000000 197.000000
111.000000 150.000000
118.000000 143.000000
132.000000 143.000000
143.000000 147.000000
132.000000 150.000000
122.000000 154.000000
197.000000 147.000000
207.000000 140.000000
222.000000 140.000000
229.000000 143.000000
222.000000 150.000000
207.000000 150.000000
165.000000 243.000000
172.000000 233.000000
182.000000 222.000000
186.000000 222.000000
193.000000 218.000000
207.000000 225.000000
218.000000 233.000000
211.000000 240.000000
204.000000 247.000000
193.000000 247.000000
182.000000 250.000000
172.000000 247.000000
165.000000 243.000000
182.000000 236.000000
190.000000 233.000000
197.000000 233.000000
218.000000 233.000000
200.000000 233.000000
190.000000 236.000000
182.000000 236.000000
}
