version: 1
n_points: 68
{
67.000000 165.000000
71.000000 191.000000
78.000000 216.000000
85.000000 237.000000
96.000000 262.000000
110.000000 277.000000
125.000000 287.000000
142.000000 291.000000
171.000000 298.000000
203.000000 294.000000
221.000000 284.000000
232.000000 273.000000
250.000000 255.000000
257.000000 230.000000
261.000000 208.000000
264.000000 183.000000
268.000000 158.000000
89.000000 130.000000
99.000000 119.000000
114.000000 112.000000
128.000000 112.000000
142.000000 112.000000
196.000000 115.000000
207.000000 112.000000
221.000000 112.000000
239.000000 115.000000
250.000000 126.000000
168.000000 144.000000
168.000000 162.000000
168.000000 176.000000
168.000000 187.000000
153.000000 201.000000
160.000000 205.000000
168.000000 205.000000
178.000000 205.000000
185.000000 201.000000
107.000000 148.000000
117.000000 144.000000
128.000000 144.000000
142.000000 148.000000
132.000000 151.000000
117.000000 155.000000
196.000000 148.000000
207.000000 144.000000
221.000000 144.000000
228.000000 148.000000
218.000000 151.000000
207.000000 151.000000
139.000000 241.000000
150.000000 230.000000
160.000000 223.000000
171.000000 226.000000
178.000000 223.000000
193.000000 230.000000
203.000000 241.000000
193.000000 244.000000
182.000000 248.000000
171.000000 251.000000
160.000000 251.000000
150.000000 248.000000
142.000000 241.000000
160.000000 237.000000
171.000000 234.000000
178.000000 234.000000
200.000000 237.000000
178.000000 237.000000
171.000000 237.000000
160.000000 237.000000
}
