version: 1
n_points: 68
{
66.000000 165.000000
74.000000 194.000000
81.000000 216.000000
88.000000 241.000000
99.000000 263.000000
117.000000 281.000000
132.000000 288.000000
153.000000 291.000000
186.000000 295.000000
215.000000 288.000000
229.000000 277.000000
240.000000 270.000000
254.000000 248.000000
262.000000 226.000000
265.000000 205.000000
269.000000 179.000000
269.000000 154.000000
88.000000 129.000000
99.000000 118.000000
113.000000 111.000000
128.000000 111.000000
142.000000 114.000000
193.000000 114.000000
207.000000 111.000000
222.000000 111.000000
236.000000 114.000000
251.000000 125.000000
168.000000 143.000000
171.000000 161.000000
171.000000 176.000000
171.000000 187.000000
160.000000 205.000000
168.000000 205.000000
179.000000 205.000000
186.000000 201.000000
193.000000 197.000000
110.000000 150.000000
117.000000 143.000000
132.000000 143.000000
142.000000 147.000000
132.000000 150.000000
121.000000 154.000000
197.000000 147.000000
207.000000 140.000000
218.000000 143.000000
229.000000 147.000000
222.000000 150.000000
207.000000 150.000000
157.000000 244.000000
164.000000 234.000000
179.000000 223.000000
186.000000 223.000000
189.000000 223.000000
207.000000 226.000000
218.000000 234.000000
207.000000 241.000000
200.000000 244.000000
189.000000 248.000000
179.000000 248.000000
168.000000 244.000000
157.000000 241.000000
179.000000 234.000000
186.000000 234.000000
197.000000 234.000000
215.000000 234.000000
197.000000 234.000000
186.000000 234.000000
179.000000 234.000000
}
