version: 1
n_points: 68
{
67.000000 165.000000
74.000000 194.000000
78.000000 216.000000
89.000000 241.000000
100.000000 262.000000
114.000000 277.000000
132.000000 287.000000
150.000000 291.000000
182.000000 295.000000
211.000000 287.000000
225.000000 280.000000
240.000000 269.000000
251.000000 251.000000
258.000000 230.000000
261.000000 205.000000
269.000000 180.000000
269.000000 154.000000
85.000000 129.000000
96.000000 118.000000
114.000000 111.000000
128.000000 111.000000
143.000000 111.000000
193.000000 111.000000
207.000000 111.000000
222.000000 111.000000
236.000000 115.000000
251.000000 126.000000
168.000000 144.000000
172.000000 158.000000
172.000000 172.000000
172.000000 187.000000
161.000000 205.000000
168.000000 205.000000
175.000000 205.000000
186.000000 201.000000
193.000000 198.000000
110.000000 151.000000
118.000000 144.000000
128.000000 144.000000
143.000000 147.000000
132.000000 151.000000
118.000000 154.000000
197.000000 147.000000
207.000000 140.000000
222.000000 140.000000
229.000000 147.000000
222.000000 151.000000
207.000000 151.000000
150.000000 241.000000
161.000000 230.000000
175.000000 223.000000
182.000000 223.000000
189.000000 219.000000
204.000000 226.000000
215.000000 233.000000
204.000000 241.000000
197.000000 244.000000
186.000000 248.000000
175.000000 248.000000
164.000000 244.000000
154.000000 241.000000
175.000000 233.000000
182.000000 233.000000
193.000000 233.000000
211.000000 233.000000
193.000000 233.000000
182.000000 233.000000
175.000000 233.000000
}
