version: 1
n_points: 68
{
67.000000 166.000000
74.000000 194.000000
81.000000 216.000000
88.000000 238.000000
99.000000 263.000000
117.000000 278.000000
132.000000 288.000000
153.000000 292.000000
186.000000 296.000000
215.000000 288.000000
229.000000 278.000000
240.000000 270.000000
255.000000 249.000000
262.000000 227.000000
265.000000 205.000000
269.000000 180.000000
269.000000 155.000000
85.000000 129.000000
96.000000 119.000000
114.000000 111.000000
128.000000 111.000000
143.000000 111.000000
193.000000 111.000000
208.000000 111.000000
222.000000 111.000000
237.000000 115.000000
251.000000 126.000000
168.000000 144.000000
171.000000 158.000000
171.000000 173.000000
171.000000 187.000000
161.000000 205.000000
168.000000 205.000000
179.000000 205.000000
186.000000 202.000000
193.000000 198.000000
110.000000 151.000000
117.000000 144.000000
132.000000 144.000000
143.000000 147.000000
132.000000 151.000000
121.000000 155.000000
197.000000 147.000000
208.000000 140.000000
218.000000 140.000000
229.000000 144.000000
222.000000 151.000000
208.000000 151.000000
153.000000 241.000000
164.000000 234.000000
175.000000 223.000000
182.000000 223.000000
190.000000 220.000000
208.000000 227.000000
218.000000 234.000000
208.000000 241.000000
197.000000 245.000000
190.000000 249.000000
175.000000 249.000000
168.000000 245.000000
157.000000 241.000000
175.000000 234.000000
186.000000 234.000000
193.000000 231.000000
215.000000 234.000000
197.000000 234.000000
186.000000 234.000000
175.000000 234.000000
}
