version: 1
n_points: 68
{
65.000000 161.000000
69.000000 186.000000
72.000000 211.000000
80.000000 233.000000
91.000000 254.000000
101.000000 272.000000
116.000000 280.000000
130.000000 287.000000
159.000000 298.000000
188.000000 291.000000
209.000000 283.000000
227.000000 276.000000
242.000000 258.000000
253.000000 233.000000
256.000000 211.000000
263.000000 186.000000
267.000000 157.000000
87.000000 128.000000
98.000000 118.000000
112.000000 110.000000
127.000000 110.000000
137.000000 114.000000
191.000000 114.000000
206.000000 110.000000
220.000000 110.000000
235.000000 118.000000
245.000000 128.000000
163.000000 146.000000
159.000000 161.000000
159.000000 175.000000
155.000000 190.000000
141.000000 200.000000
148.000000 204.000000
155.000000 204.000000
166.000000 204.000000
173.000000 204.000000
105.000000 150.000000
116.000000 143.000000
127.000000 143.000000
137.000000 150.000000
127.000000 154.000000
116.000000 154.000000
191.000000 146.000000
202.000000 143.000000
217.000000 143.000000
224.000000 146.000000
213.000000 154.000000
202.000000 150.000000
127.000000 236.000000
134.000000 229.000000
145.000000 222.000000
152.000000 226.000000
159.000000 226.000000
170.000000 233.000000
177.000000 244.000000
170.000000 247.000000
159.000000 251.000000
148.000000 251.000000
141.000000 251.000000
134.000000 244.000000
127.000000 236.000000
145.000000 233.000000
152.000000 233.000000
159.000000 236.000000
177.000000 244.000000
159.000000 240.000000
152.000000 236.000000
145.000000 236.000000
}
