version: 1
n_points: 68
{
66.000000 161.000000
70.000000 186.000000
73.000000 211.000000
80.000000 232.000000
87.000000 254.000000
102.000000 272.000000
116.000000 279.000000
130.000000 286.000000
159.000000 297.000000
187.000000 293.000000
209.000000 283.000000
227.000000 275.000000
241.000000 257.000000
252.000000 232.000000
255.000000 211.000000
263.000000 186.000000
266.000000 157.000000
84.000000 129.000000
95.000000 118.000000
109.000000 111.000000
123.000000 111.000000
137.000000 114.000000
191.000000 114.000000
202.000000 111.000000
216.000000 111.000000
234.000000 118.000000
245.000000 129.000000
162.000000 143.000000
159.000000 161.000000
159.000000 175.000000
155.000000 190.000000
141.000000 200.000000
148.000000 204.000000
155.000000 204.000000
166.000000 204.000000
173.000000 204.000000
105.000000 147.000000
112.000000 143.000000
127.000000 143.000000
137.000000 150.000000
127.000000 154.000000
112.000000 154.000000
191.000000 147.000000
202.000000 143.000000
216.000000 143.000000
223.000000 147.000000
213.000000 154.000000
202.000000 150.000000
127.000000 240.000000
134.000000 229.000000
145.000000 222.000000
152.000000 225.000000
159.000000 225.000000
170.000000 232.000000
177.000000 243.000000
170.000000 247.000000
159.000000 250.000000
152.000000 250.000000
141.000000 250.000000
134.000000 247.000000
127.000000 236.000000
145.000000 232.000000
152.000000 236.000000
159.000000 236.000000
177.000000 243.000000
159.000000 240.000000
152.000000 240.000000
145.000000 236.000000
}
