version: 1
n_points: 68
{
65.000000 161.000000
69.000000 186.000000
72.000000 211.000000
79.000000 233.000000
90.000000 258.000000
105.000000 272.000000
116.000000 283.000000
130.000000 290.000000
159.000000 301.000000
191.000000 294.000000
213.000000 287.000000
227.000000 276.000000
242.000000 258.000000
252.000000 233.000000
256.000000 211.000000
263.000000 186.000000
267.000000 157.000000
83.000000 128.000000
94.000000 117.000000
112.000000 114.000000
123.000000 114.000000
137.000000 114.000000
191.000000 114.000000
202.000000 114.000000
216.000000 114.000000
234.000000 117.000000
245.000000 128.000000
162.000000 146.000000
162.000000 164.000000
159.000000 179.000000
155.000000 189.000000
144.000000 204.000000
148.000000 204.000000
159.000000 207.000000
166.000000 207.000000
177.000000 207.000000
105.000000 150.000000
112.000000 146.000000
126.000000 143.000000
137.000000 150.000000
126.000000 153.000000
112.000000 153.000000
191.000000 150.000000
202.000000 143.000000
216.000000 143.000000
224.000000 146.000000
213.000000 153.000000
202.000000 153.000000
126.000000 240.000000
137.000000 233.000000
148.000000 225.000000
155.000000 229.000000
162.000000 229.000000
173.000000 236.000000
184.000000 243.000000
173.000000 251.000000
162.000000 254.000000
152.000000 254.000000
144.000000 254.000000
137.000000 247.000000
130.000000 240.000000
144.000000 236.000000
155.000000 236.000000
162.000000 240.000000
180.000000 243.000000
162.000000 240.000000
155.000000 240.000000
144.000000 240.000000
}
