version: 1
n_points: 68
{
66.000000 165.000000
70.000000 194.000000
77.000000 216.000000
85.000000 242.000000
96.000000 264.000000
110.000000 282.000000
129.000000 289.000000
147.000000 300.000000
176.000000 304.000000
202.000000 297.000000
220.000000 286.000000
231.000000 275.000000
246.000000 256.000000
253.000000 231.000000
257.000000 209.000000
264.000000 183.000000
264.000000 157.000000
85.000000 132.000000
96.000000 121.000000
110.000000 113.000000
125.000000 113.000000
136.000000 113.000000
191.000000 113.000000
202.000000 113.000000
217.000000 110.000000
231.000000 117.000000
246.000000 124.000000
165.000000 146.000000
162.000000 165.000000
162.000000 179.000000
162.000000 194.000000
151.000000 212.000000
158.000000 212.000000
165.000000 212.000000
176.000000 212.000000
184.000000 209.000000
103.000000 150.000000
114.000000 146.000000
125.000000 146.000000
136.000000 150.000000
129.000000 154.000000
114.000000 154.000000
191.000000 150.000000
202.000000 143.000000
217.000000 143.000000
224.000000 146.000000
217.000000 154.000000
202.000000 154.000000
140.000000 256.000000
151.000000 245.000000
162.000000 238.000000
169.000000 238.000000
173.000000 238.000000
187.000000 242.000000
198.000000 253.000000
187.000000 260.000000
180.000000 264.000000
169.000000 267.000000
162.000000 267.000000
151.000000 264.000000
143.000000 256.000000
162.000000 249.000000
169.000000 249.000000
176.000000 249.000000
195.000000 253.000000
176.000000 253.000000
169.000000 256.000000
162.000000 253.000000
}
