version: 1
n_points: 68
{
63.000000 164.000000
70.000000 193.000000
78.000000 219.000000
85.000000 241.000000
96.000000 266.000000
110.000000 281.000000
129.000000 292.000000
147.000000 299.000000
176.000000 303.000000
202.000000 296.000000
220.000000 288.000000
231.000000 277.000000
245.000000 259.000000
253.000000 234.000000
260.000000 208.000000
264.000000 183.000000
267.000000 157.000000
81.000000 131.000000
92.000000 120.000000
110.000000 113.000000
121.000000 113.000000
136.000000 117.000000
191.000000 113.000000
202.000000 113.000000
216.000000 113.000000
231.000000 117.000000
245.000000 128.000000
165.000000 150.000000
161.000000 164.000000
161.000000 183.000000
161.000000 197.000000
150.000000 215.000000
158.000000 215.000000
165.000000 215.000000
176.000000 215.000000
183.000000 212.000000
103.000000 153.000000
114.000000 146.000000
125.000000 146.000000
136.000000 150.000000
129.000000 153.000000
114.000000 157.000000
191.000000 150.000000
202.000000 142.000000
216.000000 142.000000
223.000000 146.000000
216.000000 153.000000
202.000000 153.000000
140.000000 255.000000
150.000000 248.000000
161.000000 245.000000
169.000000 245.000000
172.000000 245.000000
187.000000 248.000000
202.000000 252.000000
187.000000 255.000000
180.000000 259.000000
169.000000 259.000000
158.000000 263.000000
150.000000 259.000000
143.000000 255.000000
161.000000 252.000000
169.000000 252.000000
176.000000 252.000000
198.000000 252.000000
176.000000 248.000000
169.000000 252.000000
161.000000 252.000000
}
