version: 1
n_points: 68
{
65.000000 166.000000
68.000000 192.000000
76.000000 214.000000
83.000000 240.000000
91.000000 262.000000
109.000000 280.000000
124.000000 288.000000
139.000000 295.000000
168.000000 299.000000
198.000000 295.000000
216.000000 284.000000
231.000000 273.000000
245.000000 254.000000
253.000000 229.000000
257.000000 206.000000
264.000000 181.000000
268.000000 155.000000
83.000000 133.000000
94.000000 118.000000
109.000000 114.000000
124.000000 114.000000
135.000000 114.000000
190.000000 114.000000
201.000000 111.000000
216.000000 111.000000
231.000000 118.000000
245.000000 125.000000
164.000000 147.000000
161.000000 166.000000
161.000000 181.000000
161.000000 195.000000
150.000000 210.000000
157.000000 214.000000
164.000000 214.000000
172.000000 214.000000
179.000000 210.000000
102.000000 151.000000
113.000000 147.000000
124.000000 144.000000
135.000000 151.000000
127.000000 155.000000
113.000000 155.000000
190.000000 147.000000
201.000000 144.000000
216.000000 144.000000
223.000000 147.000000
212.000000 151.000000
201.000000 151.000000
135.000000 251.000000
146.000000 243.000000
161.000000 240.000000
164.000000 243.000000
172.000000 240.000000
190.000000 243.000000
205.000000 247.000000
190.000000 251.000000
179.000000 254.000000
168.000000 254.000000
157.000000 254.000000
146.000000 254.000000
139.000000 247.000000
157.000000 251.000000
168.000000 247.000000
175.000000 247.000000
201.000000 243.000000
175.000000 243.000000
168.000000 247.000000
157.000000 243.000000
}
