version: 1
n_points: 68
{
62.000000 165.000000
66.000000 191.000000
73.000000 213.000000
80.000000 238.000000
91.000000 260.000000
106.000000 278.000000
121.000000 286.000000
139.000000 289.000000
168.000000 297.000000
197.000000 289.000000
216.000000 282.000000
230.000000 271.000000
245.000000 253.000000
252.000000 227.000000
260.000000 205.000000
263.000000 180.000000
267.000000 154.000000
80.000000 132.000000
91.000000 121.000000
110.000000 114.000000
121.000000 114.000000
135.000000 114.000000
190.000000 114.000000
201.000000 110.000000
216.000000 110.000000
230.000000 117.000000
245.000000 125.000000
161.000000 147.000000
161.000000 165.000000
161.000000 180.000000
161.000000 194.000000
150.000000 209.000000
157.000000 209.000000
164.000000 213.000000
172.000000 209.000000
179.000000 209.000000
102.000000 150.000000
113.000000 147.000000
124.000000 143.000000
135.000000 150.000000
124.000000 154.000000
113.000000 154.000000
190.000000 147.000000
201.000000 143.000000
216.000000 143.000000
223.000000 147.000000
216.000000 150.000000
201.000000 150.000000
135.000000 246.000000
146.000000 242.000000
161.000000 238.000000
164.000000 238.000000
172.000000 238.000000
190.000000 238.000000
205.000000 242.000000
190.000000 249.000000
179.000000 253.000000
168.000000 253.000000
157.000000 253.000000
146.000000 249.000000
135.000000 246.000000
157.000000 246.000000
168.000000 246.000000
179.000000 246.000000
201.000000 242.000000
175.000000 242.000000
168.000000 246.000000
157.000000 242.000000
}
