version: 1
n_points: 68
{
63.000000 161.000000
67.000000 187.000000
71.000000 212.000000
78.000000 234.000000
89.000000 260.000000
103.000000 278.000000
118.000000 285.000000
136.000000 293.000000
165.000000 300.000000
198.000000 293.000000
216.000000 285.000000
231.000000 274.000000
245.000000 252.000000
256.000000 231.000000
260.000000 205.000000
267.000000 180.000000
267.000000 154.000000
81.000000 129.000000
92.000000 118.000000
107.000000 110.000000
122.000000 110.000000
136.000000 114.000000
191.000000 114.000000
202.000000 110.000000
216.000000 110.000000
234.000000 114.000000
245.000000 125.000000
162.000000 143.000000
162.000000 161.000000
162.000000 176.000000
162.000000 191.000000
147.000000 205.000000
154.000000 205.000000
165.000000 209.000000
173.000000 205.000000
183.000000 205.000000
103.000000 147.000000
114.000000 143.000000
125.000000 143.000000
136.000000 147.000000
125.000000 151.000000
114.000000 154.000000
191.000000 147.000000
202.000000 140.000000
216.000000 140.000000
227.000000 147.000000
216.000000 151.000000
202.000000 151.000000
129.000000 238.000000
140.000000 234.000000
158.000000 231.000000
165.000000 231.000000
173.000000 231.000000
191.000000 234.000000
209.000000 238.000000
191.000000 242.000000
180.000000 245.000000
165.000000 245.000000
154.000000 245.000000
143.000000 242.000000
129.000000 238.000000
154.000000 238.000000
165.000000 238.000000
176.000000 238.000000
205.000000 234.000000
176.000000 234.000000
165.000000 234.000000
154.000000 234.000000
}
