version: 1
n_points: 68
{
62.000000 161.000000
66.000000 187.000000
70.000000 212.000000
77.000000 234.000000
88.000000 259.000000
102.000000 274.000000
117.000000 285.000000
135.000000 289.000000
168.000000 296.000000
197.000000 289.000000
215.000000 285.000000
234.000000 274.000000
248.000000 256.000000
255.000000 230.000000
259.000000 205.000000
263.000000 183.000000
266.000000 154.000000
84.000000 128.000000
95.000000 117.000000
110.000000 110.000000
124.000000 110.000000
135.000000 114.000000
190.000000 114.000000
204.000000 110.000000
215.000000 110.000000
234.000000 114.000000
244.000000 125.000000
164.000000 143.000000
161.000000 157.000000
161.000000 172.000000
161.000000 187.000000
146.000000 201.000000
153.000000 205.000000
164.000000 205.000000
175.000000 205.000000
183.000000 201.000000
102.000000 147.000000
113.000000 143.000000
124.000000 143.000000
135.000000 147.000000
124.000000 150.000000
113.000000 150.000000
190.000000 143.000000
201.000000 139.000000
215.000000 139.000000
226.000000 147.000000
215.000000 150.000000
201.000000 147.000000
128.000000 238.000000
143.000000 230.000000
157.000000 227.000000
164.000000 227.000000
172.000000 227.000000
190.000000 230.000000
208.000000 238.000000
190.000000 241.000000
179.000000 245.000000
164.000000 245.000000
153.000000 245.000000
143.000000 241.000000
132.000000 238.000000
153.000000 234.000000
164.000000 234.000000
175.000000 234.000000
204.000000 234.000000
175.000000 234.000000
164.000000 234.000000
157.000000 234.000000
}
