version: 1
n_points: 68
{
64.000000 165.000000
67.000000 190.000000
71.000000 215.000000
78.000000 236.000000
89.000000 258.000000
103.000000 276.000000
117.000000 283.000000
135.000000 286.000000
167.000000 290.000000
199.000000 283.000000
217.000000 279.000000
231.000000 272.000000
245.000000 254.000000
252.000000 229.000000
259.000000 204.000000
263.000000 183.000000
266.000000 155.000000
81.000000 130.000000
92.000000 119.000000
110.000000 112.000000
124.000000 112.000000
138.000000 112.000000
188.000000 112.000000
202.000000 108.000000
217.000000 108.000000
231.000000 115.000000
245.000000 126.000000
163.000000 140.000000
163.000000 158.000000
163.000000 172.000000
163.000000 183.000000
149.000000 197.000000
156.000000 201.000000
163.000000 201.000000
174.000000 201.000000
181.000000 197.000000
103.000000 147.000000
113.000000 144.000000
124.000000 140.000000
138.000000 147.000000
128.000000 151.000000
113.000000 151.000000
192.000000 144.000000
202.000000 140.000000
213.000000 140.000000
224.000000 144.000000
213.000000 147.000000
202.000000 147.000000
131.000000 236.000000
142.000000 226.000000
156.000000 219.000000
167.000000 219.000000
174.000000 219.000000
188.000000 222.000000
202.000000 233.000000
188.000000 236.000000
178.000000 240.000000
167.000000 240.000000
156.000000 240.000000
145.000000 236.000000
135.000000 236.000000
156.000000 229.000000
167.000000 226.000000
178.000000 229.000000
199.000000 233.000000
178.000000 229.000000
167.000000 229.000000
156.000000 229.000000
}
