version: 1
n_points: 68
{
61.000000 166.000000
68.000000 190.000000
71.000000 211.000000
78.000000 232.000000
89.000000 253.000000
103.000000 264.000000
120.000000 267.000000
138.000000 267.000000
169.000000 267.000000
197.000000 267.000000
218.000000 264.000000
232.000000 260.000000
246.000000 246.000000
253.000000 225.000000
256.000000 204.000000
263.000000 180.000000
267.000000 155.000000
85.000000 131.000000
96.000000 120.000000
110.000000 117.000000
124.000000 117.000000
138.000000 117.000000
190.000000 117.000000
201.000000 113.000000
215.000000 113.000000
232.000000 117.000000
243.000000 124.000000
162.000000 141.000000
166.000000 155.000000
162.000000 169.000000
166.000000 183.000000
148.000000 194.000000
159.000000 194.000000
166.000000 194.000000
176.000000 194.000000
183.000000 190.000000
103.000000 148.000000
113.000000 141.000000
127.000000 141.000000
138.000000 145.000000
127.000000 148.000000
113.000000 148.000000
190.000000 145.000000
201.000000 138.000000
215.000000 138.000000
222.000000 141.000000
215.000000 145.000000
201.000000 145.000000
138.000000 222.000000
148.000000 211.000000
159.000000 204.000000
166.000000 204.000000
173.000000 204.000000
187.000000 211.000000
197.000000 222.000000
187.000000 225.000000
176.000000 225.000000
169.000000 229.000000
159.000000 229.000000
148.000000 225.000000
141.000000 222.000000
159.000000 215.000000
166.000000 215.000000
176.000000 215.000000
194.000000 218.000000
176.000000 215.000000
166.000000 215.000000
159.000000 215.000000
}
