version: 1
n_points: 68
{
64.000000 164.000000
68.000000 188.000000
71.000000 213.000000
79.000000 234.000000
89.000000 256.000000
103.000000 270.000000
117.000000 277.000000
135.000000 280.000000
167.000000 280.000000
195.000000 277.000000
217.000000 273.000000
231.000000 266.000000
245.000000 249.000000
252.000000 227.000000
259.000000 203.000000
263.000000 181.000000
266.000000 153.000000
82.000000 128.000000
93.000000 121.000000
110.000000 114.000000
125.000000 114.000000
135.000000 118.000000
188.000000 118.000000
202.000000 114.000000
213.000000 111.000000
231.000000 114.000000
245.000000 125.000000
163.000000 139.000000
163.000000 157.000000
160.000000 171.000000
163.000000 185.000000
149.000000 195.000000
156.000000 195.000000
163.000000 199.000000
174.000000 195.000000
181.000000 195.000000
103.000000 146.000000
114.000000 142.000000
125.000000 142.000000
135.000000 146.000000
125.000000 149.000000
114.000000 149.000000
188.000000 142.000000
202.000000 139.000000
213.000000 139.000000
224.000000 142.000000
213.000000 146.000000
199.000000 146.000000
135.000000 227.000000
142.000000 217.000000
156.000000 213.000000
163.000000 213.000000
171.000000 213.000000
188.000000 220.000000
199.000000 227.000000
185.000000 231.000000
178.000000 231.000000
167.000000 234.000000
156.000000 234.000000
146.000000 231.000000
135.000000 227.000000
156.000000 224.000000
163.000000 224.000000
174.000000 224.000000
195.000000 227.000000
174.000000 220.000000
163.000000 220.000000
156.000000 220.000000
}
