version: 1
n_points: 68
{
64.000000 168.000000
68.000000 192.000000
75.000000 216.000000
82.000000 237.000000
92.000000 261.000000
106.000000 275.000000
120.000000 278.000000
137.000000 282.000000
168.000000 285.000000
199.000000 278.000000
217.000000 275.000000
231.000000 268.000000
244.000000 251.000000
251.000000 227.000000
255.000000 206.000000
262.000000 181.000000
265.000000 157.000000
82.000000 133.000000
96.000000 119.000000
109.000000 116.000000
123.000000 112.000000
137.000000 116.000000
189.000000 116.000000
203.000000 112.000000
217.000000 112.000000
231.000000 116.000000
244.000000 126.000000
165.000000 143.000000
165.000000 161.000000
161.000000 175.000000
165.000000 188.000000
147.000000 199.000000
158.000000 199.000000
165.000000 199.000000
175.000000 199.000000
182.000000 195.000000
102.000000 150.000000
113.000000 143.000000
127.000000 143.000000
137.000000 147.000000
127.000000 150.000000
113.000000 154.000000
189.000000 147.000000
203.000000 140.000000
213.000000 140.000000
224.000000 143.000000
213.000000 150.000000
199.000000 150.000000
137.000000 230.000000
147.000000 220.000000
158.000000 209.000000
165.000000 209.000000
172.000000 209.000000
186.000000 216.000000
196.000000 227.000000
186.000000 237.000000
175.000000 240.000000
165.000000 240.000000
154.000000 240.000000
147.000000 237.000000
141.000000 230.000000
158.000000 220.000000
165.000000 220.000000
175.000000 220.000000
193.000000 227.000000
175.000000 227.000000
165.000000 230.000000
158.000000 230.000000
}
