version: 1
n_points: 68
{
64.000000 166.000000
68.000000 194.000000
75.000000 219.000000
81.000000 240.000000
92.000000 260.000000
106.000000 274.000000
123.000000 278.000000
137.000000 281.000000
169.000000 281.000000
200.000000 274.000000
217.000000 271.000000
231.000000 264.000000
245.000000 250.000000
252.000000 229.000000
256.000000 205.000000
263.000000 184.000000
263.000000 156.000000
81.000000 132.000000
95.000000 121.000000
109.000000 114.000000
123.000000 114.000000
137.000000 114.000000
189.000000 114.000000
200.000000 111.000000
214.000000 111.000000
231.000000 118.000000
242.000000 125.000000
165.000000 146.000000
162.000000 163.000000
162.000000 177.000000
165.000000 187.000000
151.000000 201.000000
158.000000 201.000000
165.000000 201.000000
175.000000 198.000000
182.000000 198.000000
102.000000 153.000000
113.000000 146.000000
123.000000 142.000000
137.000000 149.000000
127.000000 153.000000
113.000000 153.000000
189.000000 146.000000
203.000000 142.000000
214.000000 142.000000
224.000000 146.000000
214.000000 149.000000
200.000000 149.000000
141.000000 233.000000
148.000000 222.000000
158.000000 212.000000
165.000000 212.000000
172.000000 212.000000
186.000000 219.000000
196.000000 229.000000
186.000000 236.000000
179.000000 240.000000
169.000000 243.000000
158.000000 243.000000
148.000000 240.000000
141.000000 233.000000
158.000000 222.000000
165.000000 222.000000
175.000000 222.000000
193.000000 229.000000
175.000000 229.000000
165.000000 229.000000
158.000000 229.000000
}
