version: 1
n_points: 68
{
65.000000 167.000000
68.000000 192.000000
72.000000 216.000000
79.000000 237.000000
89.000000 257.000000
103.000000 271.000000
117.000000 278.000000
134.000000 278.000000
169.000000 282.000000
196.000000 275.000000
217.000000 271.000000
231.000000 264.000000
245.000000 247.000000
252.000000 226.000000
259.000000 202.000000
262.000000 181.000000
265.000000 154.000000
82.000000 133.000000
92.000000 122.000000
110.000000 115.000000
124.000000 115.000000
137.000000 119.000000
186.000000 115.000000
200.000000 115.000000
214.000000 112.000000
231.000000 115.000000
241.000000 126.000000
162.000000 143.000000
162.000000 160.000000
162.000000 174.000000
165.000000 188.000000
148.000000 195.000000
155.000000 199.000000
165.000000 199.000000
175.000000 195.000000
182.000000 195.000000
103.000000 150.000000
113.000000 143.000000
124.000000 143.000000
137.000000 147.000000
127.000000 150.000000
113.000000 154.000000
189.000000 143.000000
200.000000 140.000000
214.000000 140.000000
224.000000 143.000000
214.000000 150.000000
200.000000 147.000000
137.000000 230.000000
144.000000 216.000000
158.000000 209.000000
165.000000 209.000000
172.000000 205.000000
186.000000 212.000000
196.000000 226.000000
186.000000 233.000000
175.000000 237.000000
165.000000 240.000000
155.000000 237.000000
148.000000 233.000000
137.000000 226.000000
158.000000 219.000000
165.000000 216.000000
175.000000 219.000000
193.000000 226.000000
175.000000 226.000000
165.000000 226.000000
155.000000 226.000000
}
