version: 1
n_points: 68
{
65.000000 169.000000
68.000000 194.000000
76.000000 220.000000
83.000000 241.000000
94.000000 267.000000
112.000000 289.000000
126.000000 300.000000
145.000000 307.000000
177.000000 310.000000
203.000000 300.000000
221.000000 289.000000
232.000000 278.000000
246.000000 256.000000
253.000000 234.000000
257.000000 209.000000
261.000000 183.000000
264.000000 158.000000
83.000000 133.000000
94.000000 118.000000
108.000000 114.000000
123.000000 111.000000
137.000000 114.000000
188.000000 114.000000
203.000000 111.000000
217.000000 111.000000
232.000000 118.000000
243.000000 125.000000
163.000000 143.000000
163.000000 162.000000
163.000000 176.000000
163.000000 191.000000
152.000000 209.000000
155.000000 209.000000
166.000000 212.000000
174.000000 209.000000
181.000000 209.000000
105.000000 151.000000
112.000000 143.000000
126.000000 143.000000
137.000000 151.000000
126.000000 154.000000
112.000000 154.000000
192.000000 147.000000
203.000000 140.000000
214.000000 140.000000
224.000000 147.000000
214.000000 151.000000
203.000000 151.000000
141.000000 256.000000
148.000000 245.000000
159.000000 234.000000
166.000000 234.000000
174.000000 234.000000
188.000000 241.000000
195.000000 252.000000
188.000000 260.000000
177.000000 267.000000
170.000000 271.000000
159.000000 267.000000
148.000000 263.000000
145.000000 256.000000
159.000000 249.000000
166.000000 245.000000
174.000000 245.000000
192.000000 252.000000
177.000000 252.000000
166.000000 256.000000
159.000000 252.000000
}
