version: 1
n_points: 68
{
65.000000 160.000000
65.000000 186.000000
73.000000 208.000000
76.000000 231.000000
88.000000 257.000000
99.000000 276.000000
114.000000 287.000000
136.000000 294.000000
166.000000 305.000000
196.000000 298.000000
214.000000 283.000000
229.000000 272.000000
244.000000 253.000000
252.000000 227.000000
256.000000 205.000000
259.000000 179.000000
263.000000 152.000000
84.000000 130.000000
95.000000 123.000000
110.000000 119.000000
125.000000 119.000000
136.000000 119.000000
188.000000 119.000000
200.000000 115.000000
214.000000 115.000000
229.000000 119.000000
244.000000 126.000000
162.000000 141.000000
162.000000 156.000000
159.000000 171.000000
159.000000 182.000000
144.000000 197.000000
151.000000 197.000000
162.000000 197.000000
173.000000 197.000000
181.000000 197.000000
103.000000 145.000000
114.000000 141.000000
125.000000 141.000000
136.000000 145.000000
125.000000 149.000000
114.000000 149.000000
188.000000 145.000000
200.000000 141.000000
211.000000 141.000000
222.000000 145.000000
211.000000 149.000000
200.000000 149.000000
129.000000 238.000000
136.000000 223.000000
155.000000 216.000000
162.000000 216.000000
173.000000 216.000000
192.000000 223.000000
203.000000 238.000000
192.000000 257.000000
181.000000 268.000000
166.000000 268.000000
151.000000 268.000000
140.000000 261.000000
129.000000 238.000000
151.000000 227.000000
162.000000 223.000000
177.000000 227.000000
203.000000 238.000000
177.000000 257.000000
166.000000 257.000000
155.000000 257.000000
}
