version: 1
n_points: 68
{
61.000000 161.000000
65.000000 187.000000
73.000000 209.000000
76.000000 232.000000
84.000000 258.000000
99.000000 277.000000
114.000000 288.000000
136.000000 299.000000
166.000000 307.000000
196.000000 299.000000
215.000000 284.000000
230.000000 273.000000
245.000000 254.000000
252.000000 228.000000
256.000000 202.000000
260.000000 179.000000
264.000000 153.000000
84.000000 131.000000
95.000000 123.000000
110.000000 120.000000
121.000000 120.000000
136.000000 120.000000
189.000000 120.000000
200.000000 116.000000
215.000000 116.000000
230.000000 120.000000
241.000000 127.000000
163.000000 142.000000
163.000000 157.000000
159.000000 172.000000
159.000000 183.000000
144.000000 194.000000
151.000000 198.000000
163.000000 198.000000
174.000000 198.000000
181.000000 194.000000
103.000000 146.000000
114.000000 142.000000
125.000000 142.000000
136.000000 146.000000
125.000000 149.000000
114.000000 149.000000
189.000000 146.000000
200.000000 142.000000
211.000000 142.000000
222.000000 146.000000
211.000000 146.000000
200.000000 146.000000
129.000000 239.000000
136.000000 224.000000
155.000000 213.000000
163.000000 217.000000
174.000000 213.000000
192.000000 221.000000
207.000000 239.000000
192.000000 258.000000
181.000000 269.000000
166.000000 273.000000
151.000000 273.000000
140.000000 262.000000
129.000000 239.000000
151.000000 224.000000
163.000000 224.000000
178.000000 224.000000
204.000000 239.000000
178.000000 258.000000
166.000000 262.000000
155.000000 258.000000
}
