version: 1
n_points: 68
{
62.000000 167.000000
65.000000 192.000000
72.000000 217.000000
80.000000 239.000000
90.000000 261.000000
105.000000 279.000000
119.000000 286.000000
137.000000 293.000000
170.000000 300.000000
199.000000 293.000000
217.000000 282.000000
231.000000 275.000000
242.000000 254.000000
249.000000 232.000000
257.000000 207.000000
260.000000 181.000000
264.000000 156.000000
83.000000 131.000000
94.000000 120.000000
109.000000 113.000000
123.000000 113.000000
134.000000 116.000000
188.000000 113.000000
199.000000 113.000000
213.000000 109.000000
231.000000 116.000000
242.000000 124.000000
163.000000 142.000000
163.000000 160.000000
163.000000 171.000000
163.000000 185.000000
148.000000 199.000000
155.000000 203.000000
163.000000 203.000000
174.000000 199.000000
181.000000 199.000000
101.000000 149.000000
112.000000 145.000000
123.000000 142.000000
137.000000 149.000000
127.000000 152.000000
112.000000 152.000000
188.000000 145.000000
202.000000 142.000000
213.000000 142.000000
224.000000 145.000000
213.000000 149.000000
199.000000 149.000000
134.000000 243.000000
145.000000 228.000000
159.000000 221.000000
166.000000 221.000000
174.000000 221.000000
188.000000 228.000000
199.000000 243.000000
188.000000 250.000000
177.000000 257.000000
166.000000 257.000000
155.000000 257.000000
145.000000 250.000000
137.000000 243.000000
155.000000 232.000000
166.000000 232.000000
177.000000 232.000000
199.000000 239.000000
177.000000 243.000000
166.000000 243.000000
155.000000 243.000000
}
