version: 1
n_points: 68
{
60.000000 159.000000
63.000000 185.000000
67.000000 208.000000
74.000000 234.000000
82.000000 260.000000
97.000000 279.000000
116.000000 290.000000
134.000000 301.000000
168.000000 312.000000
198.000000 301.000000
220.000000 286.000000
235.000000 275.000000
246.000000 252.000000
254.000000 226.000000
257.000000 200.000000
261.000000 178.000000
265.000000 152.000000
82.000000 129.000000
93.000000 125.000000
108.000000 122.000000
123.000000 122.000000
138.000000 125.000000
187.000000 122.000000
198.000000 118.000000
213.000000 118.000000
228.000000 122.000000
243.000000 129.000000
160.000000 144.000000
160.000000 159.000000
160.000000 174.000000
160.000000 189.000000
145.000000 196.000000
153.000000 200.000000
164.000000 200.000000
175.000000 200.000000
183.000000 196.000000
104.000000 148.000000
116.000000 144.000000
123.000000 144.000000
138.000000 148.000000
127.000000 152.000000
112.000000 152.000000
190.000000 144.000000
201.000000 140.000000
213.000000 144.000000
220.000000 144.000000
213.000000 148.000000
198.000000 148.000000
123.000000 237.000000
134.000000 223.000000
153.000000 215.000000
164.000000 219.000000
175.000000 215.000000
198.000000 223.000000
209.000000 234.000000
194.000000 256.000000
183.000000 267.000000
168.000000 267.000000
153.000000 267.000000
138.000000 260.000000
127.000000 237.000000
149.000000 226.000000
164.000000 226.000000
179.000000 226.000000
209.000000 234.000000
179.000000 252.000000
168.000000 256.000000
153.000000 256.000000
}
