version: 1
n_points: 68
{
60.000000 159.000000
64.000000 185.000000
67.000000 207.000000
75.000000 233.000000
82.000000 259.000000
97.000000 278.000000
112.000000 289.000000
135.000000 300.000000
168.000000 308.000000
198.000000 300.000000
220.000000 285.000000
235.000000 274.000000
246.000000 252.000000
254.000000 226.000000
258.000000 200.000000
261.000000 177.000000
265.000000 151.000000
82.000000 133.000000
94.000000 125.000000
108.000000 121.000000
123.000000 121.000000
135.000000 125.000000
187.000000 121.000000
198.000000 121.000000
213.000000 118.000000
228.000000 121.000000
243.000000 129.000000
161.000000 144.000000
161.000000 162.000000
161.000000 174.000000
161.000000 188.000000
146.000000 200.000000
153.000000 200.000000
164.000000 203.000000
176.000000 200.000000
183.000000 196.000000
101.000000 147.000000
112.000000 147.000000
123.000000 144.000000
135.000000 147.000000
123.000000 151.000000
112.000000 151.000000
187.000000 147.000000
198.000000 140.000000
209.000000 144.000000
220.000000 147.000000
213.000000 147.000000
198.000000 147.000000
123.000000 237.000000
135.000000 226.000000
153.000000 218.000000
164.000000 218.000000
176.000000 215.000000
198.000000 222.000000
209.000000 233.000000
194.000000 256.000000
183.000000 263.000000
164.000000 267.000000
149.000000 267.000000
138.000000 259.000000
123.000000 237.000000
149.000000 226.000000
164.000000 226.000000
179.000000 226.000000
209.000000 233.000000
179.000000 252.000000
164.000000 256.000000
153.000000 256.000000
}
