version: 1
n_points: 68
{
60.000000 166.000000
64.000000 192.000000
68.000000 217.000000
75.000000 239.000000
86.000000 265.000000
100.000000 283.000000
119.000000 294.000000
137.000000 301.000000
170.000000 308.000000
199.000000 301.000000
221.000000 286.000000
235.000000 276.000000
246.000000 254.000000
253.000000 228.000000
257.000000 203.000000
261.000000 181.000000
264.000000 155.000000
78.000000 133.000000
89.000000 126.000000
108.000000 119.000000
122.000000 119.000000
133.000000 119.000000
188.000000 119.000000
199.000000 115.000000
213.000000 115.000000
228.000000 119.000000
242.000000 130.000000
162.000000 148.000000
162.000000 166.000000
162.000000 181.000000
162.000000 192.000000
148.000000 203.000000
155.000000 206.000000
162.000000 206.000000
173.000000 206.000000
184.000000 203.000000
100.000000 152.000000
111.000000 148.000000
122.000000 148.000000
133.000000 152.000000
122.000000 155.000000
111.000000 155.000000
188.000000 148.000000
199.000000 144.000000
213.000000 144.000000
224.000000 148.000000
213.000000 152.000000
199.000000 152.000000
126.000000 243.000000
137.000000 228.000000
155.000000 221.000000
166.000000 225.000000
177.000000 221.000000
195.000000 225.000000
213.000000 235.000000
195.000000 254.000000
184.000000 261.000000
170.000000 265.000000
155.000000 265.000000
140.000000 257.000000
126.000000 243.000000
151.000000 232.000000
166.000000 232.000000
180.000000 232.000000
210.000000 235.000000
180.000000 250.000000
170.000000 254.000000
155.000000 254.000000
}
