version: 1
n_points: 68
{
60.000000 165.000000
64.000000 194.000000
71.000000 216.000000
78.000000 241.000000
89.000000 263.000000
104.000000 281.000000
122.000000 292.000000
144.000000 307.000000
177.000000 310.000000
202.000000 300.000000
221.000000 285.000000
232.000000 274.000000
246.000000 252.000000
253.000000 227.000000
257.000000 205.000000
261.000000 179.000000
264.000000 154.000000
78.000000 136.000000
89.000000 125.000000
108.000000 117.000000
122.000000 117.000000
133.000000 121.000000
188.000000 117.000000
199.000000 114.000000
213.000000 114.000000
228.000000 117.000000
242.000000 128.000000
162.000000 146.000000
162.000000 165.000000
162.000000 179.000000
162.000000 190.000000
148.000000 205.000000
155.000000 205.000000
166.000000 208.000000
177.000000 205.000000
184.000000 205.000000
100.000000 154.000000
111.000000 146.000000
122.000000 146.000000
137.000000 150.000000
126.000000 154.000000
111.000000 157.000000
188.000000 150.000000
202.000000 143.000000
213.000000 143.000000
224.000000 146.000000
213.000000 154.000000
199.000000 154.000000
133.000000 249.000000
144.000000 234.000000
159.000000 223.000000
170.000000 223.000000
177.000000 223.000000
199.000000 227.000000
210.000000 241.000000
199.000000 263.000000
188.000000 274.000000
173.000000 278.000000
159.000000 278.000000
148.000000 267.000000
137.000000 249.000000
159.000000 238.000000
173.000000 234.000000
184.000000 234.000000
210.000000 241.000000
188.000000 259.000000
173.000000 263.000000
162.000000 263.000000
}
