version: 1
n_points: 68
{
63.000000 167.000000
67.000000 193.000000
74.000000 216.000000
82.000000 234.000000
93.000000 253.000000
112.000000 260.000000
127.000000 264.000000
142.000000 275.000000
175.000000 287.000000
201.000000 272.000000
216.000000 264.000000
231.000000 260.000000
246.000000 246.000000
254.000000 227.000000
258.000000 204.000000
261.000000 182.000000
265.000000 156.000000
82.000000 129.000000
93.000000 118.000000
108.000000 114.000000
123.000000 114.000000
134.000000 114.000000
186.000000 114.000000
201.000000 111.000000
213.000000 111.000000
228.000000 118.000000
243.000000 126.000000
160.000000 144.000000
160.000000 163.000000
160.000000 178.000000
164.000000 193.000000
153.000000 208.000000
160.000000 208.000000
168.000000 208.000000
175.000000 208.000000
183.000000 204.000000
104.000000 148.000000
112.000000 144.000000
123.000000 141.000000
138.000000 148.000000
127.000000 152.000000
112.000000 152.000000
190.000000 144.000000
201.000000 141.000000
213.000000 141.000000
224.000000 144.000000
213.000000 152.000000
198.000000 148.000000
145.000000 242.000000
153.000000 234.000000
160.000000 227.000000
168.000000 231.000000
175.000000 227.000000
186.000000 234.000000
194.000000 242.000000
186.000000 246.000000
179.000000 249.000000
171.000000 249.000000
164.000000 249.000000
156.000000 246.000000
145.000000 242.000000
164.000000 238.000000
171.000000 238.000000
179.000000 238.000000
190.000000 242.000000
179.000000 238.000000
171.000000 238.000000
164.000000 238.000000
}
