version: 1
n_points: 68
{
63.000000 168.000000
67.000000 194.000000
74.000000 216.000000
78.000000 235.000000
89.000000 257.000000
108.000000 272.000000
126.000000 276.000000
145.000000 287.000000
175.000000 294.000000
205.000000 287.000000
219.000000 272.000000
231.000000 265.000000
246.000000 250.000000
253.000000 227.000000
260.000000 205.000000
264.000000 183.000000
264.000000 157.000000
81.000000 130.000000
93.000000 119.000000
108.000000 116.000000
122.000000 116.000000
134.000000 116.000000
186.000000 116.000000
201.000000 112.000000
216.000000 112.000000
231.000000 116.000000
242.000000 127.000000
163.000000 145.000000
163.000000 164.000000
163.000000 175.000000
163.000000 190.000000
152.000000 205.000000
160.000000 205.000000
167.000000 209.000000
175.000000 205.000000
182.000000 205.000000
100.000000 149.000000
111.000000 145.000000
122.000000 142.000000
137.000000 149.000000
126.000000 153.000000
111.000000 153.000000
190.000000 145.000000
201.000000 142.000000
212.000000 142.000000
223.000000 145.000000
212.000000 149.000000
201.000000 149.000000
149.000000 257.000000
152.000000 235.000000
163.000000 224.000000
167.000000 224.000000
175.000000 224.000000
190.000000 235.000000
197.000000 253.000000
190.000000 265.000000
186.000000 276.000000
175.000000 280.000000
163.000000 280.000000
156.000000 272.000000
149.000000 253.000000
163.000000 239.000000
171.000000 235.000000
178.000000 235.000000
197.000000 253.000000
182.000000 265.000000
175.000000 268.000000
167.000000 268.000000
}
