version: 1
n_points: 68
{
63.000000 167.000000
67.000000 193.000000
74.000000 215.000000
78.000000 237.000000
93.000000 263.000000
107.000000 278.000000
126.000000 285.000000
148.000000 297.000000
182.000000 304.000000
207.000000 293.000000
222.000000 282.000000
233.000000 271.000000
245.000000 252.000000
256.000000 226.000000
259.000000 204.000000
263.000000 182.000000
263.000000 156.000000
81.000000 133.000000
93.000000 122.000000
107.000000 115.000000
122.000000 115.000000
137.000000 118.000000
189.000000 115.000000
200.000000 111.000000
215.000000 111.000000
230.000000 118.000000
245.000000 126.000000
163.000000 148.000000
163.000000 163.000000
163.000000 178.000000
163.000000 189.000000
152.000000 204.000000
159.000000 204.000000
167.000000 207.000000
178.000000 204.000000
185.000000 204.000000
104.000000 152.000000
111.000000 144.000000
126.000000 144.000000
137.000000 148.000000
126.000000 152.000000
115.000000 156.000000
189.000000 148.000000
200.000000 141.000000
215.000000 141.000000
222.000000 144.000000
215.000000 152.000000
200.000000 152.000000
144.000000 256.000000
148.000000 233.000000
163.000000 222.000000
170.000000 222.000000
178.000000 222.000000
196.000000 230.000000
207.000000 248.000000
200.000000 271.000000
189.000000 282.000000
178.000000 282.000000
163.000000 282.000000
156.000000 271.000000
144.000000 252.000000
163.000000 233.000000
174.000000 233.000000
182.000000 233.000000
207.000000 248.000000
185.000000 271.000000
178.000000 271.000000
167.000000 271.000000
}
