version: 1
n_points: 68
{
61.000000 168.000000
64.000000 193.000000
72.000000 219.000000
79.000000 240.000000
90.000000 266.000000
104.000000 284.000000
123.000000 295.000000
144.000000 306.000000
173.000000 309.000000
206.000000 298.000000
221.000000 284.000000
235.000000 273.000000
246.000000 251.000000
253.000000 229.000000
257.000000 204.000000
261.000000 179.000000
264.000000 153.000000
79.000000 135.000000
90.000000 124.000000
108.000000 117.000000
119.000000 117.000000
134.000000 120.000000
188.000000 117.000000
199.000000 113.000000
213.000000 113.000000
228.000000 120.000000
243.000000 128.000000
163.000000 150.000000
163.000000 164.000000
163.000000 179.000000
163.000000 193.000000
148.000000 208.000000
155.000000 208.000000
166.000000 208.000000
177.000000 204.000000
184.000000 204.000000
101.000000 153.000000
112.000000 150.000000
123.000000 146.000000
134.000000 153.000000
123.000000 157.000000
112.000000 157.000000
188.000000 150.000000
199.000000 146.000000
213.000000 142.000000
221.000000 150.000000
213.000000 153.000000
199.000000 153.000000
134.000000 248.000000
141.000000 233.000000
159.000000 222.000000
170.000000 226.000000
177.000000 222.000000
195.000000 226.000000
210.000000 240.000000
199.000000 259.000000
188.000000 269.000000
173.000000 273.000000
159.000000 273.000000
148.000000 266.000000
134.000000 248.000000
159.000000 237.000000
170.000000 233.000000
181.000000 233.000000
210.000000 240.000000
184.000000 259.000000
173.000000 262.000000
159.000000 259.000000
}
