version: 1
n_points: 68
{
64.000000 167.000000
68.000000 193.000000
75.000000 215.000000
83.000000 234.000000
94.000000 253.000000
112.000000 260.000000
124.000000 260.000000
142.000000 268.000000
176.000000 283.000000
202.000000 268.000000
217.000000 260.000000
232.000000 256.000000
243.000000 245.000000
254.000000 227.000000
258.000000 204.000000
262.000000 182.000000
266.000000 156.000000
83.000000 129.000000
94.000000 118.000000
109.000000 114.000000
124.000000 114.000000
135.000000 114.000000
187.000000 114.000000
202.000000 111.000000
213.000000 111.000000
232.000000 118.000000
243.000000 126.000000
161.000000 144.000000
165.000000 163.000000
165.000000 178.000000
165.000000 193.000000
154.000000 208.000000
161.000000 208.000000
168.000000 208.000000
176.000000 208.000000
183.000000 204.000000
105.000000 148.000000
112.000000 144.000000
124.000000 141.000000
139.000000 148.000000
127.000000 152.000000
112.000000 152.000000
191.000000 144.000000
202.000000 141.000000
213.000000 141.000000
225.000000 144.000000
213.000000 152.000000
202.000000 148.000000
142.000000 238.000000
150.000000 230.000000
161.000000 227.000000
168.000000 227.000000
176.000000 227.000000
187.000000 234.000000
195.000000 241.000000
187.000000 241.000000
180.000000 245.000000
172.000000 245.000000
161.000000 245.000000
154.000000 241.000000
146.000000 238.000000
161.000000 234.000000
168.000000 234.000000
180.000000 238.000000
191.000000 238.000000
180.000000 234.000000
172.000000 234.000000
161.000000 234.000000
}
