version: 1
n_points: 68
{
64.000000 169.000000
71.000000 194.000000
78.000000 216.000000
86.000000 235.000000
100.000000 253.000000
119.000000 264.000000
137.000000 268.000000
155.000000 271.000000
188.000000 282.000000
210.000000 275.000000
229.000000 268.000000
240.000000 260.000000
251.000000 246.000000
258.000000 224.000000
262.000000 205.000000
265.000000 180.000000
269.000000 154.000000
86.000000 132.000000
97.000000 117.000000
111.000000 114.000000
126.000000 114.000000
137.000000 114.000000
192.000000 114.000000
203.000000 110.000000
218.000000 110.000000
232.000000 117.000000
247.000000 125.000000
166.000000 147.000000
170.000000 161.000000
170.000000 180.000000
170.000000 191.000000
163.000000 205.000000
166.000000 205.000000
177.000000 209.000000
185.000000 205.000000
192.000000 202.000000
108.000000 150.000000
115.000000 143.000000
130.000000 143.000000
141.000000 147.000000
130.000000 150.000000
119.000000 154.000000
196.000000 147.000000
207.000000 143.000000
218.000000 139.000000
229.000000 147.000000
218.000000 150.000000
207.000000 150.000000
155.000000 249.000000
166.000000 235.000000
174.000000 227.000000
181.000000 227.000000
185.000000 227.000000
199.000000 235.000000
210.000000 242.000000
203.000000 249.000000
196.000000 257.000000
188.000000 257.000000
177.000000 257.000000
170.000000 253.000000
159.000000 246.000000
177.000000 238.000000
185.000000 238.000000
192.000000 238.000000
210.000000 242.000000
192.000000 246.000000
185.000000 246.000000
177.000000 246.000000
}
