version: 1
n_points: 68
{
63.000000 168.000000
70.000000 194.000000
77.000000 216.000000
85.000000 235.000000
100.000000 253.000000
118.000000 264.000000
137.000000 264.000000
155.000000 271.000000
188.000000 283.000000
210.000000 271.000000
225.000000 268.000000
236.000000 260.000000
251.000000 246.000000
258.000000 223.000000
262.000000 205.000000
266.000000 179.000000
269.000000 157.000000
85.000000 131.000000
96.000000 120.000000
111.000000 113.000000
125.000000 113.000000
140.000000 113.000000
192.000000 113.000000
203.000000 113.000000
218.000000 109.000000
232.000000 116.000000
247.000000 128.000000
166.000000 146.000000
170.000000 161.000000
170.000000 179.000000
170.000000 190.000000
162.000000 205.000000
166.000000 205.000000
177.000000 209.000000
185.000000 205.000000
192.000000 201.000000
107.000000 150.000000
114.000000 142.000000
129.000000 142.000000
140.000000 146.000000
129.000000 153.000000
118.000000 153.000000
196.000000 146.000000
207.000000 142.000000
218.000000 139.000000
229.000000 146.000000
218.000000 150.000000
207.000000 150.000000
155.000000 249.000000
166.000000 235.000000
173.000000 227.000000
181.000000 227.000000
185.000000 227.000000
199.000000 235.000000
210.000000 242.000000
203.000000 249.000000
196.000000 253.000000
188.000000 257.000000
177.000000 257.000000
166.000000 249.000000
159.000000 246.000000
177.000000 238.000000
185.000000 238.000000
192.000000 238.000000
210.000000 242.000000
192.000000 242.000000
185.000000 246.000000
177.000000 246.000000
}
