version: 1
n_points: 68
{
65.000000 164.000000
69.000000 190.000000
72.000000 213.000000
80.000000 235.000000
87.000000 261.000000
106.000000 280.000000
121.000000 291.000000
136.000000 306.000000
169.000000 317.000000
199.000000 310.000000
218.000000 295.000000
233.000000 280.000000
244.000000 261.000000
251.000000 235.000000
259.000000 209.000000
263.000000 187.000000
266.000000 161.000000
84.000000 131.000000
98.000000 120.000000
113.000000 116.000000
128.000000 112.000000
139.000000 116.000000
195.000000 116.000000
207.000000 112.000000
222.000000 112.000000
236.000000 120.000000
248.000000 131.000000
166.000000 146.000000
166.000000 164.000000
166.000000 176.000000
162.000000 190.000000
147.000000 205.000000
154.000000 205.000000
162.000000 209.000000
173.000000 205.000000
184.000000 205.000000
106.000000 149.000000
117.000000 146.000000
128.000000 146.000000
139.000000 149.000000
128.000000 153.000000
117.000000 153.000000
195.000000 149.000000
207.000000 146.000000
218.000000 146.000000
229.000000 149.000000
218.000000 153.000000
203.000000 153.000000
128.000000 250.000000
139.000000 231.000000
154.000000 224.000000
162.000000 224.000000
173.000000 224.000000
188.000000 235.000000
199.000000 250.000000
188.000000 269.000000
177.000000 276.000000
162.000000 280.000000
151.000000 280.000000
139.000000 269.000000
132.000000 250.000000
154.000000 235.000000
162.000000 235.000000
173.000000 235.000000
195.000000 250.000000
173.000000 265.000000
162.000000 269.000000
151.000000 265.000000
}
