version: 1
n_points: 68
{
66.000000 162.000000
70.000000 188.000000
73.000000 215.000000
77.000000 233.000000
88.000000 256.000000
99.000000 274.000000
114.000000 282.000000
133.000000 293.000000
163.000000 300.000000
193.000000 293.000000
211.000000 285.000000
226.000000 274.000000
241.000000 256.000000
253.000000 233.000000
260.000000 211.000000
264.000000 188.000000
267.000000 162.000000
88.000000 129.000000
99.000000 117.000000
114.000000 114.000000
129.000000 114.000000
140.000000 114.000000
193.000000 114.000000
208.000000 114.000000
223.000000 114.000000
238.000000 117.000000
249.000000 129.000000
167.000000 147.000000
167.000000 162.000000
163.000000 177.000000
163.000000 192.000000
148.000000 203.000000
152.000000 203.000000
163.000000 207.000000
174.000000 207.000000
182.000000 207.000000
107.000000 151.000000
118.000000 147.000000
129.000000 147.000000
140.000000 151.000000
129.000000 155.000000
118.000000 155.000000
193.000000 147.000000
204.000000 144.000000
219.000000 144.000000
226.000000 147.000000
219.000000 155.000000
204.000000 151.000000
126.000000 248.000000
137.000000 229.000000
152.000000 222.000000
159.000000 226.000000
167.000000 226.000000
182.000000 237.000000
189.000000 252.000000
178.000000 267.000000
167.000000 274.000000
155.000000 278.000000
140.000000 274.000000
133.000000 267.000000
129.000000 244.000000
148.000000 233.000000
159.000000 233.000000
170.000000 237.000000
189.000000 252.000000
167.000000 263.000000
155.000000 267.000000
144.000000 263.000000
}
