version: 1
n_points: 68
{
66.000000 165.000000
70.000000 195.000000
77.000000 218.000000
85.000000 240.000000
100.000000 262.000000
118.000000 277.000000
137.000000 288.000000
159.000000 300.000000
193.000000 303.000000
219.000000 292.000000
230.000000 281.000000
241.000000 270.000000
252.000000 251.000000
260.000000 229.000000
264.000000 203.000000
267.000000 180.000000
267.000000 154.000000
85.000000 132.000000
96.000000 121.000000
111.000000 113.000000
126.000000 113.000000
141.000000 113.000000
193.000000 113.000000
204.000000 113.000000
219.000000 113.000000
234.000000 117.000000
249.000000 128.000000
167.000000 147.000000
167.000000 162.000000
170.000000 177.000000
170.000000 192.000000
159.000000 206.000000
167.000000 206.000000
174.000000 206.000000
185.000000 206.000000
193.000000 203.000000
107.000000 151.000000
118.000000 147.000000
129.000000 147.000000
141.000000 151.000000
129.000000 154.000000
118.000000 154.000000
197.000000 147.000000
208.000000 143.000000
219.000000 143.000000
230.000000 147.000000
219.000000 151.000000
204.000000 151.000000
156.000000 251.000000
163.000000 236.000000
174.000000 225.000000
182.000000 225.000000
189.000000 225.000000
204.000000 232.000000
219.000000 244.000000
211.000000 262.000000
204.000000 270.000000
193.000000 273.000000
178.000000 270.000000
170.000000 266.000000
159.000000 251.000000
174.000000 240.000000
185.000000 236.000000
193.000000 236.000000
215.000000 244.000000
200.000000 259.000000
189.000000 259.000000
178.000000 259.000000
}
