version: 1
n_points: 68
{
66.000000 167.000000
70.000000 193.000000
77.000000 215.000000
84.000000 237.000000
96.000000 263.000000
111.000000 282.000000
129.000000 293.000000
148.000000 308.000000
181.000000 316.000000
211.000000 304.000000
226.000000 290.000000
237.000000 278.000000
248.000000 256.000000
256.000000 230.000000
260.000000 208.000000
263.000000 182.000000
267.000000 155.000000
84.000000 133.000000
96.000000 118.000000
111.000000 114.000000
125.000000 114.000000
140.000000 114.000000
193.000000 114.000000
207.000000 114.000000
219.000000 114.000000
233.000000 118.000000
248.000000 126.000000
166.000000 148.000000
166.000000 163.000000
166.000000 178.000000
166.000000 189.000000
155.000000 208.000000
159.000000 208.000000
170.000000 208.000000
181.000000 204.000000
189.000000 204.000000
107.000000 152.000000
118.000000 148.000000
129.000000 148.000000
140.000000 152.000000
129.000000 155.000000
118.000000 155.000000
193.000000 148.000000
207.000000 144.000000
219.000000 144.000000
226.000000 148.000000
219.000000 152.000000
204.000000 152.000000
140.000000 252.000000
148.000000 234.000000
163.000000 226.000000
174.000000 226.000000
181.000000 223.000000
200.000000 230.000000
211.000000 245.000000
204.000000 267.000000
193.000000 278.000000
178.000000 278.000000
163.000000 278.000000
152.000000 271.000000
140.000000 252.000000
163.000000 237.000000
174.000000 234.000000
185.000000 237.000000
207.000000 245.000000
189.000000 263.000000
178.000000 267.000000
166.000000 267.000000
}
