version: 1
n_points: 68
{
63.000000 167.000000
70.000000 193.000000
78.000000 215.000000
85.000000 238.000000
100.000000 256.000000
119.000000 267.000000
137.000000 271.000000
163.000000 286.000000
193.000000 289.000000
219.000000 278.000000
230.000000 267.000000
241.000000 260.000000
252.000000 245.000000
259.000000 223.000000
267.000000 201.000000
267.000000 178.000000
267.000000 152.000000
85.000000 130.000000
96.000000 119.000000
111.000000 112.000000
126.000000 112.000000
137.000000 115.000000
193.000000 115.000000
204.000000 112.000000
219.000000 112.000000
234.000000 115.000000
245.000000 126.000000
167.000000 145.000000
167.000000 163.000000
170.000000 178.000000
170.000000 189.000000
163.000000 208.000000
167.000000 208.000000
178.000000 208.000000
185.000000 204.000000
193.000000 204.000000
107.000000 152.000000
119.000000 149.000000
130.000000 145.000000
141.000000 149.000000
130.000000 152.000000
119.000000 152.000000
196.000000 149.000000
204.000000 145.000000
219.000000 145.000000
226.000000 145.000000
219.000000 152.000000
204.000000 152.000000
163.000000 252.000000
167.000000 238.000000
174.000000 226.000000
182.000000 226.000000
189.000000 223.000000
204.000000 230.000000
215.000000 241.000000
211.000000 256.000000
204.000000 264.000000
193.000000 267.000000
185.000000 267.000000
174.000000 260.000000
163.000000 252.000000
178.000000 238.000000
185.000000 234.000000
193.000000 234.000000
215.000000 241.000000
200.000000 252.000000
193.000000 256.000000
185.000000 256.000000
}
