version: 1
n_points: 68
{
66.000000 163.000000
69.000000 189.000000
77.000000 215.000000
84.000000 237.000000
92.000000 263.000000
110.000000 282.000000
125.000000 293.000000
144.000000 308.000000
177.000000 316.000000
207.000000 308.000000
222.000000 293.000000
233.000000 278.000000
248.000000 256.000000
256.000000 234.000000
259.000000 207.000000
263.000000 181.000000
267.000000 155.000000
84.000000 129.000000
99.000000 118.000000
114.000000 114.000000
129.000000 114.000000
140.000000 114.000000
196.000000 114.000000
207.000000 114.000000
222.000000 114.000000
237.000000 118.000000
248.000000 129.000000
166.000000 148.000000
166.000000 163.000000
166.000000 178.000000
166.000000 189.000000
151.000000 204.000000
159.000000 207.000000
166.000000 207.000000
177.000000 204.000000
185.000000 204.000000
107.000000 152.000000
118.000000 148.000000
129.000000 144.000000
140.000000 152.000000
129.000000 155.000000
118.000000 155.000000
196.000000 148.000000
207.000000 144.000000
218.000000 144.000000
229.000000 148.000000
218.000000 152.000000
207.000000 152.000000
136.000000 248.000000
144.000000 234.000000
162.000000 222.000000
170.000000 226.000000
177.000000 222.000000
196.000000 234.000000
207.000000 248.000000
196.000000 267.000000
185.000000 278.000000
174.000000 282.000000
159.000000 278.000000
148.000000 271.000000
136.000000 248.000000
159.000000 237.000000
170.000000 234.000000
181.000000 234.000000
207.000000 248.000000
181.000000 267.000000
170.000000 267.000000
159.000000 267.000000
}
