version: 1
n_points: 68
{
60.000000 164.000000
64.000000 190.000000
67.000000 216.000000
71.000000 234.000000
78.000000 256.000000
93.000000 275.000000
104.000000 282.000000
115.000000 290.000000
145.000000 293.000000
174.000000 286.000000
196.000000 279.000000
215.000000 271.000000
233.000000 253.000000
244.000000 231.000000
251.000000 209.000000
255.000000 183.000000
263.000000 157.000000
78.000000 131.000000
89.000000 120.000000
100.000000 116.000000
115.000000 116.000000
130.000000 116.000000
181.000000 116.000000
196.000000 113.000000
211.000000 113.000000
226.000000 116.000000
237.000000 127.000000
152.000000 146.000000
152.000000 164.000000
148.000000 179.000000
148.000000 190.000000
134.000000 205.000000
137.000000 205.000000
148.000000 209.000000
156.000000 209.000000
163.000000 209.000000
97.000000 150.000000
104.000000 146.000000
119.000000 146.000000
130.000000 153.000000
119.000000 153.000000
104.000000 157.000000
181.000000 150.000000
193.000000 142.000000
207.000000 142.000000
218.000000 150.000000
207.000000 153.000000
193.000000 153.000000
115.000000 245.000000
123.000000 234.000000
134.000000 227.000000
141.000000 227.000000
148.000000 227.000000
159.000000 238.000000
167.000000 253.000000
156.000000 256.000000
148.000000 260.000000
137.000000 260.000000
126.000000 260.000000
119.000000 253.000000
115.000000 245.000000
134.000000 238.000000
141.000000 238.000000
148.000000 242.000000
163.000000 249.000000
145.000000 249.000000
137.000000 249.000000
130.000000 249.000000
}
