version: 1
n_points: 68
{
60.000000 166.000000
60.000000 191.000000
67.000000 213.000000
75.000000 238.000000
82.000000 260.000000
100.000000 278.000000
114.000000 289.000000
132.000000 296.000000
161.000000 307.000000
194.000000 296.000000
215.000000 285.000000
230.000000 274.000000
241.000000 253.000000
248.000000 227.000000
251.000000 202.000000
255.000000 181.000000
259.000000 152.000000
75.000000 134.000000
85.000000 123.000000
100.000000 116.000000
114.000000 116.000000
125.000000 116.000000
179.000000 116.000000
194.000000 112.000000
208.000000 112.000000
222.000000 116.000000
237.000000 126.000000
154.000000 148.000000
154.000000 162.000000
150.000000 177.000000
150.000000 191.000000
140.000000 202.000000
147.000000 206.000000
154.000000 206.000000
165.000000 206.000000
176.000000 202.000000
93.000000 152.000000
103.000000 148.000000
114.000000 148.000000
129.000000 152.000000
118.000000 155.000000
103.000000 155.000000
183.000000 148.000000
194.000000 144.000000
204.000000 141.000000
215.000000 148.000000
204.000000 152.000000
194.000000 152.000000
118.000000 242.000000
129.000000 227.000000
147.000000 220.000000
154.000000 224.000000
165.000000 220.000000
186.000000 227.000000
201.000000 238.000000
186.000000 253.000000
172.000000 263.000000
158.000000 263.000000
143.000000 263.000000
132.000000 256.000000
121.000000 242.000000
143.000000 231.000000
158.000000 231.000000
168.000000 231.000000
197.000000 238.000000
172.000000 249.000000
158.000000 253.000000
143.000000 253.000000
}
