version: 1
n_points: 68
{
60.000000 161.000000
64.000000 186.000000
67.000000 208.000000
71.000000 233.000000
82.000000 258.000000
96.000000 276.000000
114.000000 287.000000
132.000000 294.000000
165.000000 302.000000
197.000000 294.000000
215.000000 280.000000
229.000000 269.000000
244.000000 248.000000
251.000000 222.000000
255.000000 201.000000
258.000000 176.000000
258.000000 150.000000
78.000000 122.000000
85.000000 107.000000
100.000000 100.000000
114.000000 96.000000
125.000000 100.000000
183.000000 96.000000
197.000000 93.000000
211.000000 96.000000
226.000000 104.000000
237.000000 118.000000
154.000000 143.000000
154.000000 161.000000
154.000000 176.000000
154.000000 190.000000
139.000000 204.000000
147.000000 204.000000
157.000000 204.000000
168.000000 204.000000
179.000000 201.000000
96.000000 150.000000
103.000000 143.000000
118.000000 143.000000
129.000000 150.000000
118.000000 154.000000
107.000000 154.000000
183.000000 147.000000
197.000000 143.000000
208.000000 140.000000
219.000000 143.000000
208.000000 150.000000
193.000000 150.000000
118.000000 237.000000
129.000000 226.000000
150.000000 219.000000
161.000000 222.000000
168.000000 219.000000
190.000000 222.000000
208.000000 233.000000
193.000000 251.000000
179.000000 258.000000
161.000000 262.000000
147.000000 262.000000
132.000000 255.000000
121.000000 237.000000
147.000000 230.000000
161.000000 230.000000
175.000000 230.000000
204.000000 233.000000
175.000000 248.000000
161.000000 248.000000
147.000000 248.000000
}
