version: 1
n_points: 68
{
59.000000 162.000000
63.000000 188.000000
70.000000 211.000000
78.000000 237.000000
85.000000 260.000000
104.000000 278.000000
119.000000 286.000000
137.000000 301.000000
167.000000 308.000000
197.000000 301.000000
216.000000 286.000000
227.000000 271.000000
242.000000 252.000000
250.000000 226.000000
254.000000 203.000000
257.000000 177.000000
257.000000 151.000000
78.000000 128.000000
85.000000 113.000000
100.000000 106.000000
115.000000 106.000000
130.000000 110.000000
182.000000 106.000000
197.000000 102.000000
209.000000 102.000000
227.000000 110.000000
239.000000 121.000000
156.000000 140.000000
156.000000 158.000000
156.000000 170.000000
156.000000 181.000000
141.000000 200.000000
149.000000 200.000000
160.000000 200.000000
167.000000 200.000000
175.000000 200.000000
96.000000 147.000000
108.000000 140.000000
119.000000 140.000000
130.000000 147.000000
119.000000 151.000000
108.000000 151.000000
186.000000 143.000000
197.000000 136.000000
209.000000 136.000000
220.000000 143.000000
209.000000 147.000000
194.000000 147.000000
130.000000 252.000000
137.000000 230.000000
152.000000 215.000000
160.000000 218.000000
167.000000 215.000000
182.000000 226.000000
190.000000 248.000000
182.000000 271.000000
175.000000 278.000000
164.000000 282.000000
149.000000 282.000000
141.000000 275.000000
134.000000 252.000000
149.000000 230.000000
160.000000 226.000000
171.000000 230.000000
190.000000 248.000000
171.000000 267.000000
160.000000 271.000000
152.000000 271.000000
}
