version: 1
n_points: 68
{
60.000000 161.000000
64.000000 187.000000
71.000000 214.000000
75.000000 236.000000
86.000000 262.000000
101.000000 281.000000
120.000000 292.000000
135.000000 299.000000
165.000000 311.000000
198.000000 299.000000
217.000000 288.000000
228.000000 273.000000
243.000000 255.000000
250.000000 229.000000
254.000000 202.000000
258.000000 180.000000
258.000000 154.000000
79.000000 128.000000
86.000000 117.000000
101.000000 109.000000
116.000000 105.000000
131.000000 109.000000
187.000000 105.000000
198.000000 102.000000
213.000000 102.000000
228.000000 109.000000
239.000000 120.000000
157.000000 143.000000
157.000000 161.000000
157.000000 173.000000
157.000000 187.000000
142.000000 202.000000
150.000000 202.000000
157.000000 202.000000
168.000000 202.000000
180.000000 202.000000
97.000000 150.000000
109.000000 143.000000
120.000000 143.000000
131.000000 150.000000
120.000000 154.000000
109.000000 154.000000
187.000000 146.000000
198.000000 139.000000
209.000000 139.000000
221.000000 143.000000
209.000000 150.000000
198.000000 150.000000
127.000000 247.000000
135.000000 229.000000
150.000000 221.000000
161.000000 221.000000
168.000000 217.000000
187.000000 229.000000
198.000000 243.000000
187.000000 262.000000
176.000000 273.000000
161.000000 273.000000
150.000000 273.000000
139.000000 266.000000
131.000000 247.000000
150.000000 232.000000
161.000000 232.000000
172.000000 232.000000
194.000000 243.000000
172.000000 258.000000
161.000000 262.000000
150.000000 258.000000
}
