version: 1
n_points: 68
{
61.000000 162.000000
65.000000 187.000000
68.000000 209.000000
75.000000 235.000000
83.000000 260.000000
97.000000 278.000000
112.000000 289.000000
134.000000 296.000000
166.000000 304.000000
195.000000 296.000000
213.000000 282.000000
232.000000 271.000000
242.000000 249.000000
250.000000 224.000000
253.000000 202.000000
257.000000 177.000000
261.000000 151.000000
79.000000 122.000000
86.000000 108.000000
101.000000 100.000000
115.000000 97.000000
126.000000 100.000000
184.000000 97.000000
199.000000 97.000000
213.000000 97.000000
228.000000 104.000000
239.000000 118.000000
155.000000 144.000000
155.000000 162.000000
155.000000 177.000000
155.000000 191.000000
141.000000 202.000000
148.000000 206.000000
159.000000 206.000000
170.000000 206.000000
177.000000 202.000000
97.000000 147.000000
104.000000 144.000000
119.000000 144.000000
130.000000 147.000000
119.000000 155.000000
108.000000 155.000000
184.000000 147.000000
199.000000 140.000000
210.000000 140.000000
221.000000 144.000000
210.000000 151.000000
195.000000 151.000000
119.000000 238.000000
130.000000 227.000000
152.000000 220.000000
159.000000 220.000000
170.000000 220.000000
192.000000 224.000000
206.000000 235.000000
192.000000 253.000000
177.000000 260.000000
163.000000 264.000000
148.000000 264.000000
134.000000 256.000000
123.000000 238.000000
148.000000 231.000000
159.000000 231.000000
173.000000 231.000000
206.000000 235.000000
173.000000 249.000000
163.000000 249.000000
148.000000 249.000000
}
