version: 1
n_points: 68
{
59.000000 162.000000
62.000000 182.000000
66.000000 205.000000
74.000000 225.000000
86.000000 249.000000
106.000000 264.000000
121.000000 264.000000
137.000000 268.000000
168.000000 264.000000
192.000000 260.000000
211.000000 256.000000
227.000000 252.000000
242.000000 237.000000
250.000000 213.000000
258.000000 194.000000
262.000000 170.000000
266.000000 147.000000
70.000000 108.000000
82.000000 92.000000
98.000000 80.000000
109.000000 76.000000
125.000000 76.000000
180.000000 76.000000
192.000000 72.000000
207.000000 76.000000
223.000000 84.000000
235.000000 100.000000
152.000000 108.000000
152.000000 119.000000
149.000000 127.000000
149.000000 143.000000
141.000000 166.000000
145.000000 166.000000
152.000000 166.000000
164.000000 162.000000
172.000000 162.000000
94.000000 123.000000
102.000000 115.000000
113.000000 115.000000
125.000000 119.000000
117.000000 123.000000
102.000000 127.000000
180.000000 115.000000
192.000000 112.000000
203.000000 112.000000
215.000000 115.000000
203.000000 119.000000
192.000000 119.000000
133.000000 221.000000
137.000000 198.000000
149.000000 186.000000
156.000000 186.000000
160.000000 186.000000
176.000000 198.000000
188.000000 217.000000
180.000000 225.000000
172.000000 221.000000
160.000000 280.000000
149.000000 280.000000
141.000000 217.000000
133.000000 221.000000
149.000000 198.000000
156.000000 198.000000
164.000000 198.000000
184.000000 217.000000
172.000000 209.000000
160.000000 205.000000
156.000000 205.000000
}
