version: 1
n_points: 68
{
56.000000 162.000000
60.000000 185.000000
64.000000 209.000000
72.000000 229.000000
84.000000 253.000000
100.000000 265.000000
120.000000 269.000000
136.000000 269.000000
163.000000 269.000000
191.000000 261.000000
211.000000 261.000000
227.000000 253.000000
242.000000 241.000000
250.000000 221.000000
258.000000 201.000000
262.000000 178.000000
266.000000 154.000000
72.000000 114.000000
84.000000 102.000000
100.000000 94.000000
112.000000 90.000000
128.000000 90.000000
179.000000 87.000000
191.000000 87.000000
207.000000 87.000000
223.000000 94.000000
238.000000 110.000000
155.000000 122.000000
151.000000 134.000000
151.000000 146.000000
151.000000 162.000000
143.000000 181.000000
147.000000 181.000000
155.000000 181.000000
163.000000 178.000000
171.000000 178.000000
96.000000 134.000000
104.000000 126.000000
116.000000 126.000000
128.000000 130.000000
116.000000 134.000000
104.000000 134.000000
183.000000 126.000000
195.000000 122.000000
207.000000 122.000000
215.000000 126.000000
207.000000 130.000000
191.000000 130.000000
136.000000 229.000000
139.000000 209.000000
151.000000 197.000000
155.000000 197.000000
163.000000 197.000000
175.000000 209.000000
183.000000 225.000000
179.000000 229.000000
175.000000 229.000000
167.000000 237.000000
151.000000 225.000000
143.000000 225.000000
136.000000 225.000000
151.000000 209.000000
155.000000 209.000000
167.000000 209.000000
183.000000 225.000000
171.000000 213.000000
163.000000 213.000000
155.000000 217.000000
}
