version: 1
n_points: 68
{
57.000000 160.000000
61.000000 184.000000
64.000000 208.000000
72.000000 227.000000
84.000000 251.000000
100.000000 263.000000
116.000000 263.000000
131.000000 263.000000
163.000000 266.000000
190.000000 255.000000
210.000000 259.000000
226.000000 255.000000
241.000000 239.000000
249.000000 223.000000
257.000000 200.000000
261.000000 176.000000
265.000000 152.000000
72.000000 113.000000
84.000000 97.000000
100.000000 90.000000
112.000000 90.000000
127.000000 90.000000
178.000000 86.000000
194.000000 86.000000
206.000000 86.000000
222.000000 93.000000
237.000000 105.000000
151.000000 117.000000
151.000000 133.000000
151.000000 145.000000
151.000000 156.000000
139.000000 180.000000
147.000000 176.000000
155.000000 180.000000
163.000000 176.000000
171.000000 176.000000
96.000000 133.000000
104.000000 125.000000
116.000000 125.000000
127.000000 129.000000
116.000000 133.000000
104.000000 133.000000
182.000000 125.000000
194.000000 121.000000
206.000000 121.000000
218.000000 125.000000
206.000000 129.000000
190.000000 129.000000
131.000000 223.000000
139.000000 208.000000
147.000000 196.000000
155.000000 196.000000
163.000000 196.000000
175.000000 208.000000
182.000000 223.000000
178.000000 223.000000
171.000000 219.000000
167.000000 215.000000
147.000000 219.000000
139.000000 223.000000
135.000000 223.000000
147.000000 208.000000
155.000000 208.000000
163.000000 208.000000
182.000000 223.000000
167.000000 208.000000
159.000000 208.000000
147.000000 208.000000
}
