version: 1
n_points: 68
{
57.000000 164.000000
61.000000 188.000000
65.000000 211.000000
73.000000 231.000000
85.000000 251.000000
100.000000 266.000000
116.000000 266.000000
132.000000 270.000000
167.000000 270.000000
190.000000 262.000000
210.000000 258.000000
226.000000 254.000000
241.000000 239.000000
249.000000 219.000000
257.000000 200.000000
261.000000 176.000000
265.000000 149.000000
73.000000 117.000000
85.000000 102.000000
100.000000 94.000000
112.000000 94.000000
124.000000 94.000000
179.000000 90.000000
194.000000 90.000000
206.000000 90.000000
222.000000 98.000000
237.000000 110.000000
155.000000 125.000000
151.000000 141.000000
151.000000 153.000000
151.000000 164.000000
143.000000 184.000000
147.000000 184.000000
155.000000 184.000000
163.000000 184.000000
171.000000 184.000000
92.000000 137.000000
104.000000 129.000000
116.000000 129.000000
128.000000 133.000000
116.000000 137.000000
104.000000 137.000000
182.000000 129.000000
194.000000 125.000000
206.000000 125.000000
218.000000 129.000000
206.000000 133.000000
194.000000 133.000000
135.000000 231.000000
139.000000 215.000000
151.000000 204.000000
155.000000 204.000000
163.000000 200.000000
175.000000 211.000000
186.000000 231.000000
179.000000 231.000000
175.000000 235.000000
167.000000 266.000000
155.000000 270.000000
143.000000 235.000000
135.000000 231.000000
151.000000 215.000000
159.000000 211.000000
167.000000 215.000000
182.000000 227.000000
171.000000 219.000000
163.000000 215.000000
159.000000 215.000000
}
