version: 1
n_points: 68
{
60.000000 157.000000
63.000000 180.000000
67.000000 202.000000
75.000000 221.000000
86.000000 244.000000
105.000000 259.000000
120.000000 263.000000
135.000000 263.000000
162.000000 263.000000
188.000000 255.000000
211.000000 255.000000
226.000000 248.000000
245.000000 233.000000
252.000000 214.000000
256.000000 195.000000
263.000000 172.000000
263.000000 150.000000
75.000000 104.000000
82.000000 89.000000
97.000000 82.000000
113.000000 74.000000
128.000000 74.000000
180.000000 74.000000
192.000000 70.000000
207.000000 74.000000
226.000000 82.000000
237.000000 101.000000
154.000000 101.000000
154.000000 112.000000
150.000000 123.000000
150.000000 135.000000
139.000000 161.000000
146.000000 157.000000
154.000000 157.000000
165.000000 157.000000
173.000000 157.000000
94.000000 123.000000
105.000000 116.000000
116.000000 116.000000
128.000000 120.000000
116.000000 123.000000
105.000000 123.000000
180.000000 116.000000
196.000000 108.000000
207.000000 112.000000
218.000000 116.000000
207.000000 120.000000
192.000000 120.000000
128.000000 221.000000
135.000000 191.000000
146.000000 176.000000
158.000000 176.000000
165.000000 176.000000
180.000000 191.000000
192.000000 218.000000
184.000000 225.000000
177.000000 218.000000
162.000000 270.000000
150.000000 270.000000
139.000000 252.000000
128.000000 218.000000
150.000000 191.000000
158.000000 187.000000
169.000000 191.000000
192.000000 214.000000
177.000000 206.000000
165.000000 202.000000
158.000000 202.000000
}
