version: 1
n_points: 68
{
60.000000 159.000000
63.000000 177.000000
67.000000 200.000000
75.000000 223.000000
86.000000 245.000000
105.000000 257.000000
120.000000 260.000000
135.000000 260.000000
162.000000 260.000000
188.000000 257.000000
211.000000 253.000000
226.000000 249.000000
245.000000 234.000000
252.000000 215.000000
260.000000 196.000000
263.000000 174.000000
267.000000 147.000000
75.000000 106.000000
82.000000 91.000000
97.000000 79.000000
112.000000 76.000000
128.000000 76.000000
180.000000 72.000000
192.000000 72.000000
207.000000 72.000000
222.000000 83.000000
237.000000 98.000000
154.000000 102.000000
154.000000 113.000000
150.000000 125.000000
150.000000 136.000000
139.000000 159.000000
146.000000 159.000000
154.000000 159.000000
165.000000 159.000000
173.000000 159.000000
94.000000 121.000000
105.000000 113.000000
116.000000 113.000000
128.000000 117.000000
116.000000 121.000000
105.000000 125.000000
180.000000 113.000000
192.000000 109.000000
207.000000 109.000000
214.000000 113.000000
207.000000 117.000000
192.000000 117.000000
128.000000 219.000000
135.000000 189.000000
146.000000 177.000000
154.000000 177.000000
165.000000 177.000000
180.000000 189.000000
192.000000 211.000000
184.000000 219.000000
177.000000 215.000000
169.000000 223.000000
154.000000 215.000000
143.000000 219.000000
128.000000 215.000000
146.000000 189.000000
158.000000 189.000000
169.000000 193.000000
188.000000 211.000000
173.000000 204.000000
162.000000 204.000000
158.000000 200.000000
}
