version: 1
n_points: 68
{
55.000000 158.000000
59.000000 180.000000
66.000000 199.000000
73.000000 224.000000
80.000000 246.000000
99.000000 261.000000
110.000000 272.000000
128.000000 279.000000
168.000000 279.000000
197.000000 275.000000
216.000000 268.000000
230.000000 257.000000
245.000000 239.000000
252.000000 217.000000
256.000000 195.000000
259.000000 173.000000
263.000000 147.000000
73.000000 111.000000
84.000000 96.000000
102.000000 85.000000
113.000000 82.000000
128.000000 82.000000
183.000000 82.000000
194.000000 78.000000
208.000000 82.000000
223.000000 89.000000
237.000000 104.000000
153.000000 111.000000
153.000000 122.000000
153.000000 133.000000
153.000000 144.000000
139.000000 166.000000
146.000000 166.000000
157.000000 166.000000
168.000000 166.000000
175.000000 166.000000
95.000000 126.000000
106.000000 122.000000
117.000000 118.000000
128.000000 126.000000
121.000000 126.000000
106.000000 129.000000
183.000000 122.000000
194.000000 118.000000
205.000000 118.000000
216.000000 122.000000
205.000000 126.000000
194.000000 122.000000
121.000000 224.000000
132.000000 195.000000
146.000000 180.000000
157.000000 180.000000
168.000000 180.000000
186.000000 195.000000
205.000000 224.000000
190.000000 246.000000
175.000000 257.000000
161.000000 261.000000
146.000000 257.000000
135.000000 250.000000
124.000000 224.000000
146.000000 195.000000
157.000000 191.000000
172.000000 195.000000
201.000000 224.000000
175.000000 246.000000
161.000000 250.000000
150.000000 246.000000
}
