version: 1
n_points: 68
{
55.000000 158.000000
58.000000 181.000000
66.000000 199.000000
73.000000 222.000000
84.000000 244.000000
99.000000 259.000000
114.000000 262.000000
133.000000 270.000000
166.000000 281.000000
200.000000 274.000000
214.000000 262.000000
229.000000 251.000000
244.000000 236.000000
251.000000 214.000000
255.000000 192.000000
263.000000 170.000000
266.000000 147.000000
73.000000 107.000000
84.000000 92.000000
99.000000 84.000000
114.000000 81.000000
129.000000 81.000000
181.000000 77.000000
196.000000 77.000000
211.000000 77.000000
225.000000 88.000000
237.000000 103.000000
155.000000 107.000000
155.000000 118.000000
151.000000 129.000000
151.000000 140.000000
140.000000 162.000000
148.000000 162.000000
155.000000 162.000000
166.000000 162.000000
174.000000 162.000000
96.000000 125.000000
107.000000 118.000000
118.000000 118.000000
129.000000 121.000000
118.000000 125.000000
107.000000 125.000000
185.000000 118.000000
192.000000 114.000000
207.000000 114.000000
218.000000 118.000000
207.000000 121.000000
192.000000 121.000000
125.000000 222.000000
133.000000 192.000000
148.000000 181.000000
159.000000 181.000000
166.000000 177.000000
185.000000 192.000000
200.000000 222.000000
188.000000 251.000000
177.000000 266.000000
162.000000 266.000000
151.000000 266.000000
136.000000 255.000000
125.000000 222.000000
148.000000 192.000000
159.000000 188.000000
170.000000 192.000000
200.000000 222.000000
177.000000 255.000000
162.000000 259.000000
151.000000 255.000000
}
