version: 1
n_points: 68
{
57.000000 160.000000
64.000000 179.000000
68.000000 201.000000
75.000000 224.000000
87.000000 242.000000
105.000000 257.000000
120.000000 257.000000
136.000000 257.000000
162.000000 257.000000
188.000000 254.000000
211.000000 254.000000
229.000000 250.000000
244.000000 231.000000
252.000000 212.000000
259.000000 194.000000
263.000000 171.000000
267.000000 149.000000
75.000000 103.000000
83.000000 88.000000
98.000000 81.000000
113.000000 77.000000
128.000000 77.000000
181.000000 73.000000
196.000000 73.000000
211.000000 73.000000
226.000000 85.000000
237.000000 100.000000
154.000000 103.000000
154.000000 115.000000
154.000000 122.000000
154.000000 134.000000
143.000000 160.000000
147.000000 156.000000
158.000000 160.000000
169.000000 156.000000
177.000000 160.000000
94.000000 122.000000
105.000000 115.000000
117.000000 115.000000
128.000000 119.000000
120.000000 122.000000
105.000000 122.000000
184.000000 115.000000
196.000000 111.000000
207.000000 111.000000
218.000000 115.000000
207.000000 119.000000
196.000000 119.000000
128.000000 216.000000
136.000000 190.000000
151.000000 175.000000
158.000000 179.000000
166.000000 175.000000
184.000000 190.000000
196.000000 216.000000
184.000000 220.000000
181.000000 216.000000
169.000000 220.000000
158.000000 216.000000
143.000000 220.000000
128.000000 212.000000
151.000000 190.000000
158.000000 186.000000
169.000000 190.000000
192.000000 212.000000
177.000000 205.000000
166.000000 205.000000
158.000000 201.000000
}
