version: 1
n_points: 68
{
57.000000 152.000000
61.000000 177.000000
68.000000 202.000000
71.000000 224.000000
82.000000 249.000000
96.000000 263.000000
111.000000 270.000000
129.000000 277.000000
161.000000 284.000000
196.000000 277.000000
218.000000 267.000000
232.000000 259.000000
246.000000 238.000000
253.000000 213.000000
257.000000 192.000000
261.000000 170.000000
261.000000 145.000000
75.000000 113.000000
86.000000 99.000000
100.000000 92.000000
114.000000 88.000000
129.000000 92.000000
182.000000 88.000000
196.000000 88.000000
211.000000 88.000000
225.000000 95.000000
239.000000 106.000000
157.000000 117.000000
157.000000 131.000000
154.000000 142.000000
154.000000 156.000000
139.000000 174.000000
146.000000 174.000000
157.000000 174.000000
171.000000 174.000000
179.000000 170.000000
96.000000 131.000000
107.000000 127.000000
118.000000 127.000000
129.000000 131.000000
121.000000 131.000000
107.000000 134.000000
186.000000 127.000000
196.000000 124.000000
207.000000 124.000000
218.000000 127.000000
207.000000 131.000000
193.000000 131.000000
118.000000 213.000000
129.000000 199.000000
150.000000 188.000000
161.000000 192.000000
171.000000 188.000000
193.000000 199.000000
211.000000 213.000000
193.000000 227.000000
179.000000 234.000000
161.000000 234.000000
146.000000 234.000000
132.000000 227.000000
118.000000 213.000000
146.000000 202.000000
161.000000 199.000000
175.000000 202.000000
207.000000 213.000000
175.000000 220.000000
161.000000 224.000000
146.000000 220.000000
}
