version: 1
n_points: 68
{
56.000000 155.000000
60.000000 180.000000
67.000000 205.000000
74.000000 226.000000
81.000000 251.000000
95.000000 265.000000
109.000000 272.000000
131.000000 279.000000
163.000000 286.000000
195.000000 279.000000
216.000000 269.000000
230.000000 262.000000
245.000000 240.000000
252.000000 215.000000
255.000000 194.000000
259.000000 169.000000
262.000000 144.000000
77.000000 112.000000
84.000000 98.000000
102.000000 87.000000
116.000000 84.000000
127.000000 87.000000
184.000000 84.000000
195.000000 84.000000
209.000000 84.000000
227.000000 91.000000
237.000000 105.000000
156.000000 112.000000
156.000000 126.000000
156.000000 137.000000
152.000000 148.000000
138.000000 169.000000
148.000000 169.000000
156.000000 169.000000
170.000000 169.000000
177.000000 169.000000
95.000000 130.000000
106.000000 123.000000
116.000000 123.000000
131.000000 126.000000
120.000000 130.000000
106.000000 130.000000
184.000000 123.000000
195.000000 119.000000
205.000000 119.000000
216.000000 123.000000
205.000000 126.000000
195.000000 126.000000
120.000000 215.000000
127.000000 198.000000
148.000000 183.000000
159.000000 187.000000
170.000000 183.000000
191.000000 194.000000
205.000000 215.000000
191.000000 230.000000
177.000000 237.000000
159.000000 237.000000
145.000000 240.000000
134.000000 233.000000
120.000000 215.000000
145.000000 198.000000
159.000000 198.000000
173.000000 198.000000
202.000000 215.000000
173.000000 226.000000
159.000000 226.000000
148.000000 226.000000
}
