version: 1
n_points: 68
{
57.000000 156.000000
60.000000 181.000000
67.000000 203.000000
71.000000 224.000000
82.000000 249.000000
96.000000 267.000000
110.000000 274.000000
128.000000 281.000000
160.000000 288.000000
196.000000 281.000000
214.000000 271.000000
228.000000 260.000000
243.000000 242.000000
250.000000 217.000000
253.000000 192.000000
257.000000 170.000000
260.000000 145.000000
74.000000 110.000000
85.000000 95.000000
99.000000 88.000000
114.000000 85.000000
128.000000 85.000000
182.000000 85.000000
196.000000 81.000000
210.000000 85.000000
225.000000 92.000000
239.000000 106.000000
157.000000 113.000000
157.000000 124.000000
153.000000 135.000000
153.000000 145.000000
139.000000 170.000000
146.000000 167.000000
157.000000 170.000000
167.000000 167.000000
178.000000 167.000000
96.000000 128.000000
107.000000 124.000000
117.000000 124.000000
128.000000 128.000000
121.000000 131.000000
107.000000 131.000000
182.000000 124.000000
196.000000 120.000000
207.000000 120.000000
217.000000 124.000000
207.000000 128.000000
192.000000 124.000000
121.000000 221.000000
128.000000 196.000000
146.000000 185.000000
157.000000 185.000000
167.000000 185.000000
189.000000 196.000000
203.000000 217.000000
189.000000 235.000000
175.000000 242.000000
160.000000 242.000000
146.000000 242.000000
132.000000 238.000000
121.000000 221.000000
146.000000 199.000000
160.000000 196.000000
171.000000 199.000000
203.000000 217.000000
175.000000 228.000000
160.000000 231.000000
146.000000 228.000000
}
