version: 1
n_points: 68
{
57.000000 153.000000
60.000000 182.000000
67.000000 203.000000
71.000000 225.000000
82.000000 250.000000
96.000000 268.000000
110.000000 275.000000
128.000000 282.000000
164.000000 285.000000
196.000000 278.000000
217.000000 271.000000
231.000000 260.000000
246.000000 243.000000
253.000000 218.000000
256.000000 196.000000
260.000000 171.000000
263.000000 146.000000
78.000000 118.000000
89.000000 104.000000
103.000000 100.000000
121.000000 96.000000
131.000000 100.000000
185.000000 96.000000
199.000000 96.000000
213.000000 96.000000
228.000000 104.000000
242.000000 114.000000
160.000000 129.000000
160.000000 143.000000
156.000000 153.000000
156.000000 168.000000
142.000000 182.000000
149.000000 182.000000
160.000000 186.000000
171.000000 182.000000
181.000000 182.000000
99.000000 136.000000
106.000000 132.000000
121.000000 132.000000
131.000000 136.000000
121.000000 139.000000
110.000000 139.000000
185.000000 132.000000
199.000000 129.000000
210.000000 129.000000
221.000000 132.000000
210.000000 136.000000
196.000000 136.000000
117.000000 221.000000
128.000000 207.000000
149.000000 200.000000
160.000000 200.000000
171.000000 200.000000
192.000000 207.000000
210.000000 218.000000
192.000000 232.000000
178.000000 239.000000
164.000000 239.000000
146.000000 239.000000
131.000000 236.000000
121.000000 221.000000
146.000000 211.000000
160.000000 207.000000
178.000000 211.000000
206.000000 218.000000
178.000000 228.000000
164.000000 228.000000
149.000000 228.000000
}
