version: 1
n_points: 68
{
57.000000 155.000000
60.000000 180.000000
67.000000 201.000000
71.000000 223.000000
82.000000 248.000000
96.000000 262.000000
110.000000 269.000000
128.000000 276.000000
164.000000 283.000000
196.000000 276.000000
217.000000 269.000000
231.000000 259.000000
246.000000 241.000000
253.000000 216.000000
256.000000 191.000000
260.000000 169.000000
263.000000 144.000000
75.000000 109.000000
85.000000 98.000000
100.000000 91.000000
114.000000 87.000000
128.000000 87.000000
181.000000 87.000000
196.000000 84.000000
210.000000 87.000000
224.000000 95.000000
239.000000 105.000000
157.000000 116.000000
157.000000 130.000000
153.000000 141.000000
153.000000 152.000000
139.000000 173.000000
146.000000 173.000000
157.000000 173.000000
171.000000 169.000000
178.000000 169.000000
96.000000 130.000000
107.000000 127.000000
117.000000 123.000000
128.000000 130.000000
121.000000 130.000000
107.000000 134.000000
185.000000 127.000000
196.000000 123.000000
206.000000 123.000000
217.000000 127.000000
206.000000 130.000000
196.000000 130.000000
117.000000 212.000000
128.000000 198.000000
149.000000 187.000000
160.000000 191.000000
171.000000 187.000000
192.000000 194.000000
210.000000 212.000000
192.000000 226.000000
178.000000 234.000000
164.000000 234.000000
146.000000 234.000000
132.000000 226.000000
117.000000 212.000000
146.000000 201.000000
160.000000 198.000000
174.000000 198.000000
206.000000 212.000000
178.000000 219.000000
164.000000 223.000000
146.000000 219.000000
}
