version: 1
n_points: 68
{
57.000000 153.000000
60.000000 178.000000
68.000000 200.000000
71.000000 225.000000
82.000000 246.000000
96.000000 264.000000
110.000000 271.000000
128.000000 278.000000
164.000000 281.000000
196.000000 278.000000
217.000000 271.000000
231.000000 260.000000
245.000000 239.000000
252.000000 214.000000
256.000000 193.000000
260.000000 171.000000
263.000000 146.000000
75.000000 111.000000
85.000000 97.000000
100.000000 89.000000
114.000000 86.000000
128.000000 89.000000
181.000000 86.000000
196.000000 82.000000
210.000000 86.000000
224.000000 93.000000
238.000000 107.000000
156.000000 114.000000
156.000000 129.000000
153.000000 139.000000
153.000000 150.000000
139.000000 171.000000
146.000000 171.000000
156.000000 171.000000
171.000000 171.000000
178.000000 171.000000
96.000000 129.000000
107.000000 125.000000
117.000000 125.000000
128.000000 129.000000
121.000000 132.000000
107.000000 132.000000
185.000000 125.000000
196.000000 121.000000
206.000000 121.000000
217.000000 125.000000
206.000000 129.000000
196.000000 129.000000
117.000000 214.000000
128.000000 196.000000
149.000000 185.000000
160.000000 189.000000
171.000000 185.000000
192.000000 196.000000
210.000000 214.000000
192.000000 228.000000
178.000000 235.000000
160.000000 235.000000
146.000000 235.000000
132.000000 228.000000
121.000000 214.000000
146.000000 200.000000
160.000000 196.000000
174.000000 200.000000
206.000000 214.000000
178.000000 221.000000
164.000000 225.000000
149.000000 221.000000
}
