version: 1
n_points: 68
{
63.000000 156.000000
67.000000 185.000000
70.000000 206.000000
77.000000 231.000000
84.000000 253.000000
99.000000 275.000000
113.000000 285.000000
131.000000 292.000000
163.000000 303.000000
196.000000 296.000000
214.000000 285.000000
228.000000 275.000000
242.000000 257.000000
250.000000 231.000000
253.000000 206.000000
260.000000 185.000000
264.000000 160.000000
81.000000 124.000000
95.000000 113.000000
110.000000 106.000000
124.000000 106.000000
138.000000 109.000000
192.000000 113.000000
203.000000 109.000000
217.000000 109.000000
235.000000 117.000000
246.000000 127.000000
163.000000 142.000000
163.000000 160.000000
160.000000 170.000000
160.000000 185.000000
146.000000 199.000000
153.000000 199.000000
163.000000 203.000000
174.000000 199.000000
181.000000 199.000000
102.000000 145.000000
113.000000 142.000000
124.000000 142.000000
138.000000 145.000000
128.000000 149.000000
113.000000 149.000000
189.000000 145.000000
203.000000 142.000000
214.000000 142.000000
225.000000 149.000000
214.000000 152.000000
199.000000 149.000000
128.000000 239.000000
138.000000 224.000000
153.000000 217.000000
163.000000 217.000000
171.000000 217.000000
189.000000 224.000000
199.000000 239.000000
189.000000 249.000000
174.000000 257.000000
163.000000 257.000000
149.000000 257.000000
138.000000 249.000000
131.000000 239.000000
153.000000 228.000000
163.000000 228.000000
174.000000 228.000000
196.000000 239.000000
174.000000 242.000000
163.000000 246.000000
153.000000 246.000000
}
