version: 1
n_points: 68
{
62.000000 156.000000
62.000000 181.000000
69.000000 207.000000
73.000000 228.000000
84.000000 253.000000
98.000000 271.000000
112.000000 282.000000
127.000000 289.000000
159.000000 300.000000
191.000000 293.000000
209.000000 286.000000
224.000000 275.000000
238.000000 257.000000
249.000000 232.000000
253.000000 207.000000
260.000000 185.000000
263.000000 160.000000
80.000000 120.000000
95.000000 110.000000
109.000000 106.000000
123.000000 106.000000
138.000000 110.000000
188.000000 110.000000
202.000000 110.000000
217.000000 110.000000
235.000000 113.000000
245.000000 128.000000
163.000000 138.000000
159.000000 156.000000
159.000000 171.000000
156.000000 181.000000
141.000000 196.000000
148.000000 196.000000
159.000000 199.000000
170.000000 199.000000
181.000000 196.000000
102.000000 142.000000
112.000000 138.000000
123.000000 138.000000
134.000000 146.000000
123.000000 146.000000
112.000000 146.000000
188.000000 146.000000
202.000000 138.000000
213.000000 142.000000
224.000000 146.000000
213.000000 149.000000
199.000000 149.000000
123.000000 235.000000
134.000000 221.000000
152.000000 214.000000
159.000000 217.000000
170.000000 214.000000
188.000000 225.000000
199.000000 235.000000
184.000000 246.000000
174.000000 253.000000
159.000000 253.000000
145.000000 253.000000
134.000000 246.000000
127.000000 235.000000
148.000000 225.000000
159.000000 225.000000
174.000000 225.000000
195.000000 235.000000
174.000000 239.000000
159.000000 242.000000
148.000000 239.000000
}
