version: 1
n_points: 68
{
61.000000 153.000000
61.000000 178.000000
65.000000 200.000000
72.000000 225.000000
79.000000 250.000000
93.000000 268.000000
108.000000 275.000000
126.000000 283.000000
158.000000 293.000000
187.000000 286.000000
209.000000 279.000000
226.000000 268.000000
241.000000 250.000000
248.000000 229.000000
255.000000 203.000000
259.000000 182.000000
262.000000 157.000000
79.000000 117.000000
90.000000 106.000000
108.000000 103.000000
119.000000 103.000000
133.000000 103.000000
187.000000 106.000000
201.000000 106.000000
216.000000 106.000000
230.000000 110.000000
241.000000 124.000000
158.000000 135.000000
158.000000 150.000000
158.000000 164.000000
155.000000 175.000000
140.000000 189.000000
147.000000 193.000000
158.000000 193.000000
169.000000 193.000000
176.000000 193.000000
97.000000 139.000000
108.000000 135.000000
122.000000 135.000000
133.000000 139.000000
122.000000 142.000000
108.000000 142.000000
187.000000 142.000000
198.000000 135.000000
209.000000 139.000000
219.000000 142.000000
209.000000 146.000000
198.000000 146.000000
115.000000 225.000000
126.000000 214.000000
147.000000 207.000000
158.000000 211.000000
165.000000 207.000000
187.000000 214.000000
201.000000 229.000000
187.000000 243.000000
173.000000 247.000000
158.000000 247.000000
144.000000 247.000000
129.000000 239.000000
119.000000 225.000000
144.000000 218.000000
158.000000 218.000000
173.000000 218.000000
201.000000 229.000000
173.000000 236.000000
158.000000 236.000000
144.000000 236.000000
}
