version: 1
n_points: 68
{
62.000000 160.000000
65.000000 189.000000
72.000000 211.000000
80.000000 236.000000
91.000000 258.000000
105.000000 276.000000
120.000000 287.000000
138.000000 298.000000
167.000000 305.000000
200.000000 298.000000
214.000000 287.000000
229.000000 276.000000
243.000000 258.000000
251.000000 233.000000
254.000000 211.000000
262.000000 185.000000
262.000000 160.000000
83.000000 127.000000
98.000000 116.000000
112.000000 113.000000
127.000000 109.000000
138.000000 113.000000
193.000000 116.000000
207.000000 113.000000
218.000000 113.000000
236.000000 116.000000
247.000000 127.000000
167.000000 145.000000
167.000000 164.000000
163.000000 178.000000
163.000000 193.000000
149.000000 207.000000
156.000000 207.000000
167.000000 207.000000
174.000000 207.000000
182.000000 204.000000
105.000000 149.000000
116.000000 145.000000
127.000000 142.000000
138.000000 149.000000
127.000000 153.000000
116.000000 153.000000
193.000000 149.000000
203.000000 145.000000
218.000000 145.000000
225.000000 149.000000
218.000000 153.000000
203.000000 153.000000
138.000000 244.000000
145.000000 233.000000
160.000000 225.000000
167.000000 225.000000
174.000000 222.000000
189.000000 233.000000
196.000000 244.000000
189.000000 255.000000
178.000000 262.000000
167.000000 262.000000
156.000000 262.000000
145.000000 255.000000
142.000000 244.000000
160.000000 236.000000
167.000000 236.000000
174.000000 236.000000
196.000000 244.000000
174.000000 247.000000
167.000000 247.000000
156.000000 247.000000
}
