version: 1
n_points: 68
{
63.000000 161.000000
67.000000 187.000000
71.000000 213.000000
78.000000 235.000000
89.000000 260.000000
104.000000 279.000000
122.000000 290.000000
137.000000 297.000000
166.000000 308.000000
199.000000 297.000000
214.000000 290.000000
228.000000 279.000000
239.000000 260.000000
250.000000 235.000000
254.000000 209.000000
258.000000 187.000000
261.000000 161.000000
82.000000 128.000000
96.000000 117.000000
111.000000 110.000000
126.000000 110.000000
137.000000 114.000000
192.000000 114.000000
203.000000 114.000000
217.000000 114.000000
236.000000 117.000000
247.000000 128.000000
166.000000 143.000000
166.000000 161.000000
162.000000 176.000000
162.000000 191.000000
148.000000 205.000000
155.000000 205.000000
166.000000 209.000000
173.000000 205.000000
181.000000 205.000000
104.000000 147.000000
115.000000 143.000000
126.000000 143.000000
137.000000 147.000000
126.000000 150.000000
115.000000 150.000000
192.000000 147.000000
203.000000 143.000000
217.000000 143.000000
225.000000 147.000000
214.000000 154.000000
203.000000 154.000000
140.000000 246.000000
144.000000 235.000000
159.000000 224.000000
166.000000 224.000000
173.000000 224.000000
188.000000 235.000000
195.000000 246.000000
188.000000 257.000000
177.000000 264.000000
166.000000 264.000000
155.000000 264.000000
148.000000 257.000000
140.000000 246.000000
159.000000 238.000000
166.000000 235.000000
173.000000 238.000000
192.000000 246.000000
173.000000 249.000000
166.000000 249.000000
155.000000 249.000000
}
