version: 1
n_points: 68
{
63.000000 158.000000
67.000000 187.000000
70.000000 209.000000
77.000000 231.000000
88.000000 256.000000
103.000000 274.000000
117.000000 285.000000
135.000000 292.000000
164.000000 303.000000
197.000000 296.000000
215.000000 285.000000
230.000000 274.000000
240.000000 256.000000
251.000000 231.000000
255.000000 209.000000
258.000000 184.000000
262.000000 158.000000
85.000000 126.000000
96.000000 115.000000
110.000000 108.000000
124.000000 108.000000
139.000000 111.000000
193.000000 115.000000
204.000000 111.000000
219.000000 111.000000
233.000000 118.000000
248.000000 126.000000
164.000000 144.000000
164.000000 158.000000
161.000000 173.000000
161.000000 187.000000
146.000000 202.000000
153.000000 202.000000
164.000000 205.000000
175.000000 202.000000
182.000000 202.000000
103.000000 147.000000
114.000000 140.000000
124.000000 140.000000
139.000000 147.000000
128.000000 151.000000
114.000000 151.000000
193.000000 147.000000
204.000000 144.000000
215.000000 144.000000
226.000000 147.000000
215.000000 151.000000
201.000000 151.000000
132.000000 242.000000
139.000000 227.000000
157.000000 220.000000
164.000000 220.000000
172.000000 220.000000
190.000000 227.000000
201.000000 242.000000
190.000000 256.000000
175.000000 260.000000
164.000000 263.000000
153.000000 260.000000
143.000000 252.000000
135.000000 242.000000
153.000000 231.000000
164.000000 231.000000
175.000000 231.000000
197.000000 242.000000
175.000000 249.000000
164.000000 249.000000
153.000000 249.000000
}
