version: 1
n_points: 68
{
60.000000 161.000000
67.000000 190.000000
71.000000 212.000000
78.000000 237.000000
89.000000 259.000000
104.000000 278.000000
118.000000 288.000000
137.000000 299.000000
166.000000 307.000000
195.000000 299.000000
213.000000 288.000000
228.000000 278.000000
239.000000 256.000000
250.000000 234.000000
254.000000 208.000000
257.000000 186.000000
261.000000 157.000000
82.000000 128.000000
93.000000 117.000000
107.000000 109.000000
122.000000 109.000000
137.000000 113.000000
191.000000 113.000000
202.000000 109.000000
217.000000 109.000000
232.000000 117.000000
243.000000 128.000000
162.000000 142.000000
162.000000 161.000000
162.000000 175.000000
162.000000 190.000000
148.000000 204.000000
155.000000 204.000000
162.000000 208.000000
173.000000 204.000000
180.000000 204.000000
104.000000 150.000000
115.000000 146.000000
126.000000 146.000000
137.000000 150.000000
126.000000 153.000000
115.000000 153.000000
188.000000 150.000000
202.000000 146.000000
213.000000 146.000000
221.000000 150.000000
213.000000 153.000000
199.000000 153.000000
137.000000 248.000000
144.000000 234.000000
159.000000 223.000000
162.000000 226.000000
169.000000 223.000000
184.000000 234.000000
195.000000 245.000000
184.000000 256.000000
173.000000 263.000000
162.000000 267.000000
151.000000 263.000000
144.000000 259.000000
140.000000 245.000000
155.000000 237.000000
162.000000 237.000000
173.000000 237.000000
191.000000 245.000000
173.000000 248.000000
162.000000 252.000000
155.000000 252.000000
}
