version: 1
n_points: 68
{
64.000000 162.000000
67.000000 191.000000
71.000000 213.000000
78.000000 239.000000
89.000000 261.000000
107.000000 279.000000
122.000000 290.000000
136.000000 301.000000
165.000000 308.000000
198.000000 301.000000
216.000000 290.000000
227.000000 279.000000
242.000000 261.000000
249.000000 235.000000
253.000000 210.000000
260.000000 188.000000
260.000000 159.000000
82.000000 126.000000
93.000000 115.000000
111.000000 111.000000
125.000000 111.000000
136.000000 111.000000
191.000000 115.000000
202.000000 111.000000
216.000000 111.000000
234.000000 115.000000
245.000000 130.000000
165.000000 144.000000
162.000000 162.000000
162.000000 177.000000
162.000000 191.000000
147.000000 206.000000
154.000000 206.000000
165.000000 210.000000
173.000000 206.000000
180.000000 206.000000
104.000000 148.000000
114.000000 144.000000
125.000000 144.000000
136.000000 148.000000
125.000000 151.000000
114.000000 151.000000
191.000000 148.000000
202.000000 144.000000
216.000000 144.000000
224.000000 148.000000
213.000000 151.000000
202.000000 151.000000
140.000000 250.000000
147.000000 235.000000
158.000000 224.000000
165.000000 228.000000
173.000000 224.000000
187.000000 235.000000
194.000000 250.000000
187.000000 257.000000
176.000000 264.000000
165.000000 268.000000
154.000000 268.000000
147.000000 261.000000
140.000000 246.000000
158.000000 239.000000
165.000000 239.000000
173.000000 239.000000
191.000000 246.000000
173.000000 250.000000
165.000000 253.000000
154.000000 253.000000
}
