version: 1
n_points: 68
{
63.000000 161.000000
66.000000 190.000000
74.000000 212.000000
81.000000 237.000000
88.000000 259.000000
107.000000 281.000000
121.000000 292.000000
139.000000 299.000000
169.000000 307.000000
198.000000 299.000000
212.000000 288.000000
227.000000 278.000000
242.000000 259.000000
249.000000 234.000000
253.000000 208.000000
260.000000 186.000000
260.000000 161.000000
81.000000 128.000000
96.000000 117.000000
110.000000 109.000000
125.000000 109.000000
136.000000 113.000000
191.000000 113.000000
201.000000 113.000000
216.000000 109.000000
234.000000 117.000000
245.000000 128.000000
165.000000 146.000000
161.000000 161.000000
161.000000 179.000000
161.000000 190.000000
150.000000 204.000000
154.000000 208.000000
165.000000 208.000000
172.000000 208.000000
180.000000 204.000000
103.000000 150.000000
114.000000 142.000000
125.000000 142.000000
136.000000 150.000000
125.000000 153.000000
114.000000 153.000000
191.000000 146.000000
201.000000 142.000000
216.000000 142.000000
223.000000 146.000000
216.000000 153.000000
201.000000 153.000000
139.000000 248.000000
147.000000 234.000000
158.000000 226.000000
165.000000 226.000000
172.000000 223.000000
187.000000 234.000000
194.000000 248.000000
187.000000 259.000000
176.000000 267.000000
165.000000 267.000000
154.000000 267.000000
147.000000 259.000000
139.000000 248.000000
158.000000 237.000000
165.000000 237.000000
172.000000 237.000000
191.000000 248.000000
172.000000 252.000000
165.000000 252.000000
158.000000 252.000000
}
