version: 1
n_points: 68
{
63.000000 162.000000
67.000000 187.000000
74.000000 213.000000
78.000000 239.000000
89.000000 261.000000
107.000000 279.000000
122.000000 290.000000
140.000000 301.000000
169.000000 308.000000
199.000000 301.000000
217.000000 290.000000
228.000000 279.000000
242.000000 257.000000
250.000000 235.000000
253.000000 209.000000
261.000000 187.000000
261.000000 158.000000
82.000000 129.000000
96.000000 114.000000
111.000000 111.000000
125.000000 111.000000
140.000000 114.000000
191.000000 114.000000
202.000000 111.000000
217.000000 111.000000
235.000000 118.000000
246.000000 129.000000
166.000000 144.000000
166.000000 162.000000
162.000000 176.000000
162.000000 191.000000
151.000000 206.000000
155.000000 206.000000
166.000000 209.000000
173.000000 206.000000
180.000000 206.000000
103.000000 147.000000
114.000000 144.000000
125.000000 144.000000
136.000000 147.000000
125.000000 151.000000
114.000000 151.000000
191.000000 147.000000
202.000000 144.000000
217.000000 144.000000
224.000000 147.000000
217.000000 155.000000
202.000000 151.000000
140.000000 246.000000
147.000000 235.000000
158.000000 224.000000
166.000000 224.000000
173.000000 224.000000
188.000000 235.000000
195.000000 246.000000
188.000000 257.000000
177.000000 264.000000
166.000000 264.000000
155.000000 264.000000
147.000000 257.000000
140.000000 246.000000
158.000000 239.000000
166.000000 235.000000
173.000000 239.000000
191.000000 246.000000
173.000000 250.000000
166.000000 250.000000
158.000000 250.000000
}
