version: 1
n_points: 68
{
60.000000 164.000000
64.000000 189.000000
71.000000 215.000000
78.000000 236.000000
89.000000 258.000000
104.000000 276.000000
118.000000 287.000000
136.000000 295.000000
165.000000 305.000000
198.000000 298.000000
216.000000 287.000000
227.000000 276.000000
242.000000 255.000000
249.000000 229.000000
252.000000 207.000000
260.000000 182.000000
263.000000 157.000000
82.000000 128.000000
93.000000 117.000000
107.000000 110.000000
122.000000 110.000000
136.000000 113.000000
191.000000 113.000000
202.000000 110.000000
216.000000 110.000000
231.000000 117.000000
245.000000 128.000000
162.000000 142.000000
162.000000 160.000000
162.000000 175.000000
162.000000 186.000000
147.000000 200.000000
154.000000 204.000000
162.000000 204.000000
173.000000 204.000000
180.000000 200.000000
104.000000 149.000000
111.000000 142.000000
125.000000 142.000000
136.000000 149.000000
125.000000 153.000000
111.000000 153.000000
191.000000 146.000000
202.000000 142.000000
213.000000 142.000000
223.000000 146.000000
213.000000 153.000000
202.000000 149.000000
129.000000 244.000000
140.000000 229.000000
154.000000 222.000000
162.000000 222.000000
173.000000 222.000000
187.000000 229.000000
202.000000 244.000000
187.000000 255.000000
176.000000 262.000000
165.000000 266.000000
151.000000 266.000000
144.000000 258.000000
133.000000 244.000000
154.000000 233.000000
165.000000 233.000000
176.000000 233.000000
198.000000 240.000000
176.000000 251.000000
165.000000 251.000000
154.000000 251.000000
}
