version: 1
n_points: 68
{
63.000000 165.000000
67.000000 190.000000
74.000000 216.000000
78.000000 237.000000
88.000000 263.000000
107.000000 281.000000
121.000000 292.000000
139.000000 299.000000
168.000000 306.000000
197.000000 299.000000
216.000000 288.000000
226.000000 277.000000
241.000000 259.000000
248.000000 234.000000
255.000000 208.000000
259.000000 187.000000
263.000000 158.000000
81.000000 129.000000
92.000000 118.000000
110.000000 110.000000
125.000000 110.000000
136.000000 110.000000
190.000000 114.000000
205.000000 110.000000
216.000000 110.000000
234.000000 114.000000
245.000000 129.000000
165.000000 143.000000
165.000000 161.000000
161.000000 176.000000
161.000000 190.000000
150.000000 205.000000
154.000000 205.000000
165.000000 208.000000
172.000000 205.000000
179.000000 205.000000
103.000000 150.000000
114.000000 143.000000
125.000000 143.000000
136.000000 147.000000
125.000000 150.000000
114.000000 154.000000
190.000000 147.000000
201.000000 143.000000
216.000000 143.000000
223.000000 147.000000
212.000000 150.000000
201.000000 150.000000
136.000000 248.000000
143.000000 234.000000
157.000000 223.000000
165.000000 227.000000
172.000000 223.000000
186.000000 234.000000
194.000000 245.000000
186.000000 256.000000
176.000000 266.000000
165.000000 266.000000
154.000000 266.000000
147.000000 259.000000
139.000000 245.000000
157.000000 237.000000
165.000000 237.000000
172.000000 237.000000
190.000000 245.000000
172.000000 248.000000
165.000000 252.000000
154.000000 252.000000
}
