version: 1
n_points: 68
{
63.000000 165.000000
66.000000 190.000000
74.000000 212.000000
77.000000 238.000000
92.000000 260.000000
106.000000 278.000000
121.000000 289.000000
139.000000 300.000000
168.000000 307.000000
198.000000 300.000000
216.000000 289.000000
227.000000 274.000000
241.000000 256.000000
249.000000 234.000000
256.000000 209.000000
260.000000 183.000000
263.000000 158.000000
81.000000 128.000000
92.000000 118.000000
110.000000 110.000000
125.000000 110.000000
136.000000 110.000000
190.000000 114.000000
201.000000 110.000000
216.000000 110.000000
234.000000 118.000000
245.000000 128.000000
165.000000 143.000000
161.000000 161.000000
161.000000 176.000000
161.000000 190.000000
150.000000 205.000000
154.000000 205.000000
165.000000 209.000000
172.000000 205.000000
179.000000 205.000000
103.000000 150.000000
114.000000 147.000000
125.000000 143.000000
136.000000 147.000000
125.000000 150.000000
114.000000 154.000000
190.000000 147.000000
201.000000 143.000000
216.000000 143.000000
223.000000 147.000000
212.000000 150.000000
201.000000 150.000000
139.000000 245.000000
147.000000 234.000000
157.000000 223.000000
165.000000 223.000000
172.000000 223.000000
187.000000 234.000000
194.000000 245.000000
187.000000 256.000000
176.000000 263.000000
165.000000 267.000000
154.000000 263.000000
147.000000 260.000000
139.000000 245.000000
157.000000 238.000000
165.000000 234.000000
172.000000 238.000000
194.000000 245.000000
172.000000 249.000000
165.000000 252.000000
157.000000 249.000000
}
