version: 1
n_points: 68
{
61.000000 164.000000
64.000000 189.000000
72.000000 211.000000
75.000000 233.000000
86.000000 258.000000
101.000000 276.000000
115.000000 287.000000
133.000000 294.000000
166.000000 305.000000
195.000000 298.000000
217.000000 287.000000
228.000000 276.000000
242.000000 254.000000
250.000000 229.000000
253.000000 207.000000
260.000000 182.000000
260.000000 156.000000
79.000000 127.000000
93.000000 116.000000
108.000000 109.000000
122.000000 109.000000
137.000000 113.000000
188.000000 113.000000
202.000000 109.000000
217.000000 109.000000
231.000000 116.000000
242.000000 127.000000
162.000000 142.000000
162.000000 160.000000
159.000000 174.000000
159.000000 185.000000
144.000000 200.000000
152.000000 204.000000
162.000000 204.000000
173.000000 204.000000
181.000000 200.000000
101.000000 149.000000
112.000000 142.000000
122.000000 142.000000
137.000000 149.000000
126.000000 153.000000
112.000000 153.000000
188.000000 145.000000
202.000000 142.000000
213.000000 142.000000
224.000000 145.000000
213.000000 153.000000
199.000000 149.000000
130.000000 240.000000
137.000000 229.000000
155.000000 222.000000
162.000000 222.000000
173.000000 222.000000
191.000000 229.000000
202.000000 240.000000
191.000000 254.000000
177.000000 262.000000
166.000000 262.000000
152.000000 262.000000
141.000000 254.000000
130.000000 240.000000
152.000000 233.000000
162.000000 233.000000
177.000000 233.000000
199.000000 240.000000
177.000000 247.000000
166.000000 247.000000
152.000000 247.000000
}
