version: 1
n_points: 68
{
61.000000 159.000000
64.000000 188.000000
68.000000 210.000000
75.000000 231.000000
86.000000 256.000000
100.000000 274.000000
115.000000 285.000000
133.000000 292.000000
165.000000 300.000000
194.000000 292.000000
215.000000 285.000000
230.000000 271.000000
244.000000 253.000000
251.000000 228.000000
255.000000 206.000000
259.000000 181.000000
262.000000 156.000000
82.000000 127.000000
93.000000 116.000000
107.000000 112.000000
122.000000 109.000000
136.000000 112.000000
190.000000 112.000000
201.000000 112.000000
215.000000 112.000000
233.000000 116.000000
244.000000 127.000000
161.000000 145.000000
161.000000 159.000000
161.000000 174.000000
161.000000 188.000000
143.000000 199.000000
151.000000 202.000000
161.000000 202.000000
172.000000 202.000000
179.000000 202.000000
100.000000 148.000000
111.000000 145.000000
122.000000 141.000000
136.000000 148.000000
125.000000 152.000000
111.000000 152.000000
190.000000 145.000000
201.000000 141.000000
212.000000 141.000000
223.000000 148.000000
212.000000 152.000000
201.000000 152.000000
122.000000 235.000000
136.000000 228.000000
154.000000 220.000000
161.000000 224.000000
172.000000 220.000000
190.000000 228.000000
205.000000 235.000000
190.000000 246.000000
176.000000 249.000000
161.000000 253.000000
151.000000 253.000000
136.000000 246.000000
125.000000 235.000000
151.000000 231.000000
161.000000 231.000000
176.000000 231.000000
205.000000 235.000000
176.000000 238.000000
161.000000 238.000000
151.000000 238.000000
}
