version: 1
n_points: 68
{
58.000000 159.000000
61.000000 184.000000
68.000000 205.000000
75.000000 231.000000
83.000000 252.000000
97.000000 270.000000
111.000000 281.000000
129.000000 292.000000
162.000000 299.000000
194.000000 292.000000
215.000000 281.000000
230.000000 270.000000
244.000000 252.000000
251.000000 227.000000
255.000000 205.000000
262.000000 180.000000
262.000000 155.000000
79.000000 127.000000
93.000000 116.000000
108.000000 112.000000
122.000000 112.000000
136.000000 112.000000
190.000000 112.000000
201.000000 112.000000
215.000000 112.000000
233.000000 116.000000
244.000000 127.000000
162.000000 145.000000
162.000000 162.000000
158.000000 177.000000
158.000000 188.000000
144.000000 198.000000
151.000000 202.000000
162.000000 205.000000
172.000000 202.000000
179.000000 202.000000
101.000000 148.000000
111.000000 145.000000
122.000000 145.000000
136.000000 148.000000
126.000000 152.000000
111.000000 152.000000
190.000000 148.000000
201.000000 141.000000
212.000000 141.000000
222.000000 148.000000
212.000000 152.000000
201.000000 152.000000
118.000000 231.000000
133.000000 223.000000
154.000000 220.000000
162.000000 220.000000
172.000000 220.000000
194.000000 223.000000
208.000000 231.000000
190.000000 245.000000
176.000000 249.000000
162.000000 249.000000
147.000000 249.000000
136.000000 245.000000
122.000000 231.000000
147.000000 227.000000
162.000000 227.000000
176.000000 227.000000
205.000000 231.000000
176.000000 238.000000
162.000000 238.000000
151.000000 238.000000
}
