version: 1
n_points: 68
{
61.000000 158.000000
61.000000 187.000000
68.000000 209.000000
75.000000 230.000000
82.000000 255.000000
100.000000 273.000000
115.000000 284.000000
133.000000 291.000000
165.000000 299.000000
194.000000 291.000000
215.000000 284.000000
230.000000 270.000000
244.000000 252.000000
251.000000 227.000000
255.000000 205.000000
259.000000 180.000000
262.000000 155.000000
79.000000 126.000000
93.000000 115.000000
107.000000 111.000000
122.000000 111.000000
136.000000 111.000000
190.000000 115.000000
201.000000 111.000000
215.000000 111.000000
230.000000 115.000000
244.000000 126.000000
161.000000 144.000000
161.000000 162.000000
161.000000 176.000000
161.000000 187.000000
143.000000 201.000000
151.000000 201.000000
161.000000 205.000000
172.000000 201.000000
183.000000 201.000000
100.000000 147.000000
111.000000 144.000000
122.000000 144.000000
136.000000 147.000000
125.000000 151.000000
111.000000 151.000000
190.000000 147.000000
201.000000 140.000000
212.000000 144.000000
223.000000 147.000000
212.000000 151.000000
201.000000 151.000000
122.000000 234.000000
136.000000 227.000000
154.000000 219.000000
161.000000 223.000000
172.000000 219.000000
194.000000 227.000000
208.000000 234.000000
190.000000 245.000000
176.000000 248.000000
161.000000 252.000000
151.000000 248.000000
136.000000 245.000000
125.000000 234.000000
151.000000 230.000000
161.000000 230.000000
176.000000 230.000000
205.000000 234.000000
176.000000 237.000000
161.000000 237.000000
151.000000 237.000000
}
