version: 1
n_points: 68
{
61.000000 160.000000
64.000000 188.000000
68.000000 210.000000
75.000000 232.000000
86.000000 257.000000
101.000000 275.000000
115.000000 286.000000
133.000000 293.000000
166.000000 300.000000
194.000000 293.000000
216.000000 286.000000
230.000000 271.000000
241.000000 253.000000
252.000000 228.000000
256.000000 206.000000
259.000000 181.000000
263.000000 156.000000
83.000000 127.000000
93.000000 116.000000
108.000000 109.000000
122.000000 109.000000
137.000000 113.000000
191.000000 113.000000
202.000000 113.000000
216.000000 109.000000
230.000000 116.000000
245.000000 127.000000
162.000000 141.000000
162.000000 160.000000
162.000000 174.000000
162.000000 188.000000
144.000000 199.000000
151.000000 203.000000
162.000000 203.000000
173.000000 203.000000
180.000000 199.000000
101.000000 149.000000
111.000000 145.000000
122.000000 141.000000
137.000000 149.000000
126.000000 152.000000
111.000000 152.000000
191.000000 145.000000
202.000000 141.000000
212.000000 141.000000
223.000000 145.000000
212.000000 152.000000
198.000000 149.000000
126.000000 235.000000
137.000000 228.000000
155.000000 221.000000
162.000000 224.000000
173.000000 221.000000
191.000000 228.000000
205.000000 235.000000
191.000000 246.000000
176.000000 253.000000
162.000000 253.000000
151.000000 253.000000
137.000000 246.000000
126.000000 235.000000
151.000000 232.000000
162.000000 232.000000
176.000000 232.000000
202.000000 235.000000
176.000000 239.000000
162.000000 243.000000
151.000000 239.000000
}
