version: 1
n_points: 68
{
62.000000 159.000000
65.000000 184.000000
69.000000 209.000000
76.000000 231.000000
83.000000 256.000000
98.000000 274.000000
116.000000 281.000000
134.000000 292.000000
166.000000 299.000000
195.000000 292.000000
216.000000 281.000000
230.000000 270.000000
245.000000 252.000000
252.000000 227.000000
259.000000 202.000000
263.000000 181.000000
263.000000 155.000000
80.000000 127.000000
91.000000 116.000000
108.000000 112.000000
123.000000 112.000000
137.000000 112.000000
191.000000 112.000000
202.000000 112.000000
216.000000 112.000000
234.000000 116.000000
245.000000 127.000000
162.000000 145.000000
162.000000 163.000000
162.000000 177.000000
162.000000 188.000000
144.000000 198.000000
152.000000 202.000000
162.000000 206.000000
173.000000 202.000000
184.000000 202.000000
101.000000 148.000000
112.000000 145.000000
123.000000 145.000000
137.000000 148.000000
126.000000 152.000000
112.000000 152.000000
191.000000 148.000000
202.000000 141.000000
212.000000 141.000000
223.000000 148.000000
212.000000 152.000000
202.000000 152.000000
123.000000 231.000000
134.000000 224.000000
155.000000 220.000000
166.000000 220.000000
173.000000 220.000000
195.000000 224.000000
209.000000 231.000000
195.000000 245.000000
180.000000 249.000000
166.000000 252.000000
152.000000 252.000000
137.000000 245.000000
123.000000 231.000000
152.000000 231.000000
166.000000 227.000000
177.000000 227.000000
209.000000 231.000000
177.000000 238.000000
166.000000 241.000000
152.000000 238.000000
}
