version: 1
n_points: 68
{
59.000000 159.000000
62.000000 184.000000
69.000000 205.000000
77.000000 230.000000
84.000000 252.000000
98.000000 270.000000
112.000000 280.000000
134.000000 291.000000
166.000000 298.000000
198.000000 291.000000
216.000000 280.000000
230.000000 270.000000
245.000000 252.000000
252.000000 227.000000
259.000000 205.000000
262.000000 180.000000
266.000000 155.000000
80.000000 127.000000
91.000000 116.000000
109.000000 113.000000
123.000000 113.000000
137.000000 113.000000
187.000000 113.000000
202.000000 113.000000
216.000000 113.000000
234.000000 116.000000
245.000000 127.000000
162.000000 145.000000
162.000000 163.000000
162.000000 177.000000
159.000000 188.000000
145.000000 198.000000
152.000000 202.000000
162.000000 205.000000
173.000000 202.000000
184.000000 198.000000
102.000000 148.000000
112.000000 145.000000
123.000000 141.000000
137.000000 148.000000
127.000000 152.000000
112.000000 152.000000
191.000000 145.000000
202.000000 141.000000
212.000000 141.000000
223.000000 145.000000
212.000000 152.000000
202.000000 152.000000
120.000000 230.000000
134.000000 223.000000
155.000000 220.000000
162.000000 220.000000
173.000000 220.000000
195.000000 223.000000
212.000000 230.000000
195.000000 245.000000
180.000000 248.000000
162.000000 252.000000
148.000000 252.000000
137.000000 245.000000
123.000000 230.000000
148.000000 227.000000
162.000000 227.000000
177.000000 227.000000
209.000000 230.000000
177.000000 238.000000
162.000000 241.000000
152.000000 238.000000
}
