version: 1
n_points: 68
{
58.000000 157.000000
62.000000 186.000000
69.000000 207.000000
76.000000 229.000000
83.000000 254.000000
98.000000 272.000000
116.000000 283.000000
134.000000 290.000000
166.000000 297.000000
198.000000 294.000000
220.000000 279.000000
234.000000 269.000000
245.000000 251.000000
252.000000 225.000000
260.000000 204.000000
263.000000 179.000000
263.000000 154.000000
80.000000 128.000000
94.000000 118.000000
109.000000 110.000000
123.000000 110.000000
137.000000 114.000000
188.000000 114.000000
202.000000 110.000000
216.000000 110.000000
231.000000 118.000000
245.000000 125.000000
162.000000 143.000000
162.000000 161.000000
162.000000 175.000000
162.000000 189.000000
144.000000 200.000000
152.000000 200.000000
162.000000 204.000000
173.000000 200.000000
184.000000 200.000000
101.000000 146.000000
112.000000 143.000000
123.000000 143.000000
134.000000 146.000000
127.000000 150.000000
112.000000 150.000000
191.000000 146.000000
202.000000 143.000000
213.000000 143.000000
224.000000 146.000000
213.000000 150.000000
198.000000 150.000000
119.000000 229.000000
134.000000 222.000000
155.000000 218.000000
162.000000 218.000000
173.000000 218.000000
195.000000 222.000000
213.000000 229.000000
195.000000 243.000000
180.000000 251.000000
166.000000 254.000000
148.000000 254.000000
137.000000 247.000000
123.000000 229.000000
148.000000 225.000000
162.000000 225.000000
180.000000 225.000000
209.000000 229.000000
180.000000 240.000000
166.000000 243.000000
152.000000 240.000000
}
