version: 1
n_points: 68
{
60.000000 160.000000
64.000000 186.000000
71.000000 208.000000
78.000000 234.000000
86.000000 259.000000
104.000000 277.000000
118.000000 288.000000
137.000000 303.000000
170.000000 310.000000
203.000000 299.000000
221.000000 288.000000
232.000000 274.000000
247.000000 252.000000
254.000000 226.000000
257.000000 204.000000
261.000000 179.000000
265.000000 153.000000
82.000000 131.000000
93.000000 120.000000
108.000000 113.000000
122.000000 113.000000
137.000000 117.000000
188.000000 117.000000
203.000000 113.000000
217.000000 113.000000
232.000000 117.000000
243.000000 127.000000
162.000000 146.000000
162.000000 164.000000
162.000000 179.000000
162.000000 190.000000
144.000000 201.000000
151.000000 204.000000
162.000000 204.000000
177.000000 204.000000
184.000000 201.000000
100.000000 149.000000
111.000000 146.000000
122.000000 146.000000
137.000000 149.000000
126.000000 153.000000
111.000000 153.000000
192.000000 149.000000
203.000000 142.000000
214.000000 142.000000
225.000000 149.000000
214.000000 153.000000
199.000000 153.000000
122.000000 237.000000
133.000000 226.000000
155.000000 219.000000
166.000000 223.000000
173.000000 219.000000
195.000000 223.000000
214.000000 234.000000
199.000000 255.000000
181.000000 266.000000
166.000000 270.000000
151.000000 270.000000
137.000000 259.000000
126.000000 237.000000
151.000000 230.000000
166.000000 230.000000
181.000000 230.000000
210.000000 234.000000
181.000000 255.000000
166.000000 255.000000
151.000000 255.000000
}
