version: 1
n_points: 68
{
61.000000 158.000000
65.000000 183.000000
68.000000 205.000000
76.000000 231.000000
86.000000 256.000000
101.000000 274.000000
116.000000 289.000000
137.000000 300.000000
170.000000 310.000000
199.000000 300.000000
221.000000 285.000000
232.000000 271.000000
246.000000 252.000000
254.000000 227.000000
257.000000 201.000000
261.000000 180.000000
265.000000 154.000000
83.000000 129.000000
94.000000 118.000000
108.000000 114.000000
123.000000 114.000000
137.000000 114.000000
188.000000 118.000000
203.000000 114.000000
217.000000 114.000000
232.000000 118.000000
243.000000 125.000000
163.000000 147.000000
163.000000 165.000000
163.000000 180.000000
159.000000 191.000000
145.000000 201.000000
152.000000 205.000000
163.000000 205.000000
174.000000 205.000000
185.000000 201.000000
101.000000 151.000000
112.000000 143.000000
123.000000 143.000000
137.000000 151.000000
126.000000 151.000000
112.000000 154.000000
188.000000 147.000000
203.000000 143.000000
214.000000 143.000000
225.000000 147.000000
214.000000 151.000000
199.000000 151.000000
123.000000 234.000000
134.000000 223.000000
156.000000 220.000000
163.000000 220.000000
174.000000 220.000000
196.000000 223.000000
214.000000 234.000000
196.000000 256.000000
181.000000 263.000000
166.000000 267.000000
152.000000 267.000000
137.000000 256.000000
123.000000 234.000000
152.000000 231.000000
166.000000 227.000000
181.000000 227.000000
210.000000 234.000000
181.000000 252.000000
166.000000 256.000000
152.000000 252.000000
}
