version: 1
n_points: 68
{
61.000000 164.000000
64.000000 189.000000
71.000000 211.000000
79.000000 236.000000
89.000000 261.000000
104.000000 279.000000
118.000000 290.000000
136.000000 297.000000
169.000000 308.000000
198.000000 297.000000
216.000000 286.000000
230.000000 275.000000
244.000000 254.000000
252.000000 229.000000
255.000000 207.000000
259.000000 182.000000
262.000000 156.000000
82.000000 131.000000
93.000000 120.000000
107.000000 113.000000
122.000000 113.000000
136.000000 117.000000
190.000000 117.000000
201.000000 113.000000
216.000000 113.000000
230.000000 117.000000
244.000000 128.000000
161.000000 146.000000
161.000000 164.000000
161.000000 178.000000
161.000000 189.000000
147.000000 203.000000
154.000000 203.000000
161.000000 207.000000
172.000000 203.000000
183.000000 203.000000
100.000000 149.000000
111.000000 146.000000
122.000000 146.000000
136.000000 149.000000
125.000000 153.000000
111.000000 153.000000
190.000000 149.000000
201.000000 142.000000
212.000000 142.000000
223.000000 149.000000
212.000000 153.000000
201.000000 153.000000
129.000000 243.000000
140.000000 229.000000
154.000000 221.000000
165.000000 225.000000
172.000000 221.000000
190.000000 229.000000
205.000000 239.000000
190.000000 254.000000
180.000000 261.000000
165.000000 265.000000
151.000000 265.000000
143.000000 257.000000
133.000000 243.000000
154.000000 232.000000
165.000000 232.000000
176.000000 232.000000
201.000000 239.000000
176.000000 247.000000
165.000000 250.000000
154.000000 250.000000
}
