version: 1
n_points: 68
{
61.000000 161.000000
64.000000 186.000000
72.000000 211.000000
79.000000 233.000000
90.000000 258.000000
104.000000 276.000000
119.000000 287.000000
137.000000 298.000000
169.000000 309.000000
198.000000 298.000000
216.000000 287.000000
231.000000 276.000000
245.000000 255.000000
252.000000 229.000000
256.000000 204.000000
260.000000 183.000000
263.000000 154.000000
83.000000 132.000000
93.000000 118.000000
108.000000 114.000000
122.000000 114.000000
137.000000 114.000000
187.000000 114.000000
202.000000 114.000000
216.000000 114.000000
231.000000 118.000000
245.000000 128.000000
162.000000 146.000000
162.000000 161.000000
162.000000 175.000000
158.000000 190.000000
148.000000 201.000000
151.000000 204.000000
162.000000 204.000000
173.000000 204.000000
180.000000 201.000000
101.000000 150.000000
111.000000 146.000000
122.000000 146.000000
137.000000 150.000000
126.000000 154.000000
111.000000 154.000000
191.000000 146.000000
202.000000 143.000000
213.000000 143.000000
223.000000 146.000000
213.000000 154.000000
198.000000 150.000000
129.000000 244.000000
137.000000 229.000000
155.000000 219.000000
166.000000 222.000000
173.000000 219.000000
191.000000 226.000000
205.000000 240.000000
191.000000 255.000000
180.000000 262.000000
166.000000 266.000000
151.000000 266.000000
140.000000 258.000000
129.000000 240.000000
151.000000 233.000000
166.000000 229.000000
176.000000 229.000000
202.000000 240.000000
176.000000 251.000000
166.000000 251.000000
155.000000 251.000000
}
