version: 1
n_points: 68
{
64.000000 164.000000
67.000000 189.000000
75.000000 215.000000
78.000000 236.000000
89.000000 261.000000
103.000000 279.000000
121.000000 290.000000
136.000000 297.000000
168.000000 305.000000
197.000000 297.000000
215.000000 287.000000
229.000000 276.000000
244.000000 254.000000
251.000000 229.000000
255.000000 207.000000
258.000000 182.000000
262.000000 157.000000
82.000000 132.000000
93.000000 117.000000
107.000000 114.000000
121.000000 114.000000
136.000000 114.000000
190.000000 114.000000
201.000000 110.000000
215.000000 110.000000
233.000000 117.000000
244.000000 128.000000
161.000000 146.000000
161.000000 164.000000
161.000000 175.000000
161.000000 189.000000
147.000000 204.000000
154.000000 204.000000
165.000000 207.000000
175.000000 204.000000
183.000000 204.000000
103.000000 150.000000
114.000000 146.000000
125.000000 143.000000
136.000000 150.000000
125.000000 153.000000
114.000000 153.000000
190.000000 146.000000
201.000000 143.000000
215.000000 143.000000
222.000000 146.000000
215.000000 153.000000
201.000000 153.000000
132.000000 247.000000
143.000000 233.000000
157.000000 222.000000
165.000000 225.000000
172.000000 222.000000
190.000000 229.000000
201.000000 243.000000
190.000000 251.000000
179.000000 258.000000
165.000000 261.000000
154.000000 261.000000
143.000000 254.000000
136.000000 247.000000
154.000000 236.000000
165.000000 233.000000
175.000000 236.000000
197.000000 243.000000
175.000000 247.000000
165.000000 247.000000
154.000000 247.000000
}
