version: 1
n_points: 68
{
61.000000 164.000000
68.000000 193.000000
72.000000 214.000000
79.000000 239.000000
90.000000 261.000000
104.000000 279.000000
122.000000 290.000000
136.000000 297.000000
165.000000 304.000000
197.000000 297.000000
215.000000 286.000000
230.000000 275.000000
244.000000 257.000000
251.000000 232.000000
255.000000 207.000000
258.000000 186.000000
262.000000 157.000000
82.000000 132.000000
93.000000 117.000000
108.000000 114.000000
122.000000 114.000000
136.000000 114.000000
190.000000 114.000000
201.000000 110.000000
215.000000 110.000000
230.000000 117.000000
244.000000 128.000000
161.000000 146.000000
161.000000 164.000000
161.000000 178.000000
161.000000 189.000000
147.000000 207.000000
154.000000 207.000000
161.000000 207.000000
172.000000 207.000000
179.000000 204.000000
104.000000 150.000000
111.000000 146.000000
126.000000 146.000000
136.000000 150.000000
126.000000 153.000000
111.000000 153.000000
190.000000 150.000000
201.000000 143.000000
212.000000 143.000000
222.000000 146.000000
212.000000 153.000000
201.000000 153.000000
133.000000 247.000000
143.000000 232.000000
158.000000 225.000000
165.000000 225.000000
172.000000 225.000000
187.000000 232.000000
201.000000 243.000000
187.000000 250.000000
176.000000 257.000000
165.000000 257.000000
154.000000 257.000000
143.000000 254.000000
136.000000 247.000000
154.000000 236.000000
165.000000 236.000000
176.000000 236.000000
197.000000 243.000000
176.000000 243.000000
165.000000 243.000000
154.000000 243.000000
}
