version: 1
n_points: 68
{
61.000000 167.000000
65.000000 192.000000
72.000000 217.000000
79.000000 238.000000
90.000000 263.000000
104.000000 277.000000
118.000000 285.000000
136.000000 288.000000
168.000000 292.000000
197.000000 288.000000
214.000000 281.000000
229.000000 270.000000
243.000000 253.000000
250.000000 231.000000
254.000000 206.000000
257.000000 185.000000
261.000000 156.000000
79.000000 124.000000
90.000000 110.000000
104.000000 103.000000
118.000000 103.000000
133.000000 103.000000
190.000000 103.000000
200.000000 99.000000
214.000000 99.000000
229.000000 107.000000
243.000000 121.000000
161.000000 142.000000
161.000000 160.000000
158.000000 174.000000
158.000000 188.000000
147.000000 203.000000
154.000000 203.000000
161.000000 206.000000
172.000000 203.000000
179.000000 203.000000
101.000000 149.000000
111.000000 142.000000
122.000000 142.000000
133.000000 149.000000
122.000000 153.000000
111.000000 153.000000
186.000000 146.000000
200.000000 142.000000
211.000000 142.000000
222.000000 146.000000
211.000000 149.000000
197.000000 149.000000
129.000000 238.000000
140.000000 228.000000
158.000000 220.000000
165.000000 220.000000
172.000000 220.000000
190.000000 228.000000
200.000000 235.000000
190.000000 238.000000
175.000000 242.000000
165.000000 245.000000
154.000000 245.000000
143.000000 242.000000
133.000000 238.000000
154.000000 231.000000
165.000000 231.000000
175.000000 231.000000
200.000000 235.000000
175.000000 231.000000
165.000000 231.000000
154.000000 231.000000
}
