version: 1
n_points: 68
{
64.000000 166.000000
68.000000 191.000000
71.000000 216.000000
78.000000 238.000000
89.000000 263.000000
104.000000 281.000000
122.000000 292.000000
140.000000 299.000000
168.000000 306.000000
197.000000 299.000000
215.000000 288.000000
230.000000 274.000000
244.000000 256.000000
251.000000 231.000000
255.000000 209.000000
258.000000 184.000000
262.000000 155.000000
82.000000 130.000000
93.000000 119.000000
107.000000 116.000000
122.000000 112.000000
136.000000 116.000000
190.000000 116.000000
201.000000 112.000000
215.000000 112.000000
233.000000 119.000000
244.000000 126.000000
161.000000 148.000000
161.000000 162.000000
161.000000 177.000000
161.000000 191.000000
147.000000 206.000000
154.000000 206.000000
165.000000 209.000000
176.000000 206.000000
183.000000 206.000000
104.000000 152.000000
111.000000 144.000000
125.000000 144.000000
136.000000 152.000000
125.000000 155.000000
114.000000 155.000000
190.000000 148.000000
201.000000 144.000000
215.000000 144.000000
222.000000 148.000000
215.000000 152.000000
201.000000 152.000000
132.000000 245.000000
140.000000 231.000000
158.000000 224.000000
165.000000 224.000000
172.000000 224.000000
190.000000 231.000000
201.000000 242.000000
190.000000 252.000000
179.000000 260.000000
165.000000 260.000000
154.000000 263.000000
143.000000 256.000000
136.000000 245.000000
154.000000 234.000000
165.000000 234.000000
176.000000 234.000000
201.000000 242.000000
176.000000 245.000000
165.000000 249.000000
154.000000 249.000000
}
