version: 1
n_points: 68
{
61.000000 165.000000
65.000000 190.000000
72.000000 215.000000
79.000000 239.000000
90.000000 261.000000
104.000000 278.000000
118.000000 286.000000
136.000000 289.000000
168.000000 293.000000
196.000000 289.000000
214.000000 278.000000
228.000000 271.000000
242.000000 254.000000
249.000000 229.000000
253.000000 204.000000
256.000000 183.000000
260.000000 158.000000
83.000000 126.000000
93.000000 112.000000
107.000000 105.000000
122.000000 105.000000
132.000000 105.000000
189.000000 105.000000
200.000000 101.000000
214.000000 105.000000
228.000000 108.000000
242.000000 126.000000
161.000000 144.000000
161.000000 161.000000
161.000000 176.000000
161.000000 190.000000
146.000000 204.000000
154.000000 204.000000
164.000000 204.000000
171.000000 204.000000
182.000000 200.000000
104.000000 151.000000
115.000000 147.000000
125.000000 147.000000
136.000000 151.000000
125.000000 154.000000
115.000000 154.000000
189.000000 147.000000
200.000000 147.000000
210.000000 147.000000
221.000000 147.000000
210.000000 151.000000
196.000000 151.000000
132.000000 239.000000
143.000000 229.000000
157.000000 218.000000
164.000000 222.000000
171.000000 218.000000
189.000000 225.000000
203.000000 236.000000
189.000000 239.000000
178.000000 243.000000
164.000000 243.000000
154.000000 243.000000
143.000000 239.000000
132.000000 236.000000
154.000000 232.000000
164.000000 229.000000
175.000000 229.000000
200.000000 236.000000
175.000000 229.000000
164.000000 229.000000
154.000000 232.000000
}
