version: 1
n_points: 68
{
60.000000 167.000000
67.000000 192.000000
71.000000 216.000000
78.000000 241.000000
89.000000 263.000000
103.000000 277.000000
117.000000 284.000000
135.000000 288.000000
167.000000 291.000000
199.000000 288.000000
213.000000 281.000000
228.000000 270.000000
242.000000 252.000000
249.000000 231.000000
253.000000 206.000000
256.000000 184.000000
260.000000 156.000000
78.000000 127.000000
89.000000 113.000000
103.000000 106.000000
117.000000 102.000000
131.000000 106.000000
189.000000 102.000000
199.000000 99.000000
213.000000 102.000000
228.000000 110.000000
242.000000 124.000000
160.000000 142.000000
160.000000 159.000000
160.000000 174.000000
160.000000 188.000000
146.000000 202.000000
153.000000 202.000000
164.000000 206.000000
171.000000 202.000000
178.000000 202.000000
99.000000 149.000000
110.000000 142.000000
121.000000 142.000000
135.000000 149.000000
124.000000 152.000000
110.000000 152.000000
189.000000 145.000000
199.000000 142.000000
210.000000 142.000000
221.000000 145.000000
210.000000 149.000000
199.000000 149.000000
131.000000 238.000000
142.000000 227.000000
156.000000 220.000000
164.000000 220.000000
171.000000 220.000000
189.000000 227.000000
199.000000 234.000000
185.000000 238.000000
174.000000 241.000000
164.000000 241.000000
153.000000 245.000000
142.000000 241.000000
131.000000 238.000000
153.000000 231.000000
164.000000 231.000000
174.000000 231.000000
196.000000 234.000000
174.000000 231.000000
164.000000 231.000000
153.000000 231.000000
}
