version: 1
n_points: 68
{
60.000000 166.000000
67.000000 191.000000
71.000000 216.000000
78.000000 237.000000
89.000000 262.000000
103.000000 277.000000
117.000000 284.000000
135.000000 291.000000
167.000000 291.000000
196.000000 287.000000
214.000000 280.000000
228.000000 269.000000
242.000000 252.000000
250.000000 230.000000
253.000000 205.000000
257.000000 184.000000
260.000000 155.000000
78.000000 126.000000
89.000000 112.000000
103.000000 105.000000
117.000000 105.000000
131.000000 105.000000
185.000000 101.000000
199.000000 101.000000
214.000000 101.000000
228.000000 108.000000
242.000000 123.000000
160.000000 144.000000
160.000000 162.000000
157.000000 176.000000
157.000000 187.000000
146.000000 201.000000
153.000000 205.000000
160.000000 205.000000
171.000000 205.000000
178.000000 201.000000
99.000000 148.000000
110.000000 144.000000
121.000000 144.000000
131.000000 148.000000
124.000000 151.000000
110.000000 151.000000
185.000000 144.000000
199.000000 141.000000
210.000000 141.000000
221.000000 144.000000
210.000000 151.000000
196.000000 148.000000
131.000000 237.000000
142.000000 227.000000
157.000000 219.000000
164.000000 223.000000
171.000000 219.000000
185.000000 227.000000
199.000000 234.000000
185.000000 237.000000
174.000000 241.000000
164.000000 241.000000
153.000000 244.000000
142.000000 241.000000
131.000000 237.000000
153.000000 230.000000
164.000000 230.000000
174.000000 230.000000
196.000000 234.000000
174.000000 230.000000
164.000000 230.000000
153.000000 230.000000
}
