version: 1
n_points: 68
{
61.000000 166.000000
68.000000 191.000000
72.000000 216.000000
79.000000 238.000000
89.000000 263.000000
104.000000 277.000000
118.000000 284.000000
136.000000 291.000000
168.000000 295.000000
196.000000 288.000000
214.000000 281.000000
229.000000 270.000000
243.000000 252.000000
250.000000 231.000000
254.000000 206.000000
257.000000 181.000000
261.000000 156.000000
79.000000 127.000000
89.000000 113.000000
104.000000 102.000000
118.000000 102.000000
132.000000 102.000000
189.000000 102.000000
200.000000 99.000000
214.000000 99.000000
229.000000 106.000000
243.000000 120.000000
161.000000 141.000000
161.000000 159.000000
161.000000 173.000000
161.000000 188.000000
147.000000 202.000000
154.000000 206.000000
161.000000 206.000000
171.000000 202.000000
179.000000 202.000000
100.000000 149.000000
111.000000 141.000000
122.000000 141.000000
136.000000 149.000000
125.000000 152.000000
111.000000 152.000000
186.000000 145.000000
200.000000 141.000000
211.000000 141.000000
221.000000 145.000000
211.000000 149.000000
196.000000 149.000000
132.000000 238.000000
139.000000 227.000000
157.000000 220.000000
164.000000 223.000000
171.000000 220.000000
189.000000 227.000000
200.000000 234.000000
186.000000 238.000000
175.000000 241.000000
164.000000 241.000000
154.000000 245.000000
143.000000 241.000000
132.000000 238.000000
154.000000 231.000000
164.000000 231.000000
175.000000 231.000000
200.000000 234.000000
175.000000 231.000000
164.000000 231.000000
154.000000 231.000000
}
