version: 1
n_points: 68
{
61.000000 167.000000
65.000000 192.000000
72.000000 217.000000
79.000000 238.000000
89.000000 263.000000
104.000000 277.000000
118.000000 288.000000
136.000000 291.000000
168.000000 295.000000
196.000000 291.000000
214.000000 281.000000
228.000000 273.000000
242.000000 256.000000
250.000000 231.000000
253.000000 206.000000
257.000000 181.000000
260.000000 156.000000
82.000000 128.000000
89.000000 113.000000
107.000000 106.000000
118.000000 106.000000
132.000000 106.000000
189.000000 106.000000
200.000000 103.000000
214.000000 103.000000
228.000000 110.000000
242.000000 124.000000
161.000000 142.000000
161.000000 160.000000
161.000000 174.000000
161.000000 188.000000
146.000000 202.000000
153.000000 202.000000
164.000000 206.000000
171.000000 202.000000
178.000000 202.000000
100.000000 149.000000
111.000000 145.000000
121.000000 145.000000
136.000000 149.000000
125.000000 152.000000
111.000000 152.000000
185.000000 145.000000
200.000000 142.000000
210.000000 142.000000
221.000000 145.000000
210.000000 149.000000
196.000000 149.000000
132.000000 241.000000
143.000000 231.000000
157.000000 220.000000
164.000000 224.000000
171.000000 220.000000
189.000000 227.000000
200.000000 238.000000
189.000000 241.000000
175.000000 245.000000
164.000000 249.000000
153.000000 249.000000
143.000000 245.000000
132.000000 241.000000
153.000000 234.000000
164.000000 231.000000
175.000000 231.000000
200.000000 238.000000
175.000000 234.000000
164.000000 234.000000
153.000000 234.000000
}
