version: 1
n_points: 68
{
61.000000 167.000000
65.000000 192.000000
72.000000 217.000000
79.000000 238.000000
90.000000 263.000000
104.000000 277.000000
118.000000 284.000000
135.000000 291.000000
167.000000 294.000000
195.000000 287.000000
213.000000 280.000000
227.000000 273.000000
241.000000 255.000000
248.000000 231.000000
252.000000 206.000000
259.000000 185.000000
259.000000 157.000000
82.000000 128.000000
90.000000 114.000000
104.000000 107.000000
118.000000 104.000000
132.000000 107.000000
188.000000 104.000000
199.000000 104.000000
213.000000 104.000000
231.000000 111.000000
241.000000 125.000000
160.000000 142.000000
160.000000 160.000000
160.000000 174.000000
160.000000 188.000000
146.000000 202.000000
153.000000 202.000000
160.000000 202.000000
171.000000 202.000000
178.000000 202.000000
100.000000 150.000000
111.000000 146.000000
121.000000 146.000000
132.000000 150.000000
125.000000 153.000000
111.000000 153.000000
188.000000 146.000000
199.000000 142.000000
210.000000 142.000000
220.000000 146.000000
210.000000 150.000000
199.000000 150.000000
128.000000 238.000000
139.000000 227.000000
157.000000 220.000000
164.000000 220.000000
171.000000 220.000000
188.000000 224.000000
199.000000 234.000000
188.000000 238.000000
174.000000 241.000000
164.000000 245.000000
153.000000 245.000000
142.000000 241.000000
132.000000 238.000000
153.000000 231.000000
164.000000 227.000000
174.000000 231.000000
199.000000 234.000000
174.000000 231.000000
164.000000 231.000000
153.000000 231.000000
}
