version: 1
n_points: 68
{
61.000000 164.000000
65.000000 193.000000
72.000000 214.000000
79.000000 239.000000
90.000000 260.000000
104.000000 278.000000
118.000000 289.000000
136.000000 292.000000
164.000000 299.000000
196.000000 292.000000
214.000000 281.000000
228.000000 274.000000
242.000000 253.000000
250.000000 228.000000
253.000000 207.000000
257.000000 182.000000
260.000000 157.000000
79.000000 129.000000
90.000000 118.000000
107.000000 111.000000
122.000000 107.000000
132.000000 111.000000
189.000000 107.000000
200.000000 104.000000
214.000000 107.000000
228.000000 111.000000
242.000000 125.000000
161.000000 143.000000
161.000000 161.000000
161.000000 175.000000
161.000000 186.000000
146.000000 203.000000
154.000000 203.000000
164.000000 207.000000
171.000000 203.000000
182.000000 203.000000
100.000000 150.000000
111.000000 146.000000
122.000000 143.000000
136.000000 150.000000
125.000000 154.000000
111.000000 154.000000
186.000000 146.000000
200.000000 143.000000
210.000000 143.000000
221.000000 146.000000
210.000000 150.000000
196.000000 150.000000
129.000000 242.000000
143.000000 232.000000
157.000000 221.000000
164.000000 225.000000
171.000000 221.000000
189.000000 228.000000
200.000000 239.000000
189.000000 246.000000
175.000000 249.000000
164.000000 253.000000
154.000000 253.000000
143.000000 249.000000
132.000000 242.000000
154.000000 235.000000
164.000000 232.000000
175.000000 235.000000
200.000000 239.000000
175.000000 239.000000
164.000000 239.000000
154.000000 239.000000
}
