version: 1
n_points: 68
{
58.000000 163.000000
65.000000 191.000000
69.000000 213.000000
76.000000 234.000000
86.000000 259.000000
101.000000 277.000000
115.000000 284.000000
133.000000 291.000000
165.000000 298.000000
194.000000 291.000000
215.000000 284.000000
229.000000 270.000000
243.000000 252.000000
251.000000 227.000000
254.000000 205.000000
258.000000 180.000000
261.000000 156.000000
79.000000 131.000000
90.000000 116.000000
108.000000 109.000000
122.000000 109.000000
133.000000 113.000000
190.000000 109.000000
201.000000 106.000000
215.000000 106.000000
229.000000 113.000000
243.000000 123.000000
161.000000 141.000000
161.000000 159.000000
161.000000 173.000000
161.000000 188.000000
147.000000 202.000000
151.000000 202.000000
161.000000 205.000000
172.000000 202.000000
179.000000 202.000000
101.000000 148.000000
111.000000 145.000000
122.000000 145.000000
133.000000 148.000000
122.000000 152.000000
111.000000 152.000000
190.000000 145.000000
201.000000 141.000000
211.000000 141.000000
222.000000 145.000000
211.000000 152.000000
201.000000 152.000000
126.000000 238.000000
136.000000 227.000000
154.000000 220.000000
161.000000 223.000000
172.000000 220.000000
190.000000 227.000000
204.000000 234.000000
190.000000 241.000000
176.000000 248.000000
165.000000 248.000000
151.000000 248.000000
140.000000 245.000000
126.000000 234.000000
151.000000 230.000000
161.000000 230.000000
176.000000 230.000000
201.000000 234.000000
176.000000 234.000000
165.000000 234.000000
151.000000 234.000000
}
