version: 1
n_points: 68
{
62.000000 162.000000
65.000000 191.000000
69.000000 212.000000
76.000000 234.000000
87.000000 258.000000
101.000000 276.000000
115.000000 287.000000
133.000000 290.000000
165.000000 298.000000
193.000000 294.000000
215.000000 283.000000
229.000000 273.000000
243.000000 255.000000
250.000000 230.000000
254.000000 205.000000
257.000000 184.000000
261.000000 155.000000
79.000000 130.000000
90.000000 116.000000
108.000000 109.000000
122.000000 109.000000
133.000000 113.000000
190.000000 109.000000
200.000000 105.000000
215.000000 105.000000
229.000000 113.000000
243.000000 123.000000
161.000000 145.000000
161.000000 159.000000
161.000000 173.000000
158.000000 187.000000
143.000000 202.000000
151.000000 202.000000
161.000000 205.000000
172.000000 202.000000
179.000000 202.000000
101.000000 148.000000
111.000000 145.000000
122.000000 145.000000
133.000000 148.000000
122.000000 152.000000
111.000000 152.000000
186.000000 148.000000
200.000000 141.000000
211.000000 141.000000
222.000000 145.000000
211.000000 152.000000
197.000000 152.000000
126.000000 237.000000
136.000000 226.000000
154.000000 219.000000
161.000000 223.000000
172.000000 219.000000
190.000000 226.000000
200.000000 237.000000
186.000000 244.000000
176.000000 248.000000
161.000000 248.000000
151.000000 248.000000
140.000000 244.000000
126.000000 237.000000
151.000000 230.000000
161.000000 230.000000
176.000000 230.000000
200.000000 234.000000
172.000000 234.000000
161.000000 237.000000
151.000000 237.000000
}
