version: 1
n_points: 68
{
62.000000 166.000000
65.000000 191.000000
72.000000 216.000000
79.000000 237.000000
90.000000 262.000000
104.000000 277.000000
118.000000 287.000000
136.000000 294.000000
168.000000 298.000000
196.000000 294.000000
214.000000 284.000000
228.000000 273.000000
243.000000 255.000000
250.000000 230.000000
253.000000 209.000000
257.000000 184.000000
260.000000 159.000000
83.000000 131.000000
94.000000 117.000000
108.000000 113.000000
122.000000 110.000000
136.000000 110.000000
189.000000 110.000000
204.000000 106.000000
218.000000 106.000000
232.000000 113.000000
243.000000 124.000000
161.000000 145.000000
161.000000 159.000000
161.000000 174.000000
161.000000 188.000000
147.000000 202.000000
154.000000 206.000000
165.000000 206.000000
175.000000 206.000000
182.000000 202.000000
101.000000 149.000000
111.000000 145.000000
122.000000 145.000000
136.000000 149.000000
125.000000 152.000000
111.000000 152.000000
189.000000 149.000000
200.000000 142.000000
214.000000 142.000000
221.000000 145.000000
214.000000 152.000000
200.000000 152.000000
133.000000 241.000000
143.000000 230.000000
157.000000 223.000000
165.000000 223.000000
172.000000 223.000000
189.000000 230.000000
200.000000 241.000000
189.000000 245.000000
175.000000 248.000000
165.000000 252.000000
154.000000 252.000000
143.000000 248.000000
133.000000 241.000000
154.000000 234.000000
165.000000 234.000000
175.000000 234.000000
200.000000 237.000000
175.000000 237.000000
165.000000 237.000000
154.000000 237.000000
}
