version: 1
n_points: 68
{
62.000000 167.000000
66.000000 192.000000
73.000000 216.000000
80.000000 237.000000
91.000000 262.000000
105.000000 280.000000
119.000000 287.000000
136.000000 294.000000
168.000000 301.000000
196.000000 294.000000
214.000000 283.000000
228.000000 276.000000
242.000000 255.000000
249.000000 230.000000
252.000000 209.000000
259.000000 185.000000
259.000000 157.000000
83.000000 132.000000
94.000000 121.000000
108.000000 114.000000
122.000000 114.000000
136.000000 114.000000
189.000000 111.000000
203.000000 107.000000
217.000000 107.000000
231.000000 114.000000
242.000000 125.000000
161.000000 146.000000
164.000000 164.000000
161.000000 178.000000
161.000000 188.000000
147.000000 206.000000
154.000000 206.000000
164.000000 206.000000
175.000000 206.000000
182.000000 202.000000
101.000000 153.000000
112.000000 146.000000
122.000000 146.000000
136.000000 150.000000
126.000000 153.000000
112.000000 157.000000
189.000000 150.000000
200.000000 143.000000
214.000000 143.000000
224.000000 146.000000
214.000000 153.000000
200.000000 153.000000
133.000000 241.000000
143.000000 230.000000
157.000000 223.000000
164.000000 223.000000
171.000000 223.000000
189.000000 230.000000
200.000000 241.000000
189.000000 248.000000
175.000000 252.000000
164.000000 252.000000
154.000000 252.000000
143.000000 248.000000
136.000000 241.000000
154.000000 234.000000
164.000000 234.000000
175.000000 234.000000
200.000000 241.000000
175.000000 237.000000
164.000000 241.000000
154.000000 241.000000
}
