version: 1
n_points: 68
{
63.000000 165.000000
66.000000 193.000000
73.000000 214.000000
80.000000 239.000000
91.000000 263.000000
105.000000 281.000000
119.000000 288.000000
136.000000 295.000000
168.000000 302.000000
196.000000 295.000000
217.000000 284.000000
228.000000 274.000000
242.000000 256.000000
249.000000 232.000000
256.000000 207.000000
259.000000 183.000000
263.000000 154.000000
84.000000 133.000000
94.000000 126.000000
108.000000 119.000000
122.000000 119.000000
136.000000 119.000000
189.000000 116.000000
200.000000 112.000000
214.000000 112.000000
231.000000 116.000000
242.000000 126.000000
161.000000 147.000000
164.000000 165.000000
161.000000 179.000000
161.000000 193.000000
147.000000 207.000000
154.000000 207.000000
164.000000 207.000000
175.000000 207.000000
182.000000 204.000000
101.000000 151.000000
112.000000 147.000000
122.000000 147.000000
136.000000 151.000000
126.000000 154.000000
112.000000 154.000000
189.000000 147.000000
200.000000 144.000000
214.000000 144.000000
224.000000 147.000000
214.000000 151.000000
200.000000 151.000000
133.000000 242.000000
143.000000 232.000000
157.000000 225.000000
164.000000 228.000000
171.000000 225.000000
189.000000 232.000000
200.000000 242.000000
189.000000 249.000000
179.000000 253.000000
164.000000 256.000000
154.000000 256.000000
143.000000 249.000000
136.000000 242.000000
154.000000 239.000000
164.000000 235.000000
175.000000 235.000000
196.000000 242.000000
175.000000 242.000000
164.000000 242.000000
154.000000 242.000000
}
