version: 1
n_points: 68
{
63.000000 168.000000
67.000000 193.000000
74.000000 217.000000
81.000000 238.000000
91.000000 263.000000
105.000000 280.000000
119.000000 287.000000
137.000000 294.000000
168.000000 301.000000
197.000000 294.000000
218.000000 284.000000
228.000000 273.000000
242.000000 256.000000
249.000000 231.000000
253.000000 210.000000
260.000000 186.000000
260.000000 158.000000
84.000000 129.000000
95.000000 119.000000
112.000000 112.000000
126.000000 108.000000
137.000000 108.000000
193.000000 101.000000
204.000000 101.000000
218.000000 101.000000
232.000000 108.000000
242.000000 122.000000
165.000000 147.000000
165.000000 165.000000
165.000000 179.000000
165.000000 193.000000
151.000000 207.000000
158.000000 207.000000
165.000000 207.000000
176.000000 207.000000
183.000000 207.000000
105.000000 151.000000
116.000000 147.000000
126.000000 147.000000
137.000000 151.000000
126.000000 154.000000
116.000000 154.000000
190.000000 147.000000
204.000000 144.000000
214.000000 144.000000
225.000000 147.000000
214.000000 151.000000
200.000000 151.000000
137.000000 245.000000
144.000000 235.000000
158.000000 224.000000
165.000000 224.000000
172.000000 224.000000
190.000000 231.000000
197.000000 245.000000
190.000000 252.000000
179.000000 259.000000
165.000000 259.000000
154.000000 259.000000
144.000000 252.000000
137.000000 245.000000
158.000000 238.000000
165.000000 235.000000
176.000000 238.000000
197.000000 245.000000
176.000000 245.000000
165.000000 245.000000
154.000000 245.000000
}
