version: 1
n_points: 68
{
65.000000 164.000000
68.000000 192.000000
72.000000 214.000000
79.000000 239.000000
90.000000 260.000000
104.000000 278.000000
118.000000 289.000000
136.000000 296.000000
165.000000 303.000000
194.000000 296.000000
215.000000 285.000000
229.000000 275.000000
240.000000 257.000000
251.000000 232.000000
254.000000 207.000000
258.000000 185.000000
262.000000 156.000000
82.000000 124.000000
90.000000 110.000000
104.000000 103.000000
118.000000 103.000000
133.000000 103.000000
190.000000 99.000000
201.000000 99.000000
215.000000 99.000000
229.000000 106.000000
240.000000 121.000000
161.000000 146.000000
161.000000 164.000000
158.000000 178.000000
158.000000 189.000000
147.000000 207.000000
154.000000 207.000000
161.000000 207.000000
172.000000 207.000000
179.000000 207.000000
100.000000 149.000000
111.000000 146.000000
122.000000 146.000000
136.000000 149.000000
125.000000 153.000000
111.000000 153.000000
186.000000 146.000000
201.000000 142.000000
211.000000 142.000000
222.000000 146.000000
211.000000 153.000000
197.000000 153.000000
133.000000 246.000000
140.000000 232.000000
154.000000 224.000000
161.000000 228.000000
168.000000 224.000000
186.000000 232.000000
197.000000 242.000000
186.000000 250.000000
176.000000 257.000000
165.000000 260.000000
151.000000 260.000000
143.000000 253.000000
136.000000 246.000000
154.000000 239.000000
161.000000 235.000000
172.000000 239.000000
194.000000 242.000000
172.000000 242.000000
161.000000 246.000000
154.000000 246.000000
}
