version: 1
n_points: 68
{
62.000000 165.000000
69.000000 193.000000
76.000000 218.000000
80.000000 240.000000
90.000000 261.000000
108.000000 279.000000
122.000000 289.000000
140.000000 296.000000
169.000000 304.000000
197.000000 296.000000
215.000000 286.000000
229.000000 275.000000
243.000000 257.000000
250.000000 232.000000
254.000000 208.000000
258.000000 186.000000
261.000000 158.000000
83.000000 129.000000
94.000000 115.000000
112.000000 108.000000
126.000000 104.000000
137.000000 104.000000
194.000000 101.000000
204.000000 97.000000
218.000000 101.000000
233.000000 108.000000
243.000000 122.000000
165.000000 147.000000
165.000000 161.000000
165.000000 179.000000
165.000000 190.000000
151.000000 208.000000
158.000000 208.000000
165.000000 208.000000
176.000000 208.000000
183.000000 204.000000
105.000000 151.000000
115.000000 144.000000
126.000000 144.000000
137.000000 151.000000
126.000000 154.000000
115.000000 154.000000
190.000000 147.000000
204.000000 144.000000
215.000000 144.000000
226.000000 147.000000
215.000000 151.000000
201.000000 151.000000
137.000000 243.000000
144.000000 232.000000
158.000000 225.000000
165.000000 225.000000
172.000000 225.000000
186.000000 232.000000
197.000000 243.000000
190.000000 254.000000
176.000000 257.000000
165.000000 261.000000
154.000000 261.000000
147.000000 254.000000
140.000000 243.000000
158.000000 236.000000
165.000000 236.000000
176.000000 236.000000
197.000000 243.000000
176.000000 243.000000
165.000000 247.000000
158.000000 247.000000
}
