version: 1
n_points: 68
{
59.000000 165.000000
63.000000 190.000000
70.000000 215.000000
77.000000 240.000000
87.000000 262.000000
102.000000 280.000000
116.000000 290.000000
130.000000 297.000000
162.000000 304.000000
191.000000 297.000000
212.000000 287.000000
227.000000 276.000000
241.000000 255.000000
248.000000 230.000000
251.000000 208.000000
259.000000 183.000000
259.000000 155.000000
77.000000 133.000000
84.000000 123.000000
98.000000 116.000000
112.000000 116.000000
127.000000 119.000000
180.000000 116.000000
194.000000 116.000000
205.000000 116.000000
223.000000 119.000000
237.000000 126.000000
152.000000 148.000000
152.000000 165.000000
152.000000 180.000000
152.000000 190.000000
141.000000 205.000000
145.000000 205.000000
155.000000 208.000000
166.000000 205.000000
173.000000 205.000000
95.000000 155.000000
105.000000 148.000000
116.000000 148.000000
127.000000 151.000000
120.000000 155.000000
105.000000 158.000000
180.000000 151.000000
194.000000 144.000000
205.000000 144.000000
216.000000 148.000000
205.000000 155.000000
191.000000 155.000000
127.000000 244.000000
134.000000 233.000000
148.000000 222.000000
155.000000 226.000000
162.000000 222.000000
180.000000 233.000000
194.000000 244.000000
180.000000 251.000000
169.000000 258.000000
159.000000 258.000000
145.000000 258.000000
137.000000 255.000000
127.000000 244.000000
148.000000 237.000000
155.000000 237.000000
166.000000 237.000000
191.000000 244.000000
166.000000 244.000000
155.000000 247.000000
145.000000 244.000000
}
