version: 1
n_points: 68
{
59.000000 164.000000
62.000000 189.000000
70.000000 215.000000
77.000000 240.000000
87.000000 261.000000
102.000000 279.000000
116.000000 290.000000
131.000000 297.000000
163.000000 304.000000
192.000000 297.000000
213.000000 286.000000
227.000000 276.000000
238.000000 258.000000
249.000000 233.000000
253.000000 207.000000
256.000000 182.000000
260.000000 157.000000
77.000000 132.000000
87.000000 121.000000
102.000000 114.000000
116.000000 114.000000
127.000000 118.000000
181.000000 114.000000
195.000000 114.000000
209.000000 114.000000
224.000000 118.000000
238.000000 125.000000
152.000000 146.000000
152.000000 164.000000
152.000000 179.000000
152.000000 189.000000
141.000000 207.000000
145.000000 207.000000
156.000000 207.000000
166.000000 207.000000
174.000000 204.000000
95.000000 154.000000
105.000000 146.000000
116.000000 146.000000
127.000000 150.000000
120.000000 154.000000
105.000000 157.000000
184.000000 150.000000
195.000000 143.000000
206.000000 143.000000
217.000000 146.000000
206.000000 154.000000
195.000000 154.000000
127.000000 243.000000
134.000000 233.000000
148.000000 225.000000
156.000000 225.000000
163.000000 225.000000
181.000000 233.000000
195.000000 243.000000
181.000000 250.000000
170.000000 258.000000
156.000000 258.000000
145.000000 258.000000
134.000000 254.000000
127.000000 243.000000
145.000000 236.000000
156.000000 236.000000
166.000000 236.000000
192.000000 243.000000
166.000000 243.000000
156.000000 247.000000
145.000000 243.000000
}
