version: 1
n_points: 68
{
59.000000 163.000000
63.000000 192.000000
70.000000 213.000000
77.000000 238.000000
88.000000 260.000000
102.000000 281.000000
117.000000 289.000000
131.000000 296.000000
160.000000 303.000000
192.000000 296.000000
214.000000 285.000000
228.000000 274.000000
239.000000 256.000000
249.000000 231.000000
253.000000 206.000000
257.000000 181.000000
260.000000 156.000000
77.000000 131.000000
84.000000 120.000000
99.000000 113.000000
113.000000 113.000000
127.000000 113.000000
181.000000 113.000000
196.000000 109.000000
210.000000 109.000000
224.000000 113.000000
239.000000 127.000000
153.000000 145.000000
153.000000 163.000000
153.000000 177.000000
153.000000 192.000000
138.000000 206.000000
145.000000 206.000000
156.000000 210.000000
167.000000 206.000000
174.000000 206.000000
95.000000 152.000000
106.000000 145.000000
117.000000 145.000000
127.000000 152.000000
120.000000 156.000000
106.000000 156.000000
181.000000 149.000000
196.000000 145.000000
206.000000 145.000000
217.000000 149.000000
206.000000 152.000000
192.000000 152.000000
127.000000 245.000000
135.000000 235.000000
149.000000 224.000000
156.000000 228.000000
163.000000 224.000000
181.000000 231.000000
192.000000 245.000000
181.000000 253.000000
167.000000 256.000000
156.000000 260.000000
145.000000 260.000000
135.000000 253.000000
127.000000 245.000000
145.000000 238.000000
156.000000 238.000000
167.000000 238.000000
188.000000 245.000000
167.000000 245.000000
156.000000 245.000000
145.000000 245.000000
}
