version: 1
n_points: 68
{
61.000000 163.000000
64.000000 192.000000
71.000000 213.000000
78.000000 238.000000
89.000000 260.000000
104.000000 278.000000
118.000000 288.000000
132.000000 296.000000
164.000000 303.000000
193.000000 296.000000
211.000000 288.000000
225.000000 274.000000
240.000000 256.000000
250.000000 231.000000
254.000000 206.000000
258.000000 185.000000
261.000000 156.000000
78.000000 127.000000
89.000000 113.000000
100.000000 106.000000
114.000000 102.000000
129.000000 102.000000
186.000000 99.000000
197.000000 99.000000
211.000000 99.000000
229.000000 106.000000
240.000000 120.000000
157.000000 145.000000
157.000000 163.000000
154.000000 177.000000
154.000000 188.000000
143.000000 206.000000
150.000000 206.000000
157.000000 206.000000
168.000000 206.000000
175.000000 206.000000
96.000000 152.000000
107.000000 145.000000
118.000000 145.000000
132.000000 149.000000
121.000000 152.000000
107.000000 156.000000
186.000000 149.000000
197.000000 142.000000
211.000000 142.000000
218.000000 145.000000
211.000000 152.000000
197.000000 152.000000
129.000000 245.000000
136.000000 235.000000
150.000000 224.000000
157.000000 228.000000
164.000000 224.000000
182.000000 231.000000
193.000000 245.000000
182.000000 253.000000
172.000000 256.000000
161.000000 260.000000
147.000000 260.000000
139.000000 253.000000
132.000000 245.000000
150.000000 238.000000
161.000000 238.000000
168.000000 238.000000
193.000000 242.000000
168.000000 242.000000
161.000000 245.000000
150.000000 245.000000
}
