version: 1
n_points: 68
{
58.000000 165.000000
62.000000 193.000000
69.000000 215.000000
76.000000 240.000000
87.000000 261.000000
101.000000 279.000000
116.000000 290.000000
130.000000 293.000000
162.000000 304.000000
191.000000 297.000000
212.000000 286.000000
226.000000 272.000000
241.000000 254.000000
248.000000 229.000000
251.000000 208.000000
259.000000 183.000000
262.000000 154.000000
73.000000 133.000000
83.000000 122.000000
98.000000 118.000000
112.000000 115.000000
126.000000 118.000000
180.000000 115.000000
194.000000 115.000000
205.000000 115.000000
223.000000 118.000000
237.000000 125.000000
151.000000 147.000000
151.000000 165.000000
151.000000 179.000000
151.000000 190.000000
141.000000 204.000000
144.000000 208.000000
155.000000 208.000000
166.000000 204.000000
173.000000 204.000000
94.000000 154.000000
105.000000 147.000000
116.000000 147.000000
126.000000 151.000000
119.000000 154.000000
105.000000 158.000000
183.000000 151.000000
194.000000 143.000000
205.000000 143.000000
216.000000 147.000000
205.000000 154.000000
191.000000 154.000000
126.000000 243.000000
133.000000 233.000000
148.000000 226.000000
155.000000 226.000000
162.000000 222.000000
180.000000 233.000000
194.000000 240.000000
180.000000 251.000000
169.000000 258.000000
158.000000 258.000000
144.000000 261.000000
137.000000 254.000000
126.000000 243.000000
148.000000 236.000000
155.000000 236.000000
166.000000 236.000000
191.000000 240.000000
169.000000 243.000000
158.000000 247.000000
148.000000 247.000000
}
