version: 1
n_points: 68
{
59.000000 165.000000
63.000000 193.000000
70.000000 214.000000
77.000000 239.000000
88.000000 264.000000
102.000000 282.000000
116.000000 289.000000
131.000000 296.000000
163.000000 303.000000
191.000000 296.000000
212.000000 289.000000
226.000000 275.000000
241.000000 257.000000
248.000000 232.000000
251.000000 207.000000
258.000000 182.000000
262.000000 157.000000
77.000000 133.000000
84.000000 122.000000
99.000000 118.000000
113.000000 115.000000
127.000000 118.000000
180.000000 118.000000
194.000000 115.000000
209.000000 115.000000
223.000000 118.000000
237.000000 129.000000
152.000000 147.000000
152.000000 165.000000
152.000000 179.000000
152.000000 193.000000
141.000000 207.000000
145.000000 207.000000
155.000000 211.000000
166.000000 207.000000
173.000000 207.000000
95.000000 154.000000
106.000000 147.000000
116.000000 147.000000
127.000000 154.000000
120.000000 157.000000
106.000000 157.000000
184.000000 150.000000
194.000000 143.000000
205.000000 143.000000
216.000000 150.000000
205.000000 154.000000
194.000000 154.000000
123.000000 246.000000
134.000000 236.000000
148.000000 225.000000
155.000000 229.000000
163.000000 225.000000
180.000000 232.000000
194.000000 246.000000
180.000000 253.000000
170.000000 257.000000
155.000000 261.000000
145.000000 261.000000
134.000000 253.000000
127.000000 246.000000
148.000000 239.000000
155.000000 236.000000
166.000000 239.000000
191.000000 243.000000
166.000000 246.000000
155.000000 246.000000
145.000000 246.000000
}
