version: 1
n_points: 68
{
60.000000 163.000000
60.000000 192.000000
67.000000 213.000000
74.000000 234.000000
85.000000 259.000000
99.000000 277.000000
113.000000 288.000000
131.000000 295.000000
160.000000 302.000000
192.000000 295.000000
213.000000 284.000000
227.000000 270.000000
242.000000 249.000000
249.000000 224.000000
252.000000 202.000000
256.000000 177.000000
259.000000 152.000000
74.000000 131.000000
85.000000 124.000000
99.000000 117.000000
113.000000 117.000000
127.000000 117.000000
181.000000 117.000000
192.000000 113.000000
206.000000 113.000000
224.000000 117.000000
234.000000 127.000000
152.000000 149.000000
152.000000 167.000000
152.000000 181.000000
152.000000 192.000000
138.000000 202.000000
145.000000 206.000000
156.000000 209.000000
167.000000 206.000000
174.000000 202.000000
95.000000 152.000000
102.000000 149.000000
117.000000 149.000000
127.000000 152.000000
117.000000 156.000000
102.000000 156.000000
181.000000 149.000000
192.000000 145.000000
206.000000 145.000000
217.000000 149.000000
206.000000 152.000000
192.000000 152.000000
117.000000 238.000000
127.000000 227.000000
145.000000 224.000000
156.000000 224.000000
167.000000 224.000000
184.000000 227.000000
202.000000 234.000000
184.000000 249.000000
170.000000 256.000000
156.000000 259.000000
145.000000 259.000000
131.000000 252.000000
120.000000 238.000000
145.000000 234.000000
156.000000 231.000000
170.000000 231.000000
199.000000 234.000000
170.000000 245.000000
156.000000 249.000000
145.000000 245.000000
}
