version: 1
n_points: 68
{
59.000000 166.000000
62.000000 191.000000
66.000000 213.000000
73.000000 234.000000
84.000000 260.000000
98.000000 278.000000
112.000000 288.000000
130.000000 295.000000
163.000000 303.000000
191.000000 295.000000
213.000000 285.000000
227.000000 270.000000
241.000000 252.000000
249.000000 227.000000
252.000000 202.000000
256.000000 181.000000
259.000000 152.000000
73.000000 134.000000
84.000000 123.000000
98.000000 116.000000
112.000000 116.000000
127.000000 116.000000
181.000000 116.000000
191.000000 113.000000
206.000000 113.000000
224.000000 116.000000
238.000000 127.000000
152.000000 148.000000
152.000000 163.000000
152.000000 177.000000
152.000000 191.000000
138.000000 202.000000
145.000000 206.000000
155.000000 209.000000
166.000000 206.000000
173.000000 202.000000
94.000000 152.000000
105.000000 148.000000
116.000000 148.000000
127.000000 152.000000
116.000000 156.000000
105.000000 156.000000
181.000000 148.000000
195.000000 145.000000
206.000000 145.000000
216.000000 148.000000
206.000000 152.000000
191.000000 152.000000
120.000000 238.000000
130.000000 231.000000
148.000000 224.000000
155.000000 224.000000
166.000000 224.000000
184.000000 227.000000
202.000000 234.000000
184.000000 249.000000
173.000000 256.000000
159.000000 256.000000
145.000000 256.000000
134.000000 252.000000
123.000000 238.000000
145.000000 234.000000
155.000000 234.000000
170.000000 231.000000
198.000000 234.000000
170.000000 242.000000
159.000000 245.000000
145.000000 245.000000
}
