version: 1
n_points: 68
{
62.000000 158.000000
65.000000 183.000000
69.000000 208.000000
76.000000 230.000000
87.000000 255.000000
101.000000 273.000000
116.000000 283.000000
134.000000 291.000000
166.000000 301.000000
198.000000 291.000000
216.000000 280.000000
230.000000 269.000000
245.000000 247.000000
252.000000 226.000000
256.000000 201.000000
263.000000 179.000000
263.000000 154.000000
80.000000 129.000000
90.000000 118.000000
108.000000 111.000000
123.000000 111.000000
134.000000 115.000000
187.000000 115.000000
202.000000 111.000000
216.000000 111.000000
230.000000 118.000000
245.000000 125.000000
162.000000 143.000000
159.000000 161.000000
159.000000 176.000000
159.000000 190.000000
144.000000 201.000000
151.000000 201.000000
162.000000 204.000000
173.000000 201.000000
180.000000 201.000000
101.000000 147.000000
112.000000 143.000000
123.000000 143.000000
134.000000 147.000000
123.000000 151.000000
112.000000 151.000000
187.000000 147.000000
202.000000 143.000000
213.000000 143.000000
223.000000 147.000000
213.000000 151.000000
198.000000 151.000000
119.000000 233.000000
134.000000 222.000000
151.000000 219.000000
162.000000 219.000000
173.000000 219.000000
195.000000 222.000000
209.000000 230.000000
191.000000 247.000000
177.000000 255.000000
162.000000 255.000000
148.000000 255.000000
137.000000 247.000000
123.000000 230.000000
148.000000 226.000000
162.000000 226.000000
177.000000 226.000000
209.000000 230.000000
177.000000 240.000000
162.000000 244.000000
148.000000 244.000000
}
