version: 1
n_points: 68
{
61.000000 155.000000
61.000000 184.000000
68.000000 206.000000
72.000000 227.000000
83.000000 253.000000
97.000000 271.000000
111.000000 281.000000
133.000000 292.000000
165.000000 299.000000
194.000000 292.000000
216.000000 281.000000
230.000000 267.000000
245.000000 249.000000
252.000000 224.000000
255.000000 202.000000
263.000000 177.000000
263.000000 152.000000
79.000000 127.000000
90.000000 116.000000
108.000000 112.000000
122.000000 109.000000
133.000000 112.000000
187.000000 112.000000
201.000000 112.000000
216.000000 112.000000
230.000000 116.000000
245.000000 127.000000
162.000000 145.000000
158.000000 163.000000
158.000000 173.000000
158.000000 188.000000
144.000000 199.000000
151.000000 202.000000
162.000000 202.000000
173.000000 202.000000
180.000000 199.000000
101.000000 148.000000
111.000000 145.000000
122.000000 141.000000
133.000000 148.000000
122.000000 152.000000
111.000000 152.000000
187.000000 145.000000
201.000000 141.000000
212.000000 141.000000
223.000000 145.000000
212.000000 152.000000
198.000000 148.000000
119.000000 231.000000
133.000000 224.000000
151.000000 217.000000
162.000000 220.000000
173.000000 217.000000
194.000000 220.000000
209.000000 231.000000
191.000000 245.000000
176.000000 253.000000
162.000000 256.000000
147.000000 253.000000
133.000000 245.000000
122.000000 231.000000
147.000000 227.000000
162.000000 227.000000
176.000000 227.000000
205.000000 231.000000
176.000000 242.000000
162.000000 242.000000
147.000000 242.000000
}
