version: 1
n_points: 68
{
62.000000 157.000000
66.000000 186.000000
69.000000 208.000000
76.000000 229.000000
84.000000 254.000000
98.000000 272.000000
116.000000 283.000000
134.000000 294.000000
166.000000 301.000000
198.000000 294.000000
216.000000 283.000000
231.000000 268.000000
245.000000 251.000000
252.000000 225.000000
256.000000 204.000000
263.000000 179.000000
263.000000 154.000000
80.000000 129.000000
91.000000 118.000000
105.000000 114.000000
119.000000 114.000000
134.000000 114.000000
188.000000 114.000000
202.000000 114.000000
216.000000 111.000000
231.000000 118.000000
245.000000 125.000000
159.000000 147.000000
159.000000 161.000000
159.000000 175.000000
159.000000 190.000000
144.000000 200.000000
152.000000 204.000000
162.000000 204.000000
173.000000 204.000000
180.000000 200.000000
101.000000 150.000000
109.000000 143.000000
123.000000 143.000000
134.000000 150.000000
123.000000 154.000000
112.000000 154.000000
188.000000 147.000000
198.000000 143.000000
213.000000 143.000000
223.000000 147.000000
213.000000 150.000000
198.000000 150.000000
119.000000 233.000000
134.000000 225.000000
152.000000 218.000000
162.000000 222.000000
173.000000 218.000000
195.000000 222.000000
209.000000 233.000000
191.000000 247.000000
177.000000 254.000000
162.000000 258.000000
148.000000 258.000000
134.000000 247.000000
123.000000 233.000000
148.000000 229.000000
162.000000 229.000000
177.000000 229.000000
205.000000 229.000000
177.000000 243.000000
162.000000 243.000000
148.000000 243.000000
}
