version: 1
n_points: 68
{
60.000000 155.000000
60.000000 184.000000
67.000000 206.000000
74.000000 227.000000
82.000000 253.000000
96.000000 271.000000
110.000000 282.000000
132.000000 289.000000
165.000000 300.000000
194.000000 292.000000
215.000000 282.000000
230.000000 267.000000
244.000000 249.000000
251.000000 224.000000
255.000000 202.000000
262.000000 177.000000
262.000000 152.000000
78.000000 126.000000
89.000000 115.000000
103.000000 112.000000
121.000000 108.000000
132.000000 112.000000
186.000000 112.000000
197.000000 108.000000
212.000000 108.000000
230.000000 115.000000
241.000000 123.000000
157.000000 144.000000
157.000000 159.000000
157.000000 173.000000
157.000000 188.000000
143.000000 199.000000
150.000000 202.000000
161.000000 202.000000
172.000000 202.000000
179.000000 199.000000
100.000000 148.000000
110.000000 144.000000
121.000000 141.000000
132.000000 148.000000
121.000000 152.000000
110.000000 152.000000
186.000000 144.000000
197.000000 141.000000
212.000000 141.000000
222.000000 144.000000
212.000000 148.000000
197.000000 148.000000
118.000000 231.000000
132.000000 224.000000
150.000000 217.000000
161.000000 220.000000
168.000000 217.000000
190.000000 220.000000
208.000000 231.000000
190.000000 245.000000
175.000000 253.000000
161.000000 253.000000
147.000000 253.000000
132.000000 245.000000
121.000000 231.000000
147.000000 227.000000
161.000000 227.000000
175.000000 227.000000
204.000000 231.000000
175.000000 242.000000
161.000000 242.000000
147.000000 242.000000
}
