version: 1
n_points: 68
{
57.000000 155.000000
61.000000 181.000000
64.000000 202.000000
71.000000 228.000000
79.000000 253.000000
93.000000 271.000000
108.000000 282.000000
126.000000 289.000000
159.000000 300.000000
191.000000 293.000000
209.000000 282.000000
228.000000 268.000000
238.000000 250.000000
249.000000 224.000000
253.000000 202.000000
257.000000 177.000000
260.000000 152.000000
75.000000 122.000000
86.000000 115.000000
100.000000 108.000000
115.000000 108.000000
130.000000 112.000000
180.000000 112.000000
195.000000 108.000000
209.000000 108.000000
228.000000 112.000000
238.000000 122.000000
155.000000 141.000000
155.000000 159.000000
151.000000 173.000000
151.000000 184.000000
137.000000 199.000000
144.000000 199.000000
155.000000 202.000000
166.000000 199.000000
173.000000 199.000000
93.000000 144.000000
104.000000 141.000000
115.000000 141.000000
130.000000 144.000000
119.000000 148.000000
104.000000 148.000000
184.000000 144.000000
195.000000 141.000000
206.000000 141.000000
217.000000 144.000000
206.000000 148.000000
195.000000 148.000000
115.000000 231.000000
126.000000 220.000000
148.000000 217.000000
155.000000 217.000000
166.000000 217.000000
188.000000 220.000000
202.000000 231.000000
184.000000 246.000000
173.000000 253.000000
155.000000 257.000000
140.000000 257.000000
130.000000 250.000000
119.000000 231.000000
144.000000 224.000000
155.000000 224.000000
169.000000 228.000000
198.000000 231.000000
169.000000 242.000000
155.000000 246.000000
144.000000 242.000000
}
