version: 1
n_points: 68
{
57.000000 153.000000
57.000000 182.000000
65.000000 204.000000
72.000000 230.000000
79.000000 255.000000
94.000000 273.000000
108.000000 284.000000
126.000000 291.000000
155.000000 302.000000
188.000000 295.000000
210.000000 284.000000
224.000000 273.000000
239.000000 251.000000
246.000000 226.000000
253.000000 204.000000
257.000000 179.000000
261.000000 153.000000
76.000000 124.000000
86.000000 113.000000
101.000000 106.000000
115.000000 106.000000
130.000000 110.000000
184.000000 110.000000
195.000000 106.000000
210.000000 106.000000
228.000000 113.000000
239.000000 124.000000
155.000000 139.000000
155.000000 157.000000
152.000000 171.000000
152.000000 182.000000
137.000000 197.000000
144.000000 197.000000
155.000000 201.000000
166.000000 201.000000
174.000000 197.000000
97.000000 146.000000
105.000000 139.000000
119.000000 139.000000
130.000000 146.000000
119.000000 150.000000
105.000000 150.000000
184.000000 142.000000
195.000000 139.000000
210.000000 139.000000
217.000000 142.000000
206.000000 150.000000
195.000000 146.000000
119.000000 233.000000
126.000000 222.000000
144.000000 215.000000
155.000000 219.000000
166.000000 215.000000
184.000000 222.000000
199.000000 237.000000
184.000000 248.000000
170.000000 255.000000
155.000000 259.000000
141.000000 255.000000
130.000000 248.000000
119.000000 233.000000
144.000000 226.000000
155.000000 226.000000
170.000000 226.000000
195.000000 237.000000
170.000000 244.000000
155.000000 244.000000
144.000000 244.000000
}
