version: 1
n_points: 68
{
58.000000 152.000000
61.000000 181.000000
65.000000 203.000000
72.000000 228.000000
80.000000 254.000000
94.000000 272.000000
109.000000 283.000000
127.000000 290.000000
160.000000 301.000000
189.000000 294.000000
211.000000 283.000000
225.000000 272.000000
240.000000 250.000000
251.000000 225.000000
254.000000 203.000000
258.000000 177.000000
262.000000 152.000000
76.000000 123.000000
87.000000 112.000000
105.000000 105.000000
120.000000 105.000000
131.000000 108.000000
185.000000 108.000000
200.000000 108.000000
214.000000 108.000000
229.000000 112.000000
243.000000 123.000000
156.000000 137.000000
156.000000 155.000000
156.000000 170.000000
152.000000 181.000000
141.000000 196.000000
149.000000 196.000000
156.000000 199.000000
167.000000 199.000000
178.000000 196.000000
98.000000 145.000000
105.000000 137.000000
120.000000 137.000000
131.000000 145.000000
120.000000 148.000000
109.000000 148.000000
185.000000 145.000000
196.000000 137.000000
211.000000 137.000000
222.000000 145.000000
211.000000 148.000000
196.000000 148.000000
120.000000 232.000000
131.000000 221.000000
149.000000 214.000000
156.000000 217.000000
167.000000 214.000000
185.000000 221.000000
200.000000 236.000000
185.000000 246.000000
171.000000 254.000000
156.000000 254.000000
145.000000 254.000000
131.000000 246.000000
123.000000 232.000000
145.000000 225.000000
156.000000 225.000000
171.000000 225.000000
196.000000 236.000000
171.000000 243.000000
156.000000 243.000000
145.000000 243.000000
}
