version: 1
n_points: 68
{
58.000000 153.000000
61.000000 182.000000
65.000000 204.000000
72.000000 230.000000
79.000000 251.000000
94.000000 269.000000
108.000000 280.000000
127.000000 291.000000
156.000000 299.000000
188.000000 291.000000
210.000000 284.000000
225.000000 269.000000
239.000000 251.000000
246.000000 226.000000
254.000000 204.000000
257.000000 179.000000
261.000000 153.000000
76.000000 124.000000
87.000000 113.000000
101.000000 106.000000
116.000000 106.000000
130.000000 110.000000
185.000000 110.000000
196.000000 106.000000
210.000000 106.000000
228.000000 113.000000
239.000000 124.000000
156.000000 139.000000
156.000000 157.000000
152.000000 171.000000
152.000000 182.000000
137.000000 197.000000
145.000000 197.000000
156.000000 200.000000
166.000000 197.000000
174.000000 197.000000
94.000000 142.000000
105.000000 139.000000
119.000000 139.000000
130.000000 146.000000
119.000000 146.000000
105.000000 150.000000
185.000000 142.000000
196.000000 139.000000
210.000000 139.000000
217.000000 142.000000
206.000000 150.000000
196.000000 146.000000
119.000000 233.000000
127.000000 222.000000
145.000000 215.000000
156.000000 215.000000
163.000000 215.000000
185.000000 222.000000
199.000000 233.000000
181.000000 248.000000
170.000000 255.000000
156.000000 255.000000
141.000000 255.000000
130.000000 248.000000
119.000000 233.000000
141.000000 226.000000
156.000000 226.000000
170.000000 226.000000
196.000000 233.000000
170.000000 244.000000
156.000000 244.000000
141.000000 244.000000
}
