version: 1
n_points: 68
{
57.000000 153.000000
60.000000 182.000000
64.000000 204.000000
71.000000 229.000000
78.000000 251.000000
93.000000 273.000000
107.000000 284.000000
126.000000 291.000000
158.000000 298.000000
188.000000 295.000000
209.000000 284.000000
224.000000 269.000000
238.000000 251.000000
249.000000 225.000000
253.000000 204.000000
257.000000 178.000000
260.000000 153.000000
75.000000 124.000000
86.000000 113.000000
100.000000 105.000000
115.000000 105.000000
129.000000 109.000000
184.000000 109.000000
195.000000 105.000000
209.000000 105.000000
228.000000 113.000000
238.000000 124.000000
155.000000 138.000000
155.000000 156.000000
151.000000 171.000000
151.000000 185.000000
137.000000 196.000000
144.000000 196.000000
155.000000 200.000000
166.000000 200.000000
173.000000 196.000000
97.000000 142.000000
104.000000 138.000000
118.000000 138.000000
129.000000 145.000000
118.000000 149.000000
104.000000 149.000000
184.000000 142.000000
195.000000 138.000000
209.000000 138.000000
217.000000 142.000000
206.000000 149.000000
195.000000 145.000000
118.000000 233.000000
126.000000 222.000000
147.000000 214.000000
155.000000 214.000000
166.000000 214.000000
184.000000 222.000000
198.000000 233.000000
184.000000 247.000000
169.000000 255.000000
155.000000 258.000000
140.000000 255.000000
129.000000 247.000000
118.000000 233.000000
144.000000 225.000000
155.000000 225.000000
169.000000 225.000000
195.000000 233.000000
169.000000 244.000000
155.000000 244.000000
144.000000 244.000000
}
