version: 1
n_points: 32
{
169.000000 210.000000
187.000000 204.000000
205.000000 198.000000
229.000000 210.000000
211.000000 216.000000
187.000000 216.000000
318.000000 210.000000
336.000000 198.000000
360.000000 198.000000
378.000000 210.000000
360.000000 216.000000
336.000000 216.000000
217.000000 371.000000
235.000000 353.000000
259.000000 341.000000
270.000000 341.000000
282.000000 341.000000
306.000000 353.000000
324.000000 371.000000
306.000000 395.000000
288.000000 401.000000
270.000000 407.000000
247.000000 407.000000
235.000000 395.000000
223.000000 371.000000
253.000000 359.000000
270.000000 359.000000
288.000000 359.000000
318.000000 371.000000
288.000000 383.000000
270.000000 383.000000
253.000000 383.000000
}
