version: 1
n_points: 32
{
168.000000 213.000000
187.000000 201.000000
211.000000 201.000000
229.000000 213.000000
211.000000 219.000000
187.000000 219.000000
319.000000 207.000000
337.000000 201.000000
361.000000 201.000000
373.000000 207.000000
361.000000 213.000000
337.000000 213.000000
223.000000 369.000000
235.000000 351.000000
259.000000 339.000000
271.000000 345.000000
283.000000 339.000000
307.000000 357.000000
331.000000 375.000000
307.000000 393.000000
289.000000 405.000000
271.000000 405.000000
253.000000 405.000000
235.000000 393.000000
223.000000 369.000000
253.000000 357.000000
271.000000 357.000000
289.000000 363.000000
325.000000 375.000000
289.000000 381.000000
271.000000 381.000000
253.000000 381.000000
}
