version: 1
n_points: 32
{
176.000000 211.000000
193.000000 200.000000
211.000000 200.000000
235.000000 211.000000
217.000000 217.000000
193.000000 217.000000
323.000000 205.000000
341.000000 200.000000
364.000000 200.000000
382.000000 205.000000
364.000000 217.000000
341.000000 217.000000
229.000000 371.000000
240.000000 353.000000
264.000000 341.000000
276.000000 347.000000
288.000000 341.000000
311.000000 353.000000
329.000000 371.000000
311.000000 388.000000
293.000000 400.000000
276.000000 400.000000
258.000000 400.000000
240.000000 388.000000
229.000000 371.000000
258.000000 359.000000
276.000000 359.000000
293.000000 365.000000
329.000000 371.000000
293.000000 376.000000
276.000000 376.000000
258.000000 376.000000
}
