version: 1
n_points: 32
{
182.000000 212.000000
199.000000 200.000000
216.000000 200.000000
240.000000 206.000000
216.000000 218.000000
199.000000 218.000000
327.000000 206.000000
344.000000 194.000000
367.000000 194.000000
385.000000 206.000000
367.000000 212.000000
344.000000 212.000000
234.000000 368.000000
245.000000 351.000000
269.000000 339.000000
280.000000 339.000000
292.000000 339.000000
315.000000 351.000000
332.000000 368.000000
315.000000 380.000000
298.000000 386.000000
280.000000 386.000000
263.000000 386.000000
245.000000 380.000000
234.000000 362.000000
269.000000 357.000000
280.000000 357.000000
298.000000 357.000000
332.000000 362.000000
298.000000 362.000000
280.000000 362.000000
269.000000 362.000000
}
