version: 1
n_points: 32
{
171.000000 211.000000
189.000000 206.000000
213.000000 200.000000
230.000000 211.000000
213.000000 217.000000
189.000000 223.000000
319.000000 211.000000
342.000000 200.000000
360.000000 200.000000
377.000000 206.000000
360.000000 217.000000
336.000000 217.000000
224.000000 370.000000
236.000000 353.000000
260.000000 341.000000
271.000000 347.000000
289.000000 341.000000
313.000000 353.000000
330.000000 376.000000
307.000000 394.000000
295.000000 406.000000
271.000000 406.000000
254.000000 406.000000
242.000000 394.000000
230.000000 370.000000
260.000000 359.000000
271.000000 359.000000
289.000000 364.000000
324.000000 376.000000
289.000000 382.000000
271.000000 388.000000
260.000000 382.000000
}
