version: 1
n_points: 32
{
172.000000 211.000000
189.000000 205.000000
213.000000 200.000000
230.000000 211.000000
213.000000 217.000000
189.000000 223.000000
318.000000 211.000000
342.000000 200.000000
359.000000 200.000000
377.000000 205.000000
359.000000 217.000000
342.000000 217.000000
224.000000 370.000000
242.000000 352.000000
260.000000 340.000000
271.000000 346.000000
289.000000 340.000000
312.000000 358.000000
324.000000 376.000000
306.000000 393.000000
295.000000 405.000000
271.000000 405.000000
254.000000 405.000000
242.000000 393.000000
230.000000 370.000000
260.000000 358.000000
271.000000 358.000000
289.000000 364.000000
324.000000 376.000000
289.000000 381.000000
271.000000 387.000000
260.000000 381.000000
}
