version: 1
n_points: 32
{
180.000000 208.000000
197.000000 196.000000
215.000000 196.000000
238.000000 208.000000
215.000000 214.000000
197.000000 214.000000
325.000000 202.000000
343.000000 196.000000
366.000000 196.000000
383.000000 202.000000
366.000000 214.000000
343.000000 214.000000
232.000000 365.000000
244.000000 353.000000
267.000000 342.000000
279.000000 342.000000
290.000000 342.000000
314.000000 347.000000
331.000000 365.000000
314.000000 376.000000
296.000000 382.000000
279.000000 388.000000
261.000000 388.000000
250.000000 376.000000
232.000000 365.000000
267.000000 359.000000
279.000000 359.000000
296.000000 359.000000
331.000000 365.000000
296.000000 365.000000
279.000000 365.000000
267.000000 365.000000
}
