version: 1
n_points: 32
{
171.000000 212.000000
189.000000 206.000000
213.000000 200.000000
230.000000 212.000000
213.000000 218.000000
189.000000 218.000000
319.000000 212.000000
337.000000 200.000000
361.000000 200.000000
378.000000 206.000000
361.000000 218.000000
337.000000 218.000000
224.000000 372.000000
236.000000 354.000000
260.000000 342.000000
272.000000 342.000000
284.000000 342.000000
313.000000 354.000000
331.000000 372.000000
313.000000 390.000000
290.000000 402.000000
272.000000 408.000000
254.000000 402.000000
236.000000 396.000000
224.000000 372.000000
260.000000 360.000000
272.000000 360.000000
290.000000 360.000000
325.000000 372.000000
290.000000 378.000000
272.000000 384.000000
254.000000 384.000000
}
