version: 1
n_points: 32
{
178.000000 210.000000
196.000000 198.000000
213.000000 198.000000
236.000000 210.000000
219.000000 216.000000
196.000000 216.000000
324.000000 204.000000
341.000000 198.000000
365.000000 198.000000
382.000000 204.000000
365.000000 216.000000
341.000000 216.000000
231.000000 367.000000
242.000000 350.000000
266.000000 344.000000
277.000000 344.000000
289.000000 344.000000
312.000000 356.000000
330.000000 367.000000
312.000000 379.000000
295.000000 385.000000
277.000000 391.000000
260.000000 391.000000
242.000000 379.000000
231.000000 367.000000
266.000000 362.000000
277.000000 362.000000
295.000000 362.000000
330.000000 367.000000
295.000000 367.000000
277.000000 367.000000
266.000000 367.000000
}
