version: 1
n_points: 32
{
180.000000 210.000000
192.000000 199.000000
215.000000 199.000000
238.000000 204.000000
215.000000 216.000000
192.000000 216.000000
325.000000 204.000000
342.000000 193.000000
365.000000 193.000000
382.000000 204.000000
365.000000 210.000000
342.000000 210.000000
232.000000 366.000000
244.000000 349.000000
267.000000 337.000000
278.000000 343.000000
290.000000 337.000000
313.000000 349.000000
330.000000 366.000000
313.000000 377.000000
296.000000 383.000000
278.000000 389.000000
261.000000 383.000000
250.000000 377.000000
238.000000 366.000000
267.000000 360.000000
278.000000 354.000000
296.000000 360.000000
330.000000 360.000000
296.000000 360.000000
278.000000 366.000000
267.000000 366.000000
}
