version: 1
n_points: 32
{
173.000000 207.000000
185.000000 201.000000
209.000000 201.000000
233.000000 207.000000
209.000000 219.000000
191.000000 219.000000
317.000000 207.000000
341.000000 195.000000
359.000000 195.000000
377.000000 207.000000
359.000000 213.000000
335.000000 213.000000
221.000000 369.000000
233.000000 351.000000
257.000000 339.000000
269.000000 345.000000
287.000000 339.000000
311.000000 357.000000
329.000000 369.000000
311.000000 393.000000
293.000000 405.000000
269.000000 405.000000
251.000000 405.000000
239.000000 393.000000
227.000000 369.000000
257.000000 357.000000
269.000000 357.000000
287.000000 357.000000
323.000000 369.000000
287.000000 381.000000
275.000000 387.000000
257.000000 381.000000
}
