version: 1
n_points: 32
{
171.000000 206.000000
189.000000 200.000000
207.000000 200.000000
226.000000 206.000000
207.000000 218.000000
189.000000 218.000000
316.000000 206.000000
341.000000 194.000000
359.000000 194.000000
377.000000 206.000000
359.000000 212.000000
335.000000 212.000000
220.000000 363.000000
232.000000 345.000000
256.000000 333.000000
274.000000 339.000000
286.000000 333.000000
310.000000 345.000000
329.000000 369.000000
310.000000 394.000000
292.000000 406.000000
274.000000 406.000000
250.000000 406.000000
238.000000 394.000000
226.000000 363.000000
256.000000 351.000000
274.000000 351.000000
286.000000 351.000000
329.000000 369.000000
292.000000 381.000000
274.000000 387.000000
256.000000 381.000000
}
