version: 1
n_points: 32
{
171.000000 207.000000
189.000000 194.000000
208.000000 194.000000
226.000000 207.000000
214.000000 213.000000
189.000000 213.000000
318.000000 200.000000
336.000000 188.000000
360.000000 188.000000
379.000000 200.000000
360.000000 207.000000
336.000000 207.000000
201.000000 341.000000
220.000000 329.000000
256.000000 323.000000
275.000000 323.000000
293.000000 323.000000
330.000000 329.000000
354.000000 341.000000
330.000000 378.000000
299.000000 396.000000
275.000000 396.000000
250.000000 396.000000
226.000000 378.000000
208.000000 341.000000
250.000000 335.000000
275.000000 335.000000
299.000000 341.000000
348.000000 341.000000
299.000000 372.000000
275.000000 378.000000
250.000000 372.000000
}
