version: 1
n_points: 32
{
175.000000 203.000000
193.000000 197.000000
211.000000 191.000000
229.000000 203.000000
211.000000 209.000000
193.000000 209.000000
320.000000 197.000000
344.000000 191.000000
362.000000 191.000000
380.000000 197.000000
362.000000 203.000000
338.000000 203.000000
205.000000 342.000000
223.000000 330.000000
259.000000 324.000000
278.000000 324.000000
296.000000 324.000000
332.000000 330.000000
362.000000 342.000000
332.000000 378.000000
308.000000 396.000000
278.000000 396.000000
253.000000 396.000000
229.000000 378.000000
211.000000 342.000000
253.000000 336.000000
278.000000 336.000000
302.000000 336.000000
356.000000 342.000000
308.000000 372.000000
278.000000 378.000000
253.000000 372.000000
}
