version: 1
n_points: 32
{
174.000000 208.000000
186.000000 202.000000
209.000000 202.000000
233.000000 208.000000
209.000000 214.000000
192.000000 220.000000
316.000000 208.000000
340.000000 197.000000
364.000000 197.000000
376.000000 208.000000
358.000000 214.000000
340.000000 214.000000
221.000000 369.000000
233.000000 351.000000
257.000000 339.000000
275.000000 345.000000
287.000000 339.000000
311.000000 351.000000
328.000000 375.000000
311.000000 393.000000
293.000000 405.000000
275.000000 410.000000
251.000000 405.000000
239.000000 393.000000
227.000000 369.000000
257.000000 357.000000
275.000000 357.000000
287.000000 357.000000
322.000000 375.000000
293.000000 387.000000
275.000000 387.000000
257.000000 387.000000
}
