version: 1
n_points: 32
{
177.000000 205.000000
196.000000 198.000000
214.000000 192.000000
232.000000 205.000000
214.000000 211.000000
196.000000 211.000000
324.000000 198.000000
342.000000 192.000000
360.000000 192.000000
379.000000 198.000000
367.000000 205.000000
342.000000 205.000000
208.000000 345.000000
226.000000 327.000000
263.000000 321.000000
281.000000 327.000000
299.000000 321.000000
336.000000 327.000000
367.000000 345.000000
336.000000 382.000000
306.000000 394.000000
281.000000 400.000000
257.000000 394.000000
232.000000 382.000000
208.000000 345.000000
257.000000 339.000000
281.000000 339.000000
306.000000 339.000000
360.000000 345.000000
306.000000 375.000000
281.000000 375.000000
257.000000 375.000000
}
