version: 1
n_points: 32
{
179.000000 203.000000
191.000000 197.000000
216.000000 191.000000
234.000000 203.000000
216.000000 209.000000
197.000000 209.000000
327.000000 197.000000
345.000000 191.000000
364.000000 191.000000
382.000000 197.000000
364.000000 203.000000
345.000000 203.000000
210.000000 345.000000
228.000000 327.000000
265.000000 320.000000
284.000000 327.000000
302.000000 320.000000
339.000000 327.000000
364.000000 345.000000
333.000000 382.000000
308.000000 394.000000
284.000000 394.000000
259.000000 394.000000
234.000000 382.000000
210.000000 345.000000
259.000000 339.000000
284.000000 339.000000
308.000000 339.000000
364.000000 345.000000
308.000000 370.000000
284.000000 376.000000
259.000000 376.000000
}
