version: 1
n_points: 32
{
168.000000 206.000000
186.000000 200.000000
204.000000 194.000000
229.000000 206.000000
210.000000 212.000000
186.000000 212.000000
320.000000 206.000000
339.000000 194.000000
357.000000 194.000000
375.000000 200.000000
357.000000 212.000000
339.000000 206.000000
204.000000 346.000000
222.000000 334.000000
259.000000 328.000000
271.000000 328.000000
290.000000 328.000000
320.000000 334.000000
345.000000 352.000000
320.000000 383.000000
296.000000 395.000000
271.000000 401.000000
247.000000 395.000000
229.000000 383.000000
210.000000 346.000000
253.000000 340.000000
271.000000 340.000000
296.000000 346.000000
345.000000 352.000000
296.000000 377.000000
271.000000 377.000000
253.000000 377.000000
}
