version: 1
n_points: 32
{
176.000000 209.000000
194.000000 197.000000
212.000000 197.000000
236.000000 203.000000
218.000000 209.000000
194.000000 215.000000
326.000000 203.000000
344.000000 191.000000
368.000000 191.000000
386.000000 197.000000
368.000000 209.000000
344.000000 209.000000
224.000000 365.000000
242.000000 341.000000
266.000000 329.000000
278.000000 335.000000
296.000000 329.000000
320.000000 347.000000
344.000000 365.000000
320.000000 389.000000
302.000000 395.000000
278.000000 401.000000
260.000000 401.000000
242.000000 389.000000
230.000000 365.000000
260.000000 347.000000
278.000000 347.000000
296.000000 353.000000
338.000000 365.000000
302.000000 377.000000
284.000000 377.000000
260.000000 377.000000
}
