version: 1
n_points: 32
{
178.000000 204.000000
190.000000 198.000000
214.000000 191.000000
233.000000 204.000000
214.000000 210.000000
196.000000 210.000000
324.000000 198.000000
349.000000 191.000000
367.000000 191.000000
385.000000 198.000000
367.000000 210.000000
343.000000 204.000000
220.000000 362.000000
233.000000 338.000000
263.000000 326.000000
281.000000 332.000000
294.000000 326.000000
324.000000 338.000000
349.000000 362.000000
324.000000 387.000000
306.000000 393.000000
281.000000 399.000000
257.000000 399.000000
239.000000 387.000000
227.000000 362.000000
257.000000 344.000000
281.000000 344.000000
300.000000 344.000000
343.000000 362.000000
300.000000 375.000000
281.000000 375.000000
263.000000 375.000000
}
