version: 1
n_points: 32
{
176.000000 207.000000
194.000000 195.000000
218.000000 195.000000
236.000000 201.000000
218.000000 213.000000
194.000000 213.000000
325.000000 201.000000
349.000000 189.000000
367.000000 189.000000
385.000000 201.000000
367.000000 207.000000
343.000000 207.000000
236.000000 374.000000
247.000000 351.000000
271.000000 333.000000
283.000000 339.000000
295.000000 333.000000
319.000000 351.000000
337.000000 369.000000
319.000000 386.000000
301.000000 398.000000
283.000000 404.000000
259.000000 404.000000
247.000000 392.000000
236.000000 369.000000
265.000000 357.000000
283.000000 351.000000
295.000000 357.000000
331.000000 369.000000
301.000000 374.000000
283.000000 380.000000
265.000000 380.000000
}
