version: 1
n_points: 32
{
181.000000 205.000000
198.000000 193.000000
216.000000 193.000000
240.000000 199.000000
216.000000 211.000000
198.000000 211.000000
329.000000 199.000000
346.000000 187.000000
370.000000 187.000000
388.000000 193.000000
370.000000 205.000000
346.000000 205.000000
234.000000 370.000000
246.000000 353.000000
263.000000 335.000000
275.000000 335.000000
287.000000 335.000000
305.000000 353.000000
317.000000 376.000000
305.000000 388.000000
287.000000 400.000000
275.000000 400.000000
258.000000 400.000000
246.000000 388.000000
234.000000 370.000000
263.000000 359.000000
275.000000 353.000000
287.000000 359.000000
311.000000 376.000000
287.000000 376.000000
275.000000 376.000000
258.000000 376.000000
}
