version: 1
n_points: 32
{
176.000000 186.000000
195.000000 180.000000
214.000000 173.000000
239.000000 186.000000
220.000000 192.000000
195.000000 192.000000
333.000000 186.000000
352.000000 173.000000
371.000000 173.000000
389.000000 186.000000
371.000000 192.000000
352.000000 192.000000
227.000000 343.000000
245.000000 324.000000
270.000000 311.000000
283.000000 311.000000
295.000000 311.000000
321.000000 330.000000
339.000000 349.000000
327.000000 355.000000
308.000000 361.000000
289.000000 361.000000
270.000000 361.000000
252.000000 355.000000
233.000000 343.000000
270.000000 330.000000
283.000000 330.000000
302.000000 330.000000
339.000000 349.000000
308.000000 343.000000
289.000000 343.000000
270.000000 343.000000
}
