version: 1
n_points: 32
{
177.000000 206.000000
195.000000 194.000000
212.000000 194.000000
236.000000 200.000000
218.000000 206.000000
195.000000 212.000000
325.000000 200.000000
349.000000 188.000000
366.000000 188.000000
384.000000 200.000000
366.000000 206.000000
343.000000 206.000000
230.000000 372.000000
242.000000 348.000000
266.000000 336.000000
278.000000 336.000000
289.000000 336.000000
307.000000 354.000000
319.000000 378.000000
307.000000 389.000000
289.000000 401.000000
272.000000 401.000000
254.000000 395.000000
242.000000 389.000000
236.000000 372.000000
260.000000 360.000000
278.000000 354.000000
289.000000 360.000000
319.000000 372.000000
289.000000 378.000000
272.000000 378.000000
260.000000 372.000000
}
