version: 1
n_points: 32
{
175.000000 206.000000
193.000000 194.000000
217.000000 194.000000
235.000000 206.000000
217.000000 212.000000
193.000000 212.000000
324.000000 200.000000
348.000000 188.000000
366.000000 188.000000
384.000000 200.000000
366.000000 206.000000
342.000000 206.000000
229.000000 367.000000
241.000000 343.000000
265.000000 331.000000
282.000000 331.000000
294.000000 331.000000
318.000000 349.000000
336.000000 367.000000
318.000000 391.000000
300.000000 397.000000
282.000000 402.000000
259.000000 402.000000
247.000000 391.000000
235.000000 367.000000
265.000000 349.000000
282.000000 349.000000
300.000000 355.000000
330.000000 367.000000
300.000000 373.000000
282.000000 379.000000
265.000000 379.000000
}
