version: 1
n_points: 32
{
178.000000 198.000000
196.000000 192.000000
214.000000 192.000000
239.000000 198.000000
221.000000 204.000000
196.000000 210.000000
331.000000 198.000000
349.000000 186.000000
374.000000 186.000000
386.000000 198.000000
374.000000 204.000000
349.000000 204.000000
227.000000 382.000000
245.000000 345.000000
270.000000 327.000000
282.000000 333.000000
300.000000 327.000000
325.000000 351.000000
343.000000 382.000000
331.000000 431.000000
306.000000 449.000000
282.000000 456.000000
257.000000 449.000000
239.000000 431.000000
233.000000 382.000000
270.000000 351.000000
288.000000 345.000000
306.000000 351.000000
343.000000 382.000000
306.000000 431.000000
282.000000 437.000000
263.000000 425.000000
}
