version: 1
n_points: 32
{
178.000000 184.000000
196.000000 178.000000
215.000000 171.000000
240.000000 184.000000
222.000000 190.000000
196.000000 190.000000
334.000000 178.000000
353.000000 171.000000
372.000000 171.000000
391.000000 178.000000
372.000000 184.000000
353.000000 184.000000
228.000000 340.000000
247.000000 315.000000
272.000000 303.000000
284.000000 309.000000
297.000000 303.000000
328.000000 315.000000
347.000000 340.000000
328.000000 347.000000
309.000000 353.000000
290.000000 353.000000
272.000000 353.000000
247.000000 347.000000
228.000000 334.000000
265.000000 322.000000
284.000000 322.000000
303.000000 322.000000
341.000000 340.000000
309.000000 334.000000
290.000000 334.000000
265.000000 334.000000
}
