version: 1
n_points: 32
{
180.000000 205.000000
198.000000 193.000000
216.000000 193.000000
240.000000 199.000000
222.000000 205.000000
198.000000 211.000000
329.000000 199.000000
347.000000 187.000000
371.000000 187.000000
389.000000 193.000000
371.000000 205.000000
347.000000 205.000000
240.000000 378.000000
252.000000 348.000000
270.000000 336.000000
282.000000 336.000000
293.000000 336.000000
311.000000 354.000000
323.000000 378.000000
311.000000 396.000000
299.000000 408.000000
282.000000 408.000000
258.000000 408.000000
252.000000 396.000000
240.000000 378.000000
270.000000 360.000000
282.000000 354.000000
293.000000 360.000000
323.000000 378.000000
293.000000 384.000000
282.000000 390.000000
264.000000 384.000000
}
