version: 1
n_points: 32
{
182.000000 200.000000
194.000000 194.000000
217.000000 194.000000
235.000000 200.000000
217.000000 206.000000
194.000000 212.000000
330.000000 200.000000
348.000000 188.000000
372.000000 188.000000
389.000000 194.000000
372.000000 206.000000
348.000000 206.000000
235.000000 372.000000
247.000000 354.000000
265.000000 336.000000
277.000000 336.000000
289.000000 336.000000
306.000000 354.000000
318.000000 378.000000
306.000000 390.000000
289.000000 395.000000
277.000000 401.000000
259.000000 395.000000
247.000000 384.000000
235.000000 372.000000
265.000000 360.000000
277.000000 360.000000
289.000000 360.000000
318.000000 372.000000
289.000000 378.000000
277.000000 378.000000
259.000000 372.000000
}
