version: 1
n_points: 32
{
176.000000 208.000000
194.000000 196.000000
212.000000 196.000000
236.000000 202.000000
218.000000 214.000000
194.000000 214.000000
325.000000 202.000000
343.000000 190.000000
367.000000 190.000000
385.000000 202.000000
367.000000 208.000000
343.000000 208.000000
230.000000 369.000000
242.000000 345.000000
266.000000 333.000000
278.000000 333.000000
296.000000 333.000000
319.000000 345.000000
337.000000 369.000000
319.000000 387.000000
301.000000 399.000000
284.000000 399.000000
260.000000 399.000000
242.000000 387.000000
230.000000 369.000000
266.000000 351.000000
284.000000 351.000000
296.000000 351.000000
331.000000 369.000000
301.000000 375.000000
284.000000 381.000000
266.000000 375.000000
}
