version: 1
n_points: 32
{
180.000000 201.000000
192.000000 188.000000
217.000000 188.000000
236.000000 195.000000
217.000000 201.000000
192.000000 207.000000
329.000000 195.000000
347.000000 182.000000
372.000000 182.000000
384.000000 188.000000
372.000000 201.000000
347.000000 195.000000
217.000000 350.000000
236.000000 325.000000
267.000000 319.000000
279.000000 319.000000
298.000000 319.000000
329.000000 325.000000
353.000000 350.000000
329.000000 368.000000
310.000000 381.000000
285.000000 387.000000
260.000000 381.000000
242.000000 374.000000
223.000000 343.000000
260.000000 331.000000
285.000000 331.000000
304.000000 337.000000
353.000000 343.000000
304.000000 362.000000
285.000000 362.000000
260.000000 362.000000
}
