version: 1
n_points: 32
{
180.000000 199.000000
192.000000 193.000000
216.000000 193.000000
235.000000 199.000000
216.000000 205.000000
198.000000 205.000000
326.000000 199.000000
350.000000 187.000000
369.000000 187.000000
387.000000 193.000000
369.000000 205.000000
350.000000 205.000000
229.000000 358.000000
241.000000 333.000000
265.000000 321.000000
277.000000 321.000000
295.000000 321.000000
326.000000 333.000000
344.000000 358.000000
320.000000 382.000000
302.000000 394.000000
283.000000 394.000000
259.000000 394.000000
241.000000 382.000000
229.000000 358.000000
265.000000 339.000000
283.000000 339.000000
302.000000 339.000000
338.000000 358.000000
302.000000 370.000000
283.000000 370.000000
265.000000 370.000000
}
