version: 1
n_points: 32
{
175.000000 197.000000
194.000000 185.000000
218.000000 185.000000
237.000000 191.000000
218.000000 197.000000
194.000000 203.000000
329.000000 185.000000
348.000000 179.000000
372.000000 179.000000
385.000000 185.000000
372.000000 191.000000
348.000000 191.000000
206.000000 333.000000
231.000000 320.000000
268.000000 308.000000
286.000000 314.000000
305.000000 314.000000
342.000000 320.000000
366.000000 333.000000
342.000000 370.000000
311.000000 382.000000
286.000000 388.000000
255.000000 382.000000
231.000000 370.000000
212.000000 333.000000
255.000000 327.000000
286.000000 327.000000
311.000000 327.000000
366.000000 333.000000
311.000000 363.000000
286.000000 363.000000
255.000000 363.000000
}
