version: 1
n_points: 32
{
183.000000 186.000000
195.000000 180.000000
220.000000 180.000000
239.000000 186.000000
220.000000 193.000000
195.000000 193.000000
332.000000 186.000000
350.000000 174.000000
375.000000 174.000000
388.000000 186.000000
375.000000 193.000000
350.000000 193.000000
220.000000 354.000000
239.000000 323.000000
270.000000 304.000000
288.000000 310.000000
307.000000 304.000000
344.000000 323.000000
363.000000 360.000000
338.000000 410.000000
313.000000 435.000000
288.000000 441.000000
257.000000 435.000000
239.000000 416.000000
220.000000 354.000000
263.000000 323.000000
288.000000 323.000000
313.000000 323.000000
357.000000 354.000000
313.000000 416.000000
288.000000 416.000000
263.000000 416.000000
}
