version: 1
n_points: 32
{
175.000000 197.000000
194.000000 185.000000
212.000000 185.000000
237.000000 197.000000
219.000000 204.000000
194.000000 204.000000
330.000000 191.000000
348.000000 179.000000
367.000000 179.000000
385.000000 191.000000
373.000000 197.000000
348.000000 197.000000
206.000000 333.000000
225.000000 321.000000
268.000000 315.000000
280.000000 315.000000
299.000000 315.000000
342.000000 321.000000
367.000000 333.000000
336.000000 370.000000
311.000000 382.000000
280.000000 382.000000
256.000000 382.000000
231.000000 370.000000
206.000000 339.000000
256.000000 327.000000
280.000000 327.000000
311.000000 327.000000
367.000000 333.000000
311.000000 364.000000
280.000000 364.000000
256.000000 364.000000
}
