version: 1
n_points: 32
{
184.000000 203.000000
196.000000 197.000000
220.000000 191.000000
238.000000 203.000000
220.000000 209.000000
196.000000 209.000000
327.000000 197.000000
351.000000 191.000000
369.000000 191.000000
387.000000 197.000000
369.000000 209.000000
345.000000 209.000000
232.000000 364.000000
243.000000 340.000000
267.000000 322.000000
279.000000 322.000000
291.000000 322.000000
315.000000 340.000000
333.000000 364.000000
315.000000 382.000000
297.000000 394.000000
279.000000 394.000000
261.000000 394.000000
249.000000 382.000000
238.000000 364.000000
267.000000 340.000000
279.000000 340.000000
297.000000 340.000000
327.000000 364.000000
297.000000 370.000000
279.000000 376.000000
267.000000 370.000000
}
