version: 1
n_points: 32
{
181.000000 192.000000
199.000000 186.000000
218.000000 180.000000
236.000000 192.000000
218.000000 198.000000
199.000000 198.000000
328.000000 186.000000
353.000000 174.000000
371.000000 180.000000
389.000000 186.000000
371.000000 192.000000
346.000000 192.000000
212.000000 339.000000
236.000000 321.000000
273.000000 309.000000
291.000000 315.000000
304.000000 309.000000
340.000000 321.000000
365.000000 339.000000
340.000000 382.000000
316.000000 401.000000
285.000000 407.000000
261.000000 407.000000
236.000000 388.000000
218.000000 346.000000
261.000000 327.000000
291.000000 327.000000
316.000000 327.000000
365.000000 339.000000
316.000000 382.000000
291.000000 382.000000
261.000000 382.000000
}
