version: 1
n_points: 32
{
179.000000 205.000000
197.000000 193.000000
215.000000 193.000000
239.000000 199.000000
221.000000 211.000000
197.000000 211.000000
330.000000 199.000000
348.000000 187.000000
372.000000 187.000000
390.000000 199.000000
372.000000 205.000000
348.000000 205.000000
227.000000 362.000000
239.000000 338.000000
263.000000 326.000000
281.000000 326.000000
293.000000 326.000000
324.000000 344.000000
342.000000 368.000000
318.000000 386.000000
300.000000 398.000000
281.000000 398.000000
263.000000 398.000000
245.000000 386.000000
233.000000 362.000000
263.000000 344.000000
281.000000 344.000000
300.000000 350.000000
336.000000 368.000000
300.000000 374.000000
281.000000 380.000000
263.000000 374.000000
}
