version: 1
n_points: 32
{
174.000000 198.000000
193.000000 186.000000
218.000000 186.000000
236.000000 192.000000
218.000000 198.000000
193.000000 204.000000
328.000000 186.000000
347.000000 180.000000
371.000000 180.000000
384.000000 186.000000
371.000000 192.000000
347.000000 192.000000
205.000000 334.000000
230.000000 321.000000
267.000000 309.000000
285.000000 315.000000
304.000000 309.000000
341.000000 321.000000
365.000000 334.000000
341.000000 370.000000
310.000000 383.000000
285.000000 383.000000
254.000000 383.000000
230.000000 370.000000
211.000000 334.000000
254.000000 327.000000
285.000000 327.000000
310.000000 327.000000
365.000000 334.000000
310.000000 364.000000
285.000000 364.000000
254.000000 364.000000
}
