version: 1
n_points: 32
{
179.000000 191.000000
198.000000 185.000000
216.000000 185.000000
235.000000 191.000000
216.000000 198.000000
198.000000 198.000000
328.000000 185.000000
352.000000 179.000000
371.000000 179.000000
389.000000 185.000000
371.000000 191.000000
346.000000 191.000000
210.000000 334.000000
229.000000 321.000000
266.000000 309.000000
284.000000 315.000000
303.000000 309.000000
340.000000 321.000000
371.000000 334.000000
340.000000 371.000000
315.000000 389.000000
284.000000 389.000000
259.000000 389.000000
235.000000 377.000000
210.000000 334.000000
259.000000 327.000000
284.000000 327.000000
309.000000 327.000000
365.000000 334.000000
309.000000 365.000000
284.000000 371.000000
259.000000 371.000000
}
