version: 1
n_points: 32
{
180.000000 202.000000
198.000000 196.000000
216.000000 196.000000
240.000000 202.000000
222.000000 208.000000
198.000000 208.000000
329.000000 196.000000
347.000000 190.000000
371.000000 190.000000
389.000000 196.000000
371.000000 202.000000
347.000000 202.000000
234.000000 345.000000
252.000000 327.000000
270.000000 309.000000
281.000000 315.000000
293.000000 309.000000
317.000000 327.000000
329.000000 345.000000
317.000000 357.000000
299.000000 369.000000
281.000000 369.000000
264.000000 369.000000
252.000000 357.000000
240.000000 345.000000
270.000000 327.000000
281.000000 327.000000
299.000000 333.000000
329.000000 345.000000
299.000000 345.000000
281.000000 351.000000
264.000000 345.000000
}
