version: 1
n_points: 32
{
187.000000 211.000000
205.000000 205.000000
222.000000 199.000000
239.000000 211.000000
228.000000 216.000000
205.000000 216.000000
331.000000 205.000000
354.000000 199.000000
371.000000 199.000000
388.000000 205.000000
371.000000 211.000000
348.000000 211.000000
228.000000 337.000000
245.000000 326.000000
273.000000 320.000000
285.000000 326.000000
302.000000 320.000000
331.000000 326.000000
354.000000 337.000000
331.000000 349.000000
308.000000 354.000000
291.000000 354.000000
268.000000 354.000000
250.000000 349.000000
228.000000 337.000000
268.000000 331.000000
285.000000 337.000000
308.000000 337.000000
354.000000 337.000000
308.000000 337.000000
285.000000 337.000000
268.000000 331.000000
}
