version: 1
n_points: 32
{
185.000000 211.000000
203.000000 205.000000
221.000000 199.000000
245.000000 211.000000
227.000000 217.000000
203.000000 217.000000
335.000000 205.000000
353.000000 199.000000
371.000000 199.000000
389.000000 205.000000
377.000000 211.000000
353.000000 211.000000
215.000000 343.000000
239.000000 331.000000
275.000000 331.000000
287.000000 331.000000
305.000000 331.000000
341.000000 331.000000
365.000000 343.000000
335.000000 361.000000
311.000000 373.000000
293.000000 373.000000
269.000000 373.000000
245.000000 361.000000
221.000000 343.000000
269.000000 343.000000
293.000000 343.000000
311.000000 343.000000
359.000000 343.000000
311.000000 355.000000
293.000000 355.000000
269.000000 349.000000
}
