version: 1
n_points: 32
{
189.000000 207.000000
206.000000 202.000000
224.000000 196.000000
241.000000 202.000000
224.000000 213.000000
206.000000 213.000000
333.000000 202.000000
350.000000 190.000000
367.000000 196.000000
384.000000 196.000000
373.000000 207.000000
350.000000 207.000000
235.000000 334.000000
252.000000 322.000000
275.000000 317.000000
287.000000 317.000000
298.000000 317.000000
327.000000 322.000000
350.000000 328.000000
327.000000 339.000000
310.000000 345.000000
292.000000 345.000000
269.000000 345.000000
252.000000 339.000000
235.000000 328.000000
269.000000 328.000000
287.000000 328.000000
310.000000 328.000000
350.000000 328.000000
304.000000 328.000000
287.000000 328.000000
275.000000 328.000000
}
