version: 1
n_points: 32
{
184.000000 204.000000
201.000000 198.000000
218.000000 193.000000
241.000000 204.000000
224.000000 210.000000
201.000000 210.000000
328.000000 198.000000
351.000000 187.000000
369.000000 193.000000
386.000000 198.000000
369.000000 204.000000
346.000000 204.000000
236.000000 337.000000
253.000000 320.000000
276.000000 308.000000
282.000000 314.000000
294.000000 308.000000
317.000000 320.000000
328.000000 331.000000
317.000000 343.000000
299.000000 349.000000
282.000000 355.000000
270.000000 355.000000
253.000000 349.000000
241.000000 337.000000
270.000000 326.000000
282.000000 326.000000
299.000000 326.000000
328.000000 331.000000
299.000000 331.000000
282.000000 331.000000
270.000000 331.000000
}
