version: 1
n_points: 32
{
185.000000 216.000000
198.000000 204.000000
222.000000 204.000000
240.000000 216.000000
222.000000 222.000000
198.000000 222.000000
332.000000 210.000000
357.000000 204.000000
375.000000 204.000000
393.000000 210.000000
375.000000 222.000000
350.000000 216.000000
228.000000 381.000000
240.000000 357.000000
271.000000 345.000000
283.000000 345.000000
302.000000 345.000000
326.000000 363.000000
344.000000 387.000000
326.000000 412.000000
302.000000 430.000000
283.000000 430.000000
259.000000 430.000000
246.000000 412.000000
234.000000 381.000000
265.000000 363.000000
283.000000 363.000000
302.000000 369.000000
338.000000 387.000000
302.000000 406.000000
283.000000 406.000000
265.000000 406.000000
}
