version: 1
n_points: 32
{
185.000000 213.000000
197.000000 206.000000
222.000000 206.000000
241.000000 213.000000
222.000000 219.000000
197.000000 225.000000
333.000000 213.000000
352.000000 200.000000
377.000000 200.000000
395.000000 213.000000
377.000000 219.000000
352.000000 219.000000
222.000000 386.000000
241.000000 355.000000
271.000000 342.000000
284.000000 349.000000
302.000000 342.000000
333.000000 361.000000
352.000000 392.000000
327.000000 423.000000
302.000000 441.000000
278.000000 441.000000
259.000000 441.000000
241.000000 423.000000
228.000000 386.000000
265.000000 361.000000
284.000000 361.000000
309.000000 367.000000
346.000000 392.000000
302.000000 417.000000
284.000000 423.000000
259.000000 417.000000
}
