version: 1
n_points: 32
{
185.000000 212.000000
204.000000 206.000000
222.000000 206.000000
240.000000 218.000000
222.000000 224.000000
204.000000 224.000000
332.000000 212.000000
356.000000 200.000000
374.000000 206.000000
393.000000 212.000000
374.000000 218.000000
356.000000 218.000000
216.000000 364.000000
234.000000 352.000000
271.000000 340.000000
289.000000 346.000000
307.000000 346.000000
344.000000 352.000000
368.000000 370.000000
338.000000 407.000000
313.000000 419.000000
289.000000 425.000000
258.000000 419.000000
240.000000 407.000000
222.000000 364.000000
265.000000 358.000000
289.000000 358.000000
313.000000 358.000000
362.000000 370.000000
313.000000 401.000000
289.000000 401.000000
265.000000 401.000000
}
