version: 1
n_points: 32
{
187.000000 209.000000
206.000000 209.000000
224.000000 203.000000
242.000000 209.000000
224.000000 221.000000
206.000000 221.000000
334.000000 209.000000
353.000000 203.000000
371.000000 203.000000
390.000000 209.000000
371.000000 215.000000
353.000000 215.000000
212.000000 350.000000
236.000000 337.000000
273.000000 331.000000
285.000000 337.000000
304.000000 331.000000
341.000000 337.000000
371.000000 356.000000
341.000000 386.000000
310.000000 405.000000
285.000000 405.000000
261.000000 405.000000
236.000000 386.000000
218.000000 350.000000
261.000000 344.000000
285.000000 344.000000
310.000000 350.000000
365.000000 350.000000
310.000000 380.000000
285.000000 386.000000
261.000000 380.000000
}
