version: 1
n_points: 32
{
187.000000 201.000000
204.000000 195.000000
221.000000 195.000000
238.000000 201.000000
221.000000 207.000000
204.000000 207.000000
330.000000 195.000000
347.000000 190.000000
370.000000 190.000000
387.000000 195.000000
370.000000 201.000000
347.000000 201.000000
238.000000 327.000000
255.000000 316.000000
273.000000 310.000000
284.000000 310.000000
296.000000 310.000000
318.000000 316.000000
336.000000 327.000000
318.000000 333.000000
301.000000 339.000000
290.000000 339.000000
273.000000 339.000000
255.000000 333.000000
244.000000 327.000000
273.000000 321.000000
284.000000 321.000000
301.000000 321.000000
336.000000 327.000000
301.000000 321.000000
290.000000 321.000000
273.000000 321.000000
}
