version: 1
n_points: 32
{
186.000000 218.000000
198.000000 212.000000
222.000000 212.000000
241.000000 218.000000
222.000000 224.000000
204.000000 224.000000
331.000000 212.000000
349.000000 206.000000
368.000000 206.000000
386.000000 212.000000
368.000000 218.000000
349.000000 218.000000
235.000000 363.000000
253.000000 351.000000
271.000000 345.000000
283.000000 345.000000
295.000000 345.000000
319.000000 351.000000
337.000000 363.000000
319.000000 375.000000
301.000000 381.000000
283.000000 381.000000
271.000000 381.000000
253.000000 375.000000
241.000000 363.000000
271.000000 357.000000
283.000000 357.000000
301.000000 357.000000
331.000000 363.000000
301.000000 363.000000
283.000000 363.000000
271.000000 357.000000
}
