version: 1
n_points: 32
{
186.000000 218.000000
198.000000 212.000000
216.000000 212.000000
240.000000 218.000000
222.000000 224.000000
198.000000 224.000000
331.000000 212.000000
349.000000 206.000000
367.000000 206.000000
385.000000 212.000000
367.000000 218.000000
343.000000 218.000000
234.000000 357.000000
252.000000 345.000000
270.000000 339.000000
283.000000 345.000000
295.000000 339.000000
319.000000 345.000000
337.000000 357.000000
319.000000 369.000000
301.000000 381.000000
283.000000 381.000000
264.000000 381.000000
252.000000 369.000000
240.000000 357.000000
270.000000 351.000000
283.000000 351.000000
301.000000 357.000000
331.000000 357.000000
301.000000 357.000000
283.000000 357.000000
270.000000 357.000000
}
