version: 1
n_points: 32
{
185.000000 217.000000
203.000000 211.000000
222.000000 211.000000
240.000000 217.000000
222.000000 229.000000
203.000000 229.000000
332.000000 217.000000
350.000000 205.000000
369.000000 211.000000
387.000000 211.000000
375.000000 223.000000
350.000000 223.000000
234.000000 364.000000
252.000000 352.000000
277.000000 346.000000
289.000000 346.000000
301.000000 346.000000
326.000000 352.000000
338.000000 364.000000
320.000000 376.000000
307.000000 382.000000
289.000000 382.000000
271.000000 382.000000
252.000000 376.000000
240.000000 364.000000
271.000000 358.000000
289.000000 358.000000
301.000000 358.000000
338.000000 364.000000
301.000000 364.000000
289.000000 364.000000
271.000000 364.000000
}
