version: 1
n_points: 32
{
179.000000 214.000000
198.000000 208.000000
222.000000 202.000000
240.000000 214.000000
222.000000 220.000000
198.000000 220.000000
331.000000 214.000000
355.000000 202.000000
373.000000 202.000000
391.000000 214.000000
373.000000 220.000000
349.000000 220.000000
228.000000 377.000000
246.000000 359.000000
270.000000 347.000000
282.000000 347.000000
294.000000 347.000000
325.000000 359.000000
343.000000 383.000000
325.000000 402.000000
300.000000 414.000000
282.000000 420.000000
264.000000 414.000000
246.000000 402.000000
234.000000 377.000000
264.000000 365.000000
282.000000 365.000000
300.000000 365.000000
337.000000 383.000000
300.000000 389.000000
282.000000 395.000000
264.000000 395.000000
}
