version: 1
n_points: 32
{
181.000000 220.000000
199.000000 208.000000
217.000000 208.000000
235.000000 214.000000
217.000000 226.000000
199.000000 226.000000
326.000000 214.000000
350.000000 202.000000
368.000000 208.000000
386.000000 208.000000
368.000000 220.000000
344.000000 220.000000
229.000000 359.000000
247.000000 347.000000
271.000000 334.000000
284.000000 340.000000
296.000000 334.000000
320.000000 347.000000
338.000000 359.000000
320.000000 377.000000
302.000000 389.000000
284.000000 389.000000
265.000000 389.000000
247.000000 377.000000
235.000000 359.000000
265.000000 353.000000
284.000000 353.000000
302.000000 353.000000
332.000000 359.000000
296.000000 365.000000
284.000000 365.000000
265.000000 365.000000
}
