version: 1
n_points: 32
{
187.000000 227.000000
199.000000 221.000000
217.000000 221.000000
242.000000 227.000000
223.000000 233.000000
199.000000 233.000000
332.000000 227.000000
350.000000 221.000000
374.000000 221.000000
386.000000 221.000000
374.000000 233.000000
350.000000 233.000000
223.000000 377.000000
242.000000 359.000000
272.000000 353.000000
284.000000 353.000000
302.000000 353.000000
326.000000 365.000000
350.000000 377.000000
326.000000 401.000000
302.000000 408.000000
284.000000 414.000000
260.000000 408.000000
248.000000 395.000000
230.000000 371.000000
266.000000 371.000000
284.000000 371.000000
302.000000 371.000000
344.000000 377.000000
302.000000 389.000000
284.000000 389.000000
266.000000 389.000000
}
