version: 1
n_points: 32
{
181.000000 217.000000
199.000000 211.000000
217.000000 211.000000
235.000000 217.000000
217.000000 223.000000
199.000000 223.000000
326.000000 211.000000
344.000000 205.000000
363.000000 205.000000
381.000000 211.000000
363.000000 217.000000
344.000000 217.000000
229.000000 356.000000
248.000000 344.000000
266.000000 338.000000
278.000000 338.000000
296.000000 338.000000
320.000000 344.000000
332.000000 356.000000
314.000000 374.000000
296.000000 380.000000
278.000000 380.000000
260.000000 380.000000
248.000000 374.000000
235.000000 356.000000
266.000000 350.000000
278.000000 350.000000
296.000000 350.000000
326.000000 356.000000
296.000000 362.000000
284.000000 362.000000
266.000000 356.000000
}
