version: 1
n_points: 32
{
180.000000 218.000000
198.000000 212.000000
216.000000 212.000000
241.000000 224.000000
222.000000 230.000000
198.000000 230.000000
332.000000 218.000000
351.000000 212.000000
375.000000 212.000000
387.000000 218.000000
375.000000 224.000000
351.000000 224.000000
222.000000 371.000000
241.000000 359.000000
271.000000 352.000000
284.000000 352.000000
302.000000 352.000000
326.000000 365.000000
351.000000 377.000000
326.000000 395.000000
308.000000 407.000000
284.000000 414.000000
265.000000 407.000000
241.000000 395.000000
228.000000 371.000000
265.000000 371.000000
284.000000 371.000000
302.000000 371.000000
345.000000 377.000000
302.000000 389.000000
284.000000 389.000000
265.000000 383.000000
}
