version: 1
n_points: 32
{
180.000000 223.000000
198.000000 217.000000
222.000000 211.000000
240.000000 223.000000
222.000000 229.000000
198.000000 229.000000
330.000000 223.000000
354.000000 211.000000
372.000000 211.000000
390.000000 217.000000
372.000000 229.000000
354.000000 229.000000
228.000000 379.000000
246.000000 361.000000
270.000000 355.000000
288.000000 355.000000
300.000000 355.000000
330.000000 361.000000
348.000000 379.000000
324.000000 397.000000
306.000000 409.000000
288.000000 409.000000
264.000000 409.000000
246.000000 397.000000
234.000000 379.000000
270.000000 373.000000
288.000000 367.000000
306.000000 373.000000
342.000000 379.000000
306.000000 385.000000
288.000000 385.000000
270.000000 385.000000
}
