version: 1
n_points: 32
{
179.000000 213.000000
198.000000 207.000000
222.000000 207.000000
240.000000 213.000000
222.000000 219.000000
198.000000 225.000000
331.000000 213.000000
350.000000 201.000000
374.000000 201.000000
392.000000 213.000000
374.000000 219.000000
350.000000 219.000000
234.000000 372.000000
246.000000 353.000000
271.000000 341.000000
283.000000 341.000000
301.000000 341.000000
325.000000 353.000000
338.000000 372.000000
319.000000 396.000000
301.000000 408.000000
283.000000 408.000000
264.000000 408.000000
246.000000 396.000000
234.000000 372.000000
271.000000 359.000000
283.000000 359.000000
301.000000 359.000000
338.000000 372.000000
301.000000 384.000000
283.000000 384.000000
264.000000 384.000000
}
