version: 1
n_points: 32
{
178.000000 208.000000
196.000000 196.000000
214.000000 196.000000
238.000000 202.000000
220.000000 214.000000
196.000000 214.000000
328.000000 202.000000
346.000000 190.000000
370.000000 190.000000
388.000000 202.000000
370.000000 208.000000
346.000000 208.000000
232.000000 364.000000
244.000000 346.000000
268.000000 328.000000
280.000000 334.000000
292.000000 328.000000
322.000000 346.000000
340.000000 370.000000
322.000000 382.000000
298.000000 394.000000
280.000000 394.000000
262.000000 394.000000
244.000000 388.000000
232.000000 364.000000
268.000000 352.000000
280.000000 346.000000
298.000000 352.000000
334.000000 370.000000
298.000000 370.000000
280.000000 376.000000
262.000000 376.000000
}
