version: 1
n_points: 32
{
181.000000 218.000000
193.000000 206.000000
218.000000 206.000000
236.000000 218.000000
218.000000 224.000000
193.000000 224.000000
328.000000 212.000000
347.000000 206.000000
371.000000 206.000000
389.000000 212.000000
371.000000 218.000000
347.000000 218.000000
212.000000 353.000000
230.000000 347.000000
267.000000 340.000000
285.000000 347.000000
304.000000 340.000000
340.000000 347.000000
365.000000 353.000000
340.000000 389.000000
310.000000 408.000000
285.000000 408.000000
261.000000 408.000000
236.000000 389.000000
212.000000 353.000000
261.000000 353.000000
285.000000 353.000000
310.000000 359.000000
365.000000 353.000000
310.000000 383.000000
285.000000 389.000000
261.000000 389.000000
}
