version: 1
n_points: 32
{
180.000000 211.000000
192.000000 205.000000
217.000000 205.000000
235.000000 217.000000
217.000000 223.000000
192.000000 223.000000
326.000000 211.000000
351.000000 199.000000
369.000000 199.000000
387.000000 211.000000
369.000000 217.000000
345.000000 217.000000
210.000000 357.000000
229.000000 345.000000
265.000000 339.000000
284.000000 345.000000
302.000000 339.000000
339.000000 345.000000
369.000000 357.000000
339.000000 388.000000
308.000000 400.000000
284.000000 406.000000
259.000000 406.000000
235.000000 388.000000
217.000000 351.000000
259.000000 351.000000
284.000000 351.000000
308.000000 357.000000
363.000000 357.000000
308.000000 382.000000
284.000000 388.000000
259.000000 382.000000
}
