version: 1
n_points: 32
{
181.000000 217.000000
193.000000 211.000000
218.000000 205.000000
236.000000 217.000000
218.000000 223.000000
193.000000 223.000000
328.000000 211.000000
346.000000 205.000000
371.000000 205.000000
389.000000 211.000000
371.000000 217.000000
346.000000 217.000000
211.000000 358.000000
230.000000 346.000000
267.000000 339.000000
285.000000 346.000000
303.000000 339.000000
340.000000 346.000000
365.000000 358.000000
340.000000 389.000000
310.000000 407.000000
285.000000 407.000000
260.000000 407.000000
236.000000 389.000000
211.000000 358.000000
260.000000 358.000000
285.000000 358.000000
310.000000 358.000000
365.000000 358.000000
310.000000 382.000000
285.000000 389.000000
260.000000 382.000000
}
