version: 1
n_points: 32
{
177.000000 204.000000
195.000000 192.000000
213.000000 192.000000
238.000000 198.000000
219.000000 210.000000
195.000000 210.000000
328.000000 198.000000
347.000000 192.000000
371.000000 192.000000
389.000000 198.000000
371.000000 204.000000
347.000000 204.000000
219.000000 349.000000
238.000000 331.000000
268.000000 325.000000
286.000000 325.000000
298.000000 325.000000
335.000000 331.000000
359.000000 349.000000
335.000000 374.000000
310.000000 386.000000
286.000000 386.000000
262.000000 386.000000
244.000000 374.000000
225.000000 349.000000
262.000000 343.000000
286.000000 343.000000
304.000000 343.000000
353.000000 349.000000
310.000000 362.000000
286.000000 368.000000
268.000000 368.000000
}
