version: 1
n_points: 32
{
181.000000 219.000000
199.000000 207.000000
218.000000 207.000000
242.000000 219.000000
224.000000 225.000000
199.000000 225.000000
333.000000 213.000000
351.000000 207.000000
375.000000 207.000000
387.000000 213.000000
375.000000 219.000000
351.000000 219.000000
212.000000 359.000000
230.000000 347.000000
266.000000 340.000000
284.000000 347.000000
302.000000 347.000000
339.000000 347.000000
369.000000 359.000000
339.000000 395.000000
308.000000 407.000000
284.000000 413.000000
260.000000 407.000000
236.000000 395.000000
212.000000 359.000000
260.000000 359.000000
284.000000 359.000000
308.000000 359.000000
363.000000 359.000000
308.000000 389.000000
284.000000 389.000000
260.000000 389.000000
}
