version: 1
n_points: 32
{
179.000000 216.000000
197.000000 210.000000
216.000000 210.000000
241.000000 222.000000
222.000000 229.000000
197.000000 229.000000
333.000000 216.000000
352.000000 210.000000
370.000000 210.000000
389.000000 216.000000
370.000000 222.000000
352.000000 222.000000
216.000000 364.000000
234.000000 352.000000
271.000000 352.000000
284.000000 352.000000
302.000000 352.000000
333.000000 358.000000
358.000000 364.000000
333.000000 395.000000
308.000000 407.000000
284.000000 414.000000
259.000000 414.000000
241.000000 395.000000
222.000000 364.000000
265.000000 364.000000
284.000000 364.000000
308.000000 364.000000
352.000000 364.000000
308.000000 389.000000
284.000000 395.000000
265.000000 389.000000
}
