version: 1
n_points: 32
{
175.000000 205.000000
193.000000 193.000000
212.000000 193.000000
236.000000 205.000000
218.000000 211.000000
193.000000 211.000000
327.000000 199.000000
346.000000 193.000000
370.000000 193.000000
388.000000 199.000000
370.000000 205.000000
346.000000 205.000000
206.000000 345.000000
230.000000 333.000000
266.000000 327.000000
285.000000 327.000000
303.000000 327.000000
339.000000 333.000000
364.000000 345.000000
339.000000 375.000000
309.000000 388.000000
285.000000 394.000000
260.000000 394.000000
236.000000 375.000000
212.000000 345.000000
260.000000 339.000000
285.000000 339.000000
309.000000 339.000000
364.000000 345.000000
309.000000 369.000000
285.000000 375.000000
260.000000 369.000000
}
