version: 1
n_points: 32
{
177.000000 209.000000
195.000000 202.000000
214.000000 196.000000
238.000000 209.000000
220.000000 215.000000
195.000000 215.000000
330.000000 209.000000
348.000000 196.000000
372.000000 196.000000
385.000000 202.000000
372.000000 215.000000
348.000000 215.000000
207.000000 349.000000
232.000000 337.000000
269.000000 337.000000
281.000000 337.000000
299.000000 337.000000
336.000000 337.000000
366.000000 349.000000
336.000000 386.000000
311.000000 398.000000
281.000000 404.000000
256.000000 398.000000
232.000000 386.000000
214.000000 349.000000
256.000000 349.000000
281.000000 349.000000
305.000000 349.000000
360.000000 349.000000
305.000000 380.000000
281.000000 380.000000
256.000000 380.000000
}
