version: 1
n_points: 32
{
178.000000 203.000000
196.000000 197.000000
214.000000 191.000000
238.000000 203.000000
220.000000 209.000000
196.000000 209.000000
328.000000 203.000000
346.000000 191.000000
371.000000 191.000000
389.000000 197.000000
371.000000 209.000000
346.000000 209.000000
226.000000 365.000000
244.000000 341.000000
268.000000 329.000000
280.000000 329.000000
292.000000 329.000000
322.000000 341.000000
340.000000 365.000000
322.000000 384.000000
304.000000 390.000000
280.000000 396.000000
262.000000 396.000000
244.000000 384.000000
232.000000 365.000000
262.000000 347.000000
280.000000 347.000000
298.000000 347.000000
334.000000 365.000000
298.000000 371.000000
280.000000 371.000000
262.000000 371.000000
}
