version: 1
n_points: 32
{
179.000000 203.000000
191.000000 197.000000
215.000000 197.000000
232.000000 203.000000
215.000000 209.000000
197.000000 215.000000
326.000000 203.000000
344.000000 191.000000
368.000000 191.000000
385.000000 203.000000
368.000000 209.000000
344.000000 209.000000
232.000000 374.000000
244.000000 356.000000
262.000000 344.000000
279.000000 344.000000
291.000000 344.000000
309.000000 356.000000
326.000000 379.000000
309.000000 391.000000
291.000000 403.000000
273.000000 403.000000
256.000000 403.000000
244.000000 391.000000
238.000000 374.000000
262.000000 368.000000
279.000000 362.000000
291.000000 368.000000
320.000000 379.000000
291.000000 379.000000
279.000000 379.000000
262.000000 379.000000
}
