version: 1
n_points: 32
{
177.000000 206.000000
194.000000 194.000000
218.000000 194.000000
236.000000 206.000000
218.000000 212.000000
194.000000 212.000000
325.000000 206.000000
349.000000 194.000000
367.000000 194.000000
385.000000 200.000000
367.000000 212.000000
349.000000 212.000000
230.000000 367.000000
248.000000 349.000000
266.000000 337.000000
278.000000 337.000000
290.000000 337.000000
313.000000 355.000000
319.000000 373.000000
307.000000 391.000000
290.000000 397.000000
272.000000 397.000000
254.000000 397.000000
242.000000 385.000000
236.000000 367.000000
266.000000 361.000000
278.000000 361.000000
290.000000 361.000000
319.000000 373.000000
290.000000 373.000000
278.000000 373.000000
260.000000 373.000000
}
