version: 1
n_points: 32
{
181.000000 205.000000
193.000000 199.000000
217.000000 199.000000
235.000000 205.000000
217.000000 211.000000
193.000000 217.000000
331.000000 205.000000
349.000000 193.000000
373.000000 193.000000
384.000000 205.000000
373.000000 211.000000
349.000000 211.000000
235.000000 366.000000
247.000000 348.000000
265.000000 330.000000
277.000000 336.000000
295.000000 330.000000
319.000000 348.000000
331.000000 372.000000
313.000000 384.000000
295.000000 396.000000
277.000000 396.000000
259.000000 396.000000
247.000000 390.000000
235.000000 366.000000
265.000000 354.000000
277.000000 354.000000
295.000000 354.000000
325.000000 372.000000
295.000000 372.000000
277.000000 378.000000
265.000000 372.000000
}
