version: 1
n_points: 32
{
177.000000 206.000000
195.000000 194.000000
213.000000 194.000000
236.000000 206.000000
218.000000 212.000000
195.000000 212.000000
324.000000 200.000000
347.000000 194.000000
371.000000 194.000000
389.000000 200.000000
371.000000 212.000000
347.000000 212.000000
236.000000 370.000000
248.000000 353.000000
265.000000 341.000000
277.000000 341.000000
289.000000 341.000000
306.000000 353.000000
318.000000 376.000000
306.000000 388.000000
289.000000 400.000000
277.000000 400.000000
259.000000 400.000000
248.000000 388.000000
236.000000 370.000000
265.000000 365.000000
277.000000 359.000000
289.000000 365.000000
318.000000 376.000000
289.000000 376.000000
277.000000 376.000000
265.000000 376.000000
}
