version: 1
n_points: 32
{
176.000000 206.000000
188.000000 193.000000
213.000000 193.000000
231.000000 206.000000
213.000000 212.000000
194.000000 212.000000
328.000000 199.000000
346.000000 193.000000
370.000000 187.000000
383.000000 199.000000
370.000000 212.000000
346.000000 206.000000
207.000000 351.000000
231.000000 339.000000
261.000000 333.000000
279.000000 333.000000
298.000000 333.000000
334.000000 339.000000
364.000000 351.000000
334.000000 382.000000
310.000000 394.000000
279.000000 400.000000
255.000000 394.000000
231.000000 382.000000
213.000000 351.000000
255.000000 345.000000
279.000000 345.000000
304.000000 345.000000
358.000000 351.000000
304.000000 376.000000
279.000000 376.000000
255.000000 376.000000
}
