version: 1
n_points: 32
{
178.000000 207.000000
190.000000 195.000000
214.000000 195.000000
232.000000 207.000000
214.000000 213.000000
196.000000 213.000000
328.000000 201.000000
346.000000 195.000000
370.000000 189.000000
388.000000 201.000000
370.000000 213.000000
346.000000 207.000000
208.000000 351.000000
232.000000 339.000000
268.000000 333.000000
280.000000 339.000000
298.000000 333.000000
340.000000 339.000000
364.000000 351.000000
334.000000 381.000000
310.000000 399.000000
280.000000 399.000000
256.000000 399.000000
232.000000 387.000000
214.000000 351.000000
256.000000 351.000000
280.000000 351.000000
310.000000 351.000000
358.000000 351.000000
310.000000 375.000000
286.000000 381.000000
256.000000 381.000000
}
