version: 1
n_points: 32
{
177.000000 204.000000
189.000000 198.000000
213.000000 192.000000
237.000000 204.000000
213.000000 210.000000
195.000000 210.000000
327.000000 204.000000
345.000000 192.000000
369.000000 192.000000
387.000000 198.000000
369.000000 210.000000
345.000000 210.000000
213.000000 354.000000
231.000000 342.000000
261.000000 330.000000
279.000000 336.000000
297.000000 336.000000
327.000000 342.000000
357.000000 354.000000
327.000000 384.000000
303.000000 396.000000
279.000000 396.000000
255.000000 396.000000
237.000000 384.000000
213.000000 354.000000
255.000000 348.000000
279.000000 348.000000
303.000000 348.000000
351.000000 354.000000
303.000000 372.000000
279.000000 378.000000
255.000000 378.000000
}
