version: 1
n_points: 32
{
179.000000 204.000000
191.000000 192.000000
215.000000 192.000000
233.000000 204.000000
215.000000 210.000000
191.000000 210.000000
328.000000 204.000000
346.000000 192.000000
370.000000 192.000000
382.000000 198.000000
370.000000 210.000000
346.000000 210.000000
227.000000 365.000000
239.000000 353.000000
263.000000 341.000000
281.000000 341.000000
292.000000 341.000000
316.000000 353.000000
340.000000 370.000000
316.000000 388.000000
298.000000 400.000000
281.000000 400.000000
257.000000 400.000000
239.000000 388.000000
227.000000 365.000000
263.000000 359.000000
281.000000 359.000000
298.000000 359.000000
334.000000 370.000000
298.000000 376.000000
281.000000 376.000000
263.000000 376.000000
}
