version: 1
n_points: 32
{
178.000000 207.000000
190.000000 195.000000
214.000000 195.000000
232.000000 207.000000
214.000000 213.000000
190.000000 213.000000
328.000000 201.000000
346.000000 189.000000
364.000000 189.000000
382.000000 201.000000
370.000000 207.000000
346.000000 207.000000
208.000000 352.000000
226.000000 340.000000
262.000000 328.000000
280.000000 334.000000
298.000000 334.000000
334.000000 334.000000
364.000000 352.000000
334.000000 382.000000
310.000000 394.000000
280.000000 400.000000
256.000000 394.000000
232.000000 382.000000
214.000000 346.000000
256.000000 346.000000
280.000000 346.000000
304.000000 346.000000
358.000000 346.000000
304.000000 376.000000
280.000000 376.000000
256.000000 376.000000
}
