version: 1
n_points: 32
{
175.000000 204.000000
193.000000 198.000000
217.000000 198.000000
235.000000 204.000000
217.000000 216.000000
193.000000 216.000000
330.000000 204.000000
348.000000 192.000000
372.000000 192.000000
389.000000 204.000000
372.000000 210.000000
348.000000 210.000000
211.000000 353.000000
229.000000 341.000000
264.000000 335.000000
282.000000 335.000000
300.000000 335.000000
342.000000 341.000000
366.000000 353.000000
336.000000 383.000000
312.000000 401.000000
282.000000 401.000000
258.000000 401.000000
235.000000 389.000000
211.000000 353.000000
258.000000 347.000000
282.000000 347.000000
312.000000 347.000000
360.000000 353.000000
312.000000 377.000000
282.000000 383.000000
258.000000 383.000000
}
