version: 1
n_points: 32
{
176.000000 208.000000
193.000000 196.000000
211.000000 196.000000
235.000000 208.000000
217.000000 214.000000
193.000000 214.000000
324.000000 202.000000
347.000000 190.000000
365.000000 190.000000
383.000000 202.000000
365.000000 214.000000
341.000000 214.000000
229.000000 380.000000
241.000000 356.000000
264.000000 344.000000
276.000000 344.000000
288.000000 344.000000
312.000000 356.000000
330.000000 380.000000
312.000000 397.000000
294.000000 409.000000
276.000000 409.000000
253.000000 409.000000
241.000000 397.000000
229.000000 380.000000
258.000000 362.000000
276.000000 362.000000
288.000000 362.000000
324.000000 380.000000
294.000000 386.000000
276.000000 386.000000
258.000000 386.000000
}
