version: 1
n_points: 32
{
172.000000 206.000000
190.000000 194.000000
214.000000 194.000000
232.000000 206.000000
214.000000 212.000000
190.000000 212.000000
327.000000 206.000000
345.000000 194.000000
369.000000 194.000000
387.000000 200.000000
369.000000 212.000000
345.000000 212.000000
220.000000 367.000000
238.000000 349.000000
261.000000 337.000000
279.000000 343.000000
291.000000 337.000000
321.000000 349.000000
345.000000 367.000000
321.000000 385.000000
303.000000 397.000000
279.000000 397.000000
256.000000 397.000000
238.000000 385.000000
226.000000 367.000000
261.000000 355.000000
279.000000 355.000000
297.000000 355.000000
339.000000 367.000000
303.000000 379.000000
279.000000 379.000000
261.000000 379.000000
}
