version: 1
n_points: 32
{
176.000000 208.000000
194.000000 196.000000
211.000000 196.000000
235.000000 208.000000
217.000000 214.000000
194.000000 214.000000
324.000000 202.000000
347.000000 196.000000
365.000000 190.000000
383.000000 202.000000
365.000000 214.000000
341.000000 214.000000
229.000000 373.000000
241.000000 355.000000
265.000000 338.000000
276.000000 344.000000
288.000000 338.000000
318.000000 355.000000
335.000000 373.000000
318.000000 391.000000
300.000000 403.000000
276.000000 403.000000
259.000000 403.000000
241.000000 391.000000
229.000000 373.000000
265.000000 361.000000
276.000000 355.000000
294.000000 361.000000
330.000000 373.000000
294.000000 379.000000
276.000000 385.000000
259.000000 379.000000
}
