version: 1
n_points: 32
{
178.000000 206.000000
196.000000 200.000000
214.000000 200.000000
238.000000 212.000000
214.000000 218.000000
196.000000 218.000000
323.000000 206.000000
347.000000 194.000000
371.000000 194.000000
389.000000 206.000000
371.000000 212.000000
347.000000 212.000000
232.000000 394.000000
244.000000 364.000000
262.000000 345.000000
280.000000 352.000000
293.000000 345.000000
317.000000 370.000000
329.000000 400.000000
317.000000 436.000000
299.000000 454.000000
280.000000 454.000000
256.000000 454.000000
238.000000 436.000000
232.000000 400.000000
262.000000 370.000000
280.000000 370.000000
293.000000 370.000000
329.000000 400.000000
293.000000 430.000000
280.000000 436.000000
262.000000 430.000000
}
