version: 1
n_points: 32
{
174.000000 207.000000
193.000000 194.000000
212.000000 194.000000
231.000000 207.000000
212.000000 213.000000
193.000000 213.000000
325.000000 207.000000
344.000000 194.000000
369.000000 188.000000
388.000000 200.000000
369.000000 213.000000
344.000000 213.000000
231.000000 408.000000
243.000000 364.000000
262.000000 345.000000
275.000000 345.000000
287.000000 345.000000
319.000000 370.000000
337.000000 408.000000
325.000000 458.000000
306.000000 483.000000
281.000000 489.000000
256.000000 483.000000
237.000000 458.000000
231.000000 414.000000
262.000000 370.000000
281.000000 364.000000
293.000000 370.000000
331.000000 408.000000
300.000000 464.000000
281.000000 471.000000
256.000000 464.000000
}
