version: 1
n_points: 32
{
176.000000 206.000000
193.000000 195.000000
211.000000 195.000000
234.000000 206.000000
217.000000 212.000000
193.000000 218.000000
322.000000 206.000000
346.000000 195.000000
369.000000 195.000000
387.000000 206.000000
369.000000 212.000000
346.000000 212.000000
228.000000 382.000000
240.000000 364.000000
263.000000 347.000000
275.000000 353.000000
287.000000 347.000000
310.000000 364.000000
322.000000 388.000000
305.000000 400.000000
287.000000 411.000000
269.000000 411.000000
252.000000 411.000000
240.000000 400.000000
228.000000 382.000000
258.000000 370.000000
275.000000 370.000000
287.000000 370.000000
316.000000 388.000000
287.000000 388.000000
269.000000 388.000000
258.000000 388.000000
}
