version: 1
n_points: 32
{
177.000000 211.000000
194.000000 199.000000
212.000000 199.000000
236.000000 211.000000
218.000000 217.000000
194.000000 217.000000
324.000000 205.000000
347.000000 194.000000
371.000000 194.000000
388.000000 205.000000
371.000000 217.000000
347.000000 217.000000
236.000000 388.000000
247.000000 370.000000
265.000000 352.000000
277.000000 358.000000
288.000000 352.000000
306.000000 370.000000
318.000000 393.000000
306.000000 411.000000
288.000000 423.000000
271.000000 423.000000
253.000000 417.000000
241.000000 405.000000
236.000000 388.000000
265.000000 376.000000
277.000000 376.000000
288.000000 376.000000
318.000000 393.000000
288.000000 399.000000
277.000000 399.000000
259.000000 393.000000
}
