version: 1
n_points: 32
{
179.000000 206.000000
191.000000 194.000000
215.000000 194.000000
238.000000 206.000000
215.000000 212.000000
197.000000 212.000000
328.000000 206.000000
352.000000 194.000000
370.000000 194.000000
387.000000 200.000000
370.000000 212.000000
346.000000 212.000000
209.000000 349.000000
226.000000 343.000000
268.000000 331.000000
280.000000 337.000000
298.000000 337.000000
340.000000 337.000000
364.000000 355.000000
340.000000 385.000000
310.000000 397.000000
280.000000 403.000000
256.000000 397.000000
232.000000 385.000000
215.000000 349.000000
256.000000 349.000000
280.000000 349.000000
310.000000 349.000000
364.000000 355.000000
310.000000 379.000000
286.000000 379.000000
256.000000 379.000000
}
