version: 1
n_points: 32
{
178.000000 209.000000
189.000000 197.000000
213.000000 197.000000
237.000000 209.000000
213.000000 220.000000
195.000000 220.000000
325.000000 209.000000
349.000000 197.000000
366.000000 197.000000
390.000000 203.000000
366.000000 214.000000
343.000000 214.000000
231.000000 397.000000
248.000000 374.000000
266.000000 356.000000
278.000000 356.000000
284.000000 356.000000
307.000000 374.000000
319.000000 397.000000
307.000000 415.000000
290.000000 427.000000
272.000000 427.000000
254.000000 427.000000
243.000000 415.000000
237.000000 397.000000
266.000000 380.000000
272.000000 380.000000
284.000000 380.000000
313.000000 397.000000
284.000000 403.000000
272.000000 403.000000
260.000000 403.000000
}
