version: 1
n_points: 32
{
179.000000 206.000000
191.000000 194.000000
215.000000 194.000000
233.000000 206.000000
215.000000 212.000000
191.000000 212.000000
329.000000 206.000000
346.000000 194.000000
370.000000 194.000000
388.000000 200.000000
370.000000 212.000000
346.000000 212.000000
209.000000 355.000000
227.000000 343.000000
263.000000 337.000000
281.000000 337.000000
299.000000 337.000000
335.000000 343.000000
364.000000 355.000000
335.000000 385.000000
311.000000 397.000000
281.000000 403.000000
257.000000 397.000000
233.000000 385.000000
215.000000 355.000000
257.000000 349.000000
281.000000 349.000000
305.000000 349.000000
358.000000 355.000000
311.000000 379.000000
281.000000 379.000000
257.000000 379.000000
}
