version: 1
n_points: 32
{
174.000000 211.000000
192.000000 198.000000
211.000000 198.000000
235.000000 211.000000
211.000000 217.000000
192.000000 217.000000
327.000000 211.000000
345.000000 198.000000
369.000000 198.000000
388.000000 205.000000
369.000000 217.000000
345.000000 217.000000
204.000000 357.000000
229.000000 345.000000
259.000000 339.000000
278.000000 345.000000
296.000000 339.000000
333.000000 345.000000
363.000000 357.000000
333.000000 388.000000
308.000000 400.000000
278.000000 406.000000
253.000000 406.000000
229.000000 388.000000
211.000000 357.000000
253.000000 357.000000
278.000000 357.000000
302.000000 357.000000
357.000000 357.000000
308.000000 382.000000
284.000000 388.000000
253.000000 382.000000
}
