version: 1
n_points: 32
{
172.000000 208.000000
191.000000 202.000000
209.000000 196.000000
234.000000 208.000000
215.000000 215.000000
191.000000 215.000000
325.000000 208.000000
344.000000 196.000000
368.000000 196.000000
387.000000 202.000000
368.000000 215.000000
344.000000 215.000000
209.000000 361.000000
227.000000 349.000000
264.000000 337.000000
276.000000 343.000000
295.000000 343.000000
331.000000 349.000000
362.000000 361.000000
331.000000 398.000000
307.000000 410.000000
276.000000 410.000000
252.000000 410.000000
234.000000 398.000000
209.000000 361.000000
252.000000 355.000000
282.000000 355.000000
301.000000 355.000000
356.000000 361.000000
307.000000 386.000000
282.000000 392.000000
258.000000 392.000000
}
