version: 1
n_points: 32
{
175.000000 214.000000
193.000000 202.000000
211.000000 202.000000
235.000000 214.000000
211.000000 220.000000
193.000000 220.000000
326.000000 208.000000
345.000000 196.000000
369.000000 196.000000
387.000000 208.000000
369.000000 214.000000
345.000000 214.000000
211.000000 372.000000
229.000000 354.000000
260.000000 341.000000
278.000000 348.000000
296.000000 341.000000
333.000000 354.000000
357.000000 378.000000
333.000000 420.000000
308.000000 439.000000
278.000000 445.000000
254.000000 439.000000
235.000000 420.000000
217.000000 372.000000
260.000000 360.000000
278.000000 360.000000
302.000000 360.000000
351.000000 378.000000
308.000000 420.000000
278.000000 420.000000
260.000000 420.000000
}
