version: 1
n_points: 32
{
173.000000 213.000000
192.000000 200.000000
210.000000 200.000000
234.000000 213.000000
216.000000 219.000000
192.000000 219.000000
326.000000 206.000000
344.000000 200.000000
368.000000 194.000000
387.000000 206.000000
368.000000 219.000000
344.000000 213.000000
210.000000 359.000000
228.000000 346.000000
265.000000 340.000000
277.000000 340.000000
295.000000 340.000000
332.000000 346.000000
356.000000 359.000000
332.000000 389.000000
307.000000 401.000000
283.000000 407.000000
259.000000 401.000000
234.000000 389.000000
216.000000 359.000000
259.000000 353.000000
283.000000 353.000000
301.000000 359.000000
356.000000 359.000000
307.000000 383.000000
283.000000 383.000000
259.000000 383.000000
}
