version: 1
n_points: 32
{
176.000000 208.000000
188.000000 202.000000
212.000000 202.000000
230.000000 214.000000
212.000000 220.000000
194.000000 220.000000
327.000000 208.000000
345.000000 196.000000
369.000000 196.000000
387.000000 208.000000
369.000000 214.000000
345.000000 214.000000
224.000000 377.000000
236.000000 353.000000
261.000000 341.000000
279.000000 347.000000
291.000000 347.000000
321.000000 359.000000
345.000000 377.000000
321.000000 402.000000
303.000000 414.000000
279.000000 414.000000
255.000000 414.000000
242.000000 402.000000
224.000000 377.000000
261.000000 359.000000
279.000000 359.000000
297.000000 365.000000
339.000000 377.000000
297.000000 390.000000
279.000000 396.000000
261.000000 390.000000
}
