version: 1
n_points: 32
{
177.000000 214.000000
189.000000 202.000000
213.000000 202.000000
231.000000 214.000000
213.000000 220.000000
189.000000 220.000000
322.000000 208.000000
346.000000 196.000000
370.000000 196.000000
388.000000 208.000000
370.000000 214.000000
346.000000 214.000000
219.000000 371.000000
231.000000 353.000000
261.000000 341.000000
279.000000 347.000000
291.000000 347.000000
328.000000 353.000000
352.000000 371.000000
328.000000 401.000000
303.000000 413.000000
279.000000 413.000000
255.000000 413.000000
237.000000 401.000000
219.000000 371.000000
255.000000 359.000000
279.000000 359.000000
297.000000 359.000000
346.000000 371.000000
303.000000 389.000000
279.000000 395.000000
261.000000 389.000000
}
