version: 1
n_points: 32
{
172.000000 208.000000
190.000000 196.000000
209.000000 196.000000
234.000000 208.000000
215.000000 215.000000
190.000000 215.000000
328.000000 208.000000
347.000000 196.000000
366.000000 196.000000
385.000000 202.000000
372.000000 215.000000
347.000000 215.000000
222.000000 390.000000
234.000000 359.000000
266.000000 346.000000
278.000000 346.000000
291.000000 346.000000
322.000000 365.000000
347.000000 396.000000
328.000000 446.000000
309.000000 471.000000
284.000000 478.000000
253.000000 471.000000
234.000000 453.000000
222.000000 390.000000
259.000000 365.000000
278.000000 365.000000
303.000000 365.000000
341.000000 396.000000
303.000000 453.000000
284.000000 459.000000
259.000000 453.000000
}
