version: 1
n_points: 32
{
173.000000 212.000000
191.000000 199.000000
209.000000 199.000000
234.000000 212.000000
216.000000 218.000000
191.000000 218.000000
326.000000 206.000000
344.000000 199.000000
369.000000 193.000000
387.000000 206.000000
369.000000 212.000000
344.000000 212.000000
203.000000 353.000000
228.000000 347.000000
265.000000 341.000000
277.000000 341.000000
295.000000 341.000000
332.000000 347.000000
363.000000 359.000000
332.000000 390.000000
308.000000 402.000000
283.000000 408.000000
252.000000 402.000000
234.000000 390.000000
209.000000 353.000000
252.000000 353.000000
283.000000 353.000000
308.000000 353.000000
357.000000 359.000000
308.000000 384.000000
283.000000 384.000000
258.000000 384.000000
}
