version: 1
n_points: 32
{
175.000000 208.000000
187.000000 202.000000
212.000000 202.000000
230.000000 214.000000
212.000000 220.000000
187.000000 220.000000
327.000000 208.000000
345.000000 196.000000
369.000000 196.000000
381.000000 208.000000
369.000000 214.000000
345.000000 214.000000
205.000000 360.000000
224.000000 348.000000
260.000000 342.000000
278.000000 342.000000
296.000000 342.000000
333.000000 348.000000
363.000000 366.000000
333.000000 402.000000
308.000000 414.000000
278.000000 420.000000
254.000000 414.000000
230.000000 402.000000
212.000000 360.000000
254.000000 360.000000
278.000000 360.000000
302.000000 360.000000
357.000000 366.000000
302.000000 396.000000
278.000000 396.000000
254.000000 396.000000
}
