version: 1
n_points: 32
{
172.000000 206.000000
191.000000 193.000000
210.000000 193.000000
235.000000 206.000000
210.000000 212.000000
191.000000 212.000000
323.000000 200.000000
349.000000 187.000000
368.000000 187.000000
386.000000 200.000000
368.000000 206.000000
342.000000 206.000000
229.000000 408.000000
235.000000 364.000000
260.000000 345.000000
273.000000 345.000000
292.000000 345.000000
317.000000 364.000000
342.000000 408.000000
330.000000 465.000000
304.000000 484.000000
279.000000 490.000000
254.000000 484.000000
235.000000 465.000000
229.000000 408.000000
260.000000 370.000000
279.000000 364.000000
298.000000 370.000000
336.000000 408.000000
304.000000 465.000000
279.000000 471.000000
254.000000 465.000000
}
