version: 1
n_points: 32
{
179.000000 209.000000
191.000000 203.000000
215.000000 203.000000
233.000000 209.000000
215.000000 221.000000
191.000000 221.000000
323.000000 209.000000
347.000000 197.000000
371.000000 197.000000
389.000000 209.000000
371.000000 215.000000
347.000000 215.000000
233.000000 382.000000
245.000000 364.000000
263.000000 352.000000
275.000000 352.000000
287.000000 352.000000
311.000000 364.000000
323.000000 388.000000
311.000000 400.000000
293.000000 412.000000
275.000000 412.000000
257.000000 412.000000
245.000000 400.000000
233.000000 382.000000
263.000000 376.000000
275.000000 370.000000
287.000000 376.000000
323.000000 382.000000
287.000000 388.000000
275.000000 388.000000
263.000000 388.000000
}
