version: 1
n_points: 32
{
176.000000 210.000000
194.000000 199.000000
211.000000 199.000000
235.000000 210.000000
217.000000 216.000000
194.000000 222.000000
324.000000 210.000000
347.000000 199.000000
371.000000 199.000000
389.000000 205.000000
371.000000 216.000000
347.000000 216.000000
229.000000 382.000000
247.000000 364.000000
265.000000 352.000000
276.000000 358.000000
288.000000 352.000000
312.000000 370.000000
324.000000 388.000000
306.000000 400.000000
288.000000 412.000000
276.000000 412.000000
259.000000 412.000000
241.000000 400.000000
235.000000 382.000000
265.000000 376.000000
276.000000 376.000000
288.000000 376.000000
318.000000 388.000000
288.000000 388.000000
276.000000 388.000000
259.000000 388.000000
}
