version: 1
n_points: 32
{
177.000000 210.000000
195.000000 205.000000
212.000000 199.000000
236.000000 210.000000
218.000000 222.000000
195.000000 222.000000
330.000000 210.000000
347.000000 199.000000
371.000000 199.000000
388.000000 205.000000
371.000000 216.000000
347.000000 216.000000
230.000000 387.000000
248.000000 363.000000
265.000000 351.000000
277.000000 351.000000
289.000000 351.000000
312.000000 369.000000
330.000000 387.000000
312.000000 404.000000
295.000000 416.000000
277.000000 416.000000
259.000000 416.000000
248.000000 404.000000
236.000000 387.000000
265.000000 375.000000
277.000000 369.000000
295.000000 375.000000
324.000000 387.000000
295.000000 392.000000
277.000000 392.000000
265.000000 392.000000
}
