version: 1
n_points: 32
{
178.000000 211.000000
190.000000 199.000000
214.000000 199.000000
232.000000 211.000000
214.000000 217.000000
190.000000 217.000000
328.000000 211.000000
346.000000 199.000000
370.000000 199.000000
388.000000 205.000000
370.000000 217.000000
346.000000 217.000000
232.000000 385.000000
244.000000 361.000000
262.000000 349.000000
274.000000 349.000000
292.000000 349.000000
310.000000 361.000000
328.000000 385.000000
310.000000 403.000000
292.000000 415.000000
274.000000 415.000000
256.000000 415.000000
244.000000 403.000000
232.000000 379.000000
262.000000 367.000000
274.000000 367.000000
292.000000 367.000000
322.000000 385.000000
292.000000 391.000000
280.000000 391.000000
262.000000 391.000000
}
