version: 1
n_points: 32
{
178.000000 210.000000
190.000000 198.000000
214.000000 198.000000
238.000000 210.000000
214.000000 216.000000
190.000000 222.000000
328.000000 210.000000
346.000000 198.000000
370.000000 198.000000
388.000000 210.000000
370.000000 216.000000
346.000000 216.000000
232.000000 383.000000
244.000000 365.000000
262.000000 353.000000
274.000000 353.000000
286.000000 353.000000
310.000000 365.000000
322.000000 389.000000
304.000000 401.000000
292.000000 413.000000
274.000000 413.000000
256.000000 407.000000
244.000000 401.000000
238.000000 383.000000
262.000000 377.000000
274.000000 371.000000
286.000000 377.000000
316.000000 389.000000
286.000000 389.000000
274.000000 389.000000
262.000000 389.000000
}
