version: 1
n_points: 32
{
179.000000 215.000000
191.000000 204.000000
215.000000 204.000000
238.000000 210.000000
215.000000 221.000000
191.000000 221.000000
327.000000 210.000000
350.000000 198.000000
368.000000 198.000000
385.000000 210.000000
368.000000 215.000000
344.000000 215.000000
227.000000 380.000000
244.000000 363.000000
268.000000 351.000000
279.000000 351.000000
291.000000 351.000000
321.000000 363.000000
338.000000 380.000000
315.000000 398.000000
297.000000 410.000000
279.000000 416.000000
262.000000 410.000000
244.000000 398.000000
232.000000 380.000000
262.000000 368.000000
279.000000 368.000000
297.000000 368.000000
332.000000 380.000000
297.000000 386.000000
279.000000 392.000000
262.000000 392.000000
}
