version: 1
n_points: 120
{
22.733875 26.333875
23.340250 25.819375
24.000000 25.359625
24.667750 24.916625
25.421625 24.693625
26.235250 24.654250
27.034125 24.746125
27.773875 25.028875
28.450250 25.441500
29.091375 25.828625
29.285125 26.346875
28.584375 26.675875
27.817625 26.892375
27.044375 27.068625
26.247875 27.160500
25.451375 27.252375
24.639375 27.278625
23.856750 27.147375
23.150750 26.855625
22.720750 26.386250
41.561375 25.892375
42.120250 25.358125
42.718500 24.872125
43.371625 24.517250
44.076375 24.297375
44.853875 24.263875
45.611500 24.338500
46.345750 24.542750
47.051125 24.843375
47.693625 25.204375
47.698125 25.672750
47.103000 26.131125
46.416500 26.448250
45.660000 26.593875
44.879125 26.625875
44.118750 26.551250
43.354375 26.451750
42.590625 26.364750
41.841125 26.252875
41.685750 25.768125
28.188625 45.535875
28.626000 45.002000
29.108875 44.530375
29.606250 44.067000
30.149750 43.667375
30.714000 43.280500
31.284125 42.901375
31.860125 42.540250
32.440125 42.207875
33.071125 42.012625
33.722250 42.115625
34.372375 42.291625
35.028250 42.438875
35.665375 42.287625
36.281500 42.015125
36.935500 41.870500
37.594250 41.984250
38.238875 42.207500
38.863750 42.497625
39.462125 42.827500
40.037125 43.196625
40.599625 43.579625
41.141375 43.992625
41.652250 44.437500
42.135500 44.892500
42.609875 45.352625
42.289250 45.787875
41.695625 46.091750
41.100375 46.419000
40.501875 46.744875
39.900250 47.070250
39.315500 47.415000
38.696500 47.714750
38.080625 48.013000
37.422250 48.216500
36.743500 48.292000
36.053625 48.306250
35.367250 48.277875
34.684375 48.221000
33.993500 48.206875
33.302750 48.192625
32.618750 48.135750
31.950375 48.022125
31.304125 47.825375
30.712625 47.505875
30.134500 47.141125
29.583625 46.759125
29.041000 46.360000
28.573750 45.878500
28.217000 45.408125
28.648125 45.671625
29.585875 45.470250
30.488125 45.186625
31.371500 44.828375
32.288625 44.572000
33.233375 44.445750
34.201125 44.424250
35.169875 44.445750
36.130875 44.499500
37.085500 44.598375
38.026000 44.768375
38.959500 44.957875
39.895750 45.176750
40.825875 45.392125
41.767625 45.521125
41.423750 45.553375
40.512500 45.355875
39.611375 45.115000
38.723375 44.843125
37.803500 44.641250
36.871125 44.508375
35.904375 44.488750
34.942000 44.467250
33.975750 44.467250
33.008750 44.478000
32.099750 44.617750
31.232625 44.886625
30.401000 45.263000
29.521250 45.521125
28.702000 45.660875
}
