version: 1
n_points: 120
{
22.448125 26.431375
23.015375 25.889125
23.669500 25.477125
24.413375 25.228500
25.152625 25.003875
25.925500 24.902750
26.688125 25.028000
27.384875 25.277750
28.075250 25.529875
28.762500 25.866875
28.808750 26.408500
28.138750 26.787375
27.406000 27.063250
26.647875 27.283375
25.878875 27.408625
25.091250 27.433750
24.302000 27.402125
23.539250 27.271375
22.868250 26.926625
22.473250 26.468875
40.932500 26.038500
41.553500 25.520875
42.159375 25.005000
42.816250 24.605500
43.515125 24.280750
44.303125 24.229125
45.081875 24.326375
45.850875 24.500500
46.604500 24.720250
47.233750 25.192625
47.373625 25.693500
46.666500 26.075875
45.978625 26.485125
45.248125 26.749875
44.447625 26.813875
43.650250 26.736375
42.884125 26.536125
42.125375 26.335750
41.318875 26.297000
41.023000 25.960875
28.044000 45.625000
28.432750 45.096500
28.875625 44.615250
29.329375 44.162125
29.829250 43.750500
30.398000 43.425250
30.982750 43.119125
31.538250 42.821750
32.163750 42.679250
32.821750 42.679250
33.467625 42.773875
34.111750 42.873250
34.764125 42.901375
35.371125 42.682750
35.960500 42.436125
36.578125 42.242875
37.227625 42.255000
37.834625 42.488000
38.419500 42.775875
38.993625 43.089625
39.556000 43.426750
40.106875 43.774750
40.634250 44.159000
41.155625 44.553625
41.633375 44.982875
42.081500 45.436000
41.657500 45.879375
41.081125 46.188875
40.538625 46.549625
39.996375 46.910000
39.422375 47.224000
38.864000 47.566250
38.265000 47.838125
37.632250 48.021250
36.990500 48.161375
36.346750 48.284125
35.693875 48.352500
35.037875 48.413000
34.377625 48.437250
33.718875 48.407375
33.067625 48.328250
32.426750 48.197125
31.792500 48.044750
31.176125 47.821375
30.608875 47.498875
30.100750 47.087625
29.597625 46.683625
29.077125 46.294375
28.554875 45.910625
28.056125 45.564375
28.325000 45.658375
29.192875 45.314375
30.109875 45.193500
31.036625 45.094375
31.961625 44.998500
32.904125 44.983500
33.844250 44.953500
34.790375 44.953500
35.735500 44.959375
36.676625 44.983500
37.613125 45.028500
38.525500 45.165000
39.436375 45.328375
40.372625 45.388375
41.292875 45.439000
40.913500 45.463375
39.998125 45.328375
39.094250 45.169125
38.173000 45.037000
37.257000 44.883125
36.319125 44.848500
35.380000 44.818500
34.462500 44.953500
33.527000 44.998500
32.603750 45.088500
31.664750 45.118500
30.747875 45.208500
29.851375 45.373375
28.968250 45.583375
28.385000 45.658375
}
