version: 1
n_points: 120
{
21.860250 26.916750
22.390125 26.349500
23.034875 25.889000
23.732500 25.544875
24.496375 25.393500
25.284000 25.268750
26.079750 25.295625
26.796375 25.624750
27.468750 26.050875
28.126750 26.484125
28.249625 26.831500
27.580125 27.251625
26.856625 27.578000
26.089375 27.778625
25.304875 27.892250
24.515625 27.996500
23.718000 28.025625
22.969750 27.836875
22.296875 27.457625
21.860250 26.907250
40.426875 26.411500
41.067000 25.910500
41.716750 25.411875
42.402500 24.978750
43.153000 24.770125
43.971375 24.672750
44.803125 24.672750
45.586250 24.853500
46.342750 25.147625
46.985000 25.604750
46.973125 26.097375
46.308375 26.570125
45.596250 26.956875
44.817125 27.144625
43.986375 27.176625
43.157125 27.148875
42.359250 27.009125
41.573500 26.828875
40.789750 26.691000
40.496375 26.328125
27.587750 46.571125
27.998250 45.935625
28.396750 45.290500
28.836250 44.685875
29.365375 44.152500
29.777625 43.544500
30.260750 42.987125
30.935250 42.741500
31.677750 42.856375
32.397000 43.071000
33.133000 43.219625
33.885625 43.281375
34.556125 43.011000
35.243250 42.709625
35.967125 42.539000
36.703000 42.659625
37.367125 43.025500
38.002000 43.438250
38.660750 43.815750
39.287375 44.238625
39.900750 44.669500
40.527250 45.094750
41.146500 45.531000
41.728750 45.963750
42.050125 46.398125
41.561875 46.956500
41.094500 47.539375
40.543250 48.056875
39.994875 48.571625
39.456125 49.093375
38.915750 49.609125
38.348250 50.115375
37.724500 50.537000
37.053375 50.872750
36.325250 51.075625
35.558000 51.075625
34.790750 51.075625
34.023500 51.075625
33.258875 51.092500
32.491625 51.092500
31.744000 51.011125
31.031125 50.831875
30.376125 50.470625
29.746250 50.054375
29.157875 49.592125
28.689625 49.039500
28.309750 48.423500
28.093875 47.739625
27.857750 47.109750
27.570875 46.520500
29.997625 46.155125
30.577125 45.711750
31.126750 45.317500
31.766875 45.097000
32.480250 45.028625
33.205875 45.045750
33.938500 45.045750
34.658750 44.977500
35.383375 44.943375
36.097750 44.960375
36.790125 45.105250
37.462500 45.291000
38.106000 45.557750
38.685125 45.906375
38.675500 46.574500
38.288375 47.153625
37.774875 47.642875
37.170250 48.030500
36.534875 48.339625
35.837625 48.425250
35.113125 48.459375
34.380500 48.459375
33.651875 48.442250
32.948750 48.330500
32.252000 48.178375
31.585125 47.964500
30.992625 47.674250
30.517625 47.221375
30.095250 46.713625
30.031750 46.172250
}
