version: 1
n_points: 120
{
21.607625 26.802625
22.178000 26.221250
22.845625 25.772750
23.534875 25.384500
24.283625 25.158000
25.084875 25.094250
25.867500 25.236625
26.607125 25.527250
27.313250 25.899250
27.957625 26.373875
28.164375 26.862000
27.438375 27.216375
26.710625 27.541875
25.927750 27.717125
25.126250 27.810125
24.316500 27.852625
23.502000 27.854000
22.708625 27.728500
22.037000 27.373250
21.563750 26.868375
40.261125 26.366125
40.881250 25.804000
41.551625 25.322000
42.245000 24.888375
43.014250 24.568625
43.829375 24.451750
44.652375 24.537125
45.434000 24.799875
46.164750 25.155625
46.873500 25.582500
46.889500 26.090000
46.249375 26.614000
45.508625 26.960750
44.703375 27.103625
43.872500 27.178250
43.036250 27.149250
42.218875 27.062250
41.411250 26.912125
40.632125 26.722625
40.275625 26.308125
26.981000 46.380250
27.275000 45.684625
27.678500 45.067125
28.069500 44.434125
28.512125 43.852500
29.032875 43.338375
29.533750 42.781000
30.142625 42.363250
30.890750 42.301625
31.626750 42.454750
32.366000 42.608875
33.102375 42.732625
33.853250 42.774875
34.564125 42.557875
35.255250 42.266125
35.983625 42.163125
36.685625 42.421250
37.361750 42.767125
38.016250 43.143125
38.666000 43.530000
39.318500 43.911750
39.930000 44.354000
40.524750 44.810250
41.109000 45.271250
41.602250 45.827250
41.556125 46.521750
41.132375 47.096375
40.554875 47.581125
40.040250 48.111500
39.456625 48.585250
38.927375 49.116625
38.379750 49.638250
37.748875 50.046125
37.071000 50.383875
36.347125 50.597250
35.605250 50.739125
34.847250 50.782000
34.081750 50.782000
33.323625 50.751125
32.571125 50.685625
31.830750 50.551875
31.105375 50.350875
30.412375 50.050500
29.762375 49.669500
29.152125 49.229500
28.651625 48.681875
28.171000 48.108875
27.753375 47.491125
27.378500 46.870000
26.965625 46.318625
29.393750 46.007750
29.896500 45.528250
30.497750 45.189375
31.147625 44.911125
31.848625 44.809000
32.566875 44.755750
33.283125 44.802500
33.991125 44.889000
34.704875 44.942250
35.425750 44.928875
36.137875 44.968875
36.824125 45.088750
37.469750 45.306500
38.108250 45.558750
38.727875 45.853250
38.730375 46.379750
38.212125 46.845625
37.514625 46.926750
36.793500 46.900125
36.072500 46.873500
35.349250 46.886750
34.622875 46.886750
33.896500 46.886750
33.178875 46.886750
32.455625 46.900125
31.729250 46.900125
31.013875 46.926750
30.311125 46.846875
29.714875 46.528625
29.420500 45.994375
}
