version: 1
n_points: 120
{
21.748500 26.604500
22.347875 26.037625
23.066000 25.636500
23.813250 25.319750
24.596625 25.106875
25.402500 25.074375
26.221000 25.188250
27.001625 25.430000
27.734625 25.786125
28.391625 26.280375
28.398375 26.808000
27.660125 27.132250
26.896875 27.455000
26.099875 27.613750
25.282125 27.710875
24.450625 27.744000
23.632375 27.678875
22.857125 27.492625
22.171750 27.132375
21.699625 26.669625
39.984250 26.493250
40.601000 25.889875
41.315750 25.411625
42.065625 24.994375
42.825625 24.616375
43.655750 24.467125
44.523500 24.494000
45.366500 24.608875
46.128250 25.023375
46.853750 25.439750
47.183500 26.022250
46.513875 26.541125
45.716250 26.881500
44.895500 27.137250
44.028000 27.177500
43.158500 27.154500
42.339375 26.962875
41.545500 26.694500
40.715125 26.560250
40.024500 26.493250
27.013875 46.305250
27.494250 45.695500
27.876250 45.038500
28.327625 44.406000
28.815375 43.802625
29.328875 43.229875
29.970000 42.796625
30.678000 42.519125
31.443875 42.493125
32.216000 42.559625
32.983875 42.664500
33.744125 42.794250
34.520875 42.826500
35.244875 42.602375
35.967250 42.325000
36.728750 42.227875
37.453750 42.474375
38.123250 42.868750
38.789875 43.270000
39.391625 43.748750
40.014875 44.214125
40.569375 44.745125
41.153000 45.244250
41.701625 45.767500
42.045125 46.346125
41.666500 46.997875
41.163125 47.583875
40.663750 48.178250
40.144875 48.752125
39.676875 49.353125
39.111875 49.885750
38.505125 50.376125
37.856125 50.801750
37.143500 51.121250
36.384250 51.256375
35.606000 51.304875
34.826000 51.353375
34.046625 51.337250
33.279000 51.224000
32.521500 51.057250
31.774250 50.853000
31.053750 50.574125
30.380250 50.189375
29.743000 49.757250
29.185500 49.237250
28.644250 48.692125
28.176000 48.082250
27.698000 47.490875
27.316250 46.850250
27.078625 46.224375
29.451125 46.131875
29.976750 45.592125
30.619375 45.225125
31.303625 44.946750
32.045750 44.833875
32.799375 44.763375
33.557000 44.763375
34.323000 44.777500
35.085500 44.805625
35.840000 44.862125
36.591375 44.946750
37.340500 45.045500
38.066125 45.177000
38.725750 45.513875
39.157500 46.022000
39.029375 46.740875
38.572875 47.327125
37.854500 47.500375
37.091125 47.514375
36.321875 47.514375
35.554375 47.500375
34.786750 47.486250
34.017500 47.486250
33.253875 47.458000
32.488000 47.472125
31.722000 47.486250
30.990500 47.389000
30.330625 47.107750
29.761500 46.667500
29.408750 46.160000
}
