version: 1
n_points: 120
{
21.595250 26.085250
22.220375 25.656875
22.819000 25.176375
23.509500 24.821625
24.262375 24.628750
25.063875 24.615625
25.837750 24.722750
26.559500 24.987375
27.232125 25.332000
27.819875 25.814750
28.236375 26.188625
27.615750 26.586125
26.841250 26.702000
26.043750 26.728250
25.248500 26.754500
24.447875 26.771500
23.651500 26.806875
22.877250 26.702000
22.176125 26.443125
21.608375 26.085250
40.300125 25.733500
40.934625 25.273875
41.581875 24.857125
42.238250 24.452500
42.921250 24.110750
43.675250 24.003125
44.460875 23.981250
45.220250 24.090750
45.926875 24.358000
46.567000 24.750750
46.826750 25.175625
46.238000 25.617375
45.503625 25.843000
44.738625 25.952500
43.976375 26.073000
43.197500 26.116750
42.408375 26.116750
41.621000 26.105750
40.868750 26.007250
40.256375 25.788250
24.597125 43.427750
25.149875 42.618625
25.794750 41.880750
26.571625 41.296000
27.424750 40.905000
28.333000 40.625500
29.317500 40.563875
30.298000 40.511500
31.293000 40.494000
32.288000 40.511500
33.280125 40.546375
34.279125 40.546375
35.274125 40.563875
36.265000 40.529000
37.247500 40.459125
38.224500 40.354375
39.207000 40.284500
40.191250 40.360250
41.159250 40.506625
42.095625 40.704875
42.845375 41.280000
43.495500 42.000000
44.015250 42.789125
43.903625 43.738125
43.519500 44.593625
43.120625 45.461250
42.687375 46.310500
42.138375 47.120625
41.393500 47.759500
40.615125 48.364375
39.807750 48.927375
38.977125 49.461125
38.085125 49.822375
37.120000 49.976125
36.134875 50.045875
35.142625 50.098250
34.146375 50.115750
33.155625 50.080875
32.192625 49.906250
31.232875 49.723000
30.281750 49.509250
29.418125 49.069500
28.570500 48.557625
27.801125 47.958875
27.098750 47.278625
26.460125 46.565500
25.839375 45.824875
25.278125 45.058750
24.753000 44.282125
24.614500 43.410250
25.993375 43.259250
26.935375 42.468750
28.298750 42.386375
29.669750 42.448750
31.017000 42.635750
32.375875 42.783625
33.750250 42.838375
35.109750 42.760500
36.462000 42.604625
37.819625 42.459000
39.159250 42.249000
40.513125 42.090125
41.867500 42.168125
43.145875 42.433125
42.987125 43.596500
42.190625 44.692125
41.101250 45.502875
39.873500 46.104500
38.657125 46.732250
37.392500 47.175625
36.031875 47.312125
34.657250 47.358875
33.277500 47.374500
31.924125 47.218625
30.615125 46.957500
29.333875 46.519500
28.116875 45.912875
26.950625 45.254500
26.039500 44.381000
25.993375 43.228125
}
