version: 1
n_points: 120
{
22.403125 25.725750
22.964125 25.240500
23.587000 24.895500
24.248875 24.599875
24.966250 24.462875
25.719500 24.437625
26.462000 24.500750
27.111375 24.796375
27.716625 25.204875
28.294000 25.643375
28.881500 25.854125
28.290500 26.193000
27.540250 26.172625
26.787000 26.155000
26.035500 26.129750
25.283125 26.104500
24.536875 26.053625
23.795750 26.003500
23.062250 25.940375
22.390500 25.776250
41.127250 25.348625
41.743250 24.896250
42.395125 24.502750
43.070125 24.143000
43.785500 23.873125
44.533500 23.689000
45.300000 23.640250
46.053125 23.725375
46.787125 23.926250
47.441875 24.298250
47.326875 24.788250
46.594750 24.967750
45.840875 25.060000
45.098500 25.187000
44.350000 25.328625
43.612375 25.487125
42.858625 25.567875
42.106625 25.638875
41.346625 25.683375
41.185000 25.302500
24.497875 42.634125
25.275875 41.910750
26.171875 41.335500
27.145000 40.877625
28.166000 40.525125
29.191125 40.303250
30.246625 40.175750
31.320125 40.084625
32.400375 40.084625
33.460000 40.175750
34.530375 40.248625
35.615000 40.230375
36.672625 40.087250
37.745875 40.011875
38.821625 39.939000
39.875250 39.811500
40.958000 39.838000
42.024750 39.957250
43.055875 40.230375
44.010875 40.654250
44.844125 41.307625
45.676125 41.941250
45.881125 42.897750
45.548625 43.905000
45.130500 44.872375
44.528250 45.748625
43.836875 46.549250
43.167375 47.360000
42.429250 48.120750
41.720250 48.902500
40.865125 49.544125
39.854125 49.910250
38.796625 50.045500
37.722250 50.118375
36.634750 50.118375
35.549375 50.136625
34.466125 50.154750
33.393125 50.082000
32.344625 49.899250
31.292375 49.681375
30.270125 49.353375
29.348625 48.815625
28.450625 48.234250
27.640625 47.543125
26.893875 46.788625
26.153250 46.019375
25.418500 45.266375
24.835000 44.428000
24.427250 43.510250
24.497875 42.597625
25.503375 43.050500
26.503125 42.075750
28.015375 41.925875
29.557750 41.982000
31.084750 42.139000
32.598875 42.338250
34.123625 42.486875
35.656625 42.384125
37.170000 42.135875
38.670375 41.888375
40.176875 41.644625
41.706000 41.532125
43.248375 41.475875
44.727500 41.730000
44.924000 43.012375
44.060750 44.250750
42.904250 45.241000
41.670500 46.153375
40.265875 46.783750
38.807500 47.274125
37.288875 47.493125
35.740625 47.493125
34.200125 47.399375
32.664125 47.268250
31.133250 47.121375
29.642125 46.835125
28.338375 46.070750
27.152625 45.112375
25.952875 44.174875
25.559625 43.106750
}
