version: 1
n_points: 120
{
22.212375 26.183875
22.853750 25.635375
23.575625 25.193625
24.327375 24.822500
25.136000 24.581750
25.979750 24.526500
26.822500 24.581750
27.613375 24.844250
28.382500 25.194375
29.124625 25.527000
29.397375 26.084625
28.635375 26.335875
27.802375 26.427625
26.998000 26.632875
26.188500 26.847875
25.350875 26.916000
24.497125 26.916000
23.673875 26.818000
22.908250 26.538750
22.226250 26.239125
41.251000 25.391125
41.910500 24.895000
42.650875 24.514125
43.372750 24.119125
44.123375 23.825375
44.956750 23.770875
45.795500 23.798125
46.585750 23.972875
47.339500 24.303250
48.035500 24.728250
48.129875 25.253250
47.413125 25.652500
46.649250 25.976500
45.845000 26.167125
45.008250 26.194375
44.171625 26.153500
43.345750 26.071875
42.527875 25.987250
41.752750 25.811125
41.223750 25.418250
27.435625 45.730250
27.860875 45.013250
28.261625 44.303500
28.631500 43.579125
29.028125 42.888750
29.548875 42.244625
30.203000 41.737250
30.929000 41.370000
31.735000 41.286750
32.568250 41.348375
33.395125 41.451000
34.190125 41.610250
35.009500 41.658500
35.748625 41.365625
36.487750 41.095250
37.299375 41.129625
38.077000 41.394750
38.852875 41.696750
39.631000 42.007500
40.393125 42.346250
41.135875 42.718125
41.890875 43.070125
42.583000 43.517875
43.201500 44.072000
43.469250 44.762000
43.417750 45.577625
43.105125 46.317625
42.586500 46.961250
41.995750 47.512875
41.401500 48.089875
40.827250 48.681375
40.173875 49.197625
39.453750 49.617750
38.665750 49.884625
37.857875 50.021250
37.038000 50.134250
36.197250 50.142125
35.359375 50.116750
34.532625 50.030000
33.703875 49.948375
32.889250 49.802750
32.075000 49.678625
31.272500 49.489750
30.485125 49.232250
29.724500 48.926125
29.045875 48.473500
28.524625 47.832000
28.070875 47.166625
27.701250 46.459375
27.384125 45.799000
28.666250 45.648750
29.448125 45.072750
30.269625 44.561000
31.010875 44.116250
31.894750 43.733125
32.855250 43.613000
33.845000 43.605500
34.825750 43.679000
35.806000 43.752500
36.786875 43.811250
37.755375 43.909125
38.693625 44.090625
39.599500 44.397500
40.454750 44.854000
41.303250 45.237125
41.497625 45.709500
40.655500 46.122250
39.706125 46.310250
38.737000 46.398500
37.752375 46.427875
36.767875 46.398500
35.784500 46.354375
34.796500 46.339750
33.817875 46.413250
32.840250 46.472000
31.852250 46.486750
30.879000 46.442625
29.906500 46.383750
28.990625 46.222125
28.710250 45.604750
}
