version: 1
n_points: 120
{
22.406750 25.711875
23.018500 25.207000
23.713125 24.816000
24.441875 24.495375
25.214500 24.341625
26.002375 24.382625
26.793625 24.467000
27.557750 24.652000
28.292375 24.934500
28.951375 25.348875
28.916375 25.931375
28.210375 26.235375
27.434375 26.396875
26.663500 26.583500
25.882375 26.700625
25.087125 26.761625
24.287375 26.728375
23.513500 26.602250
22.845250 26.223875
22.340375 25.745000
41.215500 25.249375
41.849375 24.695875
42.556000 24.231375
43.288250 23.897000
44.075000 23.649625
44.900625 23.482625
45.743375 23.482625
46.520250 23.798000
47.298250 24.145250
48.042750 24.537000
48.219375 25.089625
47.465875 25.462750
46.682375 25.778000
45.866500 25.986625
45.021625 26.028375
44.167750 26.028375
43.327125 25.972750
42.501125 25.850500
41.689500 25.681625
41.201625 25.235500
28.064625 45.980375
28.362500 45.266500
28.634000 44.558375
29.064625 43.907750
29.574000 43.309000
30.124875 42.743250
30.679125 42.189000
31.254375 41.658375
31.850375 41.167625
32.578875 40.937500
33.361000 40.885500
34.046875 41.157875
34.830750 41.168500
35.614500 41.109000
36.386375 40.954000
37.123125 40.691000
37.841500 40.790750
38.443625 41.283125
39.022750 41.817750
39.592375 42.358375
40.150750 42.910625
40.713500 43.458500
41.275375 44.009125
41.877250 44.511500
42.407125 45.067875
42.857750 45.658375
42.654875 46.371250
42.153750 46.971250
41.656000 47.569500
41.087625 48.113875
40.466125 48.595500
39.858625 49.083875
39.217625 49.524500
38.525875 49.892375
37.776375 50.107750
37.024375 50.285750
36.239750 50.326625
35.449375 50.345375
34.657875 50.330500
33.864500 50.330500
33.086750 50.226750
32.331125 50.014625
31.590375 49.757750
30.880875 49.412000
30.172375 49.075250
29.585250 48.573625
29.067000 47.993750
28.587750 47.382625
28.207375 46.698000
27.960250 46.025125
31.113625 45.438250
31.602000 44.934375
32.183625 44.578000
32.817000 44.276875
33.476875 44.090750
34.157875 43.941500
34.852875 43.858375
35.556875 43.873875
36.244875 43.966875
36.941000 44.030500
37.626500 44.139625
38.289875 44.335000
38.949250 44.554750
39.537625 44.925000
40.077375 45.304375
40.193500 45.816250
39.585500 46.104750
38.918250 46.290250
38.226875 46.373625
37.529875 46.414125
36.823375 46.414125
36.124125 46.383125
35.422625 46.352125
34.720500 46.325625
34.019125 46.290250
33.315750 46.270500
32.614750 46.243750
31.915625 46.212750
31.361375 45.985125
31.113625 45.453750
}
