version: 1
n_points: 120
{
22.601125 25.593625
23.187250 25.022375
23.851250 24.581875
24.604875 24.291875
25.401000 24.089125
26.223000 24.044250
27.025000 24.178125
27.804000 24.416750
28.561250 24.737625
29.289000 25.086500
29.284250 25.618875
28.537875 25.947375
27.763875 26.170500
26.977875 26.398000
26.184000 26.591750
25.364750 26.636375
24.545500 26.591750
23.743500 26.461000
23.020750 26.144750
22.586250 25.593625
41.506875 24.981875
42.177375 24.495375
42.898250 24.091625
43.644250 23.726750
44.412125 23.435625
45.224750 23.325375
46.046125 23.398375
46.826000 23.665875
47.560250 24.047375
48.252875 24.468250
48.052250 24.997125
47.349250 25.431250
46.577500 25.723500
45.781750 25.932500
44.949875 25.932500
44.144000 25.789125
43.345875 25.613250
42.531875 25.486000
41.717500 25.414000
41.607625 24.953000
29.096250 45.463500
29.442500 44.924750
29.845375 44.440375
30.261000 43.957375
30.707000 43.508250
31.205875 43.115000
31.727750 42.756750
32.249375 42.408375
32.795000 42.106125
33.393000 41.981625
34.025375 42.015750
34.660750 42.049875
35.300250 42.067000
35.939625 42.049875
36.563875 42.084000
37.145500 42.336625
37.669375 42.686375
38.124250 43.124250
38.614875 43.525625
39.098375 43.944750
39.538375 44.401875
39.965500 44.877000
40.258750 45.434250
40.344125 46.051375
40.077875 46.610250
39.742500 47.144500
39.379500 47.665750
38.984500 48.154500
38.562125 48.634875
38.111250 49.071875
37.626250 49.478500
37.113750 49.854500
36.577250 50.188750
36.009875 50.472375
35.399750 50.635125
34.759125 50.652125
34.123750 50.618000
33.513500 50.486000
32.896625 50.350625
32.286500 50.179500
31.680000 49.981125
31.109250 49.695750
30.648875 49.268375
30.275000 48.759625
29.921875 48.234875
29.637875 47.694750
29.433375 47.114750
29.283500 46.521250
29.113375 45.942125
29.113375 45.395250
34.471000 45.339125
34.367625 45.447750
34.264125 45.556250
34.160750 45.664875
34.120875 45.798750
34.120875 45.948750
34.173250 46.077375
34.261375 46.196500
34.367375 46.302500
34.493500 46.375750
34.626500 46.422875
34.776375 46.422875
34.912625 46.389500
35.047000 46.330375
35.165875 46.242125
35.275125 46.148500
35.374375 46.037875
35.481125 45.936625
35.571500 45.829500
35.637250 45.706750
35.604875 45.571000
35.501875 45.471000
35.373125 45.406625
35.241000 45.355750
35.111750 45.305750
34.968750 45.289000
34.819375 45.290750
34.682500 45.322375
34.546625 45.363500
34.454375 45.455750
}
