version: 1
n_points: 120
{
22.632375 25.343625
23.324250 24.837500
24.018375 24.354250
24.774250 23.964500
25.600875 23.802625
26.455875 23.830625
27.291000 23.984750
28.115375 24.192000
28.910250 24.475875
29.619875 24.909375
29.376375 25.530000
28.570000 25.792750
27.754500 26.016125
26.919000 26.142250
26.078750 26.254250
25.239750 26.352375
24.395625 26.394375
23.579625 26.254250
22.869500 25.918000
22.688375 25.273625
41.155000 24.836625
41.839250 24.306500
42.579000 23.850875
43.322125 23.412750
44.130625 23.112375
44.988250 22.953375
45.857875 22.942375
46.676750 23.209375
47.454000 23.598250
48.200125 24.038000
48.392875 24.613375
47.618250 24.995750
46.815750 25.306375
45.996750 25.570750
45.139875 25.680250
44.267125 25.695000
43.421875 25.563125
42.598000 25.354625
41.812750 25.088250
41.199375 24.747875
27.860625 46.992875
28.359000 46.210250
28.872750 45.439625
29.332500 44.648500
29.873375 43.909375
30.409875 43.179000
31.129250 42.618250
31.948875 42.176250
32.804750 41.854750
33.708250 41.726250
34.641000 41.747750
35.563500 41.726250
36.432000 41.497625
37.349125 41.426625
38.258125 41.555000
39.126125 41.837750
39.854000 42.394250
40.545875 43.000625
41.132875 43.694625
41.682125 44.406500
42.215875 45.141625
42.666375 45.934625
42.996750 46.766125
43.210375 47.634250
43.157375 48.555500
42.721250 49.363500
42.315125 50.179375
41.883875 50.995875
41.345125 51.727375
40.820125 52.480750
40.237750 53.195875
39.522750 53.761000
38.692250 54.165250
37.824500 54.503000
36.926125 54.675500
35.999125 54.721500
35.067375 54.696125
34.159000 54.571625
33.253500 54.421750
32.357000 54.236375
31.523875 53.887750
30.845750 53.275000
30.251125 52.573250
29.690250 51.841125
29.150750 51.109000
28.671000 50.350875
28.395875 49.502625
28.181750 48.634500
27.944750 47.783500
27.903500 46.928625
29.874750 46.600875
30.642875 45.832750
31.553875 45.245750
32.499500 44.775625
33.411750 44.353750
34.444625 44.094500
35.538625 44.051250
36.627375 44.116125
37.691875 44.267375
38.694875 44.637125
39.571500 45.278375
40.497750 45.851625
41.360125 46.483625
41.801625 47.248750
41.201500 48.086625
40.458875 48.875375
39.742125 49.693875
39.087125 50.560125
38.260875 51.244750
37.246375 51.591875
36.210250 51.851125
35.117625 51.916000
34.033375 51.802250
33.017125 51.456125
32.067000 50.975375
31.203625 50.328000
30.674250 49.486125
30.328500 48.526250
30.069250 47.518000
29.982750 46.471250
}
