version: 1
n_points: 120
{
22.886250 23.884125
23.475875 23.321875
24.138625 22.837625
24.879625 22.476125
25.682375 22.279625
26.503625 22.197375
27.326375 22.242125
28.112375 22.472250
28.824875 22.855625
29.555000 23.161250
29.589625 23.708500
28.844875 24.055500
28.099625 24.390875
27.308500 24.604500
26.486875 24.675750
25.661375 24.748125
24.827250 24.748125
24.014750 24.633500
23.273750 24.350375
22.941125 23.829250
41.744750 23.072875
42.399625 22.562000
43.112250 22.122500
43.898625 21.817125
44.694250 21.590875
45.531000 21.531625
46.365000 21.602000
47.166750 21.772375
47.874250 22.173125
48.529125 22.665625
48.576750 23.257875
47.804875 23.583125
46.981750 23.749875
46.149000 23.850750
45.303500 23.879500
44.453875 23.879500
43.629750 23.793125
42.814500 23.658125
42.029250 23.400625
41.845500 23.015250
26.957500 44.494625
27.283000 43.226750
28.030875 42.140750
28.555750 40.968875
29.062750 39.844000
30.183750 39.196625
31.429625 38.752750
32.725750 38.486375
34.076125 38.427125
35.433500 38.397500
36.745375 38.317625
38.044750 38.160750
39.382875 38.249500
40.621250 38.693500
41.854375 39.137500
43.091125 39.597750
43.996500 40.460250
44.716000 41.531750
45.150500 42.709375
45.396750 43.977000
45.456000 45.316750
45.248750 46.595250
44.834375 47.775875
44.381875 48.960125
43.995750 50.157750
43.739250 51.426375
43.472875 52.696125
43.145000 53.940875
42.614625 55.116750
41.993125 56.244750
41.321375 57.301375
40.180875 57.754375
38.946000 58.168750
37.686750 58.435125
36.355625 58.553500
35.036750 58.405500
33.749500 58.168750
32.552750 57.726000
31.609500 56.960500
30.688750 56.098875
30.213250 54.926375
29.747750 53.766875
29.206875 52.643875
28.621125 51.657250
28.130875 50.551750
27.815750 49.347250
27.549375 48.093375
27.283000 46.856750
26.912500 45.663250
26.868625 44.376250
27.759500 44.581125
28.616500 43.020625
30.062125 42.023000
31.782000 41.492125
33.555250 41.216875
35.427875 41.125125
37.286000 40.972250
39.191125 40.972250
41.043875 41.125125
42.736625 41.701750
43.962875 42.923500
44.917250 44.361625
44.470750 46.067500
43.893000 47.685000
43.357375 49.368375
42.685250 51.033125
41.733750 52.535750
40.607875 53.967500
39.440125 55.255000
37.741250 55.805625
35.895750 55.989125
34.079000 55.805625
32.588625 55.007250
31.550125 53.693500
30.495250 52.332750
29.757375 50.769125
28.952250 49.322875
28.126500 47.903000
27.667750 46.259625
27.728875 44.458875
}
