version: 1
n_points: 120
{
22.738375 24.495750
23.367125 23.986875
24.034250 23.545500
24.728750 23.176500
25.511125 23.055375
26.317125 22.997750
27.114625 23.052625
27.858125 23.325000
28.547750 23.722375
29.260750 24.006000
29.311500 24.519750
28.619375 24.851750
27.872375 25.071875
27.100750 25.244750
26.318750 25.388750
25.516500 25.432000
24.715000 25.374375
23.986750 25.187125
23.270250 24.912375
22.767125 24.495750
41.701250 23.768875
42.332250 23.319375
42.991250 22.926375
43.719375 22.640000
44.473625 22.456875
45.237125 22.344000
46.011875 22.372125
46.757750 22.555625
47.462500 22.819125
48.120500 23.194125
48.157625 23.802375
47.437625 24.082125
46.710250 24.333000
45.952375 24.474250
45.176500 24.530750
44.392750 24.544875
43.614000 24.520625
42.850875 24.424625
42.176750 24.173750
41.673125 23.797125
24.980250 41.581250
25.783750 40.854000
26.751625 40.352875
27.774500 40.016500
28.823375 39.741250
29.846875 39.355125
30.852375 38.996500
31.882625 38.680750
32.951250 38.542625
34.040625 38.601875
35.129250 38.664375
36.216125 38.740000
37.312125 38.733500
38.399000 38.641250
39.499125 38.661000
40.592875 38.720250
41.689750 38.759625
42.752000 38.934000
43.753625 39.326250
44.726125 39.746250
45.684250 40.212625
46.614375 40.752625
46.704875 41.721875
46.317625 42.678875
46.014750 43.691875
45.471625 44.580625
44.653625 45.289375
43.920625 46.081250
43.130625 46.816000
42.239375 47.428000
41.386125 48.084000
40.471875 48.643125
39.443750 48.934625
38.353500 49.015250
37.251000 49.020125
36.150000 49.039875
35.053125 49.000375
33.949750 49.000375
32.876500 48.882000
31.785875 48.803125
30.738125 48.542750
29.910500 47.850625
29.128250 47.110500
28.327125 46.382250
27.499750 45.692875
26.658125 45.016000
25.860000 44.276375
25.184625 43.462875
24.980250 42.462750
25.059250 41.403750
25.910875 41.670500
27.203625 40.986875
28.761375 41.005375
30.349125 40.949875
31.945000 40.931375
33.538875 40.913000
35.131000 40.949875
36.720875 41.005375
38.316875 41.023750
39.906000 40.968375
41.449875 40.746625
43.011250 40.585000
44.600250 40.571000
45.884500 41.131750
45.620625 42.525750
44.480750 43.572500
43.273750 44.574125
41.996250 45.445125
40.519875 46.015750
39.002750 46.366375
37.434875 46.511500
35.840375 46.526250
34.253250 46.474500
32.684875 46.308250
31.150000 46.068000
29.733375 45.549500
28.413375 44.819625
27.148875 43.964500
26.015625 43.031625
25.874000 41.596625
}
