version: 1
n_points: 120
{
22.715125 24.786750
23.308750 24.268000
24.009875 23.895250
24.735625 23.576750
25.495875 23.441500
26.284625 23.395750
27.051250 23.514125
27.770500 23.799875
28.458500 24.173375
29.133625 24.446375
29.123000 24.965625
28.462000 25.331875
27.693375 25.452750
26.929250 25.615500
26.155625 25.715500
25.360125 25.733875
24.567250 25.704375
23.805875 25.585875
23.157875 25.229500
22.759500 24.816375
41.002375 24.498500
41.710250 24.010250
42.421250 23.542125
43.144750 23.093500
43.894000 22.723375
44.730125 22.553375
45.582250 22.490625
46.399000 22.679125
47.187250 23.010500
47.945000 23.373625
48.085375 23.925500
47.359000 24.332125
46.538125 24.498500
45.691625 24.585375
44.840125 24.655375
43.991000 24.736375
43.148625 24.828000
42.294125 24.890750
41.445125 24.843625
41.049500 24.420125
25.443250 41.880000
26.680750 41.190000
28.245500 41.226375
29.842250 41.226375
31.427625 41.171875
33.011250 41.208250
34.598750 41.265000
36.183000 41.335250
37.751875 41.244500
39.293500 41.063000
40.868625 40.954000
42.392500 40.699875
43.949625 40.572750
45.445875 40.821125
45.597000 41.999125
44.649125 43.154750
43.318500 43.977000
41.945125 44.759000
40.483250 45.315500
38.961625 45.692875
37.404500 45.887875
35.822375 45.983375
34.225625 45.983375
32.665875 45.812750
31.176375 45.400250
29.721375 44.996250
28.251750 44.615875
26.900500 44.040625
25.881250 43.008000
25.497750 41.807375
24.487500 41.609375
25.406375 41.015250
26.388625 40.535500
27.386250 40.081250
28.384625 39.645625
29.416625 39.319625
30.460750 39.015250
31.527000 38.813250
32.616125 38.792750
33.673625 38.983250
34.758375 39.080625
35.845750 39.024500
36.878625 38.693125
37.915125 38.402125
39.001125 38.340375
40.088375 38.422625
41.159750 38.607750
42.231000 38.813250
43.288250 39.093125
44.325125 39.418625
45.335250 39.790000
46.283000 40.295875
46.856375 41.078250
46.668375 42.108875
46.119750 43.024500
45.434250 43.833250
44.699125 44.608125
43.895500 45.310625
43.078875 46.003750
42.229000 46.668500
41.330250 47.271375
40.355125 47.707500
39.331375 48.092625
38.284875 48.332375
37.202250 48.414625
36.101625 48.414625
35.005875 48.394125
33.919875 48.332375
32.852000 48.187375
31.795875 47.967125
30.737625 47.736125
29.731625 47.366875
28.806000 46.791500
27.854625 46.253500
26.942875 45.668500
26.044125 45.057500
25.240625 44.356875
24.689875 43.477125
24.343625 42.520000
24.487500 41.527125
}
