version: 1
n_points: 120
{
22.724500 25.680375
23.318875 25.125875
23.980875 24.660500
24.731500 24.329125
25.519750 24.171500
26.348500 24.164125
27.161625 24.205875
27.935000 24.439250
28.635750 24.831375
29.297625 25.256375
29.182250 25.722125
28.465500 26.092875
27.692625 26.354125
26.888500 26.487250
26.069375 26.556750
25.247875 26.598500
24.443375 26.668000
23.678750 26.487250
22.983750 26.148250
22.780125 25.569125
41.471875 25.261125
42.049500 24.666875
42.758625 24.230250
43.503500 23.850000
44.288875 23.589875
45.105875 23.513750
45.947625 23.499750
46.747500 23.670000
47.511375 23.954125
48.241375 24.312750
48.357125 24.915625
47.649250 25.337875
46.852625 25.559500
46.038000 25.701625
45.204375 25.772625
44.366000 25.801000
43.526750 25.786875
42.697625 25.730000
41.895625 25.600875
41.528750 25.190125
27.828000 44.896750
28.135375 44.118625
28.470125 43.365125
28.901500 42.643250
29.407625 41.973750
29.813750 41.233750
30.293375 40.565000
30.994500 40.118500
31.802375 39.935250
32.644375 39.886500
33.465750 40.029125
34.256375 40.296000
35.073250 40.394750
35.868875 40.186500
36.649000 39.904625
37.481750 39.832000
38.287625 40.052125
39.043875 40.420625
39.779250 40.834750
40.476125 41.317500
41.196000 41.767125
41.841500 42.312500
42.477000 42.862500
42.975750 43.533125
43.353750 44.271125
43.509000 45.066625
43.195875 45.820000
42.648500 46.450375
42.083125 47.072750
41.528000 47.697875
40.900250 48.263125
40.235250 48.754750
39.548375 49.221500
38.779125 49.542375
37.960500 49.738375
37.117875 49.798125
36.268000 49.798125
35.422125 49.761750
34.579875 49.707375
33.746625 49.617000
32.946125 49.362125
32.132750 49.127250
31.361625 48.783500
30.636125 48.354250
29.918375 47.920625
29.317125 47.348000
28.725000 46.755875
28.175000 46.133375
27.691500 45.504625
27.828000 44.824125
29.248375 45.066125
29.907750 44.459625
30.688000 44.006250
31.467750 43.549250
32.298250 43.190000
33.172625 42.981000
34.064875 42.854250
34.972625 42.858625
35.883250 42.876250
36.789500 42.929250
37.691250 43.013500
38.579125 43.176500
39.411125 43.489750
40.222375 43.877750
40.948500 44.404375
41.323375 44.986500
40.635125 45.553625
39.800625 45.891500
38.904500 45.984500
37.991750 45.984500
37.080625 46.002125
36.167875 46.002125
35.257250 45.984500
34.352375 45.931500
33.446750 45.878500
32.541250 45.825500
31.645875 45.729875
30.762625 45.595875
29.907250 45.419375
29.248375 45.119125
}
