version: 1
n_points: 120
{
23.741375 25.993250
24.291750 25.598125
24.838625 25.205875
25.442875 24.912500
26.103125 24.799500
26.788250 24.799500
27.460375 24.883000
28.121875 25.018125
28.763750 25.221500
29.320500 25.579625
29.049000 26.037375
28.403625 26.253750
27.743000 26.411000
27.079375 26.530375
26.401750 26.566250
25.723125 26.602000
25.038000 26.602000
24.361250 26.614000
23.729500 26.450375
23.801125 25.945500
41.806875 25.437375
42.454875 24.967750
43.186125 24.655625
43.950875 24.417625
44.733250 24.270125
45.532250 24.190750
46.333125 24.243250
47.092000 24.493250
47.827625 24.819000
48.554250 25.142250
48.368000 25.441875
47.581625 25.605625
46.795000 25.732625
45.996250 25.807500
45.193500 25.853375
44.389375 25.883750
43.581375 25.893625
42.779625 25.853375
41.988000 25.779625
41.914125 25.397125
29.154625 42.732750
29.421125 42.063750
29.710125 41.416125
30.184625 40.886500
30.672375 40.358875
31.161250 39.832125
31.692750 39.364625
32.221750 38.907750
32.859750 38.612375
33.562250 38.534625
34.265875 38.631625
34.972625 38.709500
35.665875 38.826375
36.369125 38.843625
37.064750 38.722625
37.766250 38.612375
38.478500 38.648500
39.167875 38.814500
39.835250 39.082250
40.417000 39.485625
40.875500 40.032250
41.303375 40.596125
41.755000 41.131375
42.118375 41.738750
42.234875 42.425125
42.107375 43.115500
41.721125 43.717250
41.246375 44.253375
40.735625 44.745625
40.264625 45.266750
39.732125 45.748750
39.150250 46.169125
38.538750 46.531375
37.876250 46.807000
37.206625 47.054375
36.521125 47.222375
35.817500 47.319500
35.099875 47.339000
34.379000 47.339000
33.673000 47.251375
32.984750 47.086375
32.310125 46.866250
31.680875 46.541875
31.091125 46.159500
30.585875 45.673000
30.198875 45.079125
29.741375 44.542000
29.352375 43.963875
29.154625 43.309500
29.154625 42.616125
33.789875 42.661125
34.036500 42.414500
34.303250 42.195750
34.593000 42.011875
34.910375 41.869125
35.239875 41.756875
35.575125 41.677125
35.916125 41.626125
36.264375 41.622250
36.609375 41.638250
36.937625 41.718125
37.256750 41.853250
37.533750 42.057625
37.772625 42.296500
37.913500 42.598375
37.773000 42.897500
37.462875 43.022250
37.126250 43.078625
36.790000 43.142125
36.458125 43.231500
36.121750 43.300375
35.780750 43.348375
35.438375 43.380375
35.089625 43.380375
34.740875 43.380375
34.394125 43.364375
34.058125 43.300375
33.789875 43.157875
33.710875 42.852000
33.901875 42.629125
}
