version: 1
n_points: 120
{
22.761750 26.249875
23.421250 25.916000
24.087375 25.606750
24.777000 25.355750
25.490750 25.201500
26.217250 25.138000
26.951375 25.138000
27.678875 25.217375
28.370875 25.432875
28.942875 25.855000
28.940500 26.345375
28.226750 26.456375
27.491375 26.488125
26.753000 26.504000
26.012500 26.504000
25.276625 26.472250
24.538750 26.456375
23.798375 26.456375
23.067750 26.426750
22.888750 26.234000
42.721500 25.661125
43.374625 25.238500
44.090125 24.925750
44.826375 24.693500
45.601875 24.620000
46.387000 24.605375
47.157375 24.714500
47.919125 24.903625
48.674750 25.116750
49.405375 25.382000
49.209000 25.661125
48.442250 25.770250
47.665375 25.864000
46.885500 25.928000
46.103625 25.974375
45.319000 26.000875
44.531500 26.000875
43.745875 25.988750
42.973875 25.928000
42.782125 25.600375
28.123125 41.325000
28.390250 40.572750
28.770375 39.882125
29.149375 39.175875
29.612500 38.527375
30.089125 37.892500
30.757500 37.519000
31.540750 37.387250
32.337375 37.403625
33.111625 37.535500
33.909500 37.584875
34.708625 37.634375
35.504000 37.683750
36.307250 37.700250
37.105250 37.644375
37.878250 37.452625
38.647250 37.255375
39.428500 37.130375
40.222250 37.074125
41.016500 37.090625
41.783500 37.281000
42.482250 37.671500
43.112250 38.157500
43.591875 38.766750
43.956500 39.460125
44.055375 40.236875
43.890875 40.995000
43.262375 41.440250
42.478625 41.539125
41.691000 41.621500
40.947750 41.829375
40.316000 42.302250
39.648625 42.733125
39.011750 43.204250
38.302500 43.567000
37.545375 43.830000
36.753750 43.895250
35.955250 43.845750
35.151375 43.829250
34.353500 43.779875
33.561125 43.681000
32.772625 43.550000
32.025500 43.273750
31.303000 42.939750
30.671000 42.488875
30.005500 42.126125
29.222875 42.126125
28.537250 42.379375
28.040750 41.929125
28.156000 41.209625
29.294500 42.258750
30.111750 41.752500
30.973125 41.341125
31.871125 41.035500
32.802250 40.875000
33.759875 40.810000
34.723750 40.826250
35.689625 40.826250
36.653875 40.838750
37.616500 40.860000
38.577250 40.891375
39.543125 40.891375
40.499875 40.940125
41.439500 41.086625
42.333750 41.387875
42.144000 41.428500
41.219125 41.261875
40.277125 41.135500
39.311250 41.135500
38.351875 41.103000
37.397500 41.054125
36.443500 40.989000
35.493000 40.923875
34.534750 40.891375
33.580875 40.962125
32.638375 41.086625
31.710000 41.238250
30.854625 41.558750
30.006375 41.951625
29.310875 42.291250
}
