version: 1
n_points: 120
{
22.966500 26.811000
23.619000 26.419250
24.300750 26.087375
25.023000 25.854875
25.773000 25.717375
26.526875 25.608500
27.286625 25.584750
28.023375 25.736875
28.701250 26.071500
29.267875 26.563000
29.306500 26.944125
28.546875 26.989000
27.788125 27.048625
27.027375 27.086625
26.269625 27.154125
25.512500 27.229250
24.749000 27.238750
23.986500 27.218125
23.242000 27.105625
23.042625 26.792000
42.958375 26.087375
43.624375 25.582250
44.383875 25.247625
45.182250 25.053125
46.012375 24.985250
46.850625 24.977500
47.682000 25.050875
48.506500 25.176875
49.288500 25.453875
49.998625 25.887625
49.940500 26.113625
49.113375 26.205500
48.287375 26.319875
47.462750 26.440750
46.636500 26.565375
45.801125 26.612250
44.962625 26.625375
44.132500 26.572875
43.352875 26.370000
43.089625 25.995625
25.979500 43.037875
26.804250 42.517500
27.699625 42.174000
28.610125 41.859875
29.516750 41.525000
30.424750 41.170000
31.326000 40.816125
32.225250 40.505125
33.178250 40.407000
34.152250 40.446250
35.127625 40.485500
36.107625 40.505125
37.082125 40.446250
38.020500 40.247000
38.921875 39.896500
39.835500 39.661000
40.801375 39.758750
41.736750 40.031250
42.640125 40.391250
43.518125 40.810375
44.395750 41.231875
45.207125 41.764000
45.978250 42.343375
46.339000 43.149625
46.071750 44.037500
45.431000 44.750750
44.678250 45.366125
43.900125 45.947875
43.125250 46.526500
42.330875 47.085250
41.587625 47.691000
40.715250 48.107500
39.792375 48.333375
38.819625 48.378000
37.836500 48.378000
36.853250 48.378000
35.870000 48.378000
34.899250 48.319125
33.938125 48.240625
32.975250 48.135750
32.046625 47.887250
31.140375 47.559125
30.249250 47.185000
29.338875 46.866250
28.503000 46.469000
27.714125 45.957500
27.016375 45.307875
26.482125 44.541750
25.984375 43.769125
26.097250 42.920000
27.735500 43.279875
28.892750 42.798875
30.200625 42.952875
31.516000 43.106750
32.854500 43.203000
34.167125 43.395375
35.481250 43.587750
36.821500 43.560250
38.133000 43.302625
39.422125 42.991375
40.688750 42.645000
41.976750 42.361250
43.308500 42.260250
44.635875 42.298750
45.492625 43.121250
44.666875 44.010125
43.453250 44.588125
42.238750 45.127625
40.968000 45.569250
39.650750 45.703875
38.304000 45.665500
36.959625 45.607750
35.618000 45.550000
34.278750 45.473125
32.932500 45.434625
31.581500 45.434625
30.252125 45.357625
28.993125 44.976375
27.876000 44.363000
27.831750 43.241375
}
