version: 1
n_points: 120
{
23.175875 26.997625
23.897125 26.605125
24.618375 26.258500
25.370250 25.948500
26.153500 25.740625
26.971125 25.703125
27.752250 25.846875
28.510125 26.118625
29.212875 26.486250
29.871125 26.853875
29.641375 27.324875
28.932750 27.684875
28.132875 27.812750
27.335625 27.975625
26.526375 28.084500
25.716875 28.175125
24.898625 28.227250
24.140375 27.988625
23.478625 27.588000
23.255875 26.949750
41.970000 26.974000
42.671625 26.457375
43.396125 25.987375
44.129250 25.524125
44.916625 25.150250
45.762875 25.043750
46.623375 25.136375
47.458000 25.355250
48.253125 25.681875
48.914250 26.237375
49.352125 26.683125
48.531875 26.932000
47.711125 27.231500
46.896625 27.542375
46.035375 27.648250
45.159000 27.661375
44.289750 27.595250
43.438750 27.449875
42.625000 27.211875
41.996375 26.934250
27.603875 47.430375
28.124000 46.568375
28.690625 45.773750
29.306500 44.982250
29.882875 44.171875
30.537250 43.425875
31.352000 42.878375
32.324250 42.804000
33.301000 42.940750
34.297875 43.009000
35.272750 43.128750
36.280750 43.125125
37.260625 42.966625
38.071125 42.401875
39.034750 42.234250
39.923625 42.639500
40.745250 43.205625
41.444750 43.905125
42.080375 44.677500
42.622625 45.512875
43.115000 46.373000
43.670875 47.184250
43.876000 48.135000
43.830500 49.135500
43.724750 50.126000
43.495875 51.085000
43.075750 51.968250
42.430875 52.727000
41.707875 53.427250
40.957000 54.087000
40.203000 54.747875
39.316500 55.202500
38.364750 55.507500
37.387125 55.703125
36.379125 55.748750
35.369125 55.771500
34.361125 55.817125
33.349500 55.839875
32.341500 55.794375
31.367375 55.590750
30.435125 55.215875
29.587000 54.689250
29.108000 53.883375
28.948125 52.922000
28.545375 52.041000
28.119500 51.150750
27.919375 50.180875
27.809000 49.189875
27.740625 48.202875
27.740625 47.316375
28.962750 47.351875
29.934875 46.582250
30.994875 46.024625
32.170625 45.646750
33.346750 45.417375
34.575875 45.282375
35.825375 45.237375
37.074750 45.282375
38.258375 45.588750
39.405250 45.959750
40.538875 46.402875
41.593000 47.064875
42.607750 47.725250
43.539000 48.464875
42.773875 49.354125
41.951000 50.267000
40.967000 51.022250
39.904375 51.654750
38.760125 52.109000
37.568000 52.435500
36.331625 52.525500
35.076875 52.548000
33.818500 52.548000
32.599250 52.375500
31.457125 51.984375
30.392625 51.452125
29.527750 50.661125
29.121625 49.580125
28.940375 48.396875
29.007750 47.306875
}
