version: 1
n_points: 120
{
23.079250 27.134500
23.652625 26.611625
24.325375 26.219375
25.057375 25.966000
25.826125 25.854125
26.607000 25.816875
27.373500 25.914000
28.131500 26.083750
28.784625 26.496125
29.452250 26.881750
29.330375 27.397250
28.581375 27.557125
27.819125 27.706375
27.068875 27.909625
26.311875 28.112250
25.536750 28.191125
24.767500 28.099250
24.012250 27.924250
23.343750 27.540250
23.141375 27.084750
41.532125 27.063875
42.226000 26.511875
42.990625 26.060250
43.781750 25.661000
44.616500 25.355875
45.496375 25.239125
46.389250 25.239125
47.256000 25.429625
48.102125 25.713125
48.876875 26.143500
48.770000 26.678625
47.945750 27.014625
47.088875 27.255625
46.215000 27.399375
45.327875 27.479875
44.437375 27.528375
43.545125 27.560375
42.652750 27.533500
41.782875 27.424125
41.532125 26.956625
27.928875 47.212500
28.361250 46.540625
28.811375 45.880375
29.236000 45.200125
29.711125 44.560250
30.229875 43.958500
30.780875 43.393625
31.434125 42.961500
32.188750 42.716625
32.998125 42.675250
33.770625 42.841000
34.568375 42.944500
35.379500 42.965250
36.154000 42.820250
36.866250 42.458500
37.634250 42.260875
38.447000 42.281625
39.229875 42.441625
39.938500 42.827000
40.575875 43.314250
41.144500 43.874250
41.740125 44.420500
42.289125 45.000375
42.804250 45.616250
43.179750 46.284625
43.405500 47.032625
43.166250 47.773750
42.587500 48.320625
41.935750 48.785875
41.324000 49.314750
40.720875 49.855625
40.052750 50.305250
39.352500 50.706125
38.653375 51.110125
37.939000 51.468625
37.183250 51.708375
36.381375 51.791250
35.565375 51.791250
34.758500 51.746125
33.963000 51.627250
33.163000 51.538875
32.402125 51.313875
31.678875 50.955625
30.974625 50.569000
30.295000 50.138000
29.677000 49.644375
29.166625 49.025000
28.742125 48.377875
28.245875 47.757375
27.991125 47.109000
30.392500 46.968000
31.047625 46.488625
31.751500 46.096750
32.503875 45.808500
33.243125 45.593500
34.027000 45.442250
34.827125 45.335250
35.640625 45.321750
36.443625 45.399625
37.250000 45.449625
38.054000 45.529625
38.843375 45.663500
39.612750 45.886000
40.318000 46.248875
40.911125 46.714375
40.527125 47.262875
39.814125 47.636625
39.052250 47.880500
38.262250 48.006875
37.464500 48.102750
36.652625 48.118750
35.837000 48.118750
35.021250 48.118750
34.205625 48.118750
33.392625 48.097625
32.587375 48.012250
31.784500 47.943000
31.003375 47.832875
30.344500 47.544375
30.472375 46.968000
}
