version: 1
n_points: 120
{
23.548250 27.787625
24.121000 27.436250
24.753500 27.199625
25.410625 27.041125
26.076625 26.948250
26.748875 26.903500
27.424250 26.913750
28.072750 27.077125
28.698375 27.329125
29.278750 27.665000
29.210250 28.030875
28.534875 28.051875
27.860375 28.082375
27.184125 28.102625
26.507875 28.123000
25.828375 28.123000
25.148875 28.123000
24.472750 28.102625
23.805500 28.051875
23.568500 27.777500
42.472875 27.286750
43.177750 26.846375
43.967375 26.582250
44.777000 26.383125
45.601750 26.294000
46.417875 26.429625
47.240000 26.548500
48.056375 26.716250
48.863750 26.917625
49.631375 27.223125
49.453750 27.458500
48.630750 27.566750
47.800875 27.630375
46.963250 27.630375
46.125500 27.630375
45.287875 27.630375
44.450250 27.630375
43.612500 27.630375
42.779500 27.655750
42.498250 27.286750
28.430625 44.904500
28.617750 44.140750
28.895625 43.416750
29.150625 42.670500
29.435000 41.949750
29.797875 41.266625
30.291500 40.663375
30.889250 40.230500
31.667125 40.119125
32.453625 40.119125
33.171875 40.341750
33.949875 40.434500
34.744125 40.453000
35.541375 40.453000
36.338625 40.453000
37.129750 40.415875
37.913250 40.322000
38.678125 40.133125
39.441625 39.952250
40.213875 39.841000
40.972625 39.981875
41.601625 40.455000
42.132000 41.017000
42.304375 41.777000
42.434250 42.550375
42.545500 43.322750
42.635500 44.101500
42.561250 44.854500
42.056750 45.423875
41.280375 45.498000
40.550875 45.693500
39.887000 46.079125
39.321625 46.626125
38.763875 47.183750
38.230750 47.754000
37.676750 48.298875
37.016000 48.717250
36.275500 48.929375
35.487000 48.929375
34.692750 48.910875
33.909000 48.836625
33.150625 48.637000
32.444625 48.348875
31.765875 47.961500
31.163000 47.457125
30.684000 46.842625
30.160625 46.249875
29.568250 45.742250
28.920750 45.357625
28.412125 44.941625
29.403625 45.369125
30.183750 45.008000
30.990000 44.756125
31.814625 44.592750
32.646000 44.438750
33.481750 44.249750
34.321875 44.141375
35.174125 44.195625
36.031875 44.231625
36.896875 44.231875
37.755250 44.285875
38.608375 44.363000
39.426625 44.593625
40.245875 44.809375
41.026500 45.044125
40.891250 45.080250
40.061750 44.929750
39.237250 44.735125
38.427875 44.466375
37.619500 44.223250
36.806500 44.051625
35.960625 43.978875
35.102750 43.972875
34.262375 44.077125
33.443125 44.216000
32.659750 44.466375
31.855500 44.683000
31.044625 44.883500
30.244750 45.120000
29.475875 45.296875
}
