version: 1
n_points: 120
{
23.294000 27.932750
23.894500 27.438750
24.570125 27.058875
25.309125 26.825250
26.065625 26.667375
26.847000 26.627500
27.616750 26.729125
28.373750 26.909750
29.078875 27.235750
29.660375 27.732750
29.639875 28.212375
28.879500 28.345625
28.100000 28.390750
27.322625 28.452125
26.541125 28.492125
25.754250 28.492125
24.969625 28.505375
24.192125 28.440750
23.444125 28.309250
23.400500 27.826125
42.139875 27.774625
42.757375 27.301500
43.411375 26.888250
44.100875 26.535375
44.844000 26.298250
45.616250 26.209875
46.395250 26.246000
47.164125 26.361625
47.918750 26.571375
48.616375 26.873000
48.641375 27.406625
47.892375 27.606375
47.128750 27.785250
46.360625 27.919125
45.586500 27.991250
44.802000 27.991250
44.020500 28.022000
43.247125 28.087625
42.471375 28.135750
42.200000 27.726500
28.613000 45.575250
28.843250 44.842375
29.103625 44.122500
29.344750 43.403875
29.647375 42.707625
30.083875 42.089375
30.606875 41.537750
31.197125 41.091375
31.930750 40.928000
32.669500 40.819125
33.434000 40.764625
34.211375 40.764625
34.988750 40.764625
35.763875 40.746500
36.541375 40.746500
37.310625 40.801000
38.085000 40.819125
38.853750 40.855500
39.618375 40.909875
40.373750 41.000625
41.107125 41.184625
41.666875 41.692250
42.184750 42.239500
42.536500 42.901500
42.790625 43.596250
43.025375 44.302000
43.057000 45.060625
42.572250 45.629750
41.848250 45.793125
41.107250 45.945000
40.454750 46.313750
39.909250 46.836000
39.421875 47.414000
38.975250 48.029250
38.484125 48.611000
37.884000 48.993250
37.161500 49.205875
36.401250 49.278500
35.623875 49.278500
34.863750 49.199875
34.132750 48.997750
33.413375 48.752125
32.723000 48.432750
32.071500 48.035250
31.459250 47.579375
30.839750 47.148500
30.287500 46.650625
29.719125 46.146500
29.137625 45.664250
28.758250 45.375625
29.731125 45.985625
30.517125 45.655375
31.331500 45.428875
32.148250 45.245625
32.972750 45.067375
33.806000 44.920500
34.650000 44.842750
35.499500 44.799375
36.350375 44.764625
37.198875 44.818000
38.041375 44.920875
38.873625 45.084000
39.698375 45.290250
40.526250 45.466125
41.324125 45.662375
41.035125 45.608500
40.226125 45.406375
39.396250 45.269000
38.563625 45.117125
37.730125 44.962125
36.896125 44.836375
36.065875 44.710750
35.217625 44.700750
34.386125 44.811000
33.568250 44.967500
32.756250 45.141625
31.947875 45.321250
31.137000 45.498000
30.372000 45.788000
29.767000 46.075375
}
