version: 1
n_points: 120
{
23.605250 28.489875
24.195625 28.028125
24.856750 27.677500
25.541500 27.369375
26.264000 27.211250
27.012375 27.184625
27.764625 27.208000
28.497000 27.332375
29.213500 27.524625
29.897375 27.783875
29.552875 28.199750
28.875500 28.476500
28.148375 28.636375
27.409125 28.740250
26.670625 28.835500
25.932500 28.916000
25.186000 28.956000
24.432125 28.969375
23.716875 28.902750
23.698500 28.436500
42.250750 27.817125
42.894250 27.387750
43.622625 27.125250
44.372875 26.947125
45.148000 26.909875
45.918625 26.969500
46.683750 27.053125
47.457750 27.100875
48.214625 27.241625
48.927000 27.506750
48.572625 27.912625
47.821500 28.059875
47.052000 28.142625
46.283750 28.223000
45.512625 28.294625
44.734375 28.318500
43.955000 28.330375
43.176500 28.342375
42.416375 28.258000
42.394000 27.709625
27.076250 45.604375
27.957625 45.569750
28.720750 45.177750
29.502875 44.784000
30.298750 44.408750
31.077500 44.011625
31.893000 43.673250
32.736750 43.521750
33.603375 43.608500
34.462000 43.768000
35.321625 43.920875
36.200500 43.955625
36.940125 43.619875
37.724875 43.338500
38.591000 43.365500
39.442875 43.552625
40.271500 43.824250
41.068750 44.194125
41.830000 44.616000
42.609875 45.023250
43.353875 45.473375
44.147000 45.826500
44.977000 45.986250
44.947125 46.390750
44.343750 47.028750
43.784750 47.689500
43.158250 48.272750
42.515250 48.844875
41.797125 49.332375
41.075250 49.828625
40.314250 50.262875
39.506875 50.617375
38.717000 51.004375
37.908250 51.348375
37.064000 51.557375
36.194875 51.644125
35.316000 51.609500
34.460500 51.470625
33.611875 51.297000
32.767625 51.123500
31.950250 50.861750
31.142500 50.509875
30.384250 50.087375
29.703875 49.556250
29.075875 48.956625
28.481000 48.327250
28.048125 47.587000
27.662625 46.833000
27.155125 46.159750
27.145625 45.500250
31.028500 46.702000
31.711125 46.476875
32.425750 46.444750
33.150750 46.444750
33.871875 46.460750
34.596875 46.460750
35.302125 46.396500
36.012875 46.348250
36.734125 46.332125
37.455250 46.348250
38.175125 46.380375
38.891750 46.428625
39.614125 46.444750
40.318125 46.509000
40.548375 46.959625
39.963000 47.332625
39.314125 47.570375
38.622875 47.699000
37.918500 47.811625
37.204000 47.876000
36.488750 47.940250
35.769000 47.972500
35.047875 47.988500
34.334250 47.940250
33.628375 47.849125
32.939500 47.715125
32.262500 47.560250
31.595000 47.377375
30.974875 47.163000
31.060625 46.669875
}
