version: 1
n_points: 120
{
22.864250 27.333125
23.470125 26.813875
24.160375 26.414750
24.884375 26.086500
25.657500 25.913875
26.465125 25.927375
27.259750 26.027500
28.025125 26.284375
28.675250 26.737875
29.369875 27.080750
29.252500 27.680875
28.569750 28.008875
27.778500 28.090000
26.994000 28.225250
26.199750 28.320875
25.390875 28.333375
24.594250 28.252125
23.823125 28.062750
23.088625 27.779125
22.918250 27.225000
41.630750 27.289625
42.293750 26.792000
42.988250 26.342875
43.716250 25.947750
44.493625 25.659250
45.296250 25.467375
46.125125 25.467375
46.932500 25.630250
47.699875 25.942250
48.410250 26.362625
48.416250 26.761000
47.660625 27.091625
46.896625 27.407625
46.090875 27.597375
45.269875 27.679125
44.442375 27.642625
43.613750 27.607500
42.785250 27.574750
41.965500 27.512750
41.700250 27.220125
24.968875 43.906375
25.995750 43.645750
27.019000 43.397500
28.041625 43.246750
29.037625 42.983000
30.027000 42.678875
31.044625 42.455375
32.096125 42.398875
33.145250 42.479875
34.186750 42.607125
35.227500 42.721625
36.285375 42.756875
37.283750 42.511875
38.215125 42.059625
39.238000 41.890000
40.283875 41.992375
41.292375 42.299875
42.303375 42.611750
43.333000 42.860750
44.357500 43.133125
45.354750 43.452500
46.269125 43.812125
46.073750 44.717000
45.595125 45.655500
45.166250 46.610750
44.560000 47.462000
43.907125 48.277750
43.230625 49.078000
42.457500 49.775375
41.606500 50.379875
40.710500 50.912750
39.749625 51.359875
38.729625 51.594625
37.690625 51.745375
36.625625 51.745375
35.568250 51.707625
34.503250 51.707625
33.466000 51.562750
32.450125 51.312000
31.437000 51.012750
30.502750 50.536250
29.663625 49.901250
28.786625 49.329500
27.991625 48.647500
27.319250 47.872000
26.692750 47.062250
26.012875 46.288125
25.352875 45.477375
24.818125 44.624875
24.968875 43.755625
27.028875 44.812000
27.827000 44.226125
29.223750 44.546875
30.666250 44.736250
32.108000 44.925750
33.572875 44.963625
35.038125 45.001500
36.494625 44.925750
37.919125 44.665625
39.360500 44.452125
40.806875 44.281625
42.251625 44.111125
43.698625 43.940750
45.145375 43.823250
45.200000 44.687750
44.275875 45.784500
43.120750 46.677625
41.899625 47.450750
40.574625 48.065000
39.197125 48.560250
37.765625 48.885375
36.315875 49.074125
34.858000 48.998375
33.412375 48.827875
31.984750 48.494625
30.598500 48.017500
29.284500 47.388625
28.045500 46.632625
26.993500 45.740250
26.972125 44.376375
}
