version: 1
n_points: 120
{
22.678500 27.080750
23.266375 26.585000
23.970125 26.255125
24.699750 25.981625
25.441750 25.770750
26.220750 25.778500
26.998875 25.817500
27.750875 25.977125
28.434000 26.337875
29.091375 26.758000
29.283750 27.273500
28.567500 27.562625
27.837250 27.802625
27.077500 27.915125
26.306625 27.992375
25.527375 28.018375
24.747250 28.004500
23.999750 27.836125
23.309500 27.500500
22.704500 27.119875
41.542000 26.982750
42.241375 26.515375
42.856750 25.958125
43.550250 25.496625
44.319875 25.170000
45.146125 25.068375
45.986750 25.123875
46.799625 25.327125
47.582000 25.626250
48.263750 26.105000
48.338250 26.689500
47.621375 27.097500
46.805125 27.243875
45.965500 27.301875
45.120000 27.330875
44.272250 27.339250
43.427750 27.374375
42.580500 27.388875
41.740125 27.342875
41.716000 26.866750
24.918125 43.914250
25.769375 43.345750
26.642625 42.967750
27.515125 42.602875
28.464750 42.342750
29.474875 42.217750
30.509000 42.199875
31.537750 42.253500
32.560625 42.372375
33.590875 42.449875
34.615000 42.557000
35.647875 42.610625
36.686375 42.592750
37.674125 42.342750
38.670500 42.146375
39.685500 41.994875
40.706000 41.985625
41.683125 42.217750
42.664000 42.474625
43.657125 42.702125
44.654500 42.916250
45.614125 43.182000
46.346750 43.661375
46.118875 44.651375
45.755500 45.616750
45.206000 46.481375
44.486500 47.221000
43.747250 47.942250
43.095750 48.727250
42.263000 49.313250
41.328250 49.748000
40.402750 50.198750
39.432250 50.539250
38.413750 50.682125
37.377375 50.682125
36.335875 50.682125
35.297375 50.664250
34.262500 50.610625
33.232750 50.515250
32.228250 50.267625
31.282625 49.855375
30.381500 49.359625
29.543750 48.771875
28.698750 48.210125
27.873125 47.601375
27.046750 46.998750
26.213250 46.405750
25.422750 45.758125
25.066250 44.853375
25.025250 43.878500
26.336375 44.492375
27.242625 43.776125
28.696500 43.964625
30.135750 44.247375
31.560250 44.578375
33.039375 44.680875
34.524750 44.605500
36.004375 44.511250
37.477750 44.379375
38.954875 44.247375
40.420875 44.077750
41.885375 43.908000
43.327500 43.717375
44.805750 43.606375
45.242125 44.495750
44.302750 45.585000
43.116375 46.442125
41.775375 47.074875
40.386000 47.581000
38.974125 47.985375
37.516750 48.236875
36.044000 48.394500
34.566000 48.281375
33.109375 48.048625
31.689750 47.697000
30.290125 47.298625
28.878375 46.847750
27.513125 46.272375
26.355250 45.416125
26.411875 44.172000
}
