version: 1
n_points: 120
{
22.668250 25.615000
23.272250 25.065625
23.960250 24.639625
24.703125 24.276250
25.471875 24.082750
26.296750 24.036250
27.107375 24.155000
27.871250 24.449875
28.575500 24.876625
29.321000 25.167500
29.265750 25.755125
28.572000 26.099750
27.751875 26.174625
26.949750 26.355000
26.153125 26.562500
25.338625 26.684125
24.518750 26.633500
23.731625 26.423000
23.003125 26.037250
22.693125 25.540375
41.524000 25.288875
42.163375 24.721000
42.864500 24.245000
43.619125 23.852250
44.419000 23.566750
45.266750 23.450750
46.089125 23.653500
46.904625 23.920375
47.662125 24.304625
48.381750 24.759625
48.493000 25.270250
47.781000 25.709375
46.947125 25.839000
46.100125 25.926125
45.245125 25.986625
44.382625 25.986625
43.522375 25.973250
42.660000 25.973250
41.838125 25.858000
41.537500 25.208375
25.352125 42.549875
26.278375 42.182750
27.204625 41.827625
28.114500 41.431125
28.977625 40.960625
29.885500 40.611125
30.849000 40.392500
31.845500 40.373000
32.845125 40.373000
33.825750 40.489625
34.795375 40.657250
35.776625 40.761750
36.761500 40.670875
37.709000 40.419875
38.660875 40.178750
39.655875 40.198125
40.629125 40.360250
41.563375 40.703875
42.510750 41.008750
43.481375 41.246250
44.440625 41.500375
45.307500 41.857250
46.170875 42.258375
45.975375 43.129125
45.426750 43.932375
44.867500 44.744250
44.298125 45.546875
43.566875 46.219750
42.820625 46.857000
42.025750 47.430500
41.140125 47.873250
40.230875 48.267000
39.280500 48.557875
38.305000 48.711000
37.308500 48.691500
36.316375 48.633250
35.329125 48.538250
34.350375 48.400000
33.400750 48.158125
32.451625 47.922375
31.490750 47.718750
30.545625 47.436125
29.608375 47.126875
28.717000 46.690500
27.835750 46.239875
26.946625 45.796000
26.201875 45.161250
25.663125 44.389625
25.468750 43.446375
25.391000 42.491500
26.841000 43.419125
26.935125 42.521625
28.273125 42.796375
29.658625 42.869625
31.065000 42.888000
32.467125 42.851375
33.862250 42.759750
35.250875 42.631500
36.641375 42.540000
38.037250 42.465125
39.440875 42.430000
40.828000 42.338500
42.204125 42.157625
43.595375 42.063750
44.943250 42.160750
44.547625 43.276375
43.414625 44.061750
42.239375 44.798875
41.021000 45.432625
39.681625 45.787875
38.306875 46.001875
36.932375 46.166625
35.534625 46.148375
34.157000 46.012875
32.776250 45.800375
31.400875 45.586375
30.036250 45.360750
28.730250 44.922000
27.465500 44.372500
26.767625 43.345875
}
