version: 1
n_points: 120
{
22.703625 26.053125
23.314500 25.493750
24.027000 25.068375
24.779375 24.704875
25.579875 24.501875
26.414250 24.444875
27.241750 24.515375
28.034125 24.775125
28.760000 25.182375
29.453875 25.559375
29.283625 26.090000
28.599500 26.532875
27.825625 26.772625
27.014750 26.913750
26.192875 27.012500
25.365625 27.069000
24.531750 27.040750
23.736250 26.913750
23.035875 26.532875
22.760125 26.010875
41.393750 25.628375
42.007000 25.044875
42.682125 24.537250
43.442625 24.166375
44.253125 23.930500
45.095625 23.855500
45.941875 23.930000
46.762875 24.153500
47.550875 24.466375
48.217000 24.988000
48.221000 25.559250
47.441625 25.911625
46.634625 26.195500
45.802250 26.348750
44.955750 26.432750
44.097625 26.447750
43.244250 26.403000
42.403750 26.289750
41.596625 26.069500
41.468250 25.583625
27.959000 45.960625
28.336375 45.290625
28.766500 44.644000
29.182625 43.988375
29.615000 43.344375
30.001750 42.672750
30.522125 42.108125
31.139875 41.642875
31.786500 41.213000
32.529750 41.039500
33.306125 41.056500
34.055250 41.162625
34.818125 41.243125
35.597250 41.209250
36.345250 41.053125
37.070875 40.835875
37.832250 40.944750
38.557625 41.202125
39.192125 41.649875
39.843500 42.084250
40.451250 42.569625
41.045000 43.077125
41.596000 43.595500
42.133375 44.166875
42.651250 44.732500
43.066500 45.354625
42.910125 46.078250
42.537250 46.737875
42.064750 47.354250
41.551250 47.946250
41.024000 48.506625
40.352500 48.898000
39.660500 49.264750
38.910875 49.490250
38.158750 49.659875
37.387500 49.761750
36.604500 49.795625
35.817375 49.795625
35.036375 49.745125
34.254750 49.688250
33.486750 49.558125
32.728000 49.405750
31.969875 49.266000
31.238125 48.993875
30.505875 48.710125
29.842750 48.310875
29.297875 47.757750
28.776125 47.204500
28.304625 46.600125
27.993000 45.960625
31.226125 45.390500
31.731125 44.971750
32.273500 44.616375
32.866000 44.320125
33.481375 44.107500
34.122125 43.977000
34.789250 43.957375
35.459875 43.940125
36.131750 43.922875
36.806500 43.922875
37.473000 43.957375
38.108625 44.089250
38.706125 44.320000
39.257000 44.675250
39.787875 45.060625
39.976500 45.583500
39.428000 45.908000
38.784875 46.047625
38.119625 46.098375
37.444875 46.098375
36.770125 46.098375
36.098250 46.081125
35.428500 46.046500
34.761375 45.999125
34.093000 45.960250
33.421125 45.943000
32.746375 45.943000
32.078500 45.908375
31.426250 45.839375
31.260625 45.373125
}
