version: 1
n_points: 120
{
22.424000 25.993750
22.983750 25.366500
23.691500 24.918000
24.454500 24.559250
25.237125 24.320500
26.085250 24.336250
26.897750 24.513125
27.701500 24.753625
28.460000 25.120625
29.118875 25.632375
29.060250 26.180000
28.337750 26.595500
27.533125 26.821625
26.723000 27.004000
25.889000 27.114500
25.049750 27.177625
24.205375 27.146000
23.422500 26.929125
22.699250 26.537250
22.487125 25.962125
40.992125 25.759875
41.782500 25.282125
42.514750 24.737375
43.313125 24.308625
44.133875 23.905875
45.015750 23.648875
45.914500 23.714750
46.780250 24.020125
47.596875 24.431625
48.406375 24.866125
48.507125 25.548000
47.701250 25.980875
46.871125 26.359625
45.992875 26.569625
45.083250 26.674625
44.167250 26.659625
43.257500 26.569625
42.360375 26.390875
41.528000 26.104750
41.097125 25.654875
29.269625 45.565250
29.530875 44.972500
29.877625 44.436125
30.306000 43.956000
30.741625 43.478750
31.191875 43.016250
31.647750 42.562000
32.114125 42.113000
32.617375 41.714000
33.201250 41.463750
33.843625 41.432625
34.484875 41.481000
35.124500 41.546375
35.757500 41.656250
36.377875 41.822625
36.998125 42.000375
37.582125 42.264500
38.111875 42.616125
38.578500 43.058875
39.029250 43.517500
39.448500 44.006125
39.792125 44.540125
40.000500 45.144500
40.046625 45.774125
39.896375 46.394375
39.705375 47.001500
39.453750 47.583500
39.096125 48.119250
38.710500 48.637625
38.268875 49.102750
37.836000 49.576125
37.396625 50.044125
36.847625 50.380125
36.258125 50.640125
35.627875 50.774500
34.981625 50.791500
34.357125 50.678875
33.730625 50.571375
33.096375 50.475750
32.496375 50.260750
31.924000 49.968375
31.342750 49.694375
30.774625 49.399875
30.340125 48.962500
30.019375 48.416000
29.755625 47.839750
29.460625 47.285625
29.343375 46.667875
29.321750 46.024625
29.408500 45.409000
34.407125 45.649000
34.526750 45.572000
34.646500 45.495125
34.766125 45.418250
34.885750 45.341250
35.007625 45.280500
35.138250 45.244750
35.277625 45.233000
35.417625 45.223500
35.559875 45.223500
35.678125 45.281500
35.780125 45.378500
35.780125 45.520750
35.726750 45.644250
35.639875 45.750500
35.539250 45.851125
35.441875 45.948500
35.335750 46.035750
35.221250 46.111125
35.111875 46.190375
34.997000 46.229125
34.854750 46.229125
34.725000 46.198875
34.601750 46.153000
34.503375 46.074375
34.426500 45.986375
34.386750 45.860625
34.396000 45.737375
34.502250 45.650500
34.600500 45.571625
}
