version: 1
n_points: 120
{
22.310500 25.833125
23.007000 25.347125
23.735875 24.923000
24.512000 24.565625
25.337625 24.484375
26.132000 24.611250
26.934750 24.774500
27.749250 24.963125
28.547125 25.195250
29.258625 25.587875
28.953000 26.239000
28.174625 26.556625
27.359750 26.775125
26.531375 26.954500
25.694875 27.080375
24.862500 27.210875
24.011500 27.210875
23.240500 26.966250
22.608750 26.431875
22.412000 25.746125
40.830625 25.682500
41.563500 25.142875
42.366750 24.721250
43.150875 24.260875
43.983625 23.897750
44.860000 23.698000
45.775875 23.703750
46.652125 23.955875
47.474250 24.336000
48.163625 24.913750
48.196875 25.528875
47.381500 25.949875
46.525375 26.274875
45.631375 26.450125
44.715250 26.481625
43.797250 26.460750
42.892125 26.361750
41.993500 26.268500
41.128500 26.071125
40.950500 25.589250
26.237625 43.994625
26.926750 43.432000
27.714625 43.004500
28.479125 42.551125
29.309125 42.216125
30.176000 41.981375
31.056000 41.845500
31.959000 41.844625
32.844375 41.973500
33.736000 42.056375
34.629375 42.117375
35.529125 42.137875
36.427625 42.105250
37.328250 42.089000
38.228125 42.067875
39.125250 42.023875
40.025750 42.007500
40.924875 42.035000
41.798875 42.186750
42.639500 42.471875
43.333000 43.027250
43.883875 43.715375
44.389875 44.450500
44.467375 45.322000
43.953125 46.054750
43.366875 46.730500
42.786625 47.414125
42.197125 48.085000
41.476875 48.624125
40.699625 49.076875
39.878875 49.434375
39.021125 49.703875
38.141625 49.894375
37.252250 50.021000
36.355625 50.086125
35.459250 50.021000
34.563875 49.939500
33.678750 49.797625
32.806375 49.586500
31.937625 49.349000
31.085250 49.066625
30.254250 48.725250
29.429250 48.367625
28.624875 47.964125
27.860625 47.503500
27.146875 46.972375
26.545750 46.322500
26.144875 45.535750
26.042125 44.667375
26.335250 43.896875
27.582375 44.553500
28.350500 43.907625
29.583000 43.986375
30.831000 44.002125
32.071750 44.071375
33.317750 44.087000
34.567125 44.080875
35.812000 44.128125
37.061875 44.128125
38.311875 44.128125
39.555375 44.080875
40.793375 43.986375
42.035000 43.923375
43.267250 43.828875
43.761750 44.206375
42.903875 45.083000
41.825750 45.702750
40.691625 46.206375
39.534750 46.657750
38.341375 46.998500
37.109500 47.152750
35.861500 47.168500
34.611500 47.168500
33.370000 47.105500
32.140000 46.963750
30.918250 46.774750
29.755625 46.372625
28.637875 45.840000
27.558750 45.238750
27.598250 44.348625
}
