version: 1
n_points: 120
{
22.188625 25.976125
22.797000 25.341000
23.524375 24.839625
24.320250 24.440000
25.155750 24.165500
26.027875 24.197500
26.874875 24.471625
27.720750 24.747250
28.555000 25.048750
29.214750 25.613125
29.076125 26.324750
28.264750 26.678875
27.412000 26.942750
26.548125 27.138250
25.670500 27.260625
24.783750 27.309625
23.896250 27.271250
23.052875 27.026000
22.270250 26.628625
22.237500 25.866000
41.025000 25.925625
41.776875 25.375250
42.547750 24.855625
43.332125 24.356250
44.166875 23.951750
45.048375 23.658125
45.972875 23.644625
46.856375 23.903750
47.622625 24.403750
48.406125 24.894000
48.384125 25.525500
47.537000 25.910750
46.691750 26.290875
45.796875 26.540000
44.882000 26.678875
43.951125 26.686375
43.027750 26.610000
42.102500 26.526375
41.186250 26.408750
41.051750 25.872000
24.677125 42.951500
25.715375 42.761500
26.735250 42.613625
27.635625 42.381375
28.596250 42.136000
29.596875 41.832500
30.614250 41.608625
31.634000 41.431375
32.675625 41.346875
33.725750 41.389125
34.765500 41.494625
35.812125 41.558000
36.846875 41.473625
37.850375 41.220875
38.889250 41.114625
39.945625 41.131500
41.001375 41.157875
42.048750 41.241375
43.089125 41.368000
44.109375 41.583250
45.075875 41.992625
46.040750 42.422250
46.201000 43.269750
45.811250 44.218875
45.353500 45.147875
44.746500 45.988750
44.006500 46.719750
43.212750 47.396625
42.396250 48.034375
41.486625 48.552250
40.572625 49.053750
39.639125 49.534125
38.659000 49.897625
37.619125 50.003250
36.567500 49.961000
35.509125 49.961000
34.456125 49.927000
33.427250 49.733375
32.411875 49.517625
31.412750 49.243125
30.427750 48.905375
29.463000 48.543000
28.546000 48.042250
27.678125 47.505875
26.835750 46.902125
26.081375 46.182250
25.444250 45.365375
24.874750 44.521375
24.602500 43.596125
24.951625 42.740375
26.490250 44.053875
27.211125 43.241625
28.598750 43.511375
30.040375 43.595750
31.478375 43.719125
32.923375 43.807125
34.369625 43.877625
35.823625 43.871875
37.267000 43.772000
38.699625 43.583250
40.128125 43.379000
41.549875 43.155125
42.966125 42.914750
44.407500 42.820375
45.262625 43.274125
44.315500 44.326875
43.333125 45.378375
42.139000 46.180375
40.861625 46.841125
39.475750 47.208375
38.039750 47.331750
36.589000 47.296500
35.140625 47.243625
33.693875 47.190750
32.248750 47.120250
30.816125 47.027500
29.465625 46.765000
28.221750 46.120250
27.172250 45.141250
26.455000 44.036250
}
