version: 1
n_points: 120
{
22.022750 26.071875
22.646250 25.391250
23.369750 24.813500
24.200625 24.416125
25.086375 24.167250
26.004625 24.152375
26.878125 24.410000
27.705125 24.811750
28.421250 25.387125
29.248125 25.793000
29.490000 26.446750
28.662125 26.816125
27.789500 27.057500
26.903875 27.284000
26.000125 27.421500
25.074875 27.459125
24.157750 27.376500
23.313625 27.092750
22.587625 26.601625
22.052750 26.056875
41.236375 26.045750
41.927125 25.431000
42.683375 24.901500
43.434625 24.372250
44.270125 23.989375
45.162250 23.752125
46.074000 23.739125
46.931500 24.059125
47.755000 24.477750
48.561875 24.918250
48.728000 25.656375
47.911375 26.067625
47.074375 26.457875
46.218625 26.791625
45.310500 26.916000
44.382250 26.929750
43.463625 26.847750
42.566875 26.639750
41.690375 26.418750
41.346875 25.949125
24.569875 43.073875
25.621750 42.953875
26.644750 42.798875
27.652250 42.534750
28.636750 42.152500
29.586375 41.697000
30.617375 41.565375
31.668375 41.634000
32.719875 41.719625
33.764375 41.853250
34.798875 42.028250
35.847000 42.113875
36.887000 41.993875
37.871375 41.685375
38.908125 41.548250
39.964625 41.514000
41.007875 41.633625
42.026750 41.909875
43.034625 42.230375
44.056125 42.518250
45.057625 42.799625
46.061000 43.038000
46.295000 43.695500
45.810000 44.614125
45.314375 45.536750
44.674250 46.368125
43.990875 47.171625
43.235250 47.909375
42.405750 48.551000
41.601125 49.233000
40.722750 49.822625
39.800250 50.316375
38.777125 50.548875
37.728125 50.633500
36.668750 50.616375
35.606750 50.616375
34.544750 50.616375
33.486500 50.582000
32.440875 50.444875
31.426125 50.164625
30.454000 49.764625
29.546375 49.242875
28.683000 48.644125
27.850875 47.998250
27.035875 47.329250
26.341125 46.547750
25.656500 45.760000
24.981000 44.976125
24.569875 44.053875
24.535500 43.091000
26.253125 44.451375
26.882375 43.446875
28.267125 43.812125
29.725750 44.063875
31.214500 44.122625
32.712000 44.122625
34.201625 44.067875
35.696875 44.049625
37.185375 43.994750
38.663875 43.846250
40.129500 43.607625
41.594000 43.342000
43.063250 43.136375
44.554750 43.099875
45.323125 43.681250
44.576500 44.915875
43.609750 46.015625
42.345500 46.769625
40.919625 47.111375
39.479000 47.494250
38.006125 47.674625
36.530250 47.840500
35.044500 47.939625
33.555250 47.884875
32.069875 47.780750
30.603875 47.502375
29.156125 47.160125
27.873125 46.430250
26.690500 45.582750
26.216625 44.323500
}
