version: 1
n_points: 120
{
21.773500 26.174125
22.464375 25.517000
23.223125 24.953875
24.044375 24.498250
24.948500 24.234500
25.899000 24.192500
26.807750 24.421750
27.605875 24.930250
28.392500 25.454875
29.184125 25.969375
29.162125 26.443125
28.283250 26.810250
27.420750 27.189625
26.509250 27.423375
25.575500 27.565375
24.628250 27.631750
23.675875 27.615375
22.915500 27.195625
22.116750 26.714000
21.839000 26.059500
40.914500 25.996750
41.554000 25.357250
42.300000 24.836875
43.055875 24.333875
43.914125 24.022625
44.804375 23.820625
45.705000 23.697125
46.568500 23.931125
47.336125 24.410750
48.068250 24.946125
48.561625 25.544250
47.815625 26.057125
46.973625 26.410750
46.106375 26.692625
45.210000 26.829125
44.299000 26.772625
43.400875 26.675625
42.517500 26.507500
41.640375 26.335250
40.956750 25.954375
27.424000 46.711250
27.789250 45.998875
28.190625 45.317000
28.636875 44.657625
29.158750 44.048500
29.669375 43.431625
30.204875 42.836500
30.842875 42.359375
31.586625 42.051500
32.366625 41.901500
33.166250 41.917125
33.940375 42.076750
34.734625 42.109875
35.507625 41.918875
36.252375 41.644375
37.038875 41.536875
37.825875 41.676250
38.539500 42.042125
39.211375 42.481750
39.862750 42.956625
40.476625 43.476500
41.056625 44.039125
41.598375 44.632875
42.132125 45.230125
42.624500 45.857125
42.860625 46.611750
42.698750 47.382125
42.200500 48.005000
41.556875 48.489125
40.899000 48.956625
40.248375 49.427625
39.585375 49.882375
38.876625 50.256125
38.123500 50.530250
37.361750 50.781750
36.566500 50.896000
35.762375 50.930750
34.953375 50.930750
34.146500 50.913375
33.343125 50.878000
32.555875 50.739750
31.783375 50.537500
31.033750 50.241250
30.405625 49.774750
29.861750 49.204625
29.262250 48.671000
28.682750 48.111875
28.062875 47.610500
27.440250 47.126875
27.458750 46.555000
31.228625 46.287000
31.673125 45.851375
32.212375 45.547625
32.783500 45.296500
33.374750 45.109250
33.976375 44.978500
34.592500 44.921500
35.216250 44.904500
35.841375 44.921500
36.464875 44.948750
37.082000 45.006875
37.693250 45.102125
38.295500 45.228750
38.877125 45.451625
39.328875 45.836125
39.203875 46.361500
38.629000 46.560000
38.031750 46.710250
37.422375 46.816750
36.808250 46.901375
36.188750 46.952625
35.569250 46.996375
34.947375 47.038000
34.322250 47.055000
33.698625 47.020875
33.081750 46.952625
32.469000 46.867250
31.882500 46.730750
31.314000 46.572250
31.279875 46.235750
}
