version: 1
n_points: 120
{
21.937875 26.207125
22.483250 25.460500
23.214750 24.890000
24.058125 24.498000
24.962250 24.258500
25.888625 24.207625
26.769500 24.519375
27.569125 24.983375
28.330625 25.514125
29.140625 25.959375
29.159750 26.541000
28.360000 27.011250
27.471625 27.294250
26.556500 27.495375
25.633875 27.605875
24.707875 27.696500
23.774125 27.666375
22.909375 27.352125
22.185000 26.796500
21.978125 26.076375
40.386500 25.924750
41.297500 25.508250
42.111375 24.965125
42.920750 24.397000
43.828125 23.983125
44.781750 23.729750
45.780375 23.681875
46.721500 23.961875
47.604500 24.421125
48.389125 24.991375
48.238875 25.842750
47.349625 26.258500
46.418625 26.627750
45.452250 26.878375
44.445750 26.878375
43.465625 26.756750
42.500375 26.542750
41.516875 26.401500
40.534500 26.277875
40.474875 25.871750
28.737250 47.315250
29.138500 46.725625
29.551500 46.157875
30.018250 45.619625
30.503375 45.096750
30.957000 44.549000
31.410625 44.001250
31.831250 43.429750
32.314750 42.927375
32.943375 42.660875
33.613250 42.811625
34.312125 42.868125
35.014500 42.792750
35.714500 42.684250
36.417250 42.585500
37.092000 42.730250
37.637375 43.172500
38.175375 43.619250
38.692125 44.117250
39.205875 44.612125
39.647375 45.165875
40.068625 45.738625
40.485875 46.311250
40.896250 46.886625
40.936875 47.563750
40.662375 48.203875
40.315250 48.806750
39.865750 49.358500
39.367750 49.875375
38.883250 50.397625
38.405250 50.912000
37.862125 51.357375
37.342625 51.844000
36.766000 52.252375
36.090250 52.458250
35.389250 52.572625
34.676500 52.610375
33.960625 52.629250
33.249000 52.575375
32.550250 52.468125
31.868375 52.308875
31.214125 52.077500
30.688000 51.621500
30.357750 51.016875
30.130250 50.365125
29.784750 49.757125
29.392000 49.164125
29.128000 48.506500
28.966750 47.827500
28.812625 47.202125
33.723750 47.112875
33.896750 47.047500
34.069625 46.982000
34.242625 46.916625
34.418750 46.868375
34.603625 46.868375
34.788500 46.868375
34.969375 46.885875
35.142875 46.920750
35.322500 46.943125
35.487500 46.986000
35.592250 47.076375
35.627125 47.246875
35.609750 47.424500
35.562250 47.592000
35.449500 47.727125
35.301875 47.834375
35.134375 47.900625
34.965375 47.967750
34.791125 48.001375
34.607000 48.003500
34.433500 47.968500
34.274375 47.898750
34.128500 47.797000
33.985750 47.702000
33.895875 47.564500
33.793625 47.421875
33.741250 47.279125
33.756500 47.115000
33.863500 47.025625
}
