version: 1
n_points: 120
{
21.886000 26.336875
22.529500 25.718875
23.208125 25.137375
23.958875 24.661750
24.816875 24.401250
25.702375 24.313375
26.542875 24.535500
27.302500 24.995500
28.058250 25.475500
28.831375 25.908875
28.911250 26.502375
28.150500 26.937500
27.307125 27.236500
26.448250 27.487250
25.574250 27.683500
24.683750 27.749625
23.788375 27.739000
22.977625 27.454000
22.304750 26.921125
21.949625 26.286000
41.180625 25.903375
41.786875 25.256750
42.497875 24.720625
43.278875 24.287000
44.108500 23.969625
44.989500 23.868625
45.873250 23.948875
46.739625 24.143000
47.545250 24.511000
48.194625 25.095625
48.264000 25.824750
47.516875 26.298875
46.684875 26.605000
45.828250 26.865750
44.945875 26.988625
44.054500 27.001000
43.173750 26.890000
42.298500 26.754375
41.461000 26.504500
41.193000 25.878750
27.712500 48.763000
28.033375 47.895375
28.503250 47.091000
29.046750 46.343000
29.577750 45.587375
30.222500 44.920000
30.843125 44.241500
31.558500 43.674375
32.433500 43.408500
33.356250 43.498875
34.293375 43.521375
35.230500 43.498875
36.132125 43.367000
37.063000 43.318125
37.920500 43.643750
38.670875 44.155625
39.218375 44.905625
39.842000 45.597000
40.415000 46.333625
40.950500 47.086875
41.427750 47.884500
41.720125 48.756375
41.822875 49.668875
41.814250 50.604125
41.674875 51.517375
41.374500 52.397750
41.024500 53.267000
40.677875 54.123250
40.241125 54.951625
39.791250 55.769375
39.207125 56.472250
38.418625 56.966000
37.589125 57.399750
36.731250 57.765125
35.826375 57.979875
34.907375 57.867875
33.996750 57.687125
33.103000 57.428000
32.243125 57.060625
31.427125 56.612000
30.688000 56.053750
30.077500 55.356375
29.578500 54.587000
29.211625 53.734125
28.778375 52.905375
28.355500 52.069875
27.893250 51.263000
27.622125 50.410375
27.599500 49.489625
27.712500 48.604750
29.739250 49.006125
30.100000 48.053500
30.813875 47.325375
31.640250 46.736125
32.603250 46.367125
33.593875 46.141625
34.631250 46.095750
35.673750 46.120375
36.655000 46.367125
37.624875 46.687750
38.564500 47.130125
39.444625 47.680375
40.186750 48.354625
40.419000 49.311000
40.029375 50.209750
39.438875 51.040500
38.888500 51.919250
38.331500 52.786500
37.720000 53.599125
36.805875 53.994500
35.842125 54.229750
34.826875 54.358375
33.853000 54.136375
32.962250 53.692500
32.208375 53.075875
31.508375 52.329250
31.016250 51.467250
30.454500 50.634125
29.985875 49.800000
29.788500 48.882875
}
