version: 1
n_points: 120
{
21.951000 25.920625
22.586250 25.281625
23.272500 24.725500
24.062750 24.312250
24.897875 24.042250
25.794750 24.026375
26.679125 24.129125
27.520125 24.414750
28.258250 24.899125
28.923625 25.490000
28.959250 26.174125
28.185875 26.568000
27.333375 26.810000
26.468750 27.035125
25.599000 27.199250
24.725375 27.325500
23.833125 27.341375
23.026875 27.073000
22.341625 26.563875
22.014125 25.873250
40.804625 25.655625
41.473125 25.000875
42.184375 24.390500
42.965125 23.877875
43.852750 23.563625
44.762375 23.341875
45.699250 23.309250
46.587375 23.595375
47.451625 23.960125
48.199875 24.505250
48.649875 25.275375
47.917500 25.821500
47.059500 26.195000
46.157250 26.399000
45.221625 26.470500
44.280625 26.442875
43.350250 26.373875
42.447250 26.180500
41.559750 25.931875
40.777000 25.641875
26.767875 49.247750
26.767875 48.059500
26.939625 46.914625
27.282875 45.810250
27.967375 44.901125
28.757000 44.039375
29.621375 43.304250
30.763625 43.096375
31.939000 43.182250
33.091125 43.354000
34.239875 43.497000
35.435500 43.497000
36.631125 43.497000
37.786500 43.554250
38.872250 43.868875
39.958375 44.341375
40.967375 44.946000
41.851000 45.705125
42.484750 46.691625
43.060625 47.700250
43.554500 48.724750
43.648375 49.886500
43.677000 51.070375
43.530000 52.231250
43.190625 53.321250
42.933125 54.440875
42.710500 55.558500
42.319625 56.626125
41.730625 57.631625
41.200375 58.648375
40.449750 59.513375
39.492375 60.166625
38.384875 60.549125
37.246750 60.749375
36.083250 60.863875
34.894375 60.892500
33.712250 60.835250
32.655375 60.463250
31.595000 60.025875
30.684750 59.316000
30.071250 58.359125
29.475375 57.391375
28.996375 56.368625
28.466000 55.352000
28.141250 54.307625
27.912375 53.181250
27.493875 52.130250
27.020375 51.097375
26.739250 49.993625
26.825125 48.875875
27.534375 49.080250
27.747750 47.531375
28.826875 46.501875
30.342125 46.153625
31.990125 46.153625
33.613000 46.011625
35.256500 45.983125
36.873000 46.125250
38.432000 46.459625
39.999875 46.817250
41.481125 47.330625
42.675375 48.281250
43.360750 49.538625
42.877750 51.011875
42.482000 52.516250
41.968500 53.997125
41.274500 55.383750
40.210375 56.577875
38.991000 57.626750
37.514250 58.172625
35.924500 58.428375
34.325125 58.400000
32.814875 57.945375
31.564875 57.003500
30.482375 55.828625
29.608500 54.522875
28.784500 53.195875
28.279000 51.785500
27.733250 50.348375
27.591125 48.909750
}
