version: 1
n_points: 120
{
21.810125 26.578750
22.446375 25.955875
23.152625 25.411000
23.909375 24.945500
24.761125 24.686875
25.629000 24.810500
26.499875 24.988875
27.346250 25.271000
28.134125 25.687125
28.887625 26.155875
28.860750 26.881000
28.097250 27.318625
27.250875 27.560500
26.374375 27.719250
25.498625 27.849375
24.621000 27.960750
23.746500 27.853500
22.882750 27.656375
22.088125 27.259250
21.863750 26.525125
40.668750 26.313625
41.402125 25.708625
42.199875 25.198125
43.002000 24.691750
43.896625 24.377000
44.830625 24.228000
45.783750 24.215625
46.691625 24.468500
47.560875 24.843500
48.283750 25.424625
48.301375 26.234125
47.476875 26.701000
46.566875 26.962375
45.642500 27.177750
44.695625 27.282000
43.737125 27.267125
42.789125 27.207500
41.871250 26.969125
40.956250 26.760625
40.773125 26.224250
24.922125 44.633750
25.686375 43.964125
26.583375 43.481000
27.537625 43.099375
28.519250 42.815250
29.521500 42.601750
30.532250 42.436375
31.553875 42.427875
32.514375 42.661875
33.524500 42.777375
34.551375 42.834125
35.582000 42.796250
36.577375 42.554500
37.535125 42.191500
38.539000 42.057500
39.545375 42.199500
40.540000 42.439500
41.505125 42.799000
42.451250 43.194125
43.391875 43.604750
44.288125 44.097250
45.137125 44.580375
45.129125 45.547500
44.727375 46.469375
44.394625 47.399875
43.986750 48.338000
43.356000 49.140500
42.679375 49.902375
41.921625 50.592500
41.014500 51.071625
40.084750 51.507625
39.139500 51.910375
38.149750 52.183500
37.133875 52.307500
36.103625 52.343250
35.070625 52.324375
34.046125 52.232750
33.032125 52.091625
32.045375 51.800500
31.062250 51.517125
30.122500 51.117125
29.199875 50.669000
28.280250 50.215000
27.458875 49.614875
26.688875 48.943875
25.930875 48.292000
25.321375 47.476625
24.978875 46.524250
24.853625 45.519750
24.960000 44.576875
26.282500 45.595625
26.593625 44.507500
28.001375 44.460500
29.435125 44.633625
30.885375 44.731750
32.346625 44.771000
33.810125 44.810250
35.279250 44.810250
36.748250 44.810250
38.206500 44.742625
39.633375 44.496000
41.080750 44.398000
42.535625 44.319500
44.000125 44.339125
44.569500 45.224750
43.928750 46.467125
42.925875 47.505375
41.674375 48.220000
40.304625 48.725000
38.914500 49.179250
37.478125 49.404375
36.028750 49.561500
34.573375 49.471750
33.120125 49.365125
31.679750 49.188500
30.250625 48.913625
28.885500 48.400375
27.684000 47.605625
26.590625 46.683000
26.184375 45.438500
}
