version: 1
n_points: 120
{
22.071750 26.635375
22.575250 25.960750
23.239125 25.437750
24.009250 25.097250
24.826125 24.847375
25.672125 24.773625
26.480125 24.985250
27.206375 25.418875
27.910125 25.886375
28.640750 26.312125
28.982625 26.787625
28.242000 27.198125
27.437875 27.469750
26.612500 27.681875
25.780500 27.834375
24.938625 27.923375
24.086375 27.933500
23.277750 27.706250
22.567500 27.282000
22.081875 26.655500
40.882375 26.516625
41.563625 25.916625
42.331000 25.432875
43.084125 24.936375
43.915000 24.577625
44.793375 24.346875
45.694500 24.312625
46.551250 24.590000
47.371250 24.981375
48.161500 25.417375
48.339625 25.997125
47.656625 26.579375
46.827375 26.944000
45.950375 27.151500
45.049000 27.241000
44.142000 27.250000
43.246250 27.151625
42.350875 27.051125
41.489875 26.877125
40.944500 26.454500
24.577250 44.142750
25.584625 43.955250
26.560125 43.675500
27.500500 43.318375
28.405125 42.866750
29.328500 42.432500
30.280750 42.137125
31.301125 42.099625
32.306875 42.227000
33.303000 42.452750
34.303750 42.624500
35.320375 42.623000
36.316750 42.437000
37.273250 42.141250
38.238125 41.856000
39.210625 42.059375
40.189125 42.336500
41.172125 42.639125
42.151000 42.927875
43.128250 43.205500
44.111625 43.462750
45.078125 43.692875
45.776625 44.118125
45.498625 45.054875
44.983250 45.935750
44.356000 46.725500
43.793500 47.546750
43.086250 48.243250
42.248125 48.814625
41.362375 49.311375
40.481375 49.817500
39.541500 50.207250
38.562750 50.496875
37.569750 50.703125
36.552500 50.759375
35.526375 50.778125
34.502250 50.737500
33.492250 50.628125
32.492875 50.478125
31.505125 50.249625
30.532750 49.953375
29.606750 49.528375
28.763500 48.972750
27.970250 48.360250
27.186750 47.718000
26.432500 47.066000
25.681375 46.407375
25.096250 45.593125
24.575500 44.778375
24.727125 44.030250
26.255625 44.769500
27.175125 44.090250
28.583000 44.328250
30.017875 44.429875
31.447750 44.582750
32.888375 44.691250
34.336875 44.735500
35.786625 44.701625
37.227375 44.616625
38.663625 44.469500
40.104750 44.362000
41.531125 44.175125
42.969875 44.073250
44.409000 44.039250
44.576875 44.722750
43.449750 45.593000
42.372500 46.529500
41.096125 47.176250
39.817625 47.821000
38.438000 48.244875
37.017250 48.471500
35.568125 48.505500
34.128000 48.386625
32.706875 48.148875
31.292125 47.860250
29.875625 47.588500
28.475125 47.241500
27.160125 46.658875
26.102875 45.748500
26.255625 44.531750
}
