version: 1
n_points: 120
{
22.121625 26.661125
22.694375 25.996000
23.391375 25.464500
24.180625 25.085375
24.992000 24.806500
25.864250 24.752750
26.678750 25.069000
27.459375 25.482375
28.166875 25.990000
28.883500 26.466500
28.780000 27.082500
28.035375 27.475000
27.198250 27.679250
26.357375 27.883125
25.521125 28.046375
24.643625 28.092500
23.763250 28.046375
22.968375 27.800375
22.305625 27.353125
22.183125 26.599625
40.953125 26.369875
41.693500 25.810250
42.426375 25.253125
43.235500 24.797375
44.085000 24.435500
44.979875 24.241500
45.897500 24.334875
46.801750 24.519625
47.630750 24.923500
48.347500 25.501125
48.205250 26.226125
47.439000 26.736750
46.582250 27.065375
45.691625 27.290500
44.774375 27.385375
43.845500 27.343625
42.929500 27.242000
42.025500 27.107125
41.157500 26.875375
40.994750 26.300250
27.082250 46.615375
27.308875 45.735125
27.651250 44.896625
28.051375 44.076375
28.541875 43.315625
29.215875 42.708500
29.988875 42.238000
30.866125 42.049000
31.742750 42.189250
32.619875 42.409500
33.452625 42.689875
34.352375 42.790000
35.266250 42.830125
36.175250 42.769875
37.011875 42.441625
37.844250 42.129125
38.733750 42.229250
39.585500 42.532625
40.350125 43.019875
41.077375 43.566875
41.714625 44.224125
42.295500 44.925250
42.855125 45.636125
43.419250 46.349375
43.889500 47.100000
43.898250 47.984625
43.474500 48.768750
42.948500 49.495125
42.383625 50.179875
41.758625 50.843125
41.055875 51.399125
40.247500 51.813500
39.396625 52.124375
38.498125 52.223125
37.584250 52.263125
36.663875 52.263125
35.743500 52.263125
34.828125 52.241500
33.920500 52.163000
33.020250 52.039375
32.138000 51.822500
31.262750 51.560375
30.406750 51.235000
29.620875 50.778625
28.883500 50.259250
28.172125 49.708000
27.522750 49.078625
27.122375 48.302750
27.042250 47.415500
27.082250 46.535250
28.621625 46.991625
29.328750 46.219375
30.168625 45.591375
31.101750 45.101375
32.126875 44.891750
33.179875 44.973125
34.236125 45.048500
35.302125 45.070750
36.361500 45.119625
37.423250 45.168500
38.442625 45.374500
39.434000 45.731750
40.421125 46.086875
41.409750 46.405625
42.377125 46.708625
41.849125 47.405750
41.058125 48.082500
40.080750 48.489250
39.084875 48.832500
38.048500 48.994000
36.982625 48.977625
35.927375 48.896250
34.881000 48.782375
33.822875 48.733500
32.771375 48.668375
31.759375 48.473000
30.730125 48.326500
29.720125 48.147500
28.758375 47.844750
28.670375 46.959125
}
