version: 1
n_points: 120
{
40.843375 26.501750
41.529125 25.896250
42.269875 25.349875
43.072125 24.897875
43.909625 24.497000
44.791000 24.203000
45.708125 24.209625
46.583125 24.477125
47.430875 24.853250
48.218750 25.318875
48.636250 26.014750
47.865500 26.506375
47.034375 26.913125
46.146000 27.165500
45.223250 27.241875
44.294375 27.206000
43.382125 27.086625
42.463500 27.015000
41.585625 26.783250
40.903125 26.465875
22.085250 26.499875
22.731750 25.839000
23.451625 25.290875
24.219375 24.897625
25.071250 24.711625
25.984250 24.697375
26.814125 25.005875
27.608750 25.456250
28.403000 25.889250
29.197500 26.330500
29.211125 26.871000
28.384500 27.243750
27.505500 27.511250
26.628250 27.754625
25.728750 27.887500
24.826125 27.987625
23.907250 27.959000
23.042625 27.743875
22.342125 27.228750
22.142500 26.457000
28.920500 47.062125
29.385125 46.605375
29.784000 46.097375
30.232250 45.630875
30.674750 45.173000
31.183250 44.766625
31.739000 44.446625
32.307625 44.160375
32.859625 43.848500
33.402375 43.536125
33.985375 43.340250
34.600750 43.201375
35.242250 43.148125
35.892375 43.131250
36.519125 43.252750
37.121375 43.497250
37.651750 43.865750
38.144625 44.267875
38.627375 44.689500
39.037125 45.189125
39.364500 45.749250
39.652750 46.324750
39.961000 46.897625
40.173250 47.502375
40.280125 48.136250
40.113000 48.717750
39.663000 49.175125
39.196125 49.625125
38.722375 50.073500
38.212875 50.472250
37.686875 50.847500
37.167250 51.232125
36.632250 51.599125
36.048375 51.882875
35.429625 52.068000
34.802750 52.220750
34.156750 52.275125
33.508125 52.241375
32.876875 52.123250
32.267625 51.971375
31.711250 51.691750
31.202750 51.335000
30.719500 50.929875
30.347000 50.411750
30.106000 49.833375
29.843375 49.261875
29.583250 48.686375
29.318875 48.101375
29.106125 47.514375
29.004875 46.960875
33.655500 47.111625
33.844875 47.048500
34.034125 46.985500
34.223375 46.922375
34.412375 46.858250
34.600125 46.823125
34.799625 46.823125
34.997375 46.834250
35.192500 46.861500
35.387125 46.895250
35.575125 46.949875
35.761000 47.010125
35.868000 47.129375
35.855375 47.310000
35.718125 47.453875
35.548875 47.550125
35.362375 47.604875
35.172125 47.650375
34.986875 47.696500
34.799125 47.746500
34.607625 47.765750
34.408125 47.765750
34.208500 47.765750
34.014375 47.743125
33.827125 47.706500
33.690750 47.608500
33.617000 47.439500
33.597875 47.248000
33.633750 47.073125
33.809375 47.015500
}
