version: 1
n_points: 120
{
22.243500 26.500000
22.783250 25.823125
23.499000 25.337500
24.318375 25.032625
25.182500 24.895500
26.061750 24.856375
26.890750 25.032625
27.720000 25.326750
28.458875 25.788375
29.185000 26.255500
28.998625 26.900500
28.257125 27.367250
27.417250 27.614125
26.571000 27.777375
25.705125 27.900750
24.829000 27.981000
23.976750 27.826000
23.143500 27.567125
22.408500 27.131125
22.339500 26.431375
41.101250 26.226625
41.827250 25.645000
42.552500 25.064125
43.326125 24.557750
44.206250 24.279250
45.122000 24.147250
46.046250 24.166500
46.941875 24.390125
47.765250 24.817625
48.504250 25.362250
48.579750 25.912000
47.805125 26.419875
46.993125 26.865125
46.118375 27.165500
45.196875 27.250125
44.263375 27.241375
43.339875 27.171375
42.435875 26.999500
41.560125 26.738000
41.101250 26.187250
29.309500 47.671875
29.673625 47.108125
30.029250 46.548750
30.480000 46.056750
30.912875 45.547750
31.364875 45.054625
31.819250 44.582125
32.377000 44.222000
32.992125 43.971750
33.631250 43.878625
34.294625 43.931375
34.942750 44.054250
35.604875 44.107000
36.236125 43.931375
36.875375 43.808375
37.512375 43.972875
38.120125 44.249875
38.693750 44.601875
39.265000 44.955125
39.809250 45.334375
40.325250 45.762500
40.782875 46.243625
41.205375 46.755000
41.574125 47.310000
41.778000 47.922000
41.520750 48.508750
41.030750 48.963500
40.547625 49.429125
40.069000 49.890250
39.557000 50.323250
39.006875 50.703000
38.446375 51.057875
37.842500 51.342750
37.218000 51.586500
36.597625 51.839625
35.955500 52.042000
35.294125 52.114875
34.627750 52.079750
33.969875 52.009500
33.301000 51.974375
32.637500 51.921750
32.000875 51.774625
31.434500 51.430000
30.993125 50.953500
30.644250 50.420375
30.257875 49.883875
29.997125 49.292875
29.766625 48.691500
29.516875 48.104000
29.344625 47.531375
32.977875 47.095375
33.287625 46.962625
33.596750 46.828375
33.923375 46.773000
34.252125 46.721625
34.581625 46.671250
34.911125 46.620250
35.241500 46.586375
35.578500 46.586375
35.912875 46.569375
36.250000 46.569375
36.583125 46.552375
36.878750 46.652250
37.033500 46.905375
36.941500 47.204375
36.676750 47.401000
36.390250 47.552125
36.093625 47.679000
35.783875 47.774250
35.462750 47.842125
35.133750 47.876000
34.804625 47.910000
34.467500 47.910000
34.130500 47.910000
33.804375 47.876000
33.498125 47.796750
33.213375 47.653375
32.949750 47.468750
32.842125 47.243500
33.062625 47.027500
}
