version: 1
n_points: 120
{
22.716500 25.283250
23.255375 24.720750
23.984250 24.344875
24.754250 24.017250
25.555375 23.829750
26.408750 23.782875
27.277625 23.782875
28.096625 23.954750
28.840500 24.293625
29.561500 24.697000
29.730125 25.220625
28.970750 25.477250
28.148125 25.642625
27.322625 25.767750
26.536500 25.924000
25.725375 26.049000
24.881500 26.111500
24.025500 26.080250
23.392000 25.661875
22.747750 25.283250
41.774375 24.588000
42.436000 24.169875
43.051500 23.662500
43.699500 23.217375
44.399000 22.897375
45.219125 22.856875
46.056000 22.856875
46.814625 23.113750
47.547375 23.397125
48.210875 23.829125
48.613250 24.403500
47.983375 24.804375
47.252125 25.088250
46.482500 25.291375
45.645500 25.291375
44.808625 25.291375
43.986125 25.250750
43.199125 25.102000
42.418000 24.974750
41.774375 24.588000
27.249750 47.430000
27.677750 46.562625
27.953500 45.540000
28.357875 44.576375
29.074250 43.831875
29.967875 43.263500
30.939375 42.803125
31.933875 42.390750
32.866000 42.010750
33.897625 41.715125
34.953375 41.574375
36.062125 41.546250
37.182500 41.546250
38.303000 41.546250
39.419125 41.564125
40.256125 42.193875
41.030875 42.933000
41.769500 43.700625
42.312500 44.617625
42.939750 45.468625
43.466000 46.389750
43.859375 47.405375
43.972000 48.489125
43.859375 49.578000
43.437125 50.555750
43.099375 51.492375
42.710125 52.431375
42.414625 53.407250
41.900875 54.335250
41.192250 55.080125
40.450375 55.764375
39.760875 56.466750
38.824875 56.945375
37.809250 57.170625
36.705000 57.226875
35.584625 57.226875
34.464125 57.226875
33.343750 57.226875
32.374000 56.889250
31.595625 56.375125
30.831125 55.740875
30.117250 54.946625
29.504875 54.161375
28.938875 53.326375
28.553375 52.421500
28.375750 51.364625
28.024750 50.429000
27.611250 49.471625
27.362375 48.459125
27.221625 47.430000
28.981500 47.609500
29.241375 46.306000
30.169500 45.522500
31.481000 45.100125
32.694250 44.628000
33.948500 44.305000
35.240625 43.957125
36.626750 43.857750
37.984500 44.099000
39.254750 44.578250
40.480625 45.124875
41.567250 45.951750
42.546250 46.789625
42.653375 48.161250
42.075375 49.384875
41.345000 50.402125
40.810875 51.582125
40.211875 52.725250
39.399375 53.721625
38.152625 54.193750
36.883750 54.539125
35.469875 54.616125
34.107500 54.400125
32.960750 53.796125
31.865375 53.125375
30.820125 52.285750
30.124375 51.264375
29.602625 50.121000
29.304500 48.847625
28.956625 47.584625
}
