version: 1
n_points: 120
{
22.899625 24.269625
23.369375 23.649375
23.979000 23.198750
24.706250 22.901625
25.449875 22.670625
26.235500 22.649625
27.022250 22.686125
27.766250 22.881000
28.486750 23.144875
29.145250 23.558000
29.516500 24.080125
28.901500 24.539250
28.154375 24.732500
27.391250 24.875625
26.610375 24.942875
25.830750 25.006000
25.041500 25.016500
24.291375 24.879750
23.579000 24.615250
22.899625 24.259125
42.186625 23.382750
42.736750 22.877125
43.402750 22.484250
44.095375 22.144625
44.844625 21.987750
45.632250 21.987750
46.394000 22.097625
47.105125 22.357250
47.827125 22.610750
48.458125 23.001375
48.625625 23.566625
47.964625 23.939875
47.257250 24.237125
46.509250 24.404750
45.727500 24.423000
44.939875 24.423000
44.155000 24.411250
43.452750 24.171125
42.793750 23.784625
42.186625 23.418125
27.006875 46.243500
27.068625 44.946875
27.449875 43.825750
28.062875 42.712125
28.723875 41.687750
29.680875 40.874375
30.815500 40.442375
32.050000 40.133750
33.299375 39.917875
34.634625 39.887000
35.883750 40.133750
37.205000 40.149500
38.388625 39.794375
39.716125 39.825250
40.838375 40.393375
41.992250 40.955750
42.920000 41.790875
43.653375 42.816500
44.225125 43.901625
44.612125 45.094750
44.626250 46.426250
44.626250 47.766625
44.533750 49.076375
44.288375 50.344625
43.820500 51.465250
43.480125 52.600125
43.172125 53.784125
42.774875 54.952625
42.404625 56.101875
41.910875 57.218000
41.148500 58.114375
40.108375 58.709750
38.948250 59.110875
37.781250 59.512000
36.504750 59.666375
35.190000 59.604625
33.969375 59.357750
32.777250 59.155375
31.884500 58.374625
31.082375 57.541750
30.419000 56.554500
29.837750 55.496625
29.365625 54.355250
28.889250 53.228375
28.488125 52.024500
28.107875 50.883125
27.654875 49.740750
27.192125 48.618875
26.976125 47.416750
26.914375 46.120125
28.113125 45.966625
28.713500 44.431500
29.953875 43.463750
31.678875 43.132000
33.414250 42.740000
35.094500 42.317750
36.922500 42.317750
38.750500 42.317750
40.313750 42.787875
41.805500 43.615250
42.929875 44.841125
43.884625 46.196500
43.884625 48.024500
43.372500 49.674750
42.708500 51.185500
41.914750 52.640875
41.019875 54.020625
40.066000 55.303750
38.788250 56.357375
37.283000 56.973500
35.556000 57.244875
33.870375 57.033750
32.480625 56.154125
31.361500 54.996375
30.476875 53.577500
29.715625 52.036500
29.108250 50.476250
28.324250 49.045250
27.902000 47.430625
28.083000 45.695250
}
