version: 1
n_points: 120
{
23.000500 23.901625
23.423125 23.284375
24.116625 22.858250
24.822750 22.456625
25.598000 22.230375
26.405625 22.166750
27.209875 22.281750
27.985500 22.519875
28.737250 22.844375
29.504250 23.075375
29.901875 23.565875
29.257500 24.033250
28.485000 24.278625
27.680750 24.413500
26.881125 24.535500
26.075125 24.635500
25.249875 24.635500
24.446250 24.557625
23.717750 24.254625
23.022750 23.879375
42.103500 23.109625
42.588375 22.518375
43.228500 22.067375
43.944375 21.723125
44.683250 21.448875
45.478875 21.427750
46.261875 21.562750
47.036125 21.727000
47.737750 22.052750
48.340250 22.562500
48.858250 23.022750
48.161500 23.409625
47.430625 23.726750
46.659250 23.899375
45.863875 23.949000
45.062125 23.949000
44.260375 23.949000
43.509000 23.765125
42.796000 23.472875
42.115250 23.121500
26.941250 43.921625
27.407125 42.826625
28.098625 41.726125
28.797375 40.661125
29.751875 39.852750
30.990875 39.454625
32.264375 39.108500
33.524375 38.794000
34.856250 38.762500
36.201125 38.762500
37.546000 38.762500
38.890875 38.762500
40.222625 38.794000
41.457625 39.162750
42.492625 39.906000
43.339875 40.910625
44.012625 42.023750
44.777125 43.039875
45.430625 44.098250
45.501625 45.423875
45.218500 46.700250
44.903875 47.876375
44.589375 49.093875
44.243250 50.296125
43.928750 51.534500
43.593750 52.750250
43.205125 53.981375
42.701875 55.060875
42.167000 56.200750
41.573000 57.319250
40.493125 57.939625
39.316750 58.354750
38.035250 58.549625
36.773500 58.738375
35.467750 58.832750
34.122875 58.832750
32.988375 58.396000
31.945250 57.701375
31.001000 56.915500
30.177500 55.993625
29.426625 54.963750
28.860250 53.843125
28.575000 52.597625
28.325500 51.316125
28.105250 50.051250
27.912125 48.757375
27.424000 47.623875
26.972750 46.463250
26.846875 45.172125
26.846875 43.827250
27.915125 45.173875
28.414750 43.581250
29.834625 42.549625
31.502625 42.014875
33.270875 41.581125
35.157625 41.581125
36.984250 41.350375
38.863250 41.317375
40.728625 41.383375
42.319000 42.048750
43.692625 43.119500
44.494500 44.649750
44.434875 46.380750
43.971625 48.098250
43.307875 49.726750
42.510250 51.245250
41.617375 52.754875
40.733000 54.207125
39.682125 55.578500
37.992875 55.985000
36.242125 56.314625
34.355375 56.314625
32.959750 55.459250
31.783500 54.310000
30.758750 52.994625
29.867000 51.575500
29.152500 50.013000
28.508375 48.436500
28.047000 46.800500
27.849250 45.009000
}
