version: 1
n_points: 120
{
23.039750 23.949250
23.495875 23.317250
24.175125 22.901500
24.922750 22.673250
25.684500 22.447000
26.489125 22.371250
27.286750 22.444750
28.025250 22.730750
28.745750 23.074125
29.488375 23.363000
29.711500 23.816375
29.068500 24.295250
28.305375 24.529875
27.540500 24.754875
26.742500 24.858125
25.927875 24.858125
25.113250 24.858125
24.332750 24.708375
23.598500 24.424250
23.001875 23.961875
41.975125 23.259625
42.548500 22.715000
43.233875 22.303250
43.983875 22.026125
44.724875 21.737000
45.508875 21.618500
46.311500 21.641625
47.049000 21.933875
47.752500 22.309625
48.474375 22.630625
48.526125 23.237500
47.846750 23.642750
47.112750 23.904250
46.338500 24.033250
45.534500 24.056625
44.727875 24.056625
43.921250 24.056625
43.135375 23.939375
42.410375 23.671375
41.963375 23.212625
26.437125 42.815000
26.897750 41.827125
27.753000 41.005375
28.702000 40.244875
29.692875 39.587000
30.758625 38.993000
31.931125 38.625000
33.148125 38.430375
34.361000 38.208375
35.602875 38.152875
36.858000 38.152875
38.057000 38.041750
39.312000 38.041750
40.522125 38.271375
41.681000 38.676250
42.764375 39.293750
43.867875 39.800375
44.854125 40.464250
45.607375 41.421500
45.835250 42.601125
45.918500 43.834750
45.946250 45.083250
45.723750 46.286250
45.308000 47.423750
44.750500 48.481250
44.237500 49.546750
43.670625 50.602500
43.088625 51.638625
42.320375 52.574000
41.644875 53.509500
40.822625 54.404750
39.681875 54.720375
38.503250 55.025625
37.258125 55.081125
36.003000 55.081125
34.748000 55.081125
33.523750 55.072250
32.460625 54.526875
31.437250 53.971125
30.453250 53.269500
29.595875 52.462625
28.852500 51.503375
28.309375 50.444750
27.769750 49.393875
27.297375 48.289375
26.936625 47.205750
26.603625 46.061875
26.437125 44.849750
26.298375 43.642375
26.437125 42.509750
27.002750 44.464750
27.361875 42.835500
28.611500 41.942000
30.214375 41.335750
31.913500 41.156250
33.613875 40.951000
35.325625 40.797125
37.071625 40.745875
38.825000 40.745875
40.578375 40.745875
42.331750 40.745875
43.867125 41.272750
45.032875 42.416875
45.392000 44.068000
45.063125 45.712250
44.190250 47.169875
43.216375 48.538250
42.084500 49.807625
40.826750 50.936375
39.388375 51.843375
37.846625 52.357250
36.135625 52.620125
34.445250 52.518000
32.934750 51.843875
31.444625 51.086625
30.230625 49.971500
29.166125 48.705500
28.371625 47.321125
27.567000 45.930500
26.925875 44.490375
}
