version: 1
n_points: 120
{
21.895750 26.458875
22.400625 25.767125
23.123875 25.265875
23.894625 24.837125
24.711625 24.575750
25.570000 24.448500
26.434250 24.593000
27.237625 24.942875
27.972625 25.410625
28.709750 25.848500
29.010250 26.466875
28.309125 26.954875
27.476625 27.229875
26.612875 27.376000
25.756625 27.527625
24.885000 27.642625
24.002375 27.680375
23.147000 27.540375
22.434875 27.078375
21.870250 26.497000
41.302375 25.786625
41.905125 25.163250
42.638000 24.677000
43.424125 24.279500
44.206125 23.930625
45.078125 23.867875
45.957625 23.913250
46.783125 24.189125
47.548000 24.608125
48.306625 25.040125
48.443750 25.723500
47.753500 26.240750
46.961375 26.607125
46.120375 26.821750
45.251250 26.931125
44.367000 26.960500
43.483000 26.920875
42.647000 26.727125
41.891625 26.308375
41.277125 25.774000
27.879500 48.675250
27.946500 47.733125
28.439125 46.998000
29.000500 46.232125
29.690500 45.590750
30.389750 44.973625
31.146125 44.412250
31.893250 43.831000
32.606625 43.329125
33.541500 43.290875
34.499625 43.313250
35.460500 43.313250
36.343250 43.106000
37.274500 42.978125
38.128125 43.284750
38.896500 43.785250
39.571625 44.450375
40.136750 45.208875
40.615375 46.029375
41.143250 46.809250
41.566875 47.654000
41.842875 48.556625
41.999250 49.485250
41.999250 50.446125
41.999250 51.407000
41.865250 52.336500
41.597125 53.227375
41.262000 54.079875
40.858500 54.909750
40.250750 55.634750
39.545125 56.247125
38.791125 56.788625
37.941375 57.187250
37.034875 57.430375
36.095625 57.567000
35.144625 57.621875
34.185250 57.634000
33.333875 57.298875
32.489375 56.961375
31.644875 56.551375
30.893125 56.001500
30.182375 55.379250
29.651250 54.609000
29.130875 53.836250
28.692875 53.027625
28.357500 52.155625
28.191750 51.232000
28.028625 50.321125
27.826750 49.410375
27.790125 48.474125
29.700875 48.857375
30.078375 47.924500
30.778125 47.224750
31.690875 46.794875
32.655375 46.491125
33.707250 46.359250
34.762625 46.249750
35.852500 46.249750
36.868250 46.415125
37.690375 46.925750
38.675750 47.281000
39.544875 47.836250
40.305625 48.524625
40.449500 49.515000
40.001750 50.459875
39.528625 51.390875
39.044625 52.286125
38.503875 53.160500
37.807875 53.879375
36.857375 54.260875
35.816250 54.517500
34.746000 54.555500
33.754750 54.241625
32.807500 53.851250
32.016375 53.190125
31.382000 52.430750
30.893750 51.547125
30.356750 50.696375
30.014750 49.747750
29.652625 48.833125
}
