version: 1
n_points: 120
{
21.964000 25.949500
22.473625 25.222125
23.193625 24.674875
23.976000 24.234000
24.817375 23.977375
25.706250 24.084000
26.559250 24.372375
27.406250 24.678125
28.233500 25.036250
28.947750 25.525375
28.779625 26.310250
28.062250 26.817875
27.172625 26.977875
26.289375 27.189875
25.400250 27.337625
24.488375 27.372875
23.576500 27.342000
22.768750 27.002250
22.129875 26.453625
21.978875 25.801125
41.067250 25.581750
41.776000 24.993750
42.540875 24.461375
43.319250 23.965500
44.176875 23.603625
45.075250 23.434625
45.975500 23.629375
46.829875 23.924125
47.635250 24.343000
48.325500 24.929500
48.452125 25.726125
47.621125 26.104750
46.792375 26.526875
45.906250 26.754250
44.981875 26.796625
44.055625 26.723500
43.153875 26.579375
42.309125 26.277250
41.417750 26.104500
41.081375 25.497000
27.572500 50.497125
27.918875 49.427000
28.083750 48.301875
28.451875 47.267875
29.036500 46.316625
29.596125 45.356375
30.370250 44.528125
31.213125 43.861500
32.278000 43.675000
33.432750 43.753625
34.522625 43.994750
35.685000 43.957000
36.671000 43.595000
37.844250 43.595000
38.840625 44.045750
39.763500 44.673250
40.641125 45.401625
41.247000 46.377125
41.721250 47.426625
42.190250 48.460625
42.595375 49.477250
42.922375 50.550625
42.922375 51.723875
42.842500 52.878375
42.576000 53.962250
42.469375 55.100875
42.282875 56.221000
42.149625 57.355250
41.702875 58.319375
41.136875 59.242375
40.604000 60.163250
39.640375 60.654750
38.745750 61.236875
37.748625 61.663250
36.619500 61.769875
35.446250 61.769875
34.272875 61.769875
33.167250 61.609875
32.182375 61.156875
31.303375 60.562625
30.508875 59.776125
29.796375 58.957000
29.159625 58.053750
28.691750 57.067500
28.477625 55.931750
28.105375 54.920250
27.895750 53.808750
27.705750 52.740000
27.599125 51.606125
27.572500 50.443875
28.862875 50.747000
29.438375 49.457375
30.178125 48.251125
31.186500 47.365500
32.522875 46.912000
33.865500 46.568125
35.313125 46.435875
36.792875 46.435875
38.098500 46.915250
39.318875 47.634750
40.506375 48.319750
41.362000 49.402125
41.875750 50.659000
41.936375 52.065625
41.655000 53.453875
41.172375 54.756500
40.553250 55.925875
39.773500 57.008500
38.755500 57.914250
37.501250 58.515000
36.106000 58.761000
34.654375 58.840375
33.403500 58.373250
32.197875 57.732000
31.179250 56.924875
30.317500 55.856000
29.751750 54.672250
29.289250 53.396750
29.021500 52.013500
28.783500 50.641250
}
