version: 1
n_points: 120
{
22.031500 25.572750
22.582500 24.928500
23.266250 24.388750
24.052375 24.008750
24.850375 23.661875
25.744000 23.645125
26.621250 23.726000
27.335250 24.248250
28.118250 24.645125
28.854625 25.097625
29.026625 25.871750
28.279625 26.311875
27.443625 26.581500
26.603375 26.836125
25.744250 27.018125
24.856875 27.083500
23.959250 27.083500
23.176125 26.731375
22.470625 26.241625
22.005375 25.585750
41.436375 24.766500
42.037500 24.186250
42.813125 23.790125
43.623000 23.461625
44.393750 23.101000
45.263500 23.050875
46.148875 23.050875
46.960875 23.353250
47.661750 23.853000
48.303500 24.420250
48.280875 25.185500
47.597500 25.718500
46.777250 25.982125
45.920625 26.144125
45.044875 26.206750
44.161000 26.196500
43.298750 26.080625
42.511750 25.723375
41.763000 25.305375
41.411375 24.653875
27.370375 49.143750
27.749500 48.075375
28.282750 47.060625
28.756375 46.019750
29.369250 45.042625
29.975125 44.083625
30.822125 43.391625
31.986750 43.328000
33.110625 43.522875
34.245250 43.819125
35.442500 43.845000
36.601125 43.741625
37.782125 43.638250
38.858250 44.070375
39.832375 44.686750
40.745000 45.433000
41.519000 46.294375
42.114250 47.288750
42.532375 48.388125
42.746000 49.549625
43.085875 50.596375
43.215125 51.769500
43.215125 52.971000
43.107625 54.144750
42.870375 55.278375
42.698125 56.411000
42.465500 57.531875
41.975875 58.523625
41.503000 59.540750
40.966375 60.517250
40.007875 61.061750
38.943750 61.524875
37.803375 61.705875
36.653250 61.937250
35.458125 61.964250
34.256625 61.964250
33.154875 61.628250
32.138750 61.123750
31.180625 60.612625
30.410875 59.801250
29.782000 58.870250
29.179750 57.873500
28.836750 56.761875
28.481875 55.685125
28.089250 54.616250
27.835625 53.481750
27.566750 52.364375
27.318750 51.230375
27.370375 50.050250
27.396250 48.859500
28.378250 49.410625
29.024125 48.155750
30.071750 47.184250
31.455500 46.680750
33.012250 46.433250
34.576750 46.269750
36.176000 46.299125
37.595375 46.622000
38.990500 47.091625
40.462000 47.512125
41.752250 48.321875
42.574625 49.564500
42.850000 51.074250
42.499125 52.578000
42.087625 54.046875
41.490250 55.505750
40.823375 56.838375
39.889375 57.919250
38.505500 58.647500
37.032750 59.102625
35.481625 59.273750
33.887625 59.244375
32.639625 58.483625
31.470625 57.546875
30.491750 56.449125
29.741500 55.147750
29.258875 53.758125
28.906500 52.316625
28.495750 50.909750
28.437000 49.322625
}
