version: 1
n_points: 120
{
22.103250 26.055750
22.629750 25.419000
23.373375 24.979125
24.165625 24.661250
24.985000 24.457750
25.855375 24.457750
26.704875 24.572250
27.447625 24.983250
28.170000 25.420125
28.926000 25.810375
28.828125 26.506000
28.097500 26.922750
27.305375 27.217875
26.441250 27.276000
25.575250 27.319500
24.714000 27.377625
23.843625 27.377625
23.051500 27.112000
22.350125 26.607625
22.146875 25.925000
41.500625 25.496625
42.046875 24.928375
42.718500 24.444000
43.449125 24.046375
44.225750 23.753875
45.056500 23.678375
45.887000 23.774875
46.695125 23.978875
47.375125 24.461125
48.061875 24.940500
48.210500 25.587750
47.546250 26.092375
46.769250 26.401625
45.966375 26.628250
45.136375 26.720000
44.295875 26.715000
43.478500 26.569750
42.703625 26.357500
41.989750 25.963375
41.456500 25.441625
26.372500 47.672750
26.720375 46.608250
27.358375 45.674625
28.076375 44.756875
28.907000 44.031625
29.935250 43.520000
31.053250 43.170250
32.249500 43.185125
33.372625 43.518500
34.535500 43.588750
35.735250 43.588750
36.908375 43.513375
38.095625 43.483375
39.198000 43.878500
40.256250 44.352125
41.326250 44.853500
42.214125 45.597250
42.947875 46.517500
43.591750 47.489000
44.157375 48.502000
44.368625 49.653375
44.346125 50.849375
43.937500 51.907875
43.657250 53.009125
43.262000 54.061000
42.945875 55.169125
42.694875 56.290000
42.246250 57.304625
41.548875 58.252625
40.749625 59.026500
39.690625 59.556000
38.646000 59.988125
37.486500 60.235750
36.300000 60.293750
35.104625 60.267500
33.963500 60.031125
32.840875 59.806125
31.774375 59.372000
30.774875 58.846750
29.943125 58.074125
29.218125 57.178750
28.664875 56.184125
28.245500 55.109625
27.852750 54.027500
27.527500 52.933875
27.093000 51.863250
26.627375 50.826000
26.425250 49.690125
26.346125 48.517250
26.346125 47.462000
27.097625 48.144000
27.767500 46.841750
29.223875 46.484000
30.809500 46.273250
32.395625 46.088750
34.023000 46.088750
35.650375 46.088750
37.277750 46.088750
38.857625 46.299500
40.407625 46.668375
41.865000 47.217000
43.110250 48.136500
43.618250 49.552000
43.332625 51.082250
42.865250 52.548250
42.183375 53.956750
41.190125 55.055500
39.910750 55.988125
38.560000 56.786375
37.082125 57.339625
35.454750 57.339625
33.863625 57.524125
32.460500 56.970750
31.197500 56.096000
30.137125 54.968250
29.284500 53.693125
28.517125 52.409125
27.889500 50.992500
27.282000 49.620625
27.097625 48.117625
}
