version: 1
n_points: 120
{
23.604375 25.846375
24.092500 25.400375
24.692125 25.070750
25.348375 24.894875
26.021625 24.777125
26.702500 24.725000
27.387750 24.730500
28.050500 24.882125
28.590000 25.270375
29.142500 25.637750
29.623250 25.889750
28.981000 26.083500
28.295625 26.083500
27.612500 26.122000
26.936750 26.220125
26.253250 26.247500
25.567750 26.247500
24.882375 26.247500
24.226375 26.111875
23.631750 25.846375
42.509500 25.249625
42.976500 24.806625
43.542125 24.479875
44.157375 24.263000
44.791125 24.109000
45.444125 24.074375
46.102000 24.074375
46.753750 24.141125
47.391500 24.269750
47.972500 24.568625
48.217250 24.918375
47.592375 25.112625
46.959875 25.286750
46.322375 25.444125
45.672750 25.520125
45.016250 25.538125
44.358375 25.538625
43.700500 25.538625
43.047500 25.500000
42.509500 25.220750
29.249625 41.412750
29.264500 40.710375
29.512375 40.051375
29.635125 39.359375
29.983500 38.754875
30.462500 38.230875
31.033750 37.854125
31.691000 37.604625
32.359875 37.396250
33.071625 37.335125
33.788750 37.335125
34.500000 37.379625
35.211750 37.409250
35.925250 37.439000
36.639000 37.409250
37.332000 37.238375
38.014500 37.038625
38.716500 36.964500
39.433625 36.964500
40.138875 37.019375
40.735750 37.404125
41.283125 37.856750
41.701875 38.423625
42.001250 39.062875
42.105000 39.756250
42.105000 40.473375
42.105000 41.190500
42.105000 41.907625
42.001500 42.597875
41.670625 43.228250
41.155750 43.711250
40.579000 44.113500
39.951625 44.444750
39.299750 44.732250
38.600250 44.870375
37.886750 44.912000
37.171375 44.926750
36.456500 44.954250
35.745625 45.015750
35.028500 45.015750
34.338875 44.868000
33.682625 44.630000
33.018875 44.384750
32.362000 44.102375
31.741500 43.752375
31.164250 43.341500
30.606875 42.900750
30.059875 42.454875
29.630375 41.897250
29.234750 41.383000
29.917250 42.614000
30.468875 41.970125
31.202375 41.479375
31.941875 41.012375
32.825375 40.957375
33.696125 41.091250
34.575000 41.166000
35.466375 41.180375
36.357500 41.168125
37.220750 40.997250
38.077375 40.802750
38.964000 40.840125
39.781250 41.172125
40.556875 41.587375
41.318000 42.014250
41.168625 41.936750
40.415500 41.530750
39.652000 41.116625
38.838375 40.845750
37.945125 40.845750
37.060375 40.893625
36.243875 41.196250
35.356625 41.244000
34.465125 41.230125
33.628125 41.021000
32.743250 40.973250
31.860500 41.005125
31.190250 41.516250
30.479000 41.990625
29.949125 42.582125
}
