version: 1
n_points: 120
{
23.891250 25.891000
24.386250 25.583250
24.897625 25.273375
25.445750 25.041375
26.040000 24.986875
26.643250 24.986875
27.246500 24.986875
27.844625 25.014875
28.383125 25.274500
28.773375 25.709750
29.047750 26.009375
28.453875 26.095875
27.860500 26.186000
27.266000 26.243125
26.662750 26.243125
26.059375 26.243125
25.456125 26.243125
24.852875 26.243125
24.253625 26.214625
23.872250 25.881500
42.975625 25.303000
43.471500 24.963125
44.018750 24.694750
44.598125 24.506000
45.200375 24.424250
45.816125 24.424250
46.431875 24.424250
47.036375 24.516125
47.617625 24.695000
48.156625 24.978625
48.029750 25.078250
47.422000 25.149125
46.840875 25.341375
46.250875 25.502250
45.648375 25.602125
45.033750 25.609625
44.417875 25.609625
43.802750 25.619750
43.193125 25.589125
42.985875 25.231500
28.744375 41.372750
28.914250 40.679125
29.213500 40.025500
29.610125 39.416375
30.009875 38.808125
30.373125 38.184875
30.870875 37.685250
31.533750 37.452250
32.261500 37.442375
32.990375 37.442375
33.719375 37.442375
34.439875 37.508875
35.158625 37.581750
35.887500 37.581750
36.598000 37.481875
37.282000 37.250250
37.984000 37.069000
38.699375 36.965500
39.419250 36.867875
40.135875 36.787250
40.798125 36.994750
41.370125 37.441250
41.883500 37.954000
42.340250 38.515125
42.747750 39.117750
43.042250 39.777500
43.169750 40.489125
42.928000 41.140625
42.348375 41.574375
41.783750 42.020000
41.194500 42.439500
40.569750 42.808750
39.926000 43.146125
39.287875 43.487875
38.604375 43.726125
37.899625 43.885375
37.182875 43.981000
36.458625 44.038000
35.730125 44.048750
35.001250 44.048750
34.275125 44.020875
33.556750 43.916500
32.837625 43.798375
32.166625 43.547500
31.525000 43.218250
30.861125 42.932875
30.192500 42.654125
29.521125 42.388750
28.950625 41.980500
28.716500 41.344875
29.656750 42.259375
30.332875 41.716500
31.098375 41.292125
31.897750 40.941750
32.737250 40.700500
33.611750 40.706500
34.483000 40.780625
35.359375 40.780625
36.230875 40.756000
37.090875 40.632250
37.960000 40.571125
38.836250 40.571125
39.692875 40.741375
40.527000 41.005500
41.284250 41.420500
41.201750 41.402125
40.405875 41.058750
39.606750 40.752500
38.762375 40.583375
37.892250 40.631500
37.024375 40.715125
36.159000 40.817625
35.285500 40.842250
34.409125 40.842250
33.559875 40.694375
32.685625 40.682000
31.836125 40.834625
31.062875 41.229375
30.298250 41.630125
29.718375 42.185375
}
