version: 1
n_points: 120
{
23.928125 26.148000
24.416375 25.763500
25.014375 25.549875
25.630250 25.401625
26.256625 25.322500
26.891000 25.290375
27.526375 25.274375
28.137000 25.407375
28.651375 25.774875
29.157250 26.151125
29.351250 26.420750
28.724000 26.518375
28.111750 26.677000
27.478750 26.709000
26.842250 26.709000
26.205875 26.709000
25.569375 26.709000
24.934500 26.689500
24.318125 26.547875
23.920125 26.107875
43.275250 25.608875
43.816375 25.132625
44.408500 24.711750
45.125000 24.573250
45.862750 24.572375
46.596625 24.622875
47.307875 24.800625
48.015875 25.007875
48.700500 25.269625
49.370375 25.569500
49.372500 25.749750
48.635000 25.754125
47.916375 25.905250
47.198125 26.067500
46.475500 26.192500
45.741250 26.232750
45.006625 26.212875
44.281125 26.105875
43.564750 26.001375
43.305375 25.578750
27.873375 41.687000
28.078375 40.944875
28.468250 40.244375
28.906250 39.571625
29.400500 38.949500
29.986375 38.409125
30.662375 37.990500
31.439125 37.890000
32.223125 38.038250
33.018500 38.127250
33.823375 38.143125
34.629500 38.143125
35.435500 38.143125
36.241500 38.143125
37.047625 38.143125
37.845500 38.077375
38.607000 37.850625
39.381500 37.659125
40.156375 37.494375
40.957875 37.462750
41.750250 37.535875
42.507500 37.799375
43.140000 38.268750
43.621875 38.911125
44.117375 39.537875
44.628000 40.158500
44.817750 40.922750
44.453875 41.581625
43.779625 42.016250
43.047000 42.350875
42.305750 42.663375
41.585750 43.008250
40.836000 43.299500
40.041750 43.404000
39.249375 43.534000
38.457625 43.662875
37.673375 43.841250
36.882250 43.949500
36.076125 43.949500
35.270125 43.949500
34.464125 43.949500
33.660625 43.928875
32.880625 43.762125
32.138625 43.462125
31.380375 43.207875
30.593250 43.051750
29.827750 42.830125
29.066250 42.580375
28.374625 42.181125
27.841750 41.687000
29.011250 42.309625
29.839375 41.800250
30.754000 41.471000
31.715875 41.277750
32.695875 41.201875
33.685000 41.201875
34.674000 41.201875
35.663125 41.201875
36.649125 41.232250
37.638250 41.232250
38.627250 41.232250
39.616375 41.232250
40.605375 41.232250
41.587000 41.282000
42.549750 41.459875
42.447500 41.475000
41.478125 41.384000
40.494625 41.338500
39.505625 41.338500
38.516500 41.338500
37.527500 41.338500
36.540875 41.323250
35.551750 41.323250
34.563750 41.308125
33.579250 41.277750
32.590250 41.277750
31.606000 41.281625
30.656875 41.496125
29.733875 41.769875
28.980875 42.249000
}
