version: 1
n_points: 120
{
23.224000 29.452500
23.967875 29.188250
24.743000 29.011375
25.530750 28.896750
26.305125 28.730375
27.090875 28.625375
27.878000 28.521875
28.667000 28.418625
29.463500 28.379875
30.263250 28.379875
30.092250 28.379875
29.292375 28.379875
28.497375 28.418500
27.716000 28.535000
26.953750 28.695250
26.174125 28.806375
25.397250 28.948500
24.624500 29.090625
23.852750 29.232875
23.133500 29.387875
41.219750 28.155750
42.055625 28.075750
42.914875 28.075750
43.774125 28.075750
44.633250 28.075750
45.483000 28.155750
46.328750 28.268625
47.159000 28.480375
47.994000 28.650875
48.835375 28.795250
48.822250 28.760250
48.011000 28.542125
47.180875 28.395500
46.329250 28.355625
45.507625 28.221500
44.670000 28.102375
43.810750 28.102375
42.951500 28.102375
42.092250 28.102375
41.233000 28.102375
27.308000 46.446750
28.049000 46.123750
28.726375 45.671375
29.458250 45.322875
30.151000 44.897000
30.850000 44.481250
31.562250 44.111500
32.330250 43.862375
33.119500 43.732750
33.935000 43.780250
34.730750 43.947000
35.548000 43.976500
36.362625 43.937750
37.119250 43.646875
37.912000 43.472625
38.699125 43.634625
39.459000 43.935875
40.219250 44.239750
40.991625 44.515875
41.748750 44.818625
42.463250 45.215125
43.194750 45.583500
43.901375 45.996125
44.577750 46.443875
44.396000 47.081750
43.900125 47.719375
43.299250 48.267125
42.602250 48.698375
41.986125 49.222750
41.375000 49.762375
40.664125 50.161625
39.956500 50.569500
39.258625 50.994375
38.468875 51.179250
37.651750 51.224750
36.830875 51.224750
36.012500 51.257250
35.203500 51.371000
34.382625 51.371000
33.582125 51.270625
32.820375 50.981875
32.051125 50.698375
31.302000 50.377625
30.628625 49.927250
29.976750 49.440500
29.376750 48.887625
28.868750 48.267500
28.320250 47.671625
27.817000 47.053250
27.324250 46.446750
31.559750 46.830250
32.091375 46.849250
32.707000 46.696875
33.347625 46.620625
33.985000 46.525375
34.633875 46.487250
35.287750 46.487250
35.941500 46.487250
36.595375 46.487250
37.249250 46.487250
37.903125 46.487250
38.557000 46.487250
39.201125 46.544500
39.830375 46.680750
39.867625 47.247125
39.284000 47.489875
38.701625 47.783625
38.087375 47.988000
37.446250 48.087500
36.801250 48.182750
36.147375 48.182750
35.493500 48.182750
34.839625 48.182750
34.185750 48.182750
33.544750 48.107875
32.922500 47.973250
32.287250 47.830750
31.683500 47.616000
31.216875 47.245125
31.578750 46.811125
}
