version: 1
n_points: 120
{
180.809 204.749
185.498 200.179
190.810 196.655
196.839 194.335
203.208 192.713
209.784 192.354
216.200 193.425
222.432 195.334
228.490 197.901
234.312 200.692
234.274 204.951
228.303 207.579
222.111 209.364
215.823 211.184
209.472 212.734
202.918 213.091
196.364 212.734
189.948 211.688
184.166 209.158
180.690 204.749
332.055 199.855
337.419 195.963
343.186 192.733
349.154 189.814
355.297 187.485
361.798 186.603
368.369 187.187
374.608 189.327
380.482 192.379
386.023 195.746
384.418 199.977
378.794 203.450
372.620 205.788
366.254 207.460
359.599 207.460
353.152 206.313
346.767 204.906
340.255 203.888
333.740 203.312
332.861 199.624
232.770 363.708
235.540 359.398
238.763 355.523
242.088 351.659
245.656 348.066
249.647 344.920
253.822 342.054
257.995 339.267
262.360 336.849
267.144 335.853
272.203 336.126
277.286 336.399
282.402 336.536
287.517 336.399
292.511 336.672
297.164 338.693
301.355 341.491
304.994 344.994
308.919 348.205
312.787 351.558
316.307 355.215
319.724 359.016
322.070 363.474
322.753 368.411
320.623 372.882
317.940 377.156
315.036 381.326
311.876 385.236
308.497 389.079
304.890 392.575
301.010 395.828
296.910 398.836
292.618 401.510
288.079 403.779
283.198 405.081
278.073 405.217
272.990 404.944
268.108 403.888
263.173 402.805
258.292 401.436
253.440 399.849
248.874 397.566
245.191 394.147
242.200 390.077
239.375 385.879
237.103 381.558
235.467 376.918
234.268 372.170
232.907 367.537
232.907 363.162
275.768 362.713
274.941 363.582
274.113 364.450
273.286 365.319
272.967 366.390
272.967 367.590
273.386 368.619
274.091 369.572
274.939 370.420
275.948 371.006
277.012 371.383
278.211 371.383
279.301 371.116
280.376 370.643
281.327 369.937
282.201 369.188
282.995 368.303
283.849 367.493
284.572 366.636
285.098 365.654
284.839 364.568
284.015 363.768
282.985 363.253
281.928 362.846
280.894 362.446
279.750 362.312
278.555 362.326
277.460 362.579
276.373 362.908
275.635 363.646
}
