version: 1
n_points: 120
{
172.762 208.682
177.763 205.255
182.552 201.411
188.076 198.573
194.099 197.030
200.511 196.925
206.702 197.782
212.476 199.899
217.857 202.656
222.559 206.518
225.891 209.509
220.926 212.689
214.730 213.616
208.350 213.826
201.988 214.036
195.583 214.172
189.212 214.455
183.018 213.616
177.409 211.545
172.867 208.682
322.401 205.868
327.477 202.191
332.655 198.857
337.906 195.620
343.370 192.886
349.402 192.025
355.687 191.850
361.762 192.726
367.415 194.864
372.536 198.006
374.614 201.405
369.904 204.939
364.029 206.744
357.909 207.620
351.811 208.584
345.580 208.934
339.267 208.934
332.968 208.846
326.950 208.058
322.051 206.306
196.777 347.422
201.199 340.949
206.358 335.046
212.573 330.368
219.398 327.240
226.664 325.004
234.540 324.511
242.384 324.092
250.344 323.952
258.304 324.092
266.241 324.371
274.233 324.371
282.193 324.511
290.120 324.232
297.980 323.673
305.796 322.835
313.656 322.276
321.530 322.882
329.274 324.053
336.765 325.639
342.763 330.240
347.964 336.000
352.122 342.313
351.229 349.905
348.156 356.749
344.965 363.690
341.499 370.484
337.107 376.965
331.148 382.076
324.921 386.915
318.462 391.419
311.817 395.689
304.681 398.579
296.960 399.809
289.079 400.367
281.141 400.786
273.171 400.926
265.245 400.647
257.541 399.250
249.863 397.784
242.254 396.074
235.345 392.556
228.564 388.461
222.409 383.671
216.790 378.229
211.681 372.524
206.715 366.599
202.225 360.470
198.024 354.257
196.916 347.282
207.947 346.074
215.483 339.750
226.390 339.091
237.358 339.590
248.136 341.086
259.007 342.269
270.002 342.707
280.878 342.084
291.696 340.837
302.557 339.672
313.274 337.992
324.105 336.721
334.940 337.345
345.167 339.465
343.897 348.772
337.525 357.537
328.810 364.023
318.988 368.836
309.257 373.858
299.140 377.405
288.255 378.497
277.258 378.871
266.220 378.996
255.393 377.749
244.921 375.660
234.671 372.156
224.935 367.303
215.605 362.036
208.316 355.048
207.947 345.825
}
