version: 1
n_points: 120
{
179.254 205.695
184.148 201.656
189.705 198.528
195.535 195.963
201.716 194.733
208.019 195.061
214.349 195.736
220.462 197.216
226.339 199.476
231.611 202.791
231.331 207.451
225.683 209.883
219.475 211.175
213.308 212.668
207.059 213.605
200.697 214.093
194.299 213.827
188.108 212.818
182.762 209.791
178.723 205.960
329.724 201.995
334.795 197.567
340.448 193.851
346.306 191.176
352.600 189.197
359.205 187.861
365.947 187.861
372.162 190.384
378.386 193.162
384.342 196.296
385.755 200.717
379.727 203.702
373.459 206.224
366.932 207.893
360.173 208.227
353.342 208.227
346.617 207.782
340.009 206.804
333.516 205.453
329.613 201.884
224.517 367.843
226.900 362.132
229.072 356.467
232.517 351.262
236.592 346.472
240.999 341.946
245.433 337.512
250.035 333.267
254.803 329.341
260.631 327.500
266.888 327.084
272.375 329.263
278.646 329.348
284.916 328.872
291.091 327.632
296.985 325.528
302.732 326.326
307.549 330.265
312.182 334.542
316.739 338.867
321.206 343.285
325.708 347.668
330.203 352.073
335.018 356.092
339.257 360.543
342.862 365.267
341.239 370.970
337.230 375.770
333.248 380.556
328.701 384.911
323.729 388.764
318.869 392.671
313.741 396.196
308.207 399.139
302.211 400.862
296.195 402.286
289.918 402.613
283.595 402.763
277.263 402.644
270.916 402.644
264.694 401.814
258.649 400.117
252.723 398.062
247.047 395.296
241.379 392.602
236.682 388.589
232.536 383.950
228.702 379.061
225.659 373.584
223.682 368.201
248.909 363.506
252.816 359.475
257.469 356.624
262.536 354.215
267.815 352.726
273.263 351.532
278.823 350.867
284.455 350.991
289.959 351.735
295.528 352.244
301.012 353.117
306.319 354.680
311.594 356.438
316.301 359.400
320.619 362.435
321.548 366.530
316.684 368.838
311.346 370.322
305.815 370.989
300.239 371.313
294.587 371.313
288.993 371.065
283.381 370.817
277.764 370.605
272.153 370.322
266.526 370.164
260.918 369.950
255.325 369.702
250.891 367.881
248.909 363.630
}
