version: 1
n_points: 120
{
179.585 211.451
184.123 207.113
189.356 203.817
195.307 201.828
201.221 200.031
207.404 199.222
213.505 200.224
219.079 202.222
224.602 204.239
230.100 206.935
230.470 211.268
225.110 214.299
219.248 216.506
213.183 218.267
207.031 219.269
200.730 219.470
194.416 219.217
188.314 218.171
182.946 215.413
179.786 211.751
327.460 208.308
332.428 204.167
337.275 200.040
342.530 196.844
348.121 194.246
354.425 193.833
360.655 194.611
366.807 196.004
372.836 197.762
377.870 201.541
378.989 205.548
373.332 208.607
367.829 211.881
361.985 213.999
355.581 214.511
349.202 213.891
343.073 212.289
337.003 210.686
330.551 210.376
328.184 207.687
224.352 365.000
227.462 360.772
231.005 356.922
234.635 353.297
238.634 350.004
243.184 347.402
247.862 344.953
252.306 342.574
257.310 341.434
262.574 341.434
267.741 342.191
272.894 342.986
278.113 343.211
282.969 341.462
287.684 339.489
292.625 337.943
297.821 338.040
302.677 339.904
307.356 342.207
311.949 344.717
316.448 347.414
320.855 350.198
325.074 353.272
329.245 356.429
333.067 359.863
336.652 363.488
333.260 367.035
328.649 369.511
324.309 372.397
319.971 375.280
315.379 377.792
310.912 380.530
306.120 382.705
301.058 384.170
295.924 385.291
290.774 386.273
285.551 386.820
280.303 387.304
275.021 387.498
269.751 387.259
264.541 386.626
259.414 385.577
254.340 384.358
249.409 382.571
244.871 379.991
240.806 376.701
236.781 373.469
232.617 370.355
228.439 367.285
224.449 364.515
226.600 365.267
233.543 362.515
240.879 361.548
248.293 360.755
255.693 359.988
263.233 359.868
270.754 359.628
278.323 359.628
285.884 359.675
293.413 359.868
300.905 360.228
308.204 361.320
315.491 362.627
322.981 363.107
330.343 363.512
327.308 363.707
319.985 362.627
312.754 361.353
305.384 360.296
298.056 359.065
290.553 358.788
283.040 358.548
275.700 359.628
268.216 359.988
260.830 360.708
253.318 360.948
245.983 361.668
238.811 362.987
231.746 364.667
227.080 365.267
}
