version: 1
n_points: 120
{
172.861 214.421
177.424 209.770
182.765 206.182
188.279 203.076
194.269 201.264
200.679 200.754
206.940 201.893
212.857 204.218
218.506 207.194
223.661 210.991
225.315 214.896
219.507 217.731
213.685 220.335
207.422 221.737
201.010 222.481
194.532 222.821
188.016 222.832
181.669 221.828
176.296 218.986
172.510 214.947
322.089 210.929
327.050 206.432
332.413 202.576
337.960 199.107
344.114 196.549
350.635 195.614
357.219 196.297
363.472 198.399
369.318 201.245
374.988 204.660
375.116 208.720
369.995 212.912
364.069 215.686
357.627 216.829
350.980 217.426
344.290 217.194
337.751 216.498
331.290 215.297
325.057 213.781
322.205 210.465
215.848 371.042
218.200 365.477
221.428 360.537
224.556 355.473
228.097 350.820
232.263 346.707
236.270 342.248
241.141 338.906
247.126 338.413
253.014 339.638
258.928 340.871
264.819 341.861
270.826 342.199
276.513 340.463
282.042 338.129
287.869 337.305
293.485 339.370
298.894 342.137
304.130 345.145
309.328 348.240
314.548 351.294
319.440 354.832
324.198 358.482
328.872 362.170
332.818 366.618
332.449 372.174
329.059 376.771
324.439 380.649
320.322 384.892
315.653 388.682
311.419 392.933
307.038 397.106
301.991 400.369
296.568 403.071
290.777 404.778
284.842 405.913
278.778 406.256
272.654 406.256
266.589 406.009
260.569 405.485
254.646 404.415
248.843 402.807
243.299 400.404
238.099 397.356
233.217 393.836
229.213 389.455
225.368 384.871
222.027 379.929
219.028 374.960
215.725 370.549
235.150 368.062
239.172 364.226
243.982 361.515
249.181 359.289
254.789 358.472
260.535 358.046
266.265 358.420
271.929 359.112
277.639 359.538
283.406 359.431
289.103 359.751
294.593 360.710
299.758 362.452
304.866 364.470
309.823 366.826
309.843 371.038
305.697 374.765
300.117 375.414
294.348 375.201
288.580 374.988
282.794 375.094
276.983 375.094
271.172 375.094
265.431 375.094
259.645 375.201
253.834 375.201
248.111 375.414
242.489 374.775
237.719 372.229
235.364 367.955
}
