version: 1
n_points: 120
{
177.699 209.471
182.830 205.083
188.605 201.549
194.619 198.580
201.088 196.654
207.838 196.212
214.580 196.654
220.907 198.754
227.060 201.555
232.997 204.216
235.179 208.677
229.083 210.687
222.419 211.421
215.984 213.063
209.508 214.783
202.807 215.328
195.977 215.328
189.391 214.544
183.266 212.310
177.810 209.913
330.008 203.129
335.284 199.160
341.207 196.113
346.982 192.953
352.987 190.603
359.654 190.167
366.364 190.385
372.686 191.783
378.716 194.426
384.284 197.826
385.039 202.026
379.305 205.220
373.194 207.812
366.760 209.337
360.066 209.555
353.373 209.228
346.766 208.575
340.223 207.898
334.022 206.489
329.790 203.346
219.485 365.842
222.887 360.106
226.093 354.428
229.052 348.633
232.225 343.110
236.391 337.957
241.624 333.898
247.432 330.960
253.880 330.294
260.546 330.787
267.161 331.608
273.521 332.882
280.076 333.268
285.989 330.925
291.902 328.762
298.395 329.037
304.616 331.158
310.823 333.574
317.048 336.060
323.145 338.770
329.087 341.745
335.127 344.561
340.664 348.143
345.612 352.576
347.754 358.096
347.342 364.621
344.841 370.541
340.692 375.690
335.966 380.103
331.212 384.719
326.618 389.451
321.391 393.581
315.630 396.942
309.326 399.077
302.863 400.170
296.304 401.074
289.578 401.137
282.875 400.934
276.261 400.240
269.631 399.587
263.114 398.422
256.600 397.429
250.180 395.918
243.881 393.858
237.796 391.409
232.367 387.788
228.197 382.656
224.567 377.333
221.610 371.675
219.073 366.392
229.330 365.190
235.585 360.582
242.157 356.488
248.087 352.930
255.158 349.865
262.842 348.904
270.760 348.844
278.606 349.432
286.448 350.020
294.295 350.490
302.043 351.273
309.549 352.725
316.796 355.180
323.638 358.832
330.426 361.897
331.981 365.676
325.244 368.978
317.649 370.482
309.896 371.188
302.019 371.423
294.143 371.188
286.276 370.835
278.372 370.718
270.543 371.306
262.722 371.776
254.818 371.894
247.032 371.541
239.252 371.070
231.925 369.777
229.682 364.838
}
