version: 1
n_points: 120
{
174.882 215.334
179.121 210.796
184.279 207.112
189.860 204.359
195.971 203.148
202.272 202.150
208.638 202.365
214.371 204.998
219.750 208.407
225.014 211.873
225.997 214.652
220.641 218.013
214.853 220.624
208.715 222.229
202.439 223.138
196.125 223.972
189.744 224.205
183.758 222.695
178.375 219.661
174.882 215.258
323.415 211.292
328.536 207.284
333.734 203.295
339.220 199.830
345.224 198.161
351.771 197.382
358.425 197.382
364.690 198.828
370.742 201.181
375.880 204.838
375.785 208.779
370.467 212.561
364.770 215.655
358.537 217.157
351.891 217.413
345.257 217.191
338.874 216.073
332.588 214.631
326.318 213.528
323.971 210.625
220.702 372.569
223.986 367.485
227.174 362.324
230.690 357.487
234.923 353.220
238.221 348.356
242.086 343.897
247.482 341.932
253.422 342.851
259.176 344.568
265.064 345.757
271.085 346.251
276.449 344.088
281.946 341.677
287.737 340.312
293.624 341.277
298.937 344.204
304.016 347.506
309.286 350.526
314.299 353.909
319.206 357.356
324.218 360.758
329.172 364.248
333.830 367.710
336.401 371.185
332.495 375.652
328.756 380.315
324.346 384.455
319.959 388.573
315.649 392.747
311.326 396.873
306.786 400.923
301.796 404.296
296.427 406.982
290.602 408.605
284.464 408.605
278.326 408.605
272.188 408.605
266.071 408.740
259.933 408.740
253.952 408.089
248.249 406.655
243.009 403.765
237.970 400.435
233.263 396.737
229.517 392.316
226.478 387.388
224.751 381.917
222.862 376.878
220.567 372.164
239.981 369.241
244.617 365.694
249.014 362.540
254.135 360.776
259.842 360.229
265.647 360.366
271.508 360.366
277.270 359.820
283.067 359.547
288.782 359.683
294.321 360.842
299.700 362.328
304.848 364.462
309.481 367.251
309.404 372.596
306.307 377.229
302.199 381.143
297.362 384.244
292.279 386.717
286.701 387.402
280.905 387.675
275.044 387.675
269.215 387.538
263.590 386.644
258.016 385.427
252.681 383.716
247.941 381.394
244.141 377.771
240.762 373.709
240.254 369.378
}
