version: 1
n_points: 120
{
181.871 210.671
186.722 206.555
192.000 202.877
197.342 199.333
203.373 197.549
209.882 197.234
216.273 197.969
222.191 200.231
227.602 203.532
232.731 206.629
234.281 210.775
228.675 213.407
222.541 215.139
216.355 216.549
209.983 217.284
203.611 218.019
197.115 218.229
190.854 217.179
185.206 214.845
181.766 211.090
332.491 207.139
336.962 202.865
341.748 198.977
346.973 196.138
352.611 194.379
358.831 194.111
364.892 194.708
370.766 196.342
376.409 198.747
381.549 201.635
381.585 205.382
376.824 209.049
371.332 211.586
365.280 212.751
359.033 213.007
352.950 212.410
346.835 211.614
340.725 210.918
334.729 210.023
333.486 206.145
225.509 364.287
229.008 360.016
232.871 356.243
236.850 352.536
241.198 349.339
245.712 346.244
250.273 343.211
254.881 340.322
259.521 337.663
264.569 336.101
269.778 336.925
274.979 338.333
280.226 339.511
285.323 338.301
290.252 336.121
295.484 334.964
300.754 335.874
305.911 337.660
310.910 339.981
315.697 342.620
320.297 345.573
324.797 348.637
329.131 351.941
333.218 355.500
337.084 359.140
340.879 362.821
338.314 366.303
333.565 368.734
328.803 371.352
324.015 373.959
319.202 376.562
314.524 379.320
309.572 381.718
304.645 384.104
299.378 385.732
293.948 386.336
288.429 386.450
282.938 386.223
277.475 385.768
271.948 385.655
266.422 385.541
260.950 385.086
255.603 384.177
250.433 382.603
245.701 380.047
241.076 377.129
236.669 374.073
232.328 370.880
228.590 367.028
225.736 363.265
229.185 365.373
236.687 363.762
243.905 361.493
250.972 358.627
258.309 356.576
265.867 355.566
273.609 355.394
281.359 355.566
289.047 355.996
296.684 356.787
304.208 358.147
311.676 359.663
319.166 361.414
326.607 363.137
334.141 364.169
331.390 364.427
324.100 362.847
316.891 360.920
309.787 358.745
302.428 357.130
294.969 356.067
287.235 355.910
279.536 355.738
271.806 355.738
264.070 355.824
256.798 356.942
249.861 359.093
243.208 362.104
236.170 364.169
229.616 365.287
}
