version: 1
n_points: 120
{
173.988 212.836
178.783 208.301
184.528 205.092
190.506 202.558
196.773 200.855
203.220 200.595
209.768 201.506
216.013 203.440
221.877 206.289
227.133 210.243
227.187 214.464
221.281 217.058
215.175 219.640
208.799 220.910
202.257 221.687
195.605 221.952
189.059 221.431
182.857 219.941
177.374 217.059
173.597 213.357
319.874 211.946
324.808 207.119
330.526 203.293
336.525 199.955
342.605 196.931
349.246 195.737
356.188 195.952
362.932 196.871
369.026 200.187
374.830 203.518
377.468 208.178
372.111 212.329
365.730 215.052
359.164 217.098
352.224 217.420
345.268 217.236
338.715 215.703
332.364 213.556
325.721 212.482
320.196 211.946
216.111 370.442
219.954 365.564
223.010 360.308
226.621 355.248
230.523 350.421
234.631 345.839
239.760 342.373
245.424 340.153
251.551 339.945
257.728 340.477
263.871 341.316
269.953 342.354
276.167 342.612
281.959 340.819
287.738 338.600
293.830 337.823
299.630 339.795
304.986 342.950
310.319 346.160
315.133 349.990
320.119 353.713
324.555 357.961
329.224 361.954
333.613 366.140
336.361 370.769
333.332 375.983
329.305 380.671
325.310 385.426
321.159 390.017
317.415 394.825
312.895 399.086
308.041 403.009
302.849 406.414
297.148 408.970
291.074 410.051
284.848 410.439
278.608 410.827
272.373 410.698
266.232 409.792
260.172 408.458
254.194 406.824
248.430 404.593
243.042 401.515
237.944 398.058
233.484 393.898
229.154 389.537
225.408 384.658
221.584 379.927
218.530 374.802
216.629 369.795
235.609 369.055
239.814 364.737
244.955 361.801
250.429 359.574
256.366 358.671
262.395 358.107
268.456 358.107
274.584 358.220
280.684 358.445
286.720 358.897
292.731 359.574
298.724 360.364
304.529 361.416
309.806 364.111
313.260 368.176
312.235 373.927
308.583 378.617
302.836 380.003
296.729 380.115
290.575 380.115
284.435 380.003
278.294 379.890
272.140 379.890
266.031 379.664
259.904 379.777
253.776 379.890
247.924 379.112
242.645 376.862
238.092 373.340
235.270 369.280
}
