version: 1
n_points: 120
{
179.225 205.806
183.713 201.924
188.696 199.164
193.991 196.799
199.730 195.703
205.756 195.501
211.696 196.006
216.891 198.371
221.733 201.639
226.352 205.147
231.052 206.833
226.324 209.544
220.322 209.381
214.296 209.240
208.284 209.038
202.265 208.836
196.295 208.429
190.366 208.028
184.498 207.523
179.124 206.210
329.018 202.789
333.946 199.170
339.161 196.022
344.561 193.144
350.284 190.985
356.268 189.512
362.400 189.122
368.425 189.803
374.297 191.410
379.535 194.386
378.615 198.306
372.758 199.742
366.727 200.480
360.788 201.496
354.800 202.629
348.899 203.897
342.869 204.543
336.853 205.111
330.773 205.467
329.480 202.420
195.983 341.073
202.207 335.286
209.375 330.684
217.160 327.021
225.328 324.201
233.529 322.426
241.973 321.406
250.561 320.677
259.203 320.677
267.680 321.406
276.243 321.989
284.920 321.843
293.381 320.698
301.967 320.095
310.573 319.512
319.002 318.492
327.664 318.704
336.198 319.658
344.447 321.843
352.087 325.234
358.753 330.461
365.409 335.530
367.049 343.182
364.389 351.240
361.044 358.979
356.226 365.989
350.695 372.394
345.339 378.880
339.434 384.966
333.762 391.220
326.921 396.353
318.833 399.282
310.373 400.364
301.778 400.947
293.078 400.947
284.395 401.093
275.729 401.238
267.145 400.656
258.757 399.194
250.339 397.451
242.161 394.827
234.789 390.525
227.605 385.874
221.125 380.345
215.151 374.309
209.226 368.155
203.348 362.131
198.680 355.424
195.418 348.082
195.983 340.781
204.027 344.404
212.025 336.606
224.123 335.407
236.462 335.856
248.678 337.112
260.791 338.706
272.989 339.895
285.253 339.073
297.360 337.087
309.363 335.107
321.415 333.157
333.648 332.257
345.987 331.807
357.820 333.840
359.392 344.099
352.486 354.006
343.234 361.928
333.364 369.227
322.127 374.270
310.460 378.193
298.311 379.945
285.925 379.945
273.601 379.195
261.313 378.146
249.066 376.971
237.137 374.681
226.707 368.566
217.221 360.899
207.623 353.399
204.477 344.854
}
