version: 1
n_points: 120
{
183.090 191.073
187.807 186.575
193.109 182.701
199.037 179.809
205.459 178.237
212.029 177.579
218.611 177.937
224.899 179.778
230.599 182.845
236.440 185.290
236.717 189.668
230.759 192.444
224.797 195.127
218.468 196.836
211.895 197.406
205.291 197.985
198.618 197.985
192.118 197.068
186.190 194.803
183.529 190.634
333.958 184.583
339.197 180.496
344.898 176.980
351.189 174.537
357.554 172.727
364.248 172.253
370.920 172.816
377.334 174.179
382.994 177.385
388.233 181.325
388.614 186.063
382.439 188.665
375.854 189.999
369.192 190.806
362.428 191.036
355.631 191.036
349.038 190.345
342.516 189.265
336.234 187.205
334.764 184.122
215.660 355.957
218.264 345.814
224.247 337.126
228.446 327.751
232.502 318.752
241.470 313.573
251.437 310.022
261.806 307.891
272.609 307.417
283.468 307.180
293.963 306.541
304.358 305.286
315.063 305.996
324.970 309.548
334.835 313.100
344.729 316.782
351.972 323.682
357.728 332.254
361.204 341.675
363.174 351.816
363.648 362.534
361.990 372.762
358.675 382.207
355.055 391.681
351.966 401.262
349.914 411.411
347.783 421.569
345.160 431.527
340.917 440.934
335.945 449.958
330.571 458.411
321.447 462.035
311.568 465.350
301.494 467.481
290.845 468.428
280.294 467.244
269.996 465.350
260.422 461.808
252.876 455.684
245.510 448.791
241.706 439.411
237.982 430.135
233.655 421.151
228.969 413.258
225.047 404.414
222.526 394.778
220.395 384.747
218.264 374.854
215.300 365.306
214.949 355.010
222.076 356.649
228.932 344.165
240.497 336.184
254.256 331.937
268.442 329.735
283.423 329.001
298.288 327.778
313.529 327.778
328.351 329.001
341.893 333.614
351.703 343.388
359.338 354.893
355.766 368.540
351.144 381.480
346.859 394.947
341.482 408.265
333.870 420.286
324.863 431.740
315.521 442.040
301.930 446.445
287.166 447.913
272.632 446.445
260.709 440.058
252.401 429.548
243.962 418.662
238.059 406.153
231.618 394.583
225.012 383.224
221.342 370.077
221.831 355.671
}
