version: 1
n_points: 120
{
181.796 205.443
186.551 201.007
191.847 197.284
197.852 194.633
204.158 193.372
210.788 193.313
217.293 193.647
223.480 195.514
229.086 198.651
234.381 202.051
233.458 205.777
227.724 208.743
221.541 210.833
215.108 211.898
208.555 212.454
201.983 212.788
195.547 213.344
189.430 211.898
183.870 209.186
182.241 204.553
331.775 202.089
336.396 197.335
342.069 193.842
348.028 190.800
354.311 188.719
360.847 188.110
367.581 187.998
373.980 189.360
380.091 191.633
385.931 194.502
386.857 199.325
381.194 202.703
374.821 204.476
368.304 205.613
361.635 206.181
354.928 206.408
348.214 206.295
341.581 205.840
335.165 204.807
332.230 201.521
222.624 359.174
225.083 352.949
227.761 346.921
231.212 341.146
235.261 335.790
238.510 329.870
242.347 324.520
247.956 320.948
254.419 319.482
261.155 319.092
267.726 320.233
274.051 322.368
280.586 323.158
286.951 321.492
293.192 319.237
299.854 318.656
306.301 320.417
312.351 323.365
318.234 326.678
323.809 330.540
329.568 334.137
334.732 338.500
339.816 342.900
343.806 348.265
346.830 354.169
348.072 360.533
345.567 366.560
341.188 371.603
336.665 376.582
332.224 381.583
327.202 386.105
321.882 390.038
316.387 393.772
310.233 396.339
303.684 397.907
296.943 398.385
290.144 398.385
283.377 398.094
276.639 397.659
269.973 396.936
263.569 394.897
257.062 393.018
250.893 390.268
245.089 386.834
239.347 383.365
234.537 378.784
229.800 374.047
225.400 369.067
221.532 364.037
222.624 358.593
233.987 360.529
239.262 355.677
245.504 352.050
251.742 348.394
258.386 345.520
265.381 343.848
272.519 342.834
279.781 342.869
287.066 343.010
294.316 343.434
301.530 344.108
308.633 345.412
315.289 347.918
321.779 351.022
327.588 355.235
330.587 359.892
325.081 364.429
318.405 367.132
311.236 367.876
303.934 367.876
296.645 368.017
289.343 368.017
282.058 367.876
274.819 367.452
267.574 367.028
260.330 366.604
253.167 365.839
246.101 364.767
239.258 363.355
233.987 360.953
}
