version: 1
n_points: 120
{
185.407 215.981
191.177 212.841
196.947 210.068
202.962 207.588
209.228 205.925
215.769 205.625
222.018 206.775
228.081 208.949
233.703 211.890
238.969 214.831
237.131 218.599
231.462 221.479
225.063 222.502
218.685 223.805
212.211 224.676
205.735 225.401
199.189 225.818
193.123 223.909
187.829 220.704
186.047 215.598
335.760 215.792
341.373 211.659
347.169 207.899
353.034 204.193
359.333 201.202
366.103 200.350
372.987 201.091
379.664 202.842
386.025 205.455
391.314 209.899
394.817 213.465
388.255 215.456
381.689 217.852
375.173 220.339
368.283 221.186
361.272 221.291
354.318 220.762
347.510 219.599
341.000 217.695
335.971 215.474
220.831 379.443
224.992 372.547
229.525 366.190
234.452 359.858
239.063 353.375
244.298 347.407
250.816 343.027
258.594 342.432
266.408 343.526
274.383 344.072
282.182 345.030
290.246 345.001
298.085 343.733
304.569 339.215
312.278 337.874
319.389 341.116
325.962 345.645
331.558 351.241
336.643 357.420
340.981 364.103
344.920 370.984
349.367 377.474
351.008 385.080
350.644 393.084
349.798 401.008
347.967 408.680
344.606 415.746
339.447 421.816
333.663 427.418
327.656 432.696
321.624 437.983
314.532 441.620
306.918 444.060
299.097 445.625
291.033 445.990
282.953 446.172
274.889 446.537
266.796 446.719
258.732 446.355
250.939 444.726
243.481 441.727
236.696 437.514
232.864 431.067
231.585 423.376
228.363 416.328
224.956 409.206
223.355 401.447
222.472 393.519
221.925 385.623
221.925 378.531
231.702 378.815
239.479 372.658
247.959 368.197
257.365 365.174
266.774 363.339
276.607 362.259
286.603 361.899
296.598 362.259
306.067 364.710
315.242 367.678
324.311 371.223
332.744 376.519
340.862 381.802
348.312 387.719
342.191 394.833
335.608 402.136
327.736 408.178
319.235 413.238
310.081 416.872
300.544 419.484
290.653 420.204
280.615 420.384
270.548 420.384
260.794 419.004
251.657 415.875
243.141 411.617
236.222 405.289
232.973 396.641
231.523 387.175
232.062 378.455
}
