version: 1
n_points: 120
{
184.634 217.076
189.221 212.893
194.603 209.755
200.459 207.728
206.609 206.833
212.856 206.535
218.988 207.312
225.052 208.670
230.277 211.969
235.618 215.054
234.643 219.178
228.651 220.457
222.553 221.651
216.551 223.277
210.495 224.898
204.294 225.529
198.140 224.794
192.098 223.394
186.750 220.322
185.131 216.678
332.257 216.511
337.808 212.095
343.925 208.482
350.254 205.288
356.932 202.847
363.971 201.913
371.114 201.913
378.048 203.437
384.817 205.705
391.015 209.148
390.160 213.429
383.566 216.117
376.711 218.045
369.720 219.195
362.623 219.839
355.499 220.227
348.361 220.483
341.222 220.268
334.263 219.393
332.257 215.653
223.431 377.700
226.890 372.325
230.491 367.043
233.888 361.601
237.689 356.482
241.839 351.668
246.247 347.149
251.473 343.692
257.510 341.733
263.985 341.402
270.165 342.728
276.547 343.556
283.036 343.722
289.232 342.562
294.930 339.668
301.074 338.087
307.576 338.253
313.839 339.533
319.508 342.616
324.607 346.514
329.156 350.994
333.921 355.364
338.313 360.003
342.434 364.930
345.438 370.277
347.244 376.261
345.330 382.190
340.700 386.565
335.486 390.287
330.592 394.518
325.767 398.845
320.422 402.442
314.820 405.649
309.227 408.881
303.512 411.749
297.466 413.667
291.051 414.330
284.523 414.330
278.068 413.969
271.704 413.018
265.304 412.311
259.217 410.511
253.431 407.645
247.797 404.552
242.360 401.104
237.416 397.155
233.333 392.200
229.937 387.023
225.967 382.059
223.929 376.872
243.140 375.744
248.381 371.909
254.012 368.774
260.031 366.468
265.945 364.748
272.216 363.538
278.617 362.682
285.125 362.574
291.549 363.197
298.000 363.597
304.432 364.237
310.747 365.308
316.902 367.088
322.544 369.991
327.289 373.715
324.217 378.103
318.513 381.093
312.418 383.044
306.098 384.055
299.716 384.822
293.221 384.950
286.696 384.950
280.170 384.950
273.645 384.950
267.141 384.781
260.699 384.098
254.276 383.544
248.027 382.663
242.756 380.355
243.779 375.744
}
