version: 1
n_points: 120
{
181.721 198.294
186.470 194.144
192.079 191.162
197.885 188.614
203.967 187.532
210.277 187.166
216.410 188.113
222.164 190.399
227.668 193.387
233.069 195.571
232.984 199.725
227.696 202.655
221.547 203.622
215.434 204.924
209.245 205.724
202.881 205.871
196.538 205.635
190.447 204.687
185.263 201.836
182.076 198.531
328.019 195.988
333.682 192.082
339.370 188.337
345.158 184.748
351.152 181.787
357.841 180.427
364.658 179.925
371.192 181.433
377.498 184.084
383.560 186.989
384.683 191.404
378.872 194.657
372.305 195.988
365.533 196.683
358.721 197.243
351.928 197.891
345.189 198.624
338.353 199.126
331.561 198.749
328.396 195.361
203.546 335.040
213.446 329.520
225.964 329.811
238.738 329.811
251.421 329.375
264.090 329.666
276.790 330.120
289.464 330.682
302.015 329.956
314.348 328.504
326.949 327.632
339.140 325.599
351.597 324.582
363.567 326.569
364.776 335.993
357.193 345.238
346.548 351.816
335.561 358.072
323.866 362.524
311.693 365.543
299.236 367.103
286.579 367.867
273.805 367.867
261.327 366.502
249.411 363.202
237.771 359.970
226.014 356.927
215.204 352.325
207.050 344.064
203.982 334.459
195.900 332.875
203.251 328.122
211.109 324.284
219.090 320.650
227.077 317.165
235.333 314.557
243.686 312.122
252.216 310.506
260.929 310.342
269.389 311.866
278.067 312.645
286.766 312.196
295.029 309.545
303.321 307.217
312.009 306.723
320.707 307.381
329.278 308.862
337.848 310.506
346.306 312.745
354.601 315.349
362.682 318.320
370.264 322.367
374.851 328.626
373.347 336.871
368.958 344.196
363.474 350.666
357.593 356.865
351.164 362.485
344.631 368.030
337.832 373.348
330.642 378.171
322.841 381.660
314.651 384.741
306.279 386.659
297.618 387.317
288.813 387.317
280.047 387.153
271.359 386.659
262.816 385.499
254.367 383.737
245.901 381.889
237.853 378.935
230.448 374.332
222.837 370.028
215.543 365.348
208.353 360.460
201.925 354.855
197.519 347.817
194.749 340.160
195.900 332.217
}
