version: 1
n_points: 120
{
183.732 214.488
188.952 211.354
194.406 208.699
200.184 206.839
206.184 205.739
212.215 204.868
218.293 204.678
224.187 205.895
229.610 208.572
234.143 212.504
234.452 215.553
228.375 215.912
222.305 216.389
216.219 216.693
210.157 217.233
204.100 217.834
197.992 217.910
191.892 217.745
185.936 216.845
184.341 214.336
343.667 208.699
348.995 204.658
355.071 201.981
361.458 200.425
368.099 199.882
374.805 199.820
381.456 200.407
388.052 201.415
394.308 203.631
399.989 207.101
399.524 208.909
392.907 209.644
386.299 210.559
379.702 211.526
373.092 212.523
366.409 212.898
359.701 213.003
353.060 212.583
346.823 210.960
344.717 207.965
207.836 344.303
214.434 340.140
221.597 337.392
228.881 334.879
236.134 332.200
243.398 329.360
250.608 326.529
257.802 324.041
265.426 323.256
273.218 323.570
281.021 323.884
288.861 324.041
296.657 323.570
304.164 321.976
311.375 319.172
318.684 317.288
326.411 318.070
333.894 320.250
341.121 323.130
348.145 326.483
355.166 329.855
361.657 334.112
367.826 338.747
370.712 345.197
368.574 352.300
363.448 358.006
357.426 362.929
351.201 367.583
345.002 372.212
338.647 376.682
332.701 381.528
325.722 384.860
318.339 386.667
310.557 387.024
302.692 387.024
294.826 387.024
286.960 387.024
279.194 386.553
271.505 385.925
263.802 385.086
256.373 383.098
249.123 380.473
241.994 377.480
234.711 374.930
228.024 371.752
221.713 367.660
216.131 362.463
211.857 356.334
207.875 350.153
208.778 343.360
221.884 346.239
231.142 342.391
241.605 343.623
252.128 344.854
262.836 345.624
273.337 347.163
283.850 348.702
294.572 348.482
305.064 346.421
315.377 343.931
325.510 341.160
335.814 338.890
346.468 338.082
357.087 338.390
363.941 344.970
357.335 352.081
347.626 356.705
337.910 361.021
327.744 364.554
317.206 365.631
306.432 365.324
295.677 364.862
284.944 364.400
274.230 363.785
263.460 363.477
252.652 363.477
242.017 362.861
231.945 359.811
223.008 354.904
222.654 345.931
}
