version: 1
n_points: 120
{
182.094 209.999
187.370 207.328
192.699 204.854
198.216 202.846
203.926 201.612
209.738 201.104
215.611 201.104
221.431 201.739
226.967 203.463
231.543 206.840
231.524 210.763
225.814 211.651
219.931 211.905
214.024 212.032
208.100 212.032
202.213 211.778
196.310 211.651
190.387 211.651
184.542 211.414
183.110 209.872
341.772 205.289
346.997 201.908
352.721 199.406
358.611 197.548
364.815 196.960
371.096 196.843
377.259 197.716
383.353 199.229
389.398 200.934
395.243 203.056
393.672 205.289
387.538 206.162
381.323 206.912
375.084 207.424
368.829 207.795
362.552 208.007
356.252 208.007
349.967 207.910
343.791 207.424
342.257 204.803
224.985 330.600
227.122 324.582
230.163 319.057
233.195 313.407
236.900 308.219
240.713 303.140
246.060 300.152
252.326 299.098
258.699 299.229
264.893 300.284
271.276 300.679
277.669 301.075
284.032 301.470
290.458 301.602
296.842 301.155
303.026 299.621
309.178 298.043
315.428 297.043
321.778 296.593
328.132 296.725
334.268 298.248
339.858 301.372
344.898 305.260
348.735 310.134
351.652 315.681
352.443 321.895
351.127 327.960
346.099 331.522
339.829 332.313
333.528 332.972
327.582 334.635
322.528 338.418
317.189 341.865
312.094 345.634
306.420 348.536
300.363 350.640
294.030 351.162
287.642 350.766
281.211 350.634
274.828 350.239
268.489 349.448
262.181 348.400
256.204 346.190
250.424 343.518
245.368 339.911
240.044 337.009
233.783 337.009
228.298 339.035
224.326 335.433
225.248 329.677
234.356 338.070
240.894 334.020
247.785 330.729
254.969 328.284
262.418 327.000
270.079 326.480
277.790 326.610
285.517 326.610
293.231 326.710
300.932 326.880
308.618 327.131
316.345 327.131
323.999 327.521
331.516 328.693
338.670 331.103
337.152 331.428
329.753 330.095
322.217 329.084
314.490 329.084
306.815 328.824
299.180 328.433
291.548 327.912
283.944 327.391
276.278 327.131
268.647 327.697
261.107 328.693
253.680 329.906
246.837 332.470
240.051 335.613
234.487 338.330
}
