version: 1
n_points: 120
{
189.931 207.946
194.334 204.785
198.709 201.647
203.543 199.300
208.825 198.396
214.306 198.396
219.683 199.064
224.975 200.145
230.110 201.772
234.564 204.637
232.392 208.299
227.229 210.030
221.944 211.288
216.635 212.243
211.214 212.530
205.785 212.816
200.304 212.816
194.890 212.912
189.836 211.603
190.409 207.564
334.455 203.499
339.639 199.742
345.489 197.245
351.607 195.341
357.866 194.161
364.258 193.526
370.665 193.946
376.736 195.946
382.621 198.552
388.434 201.138
386.944 203.535
380.653 204.845
374.360 205.861
367.970 206.460
361.548 206.827
355.115 207.070
348.651 207.149
342.237 206.827
335.904 206.237
335.313 203.177
233.237 341.862
235.369 336.510
237.681 331.329
241.477 327.092
245.379 322.871
249.290 318.657
253.542 314.917
257.774 311.262
262.878 308.899
268.498 308.277
274.127 309.053
279.781 309.676
285.327 310.611
290.953 310.749
296.518 309.781
302.130 308.899
307.828 309.188
313.343 310.516
318.682 312.658
323.336 315.885
327.004 320.258
330.427 324.769
334.040 329.051
336.947 333.910
337.879 339.401
336.859 344.924
333.769 349.738
329.971 354.027
325.885 357.965
322.117 362.134
317.857 365.990
313.202 369.353
308.310 372.251
303.010 374.456
297.653 376.435
292.169 377.779
286.540 378.556
280.799 378.712
275.032 378.712
269.384 378.011
263.878 376.691
258.481 374.930
253.447 372.335
248.729 369.276
244.687 365.384
241.591 360.633
237.931 356.336
234.819 351.711
233.237 346.476
233.237 340.929
270.319 341.289
272.292 339.316
274.426 337.566
276.744 336.095
279.283 334.953
281.919 334.055
284.601 333.417
287.329 333.009
290.115 332.978
292.875 333.106
295.501 333.745
298.054 334.826
300.270 336.461
302.181 338.372
303.308 340.787
302.184 343.180
299.703 344.178
297.010 344.629
294.320 345.137
291.665 345.852
288.974 346.403
286.246 346.787
283.507 347.043
280.717 347.043
277.927 347.043
275.153 346.915
272.465 346.403
270.319 345.263
269.687 342.816
271.215 341.033
}
