version: 1
n_points: 120
{
181.907 195.966
186.937 191.895
192.274 188.364
197.830 185.412
204.089 184.443
210.537 183.982
216.917 184.421
222.865 186.600
228.382 189.779
234.086 192.048
234.492 196.158
228.955 198.814
222.979 200.575
216.806 201.958
210.550 203.110
204.132 203.456
197.720 202.995
191.894 201.497
186.162 199.299
182.137 195.966
333.610 190.151
338.658 186.555
343.930 183.411
349.755 181.120
355.789 179.655
361.897 178.752
368.095 178.977
374.062 180.445
379.700 182.553
384.964 185.553
385.261 190.419
379.501 192.657
373.682 194.664
367.619 195.794
361.412 196.246
355.142 196.359
348.912 196.165
342.807 195.397
337.414 193.390
333.385 190.377
199.842 332.650
206.270 326.832
214.013 322.823
222.196 320.132
230.587 317.930
238.775 314.841
246.819 311.972
255.061 309.446
263.610 308.341
272.325 308.815
281.034 309.315
289.729 309.920
298.497 309.868
307.192 309.130
315.993 309.288
324.743 309.762
333.518 310.077
342.016 311.472
350.029 314.610
357.809 317.970
365.474 321.701
372.915 326.021
373.639 333.775
370.541 341.431
368.118 349.535
363.773 356.645
357.229 362.315
351.365 368.650
345.045 374.528
337.915 379.424
331.089 384.672
323.775 389.145
315.550 391.477
306.828 392.122
298.008 392.161
289.200 392.319
280.425 392.003
271.598 392.003
263.012 391.056
254.287 390.425
245.905 388.342
239.284 382.805
233.026 376.884
226.617 371.058
219.998 365.543
213.265 360.128
206.880 354.211
201.477 347.703
199.842 339.702
200.474 331.230
207.287 333.364
217.629 327.895
230.091 328.043
242.793 327.599
255.560 327.451
268.311 327.304
281.048 327.599
293.767 328.043
306.535 328.190
319.248 327.747
331.599 325.973
344.090 324.680
356.802 324.568
367.076 329.054
364.965 340.206
355.846 348.580
346.190 356.593
335.970 363.561
324.159 368.126
312.022 370.931
299.479 372.092
286.723 372.210
274.026 371.796
261.479 370.466
249.200 368.544
237.867 364.396
227.307 358.557
217.191 351.716
208.125 344.253
206.992 332.773
}
