version: 1
n_points: 120
{
181.059 202.749
186.594 198.700
192.147 194.834
198.194 191.716
204.807 190.421
211.647 190.645
218.328 191.878
224.923 193.536
231.282 195.807
236.959 199.275
235.011 204.240
228.560 206.342
222.036 208.129
215.352 209.138
208.630 210.034
201.918 210.819
195.165 211.155
188.637 210.034
182.956 207.344
181.507 202.189
329.240 198.693
334.714 194.452
340.632 190.807
346.577 187.302
353.045 184.899
359.906 183.627
366.863 183.539
373.414 185.675
379.632 188.786
385.601 192.304
387.143 196.907
380.946 199.966
374.526 202.451
367.974 204.566
361.119 205.442
354.137 205.560
347.375 204.505
340.784 202.837
334.502 200.706
329.595 197.983
222.885 375.943
226.872 369.682
230.982 363.517
234.660 357.188
238.987 351.275
243.279 345.432
249.034 340.946
255.591 337.410
262.438 334.838
269.666 333.810
277.128 333.982
284.508 333.810
291.456 331.981
298.793 331.413
306.065 332.440
313.009 334.702
318.832 339.154
324.367 344.005
329.063 349.557
333.457 355.252
337.727 361.133
341.331 367.477
343.974 374.129
345.683 381.074
345.259 388.444
341.770 394.908
338.521 401.435
335.071 407.967
330.761 413.819
326.561 419.846
321.902 425.567
316.182 430.088
309.538 433.322
302.596 436.024
295.409 437.404
287.993 437.772
280.539 437.569
273.272 436.573
266.028 435.374
258.856 433.891
252.191 431.102
246.766 426.200
242.009 420.586
237.522 414.729
233.206 408.872
229.368 402.807
227.167 396.021
225.454 389.076
223.558 382.268
223.228 375.429
238.998 372.807
245.143 366.662
252.431 361.966
259.996 358.205
267.294 354.830
275.557 352.756
284.309 352.410
293.019 352.929
301.535 354.139
309.559 357.097
316.572 362.227
323.982 366.813
330.881 371.869
334.413 377.990
329.612 384.693
323.671 391.003
317.937 397.551
312.697 404.481
306.087 409.958
297.971 412.735
289.682 414.809
280.941 415.328
272.267 414.418
264.137 411.649
256.536 407.803
249.629 402.624
245.394 395.889
242.628 388.210
240.554 380.144
239.862 371.770
}
