version: 1
n_points: 120
{
177.509 207.809
182.376 202.728
188.195 198.717
194.562 195.520
201.246 193.324
208.223 193.580
214.999 195.773
221.766 197.978
228.440 200.390
233.718 204.905
232.609 210.598
226.118 213.431
219.296 215.542
212.385 217.106
205.364 218.085
198.270 218.477
191.170 218.170
184.423 216.208
178.162 213.029
177.900 206.928
328.200 207.405
334.215 203.002
340.382 198.845
346.657 194.850
353.335 191.614
360.387 189.265
367.783 189.157
374.851 191.230
380.981 195.230
387.249 199.152
387.073 204.204
380.296 207.286
373.534 210.327
366.375 212.320
359.056 213.431
351.609 213.491
344.222 212.880
336.820 212.211
329.490 211.270
328.414 206.976
197.417 343.612
205.723 342.092
213.882 340.909
221.085 339.051
228.770 337.088
236.775 334.660
244.914 332.869
253.072 331.451
261.405 330.775
269.806 331.113
278.124 331.957
286.497 332.464
294.775 331.789
302.803 329.767
311.114 328.917
319.565 329.052
328.011 329.263
336.390 329.931
344.713 330.944
352.875 332.666
360.607 335.941
368.326 339.378
369.608 346.158
366.490 353.751
362.828 361.183
357.972 367.910
352.052 373.758
345.702 379.173
339.170 384.275
331.893 388.418
324.581 392.430
317.113 396.273
309.272 399.181
300.953 400.026
292.540 399.688
284.073 399.688
275.649 399.416
267.418 397.867
259.295 396.141
251.302 393.945
243.422 391.243
235.704 388.344
228.368 384.338
221.425 380.047
214.686 375.217
208.651 369.458
203.554 362.923
198.998 356.171
196.820 348.769
199.613 341.923
211.922 352.431
217.689 345.933
228.790 348.091
240.323 348.766
251.827 349.753
263.387 350.457
274.957 351.021
286.589 350.975
298.136 350.176
309.597 348.666
321.025 347.032
332.399 345.241
343.729 343.318
355.260 342.563
362.101 346.193
354.524 354.615
346.665 363.027
337.112 369.443
326.893 374.729
315.806 377.667
304.318 378.654
292.712 378.372
281.125 377.949
269.551 377.526
257.990 376.962
246.529 376.220
235.725 374.120
225.774 368.962
217.378 361.130
211.640 352.290
}
