version: 1
n_points: 120
{
179.392 207.950
183.870 202.932
189.532 199.344
195.636 196.474
201.897 194.564
208.682 194.690
215.182 196.105
221.612 198.029
227.680 200.965
232.951 205.059
232.482 209.440
226.702 212.764
220.265 214.573
213.784 216.032
207.112 216.916
200.398 217.421
193.643 217.168
187.380 215.433
181.594 212.298
179.897 207.697
327.937 206.079
334.260 202.257
340.118 197.899
346.505 194.469
353.071 191.247
360.126 189.191
367.316 189.718
374.242 192.161
380.775 195.453
387.251 198.929
388.057 204.384
381.610 207.847
374.969 210.877
367.943 212.557
360.666 213.397
353.338 213.277
346.060 212.557
338.883 211.127
332.224 208.838
328.777 205.239
234.157 364.522
236.247 359.780
239.021 355.489
242.448 351.648
245.933 347.830
249.535 344.130
253.182 340.496
256.913 336.904
260.939 333.712
265.610 331.710
270.749 331.461
275.879 331.848
280.996 332.371
286.060 333.250
291.023 334.581
295.985 336.003
300.657 338.116
304.895 340.929
308.628 344.471
312.234 348.140
315.588 352.049
318.337 356.321
320.004 361.156
320.373 366.193
319.171 371.155
317.643 376.012
315.630 380.668
312.769 384.954
309.684 389.101
306.151 392.822
302.688 396.609
299.173 400.353
294.781 403.041
290.065 405.121
285.023 406.196
279.853 406.332
274.857 405.431
269.845 404.571
264.771 403.806
259.971 402.086
255.392 399.747
250.742 397.555
246.197 395.199
242.721 391.700
240.155 387.328
238.045 382.718
235.685 378.285
234.747 373.343
234.574 368.197
235.268 363.272
275.257 365.192
276.214 364.576
277.172 363.961
278.129 363.346
279.086 362.730
280.061 362.244
281.106 361.958
282.221 361.864
283.341 361.788
284.479 361.788
285.425 362.252
286.241 363.028
286.241 364.166
285.814 365.154
285.119 366.004
284.314 366.809
283.535 367.588
282.686 368.286
281.770 368.889
280.895 369.523
279.976 369.833
278.838 369.833
277.800 369.591
276.814 369.224
276.027 368.595
275.412 367.891
275.094 366.885
275.168 365.899
276.018 365.204
276.804 364.573
}
