version: 1
n_points: 120
{
181.629 208.425
186.516 203.950
192.216 200.547
198.235 197.639
204.639 196.015
211.314 195.559
217.934 196.123
224.273 198.201
230.080 201.459
235.631 204.475
234.269 208.720
228.796 212.263
222.605 214.181
216.118 215.310
209.543 216.100
202.925 216.552
196.254 216.326
189.890 215.310
184.287 212.263
182.081 208.087
331.150 205.027
336.056 200.359
341.457 196.298
347.541 193.331
354.025 191.444
360.765 190.844
367.535 191.440
374.103 193.228
380.407 195.731
385.736 199.904
385.768 204.474
379.533 207.293
373.077 209.564
366.418 210.790
359.646 211.462
352.781 211.582
345.954 211.224
339.230 210.318
332.773 208.556
331.746 204.669
223.672 367.685
226.691 362.325
230.132 357.152
233.461 351.907
236.920 346.755
240.014 341.382
244.177 336.865
249.119 333.143
254.292 329.704
260.238 328.316
266.449 328.452
272.442 329.301
278.545 329.945
284.778 329.674
290.762 328.425
296.567 326.687
302.658 327.558
308.461 329.617
313.537 333.199
318.748 336.674
323.610 340.557
328.360 344.617
332.768 348.764
337.067 353.335
341.210 357.860
344.532 362.837
343.281 368.626
340.298 373.903
336.518 378.834
332.410 383.570
328.192 388.053
322.820 391.184
317.284 394.118
311.287 395.922
305.270 397.279
299.100 398.094
292.836 398.365
286.539 398.365
280.291 397.961
274.038 397.506
267.894 396.465
261.824 395.246
255.759 394.128
249.905 391.951
244.047 389.681
238.742 386.487
234.383 382.062
230.209 377.636
226.437 372.801
223.944 367.685
249.809 363.124
253.849 359.774
258.188 356.931
262.928 354.561
267.851 352.860
272.977 351.816
278.314 351.659
283.679 351.521
289.054 351.383
294.452 351.383
299.784 351.659
304.869 352.714
309.649 354.560
314.056 357.402
318.303 360.485
319.812 364.668
315.424 367.264
310.279 368.381
304.957 368.787
299.559 368.787
294.161 368.787
288.786 368.649
283.428 368.372
278.091 367.993
272.744 367.682
267.369 367.544
261.971 367.544
256.628 367.267
251.410 366.715
250.085 362.985
}
