version: 1
n_points: 120
{
188.386 222.301
192.968 219.490
198.028 217.597
203.285 216.329
208.613 215.586
213.991 215.228
219.394 215.310
224.582 216.617
229.587 218.633
234.230 221.320
233.682 224.247
228.279 224.415
222.883 224.659
217.473 224.821
212.063 224.984
206.627 224.984
201.191 224.984
195.782 224.821
190.444 224.415
188.548 222.220
339.783 218.294
345.422 214.771
351.739 212.658
358.216 211.065
364.814 210.352
371.343 211.437
377.920 212.388
384.451 213.730
390.910 215.341
397.051 217.785
395.630 219.668
389.046 220.534
382.407 221.043
375.706 221.043
369.004 221.043
362.303 221.043
355.602 221.043
348.900 221.043
342.236 221.246
339.986 218.294
227.445 359.236
228.942 353.126
231.165 347.334
233.205 341.364
235.480 335.598
238.383 330.133
242.332 325.307
247.114 321.844
253.337 320.953
259.629 320.953
265.375 322.734
271.599 323.476
277.953 323.624
284.331 323.624
290.709 323.624
297.038 323.327
303.306 322.576
309.425 321.065
315.533 319.618
321.711 318.728
327.781 319.855
332.813 323.640
337.056 328.136
338.435 334.216
339.474 340.403
340.364 346.582
341.084 352.812
340.490 358.836
336.454 363.391
330.243 363.984
324.407 365.548
319.096 368.633
314.573 373.009
310.111 377.470
305.846 382.032
301.414 386.391
296.128 389.738
290.204 391.435
283.896 391.435
277.542 391.287
271.272 390.693
265.205 389.096
259.557 386.791
254.127 383.692
249.304 379.657
245.472 374.741
241.285 369.999
236.546 365.938
231.366 362.861
227.297 359.533
235.229 362.953
241.470 360.064
247.920 358.049
254.517 356.742
261.168 355.510
267.854 353.998
274.575 353.131
281.393 353.565
288.255 353.853
295.175 353.855
302.042 354.287
308.867 354.904
315.413 356.749
321.967 358.475
328.212 360.353
327.130 360.642
320.494 359.438
313.898 357.881
307.423 355.731
300.956 353.786
294.452 352.413
287.685 351.831
280.822 351.783
274.099 352.617
267.545 353.728
261.278 355.731
254.844 357.464
248.357 359.068
241.958 360.960
235.807 362.375
}
