version: 1
n_points: 120
{
181.346 204.920
186.178 200.525
191.682 197.117
197.625 194.210
203.775 192.662
210.374 192.290
216.859 193.240
222.970 195.599
228.604 199.013
234.568 201.340
234.126 206.041
228.576 208.798
222.015 209.397
215.598 210.840
209.225 212.500
202.709 213.473
196.150 213.068
189.853 211.384
184.025 208.298
181.545 204.323
332.192 202.311
337.307 197.768
342.916 193.960
348.953 190.818
355.352 188.534
362.134 187.606
368.713 189.228
375.237 191.363
381.297 194.437
387.054 198.077
387.944 202.162
382.248 205.675
375.577 206.712
368.801 207.409
361.961 207.893
355.061 207.893
348.179 207.786
341.280 207.786
334.705 206.864
332.300 201.667
202.817 340.399
210.227 337.462
217.637 334.621
224.916 331.449
231.821 327.685
239.084 324.889
246.792 323.140
254.764 322.984
262.761 322.984
270.606 323.917
278.363 325.258
286.213 326.094
294.092 325.367
301.672 323.359
309.287 321.430
317.247 321.585
325.033 322.882
332.507 325.631
340.086 328.070
347.851 329.970
355.525 332.003
362.460 334.858
369.367 338.067
367.803 345.033
363.414 351.459
358.940 357.954
354.385 364.375
348.535 369.758
342.565 374.856
336.206 379.444
329.121 382.986
321.847 386.136
314.244 388.463
306.440 389.688
298.468 389.532
290.531 389.066
282.633 388.306
274.803 387.200
267.206 385.265
259.613 383.379
251.926 381.750
244.365 379.489
236.867 377.015
229.736 373.524
222.686 369.919
215.573 366.368
209.615 361.290
205.305 355.117
203.750 347.571
203.128 339.932
214.728 347.353
215.481 340.173
226.185 342.371
237.269 342.957
248.520 343.104
259.737 342.811
270.898 342.078
282.007 341.052
293.131 340.320
304.298 339.721
315.527 339.440
326.624 338.708
337.633 337.261
348.763 336.510
359.546 337.286
356.381 346.211
347.317 352.494
337.915 358.391
328.168 363.461
317.453 366.303
306.455 368.015
295.459 369.333
284.277 369.187
273.256 368.103
262.210 366.403
251.207 364.691
240.290 362.886
229.842 359.376
219.724 354.980
214.141 346.767
}
