version: 1
n_points: 120
{
188.842 227.919
193.565 224.225
198.854 221.420
204.332 218.955
210.112 217.690
216.099 217.477
222.117 217.664
227.976 218.659
233.708 220.197
239.179 222.271
236.423 225.598
231.004 227.812
225.187 229.091
219.273 229.922
213.365 230.684
207.460 231.328
201.488 231.648
195.457 231.755
189.735 231.222
189.588 227.492
338.006 222.537
343.154 219.102
348.981 217.002
354.983 215.577
361.184 215.279
367.349 215.756
373.470 216.425
379.662 216.807
385.717 217.933
391.416 220.054
388.581 223.301
382.572 224.479
376.416 225.141
370.270 225.784
364.101 226.357
357.875 226.548
351.640 226.643
345.412 226.739
339.331 226.064
339.152 221.677
216.610 364.835
223.661 364.558
229.766 361.422
236.023 358.272
242.390 355.270
248.620 352.093
255.144 349.386
261.894 348.174
268.827 348.868
275.696 350.144
282.573 351.367
289.604 351.645
295.521 348.959
301.799 346.708
308.728 346.924
315.543 348.421
322.172 350.594
328.550 353.553
334.640 356.928
340.879 360.186
346.831 363.787
353.176 366.612
359.816 367.890
359.577 371.126
354.750 376.230
350.278 381.516
345.266 386.182
340.122 390.759
334.377 394.659
328.602 398.629
322.514 402.103
316.055 404.939
309.736 408.035
303.266 410.787
296.512 412.459
289.559 413.153
282.528 412.876
275.684 411.765
268.895 410.376
262.141 408.988
255.602 406.894
249.140 404.079
243.074 400.699
237.631 396.450
232.607 391.653
227.848 386.618
224.385 380.696
221.301 374.664
217.241 369.278
217.165 364.002
248.228 373.616
253.689 371.815
259.406 371.558
265.206 371.558
270.975 371.686
276.775 371.686
282.417 371.172
288.103 370.786
293.873 370.657
299.642 370.786
305.401 371.043
311.134 371.429
316.913 371.558
322.545 372.072
324.387 375.677
319.704 378.661
314.513 380.563
308.983 381.592
303.348 382.493
297.632 383.008
291.910 383.522
286.152 383.780
280.383 383.908
274.674 383.522
269.027 382.793
263.516 381.721
258.100 380.482
252.760 379.019
247.799 377.304
248.485 373.359
}
