version: 1
n_points: 120
{
186.352 223.462
191.156 219.510
196.561 216.471
202.473 214.602
208.525 213.339
214.776 213.020
220.934 213.833
226.990 215.278
232.631 217.886
237.283 221.862
237.119 225.699
231.036 226.765
224.800 227.126
218.581 227.617
212.329 227.937
206.034 227.937
199.757 228.043
193.537 227.526
187.553 226.474
187.204 222.609
337.119 222.197
342.059 218.412
347.291 215.106
352.807 212.283
358.752 210.386
364.930 209.679
371.162 209.968
377.313 210.893
383.350 212.571
388.931 214.984
389.131 219.253
383.139 220.851
377.030 222.282
370.885 223.353
364.692 223.930
358.416 223.930
352.164 224.176
345.977 224.701
339.771 225.086
337.600 221.812
228.904 364.602
230.746 358.739
232.829 352.980
234.758 347.231
237.179 341.661
240.671 336.715
244.855 332.302
249.577 328.731
255.446 327.424
261.356 326.553
267.472 326.117
273.691 326.117
279.910 326.117
286.111 325.972
292.331 325.972
298.485 326.408
304.680 326.553
310.830 326.844
316.947 327.279
322.990 328.005
328.857 329.477
333.335 333.538
337.478 337.916
340.292 343.212
342.325 348.770
344.203 354.416
344.456 360.485
340.578 365.038
334.786 366.345
328.858 367.560
323.638 370.510
319.274 374.688
315.375 379.312
311.802 384.234
307.873 388.888
303.072 391.946
297.292 393.647
291.210 394.228
284.991 394.228
278.910 393.599
273.062 391.982
267.307 390.017
261.784 387.462
256.572 384.282
251.674 380.635
246.718 377.188
242.300 373.205
237.753 369.172
233.101 365.314
230.066 363.005
237.849 367.885
244.137 365.243
250.652 363.431
257.186 361.965
263.782 360.539
270.448 359.364
277.200 358.742
283.996 358.395
290.803 358.117
297.591 358.544
304.331 359.367
310.989 360.672
317.587 362.322
324.210 363.729
330.593 365.299
328.281 364.868
321.809 363.251
315.170 362.152
308.509 360.937
301.841 359.697
295.169 358.691
288.527 357.686
281.741 357.606
275.089 358.488
268.546 359.740
262.050 361.133
255.583 362.570
249.096 363.984
242.976 366.304
238.136 368.603
}
