version: 1
n_points: 120
{
178.484 206.665
184.056 202.777
189.887 199.384
196.096 196.525
202.701 195.875
209.056 196.890
215.478 198.196
221.994 199.705
228.377 201.562
234.069 204.703
231.624 209.912
225.397 212.453
218.878 214.201
212.251 215.636
205.559 216.643
198.900 217.687
192.092 217.687
185.924 215.730
180.870 211.455
179.296 205.969
326.645 205.460
332.508 201.143
338.934 197.770
345.207 194.087
351.869 191.182
358.880 189.584
366.207 189.630
373.217 191.647
379.794 194.688
385.309 199.310
385.575 204.231
379.052 207.599
372.203 210.199
365.051 211.601
357.722 211.853
350.378 211.686
343.137 210.894
335.948 210.148
329.028 208.569
327.604 204.714
209.901 351.957
215.414 347.456
221.717 344.036
227.833 340.409
234.473 337.729
241.408 335.851
248.448 334.764
255.672 334.757
262.755 335.788
269.888 336.451
277.035 336.939
284.233 337.103
291.421 336.842
298.626 336.712
305.825 336.543
313.002 336.191
320.206 336.060
327.399 336.280
334.391 337.494
341.116 339.775
346.664 344.218
351.071 349.723
355.119 355.604
355.739 362.576
351.625 368.438
346.935 373.844
342.293 379.313
337.577 384.680
331.815 388.993
325.597 392.615
319.031 395.475
312.169 397.631
305.133 399.155
298.018 400.168
290.845 400.689
283.674 400.168
276.511 399.516
269.430 398.381
262.451 396.692
255.501 394.792
248.682 392.533
242.034 389.802
235.434 386.941
228.999 383.713
222.885 380.028
217.175 375.779
212.366 370.580
209.159 364.286
208.337 357.339
210.682 351.175
220.659 356.428
226.804 351.261
236.664 351.891
246.648 352.017
256.574 352.571
266.542 352.696
276.537 352.647
286.496 353.025
296.495 353.025
306.495 353.025
316.443 352.647
326.347 351.891
336.280 351.387
346.138 350.631
350.094 353.651
343.231 360.664
334.606 365.622
325.533 369.651
316.278 373.262
306.731 375.988
296.876 377.222
286.892 377.348
276.892 377.348
266.960 376.844
257.120 375.710
247.346 374.198
238.045 370.981
229.103 366.720
220.470 361.910
220.786 354.789
}
