version: 1
n_points: 120
{
181.428 216.646
186.131 212.680
191.761 210.041
197.598 207.853
203.534 206.166
209.766 206.228
215.991 206.540
222.007 207.817
227.472 210.703
232.731 214.064
234.270 218.188
228.540 220.501
222.698 222.421
216.620 223.321
210.453 223.939
204.219 224.147
197.978 224.036
191.998 222.689
186.476 220.004
181.636 216.959
332.336 215.862
337.931 212.123
342.854 207.665
348.402 203.973
354.559 201.360
361.169 200.547
367.894 200.991
374.397 202.617
380.656 205.010
386.110 208.840
386.706 213.516
380.971 216.780
374.441 217.951
367.724 218.415
360.960 218.647
354.178 218.714
347.422 218.995
340.644 219.111
333.921 218.743
333.728 214.934
199.345 351.314
206.155 346.766
213.141 343.742
220.121 340.823
227.718 338.742
235.799 337.742
244.072 337.599
252.302 338.028
260.485 338.979
268.727 339.599
276.920 340.456
285.183 340.885
293.491 340.742
301.393 338.742
309.364 337.171
317.484 335.959
325.648 335.885
333.465 337.742
341.312 339.797
349.257 341.617
357.236 343.330
364.913 345.456
370.774 349.291
368.951 357.211
366.044 364.934
361.648 371.851
355.892 377.768
349.978 383.538
344.766 389.818
338.104 394.506
330.626 397.984
323.222 401.590
315.458 404.314
307.310 405.457
299.019 405.457
290.687 405.457
282.379 405.314
274.100 404.885
265.862 404.122
257.826 402.141
250.261 398.843
243.052 394.877
236.350 390.175
229.590 385.681
222.985 380.811
216.374 375.990
209.706 371.246
203.382 366.065
200.530 358.827
200.202 351.028
210.691 355.939
217.941 350.209
229.572 351.717
241.086 353.979
252.482 356.627
264.315 357.447
276.198 356.844
288.035 356.090
299.822 355.035
311.639 353.979
323.367 352.622
335.083 351.264
346.620 349.739
358.446 348.851
361.937 355.966
354.422 364.680
344.931 371.537
334.203 376.599
323.088 380.648
311.793 383.883
300.134 385.895
288.352 387.156
276.528 386.251
264.875 384.389
253.518 381.576
242.321 378.389
231.027 374.782
220.105 370.179
210.842 363.329
211.295 353.376
}
