version: 1
n_points: 120
{
182.914 218.665
187.761 214.511
193.283 211.318
199.075 208.692
205.260 207.311
211.721 207.419
218.078 208.220
224.201 210.275
229.402 213.903
234.959 216.646
234.020 221.447
228.558 224.071
222.228 224.720
215.952 225.802
209.598 226.567
203.127 226.667
196.754 226.017
190.585 224.502
184.709 222.233
183.346 217.800
333.046 218.317
338.350 214.336
343.906 210.743
349.730 207.582
355.949 205.274
362.370 203.739
369.001 203.739
375.460 205.042
381.599 207.538
387.282 210.901
387.330 214.088
381.285 216.733
375.173 219.261
368.727 220.779
362.159 221.433
355.539 221.141
348.910 220.860
342.282 220.598
335.724 220.102
333.602 217.761
199.751 351.251
207.966 349.166
216.152 347.180
224.333 345.974
232.301 343.864
240.216 341.431
248.357 339.643
256.769 339.191
265.162 339.839
273.494 340.857
281.820 341.773
290.283 342.055
298.270 340.095
305.721 336.477
313.904 335.120
322.271 335.939
330.339 338.399
338.427 340.894
346.664 342.886
354.860 345.065
362.838 347.620
370.153 350.497
368.590 357.736
364.761 365.244
361.330 372.886
356.480 379.696
351.257 386.222
345.845 392.624
339.660 398.203
332.852 403.039
325.684 407.302
317.997 410.879
309.837 412.757
301.525 413.963
293.005 413.963
284.546 413.661
276.026 413.661
267.728 412.502
259.601 410.496
251.496 408.102
244.022 404.290
237.309 399.210
230.293 394.636
223.933 389.180
218.554 382.976
213.542 376.498
208.103 370.305
202.823 363.819
198.545 356.999
199.751 350.045
216.231 358.496
222.616 353.809
233.790 356.375
245.330 357.890
256.864 359.406
268.583 359.709
280.305 360.012
291.957 359.406
303.353 357.325
314.884 355.617
326.455 354.253
338.013 352.889
349.589 351.526
361.163 350.586
361.600 357.502
354.207 366.276
344.966 373.421
335.197 379.606
324.597 384.520
313.577 388.482
302.125 391.083
290.527 392.593
278.864 391.987
267.299 390.623
255.878 387.957
244.788 384.140
234.276 379.109
224.364 373.061
215.948 365.922
215.777 355.011
}
