version: 1
n_points: 120
{
176.973 213.289
181.555 207.968
187.131 203.716
193.445 200.683
199.936 198.452
206.914 198.022
213.430 200.552
219.675 203.859
225.335 207.920
231.068 211.732
230.240 216.660
224.283 219.800
217.586 221.434
210.859 223.065
204.169 224.371
197.149 224.740
190.106 224.371
183.747 222.403
178.445 218.825
177.465 212.797
327.625 210.959
333.548 206.482
339.411 202.025
345.884 198.379
352.680 195.484
359.839 193.932
367.180 194.679
374.414 196.157
381.046 199.388
386.780 204.009
385.642 209.809
379.512 213.894
372.658 216.523
365.533 218.324
358.195 219.083
350.764 218.749
343.436 217.936
336.204 216.857
329.260 215.003
327.958 210.402
216.658 372.923
218.471 365.881
221.210 359.173
224.411 352.611
228.335 346.525
233.727 341.668
239.911 337.904
246.929 336.392
253.942 337.514
260.959 339.276
267.621 341.519
274.819 342.320
282.130 342.641
289.402 342.159
296.095 339.533
302.754 337.033
309.870 337.834
316.684 340.261
322.801 344.159
328.619 348.535
333.717 353.793
338.364 359.402
342.841 365.089
347.354 370.795
351.116 376.800
351.186 383.877
347.796 390.150
343.588 395.961
339.069 401.439
334.069 406.745
328.447 411.193
321.980 414.508
315.173 416.995
307.985 417.785
300.674 418.105
293.311 418.105
285.948 418.105
278.625 417.932
271.364 417.304
264.162 416.315
257.104 414.580
250.102 412.483
243.254 409.880
236.967 406.229
231.068 402.074
225.377 397.664
220.182 392.629
216.979 386.422
216.338 379.324
216.658 372.282
228.973 375.933
234.630 369.755
241.349 364.731
248.814 360.811
257.015 359.134
265.439 359.785
273.889 360.388
282.417 360.566
290.892 360.957
299.386 361.348
307.541 362.996
315.472 365.854
323.369 368.695
331.278 371.245
339.017 373.669
334.793 379.246
328.465 384.660
320.646 387.914
312.679 390.660
304.388 391.952
295.861 391.821
287.419 391.170
279.048 390.259
270.583 389.868
262.171 389.347
254.075 387.784
245.841 386.612
237.761 385.180
230.067 382.758
229.363 375.673
}
