version: 1
n_points: 120
{
174.481 212.630
179.571 207.647
185.221 203.288
191.275 199.564
198.089 197.495
205.032 198.484
211.999 199.911
218.770 202.168
225.073 205.497
231.101 209.247
230.886 215.048
224.778 218.549
218.007 220.484
210.995 221.754
203.989 222.795
196.968 223.686
189.972 222.828
183.062 221.251
176.705 218.074
174.910 212.201
325.350 210.509
331.217 205.669
337.599 201.585
344.016 197.534
351.173 195.016
358.645 193.824
366.270 193.725
373.533 195.748
380.487 198.748
386.270 203.397
386.411 209.873
379.815 213.608
372.535 215.699
365.140 217.422
357.565 218.256
349.897 218.137
342.313 217.660
334.970 215.753
327.650 214.085
326.185 209.794
199.377 357.070
205.491 351.713
212.667 347.848
220.301 344.795
228.154 342.522
236.172 340.814
244.258 339.491
252.431 339.423
260.115 341.295
268.196 342.219
276.411 342.673
284.656 342.370
292.619 340.436
300.281 337.532
308.312 336.460
316.363 337.596
324.320 339.516
332.041 342.392
339.610 345.553
347.135 348.838
354.305 352.778
361.097 356.643
361.033 364.380
357.819 371.755
355.157 379.199
351.894 386.704
346.848 393.124
341.435 399.219
335.373 404.740
328.116 408.573
320.678 412.061
313.116 415.283
305.198 417.468
297.071 418.460
288.829 418.746
280.565 418.595
272.369 417.862
264.257 416.733
256.363 414.404
248.498 412.137
240.980 408.937
233.599 405.352
226.242 401.720
219.671 396.919
213.511 391.551
207.447 386.336
202.571 379.813
199.831 372.194
198.829 364.158
199.680 356.615
210.260 364.765
212.749 356.060
224.011 355.684
235.481 357.069
247.083 357.854
258.773 358.168
270.481 358.482
282.234 358.482
293.986 358.482
305.652 357.941
317.067 355.968
328.646 355.184
340.285 354.556
352.001 354.713
356.556 361.798
351.430 371.737
343.407 380.043
333.395 385.760
322.437 389.800
311.316 393.434
299.825 395.235
288.230 396.492
276.587 395.774
264.961 394.921
253.438 393.508
242.005 391.309
231.084 387.203
221.472 380.845
212.725 373.464
209.475 363.508
}
