version: 1
n_points: 120
{
174.188 209.393
179.715 204.136
185.785 199.631
192.355 195.986
199.588 193.876
207.192 193.540
214.462 195.374
220.847 199.442
227.140 203.639
233.473 207.755
233.297 211.545
226.266 214.482
219.366 217.517
212.074 219.387
204.604 220.523
197.026 221.054
189.407 220.923
183.324 217.565
176.934 213.712
174.712 208.476
327.316 207.974
332.432 202.858
338.400 198.695
344.447 194.671
351.313 192.181
358.435 190.565
365.640 189.577
372.548 191.449
378.689 195.286
384.546 199.569
388.493 204.354
382.525 208.457
375.789 211.286
368.851 213.541
361.680 214.633
354.392 214.181
347.207 213.405
340.140 212.060
333.123 210.682
327.654 207.635
219.392 373.690
222.314 367.991
225.525 362.536
229.095 357.261
233.270 352.388
237.355 347.453
241.639 342.692
246.743 338.875
252.693 336.412
258.933 335.212
265.330 335.337
271.523 336.614
277.877 336.879
284.061 335.351
290.019 333.155
296.311 332.295
302.607 333.410
308.316 336.337
313.691 339.854
318.902 343.653
323.813 347.812
328.453 352.313
332.787 357.063
337.057 361.841
340.996 366.857
342.885 372.894
341.590 379.057
337.604 384.040
332.455 387.913
327.192 391.653
321.987 395.421
316.683 399.059
311.013 402.049
304.988 404.242
298.894 406.254
292.532 407.168
286.099 407.446
279.627 407.446
273.172 407.307
266.745 407.024
260.447 405.918
254.267 404.300
248.270 401.930
243.245 398.198
238.894 393.637
234.098 389.368
229.462 384.895
224.503 380.884
219.522 377.015
219.670 372.440
249.829 370.296
253.385 366.811
257.699 364.381
262.268 362.372
266.998 360.874
271.811 359.828
276.740 359.372
281.730 359.236
286.731 359.372
291.719 359.590
296.656 360.055
301.546 360.817
306.364 361.830
311.017 363.613
314.631 366.689
313.631 370.892
309.032 372.480
304.254 373.682
299.379 374.534
294.466 375.211
289.510 375.621
284.554 375.971
279.579 376.304
274.578 376.440
269.589 376.167
264.654 375.621
259.752 374.938
255.060 373.846
250.512 372.578
250.239 369.886
}
