version: 1
n_points: 120
{
177.948 212.000
182.266 206.585
187.992 202.700
194.547 200.261
201.460 199.164
208.494 198.851
215.126 200.261
221.760 202.614
227.671 206.307
233.480 210.044
231.989 215.204
226.057 218.938
219.338 220.913
212.568 222.219
205.641 223.206
198.632 223.848
191.814 222.608
185.148 220.537
179.268 217.049
178.716 211.451
328.810 209.813
334.618 205.160
340.420 200.513
346.609 196.462
353.650 194.234
360.976 193.178
368.370 193.332
375.535 195.121
382.122 198.541
388.034 202.898
388.638 207.296
382.441 211.359
375.945 214.921
368.947 217.324
361.575 218.001
354.107 217.931
346.719 217.371
339.487 215.996
332.481 213.904
328.810 209.498
234.476 381.375
237.389 376.865
240.234 372.390
243.840 368.454
247.303 364.382
250.919 360.437
254.554 356.657
259.016 353.776
263.937 351.774
269.050 351.029
274.357 351.451
279.542 352.434
284.839 352.856
289.889 351.451
295.003 350.467
300.099 351.783
304.961 353.999
309.550 356.815
314.120 359.641
318.474 362.675
322.602 366.100
326.263 369.949
329.643 374.040
332.593 378.480
334.224 383.376
332.166 388.070
328.246 391.708
324.381 395.433
320.552 399.122
316.456 402.586
312.055 405.624
307.571 408.463
302.740 410.742
297.744 412.692
292.781 414.717
287.644 416.336
282.353 416.919
277.022 416.638
271.759 416.076
266.408 415.795
261.100 415.374
256.007 414.197
251.476 411.440
247.945 407.628
245.154 403.363
242.063 399.071
239.977 394.343
238.133 389.532
236.135 384.832
234.757 380.251
263.823 376.763
266.301 375.701
268.774 374.627
271.387 374.184
274.017 373.773
276.653 373.370
279.289 372.962
281.932 372.691
284.628 372.691
287.303 372.555
290.000 372.555
292.665 372.419
295.030 373.218
296.268 375.243
295.532 377.635
293.414 379.208
291.122 380.417
288.749 381.432
286.271 382.194
283.702 382.737
281.070 383.008
278.437 383.280
275.740 383.280
273.044 383.280
270.435 383.008
267.985 382.374
265.707 381.227
263.598 379.750
262.737 377.948
264.501 376.220
}
