version: 1
n_points: 120
{
176.182 208.575
181.170 203.130
186.958 198.508
193.605 195.329
200.691 193.338
208.037 193.219
215.025 195.280
221.641 198.494
227.370 203.097
233.985 206.344
235.920 211.574
229.297 214.529
222.316 216.460
215.231 218.272
208.001 219.372
200.599 219.673
193.262 219.012
186.509 216.742
180.701 212.813
176.422 208.455
329.891 208.366
335.417 203.448
341.467 199.212
347.477 194.978
354.161 191.915
361.298 190.017
368.592 189.913
375.452 192.473
382.040 195.822
388.495 199.346
389.824 205.251
383.291 208.541
376.595 211.663
369.749 214.333
362.484 215.328
355.058 215.438
347.709 214.782
340.535 213.118
333.523 211.350
330.775 207.593
196.559 344.591
204.974 343.631
213.158 342.391
221.218 340.278
229.094 337.220
236.691 333.576
244.939 332.523
253.347 333.072
261.759 333.757
270.115 334.826
278.391 336.226
286.776 336.911
295.096 335.951
302.971 333.483
311.265 332.386
319.717 332.112
328.063 333.069
336.214 335.279
344.277 337.843
352.449 340.146
360.461 342.397
368.488 344.304
370.360 349.564
366.480 356.913
362.515 364.294
357.394 370.945
351.927 377.373
345.882 383.275
339.246 388.408
332.809 393.864
325.782 398.581
318.402 402.531
310.217 404.391
301.825 405.068
293.350 404.931
284.854 404.931
276.358 404.931
267.892 404.656
259.527 403.559
251.409 401.317
243.632 398.117
236.371 393.943
229.464 389.153
222.807 383.986
216.287 378.634
210.729 372.382
205.252 366.080
199.848 359.809
196.559 352.431
196.284 344.728
210.025 355.611
215.059 347.575
226.137 350.497
237.806 352.511
249.716 352.981
261.696 352.981
273.613 352.543
285.575 352.397
297.483 351.958
309.311 350.770
321.036 348.861
332.752 346.736
344.506 345.091
356.438 344.799
362.585 349.450
356.612 359.327
348.878 368.125
338.764 374.157
327.357 376.891
315.832 379.954
304.049 381.397
292.242 382.724
280.356 383.517
268.442 383.079
256.559 382.246
244.831 380.019
233.249 377.281
222.985 371.442
213.524 364.662
209.733 354.588
}
