version: 1
n_points: 120
{
175.503 209.657
179.866 203.684
185.718 199.120
192.465 195.984
199.698 194.068
207.109 193.661
214.156 196.155
220.553 199.867
226.645 204.113
233.125 207.675
233.278 212.328
226.880 216.090
219.773 218.354
212.452 219.963
205.071 220.847
197.663 221.572
190.193 221.331
183.275 218.817
177.480 214.372
175.825 208.611
323.092 207.398
330.380 204.066
336.891 199.721
343.366 195.176
350.625 191.865
358.254 189.838
366.243 189.455
373.772 191.695
380.836 195.369
387.113 199.931
385.911 206.742
378.797 210.068
371.349 213.022
363.618 215.027
355.566 215.027
347.725 214.054
340.003 212.342
332.135 211.212
324.276 210.223
323.799 206.974
229.898 378.522
233.108 373.805
236.412 369.263
240.146 364.957
244.027 360.774
247.656 356.392
251.285 352.010
254.650 347.438
258.518 343.419
263.547 341.287
268.906 342.493
274.497 342.945
280.116 342.342
285.716 341.474
291.338 340.684
296.736 341.842
301.099 345.380
305.403 348.954
309.537 352.938
313.647 356.897
317.179 361.327
320.549 365.909
323.887 370.490
327.170 375.093
327.495 380.510
325.299 385.631
322.522 390.454
318.926 394.868
314.942 399.003
311.066 403.181
307.242 407.296
302.897 410.859
298.741 414.752
294.128 418.019
288.722 419.666
283.114 420.581
277.412 420.883
271.685 421.034
265.992 420.603
260.402 419.745
254.947 418.471
249.713 416.620
245.504 412.972
242.862 408.135
241.042 402.921
238.278 398.057
235.136 393.313
233.024 388.052
231.734 382.620
230.501 377.617
269.790 376.903
271.174 376.380
272.557 375.856
273.941 375.333
275.350 374.947
276.829 374.947
278.308 374.947
279.755 375.087
281.143 375.366
282.580 375.545
283.900 375.888
284.738 376.611
285.017 377.975
284.878 379.396
284.498 380.736
283.596 381.817
282.415 382.675
281.075 383.205
279.723 383.742
278.329 384.011
276.856 384.028
275.468 383.748
274.195 383.190
273.028 382.376
271.886 381.616
271.167 380.516
270.349 379.375
269.930 378.233
270.052 376.920
270.908 376.205
}
