version: 1
n_points: 120
{
176.574 213.083
180.602 207.686
185.913 203.502
192.074 200.778
198.609 198.779
205.377 198.189
211.841 199.882
217.651 203.351
223.281 207.091
229.126 210.497
231.861 214.301
225.936 217.585
219.503 219.758
212.900 221.455
206.244 222.675
199.509 223.387
192.691 223.468
186.222 221.650
180.540 218.256
176.655 213.244
327.059 212.133
332.509 207.333
338.648 203.463
344.673 199.491
351.320 196.621
358.347 194.775
365.556 194.501
372.410 196.720
378.970 199.851
385.292 203.339
386.717 207.977
381.253 212.635
374.619 215.552
367.603 217.212
360.392 217.928
353.136 218.000
345.970 217.213
338.807 216.409
331.919 215.017
327.556 211.636
196.618 353.142
204.677 351.642
212.481 349.404
220.004 346.547
227.241 342.934
234.628 339.460
242.246 337.097
250.409 336.797
258.455 337.816
266.424 339.622
274.430 340.996
282.563 340.984
290.534 339.496
298.186 337.130
305.905 334.848
313.685 336.475
321.513 338.692
329.377 341.113
337.208 343.423
345.026 345.644
352.893 347.702
360.625 349.543
366.213 352.945
363.989 360.439
359.866 367.486
354.848 373.804
350.348 380.374
344.690 385.946
337.985 390.517
330.899 394.491
323.851 398.540
316.332 401.658
308.502 403.975
300.558 405.625
292.420 406.075
284.211 406.225
276.018 405.900
267.938 405.025
259.943 403.825
252.041 401.997
244.262 399.627
236.854 396.227
230.108 391.782
223.762 386.882
217.494 381.744
211.460 376.528
205.451 371.259
200.770 364.745
196.604 358.227
197.817 352.242
210.045 358.156
217.401 352.722
228.664 354.626
240.143 355.439
251.582 356.662
263.107 357.530
274.695 357.884
286.293 357.613
297.819 356.933
309.309 355.756
320.838 354.896
332.249 353.401
343.759 352.586
355.272 352.314
356.615 357.782
347.598 364.744
338.980 372.236
328.769 377.410
318.541 382.568
307.504 385.959
296.138 387.772
284.545 388.044
273.024 387.093
261.655 385.191
250.337 382.882
239.005 380.708
227.801 377.932
217.281 373.271
208.823 365.988
210.045 356.254
}
