version: 1
n_points: 120
{
326.747 212.014
332.233 207.170
338.159 202.799
344.577 199.183
351.277 195.976
358.328 193.624
365.665 193.677
372.665 195.817
379.447 198.826
385.750 202.551
389.090 208.118
382.924 212.051
376.275 215.305
369.168 217.324
361.786 217.935
354.355 217.648
347.057 216.693
339.708 216.120
332.685 214.266
327.225 211.727
176.682 211.999
181.854 206.712
187.613 202.327
193.755 199.181
200.570 197.693
207.874 197.579
214.513 200.047
220.870 203.650
227.224 207.114
233.580 210.644
233.689 214.968
227.076 217.950
220.044 220.090
213.026 222.037
205.830 223.100
198.609 223.901
191.258 223.672
184.341 221.951
178.737 217.830
177.140 211.656
231.364 376.497
235.081 372.843
238.272 368.779
241.858 365.047
245.398 361.384
249.466 358.133
253.912 355.573
258.461 353.283
262.877 350.788
267.219 348.289
271.883 346.722
276.806 345.611
281.938 345.185
287.139 345.050
292.153 346.022
296.971 347.978
301.214 350.926
305.157 354.143
309.019 357.516
312.297 361.513
314.916 365.994
317.222 370.598
319.688 375.181
321.386 380.019
322.241 385.090
320.904 389.742
317.304 393.401
313.569 397.001
309.779 400.588
305.703 403.778
301.495 406.780
297.338 409.857
293.058 412.793
288.387 415.063
283.437 416.544
278.422 417.766
273.254 418.201
268.065 417.931
263.015 416.986
258.141 415.771
253.690 413.534
249.622 410.680
245.756 407.439
242.776 403.294
240.848 398.667
238.747 394.095
236.666 389.491
234.551 384.811
232.849 380.115
232.039 375.687
269.244 376.893
270.759 376.388
272.273 375.884
273.787 375.379
275.299 374.866
276.801 374.585
278.397 374.585
279.979 374.674
281.540 374.892
283.097 375.162
284.601 375.599
286.088 376.081
286.944 377.035
286.843 378.480
285.745 379.631
284.391 380.401
282.899 380.839
281.377 381.203
279.895 381.572
278.393 381.972
276.861 382.126
275.265 382.126
273.668 382.126
272.115 381.945
270.617 381.652
269.526 380.868
268.936 379.516
268.783 377.984
269.070 376.585
270.475 376.124
}
