version: 1
n_points: 120
{
175.608 207.365
180.690 202.253
186.180 197.804
192.502 194.498
199.183 192.338
206.358 192.211
213.433 193.033
220.161 195.318
226.066 199.193
231.389 203.920
231.674 209.393
225.487 212.544
218.667 214.480
211.750 216.281
204.792 217.594
197.803 218.604
190.665 218.731
184.215 216.584
178.733 212.511
176.113 206.986
326.437 205.245
331.785 200.007
337.475 195.124
343.721 191.023
350.822 188.509
358.099 186.735
365.594 186.474
372.699 188.763
379.613 191.681
385.599 196.042
389.199 202.203
383.340 206.572
376.476 209.560
369.258 211.192
361.773 211.764
354.245 211.543
346.802 210.991
339.578 209.444
332.478 207.455
326.216 205.135
214.143 393.982
214.143 384.476
215.517 375.317
218.263 366.482
223.739 359.209
230.056 352.315
236.971 346.434
246.109 344.771
255.512 345.458
264.729 346.832
273.919 347.976
283.484 347.976
293.049 347.976
302.292 348.434
310.978 350.951
319.667 354.731
327.739 359.568
334.808 365.641
339.878 373.533
344.485 381.602
348.436 389.798
349.187 399.092
349.416 408.563
348.240 417.850
345.525 426.570
343.465 435.527
341.684 444.468
338.557 453.009
333.845 461.053
329.603 469.187
323.598 476.107
315.939 481.333
307.079 484.393
297.974 485.995
288.666 486.911
279.155 487.140
269.698 486.682
261.243 483.706
252.760 480.207
245.478 474.528
240.570 466.873
235.803 459.131
231.971 450.949
227.728 442.816
225.130 434.461
223.299 425.450
219.951 417.042
216.163 408.779
213.914 399.949
214.601 391.007
220.275 392.642
221.982 380.251
230.615 372.015
242.737 369.229
255.921 369.229
268.904 368.093
282.052 367.865
294.984 369.002
307.456 371.677
319.999 374.538
331.849 378.645
341.403 386.250
346.886 396.309
343.022 408.095
339.856 420.130
335.748 431.977
330.196 443.070
321.683 452.623
311.928 461.014
300.114 465.381
287.396 467.427
274.601 467.200
262.519 463.563
252.519 456.028
243.859 446.629
236.868 436.183
230.276 425.567
226.232 414.284
221.866 402.787
220.729 391.278
}
