version: 1
n_points: 120
{
175.088 210.695
180.236 205.751
185.665 201.099
191.671 197.294
198.535 195.210
205.619 194.507
212.343 196.284
218.420 199.964
224.466 203.804
230.651 207.271
231.290 212.019
225.204 215.500
218.457 217.892
211.586 219.898
204.594 221.468
197.470 221.997
190.307 221.912
183.821 219.632
178.438 215.369
175.597 210.288
329.445 207.227
334.295 202.054
339.983 197.765
346.231 194.296
352.868 191.757
359.916 190.949
366.986 191.591
373.917 193.144
380.362 196.088
385.557 200.765
386.112 206.598
380.135 210.391
373.479 212.840
366.626 214.926
359.567 215.909
352.436 216.008
345.390 215.120
338.388 214.035
331.688 212.036
329.544 207.030
221.700 390.104
224.267 383.163
228.026 376.728
232.374 370.744
236.622 364.699
241.780 359.360
246.745 353.932
252.468 349.395
259.468 347.268
266.850 347.991
274.347 348.171
281.844 347.991
289.057 346.936
296.504 346.545
303.364 349.150
309.367 353.245
313.747 359.245
318.736 364.776
323.320 370.669
327.604 376.695
331.422 383.076
333.761 390.051
334.583 397.351
334.514 404.833
333.399 412.139
330.996 419.182
328.196 426.136
325.423 432.986
321.929 439.613
318.330 446.155
313.657 451.778
307.349 455.728
300.713 459.198
293.850 462.121
286.611 463.839
279.259 462.943
271.974 461.497
264.824 459.424
257.945 456.485
251.417 452.896
245.504 448.430
240.620 442.851
236.628 436.696
233.693 429.873
230.227 423.243
226.844 416.559
223.146 410.104
220.977 403.283
220.796 395.917
221.700 388.838
237.914 392.049
240.800 384.428
246.511 378.603
253.122 373.889
260.826 370.937
268.751 369.133
277.050 368.766
285.390 368.963
293.240 370.937
300.999 373.502
308.516 377.041
315.557 381.443
321.494 386.837
323.352 394.488
320.235 401.678
315.511 408.324
311.108 415.354
306.652 422.292
301.760 428.793
294.447 431.956
286.737 433.838
278.615 434.867
270.824 433.091
263.698 429.540
257.667 424.607
252.067 418.634
248.130 411.738
243.636 405.073
239.887 398.400
238.308 391.063
}
