version: 1
n_points: 120
{
183.197 194.157
186.955 189.195
191.832 185.590
197.650 183.213
203.599 181.365
209.884 181.197
216.178 181.489
222.130 183.048
227.894 185.159
233.162 188.464
236.132 192.641
231.212 196.314
225.235 197.860
219.130 199.005
212.883 199.543
206.646 200.048
200.332 200.132
194.331 199.038
188.632 196.922
183.197 194.073
337.493 187.062
341.894 183.017
347.222 179.874
352.763 177.157
358.757 175.902
365.058 175.902
371.152 176.781
376.841 178.858
382.617 180.886
387.665 184.011
389.005 188.533
383.717 191.519
378.058 193.897
372.074 195.238
365.820 195.384
359.519 195.384
353.240 195.290
347.622 193.369
342.350 190.277
337.493 187.345
216.055 369.948
216.549 359.575
219.599 350.606
224.503 341.697
229.791 333.502
237.447 326.995
246.524 323.539
256.400 321.070
266.395 319.343
277.077 319.096
287.070 321.070
297.640 321.196
307.109 318.355
317.729 318.602
326.707 323.147
335.938 327.646
343.360 334.327
349.227 342.532
353.801 351.213
356.897 360.758
357.010 371.410
357.010 382.133
356.270 392.611
354.307 402.757
350.564 411.722
347.841 420.801
345.377 430.273
342.199 439.621
339.237 448.815
335.287 457.744
329.188 464.915
320.867 469.678
311.586 472.887
302.250 476.096
292.038 477.331
281.520 476.837
271.755 474.862
262.218 473.243
255.076 466.997
248.659 460.334
243.352 452.436
238.702 443.973
234.925 434.842
231.114 425.827
227.905 416.196
224.863 407.065
221.239 397.926
217.537 388.951
215.809 379.334
215.315 368.961
224.905 367.733
229.708 355.452
239.631 347.710
253.431 345.056
267.314 341.920
280.756 338.542
295.380 338.542
310.004 338.542
322.510 342.303
334.444 348.922
343.439 358.729
351.077 369.572
351.077 384.196
346.980 397.398
341.668 409.484
335.318 421.127
328.159 432.165
320.528 442.430
310.306 450.859
298.264 455.788
284.448 457.959
270.963 456.270
259.845 449.233
250.892 439.971
243.815 428.620
237.725 416.292
232.866 403.810
226.594 392.362
223.216 379.445
224.664 365.562
}
