version: 1
n_points: 120
{
191.130 207.128
195.090 204.666
199.181 202.187
203.566 200.331
208.320 199.895
213.146 199.895
217.972 199.895
222.757 200.119
227.065 202.196
230.187 205.678
232.382 208.075
227.631 208.767
222.884 209.488
218.128 209.945
213.302 209.945
208.475 209.945
203.649 209.945
198.823 209.945
194.029 209.717
190.978 207.052
343.805 202.424
347.772 199.705
352.150 197.558
356.785 196.048
361.603 195.394
366.529 195.394
371.455 195.394
376.291 196.129
380.941 197.560
385.253 199.829
384.238 200.626
379.376 201.193
374.727 202.731
370.007 204.018
365.187 204.817
360.270 204.877
355.343 204.877
350.422 204.958
345.545 204.713
343.887 201.852
229.955 330.982
231.314 325.433
233.708 320.204
236.881 315.331
240.079 310.465
242.985 305.479
246.967 301.482
252.270 299.618
258.092 299.539
263.923 299.539
269.755 299.539
275.519 300.071
281.269 300.654
287.100 300.654
292.784 299.855
298.256 298.002
303.872 296.552
309.595 295.724
315.354 294.943
321.087 294.298
326.385 295.958
330.961 299.530
335.068 303.632
338.722 308.121
341.982 312.942
344.338 318.220
345.358 323.913
343.424 329.125
338.787 332.595
334.270 336.160
329.556 339.516
324.558 342.470
319.408 345.169
314.303 347.903
308.835 349.809
303.197 351.083
297.463 351.848
291.669 352.304
285.841 352.390
280.010 352.390
274.201 352.167
268.454 351.332
262.701 350.387
257.333 348.380
252.200 345.746
246.889 343.463
241.540 341.233
236.169 339.110
231.605 335.844
229.732 330.759
237.254 338.075
242.663 333.732
248.787 330.337
255.182 327.534
261.898 325.604
268.894 325.652
275.864 326.245
282.875 326.245
289.847 326.048
296.727 325.058
303.680 324.569
310.690 324.569
317.543 325.931
324.216 328.044
330.274 331.364
329.614 331.217
323.247 328.470
316.854 326.020
310.099 324.667
303.138 325.052
296.195 325.721
289.272 326.541
282.284 326.738
275.273 326.738
268.479 325.555
261.485 325.456
254.689 326.677
248.503 329.835
242.386 333.041
237.747 337.483
}
