version: 1
n_points: 120
{
176.826 208.446
181.038 203.352
186.987 199.833
193.325 197.290
199.880 195.662
206.843 195.662
213.639 196.578
219.581 199.866
225.360 203.361
231.408 206.483
230.625 212.048
224.780 215.382
218.443 217.743
211.530 218.208
204.602 218.556
197.712 219.021
190.749 219.021
184.412 216.896
178.801 212.861
177.175 207.400
332.005 203.973
336.375 199.427
341.748 195.552
347.593 192.371
353.806 190.031
360.452 189.427
367.096 190.199
373.561 191.831
379.001 195.689
384.495 199.524
385.684 204.702
380.370 208.739
374.154 211.213
367.731 213.026
361.091 213.760
354.367 213.720
347.828 212.558
341.629 210.860
335.918 207.707
331.652 203.533
210.980 381.382
213.763 372.866
218.867 365.397
224.611 358.055
231.256 352.253
239.482 348.160
248.426 345.362
257.996 345.481
266.981 348.148
276.284 348.710
285.882 348.710
295.267 348.107
304.765 347.867
313.584 351.028
322.050 354.817
330.610 358.828
337.713 364.778
343.583 372.140
348.734 379.912
353.259 388.016
354.949 397.227
354.769 406.795
351.500 415.263
349.258 424.073
346.096 432.488
343.567 441.353
341.559 450.320
337.970 458.437
332.391 466.021
325.997 472.212
317.525 476.448
309.168 479.905
299.892 481.886
290.400 482.350
280.837 482.140
271.708 480.249
262.727 478.449
254.195 474.976
246.199 470.774
239.545 464.593
233.745 457.430
229.319 449.473
225.964 440.877
222.822 432.220
220.220 423.471
216.744 414.906
213.019 406.608
211.402 397.521
210.769 388.138
210.769 379.696
216.781 385.152
222.140 374.734
233.791 371.872
246.476 370.186
259.165 368.710
272.184 368.710
285.203 368.710
298.222 368.710
310.861 370.396
323.261 373.347
334.920 377.736
344.882 385.092
348.946 396.416
346.661 408.658
342.922 420.386
337.467 431.654
329.521 440.444
319.286 447.905
308.480 454.291
296.657 458.717
283.638 458.717
270.909 460.193
259.684 455.766
249.580 448.768
241.097 439.746
234.276 429.545
228.137 419.273
223.116 407.940
218.256 396.965
216.781 384.941
}
