version: 1
n_points: 120
{
181.732 202.266
186.043 197.766
191.874 194.759
198.034 192.138
204.443 190.638
211.270 190.263
218.221 190.263
224.773 191.638
230.724 194.349
236.492 197.576
237.841 201.765
231.766 203.818
225.185 205.141
218.581 206.142
212.292 207.392
205.803 208.392
199.052 208.892
192.204 208.642
187.136 205.295
181.982 202.266
334.195 196.704
339.488 193.359
344.412 189.300
349.596 185.739
355.192 183.179
361.753 182.855
368.448 182.855
374.517 184.910
380.379 187.177
385.687 190.633
388.906 195.228
383.867 198.435
378.017 200.706
371.860 202.331
365.164 202.331
358.469 202.331
351.889 202.006
345.593 200.816
339.344 199.798
334.195 196.704
217.998 379.440
221.422 372.501
223.628 364.320
226.863 356.611
232.594 350.655
239.743 346.108
247.515 342.425
255.471 339.126
262.928 336.086
271.181 333.721
279.627 332.595
288.497 332.370
297.460 332.370
306.424 332.370
315.353 332.513
322.049 337.551
328.247 343.464
334.156 349.605
338.500 356.941
343.518 363.749
347.728 371.118
350.875 379.243
351.776 387.913
350.875 396.624
347.497 404.446
344.795 411.939
341.681 419.451
339.317 427.258
335.207 434.682
329.538 440.641
323.603 446.115
318.087 451.734
310.599 455.563
302.474 457.365
293.640 457.815
284.677 457.815
275.713 457.815
266.750 457.815
258.992 455.114
252.765 451.001
246.649 445.927
240.938 439.573
236.039 433.291
231.511 426.611
228.427 419.372
227.006 410.917
224.198 403.432
220.890 395.773
218.899 387.673
217.773 379.440
231.852 380.876
233.931 370.448
241.356 364.180
251.848 360.801
261.554 357.024
271.588 354.440
281.925 351.657
293.014 350.862
303.876 352.792
314.038 356.626
323.845 360.999
332.538 367.614
340.370 374.317
341.227 385.290
336.603 395.079
330.760 403.217
326.487 412.657
321.695 421.802
315.195 429.773
305.221 433.550
295.070 436.313
283.759 436.929
272.860 435.201
263.686 430.369
254.923 425.003
246.561 418.286
240.995 410.115
236.821 400.968
234.436 390.781
231.653 380.677
}
