version: 1
n_points: 120
{
175.166 211.671
179.205 206.137
184.991 202.127
191.157 198.697
197.693 196.606
204.560 195.588
211.474 196.744
217.901 199.543
223.781 203.285
229.678 206.788
232.082 211.735
226.473 215.639
219.813 217.839
212.903 219.008
206.053 220.221
199.080 221.141
192.019 221.443
185.176 220.323
179.479 216.627
174.962 211.976
330.419 206.293
335.241 201.306
341.104 197.416
347.393 194.236
353.649 191.445
360.625 190.943
367.661 191.306
374.265 193.513
380.384 196.865
386.453 200.321
387.550 205.788
382.028 209.926
375.691 212.857
368.963 214.574
362.010 215.449
354.936 215.684
347.864 215.367
341.176 213.817
335.133 210.467
330.217 206.192
223.036 389.402
223.572 381.865
227.513 375.984
232.004 369.857
237.524 364.726
243.118 359.789
249.169 355.298
255.146 350.648
260.853 346.633
268.332 346.327
275.997 346.506
283.684 346.506
290.746 344.848
298.196 343.825
305.025 346.278
311.172 350.282
316.573 355.603
321.094 361.671
324.923 368.235
329.146 374.474
332.535 381.232
334.743 388.453
335.994 395.882
335.994 403.569
335.994 411.256
334.922 418.692
332.777 425.819
330.096 432.639
326.868 439.278
322.006 445.078
316.361 449.977
310.329 454.309
303.531 457.498
296.279 459.443
288.765 460.536
281.157 460.975
273.482 461.072
266.671 458.391
259.915 455.691
253.159 452.411
247.145 448.012
241.459 443.034
237.210 436.872
233.047 430.690
229.543 424.221
226.860 417.245
225.534 409.856
224.229 402.569
222.614 395.283
222.321 387.793
237.607 390.859
240.627 383.396
246.225 377.798
253.527 374.359
261.243 371.929
269.658 370.874
278.101 369.998
286.820 369.998
294.946 371.321
301.523 375.406
309.406 378.248
316.359 382.690
322.445 388.197
323.596 396.120
320.014 403.679
316.229 411.127
312.357 418.289
308.031 425.284
302.463 431.035
294.859 434.087
286.530 436.140
277.968 436.444
270.038 433.933
262.460 430.810
256.131 425.521
251.056 419.446
247.150 412.377
242.854 405.571
240.118 397.982
237.221 390.665
}
