version: 1
n_points: 120
{
184.004 191.213
187.385 186.275
192.933 182.866
198.582 179.653
204.784 177.843
211.245 177.334
217.679 178.254
223.884 180.159
229.898 182.755
236.034 184.603
239.215 188.527
234.060 192.266
227.880 194.229
221.446 195.308
215.049 196.284
208.601 197.084
201.999 197.084
195.570 196.461
189.742 194.037
184.182 191.035
336.828 184.877
340.707 180.147
345.828 176.539
351.555 173.785
357.466 171.591
363.831 171.422
370.095 172.502
376.289 173.816
381.902 176.422
386.722 180.500
390.866 184.182
385.292 187.277
379.445 189.814
373.274 191.195
366.911 191.592
360.497 191.592
354.083 191.592
348.072 190.121
342.368 187.783
336.922 184.972
215.530 351.373
219.257 342.613
224.789 333.809
230.379 325.289
238.015 318.822
247.927 315.637
258.115 312.868
268.195 310.352
278.850 310.100
289.609 310.100
300.368 310.100
311.127 310.100
321.781 310.352
331.661 313.302
339.941 319.248
346.719 327.285
352.101 336.190
358.217 344.319
363.445 352.786
364.013 363.391
361.748 373.602
359.231 383.011
356.715 392.751
353.946 402.369
351.430 412.276
348.750 422.002
345.641 431.851
341.615 440.487
337.336 449.606
332.584 458.554
323.945 463.517
314.534 466.838
304.282 468.397
294.188 469.907
283.742 470.662
272.983 470.662
263.907 467.168
255.562 461.611
248.008 455.324
241.420 447.949
235.413 439.710
230.882 430.745
228.600 420.781
226.604 410.529
224.842 400.410
223.297 390.059
219.392 380.991
215.782 371.706
214.775 361.377
214.775 350.618
223.321 361.391
227.318 348.650
238.677 340.397
252.021 336.119
266.167 332.649
281.261 332.649
295.874 330.803
310.906 330.539
325.829 331.067
338.552 336.390
349.541 344.956
355.956 357.198
355.479 371.046
351.773 384.786
346.463 397.814
340.082 409.962
332.939 422.039
325.864 433.657
317.457 444.628
303.943 447.880
289.937 450.517
274.843 450.517
263.678 443.674
254.268 434.480
246.070 423.957
238.936 412.604
233.220 400.104
228.067 387.492
224.376 374.404
222.794 360.072
}
