version: 1
n_points: 120
{
188.835 206.771
192.740 203.203
197.537 200.566
202.787 199.159
208.173 198.217
213.620 197.800
219.102 197.844
224.404 199.057
228.720 202.163
233.140 205.102
236.986 207.118
231.848 208.668
226.365 208.668
220.900 208.976
215.494 209.761
210.026 209.980
204.542 209.980
199.059 209.980
193.811 208.895
189.054 206.771
340.076 201.997
343.812 198.453
348.337 195.839
353.259 194.104
358.329 192.872
363.553 192.595
368.816 192.595
374.030 193.129
379.132 194.158
383.780 196.549
385.738 199.347
380.739 200.901
375.679 202.294
370.579 203.553
365.382 204.161
360.130 204.305
354.867 204.309
349.604 204.309
344.380 204.000
340.076 201.766
233.997 331.302
234.116 325.683
236.099 320.411
237.081 314.875
239.868 310.039
243.700 305.847
248.270 302.833
253.528 300.837
258.879 299.170
264.573 298.681
270.310 298.681
276.000 299.037
281.694 299.274
287.402 299.512
293.112 299.274
298.656 297.907
304.116 296.309
309.732 295.716
315.469 295.716
321.111 296.155
325.886 299.233
330.265 302.854
333.615 307.389
336.010 312.503
336.840 318.050
336.840 323.787
336.840 329.524
336.840 335.261
336.012 340.783
333.365 345.826
329.246 349.690
324.632 352.908
319.613 355.558
314.398 357.858
308.802 358.963
303.094 359.296
297.371 359.414
291.652 359.634
285.965 360.126
280.228 360.126
274.711 358.944
269.461 357.040
264.151 355.078
258.896 352.819
253.932 350.019
249.314 346.732
244.855 343.206
240.479 339.639
237.043 335.178
233.878 331.064
239.338 340.912
243.751 335.761
249.619 331.835
255.535 328.099
262.603 327.659
269.569 328.730
276.600 329.328
283.731 329.443
290.860 329.345
297.766 327.978
304.619 326.422
311.712 326.721
318.250 329.377
324.455 332.699
330.544 336.114
329.349 335.494
323.324 332.246
317.216 328.933
310.707 326.766
303.561 326.766
296.483 327.149
289.951 329.570
282.853 329.952
275.721 329.841
269.025 328.168
261.946 327.786
254.884 328.041
249.522 332.130
243.832 335.925
239.593 340.657
}
