version: 1
n_points: 120
{
175.712 207.596
179.789 201.777
185.549 197.399
191.808 193.872
198.539 191.819
205.650 192.672
212.474 194.979
219.250 197.425
225.868 200.290
231.582 204.203
230.237 210.482
224.498 214.543
217.381 215.823
210.315 217.519
203.202 218.701
195.907 218.983
188.612 218.736
182.150 216.018
177.039 211.629
175.831 206.409
328.538 204.654
334.208 199.950
340.327 195.691
346.554 191.724
353.415 188.829
360.602 187.477
367.804 189.035
374.639 191.393
381.082 194.744
386.604 199.436
387.617 205.809
380.969 208.838
374.339 212.215
367.250 214.034
359.855 214.373
352.445 213.788
345.231 212.635
338.473 210.218
331.342 208.836
328.651 203.976
220.580 403.977
223.351 395.416
224.670 386.415
227.615 378.143
232.292 370.533
236.769 362.851
242.962 356.225
249.705 350.892
258.224 349.400
267.462 350.029
276.181 351.958
285.480 351.656
293.368 348.760
302.754 348.760
310.725 352.366
318.108 357.386
325.129 363.213
329.976 371.017
333.770 379.413
337.522 387.685
340.763 395.818
343.379 404.405
343.379 413.791
342.740 423.027
340.608 431.698
339.755 440.807
338.263 449.768
337.197 458.842
333.623 466.555
329.095 473.939
324.832 481.306
317.123 485.238
309.966 489.895
301.989 493.306
292.956 494.159
283.570 494.159
274.183 494.159
265.338 492.879
257.459 489.255
250.427 484.501
244.071 478.209
238.371 471.656
233.277 464.430
229.534 456.540
227.821 447.454
224.843 439.362
223.166 430.470
221.646 421.920
220.793 412.849
220.580 403.551
230.903 405.976
235.507 395.659
241.425 386.009
249.492 378.924
260.183 375.296
270.924 372.545
282.505 371.487
294.343 371.487
304.788 375.322
314.551 381.078
324.051 386.558
330.896 395.217
335.006 405.272
335.491 416.525
333.240 427.631
329.379 438.052
324.426 447.407
318.188 456.068
310.044 463.314
300.010 468.120
288.848 470.088
277.235 470.723
267.228 466.986
257.583 461.856
249.434 455.399
242.540 446.848
238.014 437.378
234.314 427.174
232.172 416.108
230.268 405.130
}
