version: 1
n_points: 120
{
176.252 204.582
180.660 199.428
186.130 195.110
192.419 192.070
198.803 189.295
205.952 189.161
212.970 189.808
218.682 193.986
224.946 197.161
230.837 200.781
232.213 206.974
226.237 210.495
219.549 212.652
212.827 214.689
205.954 216.145
198.855 216.668
191.674 216.668
185.409 213.851
179.765 209.933
176.043 204.686
331.491 198.132
336.300 193.490
342.505 190.321
348.984 187.693
355.150 184.808
362.108 184.407
369.191 184.407
375.687 186.826
381.294 190.824
386.428 195.362
386.247 201.484
380.780 205.748
374.218 207.857
367.365 209.153
360.359 209.654
353.288 209.572
346.390 208.645
340.094 205.787
334.104 202.443
331.291 197.231
218.963 393.150
221.996 384.603
226.262 376.485
230.051 368.158
234.954 360.341
239.801 352.669
246.577 347.133
255.894 346.624
264.885 348.183
273.962 350.553
283.540 350.760
292.809 349.933
302.257 349.106
310.866 352.563
318.659 357.494
325.960 363.464
332.152 370.355
336.914 378.310
340.259 387.105
341.968 396.397
344.687 404.771
345.721 414.156
345.721 423.768
344.861 433.158
342.963 442.227
341.585 451.288
339.724 460.255
335.807 468.189
332.024 476.326
327.731 484.138
320.063 488.494
311.550 492.199
302.427 493.647
293.226 495.498
283.665 495.714
274.053 495.714
265.239 493.026
257.110 488.990
249.445 484.901
243.287 478.410
238.256 470.962
233.438 462.988
230.694 454.095
227.855 445.481
224.714 436.930
222.685 427.854
220.534 418.915
218.550 409.843
218.963 400.402
219.170 390.876
227.026 395.285
232.193 385.246
240.574 377.474
251.644 373.446
264.098 371.466
276.614 370.158
289.408 370.393
300.763 372.976
311.924 376.733
323.696 380.097
334.018 386.575
340.597 396.516
342.800 408.594
339.993 420.624
336.701 432.375
331.922 444.046
326.587 454.707
319.115 463.354
308.044 469.180
296.262 472.821
283.853 474.190
271.101 473.955
261.117 467.869
251.765 460.375
243.934 451.593
237.932 441.182
234.071 430.065
231.252 418.533
227.966 407.278
227.496 394.581
}
