version: 1
n_points: 120
{
184.318 191.594
187.967 186.538
193.401 183.212
199.382 181.386
205.476 179.576
211.913 178.970
218.294 179.558
224.202 181.846
229.966 184.593
235.907 186.904
237.692 190.531
232.548 194.362
226.443 196.239
220.324 198.039
213.940 198.865
207.423 198.865
200.906 198.865
194.662 197.667
188.788 195.394
184.015 191.695
335.801 186.077
340.388 181.720
345.871 178.426
351.871 176.209
357.799 173.896
364.071 172.948
370.492 173.133
376.392 175.471
382.020 178.477
387.795 181.045
388.209 185.900
382.774 189.142
376.902 191.234
370.708 192.266
364.276 192.453
357.823 192.453
351.370 192.453
345.083 191.515
339.283 189.371
335.707 185.701
211.497 342.520
215.182 334.617
222.024 328.043
229.616 321.959
237.543 316.696
246.069 311.944
255.449 309.000
265.185 307.443
274.888 305.667
284.823 305.223
294.864 305.223
304.456 304.334
314.496 304.334
324.177 306.171
333.448 309.410
342.115 314.350
350.943 318.403
358.833 323.714
364.859 331.372
366.682 340.809
367.348 350.678
367.570 360.666
365.790 370.290
362.464 379.390
358.004 387.850
353.900 396.374
349.365 404.820
344.709 413.109
338.563 420.592
333.159 428.076
326.581 435.238
317.455 437.763
308.026 440.205
298.065 440.649
288.024 440.649
277.984 440.649
268.190 440.578
259.685 436.215
251.498 431.769
243.626 426.156
236.767 419.701
230.820 412.027
226.475 403.558
222.158 395.151
218.379 386.315
215.493 377.646
212.829 368.495
211.497 358.798
210.387 349.139
211.497 340.078
216.022 355.718
218.895 342.684
228.892 335.536
241.715 330.686
255.308 329.250
268.911 327.608
282.605 326.377
296.573 325.967
310.600 325.967
324.627 325.967
338.654 325.967
350.937 330.182
360.263 339.335
363.136 352.544
360.505 365.698
353.522 377.359
345.731 388.306
336.676 398.461
326.614 407.491
315.107 414.747
302.773 418.858
289.085 420.961
275.562 420.144
263.478 414.751
251.557 408.693
241.845 399.772
233.329 389.644
226.973 378.569
220.536 367.444
215.407 355.923
}
