version: 1
n_points: 120
{
191.425 209.184
195.331 206.108
200.115 204.399
205.042 203.213
210.053 202.580
215.128 202.323
220.211 202.195
225.096 203.259
229.211 206.199
233.258 209.209
234.810 211.366
229.792 212.147
224.894 213.416
219.830 213.672
214.738 213.672
209.647 213.672
204.555 213.672
199.476 213.516
194.545 212.383
191.361 208.863
346.202 204.871
350.531 201.061
355.268 197.694
361.000 196.586
366.902 196.579
372.773 196.983
378.463 198.405
384.127 200.063
389.604 202.157
394.963 204.556
394.980 205.998
389.080 206.033
383.331 207.242
377.585 208.540
371.804 209.540
365.930 209.862
360.053 209.703
354.249 208.847
348.518 208.011
346.443 204.630
222.987 333.496
224.627 327.559
227.746 321.955
231.250 316.573
235.204 311.596
239.891 307.273
245.299 303.924
251.513 303.120
257.785 304.306
264.148 305.018
270.587 305.145
277.036 305.145
283.484 305.145
289.932 305.145
296.381 305.145
302.764 304.619
308.856 302.805
315.052 301.273
321.251 299.955
327.663 299.702
334.002 300.287
340.060 302.395
345.120 306.150
348.975 311.289
352.939 316.303
357.024 321.268
358.542 327.382
355.631 332.653
350.237 336.130
344.376 338.807
338.446 341.307
332.686 344.066
326.688 346.396
320.334 347.232
313.995 348.272
307.661 349.303
301.387 350.730
295.058 351.596
288.609 351.596
282.161 351.596
275.713 351.596
269.285 351.431
263.045 350.097
257.109 347.697
251.043 345.663
244.746 344.414
238.622 342.641
232.530 340.643
226.997 337.449
222.734 333.496
232.090 338.477
238.715 334.402
246.032 331.768
253.727 330.222
261.567 329.615
269.480 329.615
277.392 329.615
285.305 329.615
293.193 329.858
301.106 329.858
309.018 329.858
316.931 329.858
324.843 329.858
332.696 330.256
340.398 331.679
339.580 331.800
331.825 331.072
323.957 330.708
316.045 330.708
308.132 330.708
300.220 330.708
292.327 330.586
284.414 330.586
276.510 330.465
268.634 330.222
260.722 330.222
252.848 330.253
245.255 331.969
237.871 334.159
231.847 337.992
}
