version: 1
n_points: 120
{
185.792 235.620
191.743 233.506
197.944 232.091
204.246 231.174
210.441 229.843
216.727 229.003
223.024 228.175
229.336 227.349
235.708 227.039
242.106 227.039
240.738 227.039
234.339 227.039
227.979 227.348
221.728 228.280
215.630 229.562
209.393 230.451
203.178 231.588
196.996 232.725
190.822 233.863
185.068 235.103
329.758 225.246
336.445 224.606
343.319 224.606
350.193 224.606
357.066 224.606
363.864 225.246
370.630 226.149
377.272 227.843
383.952 229.207
390.683 230.362
390.578 230.082
384.088 228.337
377.447 227.164
370.634 226.845
364.061 225.772
357.360 224.819
350.486 224.819
343.612 224.819
336.738 224.819
329.864 224.819
218.464 371.574
224.392 368.990
229.811 365.371
235.666 362.583
241.208 359.176
246.800 355.850
252.498 352.892
258.642 350.899
264.956 349.862
271.480 350.242
277.846 351.576
284.384 351.812
290.901 351.502
296.954 349.175
303.296 347.781
309.593 349.077
315.672 351.487
321.754 353.918
327.933 356.127
333.990 358.549
339.706 361.721
345.558 364.668
351.211 367.969
356.622 371.551
355.168 376.654
351.201 381.755
346.394 386.137
340.818 389.587
335.889 393.782
331.000 398.099
325.313 401.293
319.652 404.556
314.069 407.955
307.751 409.434
301.214 409.798
294.647 409.798
288.100 410.058
281.628 410.968
275.061 410.968
268.657 410.165
262.563 407.855
256.409 405.587
250.416 403.021
245.029 399.418
239.814 395.524
235.014 391.101
230.950 386.140
226.562 381.373
222.536 376.426
218.594 371.574
252.478 374.642
256.731 374.794
261.656 373.575
266.781 372.965
271.880 372.203
277.071 371.898
282.302 371.898
287.532 371.898
292.763 371.898
297.994 371.898
303.225 371.898
308.456 371.898
313.609 372.356
318.643 373.446
318.941 377.977
314.272 379.919
309.613 382.269
304.699 383.904
299.570 384.700
294.410 385.462
289.179 385.462
283.948 385.462
278.717 385.462
273.486 385.462
268.358 384.863
263.380 383.786
258.298 382.646
253.468 380.928
249.735 377.961
252.630 374.489
}
