version: 1
n_points: 68
{
76.000000 166.000000
80.000000 195.000000
87.000000 220.000000
91.000000 241.000000
101.000000 262.000000
115.000000 280.000000
133.000000 291.000000
147.000000 298.000000
179.000000 305.000000
208.000000 298.000000
225.000000 291.000000
240.000000 280.000000
254.000000 262.000000
261.000000 237.000000
268.000000 216.000000
271.000000 191.000000
275.000000 163.000000
98.000000 135.000000
108.000000 124.000000
122.000000 117.000000
137.000000 117.000000
151.000000 120.000000
204.000000 120.000000
218.000000 117.000000
229.000000 117.000000
247.000000 120.000000
257.000000 135.000000
176.000000 152.000000
176.000000 170.000000
176.000000 184.000000
176.000000 198.000000
161.000000 209.000000
169.000000 213.000000
176.000000 213.000000
186.000000 213.000000
193.000000 213.000000
115.000000 156.000000
126.000000 149.000000
140.000000 149.000000
151.000000 156.000000
140.000000 159.000000
126.000000 159.000000
204.000000 156.000000
215.000000 149.000000
229.000000 149.000000
240.000000 152.000000
229.000000 159.000000
215.000000 159.000000
147.000000 248.000000
154.000000 237.000000
169.000000 230.000000
179.000000 230.000000
186.000000 230.000000
201.000000 237.000000
211.000000 248.000000
201.000000 255.000000
190.000000 259.000000
179.000000 259.000000
165.000000 262.000000
158.000000 255.000000
147.000000 248.000000
169.000000 241.000000
176.000000 241.000000
186.000000 241.000000
208.000000 248.000000
186.000000 245.000000
179.000000 248.000000
169.000000 248.000000
}
