version: 1
n_points: 68
{
78.000000 169.000000
82.000000 194.000000
89.000000 219.000000
93.000000 241.000000
103.000000 266.000000
118.000000 280.000000
132.000000 291.000000
150.000000 294.000000
182.000000 305.000000
211.000000 298.000000
228.000000 291.000000
239.000000 280.000000
254.000000 262.000000
264.000000 237.000000
268.000000 215.000000
275.000000 190.000000
275.000000 165.000000
100.000000 133.000000
110.000000 123.000000
125.000000 115.000000
139.000000 115.000000
153.000000 119.000000
207.000000 119.000000
218.000000 115.000000
232.000000 115.000000
246.000000 123.000000
261.000000 133.000000
178.000000 151.000000
178.000000 169.000000
178.000000 183.000000
175.000000 198.000000
164.000000 208.000000
171.000000 212.000000
178.000000 212.000000
189.000000 212.000000
196.000000 212.000000
118.000000 155.000000
128.000000 148.000000
139.000000 148.000000
153.000000 155.000000
143.000000 158.000000
128.000000 158.000000
207.000000 155.000000
218.000000 148.000000
228.000000 148.000000
239.000000 155.000000
228.000000 158.000000
218.000000 158.000000
146.000000 248.000000
157.000000 237.000000
171.000000 230.000000
178.000000 230.000000
186.000000 230.000000
203.000000 237.000000
214.000000 248.000000
200.000000 255.000000
189.000000 258.000000
178.000000 258.000000
168.000000 258.000000
157.000000 255.000000
150.000000 248.000000
171.000000 241.000000
178.000000 241.000000
189.000000 241.000000
211.000000 248.000000
189.000000 244.000000
178.000000 248.000000
171.000000 248.000000
}
