version: 1
n_points: 68
{
75.000000 166.000000
79.000000 195.000000
86.000000 216.000000
90.000000 241.000000
100.000000 262.000000
118.000000 280.000000
132.000000 290.000000
150.000000 298.000000
178.000000 305.000000
210.000000 298.000000
224.000000 290.000000
239.000000 280.000000
253.000000 262.000000
260.000000 237.000000
267.000000 216.000000
270.000000 191.000000
274.000000 166.000000
97.000000 134.000000
107.000000 124.000000
125.000000 117.000000
139.000000 117.000000
153.000000 120.000000
203.000000 120.000000
217.000000 117.000000
231.000000 117.000000
246.000000 124.000000
260.000000 134.000000
178.000000 152.000000
178.000000 170.000000
175.000000 184.000000
175.000000 198.000000
161.000000 209.000000
168.000000 212.000000
178.000000 212.000000
189.000000 212.000000
196.000000 212.000000
118.000000 156.000000
129.000000 149.000000
139.000000 149.000000
150.000000 156.000000
139.000000 159.000000
129.000000 159.000000
203.000000 156.000000
217.000000 149.000000
228.000000 149.000000
239.000000 156.000000
228.000000 159.000000
214.000000 159.000000
146.000000 248.000000
157.000000 237.000000
171.000000 230.000000
178.000000 234.000000
185.000000 230.000000
200.000000 237.000000
210.000000 248.000000
200.000000 255.000000
189.000000 259.000000
178.000000 262.000000
168.000000 262.000000
157.000000 255.000000
146.000000 248.000000
168.000000 241.000000
178.000000 241.000000
189.000000 241.000000
210.000000 248.000000
189.000000 248.000000
178.000000 248.000000
168.000000 248.000000
}
