version: 1
n_points: 68
{
26.000000 63.000000
26.000000 74.000000
29.000000 83.000000
30.000000 92.000000
34.000000 101.000000
40.000000 110.000000
47.000000 114.000000
53.000000 118.000000
66.000000 122.000000
77.000000 119.000000
84.000000 114.000000
89.000000 110.000000
93.000000 103.000000
97.000000 93.000000
99.000000 83.000000
101.000000 74.000000
101.000000 64.000000
33.000000 53.000000
38.000000 49.000000
44.000000 48.000000
49.000000 48.000000
55.000000 49.000000
75.000000 51.000000
81.000000 49.000000
86.000000 49.000000
92.000000 51.000000
96.000000 53.000000
64.000000 63.000000
64.000000 70.000000
64.000000 75.000000
64.000000 81.000000
59.000000 85.000000
62.000000 85.000000
64.000000 86.000000
69.000000 86.000000
71.000000 85.000000
41.000000 62.000000
45.000000 60.000000
49.000000 60.000000
55.000000 63.000000
51.000000 64.000000
45.000000 64.000000
75.000000 63.000000
81.000000 60.000000
85.000000 60.000000
89.000000 63.000000
85.000000 64.000000
79.000000 64.000000
49.000000 97.000000
55.000000 94.000000
62.000000 93.000000
66.000000 93.000000
69.000000 93.000000
75.000000 94.000000
79.000000 97.000000
75.000000 103.000000
70.000000 105.000000
66.000000 107.000000
60.000000 105.000000
55.000000 103.000000
51.000000 97.000000
60.000000 96.000000
66.000000 96.000000
70.000000 96.000000
78.000000 97.000000
70.000000 101.000000
66.000000 101.000000
60.000000 101.000000
}
