version: 1
n_points: 68
{
26.000000 63.000000
26.000000 73.000000
27.000000 82.000000
30.000000 92.000000
33.000000 100.000000
40.000000 108.000000
45.000000 113.000000
52.000000 118.000000
64.000000 122.000000
75.000000 119.000000
84.000000 114.000000
89.000000 110.000000
93.000000 102.000000
98.000000 92.000000
100.000000 82.000000
102.000000 74.000000
102.000000 64.000000
33.000000 53.000000
38.000000 49.000000
44.000000 48.000000
49.000000 48.000000
55.000000 49.000000
75.000000 51.000000
81.000000 49.000000
86.000000 49.000000
92.000000 51.000000
96.000000 53.000000
64.000000 63.000000
64.000000 70.000000
64.000000 75.000000
64.000000 81.000000
58.000000 84.000000
60.000000 85.000000
64.000000 86.000000
69.000000 85.000000
73.000000 85.000000
41.000000 62.000000
45.000000 60.000000
49.000000 60.000000
55.000000 62.000000
51.000000 63.000000
45.000000 63.000000
75.000000 63.000000
81.000000 60.000000
85.000000 60.000000
89.000000 62.000000
85.000000 64.000000
80.000000 64.000000
48.000000 95.000000
53.000000 93.000000
62.000000 92.000000
64.000000 93.000000
69.000000 92.000000
77.000000 93.000000
81.000000 95.000000
75.000000 102.000000
70.000000 104.000000
64.000000 106.000000
59.000000 106.000000
53.000000 102.000000
49.000000 95.000000
59.000000 95.000000
64.000000 96.000000
70.000000 96.000000
80.000000 95.000000
70.000000 100.000000
64.000000 102.000000
60.000000 100.000000
}
