version: 1
n_points: 68
{
81.000000 166.000000
84.000000 194.000000
92.000000 219.000000
95.000000 240.000000
106.000000 265.000000
120.000000 283.000000
134.000000 290.000000
152.000000 297.000000
183.000000 304.000000
212.000000 297.000000
229.000000 290.000000
244.000000 279.000000
258.000000 261.000000
265.000000 240.000000
268.000000 215.000000
275.000000 191.000000
275.000000 166.000000
102.000000 134.000000
113.000000 120.000000
127.000000 116.000000
141.000000 116.000000
155.000000 120.000000
208.000000 120.000000
222.000000 116.000000
237.000000 116.000000
251.000000 120.000000
261.000000 134.000000
180.000000 152.000000
180.000000 169.000000
180.000000 183.000000
180.000000 198.000000
166.000000 208.000000
173.000000 212.000000
180.000000 212.000000
191.000000 212.000000
198.000000 212.000000
120.000000 155.000000
130.000000 148.000000
145.000000 148.000000
155.000000 155.000000
145.000000 159.000000
130.000000 159.000000
208.000000 155.000000
219.000000 148.000000
233.000000 148.000000
244.000000 155.000000
233.000000 159.000000
219.000000 159.000000
148.000000 247.000000
159.000000 237.000000
173.000000 229.000000
183.000000 229.000000
191.000000 229.000000
205.000000 237.000000
215.000000 247.000000
205.000000 254.000000
194.000000 258.000000
183.000000 258.000000
169.000000 261.000000
162.000000 254.000000
152.000000 247.000000
173.000000 240.000000
183.000000 240.000000
191.000000 240.000000
212.000000 247.000000
191.000000 244.000000
183.000000 247.000000
173.000000 247.000000
}
