version: 1
n_points: 68
{
76.000000 165.000000
80.000000 194.000000
87.000000 216.000000
94.000000 241.000000
101.000000 263.000000
119.000000 281.000000
134.000000 292.000000
152.000000 299.000000
181.000000 306.000000
209.000000 299.000000
227.000000 292.000000
242.000000 281.000000
256.000000 263.000000
263.000000 238.000000
267.000000 216.000000
274.000000 191.000000
274.000000 165.000000
98.000000 133.000000
112.000000 122.000000
126.000000 115.000000
141.000000 115.000000
152.000000 119.000000
206.000000 119.000000
220.000000 115.000000
231.000000 115.000000
249.000000 122.000000
260.000000 133.000000
177.000000 151.000000
177.000000 169.000000
177.000000 183.000000
177.000000 198.000000
163.000000 209.000000
170.000000 212.000000
177.000000 212.000000
188.000000 212.000000
195.000000 212.000000
119.000000 155.000000
130.000000 151.000000
141.000000 151.000000
152.000000 155.000000
141.000000 158.000000
130.000000 158.000000
206.000000 155.000000
217.000000 151.000000
231.000000 151.000000
238.000000 155.000000
227.000000 158.000000
217.000000 158.000000
148.000000 248.000000
155.000000 238.000000
170.000000 230.000000
181.000000 230.000000
188.000000 230.000000
202.000000 238.000000
213.000000 248.000000
202.000000 256.000000
191.000000 259.000000
181.000000 263.000000
170.000000 263.000000
159.000000 256.000000
148.000000 248.000000
170.000000 241.000000
181.000000 241.000000
188.000000 241.000000
209.000000 248.000000
188.000000 245.000000
181.000000 248.000000
170.000000 248.000000
}
