version: 1
n_points: 68
{
82.000000 168.000000
85.000000 193.000000
89.000000 218.000000
96.000000 240.000000
107.000000 265.000000
121.000000 279.000000
135.000000 290.000000
153.000000 297.000000
182.000000 305.000000
211.000000 301.000000
229.000000 290.000000
243.000000 279.000000
258.000000 261.000000
268.000000 236.000000
272.000000 215.000000
276.000000 190.000000
276.000000 164.000000
103.000000 136.000000
114.000000 121.000000
128.000000 118.000000
143.000000 118.000000
157.000000 118.000000
207.000000 118.000000
222.000000 118.000000
236.000000 118.000000
250.000000 121.000000
261.000000 132.000000
182.000000 150.000000
182.000000 168.000000
179.000000 182.000000
179.000000 197.000000
164.000000 211.000000
171.000000 211.000000
182.000000 215.000000
189.000000 211.000000
200.000000 211.000000
125.000000 157.000000
132.000000 154.000000
146.000000 154.000000
153.000000 157.000000
146.000000 161.000000
135.000000 161.000000
207.000000 157.000000
218.000000 154.000000
232.000000 154.000000
240.000000 157.000000
232.000000 161.000000
218.000000 161.000000
150.000000 247.000000
161.000000 236.000000
175.000000 229.000000
182.000000 233.000000
189.000000 229.000000
204.000000 236.000000
214.000000 247.000000
204.000000 254.000000
193.000000 258.000000
182.000000 261.000000
168.000000 261.000000
161.000000 254.000000
150.000000 247.000000
171.000000 243.000000
182.000000 240.000000
189.000000 243.000000
211.000000 247.000000
189.000000 247.000000
182.000000 247.000000
171.000000 247.000000
}
