version: 1
n_points: 68
{
74.000000 164.000000
78.000000 193.000000
81.000000 219.000000
89.000000 241.000000
100.000000 266.000000
114.000000 284.000000
129.000000 295.000000
147.000000 306.000000
176.000000 313.000000
205.000000 306.000000
223.000000 295.000000
238.000000 284.000000
249.000000 262.000000
260.000000 237.000000
263.000000 215.000000
267.000000 190.000000
271.000000 164.000000
92.000000 131.000000
103.000000 120.000000
121.000000 113.000000
136.000000 113.000000
147.000000 117.000000
202.000000 117.000000
212.000000 113.000000
227.000000 113.000000
242.000000 120.000000
256.000000 131.000000
172.000000 150.000000
172.000000 168.000000
172.000000 182.000000
172.000000 197.000000
158.000000 211.000000
165.000000 211.000000
172.000000 215.000000
183.000000 211.000000
191.000000 211.000000
114.000000 153.000000
125.000000 150.000000
136.000000 150.000000
147.000000 153.000000
136.000000 157.000000
125.000000 157.000000
202.000000 153.000000
212.000000 146.000000
223.000000 150.000000
234.000000 153.000000
223.000000 157.000000
212.000000 157.000000
147.000000 252.000000
154.000000 241.000000
169.000000 230.000000
176.000000 230.000000
183.000000 230.000000
198.000000 241.000000
209.000000 252.000000
198.000000 262.000000
187.000000 270.000000
176.000000 273.000000
165.000000 270.000000
154.000000 266.000000
151.000000 252.000000
169.000000 244.000000
176.000000 241.000000
183.000000 244.000000
205.000000 252.000000
183.000000 255.000000
176.000000 259.000000
165.000000 255.000000
}
