version: 1
n_points: 68
{
74.000000 166.000000
77.000000 192.000000
81.000000 217.000000
88.000000 239.000000
99.000000 265.000000
114.000000 283.000000
128.000000 294.000000
147.000000 305.000000
176.000000 312.000000
205.000000 305.000000
223.000000 294.000000
238.000000 283.000000
249.000000 261.000000
260.000000 235.000000
263.000000 214.000000
267.000000 188.000000
270.000000 163.000000
92.000000 130.000000
103.000000 119.000000
117.000000 115.000000
132.000000 115.000000
147.000000 115.000000
201.000000 115.000000
212.000000 115.000000
227.000000 115.000000
241.000000 119.000000
256.000000 130.000000
172.000000 152.000000
172.000000 170.000000
172.000000 184.000000
172.000000 195.000000
157.000000 210.000000
165.000000 214.000000
172.000000 214.000000
183.000000 214.000000
190.000000 210.000000
114.000000 152.000000
125.000000 148.000000
136.000000 148.000000
147.000000 152.000000
136.000000 155.000000
125.000000 159.000000
201.000000 152.000000
212.000000 148.000000
223.000000 148.000000
234.000000 152.000000
223.000000 159.000000
212.000000 159.000000
147.000000 254.000000
154.000000 239.000000
168.000000 228.000000
176.000000 232.000000
183.000000 228.000000
198.000000 239.000000
205.000000 254.000000
198.000000 265.000000
187.000000 272.000000
176.000000 272.000000
161.000000 272.000000
154.000000 265.000000
150.000000 254.000000
168.000000 243.000000
176.000000 243.000000
183.000000 243.000000
205.000000 254.000000
183.000000 257.000000
176.000000 257.000000
165.000000 257.000000
}
