version: 1
n_points: 68
{
24.000000 62.000000
26.000000 73.000000
27.000000 82.000000
30.000000 90.000000
34.000000 98.000000
40.000000 104.000000
47.000000 105.000000
55.000000 111.000000
67.000000 115.000000
78.000000 112.000000
84.000000 108.000000
89.000000 102.000000
93.000000 97.000000
98.000000 89.000000
100.000000 80.000000
102.000000 71.000000
102.000000 61.000000
33.000000 55.000000
37.000000 54.000000
44.000000 54.000000
49.000000 54.000000
53.000000 55.000000
73.000000 55.000000
78.000000 54.000000
84.000000 53.000000
89.000000 54.000000
95.000000 55.000000
64.000000 65.000000
63.000000 72.000000
63.000000 79.000000
64.000000 84.000000
59.000000 89.000000
60.000000 89.000000
64.000000 90.000000
67.000000 89.000000
70.000000 87.000000
40.000000 62.000000
44.000000 61.000000
48.000000 61.000000
52.000000 64.000000
48.000000 65.000000
44.000000 65.000000
74.000000 62.000000
78.000000 60.000000
84.000000 61.000000
88.000000 62.000000
84.000000 65.000000
78.000000 65.000000
52.000000 100.000000
58.000000 100.000000
62.000000 100.000000
64.000000 100.000000
67.000000 100.000000
73.000000 100.000000
78.000000 100.000000
74.000000 102.000000
70.000000 104.000000
66.000000 104.000000
62.000000 104.000000
58.000000 102.000000
52.000000 100.000000
62.000000 101.000000
64.000000 101.000000
69.000000 101.000000
77.000000 100.000000
69.000000 101.000000
64.000000 101.000000
62.000000 101.000000
}
