version: 1
n_points: 68
{
23.000000 62.000000
24.000000 73.000000
27.000000 82.000000
30.000000 91.000000
33.000000 99.000000
38.000000 105.000000
45.000000 108.000000
54.000000 114.000000
66.000000 116.000000
77.000000 113.000000
83.000000 108.000000
88.000000 105.000000
92.000000 96.000000
97.000000 89.000000
99.000000 81.000000
102.000000 71.000000
102.000000 60.000000
31.000000 55.000000
37.000000 53.000000
42.000000 53.000000
48.000000 53.000000
52.000000 55.000000
73.000000 55.000000
77.000000 53.000000
83.000000 53.000000
90.000000 53.000000
94.000000 55.000000
63.000000 64.000000
63.000000 71.000000
63.000000 78.000000
63.000000 84.000000
58.000000 88.000000
60.000000 88.000000
63.000000 89.000000
67.000000 88.000000
70.000000 88.000000
40.000000 62.000000
42.000000 60.000000
48.000000 60.000000
52.000000 63.000000
48.000000 64.000000
42.000000 64.000000
74.000000 63.000000
79.000000 60.000000
83.000000 60.000000
87.000000 62.000000
84.000000 64.000000
79.000000 64.000000
51.000000 99.000000
56.000000 99.000000
62.000000 99.000000
65.000000 99.000000
67.000000 99.000000
73.000000 99.000000
79.000000 99.000000
73.000000 102.000000
70.000000 103.000000
66.000000 105.000000
60.000000 105.000000
56.000000 102.000000
52.000000 99.000000
60.000000 101.000000
65.000000 101.000000
69.000000 101.000000
77.000000 99.000000
69.000000 101.000000
65.000000 101.000000
60.000000 101.000000
}
