version: 1
n_points: 68
{
74.000000 164.000000
78.000000 193.000000
85.000000 215.000000
89.000000 240.000000
99.000000 266.000000
114.000000 284.000000
128.000000 295.000000
147.000000 302.000000
176.000000 309.000000
205.000000 302.000000
223.000000 295.000000
238.000000 284.000000
248.000000 262.000000
259.000000 237.000000
263.000000 215.000000
270.000000 189.000000
270.000000 164.000000
96.000000 131.000000
107.000000 120.000000
121.000000 113.000000
136.000000 113.000000
150.000000 117.000000
201.000000 117.000000
216.000000 113.000000
230.000000 117.000000
245.000000 120.000000
256.000000 131.000000
176.000000 149.000000
172.000000 168.000000
172.000000 186.000000
172.000000 197.000000
158.000000 211.000000
165.000000 215.000000
176.000000 215.000000
183.000000 215.000000
190.000000 211.000000
114.000000 153.000000
125.000000 149.000000
136.000000 149.000000
147.000000 153.000000
136.000000 157.000000
125.000000 157.000000
201.000000 153.000000
212.000000 149.000000
227.000000 149.000000
234.000000 153.000000
227.000000 157.000000
212.000000 157.000000
147.000000 251.000000
158.000000 240.000000
168.000000 233.000000
176.000000 233.000000
183.000000 233.000000
198.000000 240.000000
205.000000 251.000000
194.000000 262.000000
187.000000 269.000000
176.000000 269.000000
165.000000 269.000000
158.000000 262.000000
150.000000 251.000000
168.000000 244.000000
176.000000 244.000000
183.000000 244.000000
201.000000 251.000000
183.000000 255.000000
176.000000 255.000000
165.000000 255.000000
}
