version: 1
n_points: 68
{
73.000000 164.000000
77.000000 193.000000
84.000000 219.000000
88.000000 241.000000
99.000000 266.000000
113.000000 284.000000
128.000000 295.000000
146.000000 303.000000
175.000000 310.000000
208.000000 303.000000
223.000000 295.000000
237.000000 284.000000
248.000000 262.000000
259.000000 241.000000
263.000000 215.000000
270.000000 189.000000
270.000000 164.000000
95.000000 131.000000
106.000000 120.000000
121.000000 113.000000
135.000000 117.000000
150.000000 117.000000
201.000000 117.000000
216.000000 117.000000
230.000000 117.000000
245.000000 120.000000
256.000000 131.000000
175.000000 149.000000
175.000000 168.000000
172.000000 186.000000
172.000000 200.000000
161.000000 211.000000
168.000000 215.000000
175.000000 215.000000
183.000000 215.000000
194.000000 211.000000
113.000000 153.000000
124.000000 149.000000
135.000000 149.000000
146.000000 153.000000
139.000000 157.000000
124.000000 157.000000
201.000000 153.000000
216.000000 149.000000
226.000000 149.000000
237.000000 153.000000
226.000000 160.000000
212.000000 157.000000
150.000000 252.000000
157.000000 241.000000
168.000000 233.000000
175.000000 233.000000
183.000000 233.000000
197.000000 241.000000
205.000000 252.000000
197.000000 262.000000
186.000000 270.000000
175.000000 270.000000
164.000000 270.000000
157.000000 262.000000
150.000000 252.000000
168.000000 244.000000
175.000000 244.000000
183.000000 244.000000
205.000000 252.000000
183.000000 255.000000
175.000000 255.000000
164.000000 255.000000
}
