version: 1
n_points: 68
{
74.000000 167.000000
78.000000 193.000000
81.000000 218.000000
89.000000 240.000000
100.000000 266.000000
114.000000 281.000000
129.000000 292.000000
147.000000 303.000000
177.000000 314.000000
206.000000 306.000000
224.000000 295.000000
235.000000 281.000000
250.000000 262.000000
257.000000 240.000000
261.000000 215.000000
269.000000 189.000000
272.000000 163.000000
92.000000 130.000000
107.000000 119.000000
122.000000 116.000000
133.000000 116.000000
147.000000 116.000000
202.000000 116.000000
213.000000 116.000000
228.000000 116.000000
243.000000 119.000000
254.000000 134.000000
173.000000 149.000000
173.000000 167.000000
173.000000 182.000000
173.000000 196.000000
158.000000 211.000000
166.000000 211.000000
173.000000 215.000000
184.000000 211.000000
191.000000 211.000000
114.000000 152.000000
125.000000 149.000000
136.000000 149.000000
147.000000 152.000000
136.000000 156.000000
125.000000 156.000000
202.000000 152.000000
213.000000 149.000000
224.000000 149.000000
235.000000 152.000000
224.000000 160.000000
210.000000 156.000000
147.000000 255.000000
155.000000 240.000000
166.000000 229.000000
173.000000 233.000000
180.000000 229.000000
195.000000 240.000000
202.000000 255.000000
195.000000 266.000000
184.000000 270.000000
173.000000 273.000000
162.000000 273.000000
155.000000 266.000000
147.000000 251.000000
166.000000 244.000000
173.000000 240.000000
184.000000 244.000000
202.000000 255.000000
184.000000 259.000000
173.000000 259.000000
166.000000 259.000000
}
