version: 1
n_points: 68
{
74.000000 163.000000
78.000000 193.000000
85.000000 218.000000
89.000000 240.000000
99.000000 266.000000
114.000000 284.000000
129.000000 295.000000
147.000000 302.000000
176.000000 313.000000
205.000000 302.000000
224.000000 295.000000
238.000000 284.000000
249.000000 262.000000
260.000000 237.000000
264.000000 215.000000
271.000000 189.000000
271.000000 163.000000
96.000000 131.000000
107.000000 120.000000
121.000000 116.000000
136.000000 116.000000
151.000000 116.000000
202.000000 116.000000
216.000000 116.000000
231.000000 116.000000
246.000000 120.000000
257.000000 131.000000
176.000000 153.000000
176.000000 171.000000
173.000000 185.000000
173.000000 200.000000
162.000000 211.000000
165.000000 215.000000
176.000000 215.000000
183.000000 215.000000
191.000000 211.000000
114.000000 153.000000
125.000000 149.000000
136.000000 149.000000
147.000000 153.000000
136.000000 156.000000
125.000000 156.000000
202.000000 153.000000
213.000000 149.000000
227.000000 149.000000
238.000000 153.000000
227.000000 160.000000
213.000000 160.000000
151.000000 251.000000
158.000000 240.000000
169.000000 233.000000
176.000000 233.000000
183.000000 233.000000
198.000000 240.000000
205.000000 251.000000
198.000000 262.000000
187.000000 269.000000
176.000000 269.000000
165.000000 269.000000
158.000000 262.000000
151.000000 251.000000
169.000000 244.000000
176.000000 244.000000
183.000000 244.000000
205.000000 251.000000
183.000000 255.000000
176.000000 255.000000
165.000000 255.000000
}
