version: 1
n_points: 68
{
24.000000 63.000000
26.000000 72.000000
27.000000 82.000000
30.000000 91.000000
33.000000 100.000000
40.000000 107.000000
45.000000 113.000000
54.000000 117.000000
65.000000 120.000000
76.000000 117.000000
83.000000 113.000000
87.000000 109.000000
91.000000 100.000000
96.000000 91.000000
98.000000 82.000000
100.000000 72.000000
101.000000 63.000000
33.000000 51.000000
37.000000 47.000000
44.000000 46.000000
50.000000 46.000000
54.000000 47.000000
75.000000 47.000000
79.000000 46.000000
84.000000 46.000000
91.000000 47.000000
96.000000 51.000000
65.000000 60.000000
65.000000 67.000000
65.000000 72.000000
65.000000 78.000000
58.000000 82.000000
61.000000 82.000000
65.000000 84.000000
69.000000 82.000000
72.000000 82.000000
40.000000 60.000000
44.000000 58.000000
48.000000 58.000000
52.000000 60.000000
50.000000 61.000000
44.000000 61.000000
75.000000 60.000000
79.000000 58.000000
84.000000 58.000000
87.000000 60.000000
83.000000 61.000000
79.000000 61.000000
52.000000 98.000000
57.000000 92.000000
62.000000 89.000000
65.000000 91.000000
68.000000 89.000000
73.000000 92.000000
77.000000 98.000000
75.000000 102.000000
69.000000 104.000000
65.000000 106.000000
61.000000 104.000000
57.000000 102.000000
52.000000 98.000000
61.000000 93.000000
65.000000 93.000000
69.000000 93.000000
77.000000 98.000000
69.000000 100.000000
65.000000 100.000000
61.000000 100.000000
}
