version: 1
n_points: 68
{
72.000000 165.000000
75.000000 191.000000
83.000000 214.000000
87.000000 240.000000
98.000000 263.000000
113.000000 285.000000
128.000000 293.000000
150.000000 311.000000
180.000000 319.000000
210.000000 311.000000
225.000000 296.000000
237.000000 281.000000
248.000000 263.000000
259.000000 236.000000
263.000000 214.000000
270.000000 191.000000
270.000000 165.000000
94.000000 128.000000
105.000000 116.000000
120.000000 113.000000
135.000000 109.000000
147.000000 113.000000
203.000000 113.000000
214.000000 113.000000
229.000000 113.000000
244.000000 116.000000
255.000000 128.000000
173.000000 146.000000
173.000000 165.000000
173.000000 176.000000
169.000000 191.000000
158.000000 206.000000
165.000000 206.000000
173.000000 210.000000
184.000000 206.000000
192.000000 206.000000
113.000000 150.000000
124.000000 146.000000
135.000000 146.000000
147.000000 150.000000
135.000000 154.000000
124.000000 154.000000
199.000000 150.000000
214.000000 146.000000
225.000000 146.000000
237.000000 150.000000
225.000000 154.000000
210.000000 154.000000
147.000000 259.000000
154.000000 236.000000
165.000000 225.000000
173.000000 225.000000
180.000000 225.000000
195.000000 236.000000
203.000000 259.000000
195.000000 274.000000
188.000000 285.000000
173.000000 289.000000
162.000000 285.000000
154.000000 278.000000
150.000000 259.000000
165.000000 240.000000
173.000000 236.000000
184.000000 240.000000
199.000000 259.000000
184.000000 274.000000
177.000000 274.000000
165.000000 274.000000
}
