version: 1
n_points: 68
{
71.000000 162.000000
74.000000 188.000000
82.000000 211.000000
86.000000 234.000000
97.000000 260.000000
112.000000 279.000000
128.000000 291.000000
147.000000 302.000000
181.000000 317.000000
211.000000 310.000000
226.000000 291.000000
238.000000 276.000000
249.000000 257.000000
260.000000 234.000000
264.000000 211.000000
272.000000 184.000000
272.000000 162.000000
90.000000 124.000000
101.000000 109.000000
120.000000 105.000000
131.000000 101.000000
147.000000 105.000000
200.000000 105.000000
215.000000 101.000000
230.000000 105.000000
245.000000 112.000000
257.000000 124.000000
173.000000 139.000000
173.000000 158.000000
173.000000 169.000000
169.000000 184.000000
158.000000 200.000000
166.000000 200.000000
173.000000 203.000000
181.000000 200.000000
188.000000 200.000000
112.000000 143.000000
124.000000 139.000000
135.000000 139.000000
147.000000 143.000000
135.000000 146.000000
124.000000 146.000000
200.000000 143.000000
211.000000 139.000000
226.000000 139.000000
238.000000 143.000000
226.000000 146.000000
211.000000 146.000000
147.000000 260.000000
154.000000 234.000000
166.000000 219.000000
173.000000 219.000000
181.000000 219.000000
196.000000 234.000000
203.000000 260.000000
196.000000 283.000000
184.000000 298.000000
173.000000 302.000000
162.000000 298.000000
150.000000 283.000000
147.000000 260.000000
166.000000 234.000000
173.000000 230.000000
184.000000 234.000000
200.000000 260.000000
184.000000 283.000000
173.000000 287.000000
162.000000 287.000000
}
