version: 1
n_points: 68
{
73.000000 165.000000
77.000000 194.000000
81.000000 216.000000
88.000000 242.000000
99.000000 264.000000
114.000000 282.000000
128.000000 293.000000
147.000000 304.000000
176.000000 312.000000
209.000000 304.000000
224.000000 293.000000
235.000000 282.000000
250.000000 264.000000
261.000000 238.000000
264.000000 216.000000
268.000000 190.000000
272.000000 165.000000
95.000000 131.000000
106.000000 120.000000
121.000000 113.000000
136.000000 113.000000
147.000000 117.000000
202.000000 117.000000
213.000000 113.000000
228.000000 113.000000
242.000000 120.000000
257.000000 131.000000
172.000000 150.000000
172.000000 168.000000
172.000000 183.000000
172.000000 194.000000
158.000000 209.000000
165.000000 212.000000
172.000000 212.000000
183.000000 212.000000
191.000000 209.000000
114.000000 154.000000
125.000000 146.000000
136.000000 146.000000
147.000000 154.000000
136.000000 157.000000
125.000000 157.000000
202.000000 154.000000
213.000000 146.000000
228.000000 146.000000
235.000000 154.000000
224.000000 157.000000
213.000000 157.000000
147.000000 253.000000
154.000000 238.000000
169.000000 231.000000
172.000000 231.000000
183.000000 227.000000
198.000000 238.000000
205.000000 253.000000
198.000000 267.000000
187.000000 275.000000
176.000000 275.000000
165.000000 275.000000
154.000000 267.000000
147.000000 253.000000
169.000000 242.000000
176.000000 242.000000
183.000000 242.000000
202.000000 253.000000
187.000000 260.000000
176.000000 264.000000
165.000000 260.000000
}
