version: 1
n_points: 68
{
70.000000 165.000000
78.000000 191.000000
82.000000 214.000000
89.000000 237.000000
97.000000 264.000000
116.000000 283.000000
131.000000 294.000000
150.000000 313.000000
181.000000 321.000000
211.000000 313.000000
226.000000 298.000000
238.000000 283.000000
249.000000 264.000000
261.000000 237.000000
264.000000 214.000000
268.000000 188.000000
272.000000 165.000000
93.000000 127.000000
105.000000 115.000000
120.000000 108.000000
135.000000 108.000000
146.000000 112.000000
204.000000 112.000000
215.000000 108.000000
230.000000 112.000000
245.000000 115.000000
257.000000 127.000000
173.000000 146.000000
173.000000 161.000000
173.000000 176.000000
173.000000 191.000000
158.000000 207.000000
165.000000 207.000000
173.000000 207.000000
184.000000 207.000000
192.000000 207.000000
112.000000 150.000000
124.000000 142.000000
135.000000 142.000000
146.000000 150.000000
135.000000 153.000000
124.000000 153.000000
200.000000 150.000000
215.000000 142.000000
226.000000 142.000000
234.000000 150.000000
226.000000 153.000000
211.000000 153.000000
146.000000 260.000000
154.000000 237.000000
165.000000 226.000000
173.000000 226.000000
181.000000 222.000000
196.000000 237.000000
204.000000 260.000000
196.000000 279.000000
188.000000 290.000000
173.000000 294.000000
162.000000 290.000000
154.000000 283.000000
150.000000 260.000000
165.000000 237.000000
173.000000 237.000000
184.000000 237.000000
200.000000 260.000000
184.000000 275.000000
177.000000 279.000000
165.000000 279.000000
}
