version: 1
n_points: 68
{
25.000000 59.000000
25.000000 70.000000
28.000000 79.000000
31.000000 87.000000
34.000000 96.000000
39.000000 101.000000
46.000000 104.000000
53.000000 107.000000
65.000000 109.000000
78.000000 108.000000
82.000000 105.000000
87.000000 103.000000
92.000000 96.000000
96.000000 87.000000
98.000000 79.000000
101.000000 71.000000
101.000000 60.000000
34.000000 49.000000
39.000000 46.000000
45.000000 45.000000
50.000000 46.000000
56.000000 46.000000
75.000000 47.000000
79.000000 46.000000
85.000000 46.000000
90.000000 47.000000
94.000000 50.000000
65.000000 57.000000
65.000000 63.000000
65.000000 68.000000
65.000000 74.000000
60.000000 78.000000
61.000000 78.000000
65.000000 79.000000
68.000000 79.000000
71.000000 78.000000
42.000000 56.000000
46.000000 54.000000
50.000000 54.000000
54.000000 57.000000
50.000000 57.000000
46.000000 59.000000
75.000000 57.000000
79.000000 54.000000
83.000000 56.000000
87.000000 57.000000
83.000000 59.000000
79.000000 59.000000
56.000000 93.000000
59.000000 89.000000
63.000000 86.000000
65.000000 86.000000
68.000000 86.000000
72.000000 89.000000
76.000000 93.000000
72.000000 96.000000
70.000000 98.000000
65.000000 98.000000
61.000000 98.000000
59.000000 96.000000
56.000000 92.000000
63.000000 90.000000
65.000000 89.000000
68.000000 90.000000
75.000000 93.000000
68.000000 93.000000
65.000000 94.000000
63.000000 93.000000
}
