version: 1
n_points: 68
{
71.000000 162.000000
74.000000 189.000000
82.000000 212.000000
86.000000 235.000000
97.000000 258.000000
113.000000 277.000000
128.000000 288.000000
147.000000 300.000000
178.000000 311.000000
213.000000 304.000000
224.000000 285.000000
239.000000 273.000000
251.000000 254.000000
263.000000 231.000000
266.000000 208.000000
274.000000 185.000000
274.000000 158.000000
90.000000 119.000000
101.000000 108.000000
117.000000 100.000000
132.000000 100.000000
147.000000 100.000000
201.000000 100.000000
213.000000 100.000000
228.000000 100.000000
243.000000 108.000000
259.000000 119.000000
174.000000 135.000000
174.000000 154.000000
174.000000 166.000000
170.000000 177.000000
159.000000 196.000000
167.000000 196.000000
174.000000 196.000000
182.000000 196.000000
190.000000 196.000000
113.000000 142.000000
124.000000 135.000000
136.000000 135.000000
147.000000 142.000000
136.000000 142.000000
124.000000 146.000000
201.000000 139.000000
213.000000 135.000000
224.000000 135.000000
236.000000 142.000000
224.000000 146.000000
213.000000 142.000000
147.000000 258.000000
155.000000 231.000000
167.000000 215.000000
174.000000 215.000000
182.000000 215.000000
197.000000 231.000000
205.000000 258.000000
197.000000 285.000000
186.000000 300.000000
174.000000 300.000000
159.000000 300.000000
151.000000 285.000000
147.000000 258.000000
167.000000 231.000000
174.000000 227.000000
186.000000 231.000000
205.000000 258.000000
186.000000 285.000000
174.000000 288.000000
163.000000 288.000000
}
