version: 1
n_points: 68
{
70.000000 162.000000
73.000000 189.000000
81.000000 212.000000
85.000000 235.000000
97.000000 259.000000
112.000000 278.000000
128.000000 290.000000
147.000000 305.000000
182.000000 313.000000
213.000000 305.000000
224.000000 290.000000
240.000000 274.000000
251.000000 255.000000
263.000000 232.000000
267.000000 208.000000
270.000000 181.000000
274.000000 158.000000
89.000000 123.000000
101.000000 108.000000
116.000000 100.000000
131.000000 100.000000
147.000000 104.000000
201.000000 100.000000
213.000000 100.000000
228.000000 100.000000
243.000000 108.000000
255.000000 120.000000
174.000000 139.000000
174.000000 154.000000
170.000000 166.000000
170.000000 181.000000
158.000000 197.000000
162.000000 197.000000
174.000000 201.000000
182.000000 197.000000
189.000000 197.000000
112.000000 143.000000
124.000000 135.000000
135.000000 135.000000
147.000000 143.000000
135.000000 147.000000
124.000000 147.000000
201.000000 143.000000
213.000000 135.000000
224.000000 135.000000
236.000000 143.000000
224.000000 147.000000
213.000000 147.000000
143.000000 255.000000
151.000000 232.000000
166.000000 216.000000
174.000000 216.000000
182.000000 216.000000
197.000000 232.000000
205.000000 259.000000
197.000000 286.000000
185.000000 297.000000
174.000000 301.000000
158.000000 297.000000
151.000000 286.000000
147.000000 259.000000
166.000000 232.000000
174.000000 228.000000
185.000000 232.000000
205.000000 259.000000
185.000000 286.000000
174.000000 290.000000
162.000000 286.000000
}
