version: 1
n_points: 68
{
69.000000 159.000000
72.000000 185.000000
76.000000 207.000000
83.000000 229.000000
95.000000 255.000000
109.000000 274.000000
124.000000 288.000000
146.000000 300.000000
176.000000 311.000000
209.000000 300.000000
228.000000 285.000000
239.000000 274.000000
254.000000 251.000000
261.000000 226.000000
265.000000 203.000000
272.000000 181.000000
272.000000 155.000000
91.000000 126.000000
102.000000 114.000000
117.000000 107.000000
132.000000 107.000000
146.000000 111.000000
198.000000 107.000000
213.000000 107.000000
228.000000 107.000000
243.000000 111.000000
254.000000 122.000000
172.000000 140.000000
172.000000 159.000000
172.000000 170.000000
169.000000 185.000000
154.000000 196.000000
161.000000 200.000000
172.000000 200.000000
183.000000 200.000000
191.000000 196.000000
113.000000 144.000000
120.000000 140.000000
135.000000 140.000000
146.000000 144.000000
135.000000 148.000000
120.000000 148.000000
198.000000 144.000000
209.000000 140.000000
224.000000 140.000000
232.000000 144.000000
224.000000 148.000000
209.000000 148.000000
132.000000 237.000000
143.000000 222.000000
165.000000 214.000000
172.000000 214.000000
183.000000 214.000000
206.000000 222.000000
220.000000 237.000000
206.000000 259.000000
191.000000 266.000000
176.000000 270.000000
161.000000 270.000000
146.000000 259.000000
135.000000 237.000000
161.000000 226.000000
176.000000 226.000000
187.000000 226.000000
217.000000 237.000000
191.000000 255.000000
176.000000 259.000000
161.000000 255.000000
}
