version: 1
n_points: 68
{
69.000000 163.000000
73.000000 186.000000
81.000000 212.000000
85.000000 235.000000
96.000000 258.000000
111.000000 281.000000
127.000000 293.000000
150.000000 312.000000
180.000000 319.000000
211.000000 308.000000
226.000000 289.000000
241.000000 277.000000
253.000000 254.000000
260.000000 228.000000
264.000000 205.000000
272.000000 182.000000
272.000000 155.000000
88.000000 125.000000
100.000000 113.000000
115.000000 105.000000
130.000000 105.000000
146.000000 105.000000
199.000000 105.000000
211.000000 102.000000
226.000000 105.000000
241.000000 109.000000
257.000000 121.000000
172.000000 140.000000
172.000000 155.000000
172.000000 170.000000
172.000000 182.000000
157.000000 197.000000
165.000000 201.000000
172.000000 201.000000
184.000000 201.000000
192.000000 197.000000
111.000000 144.000000
123.000000 140.000000
134.000000 140.000000
146.000000 144.000000
134.000000 147.000000
123.000000 147.000000
199.000000 144.000000
211.000000 136.000000
226.000000 136.000000
234.000000 144.000000
226.000000 147.000000
211.000000 147.000000
142.000000 251.000000
150.000000 228.000000
165.000000 216.000000
172.000000 216.000000
184.000000 216.000000
203.000000 228.000000
214.000000 251.000000
203.000000 277.000000
192.000000 289.000000
180.000000 293.000000
165.000000 289.000000
153.000000 277.000000
142.000000 251.000000
165.000000 232.000000
176.000000 228.000000
188.000000 228.000000
211.000000 251.000000
188.000000 277.000000
176.000000 281.000000
165.000000 277.000000
}
