version: 1
n_points: 68
{
70.000000 162.000000
74.000000 189.000000
82.000000 212.000000
85.000000 234.000000
97.000000 261.000000
112.000000 280.000000
127.000000 292.000000
150.000000 311.000000
181.000000 318.000000
211.000000 307.000000
226.000000 288.000000
241.000000 276.000000
253.000000 254.000000
264.000000 227.000000
268.000000 204.000000
272.000000 181.000000
272.000000 155.000000
89.000000 124.000000
101.000000 113.000000
116.000000 105.000000
131.000000 105.000000
142.000000 105.000000
200.000000 105.000000
211.000000 105.000000
226.000000 105.000000
241.000000 109.000000
253.000000 120.000000
173.000000 139.000000
173.000000 158.000000
173.000000 170.000000
173.000000 185.000000
158.000000 196.000000
165.000000 200.000000
173.000000 200.000000
184.000000 200.000000
192.000000 196.000000
112.000000 147.000000
120.000000 139.000000
135.000000 139.000000
146.000000 143.000000
135.000000 147.000000
123.000000 147.000000
200.000000 143.000000
211.000000 139.000000
222.000000 139.000000
234.000000 143.000000
222.000000 147.000000
211.000000 147.000000
139.000000 246.000000
150.000000 227.000000
165.000000 215.000000
173.000000 219.000000
184.000000 215.000000
203.000000 227.000000
215.000000 246.000000
207.000000 273.000000
192.000000 284.000000
181.000000 288.000000
165.000000 284.000000
150.000000 273.000000
139.000000 246.000000
165.000000 231.000000
177.000000 227.000000
188.000000 227.000000
215.000000 246.000000
192.000000 273.000000
177.000000 273.000000
165.000000 273.000000
}
