version: 1
n_points: 68
{
68.000000 158.000000
71.000000 183.000000
75.000000 205.000000
82.000000 231.000000
90.000000 257.000000
104.000000 275.000000
123.000000 286.000000
141.000000 293.000000
174.000000 304.000000
207.000000 293.000000
229.000000 282.000000
243.000000 271.000000
254.000000 249.000000
265.000000 224.000000
269.000000 202.000000
273.000000 176.000000
273.000000 150.000000
90.000000 125.000000
101.000000 114.000000
115.000000 110.000000
130.000000 110.000000
145.000000 110.000000
196.000000 110.000000
211.000000 107.000000
225.000000 107.000000
240.000000 114.000000
254.000000 125.000000
170.000000 143.000000
170.000000 158.000000
170.000000 172.000000
170.000000 187.000000
152.000000 198.000000
159.000000 198.000000
170.000000 202.000000
181.000000 198.000000
192.000000 198.000000
108.000000 147.000000
119.000000 139.000000
130.000000 139.000000
145.000000 147.000000
134.000000 150.000000
119.000000 150.000000
200.000000 143.000000
211.000000 139.000000
222.000000 139.000000
232.000000 143.000000
222.000000 147.000000
207.000000 147.000000
126.000000 231.000000
141.000000 220.000000
163.000000 216.000000
170.000000 216.000000
181.000000 216.000000
203.000000 220.000000
222.000000 231.000000
203.000000 249.000000
189.000000 257.000000
174.000000 260.000000
159.000000 260.000000
145.000000 249.000000
130.000000 231.000000
156.000000 224.000000
174.000000 224.000000
189.000000 224.000000
218.000000 231.000000
189.000000 246.000000
174.000000 249.000000
159.000000 246.000000
}
