version: 1
n_points: 68
{
69.000000 158.000000
72.000000 183.000000
76.000000 209.000000
83.000000 231.000000
91.000000 257.000000
105.000000 275.000000
120.000000 286.000000
142.000000 293.000000
175.000000 304.000000
204.000000 297.000000
226.000000 282.000000
241.000000 271.000000
256.000000 249.000000
263.000000 224.000000
267.000000 202.000000
270.000000 180.000000
274.000000 154.000000
91.000000 125.000000
102.000000 114.000000
116.000000 110.000000
131.000000 107.000000
142.000000 110.000000
197.000000 110.000000
212.000000 107.000000
223.000000 107.000000
241.000000 114.000000
252.000000 125.000000
171.000000 140.000000
171.000000 158.000000
168.000000 172.000000
168.000000 187.000000
153.000000 198.000000
160.000000 198.000000
171.000000 202.000000
182.000000 198.000000
190.000000 198.000000
109.000000 143.000000
120.000000 140.000000
131.000000 140.000000
142.000000 143.000000
131.000000 147.000000
120.000000 151.000000
197.000000 143.000000
208.000000 140.000000
223.000000 140.000000
234.000000 143.000000
223.000000 147.000000
208.000000 147.000000
127.000000 231.000000
138.000000 220.000000
160.000000 216.000000
171.000000 216.000000
182.000000 216.000000
204.000000 220.000000
219.000000 231.000000
204.000000 249.000000
190.000000 260.000000
175.000000 260.000000
157.000000 260.000000
146.000000 253.000000
131.000000 231.000000
157.000000 224.000000
171.000000 224.000000
186.000000 224.000000
215.000000 231.000000
186.000000 246.000000
175.000000 249.000000
160.000000 249.000000
}
