version: 1
n_points: 68
{
68.000000 157.000000
72.000000 183.000000
75.000000 208.000000
83.000000 230.000000
90.000000 256.000000
105.000000 274.000000
119.000000 285.000000
141.000000 292.000000
174.000000 303.000000
207.000000 292.000000
225.000000 281.000000
243.000000 270.000000
254.000000 249.000000
265.000000 227.000000
269.000000 201.000000
273.000000 179.000000
276.000000 150.000000
86.000000 124.000000
101.000000 113.000000
116.000000 110.000000
130.000000 110.000000
145.000000 110.000000
196.000000 110.000000
211.000000 110.000000
225.000000 110.000000
240.000000 113.000000
254.000000 124.000000
170.000000 143.000000
170.000000 161.000000
170.000000 175.000000
170.000000 186.000000
152.000000 197.000000
159.000000 201.000000
170.000000 201.000000
181.000000 201.000000
192.000000 197.000000
108.000000 146.000000
119.000000 143.000000
130.000000 143.000000
145.000000 146.000000
134.000000 150.000000
119.000000 150.000000
196.000000 143.000000
211.000000 139.000000
222.000000 139.000000
233.000000 143.000000
222.000000 146.000000
207.000000 146.000000
127.000000 230.000000
141.000000 219.000000
163.000000 216.000000
170.000000 216.000000
181.000000 216.000000
203.000000 219.000000
222.000000 230.000000
203.000000 249.000000
189.000000 256.000000
174.000000 260.000000
159.000000 260.000000
145.000000 249.000000
130.000000 230.000000
156.000000 227.000000
174.000000 227.000000
189.000000 227.000000
218.000000 230.000000
189.000000 245.000000
174.000000 249.000000
159.000000 245.000000
}
