version: 1
n_points: 68
{
68.000000 155.000000
72.000000 184.000000
76.000000 206.000000
83.000000 228.000000
90.000000 253.000000
105.000000 272.000000
119.000000 283.000000
141.000000 294.000000
174.000000 301.000000
203.000000 294.000000
225.000000 283.000000
240.000000 272.000000
254.000000 250.000000
262.000000 224.000000
269.000000 202.000000
273.000000 180.000000
273.000000 151.000000
90.000000 126.000000
101.000000 115.000000
116.000000 111.000000
130.000000 111.000000
145.000000 111.000000
196.000000 111.000000
211.000000 111.000000
225.000000 107.000000
240.000000 115.000000
254.000000 126.000000
170.000000 144.000000
170.000000 158.000000
167.000000 173.000000
167.000000 188.000000
152.000000 199.000000
159.000000 199.000000
170.000000 202.000000
181.000000 199.000000
192.000000 199.000000
108.000000 144.000000
119.000000 140.000000
130.000000 140.000000
145.000000 147.000000
134.000000 147.000000
119.000000 151.000000
196.000000 144.000000
211.000000 140.000000
222.000000 140.000000
233.000000 144.000000
222.000000 147.000000
207.000000 147.000000
127.000000 231.000000
141.000000 221.000000
159.000000 217.000000
170.000000 217.000000
181.000000 217.000000
203.000000 221.000000
222.000000 231.000000
203.000000 250.000000
189.000000 257.000000
174.000000 257.000000
156.000000 257.000000
145.000000 250.000000
130.000000 231.000000
156.000000 224.000000
170.000000 224.000000
185.000000 224.000000
218.000000 231.000000
185.000000 246.000000
174.000000 246.000000
159.000000 246.000000
}
