version: 1
n_points: 68
{
68.000000 158.000000
72.000000 183.000000
75.000000 205.000000
83.000000 231.000000
90.000000 253.000000
105.000000 271.000000
119.000000 286.000000
141.000000 293.000000
174.000000 300.000000
207.000000 293.000000
225.000000 282.000000
240.000000 271.000000
254.000000 249.000000
265.000000 224.000000
269.000000 202.000000
272.000000 180.000000
272.000000 154.000000
90.000000 125.000000
101.000000 114.000000
116.000000 110.000000
130.000000 110.000000
145.000000 110.000000
196.000000 110.000000
210.000000 110.000000
225.000000 110.000000
240.000000 114.000000
254.000000 125.000000
170.000000 143.000000
170.000000 158.000000
167.000000 172.000000
167.000000 187.000000
152.000000 198.000000
159.000000 202.000000
170.000000 202.000000
181.000000 202.000000
192.000000 198.000000
108.000000 147.000000
119.000000 143.000000
130.000000 140.000000
145.000000 147.000000
134.000000 151.000000
119.000000 151.000000
196.000000 143.000000
210.000000 140.000000
221.000000 140.000000
232.000000 143.000000
221.000000 147.000000
207.000000 147.000000
126.000000 231.000000
141.000000 220.000000
159.000000 216.000000
170.000000 216.000000
181.000000 216.000000
203.000000 220.000000
221.000000 231.000000
203.000000 249.000000
189.000000 256.000000
174.000000 260.000000
159.000000 256.000000
145.000000 249.000000
130.000000 231.000000
156.000000 227.000000
170.000000 224.000000
185.000000 227.000000
218.000000 231.000000
189.000000 245.000000
174.000000 245.000000
159.000000 245.000000
}
