version: 1
n_points: 68
{
25.000000 61.000000
25.000000 72.000000
28.000000 80.000000
29.000000 89.000000
34.000000 99.000000
40.000000 107.000000
47.000000 109.000000
56.000000 117.000000
66.000000 121.000000
76.000000 118.000000
80.000000 111.000000
85.000000 107.000000
91.000000 99.000000
95.000000 91.000000
98.000000 82.000000
101.000000 73.000000
101.000000 63.000000
32.000000 48.000000
37.000000 44.000000
44.000000 41.000000
48.000000 41.000000
54.000000 43.000000
76.000000 43.000000
80.000000 43.000000
85.000000 43.000000
91.000000 45.000000
95.000000 50.000000
64.000000 59.000000
64.000000 66.000000
64.000000 72.000000
64.000000 76.000000
59.000000 82.000000
60.000000 82.000000
64.000000 83.000000
67.000000 82.000000
70.000000 82.000000
40.000000 57.000000
44.000000 56.000000
48.000000 56.000000
53.000000 59.000000
50.000000 59.000000
44.000000 60.000000
75.000000 59.000000
79.000000 57.000000
83.000000 57.000000
88.000000 59.000000
83.000000 60.000000
79.000000 60.000000
53.000000 101.000000
56.000000 93.000000
62.000000 89.000000
64.000000 91.000000
67.000000 89.000000
72.000000 93.000000
75.000000 101.000000
73.000000 109.000000
69.000000 112.000000
64.000000 114.000000
59.000000 112.000000
56.000000 109.000000
53.000000 101.000000
62.000000 95.000000
64.000000 93.000000
67.000000 95.000000
75.000000 101.000000
67.000000 108.000000
64.000000 109.000000
60.000000 108.000000
}
