version: 1
n_points: 68
{
69.000000 161.000000
73.000000 189.000000
77.000000 211.000000
84.000000 233.000000
95.000000 258.000000
109.000000 276.000000
124.000000 287.000000
142.000000 294.000000
174.000000 301.000000
203.000000 294.000000
225.000000 283.000000
239.000000 272.000000
250.000000 254.000000
261.000000 229.000000
264.000000 207.000000
268.000000 182.000000
272.000000 157.000000
87.000000 128.000000
98.000000 117.000000
116.000000 110.000000
131.000000 110.000000
142.000000 110.000000
196.000000 110.000000
210.000000 110.000000
225.000000 110.000000
239.000000 114.000000
254.000000 124.000000
170.000000 142.000000
170.000000 157.000000
167.000000 171.000000
167.000000 186.000000
152.000000 200.000000
160.000000 200.000000
170.000000 200.000000
181.000000 200.000000
189.000000 200.000000
109.000000 146.000000
120.000000 142.000000
131.000000 142.000000
142.000000 146.000000
131.000000 150.000000
120.000000 150.000000
199.000000 146.000000
210.000000 139.000000
221.000000 139.000000
232.000000 146.000000
221.000000 150.000000
207.000000 150.000000
134.000000 240.000000
145.000000 226.000000
163.000000 215.000000
170.000000 218.000000
181.000000 215.000000
199.000000 222.000000
214.000000 236.000000
199.000000 251.000000
185.000000 258.000000
174.000000 258.000000
160.000000 258.000000
149.000000 251.000000
138.000000 240.000000
160.000000 226.000000
170.000000 226.000000
185.000000 226.000000
210.000000 236.000000
185.000000 244.000000
174.000000 247.000000
160.000000 247.000000
}
