version: 1
n_points: 68
{
67.000000 162.000000
71.000000 187.000000
78.000000 212.000000
85.000000 237.000000
96.000000 258.000000
110.000000 276.000000
124.000000 287.000000
142.000000 294.000000
174.000000 301.000000
206.000000 294.000000
223.000000 283.000000
237.000000 272.000000
252.000000 255.000000
259.000000 230.000000
262.000000 209.000000
269.000000 184.000000
273.000000 155.000000
89.000000 127.000000
103.000000 116.000000
117.000000 109.000000
131.000000 109.000000
145.000000 113.000000
198.000000 113.000000
209.000000 109.000000
223.000000 109.000000
241.000000 116.000000
252.000000 127.000000
170.000000 141.000000
170.000000 159.000000
170.000000 173.000000
170.000000 187.000000
156.000000 201.000000
163.000000 201.000000
170.000000 205.000000
181.000000 201.000000
191.000000 201.000000
113.000000 148.000000
124.000000 148.000000
135.000000 145.000000
145.000000 148.000000
135.000000 152.000000
124.000000 152.000000
198.000000 148.000000
209.000000 148.000000
223.000000 148.000000
230.000000 148.000000
223.000000 152.000000
209.000000 152.000000
138.000000 244.000000
149.000000 230.000000
163.000000 219.000000
174.000000 223.000000
181.000000 219.000000
198.000000 226.000000
209.000000 240.000000
198.000000 251.000000
184.000000 255.000000
174.000000 258.000000
159.000000 258.000000
152.000000 251.000000
142.000000 244.000000
163.000000 233.000000
174.000000 230.000000
184.000000 233.000000
209.000000 240.000000
184.000000 244.000000
174.000000 244.000000
163.000000 244.000000
}
