version: 1
n_points: 68
{
69.000000 161.000000
73.000000 186.000000
77.000000 212.000000
84.000000 233.000000
91.000000 259.000000
106.000000 277.000000
124.000000 284.000000
142.000000 291.000000
174.000000 302.000000
203.000000 295.000000
225.000000 284.000000
236.000000 273.000000
250.000000 255.000000
261.000000 230.000000
265.000000 208.000000
268.000000 183.000000
272.000000 158.000000
87.000000 129.000000
98.000000 114.000000
116.000000 111.000000
131.000000 111.000000
142.000000 111.000000
196.000000 111.000000
210.000000 111.000000
225.000000 111.000000
239.000000 114.000000
254.000000 125.000000
171.000000 143.000000
171.000000 158.000000
167.000000 172.000000
167.000000 186.000000
153.000000 197.000000
160.000000 201.000000
171.000000 201.000000
181.000000 201.000000
189.000000 197.000000
109.000000 147.000000
120.000000 143.000000
131.000000 143.000000
142.000000 147.000000
131.000000 150.000000
120.000000 150.000000
196.000000 143.000000
210.000000 139.000000
221.000000 139.000000
232.000000 147.000000
221.000000 150.000000
207.000000 147.000000
134.000000 237.000000
142.000000 223.000000
163.000000 215.000000
171.000000 219.000000
181.000000 215.000000
199.000000 223.000000
214.000000 237.000000
199.000000 251.000000
185.000000 259.000000
174.000000 259.000000
160.000000 259.000000
145.000000 251.000000
134.000000 237.000000
160.000000 226.000000
171.000000 226.000000
185.000000 226.000000
210.000000 237.000000
185.000000 248.000000
174.000000 248.000000
160.000000 248.000000
}
