version: 1
n_points: 68
{
70.000000 166.000000
73.000000 191.000000
81.000000 216.000000
88.000000 237.000000
95.000000 262.000000
113.000000 276.000000
127.000000 287.000000
145.000000 294.000000
173.000000 301.000000
205.000000 294.000000
223.000000 283.000000
237.000000 273.000000
252.000000 255.000000
259.000000 230.000000
262.000000 208.000000
270.000000 184.000000
270.000000 159.000000
91.000000 130.000000
102.000000 116.000000
116.000000 112.000000
130.000000 109.000000
145.000000 112.000000
198.000000 112.000000
209.000000 109.000000
223.000000 109.000000
241.000000 116.000000
252.000000 126.000000
170.000000 141.000000
170.000000 159.000000
170.000000 173.000000
170.000000 187.000000
155.000000 201.000000
163.000000 201.000000
170.000000 205.000000
180.000000 201.000000
191.000000 201.000000
113.000000 148.000000
120.000000 144.000000
134.000000 144.000000
145.000000 148.000000
134.000000 151.000000
123.000000 151.000000
198.000000 148.000000
209.000000 144.000000
223.000000 144.000000
230.000000 148.000000
223.000000 151.000000
209.000000 151.000000
141.000000 244.000000
148.000000 230.000000
166.000000 219.000000
173.000000 223.000000
180.000000 219.000000
198.000000 230.000000
209.000000 241.000000
198.000000 248.000000
188.000000 255.000000
173.000000 258.000000
163.000000 258.000000
152.000000 251.000000
145.000000 241.000000
163.000000 233.000000
173.000000 230.000000
184.000000 233.000000
205.000000 241.000000
184.000000 241.000000
173.000000 244.000000
163.000000 244.000000
}
