version: 1
n_points: 68
{
69.000000 164.000000
73.000000 193.000000
80.000000 214.000000
87.000000 240.000000
98.000000 261.000000
112.000000 279.000000
127.000000 286.000000
145.000000 293.000000
173.000000 301.000000
206.000000 293.000000
223.000000 286.000000
238.000000 275.000000
249.000000 258.000000
259.000000 232.000000
263.000000 211.000000
267.000000 186.000000
270.000000 157.000000
91.000000 128.000000
102.000000 118.000000
116.000000 110.000000
130.000000 110.000000
145.000000 110.000000
198.000000 110.000000
209.000000 107.000000
223.000000 110.000000
241.000000 114.000000
252.000000 125.000000
170.000000 143.000000
170.000000 161.000000
170.000000 175.000000
170.000000 189.000000
155.000000 204.000000
163.000000 204.000000
170.000000 207.000000
180.000000 204.000000
188.000000 204.000000
109.000000 150.000000
119.000000 143.000000
130.000000 143.000000
145.000000 150.000000
134.000000 153.000000
119.000000 153.000000
198.000000 146.000000
209.000000 143.000000
223.000000 143.000000
231.000000 146.000000
220.000000 153.000000
209.000000 153.000000
141.000000 243.000000
148.000000 232.000000
163.000000 225.000000
173.000000 225.000000
180.000000 225.000000
195.000000 232.000000
209.000000 243.000000
195.000000 250.000000
184.000000 254.000000
173.000000 254.000000
163.000000 254.000000
152.000000 250.000000
141.000000 243.000000
163.000000 236.000000
173.000000 236.000000
184.000000 236.000000
206.000000 243.000000
184.000000 240.000000
173.000000 243.000000
163.000000 243.000000
}
