version: 1
n_points: 68
{
70.000000 161.000000
74.000000 189.000000
81.000000 214.000000
84.000000 236.000000
95.000000 261.000000
109.000000 279.000000
124.000000 286.000000
141.000000 293.000000
174.000000 304.000000
202.000000 296.000000
220.000000 286.000000
234.000000 275.000000
249.000000 254.000000
256.000000 232.000000
263.000000 207.000000
266.000000 182.000000
266.000000 157.000000
88.000000 118.000000
99.000000 104.000000
113.000000 93.000000
127.000000 93.000000
141.000000 96.000000
199.000000 93.000000
213.000000 93.000000
227.000000 93.000000
241.000000 100.000000
252.000000 118.000000
170.000000 143.000000
170.000000 161.000000
166.000000 175.000000
166.000000 189.000000
156.000000 204.000000
163.000000 204.000000
170.000000 207.000000
181.000000 204.000000
188.000000 204.000000
109.000000 146.000000
116.000000 143.000000
131.000000 143.000000
141.000000 146.000000
131.000000 150.000000
120.000000 154.000000
199.000000 146.000000
209.000000 139.000000
224.000000 139.000000
231.000000 146.000000
220.000000 150.000000
209.000000 150.000000
138.000000 243.000000
149.000000 232.000000
163.000000 221.000000
170.000000 225.000000
177.000000 221.000000
195.000000 232.000000
206.000000 243.000000
195.000000 250.000000
184.000000 257.000000
174.000000 257.000000
159.000000 257.000000
149.000000 254.000000
141.000000 243.000000
163.000000 236.000000
170.000000 236.000000
181.000000 236.000000
206.000000 243.000000
181.000000 243.000000
174.000000 243.000000
163.000000 243.000000
}
