version: 1
n_points: 68
{
70.000000 165.000000
73.000000 191.000000
80.000000 216.000000
88.000000 237.000000
95.000000 262.000000
113.000000 280.000000
127.000000 287.000000
141.000000 295.000000
174.000000 302.000000
202.000000 295.000000
220.000000 287.000000
235.000000 277.000000
249.000000 259.000000
256.000000 234.000000
263.000000 212.000000
267.000000 187.000000
270.000000 158.000000
91.000000 126.000000
98.000000 115.000000
116.000000 108.000000
131.000000 108.000000
145.000000 108.000000
199.000000 108.000000
210.000000 108.000000
224.000000 108.000000
242.000000 115.000000
253.000000 126.000000
170.000000 144.000000
170.000000 162.000000
170.000000 176.000000
166.000000 187.000000
156.000000 205.000000
163.000000 205.000000
170.000000 205.000000
181.000000 205.000000
188.000000 205.000000
109.000000 147.000000
120.000000 144.000000
131.000000 144.000000
145.000000 147.000000
134.000000 151.000000
120.000000 155.000000
199.000000 147.000000
210.000000 140.000000
220.000000 140.000000
231.000000 147.000000
220.000000 151.000000
210.000000 151.000000
138.000000 244.000000
149.000000 234.000000
163.000000 223.000000
170.000000 226.000000
181.000000 223.000000
195.000000 234.000000
206.000000 244.000000
195.000000 251.000000
184.000000 255.000000
174.000000 259.000000
159.000000 259.000000
152.000000 251.000000
141.000000 244.000000
163.000000 237.000000
174.000000 237.000000
181.000000 237.000000
206.000000 244.000000
181.000000 241.000000
174.000000 244.000000
163.000000 244.000000
}
