version: 1
n_points: 68
{
69.000000 163.000000
73.000000 192.000000
80.000000 213.000000
87.000000 239.000000
94.000000 260.000000
112.000000 278.000000
127.000000 285.000000
145.000000 292.000000
173.000000 303.000000
206.000000 296.000000
223.000000 285.000000
234.000000 274.000000
249.000000 257.000000
256.000000 231.000000
259.000000 210.000000
266.000000 185.000000
266.000000 156.000000
87.000000 120.000000
98.000000 106.000000
112.000000 95.000000
127.000000 95.000000
141.000000 95.000000
198.000000 95.000000
209.000000 95.000000
223.000000 95.000000
241.000000 102.000000
252.000000 120.000000
170.000000 142.000000
170.000000 160.000000
166.000000 174.000000
166.000000 188.000000
155.000000 203.000000
162.000000 203.000000
170.000000 206.000000
180.000000 203.000000
188.000000 203.000000
109.000000 149.000000
116.000000 142.000000
130.000000 142.000000
141.000000 145.000000
130.000000 153.000000
119.000000 153.000000
198.000000 145.000000
209.000000 142.000000
223.000000 138.000000
231.000000 145.000000
220.000000 149.000000
209.000000 149.000000
141.000000 246.000000
148.000000 231.000000
162.000000 224.000000
170.000000 224.000000
180.000000 224.000000
195.000000 231.000000
206.000000 242.000000
195.000000 249.000000
184.000000 257.000000
173.000000 257.000000
162.000000 257.000000
152.000000 253.000000
141.000000 242.000000
162.000000 235.000000
173.000000 235.000000
180.000000 235.000000
206.000000 242.000000
184.000000 242.000000
173.000000 246.000000
162.000000 242.000000
}
