version: 1
n_points: 68
{
67.000000 164.000000
74.000000 193.000000
78.000000 214.000000
85.000000 240.000000
96.000000 261.000000
111.000000 279.000000
125.000000 287.000000
143.000000 294.000000
176.000000 301.000000
205.000000 294.000000
223.000000 287.000000
234.000000 276.000000
248.000000 254.000000
255.000000 232.000000
262.000000 207.000000
266.000000 182.000000
266.000000 156.000000
85.000000 127.000000
100.000000 113.000000
114.000000 106.000000
129.000000 106.000000
143.000000 109.000000
197.000000 106.000000
208.000000 106.000000
223.000000 106.000000
241.000000 109.000000
252.000000 124.000000
168.000000 146.000000
168.000000 160.000000
168.000000 175.000000
168.000000 189.000000
154.000000 203.000000
161.000000 207.000000
168.000000 207.000000
179.000000 207.000000
186.000000 203.000000
107.000000 149.000000
118.000000 142.000000
129.000000 142.000000
143.000000 149.000000
132.000000 153.000000
118.000000 153.000000
197.000000 146.000000
208.000000 142.000000
223.000000 142.000000
230.000000 146.000000
223.000000 153.000000
208.000000 153.000000
139.000000 247.000000
150.000000 232.000000
165.000000 225.000000
172.000000 225.000000
179.000000 225.000000
194.000000 232.000000
208.000000 243.000000
197.000000 254.000000
183.000000 258.000000
172.000000 261.000000
161.000000 261.000000
150.000000 254.000000
143.000000 247.000000
161.000000 236.000000
172.000000 236.000000
183.000000 236.000000
205.000000 243.000000
183.000000 247.000000
172.000000 247.000000
161.000000 247.000000
}
