version: 1
n_points: 68
{
67.000000 162.000000
75.000000 191.000000
78.000000 216.000000
85.000000 238.000000
96.000000 260.000000
111.000000 278.000000
125.000000 288.000000
143.000000 296.000000
175.000000 303.000000
204.000000 296.000000
222.000000 285.000000
237.000000 274.000000
248.000000 256.000000
255.000000 231.000000
258.000000 209.000000
266.000000 184.000000
266.000000 155.000000
85.000000 123.000000
96.000000 108.000000
111.000000 101.000000
125.000000 101.000000
139.000000 101.000000
197.000000 101.000000
208.000000 97.000000
222.000000 97.000000
240.000000 105.000000
251.000000 123.000000
168.000000 144.000000
168.000000 162.000000
168.000000 177.000000
168.000000 187.000000
154.000000 205.000000
161.000000 205.000000
168.000000 205.000000
179.000000 205.000000
190.000000 205.000000
107.000000 148.000000
118.000000 144.000000
129.000000 144.000000
143.000000 148.000000
132.000000 151.000000
118.000000 155.000000
197.000000 148.000000
208.000000 141.000000
222.000000 141.000000
230.000000 144.000000
222.000000 151.000000
208.000000 151.000000
139.000000 245.000000
150.000000 231.000000
165.000000 223.000000
172.000000 223.000000
179.000000 223.000000
193.000000 231.000000
208.000000 245.000000
197.000000 252.000000
183.000000 256.000000
172.000000 260.000000
161.000000 260.000000
150.000000 252.000000
143.000000 245.000000
161.000000 238.000000
172.000000 234.000000
183.000000 238.000000
204.000000 245.000000
183.000000 241.000000
172.000000 245.000000
161.000000 245.000000
}
