version: 1
n_points: 68
{
70.000000 161.000000
73.000000 189.000000
80.000000 214.000000
84.000000 236.000000
95.000000 257.000000
109.000000 275.000000
127.000000 286.000000
141.000000 293.000000
173.000000 300.000000
202.000000 296.000000
223.000000 286.000000
237.000000 275.000000
248.000000 254.000000
259.000000 229.000000
262.000000 207.000000
266.000000 182.000000
269.000000 157.000000
88.000000 118.000000
98.000000 104.000000
113.000000 93.000000
127.000000 93.000000
141.000000 93.000000
198.000000 93.000000
212.000000 90.000000
227.000000 93.000000
241.000000 100.000000
251.000000 118.000000
170.000000 143.000000
170.000000 161.000000
170.000000 175.000000
166.000000 186.000000
155.000000 204.000000
162.000000 204.000000
170.000000 207.000000
180.000000 204.000000
187.000000 204.000000
109.000000 147.000000
116.000000 140.000000
130.000000 143.000000
141.000000 147.000000
130.000000 150.000000
120.000000 150.000000
198.000000 147.000000
209.000000 140.000000
223.000000 140.000000
234.000000 143.000000
223.000000 150.000000
209.000000 150.000000
137.000000 243.000000
148.000000 232.000000
162.000000 222.000000
173.000000 225.000000
180.000000 222.000000
194.000000 232.000000
209.000000 243.000000
194.000000 250.000000
184.000000 254.000000
173.000000 257.000000
159.000000 257.000000
152.000000 250.000000
141.000000 243.000000
162.000000 236.000000
173.000000 236.000000
184.000000 236.000000
205.000000 243.000000
184.000000 243.000000
173.000000 243.000000
162.000000 243.000000
}
