version: 1
n_points: 68
{
70.000000 164.000000
73.000000 189.000000
80.000000 214.000000
84.000000 236.000000
94.000000 260.000000
109.000000 278.000000
126.000000 289.000000
144.000000 296.000000
173.000000 303.000000
205.000000 296.000000
222.000000 285.000000
237.000000 275.000000
247.000000 257.000000
258.000000 232.000000
262.000000 207.000000
265.000000 182.000000
269.000000 157.000000
87.000000 122.000000
98.000000 104.000000
112.000000 97.000000
126.000000 93.000000
141.000000 97.000000
198.000000 97.000000
212.000000 93.000000
226.000000 97.000000
240.000000 104.000000
251.000000 118.000000
169.000000 143.000000
169.000000 161.000000
166.000000 175.000000
166.000000 189.000000
155.000000 204.000000
162.000000 204.000000
169.000000 207.000000
180.000000 204.000000
187.000000 204.000000
109.000000 147.000000
116.000000 143.000000
130.000000 143.000000
141.000000 147.000000
130.000000 154.000000
119.000000 154.000000
198.000000 147.000000
208.000000 140.000000
222.000000 140.000000
233.000000 147.000000
222.000000 150.000000
208.000000 150.000000
137.000000 243.000000
148.000000 232.000000
162.000000 225.000000
173.000000 225.000000
180.000000 225.000000
194.000000 232.000000
208.000000 243.000000
194.000000 250.000000
183.000000 257.000000
173.000000 257.000000
162.000000 257.000000
151.000000 253.000000
141.000000 243.000000
162.000000 236.000000
173.000000 236.000000
183.000000 236.000000
205.000000 243.000000
183.000000 243.000000
173.000000 243.000000
162.000000 243.000000
}
