version: 1
n_points: 68
{
69.000000 164.000000
72.000000 190.000000
80.000000 216.000000
87.000000 238.000000
94.000000 264.000000
113.000000 283.000000
128.000000 290.000000
146.000000 301.000000
176.000000 309.000000
206.000000 301.000000
220.000000 290.000000
235.000000 279.000000
246.000000 261.000000
257.000000 235.000000
261.000000 209.000000
265.000000 183.000000
268.000000 157.000000
87.000000 127.000000
98.000000 116.000000
113.000000 109.000000
128.000000 109.000000
143.000000 113.000000
198.000000 109.000000
209.000000 109.000000
224.000000 109.000000
239.000000 113.000000
250.000000 124.000000
168.000000 146.000000
168.000000 161.000000
168.000000 179.000000
168.000000 190.000000
154.000000 209.000000
161.000000 209.000000
168.000000 209.000000
180.000000 209.000000
187.000000 205.000000
109.000000 150.000000
120.000000 146.000000
131.000000 142.000000
143.000000 150.000000
131.000000 153.000000
120.000000 153.000000
198.000000 146.000000
209.000000 142.000000
220.000000 142.000000
231.000000 146.000000
220.000000 153.000000
206.000000 153.000000
143.000000 250.000000
150.000000 238.000000
165.000000 227.000000
172.000000 231.000000
180.000000 227.000000
194.000000 238.000000
206.000000 250.000000
194.000000 261.000000
183.000000 264.000000
172.000000 268.000000
161.000000 268.000000
154.000000 261.000000
146.000000 250.000000
161.000000 242.000000
172.000000 242.000000
180.000000 242.000000
202.000000 250.000000
183.000000 253.000000
172.000000 253.000000
161.000000 253.000000
}
