version: 1
n_points: 68
{
71.000000 165.000000
75.000000 191.000000
79.000000 218.000000
86.000000 240.000000
97.000000 266.000000
112.000000 285.000000
127.000000 296.000000
146.000000 304.000000
176.000000 311.000000
206.000000 304.000000
221.000000 293.000000
236.000000 281.000000
248.000000 259.000000
255.000000 233.000000
259.000000 210.000000
266.000000 184.000000
266.000000 158.000000
86.000000 127.000000
101.000000 116.000000
116.000000 109.000000
127.000000 109.000000
142.000000 112.000000
195.000000 112.000000
210.000000 109.000000
225.000000 109.000000
240.000000 112.000000
251.000000 124.000000
169.000000 146.000000
169.000000 161.000000
169.000000 176.000000
169.000000 191.000000
154.000000 206.000000
161.000000 210.000000
169.000000 210.000000
180.000000 210.000000
188.000000 206.000000
109.000000 150.000000
120.000000 143.000000
131.000000 143.000000
142.000000 150.000000
131.000000 154.000000
120.000000 154.000000
195.000000 146.000000
210.000000 143.000000
221.000000 143.000000
233.000000 146.000000
221.000000 154.000000
206.000000 154.000000
142.000000 251.000000
150.000000 240.000000
161.000000 229.000000
169.000000 233.000000
180.000000 229.000000
195.000000 240.000000
206.000000 251.000000
195.000000 263.000000
184.000000 270.000000
172.000000 270.000000
161.000000 270.000000
150.000000 263.000000
142.000000 251.000000
161.000000 244.000000
172.000000 244.000000
180.000000 244.000000
203.000000 251.000000
180.000000 255.000000
172.000000 255.000000
161.000000 255.000000
}
