version: 1
n_points: 68
{
71.000000 163.000000
75.000000 189.000000
78.000000 216.000000
86.000000 238.000000
93.000000 265.000000
112.000000 284.000000
127.000000 295.000000
143.000000 306.000000
173.000000 314.000000
203.000000 306.000000
222.000000 295.000000
233.000000 280.000000
248.000000 261.000000
256.000000 231.000000
260.000000 208.000000
267.000000 182.000000
267.000000 155.000000
86.000000 129.000000
101.000000 117.000000
116.000000 110.000000
127.000000 110.000000
143.000000 114.000000
195.000000 114.000000
210.000000 110.000000
222.000000 110.000000
237.000000 114.000000
252.000000 125.000000
169.000000 148.000000
169.000000 163.000000
169.000000 178.000000
165.000000 193.000000
154.000000 208.000000
161.000000 212.000000
169.000000 212.000000
180.000000 212.000000
188.000000 208.000000
109.000000 148.000000
120.000000 144.000000
131.000000 144.000000
143.000000 148.000000
131.000000 151.000000
120.000000 155.000000
195.000000 148.000000
207.000000 144.000000
222.000000 144.000000
229.000000 148.000000
222.000000 151.000000
207.000000 151.000000
139.000000 253.000000
150.000000 242.000000
165.000000 238.000000
173.000000 238.000000
180.000000 234.000000
195.000000 242.000000
207.000000 253.000000
195.000000 261.000000
184.000000 265.000000
173.000000 268.000000
161.000000 268.000000
150.000000 261.000000
143.000000 253.000000
161.000000 250.000000
173.000000 250.000000
180.000000 250.000000
203.000000 250.000000
180.000000 253.000000
173.000000 253.000000
161.000000 253.000000
}
