version: 1
n_points: 68
{
65.000000 165.000000
68.000000 191.000000
76.000000 213.000000
83.000000 235.000000
94.000000 257.000000
109.000000 275.000000
124.000000 279.000000
146.000000 287.000000
175.000000 290.000000
205.000000 287.000000
220.000000 279.000000
234.000000 268.000000
249.000000 250.000000
260.000000 228.000000
264.000000 205.000000
271.000000 183.000000
275.000000 154.000000
87.000000 128.000000
98.000000 117.000000
113.000000 113.000000
127.000000 113.000000
142.000000 113.000000
198.000000 113.000000
209.000000 110.000000
223.000000 110.000000
238.000000 117.000000
253.000000 124.000000
168.000000 146.000000
168.000000 165.000000
168.000000 180.000000
168.000000 194.000000
153.000000 209.000000
161.000000 209.000000
168.000000 213.000000
179.000000 213.000000
187.000000 209.000000
109.000000 146.000000
116.000000 143.000000
131.000000 143.000000
142.000000 146.000000
131.000000 150.000000
120.000000 154.000000
198.000000 146.000000
209.000000 139.000000
220.000000 143.000000
231.000000 146.000000
220.000000 150.000000
209.000000 150.000000
135.000000 246.000000
150.000000 242.000000
164.000000 239.000000
172.000000 239.000000
179.000000 239.000000
194.000000 239.000000
212.000000 242.000000
198.000000 246.000000
183.000000 250.000000
172.000000 253.000000
161.000000 253.000000
150.000000 250.000000
139.000000 246.000000
161.000000 246.000000
172.000000 246.000000
183.000000 246.000000
209.000000 242.000000
183.000000 242.000000
172.000000 242.000000
161.000000 242.000000
}
