version: 1
n_points: 68
{
66.000000 165.000000
69.000000 191.000000
77.000000 213.000000
84.000000 238.000000
91.000000 260.000000
110.000000 275.000000
125.000000 283.000000
143.000000 286.000000
176.000000 294.000000
205.000000 286.000000
220.000000 279.000000
235.000000 272.000000
249.000000 253.000000
261.000000 227.000000
264.000000 205.000000
272.000000 183.000000
275.000000 154.000000
88.000000 128.000000
99.000000 117.000000
113.000000 113.000000
128.000000 113.000000
143.000000 113.000000
194.000000 113.000000
209.000000 110.000000
224.000000 110.000000
238.000000 117.000000
249.000000 124.000000
169.000000 147.000000
169.000000 165.000000
165.000000 180.000000
169.000000 194.000000
154.000000 209.000000
161.000000 213.000000
169.000000 213.000000
180.000000 213.000000
187.000000 209.000000
106.000000 147.000000
117.000000 143.000000
128.000000 143.000000
143.000000 147.000000
132.000000 150.000000
117.000000 154.000000
198.000000 147.000000
209.000000 139.000000
220.000000 139.000000
231.000000 147.000000
220.000000 150.000000
205.000000 150.000000
136.000000 246.000000
150.000000 242.000000
165.000000 238.000000
172.000000 242.000000
180.000000 238.000000
194.000000 242.000000
209.000000 242.000000
194.000000 249.000000
183.000000 253.000000
172.000000 253.000000
161.000000 253.000000
150.000000 249.000000
139.000000 246.000000
161.000000 246.000000
172.000000 246.000000
183.000000 246.000000
209.000000 242.000000
183.000000 242.000000
172.000000 242.000000
161.000000 242.000000
}
