version: 1
n_points: 68
{
71.000000 166.000000
71.000000 192.000000
79.000000 218.000000
86.000000 241.000000
94.000000 267.000000
113.000000 286.000000
128.000000 297.000000
146.000000 304.000000
173.000000 316.000000
203.000000 308.000000
221.000000 297.000000
236.000000 282.000000
248.000000 259.000000
255.000000 233.000000
259.000000 211.000000
266.000000 184.000000
266.000000 158.000000
86.000000 128.000000
98.000000 117.000000
116.000000 113.000000
128.000000 110.000000
143.000000 113.000000
195.000000 113.000000
210.000000 110.000000
225.000000 110.000000
240.000000 113.000000
251.000000 125.000000
169.000000 147.000000
169.000000 162.000000
169.000000 177.000000
169.000000 192.000000
154.000000 211.000000
161.000000 211.000000
169.000000 211.000000
180.000000 211.000000
188.000000 207.000000
109.000000 151.000000
120.000000 143.000000
131.000000 143.000000
143.000000 151.000000
131.000000 154.000000
120.000000 154.000000
195.000000 147.000000
206.000000 143.000000
221.000000 143.000000
229.000000 147.000000
221.000000 154.000000
206.000000 151.000000
143.000000 252.000000
150.000000 241.000000
165.000000 233.000000
173.000000 237.000000
180.000000 233.000000
195.000000 241.000000
206.000000 252.000000
195.000000 263.000000
184.000000 267.000000
173.000000 271.000000
161.000000 271.000000
150.000000 263.000000
143.000000 252.000000
161.000000 248.000000
173.000000 244.000000
180.000000 248.000000
203.000000 252.000000
180.000000 256.000000
173.000000 256.000000
161.000000 256.000000
}
