version: 1
n_points: 68
{
71.000000 164.000000
75.000000 190.000000
79.000000 217.000000
86.000000 239.000000
94.000000 266.000000
113.000000 284.000000
128.000000 296.000000
147.000000 303.000000
173.000000 311.000000
203.000000 303.000000
222.000000 292.000000
233.000000 281.000000
248.000000 258.000000
256.000000 232.000000
260.000000 209.000000
267.000000 183.000000
267.000000 156.000000
90.000000 130.000000
101.000000 119.000000
116.000000 115.000000
128.000000 111.000000
143.000000 115.000000
196.000000 115.000000
211.000000 111.000000
222.000000 111.000000
241.000000 119.000000
252.000000 126.000000
169.000000 145.000000
169.000000 164.000000
169.000000 179.000000
169.000000 194.000000
154.000000 213.000000
162.000000 213.000000
169.000000 213.000000
180.000000 213.000000
188.000000 209.000000
109.000000 149.000000
120.000000 145.000000
132.000000 145.000000
143.000000 149.000000
132.000000 153.000000
120.000000 153.000000
196.000000 149.000000
207.000000 145.000000
222.000000 141.000000
229.000000 149.000000
222.000000 153.000000
207.000000 153.000000
139.000000 250.000000
150.000000 247.000000
165.000000 243.000000
173.000000 243.000000
177.000000 239.000000
196.000000 243.000000
207.000000 250.000000
196.000000 254.000000
184.000000 258.000000
173.000000 262.000000
162.000000 258.000000
150.000000 258.000000
139.000000 250.000000
162.000000 250.000000
173.000000 250.000000
180.000000 250.000000
207.000000 247.000000
180.000000 247.000000
173.000000 250.000000
162.000000 247.000000
}
