version: 1
n_points: 68
{
71.000000 164.000000
75.000000 191.000000
79.000000 217.000000
86.000000 240.000000
94.000000 266.000000
113.000000 285.000000
128.000000 297.000000
147.000000 304.000000
173.000000 312.000000
204.000000 304.000000
219.000000 293.000000
234.000000 282.000000
249.000000 259.000000
257.000000 232.000000
261.000000 210.000000
268.000000 183.000000
268.000000 157.000000
90.000000 130.000000
102.000000 119.000000
117.000000 111.000000
128.000000 111.000000
143.000000 115.000000
196.000000 115.000000
208.000000 111.000000
223.000000 111.000000
238.000000 115.000000
249.000000 126.000000
170.000000 145.000000
170.000000 164.000000
170.000000 179.000000
166.000000 195.000000
155.000000 210.000000
162.000000 213.000000
170.000000 213.000000
181.000000 213.000000
185.000000 210.000000
109.000000 149.000000
120.000000 145.000000
132.000000 142.000000
143.000000 149.000000
132.000000 153.000000
120.000000 153.000000
196.000000 149.000000
208.000000 142.000000
223.000000 142.000000
230.000000 149.000000
219.000000 153.000000
208.000000 153.000000
139.000000 251.000000
151.000000 244.000000
162.000000 240.000000
170.000000 240.000000
177.000000 240.000000
196.000000 244.000000
208.000000 251.000000
196.000000 255.000000
185.000000 259.000000
173.000000 263.000000
162.000000 263.000000
151.000000 259.000000
143.000000 251.000000
162.000000 251.000000
173.000000 248.000000
181.000000 248.000000
204.000000 251.000000
181.000000 248.000000
173.000000 251.000000
162.000000 248.000000
}
