version: 1
n_points: 68
{
66.000000 162.000000
69.000000 188.000000
77.000000 213.000000
84.000000 235.000000
95.000000 257.000000
109.000000 271.000000
124.000000 279.000000
146.000000 286.000000
179.000000 290.000000
204.000000 282.000000
219.000000 275.000000
234.000000 264.000000
252.000000 250.000000
259.000000 228.000000
266.000000 206.000000
270.000000 180.000000
274.000000 155.000000
88.000000 129.000000
99.000000 118.000000
113.000000 111.000000
128.000000 111.000000
142.000000 114.000000
197.000000 114.000000
208.000000 111.000000
223.000000 111.000000
237.000000 114.000000
252.000000 125.000000
168.000000 147.000000
168.000000 166.000000
168.000000 180.000000
168.000000 195.000000
153.000000 209.000000
161.000000 213.000000
172.000000 213.000000
179.000000 213.000000
186.000000 209.000000
106.000000 147.000000
117.000000 144.000000
131.000000 144.000000
142.000000 147.000000
131.000000 151.000000
117.000000 155.000000
197.000000 147.000000
208.000000 140.000000
219.000000 140.000000
230.000000 147.000000
219.000000 151.000000
208.000000 151.000000
135.000000 242.000000
150.000000 242.000000
164.000000 239.000000
172.000000 239.000000
179.000000 239.000000
197.000000 239.000000
212.000000 239.000000
197.000000 246.000000
183.000000 250.000000
172.000000 250.000000
161.000000 250.000000
150.000000 246.000000
139.000000 242.000000
161.000000 246.000000
172.000000 246.000000
183.000000 242.000000
208.000000 239.000000
183.000000 242.000000
172.000000 242.000000
161.000000 242.000000
}
