version: 1
n_points: 68
{
63.000000 160.000000
70.000000 185.000000
74.000000 210.000000
81.000000 232.000000
92.000000 257.000000
106.000000 272.000000
121.000000 279.000000
142.000000 286.000000
175.000000 290.000000
204.000000 283.000000
219.000000 276.000000
237.000000 265.000000
251.000000 247.000000
262.000000 228.000000
266.000000 203.000000
273.000000 181.000000
273.000000 152.000000
84.000000 131.000000
99.000000 120.000000
113.000000 112.000000
128.000000 112.000000
139.000000 116.000000
193.000000 116.000000
208.000000 112.000000
222.000000 112.000000
237.000000 116.000000
251.000000 127.000000
168.000000 145.000000
164.000000 163.000000
164.000000 181.000000
164.000000 196.000000
153.000000 210.000000
161.000000 210.000000
168.000000 214.000000
179.000000 210.000000
186.000000 210.000000
106.000000 149.000000
117.000000 145.000000
128.000000 141.000000
142.000000 149.000000
132.000000 152.000000
117.000000 152.000000
197.000000 145.000000
208.000000 141.000000
219.000000 141.000000
229.000000 145.000000
219.000000 152.000000
208.000000 152.000000
132.000000 239.000000
146.000000 239.000000
161.000000 239.000000
168.000000 239.000000
179.000000 239.000000
193.000000 239.000000
211.000000 239.000000
197.000000 247.000000
182.000000 250.000000
171.000000 250.000000
157.000000 250.000000
146.000000 247.000000
132.000000 239.000000
157.000000 243.000000
168.000000 243.000000
182.000000 243.000000
208.000000 239.000000
182.000000 239.000000
168.000000 243.000000
157.000000 239.000000
}
