version: 1
n_points: 68
{
66.000000 161.000000
70.000000 186.000000
74.000000 212.000000
81.000000 233.000000
92.000000 259.000000
106.000000 277.000000
121.000000 284.000000
139.000000 292.000000
172.000000 299.000000
201.000000 292.000000
219.000000 284.000000
233.000000 273.000000
252.000000 255.000000
259.000000 230.000000
266.000000 208.000000
270.000000 183.000000
273.000000 154.000000
85.000000 128.000000
99.000000 117.000000
114.000000 114.000000
128.000000 114.000000
139.000000 114.000000
193.000000 114.000000
208.000000 114.000000
222.000000 114.000000
237.000000 117.000000
252.000000 128.000000
168.000000 146.000000
168.000000 165.000000
164.000000 179.000000
164.000000 194.000000
153.000000 208.000000
161.000000 212.000000
168.000000 212.000000
179.000000 212.000000
186.000000 208.000000
106.000000 150.000000
117.000000 143.000000
128.000000 143.000000
143.000000 150.000000
132.000000 154.000000
117.000000 154.000000
197.000000 146.000000
208.000000 143.000000
219.000000 143.000000
230.000000 146.000000
219.000000 154.000000
208.000000 154.000000
132.000000 241.000000
143.000000 237.000000
161.000000 237.000000
168.000000 241.000000
179.000000 237.000000
197.000000 237.000000
212.000000 241.000000
193.000000 248.000000
183.000000 248.000000
168.000000 252.000000
157.000000 252.000000
146.000000 248.000000
132.000000 237.000000
157.000000 244.000000
168.000000 244.000000
183.000000 244.000000
208.000000 241.000000
183.000000 241.000000
168.000000 241.000000
157.000000 241.000000
}
