version: 1
n_points: 68
{
68.000000 164.000000
72.000000 190.000000
76.000000 216.000000
83.000000 238.000000
94.000000 263.000000
109.000000 282.000000
123.000000 293.000000
145.000000 300.000000
175.000000 307.000000
204.000000 300.000000
222.000000 289.000000
237.000000 278.000000
248.000000 256.000000
256.000000 230.000000
259.000000 208.000000
267.000000 182.000000
267.000000 157.000000
87.000000 131.000000
98.000000 120.000000
112.000000 113.000000
127.000000 113.000000
142.000000 116.000000
193.000000 116.000000
208.000000 113.000000
222.000000 113.000000
237.000000 116.000000
252.000000 127.000000
167.000000 146.000000
167.000000 164.000000
167.000000 179.000000
167.000000 190.000000
153.000000 205.000000
160.000000 205.000000
167.000000 208.000000
178.000000 205.000000
189.000000 205.000000
109.000000 149.000000
116.000000 146.000000
131.000000 146.000000
142.000000 149.000000
131.000000 153.000000
116.000000 153.000000
197.000000 149.000000
208.000000 142.000000
219.000000 142.000000
230.000000 146.000000
219.000000 153.000000
208.000000 153.000000
138.000000 249.000000
145.000000 234.000000
164.000000 223.000000
171.000000 227.000000
178.000000 223.000000
197.000000 230.000000
208.000000 245.000000
197.000000 260.000000
186.000000 267.000000
171.000000 271.000000
160.000000 271.000000
149.000000 263.000000
138.000000 249.000000
160.000000 238.000000
171.000000 234.000000
182.000000 238.000000
208.000000 245.000000
186.000000 256.000000
171.000000 256.000000
160.000000 256.000000
}
