version: 1
n_points: 68
{
69.000000 163.000000
73.000000 189.000000
76.000000 214.000000
84.000000 236.000000
95.000000 262.000000
109.000000 280.000000
124.000000 291.000000
142.000000 299.000000
175.000000 306.000000
205.000000 299.000000
223.000000 288.000000
238.000000 277.000000
249.000000 255.000000
256.000000 233.000000
260.000000 207.000000
267.000000 181.000000
267.000000 156.000000
87.000000 130.000000
98.000000 119.000000
113.000000 115.000000
128.000000 112.000000
142.000000 115.000000
194.000000 115.000000
208.000000 115.000000
219.000000 112.000000
238.000000 119.000000
249.000000 126.000000
168.000000 145.000000
168.000000 163.000000
168.000000 178.000000
168.000000 189.000000
153.000000 203.000000
161.000000 207.000000
168.000000 207.000000
179.000000 207.000000
186.000000 203.000000
106.000000 152.000000
117.000000 145.000000
128.000000 145.000000
142.000000 148.000000
131.000000 152.000000
117.000000 156.000000
194.000000 148.000000
208.000000 141.000000
219.000000 141.000000
230.000000 148.000000
219.000000 152.000000
205.000000 152.000000
135.000000 247.000000
146.000000 233.000000
161.000000 225.000000
172.000000 225.000000
179.000000 222.000000
197.000000 233.000000
208.000000 244.000000
197.000000 258.000000
186.000000 266.000000
172.000000 269.000000
157.000000 266.000000
150.000000 258.000000
139.000000 247.000000
161.000000 236.000000
172.000000 233.000000
183.000000 236.000000
205.000000 244.000000
183.000000 251.000000
172.000000 255.000000
161.000000 255.000000
}
