version: 1
n_points: 68
{
63.000000 158.000000
70.000000 187.000000
74.000000 209.000000
81.000000 234.000000
88.000000 256.000000
103.000000 274.000000
117.000000 285.000000
135.000000 292.000000
168.000000 300.000000
201.000000 292.000000
219.000000 285.000000
234.000000 274.000000
248.000000 252.000000
259.000000 230.000000
263.000000 205.000000
270.000000 180.000000
270.000000 154.000000
84.000000 129.000000
99.000000 118.000000
114.000000 114.000000
128.000000 114.000000
143.000000 114.000000
194.000000 114.000000
208.000000 114.000000
223.000000 114.000000
237.000000 118.000000
252.000000 129.000000
168.000000 147.000000
168.000000 165.000000
165.000000 180.000000
165.000000 194.000000
150.000000 205.000000
157.000000 209.000000
168.000000 212.000000
179.000000 209.000000
186.000000 209.000000
106.000000 150.000000
117.000000 143.000000
128.000000 143.000000
143.000000 150.000000
132.000000 154.000000
117.000000 154.000000
194.000000 147.000000
208.000000 143.000000
219.000000 143.000000
230.000000 147.000000
219.000000 154.000000
205.000000 150.000000
128.000000 238.000000
143.000000 234.000000
161.000000 234.000000
168.000000 238.000000
175.000000 234.000000
197.000000 238.000000
212.000000 238.000000
194.000000 245.000000
183.000000 249.000000
168.000000 249.000000
157.000000 249.000000
143.000000 245.000000
132.000000 238.000000
157.000000 241.000000
168.000000 241.000000
183.000000 241.000000
208.000000 238.000000
179.000000 238.000000
168.000000 241.000000
157.000000 238.000000
}
