version: 1
n_points: 68
{
68.000000 163.000000
72.000000 188.000000
79.000000 213.000000
83.000000 235.000000
93.000000 260.000000
111.000000 278.000000
126.000000 289.000000
144.000000 299.000000
176.000000 307.000000
204.000000 299.000000
222.000000 289.000000
237.000000 274.000000
247.000000 256.000000
255.000000 228.000000
258.000000 206.000000
265.000000 181.000000
265.000000 156.000000
90.000000 120.000000
97.000000 102.000000
111.000000 95.000000
126.000000 95.000000
140.000000 95.000000
197.000000 95.000000
208.000000 95.000000
222.000000 95.000000
240.000000 102.000000
251.000000 117.000000
169.000000 142.000000
169.000000 160.000000
169.000000 178.000000
169.000000 188.000000
154.000000 206.000000
161.000000 206.000000
169.000000 206.000000
179.000000 206.000000
187.000000 203.000000
108.000000 145.000000
118.000000 142.000000
129.000000 142.000000
140.000000 149.000000
129.000000 153.000000
118.000000 153.000000
197.000000 145.000000
208.000000 142.000000
222.000000 142.000000
230.000000 145.000000
219.000000 149.000000
208.000000 149.000000
140.000000 246.000000
147.000000 231.000000
161.000000 224.000000
172.000000 224.000000
179.000000 224.000000
194.000000 231.000000
204.000000 246.000000
197.000000 256.000000
183.000000 264.000000
172.000000 267.000000
158.000000 267.000000
151.000000 260.000000
144.000000 246.000000
161.000000 235.000000
172.000000 235.000000
179.000000 235.000000
204.000000 246.000000
183.000000 249.000000
172.000000 253.000000
161.000000 253.000000
}
