version: 1
n_points: 68
{
66.000000 166.000000
73.000000 191.000000
77.000000 213.000000
84.000000 239.000000
95.000000 261.000000
110.000000 279.000000
124.000000 290.000000
142.000000 297.000000
171.000000 308.000000
204.000000 297.000000
222.000000 286.000000
237.000000 275.000000
248.000000 257.000000
259.000000 232.000000
263.000000 206.000000
266.000000 181.000000
270.000000 155.000000
88.000000 130.000000
99.000000 119.000000
113.000000 115.000000
128.000000 115.000000
142.000000 115.000000
193.000000 115.000000
208.000000 111.000000
222.000000 111.000000
237.000000 119.000000
252.000000 126.000000
168.000000 144.000000
168.000000 162.000000
168.000000 177.000000
168.000000 191.000000
153.000000 206.000000
161.000000 206.000000
168.000000 206.000000
179.000000 206.000000
190.000000 202.000000
106.000000 151.000000
117.000000 144.000000
128.000000 144.000000
142.000000 151.000000
131.000000 155.000000
117.000000 155.000000
197.000000 148.000000
208.000000 140.000000
219.000000 144.000000
230.000000 148.000000
219.000000 151.000000
208.000000 151.000000
135.000000 246.000000
146.000000 232.000000
161.000000 224.000000
171.000000 224.000000
179.000000 224.000000
197.000000 232.000000
208.000000 242.000000
197.000000 257.000000
186.000000 264.000000
171.000000 264.000000
161.000000 264.000000
150.000000 261.000000
139.000000 246.000000
161.000000 235.000000
171.000000 235.000000
182.000000 235.000000
208.000000 242.000000
182.000000 250.000000
171.000000 253.000000
161.000000 253.000000
}
