version: 1
n_points: 68
{
70.000000 162.000000
74.000000 188.000000
78.000000 213.000000
85.000000 235.000000
96.000000 260.000000
110.000000 278.000000
125.000000 289.000000
143.000000 296.000000
175.000000 307.000000
204.000000 300.000000
223.000000 286.000000
233.000000 275.000000
248.000000 253.000000
255.000000 228.000000
259.000000 206.000000
262.000000 181.000000
266.000000 155.000000
88.000000 119.000000
96.000000 104.000000
114.000000 97.000000
128.000000 94.000000
139.000000 97.000000
197.000000 97.000000
208.000000 94.000000
223.000000 97.000000
241.000000 104.000000
248.000000 119.000000
168.000000 144.000000
168.000000 162.000000
168.000000 177.000000
168.000000 188.000000
154.000000 206.000000
161.000000 206.000000
168.000000 206.000000
179.000000 206.000000
186.000000 202.000000
107.000000 148.000000
117.000000 141.000000
128.000000 144.000000
143.000000 148.000000
132.000000 152.000000
117.000000 152.000000
197.000000 144.000000
208.000000 141.000000
219.000000 141.000000
230.000000 144.000000
219.000000 152.000000
208.000000 152.000000
139.000000 246.000000
150.000000 231.000000
165.000000 224.000000
172.000000 224.000000
179.000000 220.000000
194.000000 231.000000
204.000000 246.000000
197.000000 257.000000
186.000000 264.000000
172.000000 267.000000
161.000000 267.000000
150.000000 260.000000
143.000000 246.000000
161.000000 235.000000
172.000000 235.000000
183.000000 235.000000
204.000000 246.000000
183.000000 249.000000
172.000000 253.000000
161.000000 253.000000
}
