version: 1
n_points: 68
{
66.000000 166.000000
73.000000 191.000000
77.000000 217.000000
84.000000 239.000000
95.000000 264.000000
109.000000 282.000000
124.000000 289.000000
142.000000 300.000000
175.000000 308.000000
204.000000 300.000000
222.000000 289.000000
237.000000 275.000000
248.000000 257.000000
259.000000 231.000000
262.000000 209.000000
266.000000 184.000000
269.000000 155.000000
88.000000 129.000000
98.000000 118.000000
113.000000 115.000000
128.000000 115.000000
142.000000 115.000000
197.000000 115.000000
208.000000 111.000000
222.000000 111.000000
237.000000 118.000000
251.000000 126.000000
168.000000 148.000000
168.000000 162.000000
168.000000 177.000000
168.000000 191.000000
153.000000 206.000000
160.000000 206.000000
171.000000 209.000000
179.000000 206.000000
189.000000 206.000000
106.000000 151.000000
117.000000 144.000000
131.000000 144.000000
142.000000 151.000000
131.000000 155.000000
117.000000 155.000000
197.000000 148.000000
208.000000 144.000000
222.000000 144.000000
229.000000 148.000000
219.000000 151.000000
208.000000 151.000000
138.000000 246.000000
146.000000 231.000000
164.000000 224.000000
171.000000 224.000000
179.000000 224.000000
197.000000 231.000000
208.000000 242.000000
197.000000 257.000000
186.000000 264.000000
171.000000 268.000000
160.000000 264.000000
149.000000 260.000000
138.000000 246.000000
160.000000 235.000000
171.000000 235.000000
182.000000 235.000000
208.000000 242.000000
182.000000 249.000000
171.000000 253.000000
160.000000 253.000000
}
