version: 1
n_points: 68
{
68.000000 163.000000
71.000000 188.000000
79.000000 213.000000
82.000000 235.000000
93.000000 260.000000
111.000000 278.000000
125.000000 288.000000
143.000000 299.000000
172.000000 306.000000
204.000000 299.000000
222.000000 288.000000
232.000000 274.000000
247.000000 256.000000
254.000000 231.000000
258.000000 206.000000
265.000000 181.000000
265.000000 156.000000
89.000000 120.000000
96.000000 106.000000
111.000000 95.000000
125.000000 95.000000
139.000000 95.000000
197.000000 95.000000
207.000000 95.000000
222.000000 95.000000
236.000000 102.000000
250.000000 120.000000
168.000000 142.000000
168.000000 159.000000
168.000000 177.000000
168.000000 188.000000
154.000000 206.000000
161.000000 206.000000
168.000000 206.000000
179.000000 206.000000
186.000000 202.000000
107.000000 149.000000
118.000000 142.000000
129.000000 142.000000
139.000000 149.000000
129.000000 152.000000
118.000000 152.000000
197.000000 145.000000
207.000000 142.000000
218.000000 142.000000
229.000000 145.000000
218.000000 152.000000
204.000000 149.000000
143.000000 245.000000
150.000000 231.000000
164.000000 224.000000
172.000000 224.000000
179.000000 224.000000
193.000000 231.000000
200.000000 245.000000
193.000000 252.000000
182.000000 263.000000
172.000000 263.000000
161.000000 263.000000
150.000000 256.000000
143.000000 245.000000
164.000000 235.000000
172.000000 235.000000
179.000000 235.000000
200.000000 242.000000
182.000000 249.000000
172.000000 249.000000
161.000000 249.000000
}
