version: 1
n_points: 68
{
70.000000 163.000000
74.000000 188.000000
77.000000 213.000000
84.000000 235.000000
95.000000 260.000000
110.000000 278.000000
128.000000 289.000000
142.000000 299.000000
174.000000 307.000000
203.000000 299.000000
221.000000 285.000000
235.000000 274.000000
250.000000 253.000000
257.000000 231.000000
261.000000 206.000000
264.000000 181.000000
268.000000 155.000000
88.000000 127.000000
99.000000 112.000000
113.000000 105.000000
128.000000 102.000000
142.000000 105.000000
196.000000 102.000000
210.000000 98.000000
225.000000 102.000000
239.000000 109.000000
250.000000 123.000000
167.000000 145.000000
167.000000 163.000000
167.000000 177.000000
167.000000 191.000000
156.000000 206.000000
160.000000 206.000000
171.000000 209.000000
181.000000 206.000000
189.000000 202.000000
113.000000 148.000000
120.000000 148.000000
135.000000 148.000000
142.000000 148.000000
135.000000 152.000000
124.000000 152.000000
196.000000 148.000000
207.000000 148.000000
221.000000 148.000000
228.000000 148.000000
217.000000 152.000000
207.000000 152.000000
146.000000 245.000000
153.000000 235.000000
163.000000 224.000000
171.000000 224.000000
178.000000 224.000000
192.000000 231.000000
203.000000 245.000000
192.000000 256.000000
181.000000 263.000000
171.000000 263.000000
160.000000 263.000000
153.000000 256.000000
146.000000 245.000000
163.000000 235.000000
171.000000 235.000000
178.000000 235.000000
199.000000 242.000000
181.000000 245.000000
171.000000 249.000000
163.000000 249.000000
}
