version: 1
n_points: 68
{
69.000000 164.000000
72.000000 189.000000
76.000000 215.000000
83.000000 237.000000
94.000000 259.000000
113.000000 277.000000
127.000000 288.000000
145.000000 299.000000
175.000000 306.000000
204.000000 295.000000
222.000000 284.000000
237.000000 273.000000
248.000000 255.000000
255.000000 230.000000
258.000000 204.000000
262.000000 182.000000
266.000000 153.000000
87.000000 127.000000
98.000000 113.000000
113.000000 109.000000
127.000000 105.000000
142.000000 109.000000
196.000000 105.000000
207.000000 105.000000
222.000000 105.000000
237.000000 109.000000
248.000000 124.000000
167.000000 146.000000
167.000000 164.000000
167.000000 178.000000
167.000000 189.000000
153.000000 204.000000
160.000000 208.000000
171.000000 208.000000
178.000000 204.000000
185.000000 204.000000
109.000000 149.000000
120.000000 146.000000
131.000000 146.000000
142.000000 149.000000
131.000000 153.000000
120.000000 153.000000
196.000000 149.000000
207.000000 146.000000
218.000000 146.000000
229.000000 146.000000
218.000000 153.000000
207.000000 153.000000
145.000000 244.000000
153.000000 233.000000
164.000000 222.000000
171.000000 226.000000
178.000000 222.000000
193.000000 233.000000
200.000000 244.000000
193.000000 255.000000
182.000000 262.000000
171.000000 262.000000
160.000000 262.000000
153.000000 255.000000
145.000000 244.000000
164.000000 237.000000
171.000000 233.000000
178.000000 237.000000
200.000000 244.000000
178.000000 248.000000
171.000000 248.000000
160.000000 248.000000
}
