version: 1
n_points: 68
{
67.000000 162.000000
71.000000 191.000000
78.000000 214.000000
86.000000 236.000000
97.000000 262.000000
112.000000 280.000000
130.000000 292.000000
145.000000 303.000000
175.000000 310.000000
204.000000 303.000000
223.000000 288.000000
234.000000 277.000000
249.000000 254.000000
256.000000 232.000000
260.000000 206.000000
264.000000 180.000000
267.000000 154.000000
86.000000 128.000000
97.000000 117.000000
112.000000 110.000000
126.000000 110.000000
141.000000 110.000000
193.000000 110.000000
208.000000 106.000000
223.000000 106.000000
238.000000 113.000000
249.000000 125.000000
167.000000 147.000000
167.000000 162.000000
167.000000 180.000000
167.000000 191.000000
152.000000 210.000000
160.000000 210.000000
167.000000 210.000000
178.000000 210.000000
186.000000 206.000000
108.000000 151.000000
119.000000 147.000000
130.000000 147.000000
141.000000 151.000000
130.000000 154.000000
119.000000 154.000000
197.000000 147.000000
208.000000 143.000000
219.000000 143.000000
230.000000 147.000000
219.000000 154.000000
204.000000 151.000000
145.000000 251.000000
152.000000 240.000000
164.000000 228.000000
171.000000 232.000000
178.000000 228.000000
189.000000 236.000000
201.000000 251.000000
189.000000 262.000000
182.000000 269.000000
171.000000 269.000000
160.000000 269.000000
152.000000 262.000000
149.000000 251.000000
164.000000 243.000000
171.000000 240.000000
178.000000 243.000000
197.000000 247.000000
178.000000 254.000000
171.000000 254.000000
164.000000 254.000000
}
