version: 1
n_points: 68
{
66.000000 163.000000
69.000000 190.000000
77.000000 213.000000
81.000000 236.000000
92.000000 259.000000
112.000000 274.000000
127.000000 282.000000
146.000000 297.000000
184.000000 305.000000
211.000000 289.000000
222.000000 278.000000
234.000000 270.000000
249.000000 251.000000
257.000000 228.000000
264.000000 205.000000
268.000000 182.000000
268.000000 155.000000
85.000000 125.000000
96.000000 110.000000
112.000000 102.000000
127.000000 102.000000
142.000000 102.000000
196.000000 102.000000
207.000000 98.000000
222.000000 102.000000
238.000000 106.000000
249.000000 121.000000
169.000000 136.000000
169.000000 152.000000
169.000000 167.000000
165.000000 178.000000
154.000000 197.000000
161.000000 197.000000
169.000000 197.000000
177.000000 197.000000
184.000000 197.000000
108.000000 144.000000
119.000000 136.000000
131.000000 136.000000
142.000000 140.000000
131.000000 144.000000
119.000000 148.000000
196.000000 140.000000
207.000000 136.000000
219.000000 136.000000
230.000000 140.000000
219.000000 144.000000
207.000000 144.000000
142.000000 259.000000
150.000000 232.000000
161.000000 217.000000
169.000000 217.000000
177.000000 217.000000
192.000000 228.000000
199.000000 259.000000
192.000000 282.000000
184.000000 297.000000
169.000000 301.000000
157.000000 297.000000
146.000000 282.000000
146.000000 255.000000
161.000000 232.000000
169.000000 228.000000
180.000000 232.000000
199.000000 259.000000
180.000000 285.000000
169.000000 289.000000
161.000000 285.000000
}
