version: 1
n_points: 68
{
69.000000 165.000000
73.000000 192.000000
77.000000 215.000000
81.000000 234.000000
92.000000 257.000000
112.000000 273.000000
127.000000 281.000000
146.000000 292.000000
173.000000 296.000000
204.000000 284.000000
220.000000 273.000000
231.000000 265.000000
247.000000 250.000000
259.000000 226.000000
262.000000 207.000000
270.000000 180.000000
270.000000 153.000000
85.000000 126.000000
96.000000 114.000000
112.000000 107.000000
127.000000 107.000000
139.000000 107.000000
193.000000 107.000000
208.000000 103.000000
220.000000 103.000000
235.000000 110.000000
251.000000 122.000000
166.000000 141.000000
166.000000 161.000000
166.000000 172.000000
166.000000 188.000000
154.000000 203.000000
162.000000 203.000000
170.000000 207.000000
177.000000 203.000000
185.000000 203.000000
108.000000 145.000000
115.000000 141.000000
127.000000 141.000000
139.000000 145.000000
131.000000 149.000000
119.000000 149.000000
197.000000 145.000000
204.000000 137.000000
220.000000 137.000000
228.000000 141.000000
220.000000 149.000000
204.000000 149.000000
146.000000 257.000000
154.000000 238.000000
162.000000 226.000000
170.000000 226.000000
173.000000 226.000000
189.000000 238.000000
197.000000 257.000000
189.000000 269.000000
185.000000 281.000000
173.000000 284.000000
162.000000 284.000000
154.000000 273.000000
150.000000 257.000000
162.000000 238.000000
170.000000 238.000000
177.000000 238.000000
193.000000 253.000000
181.000000 269.000000
173.000000 273.000000
166.000000 273.000000
}
