version: 1
n_points: 68
{
66.000000 163.000000
74.000000 189.000000
78.000000 212.000000
82.000000 235.000000
93.000000 258.000000
112.000000 273.000000
127.000000 285.000000
146.000000 292.000000
181.000000 307.000000
211.000000 292.000000
222.000000 281.000000
234.000000 269.000000
249.000000 250.000000
257.000000 227.000000
261.000000 205.000000
268.000000 182.000000
268.000000 155.000000
85.000000 125.000000
97.000000 113.000000
112.000000 106.000000
127.000000 106.000000
139.000000 106.000000
196.000000 106.000000
207.000000 102.000000
222.000000 102.000000
238.000000 109.000000
249.000000 121.000000
169.000000 140.000000
169.000000 155.000000
165.000000 170.000000
165.000000 182.000000
154.000000 201.000000
162.000000 201.000000
169.000000 201.000000
177.000000 201.000000
184.000000 201.000000
108.000000 144.000000
116.000000 140.000000
127.000000 140.000000
142.000000 144.000000
131.000000 148.000000
120.000000 148.000000
196.000000 144.000000
207.000000 136.000000
219.000000 136.000000
230.000000 144.000000
219.000000 148.000000
207.000000 148.000000
146.000000 258.000000
154.000000 235.000000
162.000000 220.000000
169.000000 224.000000
177.000000 220.000000
188.000000 235.000000
196.000000 258.000000
192.000000 277.000000
184.000000 288.000000
173.000000 292.000000
158.000000 288.000000
150.000000 277.000000
146.000000 258.000000
162.000000 235.000000
169.000000 231.000000
181.000000 235.000000
196.000000 258.000000
181.000000 277.000000
169.000000 281.000000
162.000000 281.000000
}
