version: 1
n_points: 68
{
68.000000 162.000000
68.000000 188.000000
75.000000 210.000000
82.000000 233.000000
90.000000 259.000000
105.000000 281.000000
123.000000 292.000000
146.000000 304.000000
176.000000 315.000000
206.000000 304.000000
224.000000 289.000000
239.000000 274.000000
250.000000 255.000000
258.000000 225.000000
261.000000 203.000000
265.000000 180.000000
269.000000 154.000000
86.000000 125.000000
97.000000 113.000000
112.000000 110.000000
127.000000 106.000000
142.000000 110.000000
194.000000 110.000000
209.000000 106.000000
220.000000 106.000000
239.000000 113.000000
250.000000 121.000000
168.000000 139.000000
168.000000 158.000000
168.000000 169.000000
168.000000 184.000000
150.000000 195.000000
161.000000 199.000000
168.000000 199.000000
179.000000 199.000000
191.000000 195.000000
109.000000 147.000000
116.000000 143.000000
131.000000 139.000000
142.000000 147.000000
131.000000 147.000000
120.000000 151.000000
194.000000 143.000000
206.000000 139.000000
220.000000 139.000000
228.000000 143.000000
220.000000 147.000000
206.000000 147.000000
131.000000 240.000000
142.000000 225.000000
161.000000 218.000000
172.000000 218.000000
179.000000 214.000000
202.000000 225.000000
217.000000 236.000000
202.000000 263.000000
187.000000 274.000000
172.000000 274.000000
157.000000 274.000000
146.000000 263.000000
131.000000 240.000000
157.000000 229.000000
172.000000 225.000000
187.000000 229.000000
213.000000 236.000000
187.000000 259.000000
172.000000 263.000000
161.000000 263.000000
}
