version: 1
n_points: 68
{
66.000000 161.000000
70.000000 188.000000
77.000000 211.000000
81.000000 234.000000
92.000000 260.000000
112.000000 279.000000
127.000000 287.000000
150.000000 302.000000
180.000000 310.000000
207.000000 302.000000
222.000000 283.000000
238.000000 272.000000
249.000000 253.000000
257.000000 226.000000
264.000000 203.000000
268.000000 180.000000
268.000000 153.000000
85.000000 123.000000
96.000000 111.000000
112.000000 104.000000
127.000000 104.000000
138.000000 104.000000
196.000000 104.000000
207.000000 100.000000
222.000000 100.000000
238.000000 108.000000
249.000000 119.000000
169.000000 138.000000
169.000000 153.000000
169.000000 169.000000
169.000000 180.000000
154.000000 199.000000
161.000000 199.000000
169.000000 199.000000
180.000000 199.000000
188.000000 199.000000
108.000000 142.000000
119.000000 138.000000
131.000000 138.000000
142.000000 142.000000
131.000000 146.000000
119.000000 146.000000
196.000000 142.000000
207.000000 134.000000
218.000000 134.000000
230.000000 142.000000
218.000000 146.000000
207.000000 146.000000
138.000000 253.000000
146.000000 230.000000
161.000000 218.000000
169.000000 218.000000
180.000000 218.000000
196.000000 230.000000
207.000000 253.000000
199.000000 283.000000
188.000000 295.000000
176.000000 298.000000
161.000000 295.000000
150.000000 283.000000
142.000000 253.000000
161.000000 230.000000
169.000000 230.000000
180.000000 230.000000
203.000000 253.000000
184.000000 283.000000
173.000000 287.000000
161.000000 283.000000
}
