version: 1
n_points: 68
{
66.000000 158.000000
69.000000 184.000000
73.000000 210.000000
80.000000 232.000000
87.000000 257.000000
102.000000 275.000000
120.000000 286.000000
139.000000 294.000000
172.000000 301.000000
205.000000 294.000000
223.000000 283.000000
237.000000 272.000000
252.000000 250.000000
259.000000 224.000000
263.000000 202.000000
267.000000 177.000000
270.000000 151.000000
84.000000 126.000000
98.000000 115.000000
113.000000 107.000000
128.000000 107.000000
142.000000 111.000000
194.000000 111.000000
208.000000 107.000000
223.000000 107.000000
237.000000 115.000000
248.000000 122.000000
168.000000 140.000000
168.000000 158.000000
168.000000 169.000000
168.000000 184.000000
150.000000 195.000000
157.000000 199.000000
168.000000 199.000000
179.000000 199.000000
190.000000 195.000000
106.000000 147.000000
117.000000 140.000000
128.000000 140.000000
142.000000 147.000000
131.000000 151.000000
117.000000 151.000000
194.000000 144.000000
208.000000 140.000000
219.000000 140.000000
230.000000 144.000000
219.000000 147.000000
205.000000 147.000000
124.000000 232.000000
139.000000 221.000000
161.000000 213.000000
168.000000 217.000000
179.000000 213.000000
201.000000 221.000000
215.000000 232.000000
201.000000 250.000000
186.000000 257.000000
172.000000 257.000000
157.000000 257.000000
142.000000 250.000000
128.000000 232.000000
153.000000 224.000000
168.000000 224.000000
183.000000 224.000000
215.000000 232.000000
186.000000 243.000000
172.000000 246.000000
157.000000 246.000000
}
