version: 1
n_points: 68
{
67.000000 157.000000
70.000000 182.000000
74.000000 207.000000
81.000000 229.000000
88.000000 254.000000
103.000000 272.000000
121.000000 283.000000
139.000000 290.000000
171.000000 301.000000
204.000000 290.000000
225.000000 279.000000
240.000000 269.000000
254.000000 247.000000
261.000000 222.000000
265.000000 200.000000
268.000000 175.000000
272.000000 150.000000
88.000000 128.000000
99.000000 117.000000
113.000000 110.000000
128.000000 110.000000
142.000000 114.000000
196.000000 110.000000
211.000000 110.000000
222.000000 110.000000
240.000000 114.000000
250.000000 124.000000
168.000000 142.000000
168.000000 160.000000
168.000000 171.000000
168.000000 186.000000
150.000000 196.000000
160.000000 200.000000
171.000000 204.000000
182.000000 200.000000
189.000000 196.000000
110.000000 150.000000
121.000000 146.000000
131.000000 146.000000
142.000000 150.000000
135.000000 153.000000
121.000000 153.000000
196.000000 146.000000
211.000000 146.000000
222.000000 146.000000
232.000000 146.000000
222.000000 150.000000
207.000000 150.000000
124.000000 233.000000
139.000000 222.000000
160.000000 214.000000
171.000000 218.000000
182.000000 214.000000
204.000000 218.000000
218.000000 229.000000
204.000000 247.000000
189.000000 254.000000
171.000000 254.000000
157.000000 254.000000
142.000000 247.000000
128.000000 233.000000
157.000000 225.000000
171.000000 225.000000
186.000000 225.000000
218.000000 229.000000
186.000000 240.000000
171.000000 243.000000
157.000000 243.000000
}
