version: 1
n_points: 68
{
64.000000 157.000000
67.000000 183.000000
75.000000 208.000000
78.000000 229.000000
89.000000 254.000000
103.000000 272.000000
118.000000 283.000000
139.000000 290.000000
172.000000 298.000000
204.000000 290.000000
226.000000 280.000000
240.000000 269.000000
254.000000 247.000000
261.000000 222.000000
265.000000 201.000000
269.000000 179.000000
272.000000 150.000000
85.000000 125.000000
96.000000 114.000000
114.000000 111.000000
129.000000 111.000000
143.000000 111.000000
193.000000 111.000000
208.000000 111.000000
222.000000 111.000000
236.000000 114.000000
251.000000 125.000000
168.000000 143.000000
168.000000 161.000000
168.000000 172.000000
168.000000 186.000000
150.000000 197.000000
157.000000 201.000000
168.000000 201.000000
179.000000 201.000000
190.000000 197.000000
107.000000 147.000000
118.000000 143.000000
129.000000 143.000000
143.000000 147.000000
132.000000 150.000000
118.000000 150.000000
197.000000 147.000000
208.000000 143.000000
218.000000 143.000000
229.000000 147.000000
218.000000 150.000000
208.000000 150.000000
125.000000 233.000000
139.000000 222.000000
161.000000 215.000000
172.000000 219.000000
179.000000 215.000000
200.000000 219.000000
218.000000 229.000000
200.000000 247.000000
186.000000 254.000000
172.000000 254.000000
157.000000 254.000000
143.000000 247.000000
129.000000 233.000000
157.000000 226.000000
172.000000 226.000000
186.000000 226.000000
215.000000 229.000000
186.000000 240.000000
172.000000 244.000000
157.000000 244.000000
}
