version: 1
n_points: 68
{
62.000000 158.000000
66.000000 184.000000
73.000000 209.000000
81.000000 231.000000
88.000000 256.000000
102.000000 271.000000
120.000000 282.000000
139.000000 293.000000
171.000000 300.000000
204.000000 293.000000
226.000000 278.000000
237.000000 267.000000
251.000000 249.000000
262.000000 224.000000
266.000000 202.000000
269.000000 177.000000
269.000000 151.000000
84.000000 126.000000
95.000000 115.000000
113.000000 111.000000
128.000000 111.000000
142.000000 111.000000
193.000000 111.000000
208.000000 111.000000
222.000000 111.000000
237.000000 115.000000
251.000000 126.000000
168.000000 144.000000
168.000000 158.000000
168.000000 173.000000
168.000000 187.000000
149.000000 198.000000
157.000000 198.000000
168.000000 202.000000
182.000000 198.000000
189.000000 198.000000
106.000000 147.000000
117.000000 144.000000
128.000000 140.000000
142.000000 147.000000
131.000000 151.000000
117.000000 151.000000
197.000000 144.000000
208.000000 140.000000
218.000000 140.000000
229.000000 144.000000
218.000000 147.000000
204.000000 147.000000
124.000000 231.000000
139.000000 220.000000
160.000000 216.000000
171.000000 216.000000
179.000000 216.000000
204.000000 220.000000
218.000000 231.000000
200.000000 246.000000
186.000000 253.000000
171.000000 256.000000
157.000000 256.000000
142.000000 249.000000
128.000000 231.000000
157.000000 227.000000
171.000000 224.000000
186.000000 224.000000
215.000000 227.000000
186.000000 242.000000
171.000000 246.000000
157.000000 242.000000
}
