version: 1
n_points: 68
{
65.000000 158.000000
69.000000 184.000000
73.000000 209.000000
80.000000 231.000000
91.000000 257.000000
105.000000 271.000000
120.000000 282.000000
142.000000 289.000000
175.000000 300.000000
204.000000 289.000000
226.000000 278.000000
236.000000 268.000000
251.000000 249.000000
262.000000 224.000000
266.000000 202.000000
269.000000 180.000000
269.000000 151.000000
87.000000 126.000000
98.000000 115.000000
113.000000 111.000000
127.000000 107.000000
142.000000 111.000000
193.000000 111.000000
207.000000 107.000000
222.000000 107.000000
236.000000 115.000000
251.000000 122.000000
167.000000 140.000000
167.000000 158.000000
167.000000 173.000000
167.000000 184.000000
153.000000 198.000000
160.000000 198.000000
171.000000 202.000000
182.000000 198.000000
189.000000 198.000000
105.000000 147.000000
116.000000 140.000000
131.000000 140.000000
142.000000 147.000000
131.000000 151.000000
116.000000 151.000000
196.000000 144.000000
207.000000 140.000000
218.000000 140.000000
229.000000 144.000000
218.000000 147.000000
207.000000 147.000000
124.000000 231.000000
138.000000 220.000000
160.000000 217.000000
171.000000 217.000000
182.000000 217.000000
204.000000 220.000000
218.000000 228.000000
200.000000 246.000000
186.000000 253.000000
171.000000 257.000000
156.000000 253.000000
142.000000 249.000000
127.000000 231.000000
156.000000 224.000000
171.000000 224.000000
186.000000 224.000000
215.000000 228.000000
186.000000 242.000000
171.000000 242.000000
156.000000 242.000000
}
