version: 1
n_points: 68
{
64.000000 162.000000
67.000000 187.000000
74.000000 209.000000
82.000000 234.000000
89.000000 255.000000
103.000000 274.000000
121.000000 284.000000
139.000000 292.000000
172.000000 299.000000
204.000000 292.000000
222.000000 281.000000
237.000000 270.000000
251.000000 252.000000
258.000000 227.000000
265.000000 205.000000
269.000000 180.000000
269.000000 155.000000
85.000000 129.000000
96.000000 115.000000
114.000000 111.000000
128.000000 111.000000
139.000000 111.000000
193.000000 111.000000
208.000000 111.000000
222.000000 111.000000
237.000000 115.000000
251.000000 126.000000
168.000000 144.000000
168.000000 158.000000
165.000000 173.000000
168.000000 187.000000
150.000000 198.000000
157.000000 201.000000
168.000000 201.000000
179.000000 201.000000
190.000000 198.000000
107.000000 147.000000
118.000000 144.000000
128.000000 144.000000
139.000000 147.000000
132.000000 151.000000
118.000000 151.000000
193.000000 144.000000
208.000000 140.000000
219.000000 140.000000
229.000000 144.000000
219.000000 147.000000
204.000000 147.000000
128.000000 234.000000
139.000000 223.000000
161.000000 216.000000
168.000000 219.000000
179.000000 216.000000
201.000000 219.000000
215.000000 230.000000
201.000000 248.000000
186.000000 255.000000
172.000000 255.000000
157.000000 255.000000
143.000000 248.000000
128.000000 234.000000
157.000000 227.000000
172.000000 227.000000
183.000000 227.000000
211.000000 230.000000
183.000000 241.000000
172.000000 245.000000
157.000000 245.000000
}
