version: 1
n_points: 68
{
67.000000 165.000000
71.000000 190.000000
78.000000 211.000000
85.000000 236.000000
92.000000 261.000000
106.000000 275.000000
124.000000 286.000000
142.000000 293.000000
170.000000 300.000000
202.000000 293.000000
220.000000 282.000000
234.000000 271.000000
248.000000 254.000000
256.000000 229.000000
259.000000 204.000000
266.000000 183.000000
266.000000 154.000000
85.000000 129.000000
96.000000 119.000000
114.000000 112.000000
128.000000 112.000000
142.000000 112.000000
192.000000 112.000000
206.000000 112.000000
220.000000 112.000000
234.000000 115.000000
248.000000 126.000000
167.000000 144.000000
167.000000 158.000000
167.000000 172.000000
167.000000 186.000000
153.000000 200.000000
160.000000 200.000000
167.000000 204.000000
177.000000 200.000000
188.000000 200.000000
106.000000 147.000000
117.000000 144.000000
128.000000 144.000000
142.000000 147.000000
131.000000 151.000000
117.000000 154.000000
195.000000 147.000000
206.000000 140.000000
216.000000 140.000000
227.000000 144.000000
216.000000 151.000000
206.000000 151.000000
135.000000 243.000000
145.000000 225.000000
160.000000 218.000000
170.000000 218.000000
177.000000 218.000000
195.000000 225.000000
206.000000 240.000000
195.000000 250.000000
185.000000 254.000000
170.000000 257.000000
156.000000 257.000000
149.000000 250.000000
138.000000 240.000000
160.000000 229.000000
170.000000 229.000000
181.000000 229.000000
202.000000 240.000000
181.000000 243.000000
170.000000 243.000000
160.000000 243.000000
}
