version: 1
n_points: 68
{
68.000000 164.000000
71.000000 193.000000
78.000000 214.000000
85.000000 239.000000
96.000000 261.000000
114.000000 278.000000
128.000000 286.000000
146.000000 293.000000
178.000000 296.000000
210.000000 289.000000
225.000000 278.000000
239.000000 268.000000
253.000000 250.000000
260.000000 225.000000
264.000000 203.000000
268.000000 178.000000
268.000000 153.000000
85.000000 128.000000
96.000000 118.000000
114.000000 111.000000
128.000000 111.000000
139.000000 114.000000
193.000000 114.000000
207.000000 111.000000
221.000000 111.000000
235.000000 114.000000
250.000000 125.000000
168.000000 143.000000
168.000000 161.000000
168.000000 171.000000
171.000000 186.000000
157.000000 203.000000
164.000000 203.000000
175.000000 203.000000
185.000000 200.000000
193.000000 200.000000
107.000000 150.000000
118.000000 143.000000
128.000000 143.000000
143.000000 146.000000
132.000000 153.000000
118.000000 153.000000
196.000000 146.000000
207.000000 143.000000
218.000000 143.000000
228.000000 146.000000
218.000000 150.000000
207.000000 150.000000
146.000000 243.000000
153.000000 228.000000
168.000000 221.000000
178.000000 221.000000
185.000000 218.000000
203.000000 225.000000
214.000000 232.000000
203.000000 243.000000
193.000000 246.000000
182.000000 250.000000
168.000000 250.000000
157.000000 246.000000
146.000000 239.000000
168.000000 232.000000
178.000000 228.000000
189.000000 228.000000
214.000000 232.000000
189.000000 236.000000
178.000000 236.000000
168.000000 239.000000
}
