version: 1
n_points: 68
{
64.000000 160.000000
68.000000 185.000000
75.000000 210.000000
79.000000 231.000000
89.000000 256.000000
104.000000 274.000000
118.000000 285.000000
139.000000 292.000000
172.000000 299.000000
200.000000 292.000000
222.000000 281.000000
236.000000 271.000000
250.000000 253.000000
257.000000 228.000000
261.000000 206.000000
268.000000 181.000000
268.000000 156.000000
86.000000 128.000000
97.000000 117.000000
114.000000 110.000000
125.000000 110.000000
139.000000 113.000000
193.000000 113.000000
207.000000 110.000000
222.000000 110.000000
236.000000 113.000000
250.000000 124.000000
168.000000 142.000000
168.000000 160.000000
164.000000 174.000000
164.000000 185.000000
150.000000 199.000000
157.000000 199.000000
168.000000 203.000000
179.000000 199.000000
186.000000 199.000000
107.000000 149.000000
118.000000 146.000000
129.000000 142.000000
139.000000 146.000000
129.000000 149.000000
118.000000 153.000000
197.000000 146.000000
207.000000 142.000000
218.000000 142.000000
229.000000 146.000000
218.000000 149.000000
204.000000 149.000000
129.000000 235.000000
139.000000 224.000000
157.000000 217.000000
168.000000 217.000000
179.000000 217.000000
197.000000 221.000000
211.000000 235.000000
197.000000 246.000000
182.000000 253.000000
168.000000 256.000000
154.000000 256.000000
143.000000 249.000000
129.000000 235.000000
154.000000 228.000000
168.000000 224.000000
182.000000 228.000000
207.000000 235.000000
182.000000 242.000000
168.000000 246.000000
157.000000 242.000000
}
