version: 1
n_points: 68
{
67.000000 164.000000
71.000000 193.000000
78.000000 214.000000
85.000000 239.000000
96.000000 261.000000
114.000000 279.000000
128.000000 286.000000
150.000000 293.000000
182.000000 297.000000
210.000000 286.000000
228.000000 279.000000
239.000000 268.000000
253.000000 250.000000
260.000000 225.000000
264.000000 204.000000
268.000000 179.000000
268.000000 154.000000
85.000000 129.000000
96.000000 118.000000
114.000000 111.000000
128.000000 111.000000
142.000000 111.000000
192.000000 111.000000
207.000000 111.000000
221.000000 111.000000
235.000000 114.000000
250.000000 125.000000
167.000000 143.000000
171.000000 157.000000
171.000000 172.000000
171.000000 186.000000
157.000000 200.000000
164.000000 204.000000
175.000000 204.000000
185.000000 200.000000
192.000000 197.000000
107.000000 150.000000
117.000000 143.000000
128.000000 143.000000
142.000000 147.000000
132.000000 150.000000
117.000000 154.000000
196.000000 147.000000
207.000000 139.000000
221.000000 139.000000
228.000000 143.000000
221.000000 150.000000
207.000000 150.000000
146.000000 239.000000
157.000000 229.000000
171.000000 218.000000
178.000000 222.000000
185.000000 218.000000
203.000000 222.000000
218.000000 232.000000
207.000000 239.000000
196.000000 247.000000
182.000000 250.000000
171.000000 250.000000
160.000000 247.000000
150.000000 239.000000
171.000000 232.000000
182.000000 229.000000
189.000000 229.000000
214.000000 232.000000
192.000000 236.000000
182.000000 236.000000
171.000000 236.000000
}
