version: 1
n_points: 68
{
68.000000 162.000000
72.000000 191.000000
75.000000 212.000000
82.000000 233.000000
93.000000 259.000000
107.000000 273.000000
122.000000 284.000000
136.000000 291.000000
168.000000 298.000000
197.000000 291.000000
218.000000 284.000000
233.000000 273.000000
247.000000 255.000000
254.000000 233.000000
261.000000 208.000000
265.000000 183.000000
268.000000 158.000000
86.000000 130.000000
97.000000 115.000000
115.000000 112.000000
129.000000 112.000000
143.000000 112.000000
197.000000 112.000000
208.000000 112.000000
222.000000 112.000000
236.000000 115.000000
251.000000 126.000000
168.000000 144.000000
165.000000 162.000000
165.000000 176.000000
165.000000 187.000000
150.000000 201.000000
157.000000 205.000000
165.000000 205.000000
175.000000 205.000000
183.000000 205.000000
107.000000 148.000000
118.000000 144.000000
129.000000 144.000000
140.000000 148.000000
129.000000 151.000000
118.000000 151.000000
193.000000 148.000000
208.000000 144.000000
218.000000 144.000000
229.000000 148.000000
218.000000 151.000000
204.000000 151.000000
132.000000 241.000000
143.000000 230.000000
157.000000 223.000000
165.000000 226.000000
172.000000 226.000000
186.000000 230.000000
193.000000 241.000000
183.000000 244.000000
175.000000 248.000000
165.000000 251.000000
154.000000 251.000000
143.000000 244.000000
136.000000 241.000000
154.000000 233.000000
165.000000 233.000000
172.000000 237.000000
190.000000 241.000000
172.000000 237.000000
165.000000 237.000000
154.000000 237.000000
}
