version: 1
n_points: 68
{
67.000000 162.000000
71.000000 188.000000
74.000000 209.000000
81.000000 234.000000
92.000000 256.000000
107.000000 270.000000
117.000000 281.000000
132.000000 288.000000
161.000000 296.000000
193.000000 292.000000
215.000000 285.000000
229.000000 274.000000
247.000000 256.000000
254.000000 231.000000
258.000000 209.000000
265.000000 184.000000
269.000000 159.000000
89.000000 126.000000
99.000000 116.000000
114.000000 112.000000
128.000000 112.000000
139.000000 112.000000
193.000000 112.000000
207.000000 112.000000
222.000000 112.000000
236.000000 116.000000
251.000000 126.000000
164.000000 144.000000
164.000000 162.000000
161.000000 177.000000
161.000000 188.000000
146.000000 202.000000
153.000000 202.000000
161.000000 206.000000
171.000000 206.000000
179.000000 202.000000
107.000000 148.000000
117.000000 144.000000
128.000000 144.000000
139.000000 148.000000
128.000000 152.000000
117.000000 152.000000
193.000000 148.000000
204.000000 141.000000
218.000000 141.000000
225.000000 148.000000
218.000000 152.000000
204.000000 152.000000
128.000000 238.000000
139.000000 231.000000
150.000000 224.000000
157.000000 227.000000
164.000000 224.000000
175.000000 231.000000
186.000000 242.000000
175.000000 245.000000
164.000000 249.000000
157.000000 249.000000
146.000000 249.000000
139.000000 245.000000
132.000000 238.000000
150.000000 234.000000
157.000000 234.000000
164.000000 234.000000
182.000000 242.000000
164.000000 238.000000
157.000000 238.000000
150.000000 238.000000
}
