version: 1
n_points: 68
{
65.000000 159.000000
68.000000 188.000000
76.000000 210.000000
79.000000 231.000000
90.000000 253.000000
104.000000 271.000000
115.000000 278.000000
130.000000 286.000000
159.000000 296.000000
187.000000 289.000000
209.000000 282.000000
227.000000 275.000000
241.000000 257.000000
252.000000 231.000000
259.000000 210.000000
263.000000 185.000000
267.000000 159.000000
86.000000 127.000000
97.000000 116.000000
112.000000 112.000000
126.000000 112.000000
137.000000 112.000000
191.000000 112.000000
205.000000 112.000000
220.000000 112.000000
234.000000 116.000000
249.000000 127.000000
162.000000 145.000000
162.000000 163.000000
159.000000 177.000000
155.000000 188.000000
140.000000 199.000000
148.000000 203.000000
155.000000 206.000000
166.000000 206.000000
173.000000 206.000000
104.000000 149.000000
115.000000 145.000000
126.000000 145.000000
137.000000 149.000000
126.000000 152.000000
115.000000 152.000000
191.000000 149.000000
202.000000 141.000000
216.000000 141.000000
227.000000 149.000000
216.000000 152.000000
202.000000 152.000000
126.000000 239.000000
133.000000 228.000000
144.000000 224.000000
151.000000 224.000000
159.000000 224.000000
169.000000 235.000000
177.000000 242.000000
169.000000 246.000000
159.000000 249.000000
148.000000 249.000000
140.000000 249.000000
133.000000 246.000000
126.000000 239.000000
144.000000 235.000000
151.000000 235.000000
159.000000 235.000000
177.000000 242.000000
159.000000 239.000000
151.000000 239.000000
144.000000 235.000000
}
