version: 1
n_points: 68
{
65.000000 160.000000
69.000000 189.000000
76.000000 211.000000
80.000000 232.000000
90.000000 254.000000
105.000000 272.000000
116.000000 279.000000
130.000000 286.000000
159.000000 297.000000
188.000000 290.000000
209.000000 283.000000
227.000000 275.000000
242.000000 257.000000
253.000000 232.000000
256.000000 211.000000
263.000000 185.000000
267.000000 160.000000
87.000000 128.000000
98.000000 117.000000
112.000000 113.000000
126.000000 110.000000
137.000000 113.000000
191.000000 113.000000
206.000000 113.000000
220.000000 113.000000
235.000000 117.000000
249.000000 128.000000
163.000000 146.000000
163.000000 160.000000
159.000000 174.000000
155.000000 189.000000
141.000000 200.000000
148.000000 203.000000
155.000000 207.000000
166.000000 207.000000
173.000000 207.000000
105.000000 149.000000
116.000000 146.000000
126.000000 142.000000
137.000000 149.000000
126.000000 153.000000
116.000000 153.000000
191.000000 146.000000
202.000000 142.000000
217.000000 142.000000
224.000000 146.000000
217.000000 153.000000
202.000000 153.000000
126.000000 239.000000
134.000000 229.000000
144.000000 225.000000
152.000000 225.000000
159.000000 225.000000
170.000000 232.000000
177.000000 243.000000
170.000000 247.000000
159.000000 250.000000
152.000000 250.000000
141.000000 250.000000
134.000000 247.000000
126.000000 236.000000
144.000000 236.000000
152.000000 236.000000
159.000000 236.000000
177.000000 243.000000
159.000000 239.000000
152.000000 239.000000
144.000000 236.000000
}
