version: 1
n_points: 68
{
66.000000 161.000000
69.000000 186.000000
76.000000 211.000000
80.000000 233.000000
91.000000 254.000000
105.000000 272.000000
120.000000 280.000000
131.000000 287.000000
159.000000 294.000000
188.000000 290.000000
210.000000 283.000000
228.000000 272.000000
242.000000 254.000000
253.000000 233.000000
260.000000 207.000000
264.000000 186.000000
268.000000 157.000000
87.000000 128.000000
98.000000 117.000000
113.000000 110.000000
127.000000 110.000000
138.000000 114.000000
192.000000 114.000000
206.000000 114.000000
221.000000 110.000000
235.000000 117.000000
250.000000 128.000000
163.000000 146.000000
163.000000 161.000000
159.000000 175.000000
156.000000 189.000000
145.000000 200.000000
149.000000 204.000000
159.000000 207.000000
167.000000 204.000000
174.000000 204.000000
105.000000 150.000000
116.000000 142.000000
127.000000 142.000000
138.000000 150.000000
127.000000 153.000000
116.000000 153.000000
192.000000 146.000000
203.000000 142.000000
217.000000 142.000000
228.000000 146.000000
217.000000 153.000000
203.000000 150.000000
127.000000 236.000000
134.000000 229.000000
149.000000 222.000000
152.000000 225.000000
159.000000 225.000000
170.000000 233.000000
177.000000 243.000000
170.000000 247.000000
159.000000 251.000000
152.000000 251.000000
141.000000 251.000000
134.000000 243.000000
131.000000 236.000000
145.000000 233.000000
152.000000 233.000000
159.000000 236.000000
177.000000 243.000000
159.000000 236.000000
152.000000 236.000000
145.000000 236.000000
}
