version: 1
n_points: 68
{
66.000000 165.000000
70.000000 195.000000
77.000000 217.000000
84.000000 242.000000
95.000000 268.000000
114.000000 286.000000
128.000000 294.000000
146.000000 301.000000
176.000000 308.000000
205.000000 301.000000
220.000000 290.000000
231.000000 279.000000
245.000000 257.000000
253.000000 235.000000
256.000000 209.000000
264.000000 184.000000
264.000000 158.000000
84.000000 132.000000
95.000000 121.000000
110.000000 114.000000
124.000000 114.000000
135.000000 114.000000
190.000000 114.000000
201.000000 110.000000
216.000000 110.000000
231.000000 118.000000
245.000000 125.000000
165.000000 147.000000
165.000000 165.000000
161.000000 180.000000
161.000000 195.000000
150.000000 213.000000
157.000000 213.000000
165.000000 217.000000
176.000000 213.000000
183.000000 213.000000
103.000000 151.000000
114.000000 147.000000
124.000000 147.000000
139.000000 151.000000
128.000000 154.000000
114.000000 158.000000
190.000000 151.000000
201.000000 143.000000
216.000000 143.000000
223.000000 147.000000
216.000000 154.000000
201.000000 154.000000
143.000000 261.000000
150.000000 250.000000
161.000000 242.000000
168.000000 246.000000
176.000000 242.000000
187.000000 246.000000
198.000000 253.000000
190.000000 261.000000
179.000000 264.000000
168.000000 268.000000
161.000000 268.000000
150.000000 264.000000
143.000000 257.000000
161.000000 253.000000
168.000000 253.000000
176.000000 253.000000
194.000000 253.000000
179.000000 253.000000
168.000000 253.000000
161.000000 253.000000
}
