version: 1
n_points: 68
{
66.000000 166.000000
69.000000 192.000000
77.000000 218.000000
84.000000 240.000000
95.000000 266.000000
113.000000 284.000000
128.000000 295.000000
147.000000 302.000000
176.000000 310.000000
206.000000 299.000000
220.000000 288.000000
231.000000 277.000000
246.000000 258.000000
253.000000 232.000000
257.000000 210.000000
264.000000 185.000000
264.000000 155.000000
84.000000 133.000000
95.000000 118.000000
110.000000 115.000000
125.000000 115.000000
136.000000 115.000000
191.000000 115.000000
202.000000 111.000000
217.000000 111.000000
231.000000 115.000000
246.000000 126.000000
165.000000 148.000000
161.000000 162.000000
161.000000 181.000000
161.000000 196.000000
150.000000 214.000000
158.000000 214.000000
165.000000 214.000000
176.000000 214.000000
183.000000 210.000000
102.000000 151.000000
113.000000 148.000000
125.000000 148.000000
136.000000 151.000000
128.000000 155.000000
113.000000 155.000000
191.000000 148.000000
202.000000 144.000000
213.000000 144.000000
224.000000 148.000000
217.000000 151.000000
202.000000 151.000000
143.000000 258.000000
150.000000 247.000000
161.000000 240.000000
169.000000 240.000000
172.000000 240.000000
187.000000 243.000000
198.000000 254.000000
187.000000 262.000000
180.000000 269.000000
169.000000 269.000000
161.000000 269.000000
150.000000 266.000000
143.000000 258.000000
161.000000 251.000000
169.000000 251.000000
176.000000 251.000000
195.000000 254.000000
176.000000 254.000000
169.000000 258.000000
161.000000 254.000000
}
