version: 1
n_points: 68
{
62.000000 164.000000
70.000000 194.000000
77.000000 219.000000
84.000000 241.000000
95.000000 263.000000
110.000000 281.000000
124.000000 288.000000
143.000000 296.000000
176.000000 299.000000
201.000000 292.000000
216.000000 285.000000
230.000000 274.000000
245.000000 256.000000
252.000000 234.000000
259.000000 208.000000
263.000000 183.000000
267.000000 157.000000
81.000000 132.000000
92.000000 121.000000
110.000000 113.000000
121.000000 113.000000
135.000000 117.000000
190.000000 113.000000
201.000000 113.000000
216.000000 110.000000
230.000000 117.000000
245.000000 128.000000
165.000000 150.000000
161.000000 164.000000
161.000000 183.000000
161.000000 197.000000
150.000000 212.000000
157.000000 216.000000
165.000000 216.000000
172.000000 216.000000
179.000000 212.000000
103.000000 153.000000
114.000000 146.000000
124.000000 146.000000
135.000000 150.000000
124.000000 153.000000
114.000000 157.000000
190.000000 150.000000
201.000000 143.000000
216.000000 143.000000
223.000000 146.000000
216.000000 153.000000
201.000000 153.000000
139.000000 256.000000
146.000000 248.000000
161.000000 245.000000
168.000000 245.000000
172.000000 245.000000
187.000000 245.000000
201.000000 252.000000
187.000000 256.000000
179.000000 259.000000
168.000000 259.000000
157.000000 259.000000
150.000000 256.000000
143.000000 256.000000
157.000000 252.000000
168.000000 252.000000
176.000000 252.000000
197.000000 252.000000
176.000000 248.000000
168.000000 248.000000
157.000000 248.000000
}
