version: 1
n_points: 68
{
65.000000 166.000000
68.000000 192.000000
76.000000 218.000000
83.000000 240.000000
94.000000 266.000000
109.000000 280.000000
124.000000 292.000000
142.000000 299.000000
172.000000 306.000000
198.000000 299.000000
216.000000 288.000000
231.000000 277.000000
246.000000 258.000000
253.000000 232.000000
257.000000 207.000000
260.000000 184.000000
264.000000 155.000000
83.000000 133.000000
94.000000 122.000000
109.000000 114.000000
124.000000 114.000000
135.000000 114.000000
190.000000 114.000000
201.000000 114.000000
216.000000 111.000000
231.000000 118.000000
242.000000 125.000000
164.000000 148.000000
161.000000 166.000000
161.000000 181.000000
161.000000 196.000000
150.000000 210.000000
157.000000 214.000000
164.000000 214.000000
172.000000 214.000000
179.000000 210.000000
102.000000 151.000000
113.000000 148.000000
124.000000 148.000000
135.000000 151.000000
127.000000 155.000000
113.000000 155.000000
190.000000 148.000000
201.000000 144.000000
212.000000 144.000000
223.000000 148.000000
212.000000 155.000000
201.000000 151.000000
135.000000 251.000000
146.000000 247.000000
157.000000 244.000000
164.000000 244.000000
172.000000 244.000000
187.000000 244.000000
201.000000 247.000000
187.000000 255.000000
179.000000 258.000000
164.000000 258.000000
157.000000 258.000000
146.000000 255.000000
139.000000 251.000000
157.000000 251.000000
164.000000 251.000000
175.000000 251.000000
198.000000 247.000000
175.000000 247.000000
164.000000 247.000000
157.000000 247.000000
}
