version: 1
n_points: 68
{
65.000000 165.000000
68.000000 195.000000
76.000000 217.000000
83.000000 239.000000
94.000000 265.000000
109.000000 283.000000
124.000000 291.000000
142.000000 298.000000
172.000000 302.000000
201.000000 294.000000
216.000000 287.000000
231.000000 276.000000
245.000000 257.000000
253.000000 232.000000
257.000000 209.000000
264.000000 184.000000
264.000000 158.000000
83.000000 132.000000
94.000000 121.000000
109.000000 114.000000
124.000000 114.000000
135.000000 117.000000
190.000000 114.000000
201.000000 114.000000
216.000000 114.000000
231.000000 117.000000
245.000000 128.000000
164.000000 147.000000
161.000000 165.000000
161.000000 180.000000
161.000000 195.000000
150.000000 213.000000
157.000000 213.000000
164.000000 217.000000
172.000000 213.000000
179.000000 213.000000
102.000000 150.000000
113.000000 147.000000
124.000000 147.000000
138.000000 150.000000
127.000000 154.000000
113.000000 154.000000
190.000000 150.000000
201.000000 143.000000
216.000000 143.000000
223.000000 147.000000
216.000000 154.000000
201.000000 154.000000
138.000000 254.000000
146.000000 246.000000
161.000000 243.000000
168.000000 243.000000
172.000000 243.000000
186.000000 243.000000
201.000000 250.000000
186.000000 254.000000
179.000000 257.000000
168.000000 257.000000
157.000000 257.000000
150.000000 257.000000
138.000000 254.000000
157.000000 250.000000
168.000000 250.000000
175.000000 250.000000
198.000000 250.000000
175.000000 246.000000
168.000000 250.000000
157.000000 250.000000
}
