version: 1
n_points: 68
{
61.000000 163.000000
65.000000 189.000000
72.000000 214.000000
80.000000 236.000000
87.000000 258.000000
102.000000 277.000000
120.000000 284.000000
139.000000 288.000000
172.000000 292.000000
197.000000 284.000000
216.000000 277.000000
231.000000 269.000000
245.000000 251.000000
256.000000 225.000000
260.000000 203.000000
267.000000 181.000000
267.000000 152.000000
83.000000 130.000000
95.000000 119.000000
109.000000 111.000000
124.000000 111.000000
135.000000 115.000000
190.000000 115.000000
201.000000 111.000000
216.000000 111.000000
231.000000 115.000000
245.000000 126.000000
164.000000 144.000000
161.000000 163.000000
161.000000 178.000000
161.000000 192.000000
150.000000 207.000000
157.000000 211.000000
164.000000 211.000000
175.000000 211.000000
183.000000 207.000000
102.000000 148.000000
113.000000 144.000000
124.000000 144.000000
135.000000 148.000000
128.000000 152.000000
113.000000 155.000000
190.000000 148.000000
201.000000 141.000000
216.000000 141.000000
227.000000 144.000000
216.000000 152.000000
201.000000 152.000000
131.000000 244.000000
146.000000 240.000000
161.000000 236.000000
168.000000 236.000000
175.000000 236.000000
194.000000 236.000000
209.000000 240.000000
194.000000 244.000000
179.000000 247.000000
168.000000 251.000000
157.000000 251.000000
146.000000 247.000000
135.000000 244.000000
157.000000 244.000000
168.000000 244.000000
179.000000 244.000000
205.000000 236.000000
179.000000 240.000000
168.000000 240.000000
157.000000 240.000000
}
