version: 1
n_points: 68
{
62.000000 162.000000
66.000000 188.000000
73.000000 213.000000
77.000000 235.000000
88.000000 257.000000
103.000000 272.000000
117.000000 283.000000
139.000000 287.000000
169.000000 291.000000
198.000000 283.000000
217.000000 280.000000
231.000000 269.000000
246.000000 250.000000
257.000000 228.000000
261.000000 206.000000
268.000000 180.000000
272.000000 155.000000
84.000000 129.000000
95.000000 118.000000
110.000000 111.000000
121.000000 111.000000
136.000000 114.000000
191.000000 111.000000
202.000000 111.000000
217.000000 111.000000
235.000000 114.000000
246.000000 125.000000
165.000000 144.000000
161.000000 162.000000
161.000000 177.000000
161.000000 191.000000
150.000000 206.000000
158.000000 206.000000
165.000000 210.000000
176.000000 206.000000
184.000000 206.000000
103.000000 147.000000
114.000000 144.000000
125.000000 144.000000
136.000000 147.000000
125.000000 151.000000
114.000000 151.000000
191.000000 144.000000
202.000000 140.000000
217.000000 140.000000
228.000000 144.000000
217.000000 151.000000
202.000000 147.000000
132.000000 243.000000
143.000000 235.000000
161.000000 232.000000
169.000000 235.000000
176.000000 232.000000
191.000000 235.000000
209.000000 235.000000
191.000000 243.000000
180.000000 246.000000
169.000000 246.000000
158.000000 246.000000
147.000000 246.000000
136.000000 243.000000
158.000000 243.000000
169.000000 239.000000
180.000000 239.000000
206.000000 235.000000
180.000000 239.000000
169.000000 239.000000
158.000000 239.000000
}
