version: 1
n_points: 68
{
62.000000 162.000000
65.000000 188.000000
73.000000 213.000000
80.000000 235.000000
88.000000 257.000000
106.000000 276.000000
121.000000 283.000000
139.000000 287.000000
172.000000 290.000000
201.000000 287.000000
216.000000 279.000000
231.000000 268.000000
245.000000 250.000000
256.000000 228.000000
260.000000 206.000000
267.000000 180.000000
267.000000 155.000000
84.000000 129.000000
95.000000 118.000000
110.000000 111.000000
124.000000 111.000000
135.000000 114.000000
190.000000 114.000000
205.000000 111.000000
216.000000 111.000000
234.000000 114.000000
245.000000 125.000000
165.000000 144.000000
165.000000 162.000000
165.000000 177.000000
165.000000 191.000000
150.000000 206.000000
157.000000 210.000000
165.000000 210.000000
176.000000 210.000000
183.000000 206.000000
102.000000 147.000000
113.000000 144.000000
124.000000 144.000000
139.000000 147.000000
128.000000 151.000000
113.000000 155.000000
190.000000 147.000000
205.000000 140.000000
216.000000 140.000000
227.000000 144.000000
216.000000 151.000000
201.000000 151.000000
132.000000 243.000000
146.000000 239.000000
161.000000 235.000000
168.000000 235.000000
176.000000 235.000000
194.000000 235.000000
209.000000 239.000000
194.000000 243.000000
179.000000 246.000000
168.000000 250.000000
157.000000 250.000000
146.000000 246.000000
135.000000 243.000000
157.000000 243.000000
168.000000 243.000000
179.000000 243.000000
205.000000 239.000000
179.000000 239.000000
168.000000 239.000000
157.000000 239.000000
}
