version: 1
n_points: 68
{
62.000000 163.000000
65.000000 189.000000
73.000000 215.000000
80.000000 237.000000
87.000000 259.000000
106.000000 273.000000
121.000000 281.000000
143.000000 288.000000
172.000000 292.000000
198.000000 284.000000
216.000000 277.000000
231.000000 266.000000
245.000000 251.000000
256.000000 229.000000
260.000000 207.000000
267.000000 182.000000
271.000000 152.000000
84.000000 130.000000
95.000000 119.000000
110.000000 112.000000
124.000000 112.000000
135.000000 116.000000
190.000000 112.000000
205.000000 112.000000
216.000000 112.000000
234.000000 116.000000
245.000000 127.000000
165.000000 145.000000
165.000000 163.000000
161.000000 178.000000
165.000000 193.000000
150.000000 207.000000
157.000000 207.000000
165.000000 211.000000
176.000000 207.000000
183.000000 207.000000
102.000000 149.000000
113.000000 145.000000
124.000000 145.000000
139.000000 149.000000
128.000000 152.000000
113.000000 152.000000
190.000000 145.000000
205.000000 141.000000
216.000000 141.000000
227.000000 145.000000
216.000000 149.000000
201.000000 149.000000
132.000000 244.000000
146.000000 237.000000
161.000000 233.000000
168.000000 237.000000
176.000000 233.000000
194.000000 237.000000
209.000000 237.000000
194.000000 244.000000
179.000000 248.000000
168.000000 251.000000
157.000000 251.000000
146.000000 248.000000
135.000000 244.000000
157.000000 244.000000
168.000000 240.000000
179.000000 240.000000
205.000000 237.000000
179.000000 240.000000
168.000000 240.000000
157.000000 240.000000
}
