version: 1
n_points: 68
{
62.000000 162.000000
66.000000 187.000000
70.000000 209.000000
77.000000 235.000000
88.000000 257.000000
103.000000 275.000000
117.000000 286.000000
136.000000 290.000000
169.000000 297.000000
198.000000 290.000000
216.000000 283.000000
231.000000 272.000000
246.000000 253.000000
257.000000 228.000000
260.000000 206.000000
264.000000 180.000000
268.000000 154.000000
84.000000 129.000000
95.000000 118.000000
110.000000 110.000000
125.000000 110.000000
136.000000 114.000000
191.000000 114.000000
202.000000 110.000000
216.000000 110.000000
235.000000 114.000000
246.000000 125.000000
165.000000 143.000000
161.000000 162.000000
161.000000 176.000000
161.000000 191.000000
147.000000 206.000000
154.000000 206.000000
165.000000 209.000000
176.000000 206.000000
183.000000 206.000000
106.000000 147.000000
114.000000 143.000000
125.000000 143.000000
136.000000 147.000000
128.000000 151.000000
114.000000 151.000000
191.000000 147.000000
202.000000 143.000000
216.000000 143.000000
224.000000 147.000000
216.000000 151.000000
202.000000 147.000000
128.000000 239.000000
143.000000 235.000000
158.000000 231.000000
165.000000 235.000000
176.000000 231.000000
191.000000 235.000000
209.000000 235.000000
191.000000 242.000000
180.000000 246.000000
165.000000 246.000000
154.000000 246.000000
143.000000 242.000000
132.000000 239.000000
154.000000 239.000000
165.000000 239.000000
180.000000 239.000000
205.000000 235.000000
176.000000 235.000000
165.000000 235.000000
154.000000 235.000000
}
