version: 1
n_points: 68
{
64.000000 161.000000
68.000000 187.000000
71.000000 212.000000
79.000000 234.000000
86.000000 260.000000
101.000000 278.000000
119.000000 286.000000
137.000000 293.000000
167.000000 300.000000
200.000000 293.000000
218.000000 286.000000
233.000000 275.000000
247.000000 253.000000
255.000000 227.000000
258.000000 205.000000
266.000000 179.000000
269.000000 150.000000
82.000000 128.000000
93.000000 117.000000
108.000000 113.000000
123.000000 113.000000
137.000000 113.000000
192.000000 113.000000
203.000000 110.000000
218.000000 110.000000
233.000000 113.000000
247.000000 124.000000
163.000000 143.000000
163.000000 161.000000
163.000000 176.000000
163.000000 190.000000
148.000000 205.000000
156.000000 209.000000
167.000000 209.000000
174.000000 209.000000
185.000000 205.000000
104.000000 150.000000
115.000000 146.000000
126.000000 146.000000
137.000000 150.000000
126.000000 154.000000
115.000000 154.000000
192.000000 146.000000
203.000000 146.000000
214.000000 146.000000
225.000000 146.000000
214.000000 150.000000
203.000000 150.000000
130.000000 242.000000
145.000000 238.000000
159.000000 234.000000
167.000000 234.000000
174.000000 234.000000
192.000000 234.000000
211.000000 238.000000
192.000000 242.000000
181.000000 245.000000
167.000000 249.000000
156.000000 249.000000
145.000000 245.000000
130.000000 238.000000
156.000000 242.000000
167.000000 242.000000
178.000000 242.000000
207.000000 238.000000
178.000000 238.000000
167.000000 238.000000
156.000000 238.000000
}
