version: 1
n_points: 68
{
64.000000 161.000000
67.000000 187.000000
71.000000 212.000000
78.000000 234.000000
86.000000 259.000000
100.000000 277.000000
118.000000 288.000000
136.000000 292.000000
165.000000 299.000000
198.000000 296.000000
216.000000 285.000000
231.000000 274.000000
245.000000 256.000000
256.000000 230.000000
260.000000 205.000000
264.000000 179.000000
267.000000 154.000000
82.000000 128.000000
93.000000 118.000000
107.000000 114.000000
122.000000 110.000000
136.000000 114.000000
191.000000 114.000000
202.000000 110.000000
216.000000 110.000000
231.000000 114.000000
245.000000 125.000000
162.000000 143.000000
162.000000 161.000000
162.000000 176.000000
162.000000 190.000000
147.000000 205.000000
155.000000 208.000000
165.000000 208.000000
173.000000 208.000000
180.000000 205.000000
104.000000 150.000000
115.000000 143.000000
126.000000 143.000000
136.000000 147.000000
126.000000 150.000000
115.000000 154.000000
191.000000 147.000000
202.000000 143.000000
216.000000 143.000000
224.000000 147.000000
213.000000 150.000000
202.000000 150.000000
126.000000 237.000000
140.000000 234.000000
158.000000 230.000000
165.000000 234.000000
173.000000 234.000000
191.000000 234.000000
209.000000 237.000000
191.000000 241.000000
176.000000 245.000000
165.000000 248.000000
155.000000 248.000000
144.000000 245.000000
129.000000 237.000000
155.000000 241.000000
165.000000 241.000000
176.000000 241.000000
205.000000 237.000000
176.000000 237.000000
165.000000 237.000000
155.000000 237.000000
}
