version: 1
n_points: 68
{
63.000000 162.000000
67.000000 187.000000
71.000000 213.000000
78.000000 235.000000
89.000000 257.000000
104.000000 275.000000
118.000000 286.000000
137.000000 290.000000
166.000000 297.000000
199.000000 290.000000
217.000000 283.000000
232.000000 272.000000
247.000000 253.000000
258.000000 228.000000
261.000000 202.000000
265.000000 180.000000
269.000000 151.000000
82.000000 129.000000
93.000000 118.000000
107.000000 110.000000
122.000000 110.000000
137.000000 114.000000
192.000000 114.000000
203.000000 110.000000
217.000000 110.000000
232.000000 114.000000
247.000000 125.000000
162.000000 143.000000
162.000000 162.000000
162.000000 176.000000
162.000000 191.000000
148.000000 206.000000
155.000000 206.000000
166.000000 209.000000
173.000000 206.000000
181.000000 206.000000
104.000000 151.000000
115.000000 147.000000
126.000000 143.000000
137.000000 147.000000
126.000000 151.000000
115.000000 154.000000
192.000000 147.000000
203.000000 143.000000
214.000000 143.000000
225.000000 147.000000
214.000000 151.000000
203.000000 151.000000
129.000000 239.000000
144.000000 235.000000
159.000000 231.000000
166.000000 235.000000
173.000000 231.000000
192.000000 235.000000
210.000000 235.000000
192.000000 242.000000
181.000000 246.000000
166.000000 246.000000
155.000000 246.000000
144.000000 242.000000
133.000000 239.000000
155.000000 242.000000
166.000000 239.000000
181.000000 239.000000
206.000000 235.000000
177.000000 239.000000
166.000000 239.000000
155.000000 239.000000
}
