version: 1
n_points: 68
{
62.000000 163.000000
65.000000 187.000000
72.000000 212.000000
79.000000 233.000000
86.000000 250.000000
104.000000 264.000000
118.000000 268.000000
135.000000 268.000000
167.000000 271.000000
198.000000 268.000000
216.000000 268.000000
230.000000 261.000000
244.000000 247.000000
254.000000 226.000000
258.000000 205.000000
261.000000 180.000000
265.000000 156.000000
83.000000 128.000000
93.000000 117.000000
111.000000 114.000000
125.000000 114.000000
135.000000 117.000000
188.000000 114.000000
202.000000 110.000000
216.000000 110.000000
230.000000 117.000000
244.000000 124.000000
163.000000 138.000000
163.000000 156.000000
163.000000 170.000000
163.000000 184.000000
149.000000 194.000000
156.000000 194.000000
167.000000 194.000000
174.000000 194.000000
181.000000 191.000000
104.000000 145.000000
114.000000 142.000000
125.000000 138.000000
139.000000 145.000000
128.000000 149.000000
114.000000 149.000000
191.000000 142.000000
202.000000 138.000000
212.000000 138.000000
223.000000 142.000000
212.000000 145.000000
202.000000 145.000000
135.000000 222.000000
146.000000 212.000000
160.000000 208.000000
167.000000 208.000000
174.000000 208.000000
188.000000 215.000000
198.000000 222.000000
188.000000 222.000000
177.000000 226.000000
167.000000 226.000000
156.000000 226.000000
149.000000 222.000000
139.000000 222.000000
156.000000 219.000000
167.000000 215.000000
177.000000 215.000000
195.000000 219.000000
174.000000 215.000000
167.000000 215.000000
156.000000 215.000000
}
