version: 1
n_points: 68
{
64.000000 166.000000
68.000000 190.000000
71.000000 211.000000
78.000000 232.000000
89.000000 250.000000
103.000000 264.000000
117.000000 267.000000
134.000000 267.000000
170.000000 271.000000
198.000000 267.000000
215.000000 267.000000
233.000000 260.000000
247.000000 246.000000
254.000000 225.000000
257.000000 204.000000
261.000000 180.000000
264.000000 155.000000
85.000000 130.000000
96.000000 120.000000
110.000000 116.000000
124.000000 116.000000
138.000000 120.000000
187.000000 116.000000
201.000000 113.000000
215.000000 113.000000
229.000000 116.000000
243.000000 127.000000
163.000000 141.000000
163.000000 155.000000
163.000000 169.000000
163.000000 183.000000
148.000000 194.000000
155.000000 194.000000
166.000000 194.000000
177.000000 194.000000
184.000000 190.000000
103.000000 148.000000
113.000000 141.000000
127.000000 141.000000
138.000000 145.000000
127.000000 148.000000
113.000000 148.000000
191.000000 145.000000
201.000000 137.000000
212.000000 141.000000
222.000000 145.000000
212.000000 148.000000
201.000000 148.000000
138.000000 222.000000
148.000000 211.000000
159.000000 204.000000
166.000000 208.000000
173.000000 204.000000
187.000000 211.000000
198.000000 222.000000
187.000000 222.000000
177.000000 225.000000
170.000000 225.000000
159.000000 225.000000
148.000000 225.000000
141.000000 222.000000
159.000000 215.000000
166.000000 215.000000
177.000000 215.000000
194.000000 218.000000
177.000000 215.000000
166.000000 215.000000
159.000000 215.000000
}
