version: 1
n_points: 68
{
63.000000 165.000000
66.000000 190.000000
74.000000 215.000000
81.000000 237.000000
88.000000 259.000000
102.000000 277.000000
117.000000 284.000000
135.000000 287.000000
167.000000 294.000000
200.000000 287.000000
218.000000 280.000000
232.000000 273.000000
246.000000 255.000000
254.000000 230.000000
257.000000 208.000000
264.000000 183.000000
264.000000 154.000000
81.000000 129.000000
92.000000 118.000000
110.000000 111.000000
124.000000 111.000000
138.000000 111.000000
189.000000 111.000000
203.000000 107.000000
218.000000 107.000000
232.000000 115.000000
246.000000 125.000000
164.000000 140.000000
164.000000 158.000000
164.000000 172.000000
164.000000 183.000000
149.000000 201.000000
156.000000 201.000000
164.000000 201.000000
174.000000 201.000000
182.000000 201.000000
102.000000 147.000000
113.000000 143.000000
124.000000 140.000000
135.000000 147.000000
128.000000 151.000000
113.000000 151.000000
189.000000 143.000000
203.000000 140.000000
214.000000 140.000000
225.000000 143.000000
214.000000 147.000000
200.000000 147.000000
131.000000 237.000000
142.000000 226.000000
160.000000 219.000000
167.000000 223.000000
174.000000 219.000000
192.000000 226.000000
203.000000 237.000000
189.000000 241.000000
178.000000 244.000000
167.000000 244.000000
156.000000 244.000000
146.000000 241.000000
135.000000 237.000000
156.000000 230.000000
167.000000 230.000000
178.000000 230.000000
203.000000 233.000000
178.000000 230.000000
167.000000 233.000000
156.000000 233.000000
}
