version: 1
n_points: 68
{
64.000000 165.000000
67.000000 190.000000
71.000000 215.000000
78.000000 236.000000
89.000000 261.000000
103.000000 275.000000
117.000000 286.000000
135.000000 290.000000
167.000000 293.000000
196.000000 290.000000
217.000000 282.000000
231.000000 272.000000
246.000000 254.000000
253.000000 229.000000
256.000000 208.000000
263.000000 183.000000
263.000000 154.000000
81.000000 129.000000
92.000000 118.000000
110.000000 111.000000
124.000000 111.000000
139.000000 111.000000
189.000000 111.000000
203.000000 111.000000
217.000000 108.000000
231.000000 115.000000
246.000000 125.000000
164.000000 140.000000
164.000000 158.000000
164.000000 172.000000
164.000000 186.000000
149.000000 200.000000
156.000000 200.000000
164.000000 200.000000
174.000000 200.000000
181.000000 200.000000
103.000000 147.000000
114.000000 143.000000
124.000000 143.000000
135.000000 147.000000
124.000000 150.000000
114.000000 150.000000
189.000000 143.000000
203.000000 140.000000
213.000000 140.000000
224.000000 143.000000
213.000000 147.000000
199.000000 147.000000
131.000000 236.000000
142.000000 225.000000
156.000000 218.000000
164.000000 222.000000
174.000000 218.000000
189.000000 225.000000
203.000000 236.000000
189.000000 240.000000
178.000000 243.000000
167.000000 243.000000
156.000000 243.000000
146.000000 243.000000
135.000000 236.000000
156.000000 229.000000
164.000000 229.000000
178.000000 229.000000
199.000000 233.000000
174.000000 229.000000
167.000000 233.000000
156.000000 233.000000
}
