version: 1
n_points: 68
{
65.000000 165.000000
68.000000 193.000000
72.000000 214.000000
79.000000 235.000000
89.000000 260.000000
104.000000 274.000000
118.000000 281.000000
135.000000 285.000000
167.000000 285.000000
199.000000 281.000000
217.000000 277.000000
231.000000 270.000000
245.000000 253.000000
255.000000 228.000000
259.000000 207.000000
262.000000 182.000000
266.000000 154.000000
82.000000 129.000000
93.000000 119.000000
111.000000 115.000000
125.000000 112.000000
135.000000 115.000000
188.000000 115.000000
202.000000 112.000000
217.000000 112.000000
234.000000 115.000000
245.000000 126.000000
164.000000 140.000000
164.000000 157.000000
164.000000 172.000000
164.000000 186.000000
149.000000 196.000000
157.000000 200.000000
164.000000 200.000000
174.000000 200.000000
181.000000 196.000000
104.000000 150.000000
111.000000 143.000000
125.000000 143.000000
135.000000 147.000000
125.000000 150.000000
114.000000 154.000000
192.000000 143.000000
202.000000 140.000000
213.000000 140.000000
224.000000 143.000000
213.000000 150.000000
202.000000 147.000000
132.000000 235.000000
142.000000 225.000000
157.000000 217.000000
167.000000 217.000000
174.000000 217.000000
188.000000 225.000000
202.000000 232.000000
188.000000 235.000000
178.000000 239.000000
167.000000 239.000000
157.000000 239.000000
146.000000 235.000000
135.000000 235.000000
157.000000 228.000000
167.000000 225.000000
178.000000 228.000000
199.000000 232.000000
178.000000 228.000000
167.000000 228.000000
157.000000 228.000000
}
