version: 1
n_points: 68
{
65.000000 165.000000
68.000000 189.000000
72.000000 210.000000
79.000000 231.000000
89.000000 252.000000
103.000000 266.000000
117.000000 266.000000
135.000000 270.000000
166.000000 273.000000
194.000000 270.000000
215.000000 266.000000
229.000000 263.000000
243.000000 245.000000
254.000000 224.000000
257.000000 203.000000
261.000000 182.000000
264.000000 154.000000
86.000000 130.000000
96.000000 119.000000
110.000000 116.000000
124.000000 116.000000
138.000000 119.000000
187.000000 116.000000
201.000000 112.000000
215.000000 112.000000
229.000000 116.000000
243.000000 126.000000
163.000000 140.000000
163.000000 158.000000
163.000000 172.000000
163.000000 182.000000
149.000000 193.000000
156.000000 193.000000
166.000000 196.000000
173.000000 193.000000
180.000000 193.000000
103.000000 147.000000
114.000000 140.000000
124.000000 140.000000
138.000000 144.000000
128.000000 147.000000
114.000000 151.000000
191.000000 144.000000
201.000000 140.000000
212.000000 140.000000
222.000000 144.000000
212.000000 147.000000
201.000000 147.000000
135.000000 224.000000
145.000000 214.000000
159.000000 207.000000
166.000000 207.000000
173.000000 207.000000
187.000000 214.000000
194.000000 221.000000
184.000000 224.000000
177.000000 228.000000
166.000000 228.000000
156.000000 228.000000
149.000000 224.000000
138.000000 221.000000
156.000000 217.000000
166.000000 214.000000
173.000000 214.000000
194.000000 221.000000
173.000000 214.000000
166.000000 214.000000
156.000000 214.000000
}
