version: 1
n_points: 68
{
64.000000 167.000000
68.000000 195.000000
75.000000 216.000000
82.000000 241.000000
92.000000 262.000000
106.000000 276.000000
124.000000 283.000000
138.000000 286.000000
169.000000 286.000000
201.000000 279.000000
218.000000 276.000000
232.000000 269.000000
246.000000 251.000000
253.000000 227.000000
257.000000 206.000000
260.000000 181.000000
264.000000 157.000000
82.000000 132.000000
96.000000 122.000000
110.000000 115.000000
124.000000 111.000000
138.000000 115.000000
187.000000 115.000000
201.000000 111.000000
215.000000 111.000000
232.000000 115.000000
243.000000 125.000000
162.000000 143.000000
162.000000 164.000000
162.000000 174.000000
162.000000 188.000000
152.000000 202.000000
159.000000 202.000000
166.000000 202.000000
176.000000 199.000000
183.000000 199.000000
103.000000 150.000000
113.000000 143.000000
124.000000 143.000000
138.000000 150.000000
127.000000 153.000000
113.000000 153.000000
190.000000 146.000000
201.000000 139.000000
215.000000 143.000000
225.000000 146.000000
215.000000 150.000000
201.000000 150.000000
141.000000 234.000000
148.000000 223.000000
159.000000 213.000000
166.000000 213.000000
173.000000 213.000000
187.000000 220.000000
197.000000 230.000000
187.000000 237.000000
176.000000 244.000000
169.000000 244.000000
159.000000 244.000000
148.000000 241.000000
141.000000 234.000000
159.000000 223.000000
166.000000 223.000000
176.000000 223.000000
194.000000 230.000000
176.000000 230.000000
166.000000 230.000000
159.000000 234.000000
}
