version: 1
n_points: 68
{
64.000000 168.000000
68.000000 193.000000
75.000000 218.000000
82.000000 239.000000
92.000000 260.000000
106.000000 277.000000
124.000000 284.000000
141.000000 291.000000
173.000000 291.000000
201.000000 284.000000
219.000000 277.000000
233.000000 267.000000
247.000000 249.000000
254.000000 228.000000
257.000000 207.000000
261.000000 182.000000
264.000000 154.000000
82.000000 130.000000
96.000000 119.000000
110.000000 112.000000
124.000000 112.000000
138.000000 116.000000
190.000000 116.000000
201.000000 112.000000
215.000000 112.000000
233.000000 116.000000
243.000000 126.000000
162.000000 144.000000
166.000000 161.000000
162.000000 175.000000
162.000000 189.000000
152.000000 203.000000
159.000000 203.000000
166.000000 203.000000
176.000000 200.000000
183.000000 200.000000
103.000000 151.000000
113.000000 144.000000
124.000000 144.000000
138.000000 147.000000
127.000000 151.000000
113.000000 154.000000
190.000000 147.000000
201.000000 140.000000
215.000000 140.000000
226.000000 144.000000
215.000000 151.000000
201.000000 151.000000
141.000000 239.000000
148.000000 225.000000
159.000000 218.000000
166.000000 218.000000
173.000000 214.000000
187.000000 225.000000
194.000000 235.000000
187.000000 242.000000
176.000000 249.000000
169.000000 249.000000
159.000000 249.000000
152.000000 246.000000
141.000000 239.000000
159.000000 228.000000
166.000000 225.000000
176.000000 228.000000
194.000000 235.000000
176.000000 235.000000
166.000000 235.000000
159.000000 235.000000
}
