version: 1
n_points: 68
{
64.000000 165.000000
67.000000 189.000000
71.000000 214.000000
78.000000 235.000000
88.000000 256.000000
106.000000 270.000000
120.000000 273.000000
137.000000 277.000000
169.000000 280.000000
197.000000 273.000000
218.000000 270.000000
232.000000 263.000000
246.000000 249.000000
253.000000 224.000000
257.000000 203.000000
260.000000 182.000000
264.000000 154.000000
85.000000 130.000000
95.000000 123.000000
109.000000 116.000000
123.000000 116.000000
137.000000 119.000000
186.000000 119.000000
200.000000 116.000000
214.000000 116.000000
228.000000 119.000000
243.000000 126.000000
162.000000 144.000000
162.000000 158.000000
162.000000 172.000000
162.000000 186.000000
148.000000 196.000000
155.000000 196.000000
165.000000 196.000000
176.000000 196.000000
183.000000 193.000000
106.000000 147.000000
113.000000 144.000000
127.000000 144.000000
137.000000 147.000000
127.000000 151.000000
116.000000 151.000000
190.000000 144.000000
200.000000 140.000000
211.000000 140.000000
221.000000 144.000000
211.000000 147.000000
200.000000 147.000000
137.000000 224.000000
144.000000 214.000000
158.000000 207.000000
165.000000 207.000000
172.000000 207.000000
186.000000 214.000000
197.000000 224.000000
186.000000 228.000000
176.000000 231.000000
165.000000 235.000000
155.000000 235.000000
148.000000 231.000000
137.000000 224.000000
158.000000 217.000000
165.000000 214.000000
176.000000 217.000000
193.000000 221.000000
176.000000 221.000000
165.000000 221.000000
158.000000 221.000000
}
