version: 1
n_points: 68
{
61.000000 166.000000
68.000000 195.000000
76.000000 217.000000
83.000000 242.000000
94.000000 264.000000
112.000000 282.000000
127.000000 293.000000
145.000000 300.000000
174.000000 308.000000
203.000000 297.000000
217.000000 286.000000
232.000000 275.000000
247.000000 253.000000
254.000000 231.000000
257.000000 210.000000
261.000000 184.000000
265.000000 155.000000
83.000000 130.000000
94.000000 119.000000
108.000000 111.000000
123.000000 111.000000
137.000000 115.000000
188.000000 115.000000
203.000000 111.000000
217.000000 111.000000
232.000000 115.000000
247.000000 126.000000
163.000000 144.000000
163.000000 162.000000
163.000000 177.000000
163.000000 191.000000
152.000000 210.000000
156.000000 210.000000
167.000000 210.000000
174.000000 210.000000
181.000000 206.000000
105.000000 151.000000
112.000000 144.000000
127.000000 144.000000
137.000000 148.000000
127.000000 151.000000
112.000000 155.000000
192.000000 148.000000
203.000000 140.000000
214.000000 140.000000
225.000000 148.000000
214.000000 151.000000
203.000000 151.000000
145.000000 253.000000
152.000000 242.000000
159.000000 231.000000
167.000000 231.000000
174.000000 231.000000
185.000000 239.000000
196.000000 250.000000
188.000000 257.000000
177.000000 264.000000
170.000000 268.000000
159.000000 268.000000
152.000000 260.000000
145.000000 253.000000
159.000000 246.000000
167.000000 242.000000
174.000000 242.000000
192.000000 250.000000
174.000000 250.000000
167.000000 253.000000
159.000000 253.000000
}
