version: 1
n_points: 68
{
62.000000 168.000000
69.000000 193.000000
76.000000 218.000000
83.000000 240.000000
94.000000 265.000000
109.000000 283.000000
123.000000 291.000000
141.000000 298.000000
170.000000 305.000000
199.000000 298.000000
217.000000 287.000000
232.000000 276.000000
243.000000 258.000000
253.000000 233.000000
257.000000 207.000000
261.000000 182.000000
264.000000 157.000000
83.000000 131.000000
94.000000 121.000000
109.000000 113.000000
123.000000 113.000000
138.000000 113.000000
188.000000 113.000000
203.000000 110.000000
217.000000 110.000000
232.000000 117.000000
246.000000 124.000000
163.000000 142.000000
163.000000 160.000000
163.000000 175.000000
163.000000 189.000000
149.000000 204.000000
156.000000 207.000000
163.000000 207.000000
174.000000 207.000000
181.000000 204.000000
101.000000 149.000000
112.000000 146.000000
123.000000 142.000000
138.000000 149.000000
127.000000 153.000000
112.000000 153.000000
192.000000 146.000000
203.000000 142.000000
214.000000 142.000000
225.000000 146.000000
214.000000 149.000000
199.000000 149.000000
138.000000 247.000000
145.000000 236.000000
159.000000 229.000000
167.000000 229.000000
174.000000 229.000000
188.000000 236.000000
199.000000 247.000000
188.000000 251.000000
177.000000 258.000000
167.000000 258.000000
156.000000 258.000000
149.000000 254.000000
141.000000 247.000000
156.000000 240.000000
167.000000 240.000000
174.000000 240.000000
196.000000 247.000000
174.000000 244.000000
167.000000 247.000000
156.000000 247.000000
}
