version: 1
n_points: 68
{
60.000000 159.000000
64.000000 186.000000
68.000000 209.000000
75.000000 232.000000
83.000000 259.000000
98.000000 278.000000
114.000000 293.000000
137.000000 308.000000
171.000000 316.000000
201.000000 304.000000
217.000000 289.000000
232.000000 274.000000
247.000000 251.000000
255.000000 224.000000
255.000000 201.000000
259.000000 178.000000
263.000000 156.000000
83.000000 133.000000
95.000000 125.000000
110.000000 121.000000
121.000000 121.000000
137.000000 125.000000
186.000000 121.000000
198.000000 117.000000
213.000000 117.000000
228.000000 121.000000
240.000000 129.000000
159.000000 144.000000
159.000000 159.000000
159.000000 171.000000
159.000000 186.000000
144.000000 198.000000
152.000000 198.000000
163.000000 201.000000
175.000000 198.000000
182.000000 198.000000
102.000000 148.000000
114.000000 144.000000
125.000000 144.000000
133.000000 148.000000
125.000000 152.000000
114.000000 152.000000
186.000000 144.000000
198.000000 140.000000
209.000000 144.000000
221.000000 144.000000
213.000000 148.000000
198.000000 148.000000
125.000000 243.000000
137.000000 224.000000
156.000000 217.000000
163.000000 217.000000
175.000000 217.000000
194.000000 224.000000
209.000000 240.000000
194.000000 270.000000
182.000000 282.000000
167.000000 285.000000
152.000000 282.000000
140.000000 270.000000
129.000000 243.000000
152.000000 228.000000
163.000000 224.000000
179.000000 224.000000
205.000000 240.000000
179.000000 270.000000
167.000000 270.000000
152.000000 270.000000
}
