version: 1
n_points: 68
{
60.000000 160.000000
64.000000 187.000000
72.000000 210.000000
75.000000 229.000000
83.000000 256.000000
98.000000 271.000000
114.000000 282.000000
137.000000 298.000000
171.000000 305.000000
198.000000 298.000000
217.000000 282.000000
232.000000 271.000000
247.000000 252.000000
251.000000 225.000000
255.000000 202.000000
263.000000 179.000000
263.000000 152.000000
83.000000 130.000000
94.000000 122.000000
110.000000 118.000000
121.000000 118.000000
137.000000 122.000000
186.000000 118.000000
198.000000 118.000000
213.000000 114.000000
228.000000 118.000000
240.000000 126.000000
159.000000 141.000000
159.000000 156.000000
159.000000 172.000000
159.000000 183.000000
144.000000 194.000000
152.000000 198.000000
163.000000 198.000000
175.000000 198.000000
182.000000 194.000000
102.000000 149.000000
114.000000 145.000000
125.000000 141.000000
133.000000 145.000000
125.000000 149.000000
114.000000 149.000000
186.000000 145.000000
198.000000 141.000000
213.000000 141.000000
221.000000 145.000000
213.000000 149.000000
198.000000 149.000000
129.000000 244.000000
137.000000 225.000000
156.000000 214.000000
163.000000 217.000000
175.000000 214.000000
194.000000 221.000000
205.000000 240.000000
194.000000 267.000000
182.000000 278.000000
167.000000 282.000000
152.000000 278.000000
140.000000 267.000000
129.000000 244.000000
152.000000 225.000000
163.000000 221.000000
179.000000 225.000000
205.000000 240.000000
179.000000 267.000000
167.000000 271.000000
152.000000 267.000000
}
