version: 1
n_points: 68
{
64.000000 159.000000
64.000000 186.000000
71.000000 209.000000
75.000000 232.000000
83.000000 255.000000
98.000000 278.000000
113.000000 290.000000
136.000000 305.000000
171.000000 317.000000
202.000000 305.000000
217.000000 286.000000
232.000000 275.000000
244.000000 252.000000
252.000000 225.000000
255.000000 202.000000
259.000000 179.000000
263.000000 156.000000
83.000000 133.000000
94.000000 125.000000
110.000000 121.000000
121.000000 121.000000
136.000000 121.000000
186.000000 121.000000
198.000000 117.000000
213.000000 117.000000
229.000000 121.000000
240.000000 129.000000
159.000000 144.000000
159.000000 159.000000
159.000000 171.000000
159.000000 186.000000
144.000000 198.000000
152.000000 198.000000
163.000000 202.000000
175.000000 198.000000
182.000000 198.000000
102.000000 148.000000
113.000000 144.000000
125.000000 144.000000
133.000000 148.000000
125.000000 152.000000
113.000000 152.000000
186.000000 144.000000
198.000000 140.000000
209.000000 140.000000
221.000000 144.000000
213.000000 148.000000
198.000000 148.000000
129.000000 244.000000
136.000000 225.000000
156.000000 217.000000
163.000000 217.000000
175.000000 213.000000
194.000000 225.000000
206.000000 240.000000
194.000000 271.000000
182.000000 282.000000
167.000000 286.000000
152.000000 282.000000
140.000000 271.000000
129.000000 244.000000
152.000000 229.000000
163.000000 225.000000
179.000000 225.000000
206.000000 240.000000
179.000000 271.000000
167.000000 275.000000
156.000000 271.000000
}
