version: 1
n_points: 68
{
66.000000 162.000000
66.000000 188.000000
74.000000 210.000000
77.000000 233.000000
89.000000 259.000000
103.000000 277.000000
118.000000 285.000000
137.000000 296.000000
170.000000 303.000000
200.000000 296.000000
215.000000 285.000000
230.000000 274.000000
244.000000 255.000000
252.000000 229.000000
256.000000 203.000000
259.000000 181.000000
263.000000 155.000000
81.000000 129.000000
96.000000 121.000000
111.000000 114.000000
122.000000 114.000000
137.000000 118.000000
189.000000 118.000000
200.000000 114.000000
215.000000 114.000000
230.000000 118.000000
244.000000 125.000000
163.000000 140.000000
163.000000 158.000000
159.000000 170.000000
159.000000 184.000000
144.000000 196.000000
152.000000 199.000000
163.000000 199.000000
174.000000 199.000000
181.000000 196.000000
103.000000 147.000000
115.000000 144.000000
126.000000 144.000000
137.000000 147.000000
126.000000 151.000000
115.000000 151.000000
189.000000 144.000000
200.000000 140.000000
211.000000 140.000000
222.000000 144.000000
211.000000 147.000000
200.000000 147.000000
133.000000 240.000000
141.000000 225.000000
155.000000 214.000000
163.000000 218.000000
174.000000 214.000000
189.000000 225.000000
204.000000 240.000000
189.000000 255.000000
178.000000 262.000000
167.000000 266.000000
152.000000 266.000000
141.000000 259.000000
133.000000 240.000000
152.000000 225.000000
163.000000 225.000000
174.000000 225.000000
200.000000 240.000000
178.000000 251.000000
167.000000 255.000000
155.000000 251.000000
}
