version: 1
n_points: 68
{
60.000000 159.000000
64.000000 186.000000
68.000000 208.000000
75.000000 230.000000
82.000000 257.000000
97.000000 279.000000
112.000000 290.000000
135.000000 298.000000
168.000000 309.000000
198.000000 298.000000
217.000000 283.000000
232.000000 272.000000
247.000000 249.000000
254.000000 223.000000
258.000000 201.000000
262.000000 178.000000
266.000000 152.000000
82.000000 130.000000
94.000000 126.000000
109.000000 122.000000
124.000000 122.000000
135.000000 126.000000
187.000000 122.000000
198.000000 118.000000
213.000000 118.000000
228.000000 122.000000
243.000000 130.000000
161.000000 145.000000
161.000000 159.000000
161.000000 174.000000
161.000000 189.000000
146.000000 201.000000
153.000000 201.000000
165.000000 204.000000
176.000000 201.000000
183.000000 197.000000
105.000000 148.000000
112.000000 145.000000
124.000000 145.000000
135.000000 148.000000
124.000000 152.000000
112.000000 152.000000
187.000000 145.000000
198.000000 141.000000
210.000000 145.000000
221.000000 145.000000
213.000000 148.000000
198.000000 148.000000
124.000000 238.000000
135.000000 223.000000
153.000000 216.000000
165.000000 219.000000
176.000000 216.000000
198.000000 219.000000
210.000000 234.000000
195.000000 253.000000
183.000000 264.000000
165.000000 264.000000
150.000000 264.000000
135.000000 257.000000
124.000000 238.000000
150.000000 227.000000
165.000000 227.000000
180.000000 227.000000
210.000000 234.000000
180.000000 249.000000
165.000000 253.000000
150.000000 253.000000
}
