version: 1
n_points: 68
{
58.000000 157.000000
61.000000 187.000000
69.000000 209.000000
72.000000 231.000000
80.000000 257.000000
95.000000 276.000000
113.000000 287.000000
132.000000 298.000000
165.000000 305.000000
198.000000 298.000000
217.000000 283.000000
235.000000 272.000000
246.000000 250.000000
254.000000 224.000000
257.000000 202.000000
261.000000 176.000000
265.000000 150.000000
84.000000 132.000000
95.000000 128.000000
109.000000 124.000000
121.000000 124.000000
135.000000 124.000000
187.000000 124.000000
198.000000 120.000000
213.000000 120.000000
228.000000 124.000000
243.000000 128.000000
161.000000 146.000000
161.000000 161.000000
158.000000 176.000000
158.000000 191.000000
143.000000 198.000000
150.000000 202.000000
161.000000 206.000000
172.000000 202.000000
180.000000 198.000000
102.000000 150.000000
113.000000 146.000000
124.000000 146.000000
135.000000 150.000000
124.000000 154.000000
113.000000 154.000000
187.000000 146.000000
198.000000 143.000000
209.000000 143.000000
220.000000 146.000000
209.000000 150.000000
198.000000 150.000000
121.000000 235.000000
132.000000 224.000000
154.000000 217.000000
161.000000 220.000000
172.000000 217.000000
195.000000 220.000000
213.000000 231.000000
195.000000 254.000000
180.000000 261.000000
165.000000 265.000000
150.000000 265.000000
135.000000 254.000000
121.000000 235.000000
150.000000 228.000000
165.000000 228.000000
180.000000 228.000000
209.000000 231.000000
180.000000 250.000000
165.000000 254.000000
150.000000 250.000000
}
