version: 1
n_points: 68
{
59.000000 160.000000
63.000000 186.000000
66.000000 209.000000
74.000000 232.000000
81.000000 258.000000
96.000000 280.000000
112.000000 292.000000
134.000000 303.000000
168.000000 314.000000
198.000000 303.000000
217.000000 288.000000
232.000000 273.000000
247.000000 254.000000
254.000000 224.000000
258.000000 201.000000
262.000000 179.000000
265.000000 153.000000
81.000000 130.000000
93.000000 123.000000
108.000000 119.000000
123.000000 119.000000
134.000000 123.000000
187.000000 123.000000
198.000000 119.000000
213.000000 119.000000
228.000000 123.000000
243.000000 126.000000
160.000000 145.000000
160.000000 160.000000
160.000000 175.000000
160.000000 186.000000
145.000000 198.000000
153.000000 198.000000
164.000000 201.000000
175.000000 198.000000
183.000000 198.000000
104.000000 149.000000
112.000000 145.000000
123.000000 141.000000
134.000000 145.000000
127.000000 149.000000
112.000000 153.000000
187.000000 145.000000
198.000000 141.000000
213.000000 141.000000
220.000000 145.000000
213.000000 149.000000
198.000000 149.000000
123.000000 239.000000
134.000000 224.000000
153.000000 216.000000
164.000000 216.000000
175.000000 216.000000
198.000000 220.000000
209.000000 235.000000
194.000000 258.000000
183.000000 269.000000
168.000000 273.000000
153.000000 269.000000
138.000000 262.000000
127.000000 239.000000
149.000000 228.000000
164.000000 224.000000
179.000000 228.000000
209.000000 235.000000
179.000000 254.000000
168.000000 258.000000
153.000000 258.000000
}
