version: 1
n_points: 68
{
60.000000 159.000000
64.000000 185.000000
67.000000 207.000000
75.000000 230.000000
82.000000 259.000000
97.000000 278.000000
112.000000 289.000000
134.000000 300.000000
168.000000 312.000000
198.000000 300.000000
220.000000 285.000000
235.000000 271.000000
250.000000 252.000000
257.000000 222.000000
261.000000 200.000000
265.000000 178.000000
265.000000 152.000000
82.000000 129.000000
93.000000 126.000000
108.000000 122.000000
123.000000 122.000000
134.000000 126.000000
186.000000 122.000000
198.000000 118.000000
212.000000 118.000000
227.000000 122.000000
242.000000 129.000000
160.000000 144.000000
160.000000 159.000000
160.000000 174.000000
160.000000 189.000000
146.000000 200.000000
153.000000 200.000000
164.000000 204.000000
175.000000 200.000000
183.000000 196.000000
105.000000 148.000000
112.000000 144.000000
123.000000 144.000000
134.000000 148.000000
127.000000 152.000000
112.000000 152.000000
190.000000 144.000000
201.000000 140.000000
212.000000 144.000000
220.000000 144.000000
212.000000 148.000000
198.000000 148.000000
123.000000 237.000000
134.000000 222.000000
153.000000 219.000000
164.000000 219.000000
175.000000 215.000000
198.000000 222.000000
212.000000 233.000000
198.000000 256.000000
183.000000 267.000000
168.000000 267.000000
149.000000 267.000000
138.000000 259.000000
123.000000 237.000000
149.000000 226.000000
164.000000 226.000000
179.000000 226.000000
209.000000 233.000000
179.000000 252.000000
168.000000 256.000000
153.000000 256.000000
}
