version: 1
n_points: 68
{
61.000000 158.000000
61.000000 184.000000
68.000000 210.000000
72.000000 232.000000
80.000000 258.000000
94.000000 277.000000
113.000000 288.000000
135.000000 299.000000
165.000000 306.000000
198.000000 299.000000
220.000000 284.000000
235.000000 269.000000
250.000000 251.000000
257.000000 225.000000
257.000000 199.000000
261.000000 177.000000
265.000000 151.000000
83.000000 132.000000
94.000000 125.000000
109.000000 121.000000
124.000000 121.000000
135.000000 125.000000
187.000000 125.000000
198.000000 121.000000
213.000000 121.000000
228.000000 121.000000
242.000000 129.000000
161.000000 147.000000
161.000000 162.000000
161.000000 177.000000
161.000000 188.000000
142.000000 199.000000
150.000000 203.000000
161.000000 203.000000
176.000000 199.000000
183.000000 199.000000
102.000000 147.000000
113.000000 147.000000
124.000000 143.000000
135.000000 147.000000
124.000000 151.000000
113.000000 151.000000
187.000000 147.000000
198.000000 143.000000
213.000000 143.000000
220.000000 147.000000
213.000000 151.000000
198.000000 151.000000
120.000000 236.000000
131.000000 225.000000
154.000000 217.000000
165.000000 217.000000
176.000000 217.000000
198.000000 221.000000
213.000000 232.000000
198.000000 251.000000
183.000000 262.000000
165.000000 266.000000
150.000000 266.000000
135.000000 254.000000
124.000000 236.000000
150.000000 229.000000
165.000000 225.000000
179.000000 229.000000
209.000000 232.000000
179.000000 251.000000
165.000000 251.000000
150.000000 251.000000
}
