version: 1
n_points: 68
{
60.000000 159.000000
63.000000 185.000000
67.000000 207.000000
75.000000 234.000000
82.000000 260.000000
97.000000 278.000000
112.000000 290.000000
135.000000 297.000000
168.000000 308.000000
198.000000 297.000000
217.000000 286.000000
232.000000 271.000000
247.000000 252.000000
254.000000 226.000000
258.000000 200.000000
262.000000 177.000000
265.000000 151.000000
82.000000 133.000000
93.000000 125.000000
108.000000 121.000000
123.000000 121.000000
135.000000 125.000000
187.000000 121.000000
198.000000 121.000000
213.000000 118.000000
228.000000 121.000000
239.000000 129.000000
161.000000 144.000000
161.000000 162.000000
161.000000 174.000000
161.000000 189.000000
146.000000 200.000000
153.000000 200.000000
164.000000 204.000000
176.000000 200.000000
183.000000 200.000000
101.000000 148.000000
112.000000 148.000000
123.000000 144.000000
135.000000 148.000000
123.000000 151.000000
112.000000 151.000000
187.000000 148.000000
198.000000 140.000000
209.000000 144.000000
221.000000 148.000000
209.000000 148.000000
198.000000 148.000000
123.000000 237.000000
135.000000 222.000000
153.000000 219.000000
164.000000 219.000000
176.000000 215.000000
198.000000 222.000000
213.000000 234.000000
194.000000 252.000000
183.000000 260.000000
164.000000 263.000000
149.000000 263.000000
138.000000 256.000000
123.000000 237.000000
149.000000 226.000000
164.000000 226.000000
179.000000 226.000000
209.000000 234.000000
179.000000 249.000000
164.000000 252.000000
149.000000 252.000000
}
