version: 1
n_points: 68
{
60.000000 160.000000
64.000000 186.000000
68.000000 208.000000
75.000000 230.000000
83.000000 256.000000
98.000000 279.000000
112.000000 290.000000
135.000000 297.000000
168.000000 309.000000
198.000000 297.000000
220.000000 286.000000
235.000000 271.000000
250.000000 253.000000
257.000000 223.000000
257.000000 201.000000
265.000000 178.000000
265.000000 152.000000
83.000000 130.000000
94.000000 126.000000
109.000000 123.000000
124.000000 123.000000
138.000000 123.000000
187.000000 123.000000
198.000000 119.000000
213.000000 119.000000
228.000000 123.000000
243.000000 130.000000
161.000000 145.000000
161.000000 160.000000
161.000000 175.000000
161.000000 190.000000
146.000000 197.000000
153.000000 201.000000
164.000000 201.000000
176.000000 201.000000
183.000000 197.000000
105.000000 149.000000
112.000000 145.000000
124.000000 145.000000
135.000000 149.000000
127.000000 152.000000
112.000000 152.000000
190.000000 145.000000
202.000000 141.000000
213.000000 141.000000
220.000000 145.000000
213.000000 149.000000
202.000000 149.000000
124.000000 238.000000
135.000000 223.000000
153.000000 216.000000
164.000000 219.000000
176.000000 216.000000
198.000000 219.000000
213.000000 234.000000
194.000000 253.000000
183.000000 264.000000
164.000000 264.000000
150.000000 264.000000
138.000000 256.000000
124.000000 238.000000
150.000000 227.000000
164.000000 227.000000
179.000000 227.000000
209.000000 234.000000
179.000000 249.000000
164.000000 253.000000
153.000000 253.000000
}
