version: 1
n_points: 68
{
61.000000 161.000000
64.000000 187.000000
68.000000 209.000000
72.000000 235.000000
83.000000 260.000000
98.000000 279.000000
112.000000 290.000000
134.000000 297.000000
167.000000 305.000000
197.000000 297.000000
219.000000 283.000000
234.000000 272.000000
248.000000 253.000000
256.000000 224.000000
259.000000 202.000000
263.000000 180.000000
267.000000 154.000000
83.000000 132.000000
94.000000 124.000000
109.000000 121.000000
123.000000 121.000000
134.000000 124.000000
186.000000 124.000000
197.000000 121.000000
212.000000 121.000000
226.000000 124.000000
241.000000 128.000000
160.000000 146.000000
160.000000 161.000000
160.000000 176.000000
160.000000 191.000000
145.000000 202.000000
153.000000 202.000000
164.000000 205.000000
175.000000 202.000000
182.000000 198.000000
101.000000 150.000000
112.000000 146.000000
123.000000 146.000000
134.000000 150.000000
123.000000 154.000000
112.000000 154.000000
189.000000 146.000000
201.000000 143.000000
212.000000 143.000000
223.000000 146.000000
212.000000 150.000000
201.000000 150.000000
123.000000 238.000000
134.000000 224.000000
153.000000 216.000000
164.000000 220.000000
175.000000 216.000000
197.000000 220.000000
212.000000 231.000000
197.000000 253.000000
182.000000 260.000000
164.000000 264.000000
149.000000 264.000000
138.000000 257.000000
123.000000 238.000000
149.000000 227.000000
164.000000 227.000000
178.000000 227.000000
208.000000 231.000000
178.000000 249.000000
164.000000 253.000000
153.000000 249.000000
}
