version: 1
n_points: 68
{
60.000000 163.000000
63.000000 188.000000
67.000000 214.000000
74.000000 236.000000
85.000000 262.000000
100.000000 280.000000
115.000000 291.000000
137.000000 298.000000
170.000000 309.000000
199.000000 298.000000
221.000000 284.000000
236.000000 273.000000
247.000000 251.000000
254.000000 225.000000
258.000000 203.000000
261.000000 177.000000
265.000000 152.000000
82.000000 133.000000
93.000000 126.000000
107.000000 122.000000
122.000000 122.000000
133.000000 122.000000
184.000000 122.000000
199.000000 119.000000
214.000000 119.000000
228.000000 122.000000
243.000000 130.000000
159.000000 148.000000
159.000000 163.000000
159.000000 177.000000
159.000000 192.000000
144.000000 203.000000
151.000000 203.000000
162.000000 207.000000
173.000000 203.000000
181.000000 199.000000
100.000000 152.000000
111.000000 148.000000
122.000000 148.000000
137.000000 152.000000
126.000000 155.000000
111.000000 155.000000
188.000000 148.000000
199.000000 144.000000
210.000000 144.000000
221.000000 148.000000
210.000000 152.000000
199.000000 152.000000
122.000000 240.000000
133.000000 229.000000
155.000000 218.000000
166.000000 221.000000
173.000000 218.000000
195.000000 221.000000
210.000000 232.000000
195.000000 251.000000
184.000000 262.000000
166.000000 265.000000
151.000000 265.000000
140.000000 258.000000
126.000000 240.000000
151.000000 229.000000
166.000000 229.000000
181.000000 229.000000
210.000000 232.000000
181.000000 247.000000
166.000000 251.000000
151.000000 251.000000
}
