version: 1
n_points: 68
{
63.000000 169.000000
67.000000 195.000000
74.000000 217.000000
81.000000 242.000000
92.000000 264.000000
107.000000 283.000000
122.000000 294.000000
148.000000 305.000000
177.000000 309.000000
207.000000 298.000000
221.000000 283.000000
232.000000 272.000000
247.000000 253.000000
254.000000 228.000000
258.000000 206.000000
262.000000 180.000000
262.000000 154.000000
81.000000 136.000000
92.000000 125.000000
107.000000 117.000000
122.000000 117.000000
133.000000 117.000000
188.000000 117.000000
199.000000 114.000000
214.000000 114.000000
229.000000 117.000000
243.000000 128.000000
162.000000 147.000000
162.000000 165.000000
162.000000 180.000000
162.000000 191.000000
151.000000 206.000000
159.000000 206.000000
166.000000 209.000000
177.000000 206.000000
185.000000 202.000000
100.000000 154.000000
111.000000 147.000000
126.000000 147.000000
137.000000 150.000000
126.000000 154.000000
111.000000 158.000000
188.000000 150.000000
203.000000 143.000000
214.000000 143.000000
225.000000 147.000000
214.000000 154.000000
199.000000 154.000000
137.000000 250.000000
148.000000 235.000000
162.000000 224.000000
170.000000 224.000000
177.000000 220.000000
199.000000 228.000000
210.000000 242.000000
199.000000 264.000000
192.000000 276.000000
177.000000 279.000000
162.000000 279.000000
151.000000 268.000000
140.000000 250.000000
162.000000 235.000000
173.000000 235.000000
185.000000 235.000000
210.000000 242.000000
188.000000 264.000000
177.000000 264.000000
162.000000 264.000000
}
