version: 1
n_points: 68
{
63.000000 169.000000
67.000000 195.000000
74.000000 217.000000
78.000000 240.000000
93.000000 262.000000
108.000000 277.000000
126.000000 284.000000
148.000000 295.000000
182.000000 306.000000
208.000000 295.000000
222.000000 280.000000
234.000000 269.000000
245.000000 251.000000
252.000000 228.000000
256.000000 206.000000
263.000000 180.000000
263.000000 154.000000
82.000000 132.000000
93.000000 121.000000
108.000000 114.000000
123.000000 114.000000
134.000000 117.000000
189.000000 114.000000
200.000000 114.000000
215.000000 110.000000
230.000000 117.000000
245.000000 129.000000
163.000000 147.000000
163.000000 162.000000
163.000000 177.000000
163.000000 191.000000
152.000000 206.000000
160.000000 206.000000
167.000000 206.000000
178.000000 203.000000
185.000000 203.000000
100.000000 151.000000
111.000000 143.000000
123.000000 143.000000
137.000000 151.000000
126.000000 154.000000
111.000000 154.000000
189.000000 147.000000
200.000000 140.000000
215.000000 140.000000
222.000000 147.000000
215.000000 151.000000
200.000000 151.000000
145.000000 258.000000
152.000000 236.000000
163.000000 225.000000
171.000000 225.000000
178.000000 221.000000
193.000000 232.000000
204.000000 251.000000
197.000000 273.000000
189.000000 284.000000
178.000000 288.000000
163.000000 284.000000
156.000000 273.000000
148.000000 258.000000
163.000000 236.000000
174.000000 232.000000
182.000000 236.000000
204.000000 251.000000
185.000000 273.000000
178.000000 277.000000
167.000000 273.000000
}
