version: 1
n_points: 68
{
62.000000 167.000000
66.000000 193.000000
73.000000 215.000000
81.000000 238.000000
92.000000 264.000000
107.000000 279.000000
125.000000 290.000000
148.000000 301.000000
181.000000 305.000000
207.000000 294.000000
222.000000 283.000000
234.000000 271.000000
245.000000 249.000000
256.000000 227.000000
260.000000 204.000000
263.000000 178.000000
263.000000 152.000000
81.000000 133.000000
92.000000 122.000000
107.000000 119.000000
122.000000 115.000000
133.000000 119.000000
189.000000 115.000000
200.000000 115.000000
215.000000 111.000000
230.000000 119.000000
241.000000 126.000000
163.000000 148.000000
163.000000 163.000000
163.000000 178.000000
163.000000 189.000000
152.000000 204.000000
159.000000 204.000000
166.000000 208.000000
178.000000 204.000000
185.000000 201.000000
103.000000 152.000000
111.000000 148.000000
125.000000 145.000000
137.000000 152.000000
125.000000 156.000000
114.000000 156.000000
189.000000 148.000000
200.000000 141.000000
215.000000 141.000000
222.000000 145.000000
215.000000 152.000000
200.000000 152.000000
140.000000 253.000000
148.000000 234.000000
163.000000 223.000000
170.000000 223.000000
178.000000 223.000000
196.000000 230.000000
211.000000 245.000000
200.000000 268.000000
193.000000 279.000000
178.000000 283.000000
163.000000 283.000000
152.000000 271.000000
140.000000 253.000000
163.000000 234.000000
174.000000 234.000000
185.000000 234.000000
207.000000 245.000000
189.000000 268.000000
178.000000 271.000000
166.000000 268.000000
}
