version: 1
n_points: 68
{
66.000000 170.000000
70.000000 192.000000
77.000000 214.000000
85.000000 236.000000
99.000000 254.000000
118.000000 261.000000
132.000000 265.000000
154.000000 283.000000
184.000000 287.000000
206.000000 276.000000
224.000000 265.000000
235.000000 261.000000
250.000000 247.000000
257.000000 225.000000
261.000000 206.000000
265.000000 184.000000
265.000000 159.000000
85.000000 129.000000
96.000000 118.000000
110.000000 115.000000
125.000000 111.000000
140.000000 115.000000
191.000000 115.000000
206.000000 111.000000
217.000000 111.000000
232.000000 115.000000
246.000000 126.000000
165.000000 148.000000
169.000000 162.000000
169.000000 177.000000
169.000000 192.000000
158.000000 206.000000
165.000000 206.000000
173.000000 206.000000
184.000000 206.000000
191.000000 203.000000
107.000000 148.000000
118.000000 144.000000
129.000000 144.000000
140.000000 148.000000
129.000000 151.000000
118.000000 151.000000
195.000000 148.000000
206.000000 140.000000
217.000000 140.000000
228.000000 148.000000
217.000000 151.000000
206.000000 151.000000
151.000000 243.000000
162.000000 236.000000
173.000000 228.000000
180.000000 228.000000
184.000000 228.000000
199.000000 236.000000
210.000000 243.000000
202.000000 250.000000
195.000000 254.000000
187.000000 258.000000
176.000000 254.000000
162.000000 250.000000
151.000000 243.000000
173.000000 236.000000
180.000000 236.000000
187.000000 236.000000
206.000000 243.000000
191.000000 243.000000
184.000000 247.000000
173.000000 243.000000
}
