version: 1
n_points: 68
{
66.000000 170.000000
69.000000 192.000000
77.000000 214.000000
84.000000 233.000000
99.000000 251.000000
117.000000 259.000000
129.000000 262.000000
143.000000 259.000000
177.000000 285.000000
203.000000 270.000000
217.000000 259.000000
232.000000 255.000000
247.000000 244.000000
254.000000 225.000000
262.000000 203.000000
266.000000 181.000000
266.000000 159.000000
84.000000 129.000000
95.000000 118.000000
110.000000 114.000000
125.000000 114.000000
136.000000 114.000000
191.000000 114.000000
203.000000 111.000000
217.000000 111.000000
232.000000 114.000000
247.000000 125.000000
166.000000 148.000000
166.000000 162.000000
166.000000 177.000000
169.000000 192.000000
158.000000 207.000000
166.000000 207.000000
173.000000 207.000000
180.000000 207.000000
188.000000 203.000000
106.000000 148.000000
114.000000 144.000000
129.000000 140.000000
140.000000 148.000000
129.000000 151.000000
117.000000 151.000000
191.000000 144.000000
203.000000 140.000000
217.000000 140.000000
229.000000 144.000000
217.000000 151.000000
203.000000 148.000000
143.000000 237.000000
154.000000 229.000000
166.000000 225.000000
173.000000 229.000000
180.000000 225.000000
191.000000 233.000000
203.000000 240.000000
195.000000 244.000000
188.000000 248.000000
177.000000 244.000000
166.000000 244.000000
154.000000 240.000000
147.000000 237.000000
166.000000 237.000000
177.000000 237.000000
184.000000 237.000000
199.000000 240.000000
184.000000 237.000000
177.000000 237.000000
166.000000 237.000000
}
