version: 1
n_points: 68
{
65.000000 168.000000
68.000000 194.000000
76.000000 216.000000
83.000000 234.000000
94.000000 249.000000
113.000000 257.000000
128.000000 257.000000
139.000000 260.000000
172.000000 275.000000
202.000000 260.000000
221.000000 257.000000
232.000000 253.000000
247.000000 242.000000
254.000000 223.000000
258.000000 205.000000
265.000000 182.000000
265.000000 156.000000
83.000000 130.000000
94.000000 119.000000
109.000000 112.000000
124.000000 112.000000
135.000000 116.000000
191.000000 112.000000
202.000000 112.000000
217.000000 112.000000
232.000000 116.000000
243.000000 127.000000
165.000000 145.000000
165.000000 164.000000
165.000000 179.000000
165.000000 190.000000
154.000000 205.000000
161.000000 205.000000
169.000000 208.000000
176.000000 205.000000
183.000000 205.000000
105.000000 149.000000
113.000000 142.000000
128.000000 142.000000
139.000000 145.000000
128.000000 153.000000
117.000000 153.000000
191.000000 145.000000
202.000000 138.000000
213.000000 142.000000
224.000000 145.000000
213.000000 149.000000
202.000000 149.000000
143.000000 234.000000
154.000000 227.000000
165.000000 223.000000
172.000000 227.000000
176.000000 223.000000
187.000000 231.000000
198.000000 238.000000
191.000000 238.000000
183.000000 242.000000
176.000000 242.000000
165.000000 242.000000
154.000000 238.000000
143.000000 231.000000
165.000000 234.000000
172.000000 234.000000
180.000000 234.000000
195.000000 238.000000
180.000000 231.000000
172.000000 231.000000
165.000000 231.000000
}
