version: 1
n_points: 68
{
64.000000 164.000000
64.000000 190.000000
71.000000 212.000000
75.000000 235.000000
82.000000 254.000000
94.000000 269.000000
105.000000 280.000000
120.000000 284.000000
150.000000 291.000000
180.000000 284.000000
203.000000 276.000000
218.000000 269.000000
237.000000 254.000000
248.000000 231.000000
256.000000 209.000000
263.000000 186.000000
267.000000 160.000000
82.000000 130.000000
94.000000 118.000000
109.000000 115.000000
124.000000 115.000000
135.000000 115.000000
188.000000 115.000000
203.000000 111.000000
218.000000 111.000000
233.000000 118.000000
244.000000 130.000000
161.000000 145.000000
158.000000 164.000000
154.000000 175.000000
154.000000 190.000000
139.000000 205.000000
146.000000 205.000000
154.000000 209.000000
161.000000 209.000000
169.000000 209.000000
101.000000 148.000000
113.000000 145.000000
124.000000 145.000000
135.000000 148.000000
124.000000 152.000000
113.000000 152.000000
188.000000 148.000000
199.000000 145.000000
214.000000 145.000000
222.000000 148.000000
214.000000 152.000000
199.000000 152.000000
116.000000 246.000000
128.000000 231.000000
139.000000 224.000000
146.000000 224.000000
154.000000 224.000000
165.000000 239.000000
173.000000 254.000000
161.000000 261.000000
150.000000 269.000000
139.000000 269.000000
128.000000 269.000000
124.000000 261.000000
120.000000 246.000000
139.000000 235.000000
146.000000 235.000000
154.000000 239.000000
169.000000 250.000000
150.000000 258.000000
143.000000 258.000000
131.000000 258.000000
}
