version: 1
n_points: 68
{
64.000000 163.000000
64.000000 189.000000
72.000000 212.000000
76.000000 235.000000
83.000000 253.000000
94.000000 268.000000
110.000000 276.000000
125.000000 284.000000
155.000000 287.000000
181.000000 284.000000
204.000000 276.000000
219.000000 268.000000
238.000000 253.000000
249.000000 231.000000
257.000000 212.000000
264.000000 189.000000
268.000000 163.000000
83.000000 129.000000
94.000000 118.000000
110.000000 114.000000
125.000000 114.000000
136.000000 114.000000
193.000000 114.000000
204.000000 114.000000
219.000000 114.000000
234.000000 118.000000
245.000000 129.000000
162.000000 148.000000
159.000000 163.000000
159.000000 178.000000
155.000000 189.000000
140.000000 204.000000
147.000000 204.000000
155.000000 208.000000
166.000000 208.000000
174.000000 208.000000
102.000000 148.000000
113.000000 144.000000
125.000000 144.000000
136.000000 152.000000
125.000000 155.000000
113.000000 155.000000
193.000000 148.000000
204.000000 144.000000
215.000000 144.000000
227.000000 148.000000
215.000000 152.000000
200.000000 152.000000
121.000000 246.000000
128.000000 231.000000
144.000000 223.000000
151.000000 227.000000
159.000000 223.000000
170.000000 238.000000
177.000000 253.000000
166.000000 265.000000
155.000000 272.000000
144.000000 272.000000
132.000000 272.000000
125.000000 261.000000
121.000000 246.000000
140.000000 235.000000
151.000000 235.000000
159.000000 238.000000
174.000000 253.000000
155.000000 261.000000
144.000000 261.000000
136.000000 261.000000
}
