version: 1
n_points: 68
{
64.000000 167.000000
71.000000 193.000000
79.000000 215.000000
86.000000 237.000000
101.000000 255.000000
119.000000 266.000000
137.000000 270.000000
163.000000 281.000000
193.000000 285.000000
218.000000 277.000000
229.000000 270.000000
240.000000 263.000000
251.000000 244.000000
262.000000 222.000000
266.000000 200.000000
266.000000 178.000000
270.000000 156.000000
86.000000 130.000000
97.000000 119.000000
112.000000 112.000000
126.000000 112.000000
137.000000 116.000000
193.000000 116.000000
204.000000 112.000000
218.000000 112.000000
233.000000 116.000000
248.000000 127.000000
167.000000 145.000000
167.000000 163.000000
171.000000 178.000000
171.000000 189.000000
163.000000 207.000000
171.000000 207.000000
178.000000 207.000000
185.000000 204.000000
193.000000 204.000000
108.000000 152.000000
119.000000 149.000000
130.000000 145.000000
141.000000 149.000000
130.000000 152.000000
119.000000 156.000000
196.000000 149.000000
207.000000 145.000000
218.000000 145.000000
226.000000 149.000000
218.000000 152.000000
204.000000 152.000000
163.000000 252.000000
171.000000 237.000000
178.000000 226.000000
182.000000 230.000000
189.000000 226.000000
204.000000 233.000000
215.000000 244.000000
207.000000 252.000000
204.000000 259.000000
193.000000 263.000000
185.000000 263.000000
174.000000 255.000000
167.000000 252.000000
182.000000 241.000000
185.000000 237.000000
193.000000 237.000000
215.000000 244.000000
200.000000 248.000000
193.000000 252.000000
182.000000 248.000000
}
