version: 1
n_points: 68
{
60.000000 165.000000
64.000000 191.000000
67.000000 214.000000
71.000000 236.000000
79.000000 258.000000
93.000000 277.000000
104.000000 284.000000
116.000000 291.000000
145.000000 299.000000
175.000000 291.000000
197.000000 284.000000
216.000000 273.000000
231.000000 254.000000
242.000000 232.000000
249.000000 210.000000
257.000000 184.000000
260.000000 158.000000
79.000000 132.000000
90.000000 121.000000
101.000000 117.000000
116.000000 113.000000
130.000000 117.000000
182.000000 117.000000
194.000000 113.000000
208.000000 113.000000
227.000000 117.000000
238.000000 128.000000
153.000000 147.000000
153.000000 165.000000
149.000000 180.000000
149.000000 191.000000
134.000000 206.000000
138.000000 206.000000
149.000000 210.000000
156.000000 210.000000
164.000000 210.000000
97.000000 150.000000
104.000000 147.000000
116.000000 147.000000
130.000000 150.000000
119.000000 154.000000
104.000000 154.000000
182.000000 150.000000
194.000000 143.000000
208.000000 143.000000
216.000000 150.000000
205.000000 154.000000
194.000000 154.000000
116.000000 247.000000
123.000000 236.000000
134.000000 225.000000
142.000000 228.000000
149.000000 228.000000
160.000000 240.000000
168.000000 254.000000
156.000000 258.000000
145.000000 262.000000
134.000000 266.000000
127.000000 262.000000
119.000000 258.000000
116.000000 247.000000
130.000000 240.000000
142.000000 240.000000
145.000000 240.000000
164.000000 251.000000
145.000000 251.000000
138.000000 254.000000
130.000000 251.000000
}
