version: 1
n_points: 68
{
61.000000 161.000000
65.000000 187.000000
69.000000 210.000000
72.000000 233.000000
80.000000 255.000000
91.000000 271.000000
103.000000 278.000000
118.000000 286.000000
148.000000 290.000000
178.000000 286.000000
201.000000 278.000000
216.000000 271.000000
235.000000 255.000000
246.000000 233.000000
254.000000 210.000000
261.000000 184.000000
265.000000 157.000000
80.000000 131.000000
91.000000 119.000000
106.000000 115.000000
121.000000 112.000000
133.000000 115.000000
186.000000 115.000000
201.000000 112.000000
212.000000 112.000000
231.000000 119.000000
243.000000 131.000000
156.000000 146.000000
156.000000 165.000000
152.000000 176.000000
152.000000 191.000000
137.000000 203.000000
140.000000 206.000000
152.000000 206.000000
159.000000 206.000000
167.000000 206.000000
99.000000 150.000000
110.000000 146.000000
121.000000 146.000000
133.000000 150.000000
121.000000 153.000000
110.000000 153.000000
186.000000 150.000000
197.000000 142.000000
209.000000 142.000000
220.000000 150.000000
209.000000 153.000000
197.000000 153.000000
114.000000 244.000000
125.000000 233.000000
137.000000 225.000000
144.000000 225.000000
152.000000 225.000000
159.000000 237.000000
167.000000 252.000000
156.000000 259.000000
148.000000 267.000000
137.000000 267.000000
125.000000 267.000000
121.000000 259.000000
118.000000 244.000000
133.000000 237.000000
140.000000 233.000000
148.000000 237.000000
163.000000 252.000000
148.000000 252.000000
137.000000 255.000000
129.000000 252.000000
}
