version: 1
n_points: 68
{
62.000000 164.000000
66.000000 190.000000
69.000000 213.000000
73.000000 232.000000
81.000000 255.000000
92.000000 270.000000
103.000000 277.000000
119.000000 285.000000
149.000000 292.000000
179.000000 285.000000
202.000000 277.000000
217.000000 270.000000
236.000000 255.000000
247.000000 232.000000
255.000000 209.000000
262.000000 186.000000
266.000000 160.000000
81.000000 130.000000
92.000000 118.000000
107.000000 115.000000
122.000000 115.000000
134.000000 115.000000
187.000000 115.000000
202.000000 115.000000
213.000000 115.000000
232.000000 118.000000
243.000000 130.000000
160.000000 145.000000
156.000000 164.000000
153.000000 175.000000
153.000000 190.000000
138.000000 202.000000
145.000000 205.000000
153.000000 205.000000
160.000000 209.000000
168.000000 209.000000
100.000000 149.000000
111.000000 145.000000
122.000000 145.000000
134.000000 149.000000
122.000000 152.000000
111.000000 152.000000
187.000000 149.000000
198.000000 141.000000
213.000000 145.000000
221.000000 149.000000
209.000000 152.000000
198.000000 152.000000
115.000000 243.000000
126.000000 232.000000
138.000000 224.000000
145.000000 224.000000
153.000000 224.000000
164.000000 239.000000
168.000000 251.000000
156.000000 262.000000
149.000000 270.000000
138.000000 270.000000
126.000000 270.000000
122.000000 262.000000
119.000000 243.000000
138.000000 236.000000
145.000000 236.000000
153.000000 236.000000
168.000000 251.000000
149.000000 258.000000
138.000000 258.000000
130.000000 255.000000
}
