version: 1
n_points: 68
{
60.000000 163.000000
64.000000 189.000000
68.000000 215.000000
71.000000 237.000000
79.000000 256.000000
90.000000 274.000000
105.000000 282.000000
116.000000 285.000000
146.000000 293.000000
175.000000 285.000000
198.000000 278.000000
216.000000 267.000000
231.000000 252.000000
246.000000 230.000000
250.000000 207.000000
257.000000 185.000000
261.000000 159.000000
79.000000 129.000000
90.000000 122.000000
101.000000 114.000000
116.000000 114.000000
127.000000 118.000000
183.000000 114.000000
194.000000 114.000000
209.000000 114.000000
227.000000 118.000000
239.000000 129.000000
153.000000 148.000000
153.000000 163.000000
149.000000 178.000000
149.000000 192.000000
135.000000 204.000000
138.000000 207.000000
146.000000 207.000000
157.000000 207.000000
164.000000 207.000000
97.000000 152.000000
105.000000 148.000000
116.000000 148.000000
127.000000 152.000000
120.000000 155.000000
105.000000 155.000000
183.000000 148.000000
194.000000 144.000000
209.000000 144.000000
216.000000 148.000000
205.000000 152.000000
194.000000 152.000000
112.000000 244.000000
123.000000 233.000000
135.000000 226.000000
142.000000 226.000000
149.000000 226.000000
157.000000 237.000000
164.000000 252.000000
153.000000 259.000000
146.000000 263.000000
135.000000 263.000000
127.000000 263.000000
120.000000 256.000000
116.000000 244.000000
131.000000 237.000000
138.000000 237.000000
146.000000 237.000000
161.000000 252.000000
146.000000 252.000000
138.000000 252.000000
127.000000 252.000000
}
