version: 1
n_points: 68
{
60.000000 165.000000
60.000000 190.000000
64.000000 212.000000
71.000000 234.000000
78.000000 260.000000
89.000000 275.000000
100.000000 286.000000
115.000000 293.000000
141.000000 300.000000
174.000000 289.000000
196.000000 282.000000
214.000000 275.000000
232.000000 256.000000
243.000000 231.000000
251.000000 209.000000
254.000000 183.000000
258.000000 157.000000
78.000000 132.000000
86.000000 121.000000
100.000000 117.000000
115.000000 117.000000
126.000000 117.000000
181.000000 117.000000
192.000000 113.000000
207.000000 113.000000
225.000000 117.000000
236.000000 128.000000
152.000000 146.000000
152.000000 165.000000
148.000000 179.000000
144.000000 190.000000
133.000000 205.000000
137.000000 205.000000
144.000000 209.000000
155.000000 209.000000
163.000000 209.000000
97.000000 150.000000
104.000000 146.000000
115.000000 146.000000
126.000000 154.000000
119.000000 154.000000
104.000000 157.000000
181.000000 150.000000
192.000000 143.000000
207.000000 143.000000
214.000000 150.000000
207.000000 154.000000
192.000000 154.000000
115.000000 245.000000
122.000000 234.000000
133.000000 227.000000
141.000000 227.000000
148.000000 227.000000
155.000000 238.000000
163.000000 253.000000
155.000000 256.000000
144.000000 260.000000
137.000000 260.000000
126.000000 260.000000
119.000000 253.000000
115.000000 245.000000
130.000000 238.000000
137.000000 238.000000
144.000000 242.000000
163.000000 249.000000
144.000000 249.000000
137.000000 249.000000
130.000000 245.000000
}
