version: 1
n_points: 68
{
57.000000 164.000000
61.000000 190.000000
65.000000 211.000000
72.000000 237.000000
79.000000 259.000000
90.000000 277.000000
104.000000 284.000000
115.000000 295.000000
144.000000 302.000000
177.000000 295.000000
199.000000 288.000000
217.000000 277.000000
231.000000 255.000000
242.000000 233.000000
250.000000 208.000000
253.000000 186.000000
260.000000 157.000000
75.000000 132.000000
86.000000 121.000000
101.000000 117.000000
115.000000 113.000000
130.000000 117.000000
181.000000 117.000000
195.000000 113.000000
210.000000 113.000000
224.000000 117.000000
235.000000 128.000000
152.000000 146.000000
152.000000 164.000000
148.000000 179.000000
148.000000 190.000000
133.000000 204.000000
141.000000 204.000000
148.000000 208.000000
159.000000 208.000000
166.000000 208.000000
97.000000 153.000000
104.000000 146.000000
115.000000 146.000000
126.000000 153.000000
119.000000 153.000000
104.000000 157.000000
181.000000 150.000000
195.000000 142.000000
206.000000 142.000000
217.000000 150.000000
206.000000 153.000000
192.000000 153.000000
115.000000 244.000000
123.000000 230.000000
137.000000 222.000000
144.000000 226.000000
152.000000 226.000000
159.000000 237.000000
166.000000 251.000000
159.000000 259.000000
148.000000 262.000000
137.000000 262.000000
130.000000 262.000000
123.000000 255.000000
115.000000 244.000000
133.000000 237.000000
141.000000 237.000000
148.000000 237.000000
166.000000 251.000000
148.000000 251.000000
141.000000 251.000000
130.000000 248.000000
}
