version: 1
n_points: 68
{
58.000000 162.000000
61.000000 191.000000
65.000000 213.000000
72.000000 235.000000
83.000000 260.000000
98.000000 278.000000
112.000000 289.000000
130.000000 297.000000
163.000000 304.000000
196.000000 293.000000
214.000000 282.000000
228.000000 271.000000
243.000000 249.000000
250.000000 224.000000
254.000000 202.000000
257.000000 177.000000
257.000000 151.000000
72.000000 126.000000
83.000000 111.000000
98.000000 104.000000
112.000000 100.000000
123.000000 100.000000
181.000000 100.000000
192.000000 97.000000
207.000000 97.000000
225.000000 104.000000
236.000000 119.000000
152.000000 144.000000
152.000000 162.000000
152.000000 177.000000
152.000000 191.000000
138.000000 202.000000
145.000000 206.000000
156.000000 206.000000
167.000000 202.000000
174.000000 202.000000
94.000000 151.000000
101.000000 144.000000
116.000000 144.000000
127.000000 151.000000
116.000000 155.000000
101.000000 155.000000
181.000000 148.000000
192.000000 140.000000
207.000000 140.000000
217.000000 144.000000
207.000000 151.000000
192.000000 151.000000
116.000000 238.000000
127.000000 228.000000
148.000000 220.000000
159.000000 220.000000
167.000000 220.000000
188.000000 224.000000
207.000000 235.000000
188.000000 253.000000
177.000000 260.000000
159.000000 264.000000
145.000000 264.000000
134.000000 257.000000
119.000000 238.000000
145.000000 231.000000
159.000000 231.000000
174.000000 231.000000
203.000000 235.000000
174.000000 249.000000
159.000000 249.000000
145.000000 249.000000
}
