version: 1
n_points: 68
{
59.000000 167.000000
63.000000 192.000000
66.000000 214.000000
74.000000 236.000000
81.000000 262.000000
95.000000 280.000000
110.000000 291.000000
128.000000 298.000000
157.000000 306.000000
187.000000 298.000000
209.000000 287.000000
223.000000 276.000000
238.000000 254.000000
245.000000 229.000000
249.000000 203.000000
256.000000 181.000000
260.000000 156.000000
74.000000 134.000000
84.000000 123.000000
99.000000 116.000000
114.000000 116.000000
125.000000 119.000000
179.000000 116.000000
190.000000 112.000000
205.000000 112.000000
223.000000 116.000000
234.000000 127.000000
154.000000 149.000000
150.000000 163.000000
150.000000 178.000000
150.000000 192.000000
136.000000 203.000000
143.000000 203.000000
154.000000 207.000000
165.000000 203.000000
172.000000 203.000000
95.000000 152.000000
103.000000 149.000000
114.000000 149.000000
128.000000 152.000000
117.000000 156.000000
103.000000 156.000000
183.000000 149.000000
194.000000 145.000000
205.000000 141.000000
216.000000 149.000000
205.000000 152.000000
190.000000 152.000000
117.000000 240.000000
125.000000 229.000000
143.000000 222.000000
154.000000 222.000000
161.000000 222.000000
183.000000 229.000000
194.000000 243.000000
179.000000 258.000000
168.000000 265.000000
154.000000 265.000000
139.000000 265.000000
128.000000 258.000000
117.000000 240.000000
139.000000 233.000000
154.000000 233.000000
165.000000 233.000000
190.000000 243.000000
165.000000 251.000000
154.000000 254.000000
139.000000 254.000000
}
