version: 1
n_points: 68
{
56.000000 163.000000
60.000000 192.000000
67.000000 214.000000
75.000000 236.000000
82.000000 261.000000
100.000000 279.000000
114.000000 287.000000
133.000000 294.000000
162.000000 305.000000
194.000000 294.000000
212.000000 283.000000
227.000000 272.000000
241.000000 250.000000
249.000000 225.000000
252.000000 203.000000
256.000000 178.000000
260.000000 152.000000
75.000000 131.000000
82.000000 116.000000
96.000000 109.000000
111.000000 109.000000
125.000000 109.000000
180.000000 105.000000
194.000000 105.000000
209.000000 105.000000
223.000000 109.000000
234.000000 123.000000
154.000000 145.000000
151.000000 163.000000
151.000000 178.000000
151.000000 189.000000
136.000000 203.000000
144.000000 203.000000
154.000000 207.000000
165.000000 203.000000
176.000000 203.000000
93.000000 152.000000
100.000000 149.000000
114.000000 145.000000
125.000000 152.000000
114.000000 156.000000
104.000000 156.000000
183.000000 149.000000
194.000000 142.000000
205.000000 142.000000
216.000000 145.000000
205.000000 152.000000
191.000000 152.000000
118.000000 239.000000
129.000000 229.000000
147.000000 221.000000
158.000000 221.000000
165.000000 221.000000
187.000000 225.000000
202.000000 236.000000
187.000000 254.000000
173.000000 261.000000
158.000000 265.000000
144.000000 265.000000
133.000000 258.000000
122.000000 239.000000
144.000000 232.000000
158.000000 229.000000
173.000000 232.000000
202.000000 236.000000
173.000000 250.000000
158.000000 250.000000
147.000000 250.000000
}
