version: 1
n_points: 68
{
60.000000 166.000000
60.000000 192.000000
67.000000 213.000000
74.000000 239.000000
81.000000 261.000000
96.000000 279.000000
110.000000 290.000000
129.000000 297.000000
161.000000 304.000000
190.000000 297.000000
212.000000 286.000000
227.000000 275.000000
241.000000 253.000000
249.000000 228.000000
252.000000 202.000000
256.000000 181.000000
259.000000 152.000000
74.000000 133.000000
85.000000 122.000000
100.000000 115.000000
114.000000 115.000000
125.000000 119.000000
179.000000 115.000000
190.000000 112.000000
205.000000 112.000000
223.000000 115.000000
234.000000 126.000000
154.000000 148.000000
150.000000 162.000000
150.000000 177.000000
150.000000 192.000000
136.000000 202.000000
143.000000 206.000000
154.000000 206.000000
165.000000 206.000000
172.000000 202.000000
92.000000 152.000000
103.000000 148.000000
114.000000 148.000000
129.000000 152.000000
118.000000 155.000000
103.000000 155.000000
183.000000 148.000000
194.000000 144.000000
205.000000 144.000000
216.000000 148.000000
205.000000 152.000000
190.000000 152.000000
118.000000 242.000000
129.000000 228.000000
143.000000 221.000000
154.000000 221.000000
165.000000 221.000000
183.000000 228.000000
198.000000 239.000000
183.000000 257.000000
169.000000 264.000000
154.000000 268.000000
143.000000 264.000000
129.000000 257.000000
118.000000 242.000000
143.000000 231.000000
154.000000 231.000000
169.000000 231.000000
194.000000 239.000000
169.000000 253.000000
154.000000 253.000000
143.000000 253.000000
}
