version: 1
n_points: 68
{
59.000000 164.000000
59.000000 190.000000
66.000000 212.000000
73.000000 238.000000
81.000000 260.000000
99.000000 278.000000
114.000000 286.000000
132.000000 297.000000
162.000000 304.000000
195.000000 297.000000
213.000000 282.000000
228.000000 271.000000
243.000000 249.000000
250.000000 227.000000
254.000000 201.000000
258.000000 179.000000
258.000000 149.000000
73.000000 127.000000
81.000000 113.000000
95.000000 105.000000
110.000000 105.000000
125.000000 105.000000
180.000000 101.000000
191.000000 98.000000
206.000000 98.000000
224.000000 105.000000
235.000000 120.000000
151.000000 146.000000
151.000000 164.000000
151.000000 175.000000
151.000000 190.000000
140.000000 205.000000
147.000000 205.000000
154.000000 208.000000
165.000000 205.000000
177.000000 201.000000
92.000000 153.000000
103.000000 146.000000
114.000000 146.000000
125.000000 149.000000
118.000000 153.000000
103.000000 157.000000
180.000000 146.000000
195.000000 142.000000
206.000000 142.000000
217.000000 146.000000
206.000000 149.000000
191.000000 149.000000
118.000000 238.000000
129.000000 227.000000
147.000000 223.000000
158.000000 223.000000
165.000000 219.000000
188.000000 227.000000
206.000000 234.000000
188.000000 253.000000
177.000000 260.000000
162.000000 264.000000
147.000000 264.000000
132.000000 256.000000
121.000000 238.000000
143.000000 230.000000
158.000000 230.000000
173.000000 230.000000
202.000000 234.000000
173.000000 249.000000
158.000000 253.000000
147.000000 253.000000
}
