version: 1
n_points: 68
{
61.000000 159.000000
61.000000 188.000000
68.000000 210.000000
72.000000 231.000000
83.000000 256.000000
97.000000 274.000000
111.000000 285.000000
133.000000 296.000000
165.000000 303.000000
198.000000 292.000000
215.000000 281.000000
230.000000 271.000000
244.000000 249.000000
251.000000 224.000000
255.000000 202.000000
259.000000 177.000000
259.000000 152.000000
75.000000 123.000000
86.000000 105.000000
101.000000 98.000000
115.000000 95.000000
126.000000 98.000000
187.000000 95.000000
198.000000 91.000000
212.000000 95.000000
226.000000 102.000000
237.000000 116.000000
158.000000 145.000000
154.000000 163.000000
154.000000 177.000000
154.000000 192.000000
140.000000 202.000000
147.000000 206.000000
158.000000 206.000000
169.000000 202.000000
180.000000 202.000000
97.000000 149.000000
104.000000 145.000000
118.000000 145.000000
129.000000 149.000000
118.000000 152.000000
108.000000 152.000000
187.000000 145.000000
198.000000 141.000000
208.000000 141.000000
219.000000 145.000000
208.000000 149.000000
194.000000 149.000000
115.000000 235.000000
129.000000 228.000000
151.000000 220.000000
158.000000 220.000000
169.000000 220.000000
194.000000 224.000000
208.000000 231.000000
194.000000 249.000000
180.000000 260.000000
162.000000 263.000000
147.000000 263.000000
133.000000 253.000000
118.000000 235.000000
147.000000 231.000000
162.000000 228.000000
176.000000 228.000000
208.000000 231.000000
176.000000 246.000000
162.000000 249.000000
147.000000 249.000000
}
