version: 1
n_points: 68
{
57.000000 162.000000
61.000000 187.000000
68.000000 209.000000
72.000000 234.000000
82.000000 259.000000
97.000000 277.000000
111.000000 288.000000
133.000000 295.000000
165.000000 302.000000
197.000000 295.000000
215.000000 280.000000
229.000000 270.000000
244.000000 248.000000
251.000000 223.000000
254.000000 202.000000
258.000000 177.000000
258.000000 151.000000
75.000000 123.000000
86.000000 108.000000
100.000000 98.000000
115.000000 98.000000
125.000000 98.000000
183.000000 94.000000
197.000000 94.000000
211.000000 94.000000
226.000000 101.000000
236.000000 119.000000
154.000000 144.000000
154.000000 162.000000
154.000000 177.000000
154.000000 191.000000
140.000000 202.000000
147.000000 205.000000
158.000000 205.000000
168.000000 205.000000
179.000000 202.000000
97.000000 148.000000
104.000000 144.000000
118.000000 144.000000
129.000000 148.000000
118.000000 151.000000
104.000000 155.000000
186.000000 144.000000
197.000000 141.000000
208.000000 141.000000
219.000000 144.000000
208.000000 151.000000
193.000000 151.000000
115.000000 237.000000
129.000000 227.000000
150.000000 219.000000
158.000000 223.000000
168.000000 219.000000
190.000000 223.000000
208.000000 234.000000
193.000000 252.000000
176.000000 259.000000
161.000000 262.000000
147.000000 262.000000
133.000000 255.000000
118.000000 234.000000
147.000000 230.000000
161.000000 230.000000
176.000000 230.000000
204.000000 234.000000
176.000000 248.000000
161.000000 248.000000
147.000000 248.000000
}
