version: 1
n_points: 68
{
61.000000 160.000000
61.000000 185.000000
68.000000 210.000000
72.000000 231.000000
83.000000 257.000000
97.000000 275.000000
111.000000 285.000000
133.000000 293.000000
165.000000 303.000000
194.000000 293.000000
216.000000 282.000000
230.000000 267.000000
244.000000 249.000000
252.000000 224.000000
255.000000 203.000000
259.000000 178.000000
259.000000 152.000000
79.000000 120.000000
86.000000 106.000000
101.000000 98.000000
115.000000 95.000000
129.000000 98.000000
183.000000 95.000000
198.000000 91.000000
212.000000 95.000000
226.000000 102.000000
237.000000 116.000000
158.000000 145.000000
154.000000 163.000000
154.000000 178.000000
154.000000 192.000000
140.000000 203.000000
147.000000 203.000000
158.000000 206.000000
169.000000 203.000000
180.000000 203.000000
97.000000 149.000000
104.000000 145.000000
118.000000 145.000000
129.000000 149.000000
118.000000 152.000000
108.000000 152.000000
187.000000 145.000000
198.000000 142.000000
208.000000 142.000000
219.000000 145.000000
208.000000 149.000000
194.000000 149.000000
115.000000 235.000000
129.000000 224.000000
151.000000 221.000000
158.000000 221.000000
169.000000 221.000000
194.000000 224.000000
208.000000 231.000000
194.000000 249.000000
180.000000 257.000000
162.000000 260.000000
147.000000 260.000000
133.000000 253.000000
118.000000 235.000000
147.000000 228.000000
162.000000 228.000000
176.000000 228.000000
208.000000 231.000000
176.000000 246.000000
162.000000 249.000000
147.000000 249.000000
}
