version: 1
n_points: 68
{
59.000000 156.000000
62.000000 185.000000
66.000000 210.000000
73.000000 231.000000
80.000000 256.000000
94.000000 274.000000
112.000000 284.000000
133.000000 295.000000
165.000000 302.000000
194.000000 291.000000
215.000000 281.000000
230.000000 267.000000
244.000000 249.000000
251.000000 224.000000
254.000000 202.000000
258.000000 178.000000
258.000000 153.000000
76.000000 121.000000
87.000000 106.000000
101.000000 96.000000
116.000000 96.000000
126.000000 96.000000
187.000000 96.000000
198.000000 92.000000
212.000000 96.000000
230.000000 103.000000
240.000000 117.000000
158.000000 145.000000
155.000000 163.000000
155.000000 178.000000
155.000000 192.000000
141.000000 202.000000
148.000000 202.000000
158.000000 206.000000
169.000000 202.000000
180.000000 202.000000
98.000000 149.000000
105.000000 145.000000
119.000000 145.000000
130.000000 149.000000
119.000000 153.000000
105.000000 153.000000
187.000000 145.000000
198.000000 142.000000
208.000000 142.000000
219.000000 145.000000
208.000000 149.000000
198.000000 149.000000
116.000000 234.000000
130.000000 224.000000
151.000000 220.000000
158.000000 220.000000
169.000000 220.000000
194.000000 224.000000
208.000000 231.000000
194.000000 249.000000
180.000000 256.000000
162.000000 259.000000
148.000000 259.000000
133.000000 252.000000
119.000000 234.000000
148.000000 231.000000
162.000000 227.000000
176.000000 227.000000
208.000000 231.000000
176.000000 245.000000
162.000000 245.000000
148.000000 245.000000
}
