version: 1
n_points: 68
{
57.000000 162.000000
61.000000 187.000000
68.000000 209.000000
72.000000 234.000000
82.000000 256.000000
97.000000 277.000000
111.000000 288.000000
133.000000 295.000000
165.000000 303.000000
194.000000 295.000000
216.000000 281.000000
230.000000 270.000000
245.000000 249.000000
252.000000 223.000000
255.000000 202.000000
259.000000 176.000000
259.000000 151.000000
75.000000 122.000000
86.000000 108.000000
100.000000 97.000000
115.000000 97.000000
126.000000 97.000000
183.000000 97.000000
198.000000 94.000000
212.000000 94.000000
227.000000 101.000000
237.000000 119.000000
154.000000 144.000000
154.000000 162.000000
154.000000 176.000000
154.000000 191.000000
140.000000 202.000000
147.000000 205.000000
158.000000 205.000000
169.000000 205.000000
176.000000 202.000000
97.000000 148.000000
104.000000 144.000000
118.000000 144.000000
129.000000 148.000000
118.000000 155.000000
104.000000 155.000000
183.000000 148.000000
198.000000 140.000000
209.000000 140.000000
219.000000 144.000000
209.000000 151.000000
194.000000 151.000000
115.000000 234.000000
129.000000 227.000000
147.000000 220.000000
158.000000 223.000000
169.000000 220.000000
191.000000 223.000000
209.000000 231.000000
194.000000 249.000000
176.000000 259.000000
162.000000 263.000000
147.000000 263.000000
133.000000 256.000000
118.000000 234.000000
147.000000 231.000000
162.000000 231.000000
176.000000 231.000000
209.000000 231.000000
176.000000 249.000000
162.000000 249.000000
147.000000 249.000000
}
