version: 1
n_points: 68
{
58.000000 160.000000
62.000000 185.000000
69.000000 210.000000
72.000000 231.000000
83.000000 257.000000
97.000000 274.000000
112.000000 285.000000
133.000000 296.000000
165.000000 303.000000
194.000000 292.000000
216.000000 282.000000
230.000000 267.000000
244.000000 249.000000
251.000000 224.000000
255.000000 203.000000
259.000000 178.000000
259.000000 153.000000
76.000000 120.000000
87.000000 106.000000
101.000000 99.000000
115.000000 95.000000
126.000000 99.000000
183.000000 95.000000
198.000000 92.000000
212.000000 95.000000
226.000000 103.000000
237.000000 117.000000
158.000000 146.000000
155.000000 163.000000
155.000000 178.000000
155.000000 192.000000
140.000000 203.000000
148.000000 206.000000
158.000000 206.000000
169.000000 203.000000
180.000000 203.000000
97.000000 149.000000
105.000000 146.000000
119.000000 146.000000
130.000000 149.000000
119.000000 153.000000
105.000000 153.000000
187.000000 146.000000
198.000000 142.000000
208.000000 142.000000
219.000000 146.000000
208.000000 149.000000
194.000000 149.000000
115.000000 235.000000
130.000000 224.000000
151.000000 221.000000
158.000000 221.000000
169.000000 221.000000
194.000000 224.000000
208.000000 231.000000
194.000000 249.000000
180.000000 257.000000
162.000000 260.000000
148.000000 260.000000
133.000000 253.000000
119.000000 235.000000
144.000000 228.000000
162.000000 228.000000
176.000000 228.000000
208.000000 231.000000
176.000000 246.000000
162.000000 249.000000
148.000000 249.000000
}
