version: 1
n_points: 68
{
58.000000 166.000000
62.000000 188.000000
70.000000 215.000000
77.000000 237.000000
85.000000 259.000000
100.000000 278.000000
118.000000 286.000000
137.000000 297.000000
171.000000 308.000000
201.000000 297.000000
216.000000 282.000000
227.000000 271.000000
242.000000 252.000000
249.000000 226.000000
253.000000 203.000000
257.000000 181.000000
260.000000 155.000000
77.000000 125.000000
85.000000 114.000000
100.000000 106.000000
115.000000 106.000000
129.000000 106.000000
182.000000 106.000000
197.000000 102.000000
208.000000 102.000000
227.000000 106.000000
238.000000 121.000000
156.000000 140.000000
156.000000 155.000000
156.000000 166.000000
156.000000 181.000000
141.000000 200.000000
148.000000 196.000000
159.000000 200.000000
167.000000 196.000000
174.000000 196.000000
96.000000 147.000000
107.000000 140.000000
118.000000 140.000000
129.000000 143.000000
118.000000 147.000000
107.000000 147.000000
186.000000 140.000000
197.000000 136.000000
208.000000 136.000000
219.000000 140.000000
208.000000 143.000000
193.000000 143.000000
133.000000 252.000000
137.000000 226.000000
152.000000 215.000000
159.000000 215.000000
167.000000 215.000000
182.000000 226.000000
189.000000 248.000000
182.000000 271.000000
174.000000 282.000000
159.000000 286.000000
148.000000 286.000000
141.000000 274.000000
133.000000 252.000000
152.000000 230.000000
159.000000 226.000000
171.000000 226.000000
189.000000 248.000000
171.000000 271.000000
159.000000 274.000000
152.000000 271.000000
}
