version: 1
n_points: 68
{
59.000000 160.000000
62.000000 185.000000
70.000000 210.000000
73.000000 231.000000
84.000000 256.000000
98.000000 274.000000
112.000000 285.000000
134.000000 295.000000
166.000000 303.000000
195.000000 295.000000
216.000000 281.000000
230.000000 270.000000
245.000000 249.000000
252.000000 224.000000
255.000000 202.000000
259.000000 177.000000
259.000000 152.000000
77.000000 120.000000
87.000000 106.000000
102.000000 99.000000
116.000000 95.000000
130.000000 99.000000
188.000000 95.000000
198.000000 92.000000
213.000000 95.000000
230.000000 102.000000
241.000000 117.000000
159.000000 145.000000
155.000000 163.000000
155.000000 177.000000
155.000000 192.000000
141.000000 202.000000
148.000000 206.000000
159.000000 206.000000
170.000000 206.000000
180.000000 202.000000
98.000000 149.000000
105.000000 145.000000
120.000000 145.000000
130.000000 149.000000
120.000000 152.000000
109.000000 152.000000
188.000000 145.000000
198.000000 142.000000
209.000000 142.000000
220.000000 145.000000
209.000000 149.000000
198.000000 149.000000
116.000000 235.000000
130.000000 224.000000
152.000000 220.000000
162.000000 220.000000
170.000000 220.000000
195.000000 224.000000
209.000000 231.000000
195.000000 249.000000
180.000000 256.000000
162.000000 260.000000
148.000000 260.000000
134.000000 252.000000
120.000000 235.000000
148.000000 231.000000
162.000000 227.000000
177.000000 227.000000
209.000000 231.000000
177.000000 245.000000
162.000000 249.000000
148.000000 249.000000
}
