version: 1
n_points: 68
{
58.000000 162.000000
62.000000 187.000000
69.000000 209.000000
72.000000 234.000000
83.000000 255.000000
98.000000 273.000000
112.000000 288.000000
130.000000 295.000000
162.000000 302.000000
195.000000 295.000000
213.000000 281.000000
231.000000 270.000000
242.000000 252.000000
252.000000 227.000000
256.000000 201.000000
260.000000 176.000000
260.000000 151.000000
76.000000 122.000000
87.000000 108.000000
101.000000 101.000000
116.000000 97.000000
126.000000 101.000000
188.000000 97.000000
198.000000 93.000000
213.000000 97.000000
227.000000 104.000000
238.000000 119.000000
155.000000 144.000000
155.000000 162.000000
155.000000 180.000000
155.000000 191.000000
141.000000 205.000000
148.000000 205.000000
159.000000 209.000000
170.000000 205.000000
180.000000 201.000000
98.000000 147.000000
105.000000 144.000000
119.000000 144.000000
130.000000 147.000000
119.000000 155.000000
105.000000 155.000000
184.000000 147.000000
198.000000 144.000000
209.000000 140.000000
220.000000 144.000000
209.000000 151.000000
195.000000 151.000000
116.000000 237.000000
130.000000 227.000000
152.000000 219.000000
159.000000 223.000000
170.000000 219.000000
191.000000 223.000000
209.000000 234.000000
191.000000 252.000000
177.000000 259.000000
162.000000 259.000000
148.000000 259.000000
134.000000 252.000000
119.000000 234.000000
144.000000 230.000000
159.000000 230.000000
177.000000 230.000000
206.000000 234.000000
177.000000 245.000000
162.000000 248.000000
148.000000 248.000000
}
