version: 1
n_points: 68
{
57.000000 163.000000
61.000000 186.000000
65.000000 209.000000
73.000000 229.000000
84.000000 249.000000
104.000000 264.000000
119.000000 264.000000
135.000000 264.000000
166.000000 268.000000
190.000000 256.000000
209.000000 256.000000
225.000000 252.000000
241.000000 241.000000
252.000000 221.000000
256.000000 198.000000
260.000000 174.000000
264.000000 151.000000
73.000000 112.000000
84.000000 96.000000
100.000000 88.000000
112.000000 84.000000
123.000000 84.000000
178.000000 84.000000
194.000000 81.000000
205.000000 84.000000
221.000000 88.000000
237.000000 104.000000
151.000000 116.000000
151.000000 127.000000
151.000000 139.000000
151.000000 155.000000
139.000000 174.000000
147.000000 174.000000
155.000000 174.000000
162.000000 174.000000
170.000000 174.000000
92.000000 131.000000
104.000000 124.000000
116.000000 124.000000
127.000000 127.000000
116.000000 131.000000
104.000000 131.000000
182.000000 124.000000
194.000000 120.000000
205.000000 120.000000
217.000000 124.000000
205.000000 127.000000
190.000000 127.000000
131.000000 221.000000
139.000000 206.000000
147.000000 194.000000
155.000000 194.000000
162.000000 194.000000
174.000000 206.000000
182.000000 221.000000
178.000000 221.000000
170.000000 213.000000
170.000000 213.000000
155.000000 213.000000
139.000000 217.000000
135.000000 221.000000
147.000000 206.000000
155.000000 206.000000
162.000000 206.000000
182.000000 221.000000
166.000000 206.000000
158.000000 202.000000
155.000000 206.000000
}
