version: 1
n_points: 68
{
59.000000 162.000000
63.000000 188.000000
67.000000 211.000000
74.000000 234.000000
86.000000 253.000000
101.000000 269.000000
116.000000 276.000000
135.000000 280.000000
174.000000 288.000000
197.000000 280.000000
212.000000 273.000000
227.000000 261.000000
243.000000 246.000000
250.000000 223.000000
254.000000 200.000000
258.000000 177.000000
262.000000 150.000000
74.000000 123.000000
86.000000 108.000000
101.000000 100.000000
112.000000 100.000000
128.000000 100.000000
181.000000 100.000000
197.000000 97.000000
208.000000 97.000000
223.000000 100.000000
239.000000 116.000000
155.000000 131.000000
155.000000 146.000000
155.000000 158.000000
155.000000 173.000000
143.000000 192.000000
151.000000 192.000000
158.000000 192.000000
166.000000 188.000000
174.000000 188.000000
97.000000 139.000000
105.000000 135.000000
116.000000 131.000000
128.000000 139.000000
120.000000 142.000000
105.000000 142.000000
185.000000 135.000000
197.000000 131.000000
208.000000 131.000000
220.000000 135.000000
208.000000 139.000000
193.000000 139.000000
135.000000 246.000000
139.000000 223.000000
151.000000 208.000000
158.000000 208.000000
166.000000 208.000000
178.000000 219.000000
189.000000 242.000000
181.000000 261.000000
178.000000 276.000000
166.000000 280.000000
151.000000 280.000000
143.000000 269.000000
135.000000 246.000000
151.000000 219.000000
158.000000 219.000000
170.000000 223.000000
185.000000 242.000000
174.000000 265.000000
162.000000 273.000000
155.000000 269.000000
}
