version: 1
n_points: 68
{
57.000000 161.000000
61.000000 184.000000
69.000000 208.000000
73.000000 228.000000
85.000000 251.000000
105.000000 263.000000
120.000000 267.000000
140.000000 267.000000
168.000000 267.000000
191.000000 259.000000
211.000000 259.000000
227.000000 251.000000
243.000000 239.000000
251.000000 220.000000
259.000000 200.000000
262.000000 172.000000
266.000000 149.000000
73.000000 109.000000
81.000000 94.000000
97.000000 82.000000
113.000000 78.000000
124.000000 82.000000
180.000000 78.000000
191.000000 74.000000
207.000000 78.000000
223.000000 86.000000
235.000000 101.000000
152.000000 109.000000
152.000000 121.000000
148.000000 129.000000
152.000000 145.000000
140.000000 169.000000
148.000000 169.000000
156.000000 169.000000
164.000000 165.000000
172.000000 165.000000
93.000000 125.000000
105.000000 117.000000
113.000000 117.000000
128.000000 121.000000
117.000000 125.000000
105.000000 129.000000
180.000000 117.000000
191.000000 113.000000
203.000000 113.000000
215.000000 117.000000
203.000000 121.000000
191.000000 121.000000
132.000000 224.000000
136.000000 200.000000
148.000000 188.000000
156.000000 188.000000
160.000000 184.000000
176.000000 200.000000
184.000000 216.000000
180.000000 220.000000
172.000000 216.000000
136.000000 192.000000
156.000000 212.000000
140.000000 216.000000
132.000000 220.000000
148.000000 200.000000
156.000000 196.000000
164.000000 200.000000
184.000000 216.000000
168.000000 208.000000
160.000000 196.000000
156.000000 204.000000
}
