version: 1
n_points: 68
{
57.000000 161.000000
61.000000 181.000000
65.000000 204.000000
73.000000 227.000000
84.000000 250.000000
104.000000 261.000000
119.000000 265.000000
138.000000 265.000000
165.000000 265.000000
188.000000 258.000000
212.000000 254.000000
227.000000 250.000000
242.000000 234.000000
254.000000 215.000000
258.000000 196.000000
262.000000 173.000000
265.000000 150.000000
73.000000 107.000000
81.000000 92.000000
96.000000 80.000000
111.000000 77.000000
123.000000 77.000000
181.000000 73.000000
192.000000 73.000000
208.000000 77.000000
223.000000 84.000000
235.000000 100.000000
154.000000 104.000000
150.000000 115.000000
150.000000 127.000000
150.000000 138.000000
138.000000 165.000000
146.000000 165.000000
154.000000 165.000000
161.000000 161.000000
169.000000 165.000000
92.000000 123.000000
104.000000 115.000000
115.000000 115.000000
127.000000 119.000000
115.000000 123.000000
104.000000 127.000000
181.000000 115.000000
192.000000 111.000000
204.000000 111.000000
215.000000 119.000000
204.000000 119.000000
192.000000 119.000000
131.000000 223.000000
134.000000 196.000000
146.000000 184.000000
154.000000 184.000000
161.000000 184.000000
177.000000 196.000000
185.000000 215.000000
181.000000 219.000000
173.000000 215.000000
134.000000 192.000000
154.000000 208.000000
138.000000 215.000000
131.000000 219.000000
146.000000 196.000000
158.000000 196.000000
165.000000 196.000000
185.000000 215.000000
169.000000 204.000000
161.000000 204.000000
158.000000 204.000000
}
