version: 1
n_points: 68
{
57.000000 163.000000
61.000000 187.000000
69.000000 207.000000
73.000000 231.000000
84.000000 251.000000
104.000000 266.000000
124.000000 266.000000
140.000000 270.000000
168.000000 266.000000
191.000000 262.000000
211.000000 258.000000
227.000000 254.000000
243.000000 239.000000
251.000000 219.000000
259.000000 199.000000
263.000000 175.000000
267.000000 148.000000
73.000000 112.000000
80.000000 96.000000
96.000000 84.000000
112.000000 80.000000
124.000000 80.000000
179.000000 80.000000
191.000000 76.000000
207.000000 80.000000
223.000000 84.000000
235.000000 100.000000
152.000000 112.000000
152.000000 124.000000
152.000000 132.000000
152.000000 148.000000
140.000000 171.000000
148.000000 167.000000
156.000000 167.000000
164.000000 167.000000
172.000000 167.000000
92.000000 128.000000
104.000000 120.000000
112.000000 120.000000
128.000000 124.000000
116.000000 128.000000
104.000000 128.000000
179.000000 120.000000
191.000000 116.000000
203.000000 116.000000
215.000000 120.000000
203.000000 124.000000
191.000000 124.000000
132.000000 227.000000
140.000000 203.000000
148.000000 191.000000
156.000000 191.000000
160.000000 187.000000
176.000000 199.000000
183.000000 219.000000
179.000000 223.000000
172.000000 219.000000
140.000000 199.000000
156.000000 215.000000
140.000000 219.000000
132.000000 223.000000
148.000000 203.000000
156.000000 199.000000
164.000000 203.000000
183.000000 219.000000
168.000000 207.000000
160.000000 199.000000
156.000000 203.000000
}
