version: 1
n_points: 68
{
60.000000 161.000000
64.000000 188.000000
68.000000 211.000000
75.000000 234.000000
83.000000 257.000000
98.000000 272.000000
117.000000 276.000000
132.000000 283.000000
170.000000 295.000000
201.000000 283.000000
212.000000 272.000000
227.000000 264.000000
243.000000 245.000000
250.000000 222.000000
254.000000 203.000000
258.000000 177.000000
262.000000 150.000000
75.000000 123.000000
87.000000 112.000000
102.000000 104.000000
117.000000 101.000000
128.000000 104.000000
182.000000 101.000000
197.000000 97.000000
208.000000 101.000000
224.000000 104.000000
239.000000 116.000000
155.000000 135.000000
155.000000 150.000000
155.000000 165.000000
155.000000 177.000000
144.000000 196.000000
147.000000 196.000000
159.000000 196.000000
166.000000 192.000000
174.000000 192.000000
94.000000 142.000000
106.000000 135.000000
117.000000 135.000000
128.000000 142.000000
121.000000 146.000000
106.000000 146.000000
185.000000 139.000000
197.000000 131.000000
208.000000 131.000000
220.000000 139.000000
208.000000 142.000000
197.000000 142.000000
136.000000 249.000000
140.000000 222.000000
151.000000 211.000000
159.000000 211.000000
166.000000 211.000000
182.000000 222.000000
189.000000 245.000000
182.000000 268.000000
174.000000 279.000000
163.000000 283.000000
151.000000 279.000000
140.000000 268.000000
136.000000 249.000000
151.000000 222.000000
159.000000 222.000000
170.000000 222.000000
185.000000 245.000000
170.000000 268.000000
163.000000 272.000000
151.000000 272.000000
}
