version: 1
n_points: 68
{
59.000000 159.000000
63.000000 178.000000
67.000000 201.000000
74.000000 224.000000
86.000000 247.000000
105.000000 258.000000
120.000000 262.000000
135.000000 262.000000
162.000000 262.000000
189.000000 254.000000
212.000000 254.000000
227.000000 251.000000
242.000000 235.000000
254.000000 216.000000
257.000000 197.000000
265.000000 174.000000
265.000000 148.000000
74.000000 106.000000
82.000000 90.000000
97.000000 79.000000
113.000000 75.000000
124.000000 75.000000
181.000000 75.000000
193.000000 71.000000
208.000000 75.000000
223.000000 83.000000
238.000000 98.000000
155.000000 102.000000
151.000000 113.000000
151.000000 125.000000
151.000000 136.000000
139.000000 163.000000
147.000000 159.000000
155.000000 159.000000
166.000000 159.000000
174.000000 159.000000
94.000000 121.000000
101.000000 113.000000
116.000000 113.000000
128.000000 117.000000
116.000000 121.000000
105.000000 125.000000
181.000000 113.000000
193.000000 109.000000
204.000000 109.000000
216.000000 117.000000
204.000000 117.000000
193.000000 117.000000
128.000000 216.000000
135.000000 193.000000
147.000000 182.000000
155.000000 182.000000
162.000000 178.000000
177.000000 193.000000
189.000000 212.000000
181.000000 216.000000
174.000000 212.000000
170.000000 209.000000
155.000000 205.000000
135.000000 212.000000
128.000000 216.000000
147.000000 193.000000
158.000000 193.000000
166.000000 193.000000
185.000000 212.000000
170.000000 201.000000
158.000000 201.000000
158.000000 201.000000
}
