version: 1
n_points: 68
{
58.000000 158.000000
62.000000 181.000000
69.000000 204.000000
73.000000 223.000000
85.000000 247.000000
104.000000 258.000000
120.000000 262.000000
135.000000 266.000000
162.000000 266.000000
189.000000 258.000000
213.000000 254.000000
228.000000 251.000000
244.000000 235.000000
251.000000 216.000000
259.000000 196.000000
263.000000 173.000000
267.000000 150.000000
73.000000 103.000000
81.000000 88.000000
97.000000 80.000000
112.000000 76.000000
127.000000 76.000000
182.000000 72.000000
193.000000 72.000000
209.000000 72.000000
224.000000 80.000000
236.000000 100.000000
155.000000 103.000000
151.000000 115.000000
151.000000 127.000000
151.000000 138.000000
139.000000 161.000000
147.000000 161.000000
155.000000 161.000000
162.000000 161.000000
170.000000 161.000000
97.000000 123.000000
104.000000 115.000000
116.000000 115.000000
127.000000 119.000000
116.000000 123.000000
104.000000 123.000000
182.000000 115.000000
193.000000 111.000000
205.000000 111.000000
217.000000 115.000000
205.000000 119.000000
193.000000 119.000000
131.000000 220.000000
135.000000 196.000000
147.000000 185.000000
155.000000 185.000000
162.000000 181.000000
178.000000 192.000000
189.000000 216.000000
182.000000 220.000000
174.000000 216.000000
170.000000 227.000000
155.000000 212.000000
139.000000 216.000000
131.000000 216.000000
151.000000 196.000000
158.000000 192.000000
166.000000 196.000000
186.000000 216.000000
170.000000 204.000000
162.000000 204.000000
158.000000 204.000000
}
