version: 1
n_points: 68
{
59.000000 160.000000
63.000000 179.000000
67.000000 202.000000
74.000000 221.000000
86.000000 244.000000
105.000000 259.000000
120.000000 263.000000
135.000000 263.000000
158.000000 263.000000
188.000000 255.000000
211.000000 251.000000
226.000000 247.000000
241.000000 232.000000
253.000000 213.000000
257.000000 194.000000
264.000000 171.000000
264.000000 149.000000
74.000000 103.000000
82.000000 88.000000
97.000000 80.000000
112.000000 76.000000
127.000000 76.000000
181.000000 73.000000
192.000000 73.000000
207.000000 73.000000
222.000000 80.000000
238.000000 99.000000
154.000000 103.000000
154.000000 114.000000
150.000000 122.000000
150.000000 137.000000
139.000000 160.000000
146.000000 160.000000
154.000000 160.000000
165.000000 160.000000
173.000000 160.000000
93.000000 122.000000
105.000000 114.000000
116.000000 114.000000
127.000000 118.000000
116.000000 122.000000
105.000000 122.000000
181.000000 114.000000
192.000000 111.000000
207.000000 111.000000
215.000000 114.000000
203.000000 118.000000
192.000000 118.000000
127.000000 217.000000
135.000000 190.000000
146.000000 179.000000
154.000000 179.000000
162.000000 179.000000
181.000000 190.000000
192.000000 213.000000
181.000000 221.000000
173.000000 217.000000
165.000000 225.000000
154.000000 217.000000
143.000000 221.000000
127.000000 217.000000
146.000000 190.000000
158.000000 190.000000
165.000000 194.000000
188.000000 213.000000
173.000000 206.000000
162.000000 202.000000
158.000000 202.000000
}
