version: 1
n_points: 68
{
59.000000 160.000000
63.000000 179.000000
67.000000 202.000000
74.000000 221.000000
86.000000 244.000000
105.000000 259.000000
120.000000 259.000000
135.000000 259.000000
162.000000 259.000000
189.000000 252.000000
212.000000 252.000000
227.000000 248.000000
246.000000 233.000000
254.000000 213.000000
257.000000 194.000000
265.000000 171.000000
265.000000 149.000000
74.000000 107.000000
82.000000 91.000000
97.000000 80.000000
112.000000 76.000000
124.000000 76.000000
181.000000 72.000000
193.000000 72.000000
208.000000 72.000000
223.000000 80.000000
238.000000 99.000000
154.000000 103.000000
151.000000 114.000000
151.000000 126.000000
151.000000 137.000000
139.000000 160.000000
147.000000 160.000000
154.000000 160.000000
162.000000 160.000000
170.000000 160.000000
93.000000 122.000000
101.000000 114.000000
116.000000 114.000000
128.000000 118.000000
116.000000 122.000000
105.000000 122.000000
181.000000 114.000000
193.000000 110.000000
204.000000 110.000000
215.000000 114.000000
204.000000 118.000000
193.000000 118.000000
128.000000 213.000000
135.000000 191.000000
147.000000 179.000000
154.000000 179.000000
162.000000 179.000000
177.000000 191.000000
189.000000 213.000000
181.000000 213.000000
173.000000 210.000000
170.000000 206.000000
154.000000 206.000000
135.000000 210.000000
128.000000 213.000000
147.000000 191.000000
154.000000 191.000000
166.000000 194.000000
185.000000 210.000000
170.000000 198.000000
162.000000 194.000000
158.000000 194.000000
}
