version: 1
n_points: 68
{
57.000000 159.000000
61.000000 178.000000
68.000000 200.000000
76.000000 223.000000
87.000000 245.000000
106.000000 257.000000
121.000000 260.000000
136.000000 260.000000
162.000000 257.000000
188.000000 253.000000
211.000000 253.000000
229.000000 249.000000
244.000000 234.000000
252.000000 212.000000
259.000000 193.000000
263.000000 170.000000
267.000000 148.000000
76.000000 103.000000
83.000000 88.000000
98.000000 81.000000
113.000000 77.000000
128.000000 77.000000
184.000000 73.000000
196.000000 73.000000
211.000000 73.000000
225.000000 84.000000
240.000000 99.000000
154.000000 103.000000
154.000000 114.000000
154.000000 122.000000
154.000000 137.000000
143.000000 159.000000
151.000000 159.000000
158.000000 159.000000
169.000000 156.000000
177.000000 159.000000
95.000000 122.000000
106.000000 114.000000
117.000000 114.000000
128.000000 118.000000
121.000000 122.000000
106.000000 122.000000
184.000000 114.000000
196.000000 111.000000
207.000000 111.000000
218.000000 118.000000
207.000000 118.000000
196.000000 118.000000
128.000000 215.000000
136.000000 189.000000
151.000000 174.000000
158.000000 178.000000
166.000000 174.000000
184.000000 189.000000
196.000000 219.000000
184.000000 223.000000
177.000000 215.000000
166.000000 271.000000
151.000000 275.000000
143.000000 223.000000
128.000000 215.000000
151.000000 189.000000
158.000000 185.000000
169.000000 189.000000
192.000000 215.000000
177.000000 208.000000
166.000000 204.000000
158.000000 200.000000
}
