version: 1
n_points: 68
{
58.000000 157.000000
62.000000 179.000000
66.000000 201.000000
73.000000 223.000000
84.000000 245.000000
99.000000 264.000000
110.000000 275.000000
128.000000 286.000000
165.000000 293.000000
198.000000 282.000000
216.000000 271.000000
227.000000 260.000000
242.000000 241.000000
250.000000 219.000000
253.000000 194.000000
257.000000 172.000000
261.000000 149.000000
77.000000 109.000000
84.000000 94.000000
102.000000 83.000000
113.000000 83.000000
128.000000 83.000000
183.000000 80.000000
194.000000 80.000000
209.000000 80.000000
224.000000 87.000000
235.000000 102.000000
154.000000 109.000000
154.000000 120.000000
154.000000 131.000000
154.000000 142.000000
139.000000 168.000000
147.000000 164.000000
158.000000 164.000000
169.000000 164.000000
176.000000 164.000000
95.000000 127.000000
106.000000 120.000000
117.000000 120.000000
128.000000 124.000000
121.000000 127.000000
106.000000 127.000000
183.000000 120.000000
194.000000 116.000000
205.000000 116.000000
216.000000 120.000000
205.000000 124.000000
194.000000 124.000000
124.000000 223.000000
132.000000 194.000000
147.000000 179.000000
158.000000 183.000000
169.000000 179.000000
187.000000 194.000000
202.000000 227.000000
191.000000 253.000000
176.000000 264.000000
161.000000 267.000000
147.000000 264.000000
135.000000 253.000000
124.000000 223.000000
147.000000 194.000000
158.000000 190.000000
172.000000 194.000000
202.000000 227.000000
176.000000 253.000000
161.000000 256.000000
150.000000 253.000000
}
