version: 1
n_points: 68
{
58.000000 158.000000
62.000000 180.000000
69.000000 202.000000
73.000000 221.000000
84.000000 243.000000
103.000000 261.000000
117.000000 265.000000
132.000000 276.000000
162.000000 287.000000
203.000000 272.000000
214.000000 261.000000
228.000000 254.000000
243.000000 235.000000
251.000000 213.000000
254.000000 195.000000
262.000000 173.000000
265.000000 147.000000
73.000000 106.000000
84.000000 91.000000
103.000000 84.000000
117.000000 80.000000
129.000000 80.000000
184.000000 76.000000
195.000000 76.000000
210.000000 76.000000
225.000000 87.000000
240.000000 102.000000
154.000000 106.000000
154.000000 117.000000
154.000000 128.000000
154.000000 139.000000
140.000000 161.000000
147.000000 161.000000
158.000000 161.000000
169.000000 161.000000
177.000000 161.000000
95.000000 124.000000
106.000000 117.000000
117.000000 117.000000
132.000000 121.000000
121.000000 124.000000
106.000000 124.000000
184.000000 117.000000
195.000000 113.000000
206.000000 113.000000
217.000000 121.000000
206.000000 121.000000
195.000000 121.000000
125.000000 224.000000
136.000000 195.000000
151.000000 180.000000
158.000000 180.000000
169.000000 180.000000
188.000000 195.000000
199.000000 228.000000
188.000000 261.000000
180.000000 272.000000
166.000000 276.000000
151.000000 272.000000
140.000000 261.000000
129.000000 224.000000
151.000000 191.000000
162.000000 191.000000
173.000000 191.000000
199.000000 228.000000
177.000000 261.000000
162.000000 265.000000
151.000000 261.000000
}
