version: 1
n_points: 68
{
57.000000 153.000000
61.000000 178.000000
68.000000 203.000000
75.000000 224.000000
82.000000 249.000000
96.000000 263.000000
110.000000 270.000000
128.000000 278.000000
164.000000 285.000000
196.000000 278.000000
217.000000 270.000000
231.000000 260.000000
246.000000 238.000000
253.000000 213.000000
256.000000 192.000000
260.000000 171.000000
260.000000 146.000000
78.000000 110.000000
89.000000 100.000000
103.000000 93.000000
117.000000 89.000000
132.000000 93.000000
185.000000 89.000000
196.000000 89.000000
214.000000 89.000000
228.000000 96.000000
238.000000 110.000000
157.000000 121.000000
157.000000 132.000000
157.000000 146.000000
157.000000 157.000000
142.000000 174.000000
150.000000 174.000000
160.000000 178.000000
171.000000 174.000000
178.000000 174.000000
96.000000 132.000000
107.000000 128.000000
121.000000 128.000000
132.000000 132.000000
121.000000 135.000000
107.000000 135.000000
185.000000 128.000000
196.000000 125.000000
210.000000 125.000000
217.000000 128.000000
210.000000 132.000000
196.000000 132.000000
117.000000 213.000000
128.000000 199.000000
150.000000 192.000000
160.000000 192.000000
171.000000 192.000000
192.000000 199.000000
210.000000 213.000000
192.000000 228.000000
178.000000 235.000000
164.000000 235.000000
146.000000 235.000000
132.000000 231.000000
117.000000 213.000000
146.000000 203.000000
160.000000 203.000000
178.000000 203.000000
206.000000 213.000000
178.000000 221.000000
164.000000 224.000000
150.000000 224.000000
}
