version: 1
n_points: 68
{
56.000000 158.000000
59.000000 180.000000
67.000000 201.000000
74.000000 227.000000
81.000000 248.000000
99.000000 266.000000
110.000000 273.000000
132.000000 284.000000
164.000000 291.000000
197.000000 281.000000
218.000000 270.000000
229.000000 259.000000
243.000000 241.000000
251.000000 216.000000
254.000000 194.000000
258.000000 169.000000
261.000000 147.000000
74.000000 108.000000
85.000000 97.000000
99.000000 86.000000
114.000000 82.000000
128.000000 82.000000
182.000000 82.000000
193.000000 79.000000
207.000000 82.000000
222.000000 89.000000
236.000000 104.000000
153.000000 111.000000
153.000000 122.000000
153.000000 133.000000
153.000000 144.000000
139.000000 165.000000
146.000000 165.000000
157.000000 169.000000
168.000000 165.000000
175.000000 165.000000
96.000000 126.000000
106.000000 122.000000
117.000000 118.000000
128.000000 126.000000
121.000000 126.000000
106.000000 129.000000
182.000000 122.000000
193.000000 118.000000
204.000000 118.000000
215.000000 122.000000
204.000000 126.000000
193.000000 126.000000
121.000000 219.000000
132.000000 194.000000
146.000000 180.000000
157.000000 183.000000
168.000000 180.000000
189.000000 194.000000
204.000000 219.000000
189.000000 241.000000
175.000000 248.000000
160.000000 252.000000
146.000000 248.000000
135.000000 241.000000
124.000000 219.000000
146.000000 194.000000
157.000000 190.000000
171.000000 194.000000
200.000000 219.000000
175.000000 237.000000
160.000000 237.000000
146.000000 237.000000
}
