version: 1
n_points: 68
{
58.000000 155.000000
62.000000 180.000000
65.000000 201.000000
72.000000 226.000000
83.000000 251.000000
97.000000 265.000000
111.000000 272.000000
129.000000 279.000000
165.000000 286.000000
197.000000 279.000000
218.000000 269.000000
232.000000 261.000000
246.000000 240.000000
253.000000 215.000000
257.000000 194.000000
261.000000 173.000000
264.000000 144.000000
76.000000 116.000000
87.000000 102.000000
104.000000 98.000000
118.000000 94.000000
133.000000 98.000000
186.000000 94.000000
197.000000 91.000000
214.000000 94.000000
229.000000 98.000000
243.000000 112.000000
158.000000 126.000000
158.000000 141.000000
158.000000 151.000000
158.000000 165.000000
143.000000 180.000000
150.000000 180.000000
161.000000 183.000000
172.000000 180.000000
182.000000 180.000000
97.000000 137.000000
108.000000 130.000000
122.000000 130.000000
133.000000 134.000000
122.000000 137.000000
108.000000 137.000000
186.000000 130.000000
197.000000 126.000000
211.000000 126.000000
218.000000 130.000000
211.000000 137.000000
197.000000 134.000000
118.000000 219.000000
129.000000 205.000000
150.000000 197.000000
161.000000 197.000000
172.000000 197.000000
193.000000 205.000000
211.000000 215.000000
193.000000 233.000000
179.000000 237.000000
165.000000 240.000000
147.000000 240.000000
133.000000 233.000000
118.000000 219.000000
147.000000 208.000000
161.000000 205.000000
179.000000 208.000000
207.000000 215.000000
179.000000 226.000000
165.000000 229.000000
147.000000 226.000000
}
