version: 1
n_points: 68
{
62.000000 154.000000
62.000000 180.000000
65.000000 205.000000
72.000000 227.000000
80.000000 252.000000
94.000000 270.000000
109.000000 281.000000
127.000000 288.000000
159.000000 295.000000
188.000000 291.000000
210.000000 284.000000
224.000000 273.000000
238.000000 255.000000
249.000000 230.000000
253.000000 205.000000
260.000000 183.000000
264.000000 158.000000
80.000000 118.000000
94.000000 108.000000
109.000000 104.000000
123.000000 104.000000
137.000000 108.000000
188.000000 108.000000
202.000000 108.000000
217.000000 108.000000
231.000000 115.000000
246.000000 126.000000
163.000000 136.000000
159.000000 154.000000
159.000000 169.000000
155.000000 180.000000
141.000000 194.000000
148.000000 194.000000
159.000000 198.000000
170.000000 198.000000
177.000000 194.000000
101.000000 140.000000
112.000000 136.000000
123.000000 136.000000
134.000000 144.000000
123.000000 144.000000
112.000000 147.000000
188.000000 144.000000
199.000000 140.000000
213.000000 140.000000
224.000000 144.000000
213.000000 151.000000
199.000000 147.000000
119.000000 230.000000
130.000000 219.000000
148.000000 212.000000
159.000000 212.000000
166.000000 212.000000
188.000000 219.000000
199.000000 234.000000
184.000000 245.000000
173.000000 248.000000
159.000000 252.000000
145.000000 252.000000
134.000000 245.000000
123.000000 230.000000
145.000000 223.000000
159.000000 223.000000
173.000000 223.000000
199.000000 234.000000
170.000000 237.000000
159.000000 237.000000
145.000000 237.000000
}
