version: 1
n_points: 68
{
57.000000 151.000000
61.000000 179.000000
65.000000 201.000000
72.000000 226.000000
79.000000 248.000000
93.000000 266.000000
108.000000 277.000000
126.000000 284.000000
155.000000 295.000000
187.000000 288.000000
209.000000 281.000000
223.000000 270.000000
238.000000 252.000000
249.000000 226.000000
252.000000 205.000000
260.000000 183.000000
263.000000 158.000000
79.000000 118.000000
90.000000 107.000000
108.000000 104.000000
119.000000 104.000000
133.000000 104.000000
187.000000 107.000000
202.000000 104.000000
216.000000 107.000000
231.000000 111.000000
241.000000 122.000000
158.000000 136.000000
158.000000 151.000000
155.000000 165.000000
155.000000 176.000000
140.000000 190.000000
148.000000 190.000000
158.000000 194.000000
169.000000 194.000000
176.000000 194.000000
97.000000 140.000000
108.000000 136.000000
122.000000 136.000000
133.000000 140.000000
122.000000 143.000000
108.000000 143.000000
187.000000 140.000000
198.000000 136.000000
213.000000 136.000000
220.000000 143.000000
209.000000 147.000000
198.000000 147.000000
115.000000 226.000000
126.000000 216.000000
148.000000 208.000000
158.000000 208.000000
166.000000 208.000000
187.000000 216.000000
202.000000 230.000000
184.000000 244.000000
169.000000 248.000000
155.000000 248.000000
140.000000 248.000000
130.000000 241.000000
119.000000 226.000000
144.000000 219.000000
158.000000 219.000000
169.000000 219.000000
198.000000 230.000000
169.000000 237.000000
155.000000 237.000000
144.000000 237.000000
}
