version: 1
n_points: 68
{
57.000000 152.000000
60.000000 180.000000
64.000000 202.000000
71.000000 227.000000
78.000000 248.000000
93.000000 266.000000
107.000000 277.000000
125.000000 281.000000
157.000000 288.000000
190.000000 284.000000
211.000000 274.000000
226.000000 266.000000
240.000000 245.000000
251.000000 223.000000
254.000000 198.000000
258.000000 177.000000
261.000000 152.000000
78.000000 119.000000
89.000000 105.000000
103.000000 101.000000
118.000000 101.000000
132.000000 101.000000
186.000000 101.000000
200.000000 101.000000
215.000000 101.000000
229.000000 108.000000
240.000000 119.000000
157.000000 134.000000
157.000000 148.000000
154.000000 159.000000
154.000000 173.000000
139.000000 187.000000
147.000000 187.000000
157.000000 191.000000
168.000000 187.000000
179.000000 187.000000
96.000000 137.000000
107.000000 134.000000
118.000000 134.000000
132.000000 137.000000
121.000000 141.000000
107.000000 141.000000
186.000000 137.000000
197.000000 134.000000
211.000000 134.000000
218.000000 137.000000
208.000000 141.000000
197.000000 141.000000
114.000000 223.000000
129.000000 213.000000
147.000000 205.000000
157.000000 205.000000
168.000000 205.000000
190.000000 213.000000
208.000000 223.000000
190.000000 238.000000
175.000000 245.000000
157.000000 245.000000
143.000000 245.000000
129.000000 238.000000
118.000000 223.000000
143.000000 216.000000
157.000000 213.000000
172.000000 216.000000
204.000000 223.000000
172.000000 234.000000
157.000000 234.000000
143.000000 234.000000
}
