version: 1
n_points: 68
{
63.000000 157.000000
67.000000 186.000000
71.000000 207.000000
78.000000 232.000000
85.000000 254.000000
99.000000 271.000000
114.000000 282.000000
131.000000 293.000000
164.000000 300.000000
196.000000 297.000000
214.000000 286.000000
228.000000 275.000000
242.000000 257.000000
250.000000 232.000000
257.000000 207.000000
260.000000 182.000000
264.000000 157.000000
81.000000 125.000000
96.000000 114.000000
110.000000 107.000000
124.000000 107.000000
139.000000 110.000000
192.000000 110.000000
203.000000 110.000000
217.000000 110.000000
235.000000 118.000000
246.000000 128.000000
164.000000 143.000000
160.000000 157.000000
160.000000 171.000000
160.000000 186.000000
146.000000 200.000000
153.000000 200.000000
164.000000 203.000000
174.000000 200.000000
182.000000 200.000000
103.000000 146.000000
114.000000 139.000000
124.000000 139.000000
139.000000 146.000000
128.000000 150.000000
114.000000 150.000000
192.000000 146.000000
203.000000 143.000000
214.000000 143.000000
224.000000 146.000000
214.000000 153.000000
203.000000 150.000000
128.000000 239.000000
139.000000 225.000000
153.000000 218.000000
164.000000 218.000000
171.000000 218.000000
189.000000 225.000000
199.000000 239.000000
189.000000 250.000000
174.000000 257.000000
164.000000 261.000000
149.000000 257.000000
142.000000 250.000000
131.000000 239.000000
153.000000 229.000000
164.000000 229.000000
174.000000 229.000000
196.000000 239.000000
174.000000 243.000000
164.000000 246.000000
153.000000 246.000000
}
