version: 1
n_points: 68
{
63.000000 159.000000
67.000000 187.000000
71.000000 209.000000
78.000000 234.000000
88.000000 259.000000
103.000000 277.000000
117.000000 288.000000
135.000000 295.000000
168.000000 306.000000
196.000000 299.000000
214.000000 288.000000
229.000000 277.000000
243.000000 259.000000
250.000000 234.000000
254.000000 209.000000
261.000000 184.000000
265.000000 159.000000
85.000000 126.000000
96.000000 116.000000
114.000000 112.000000
128.000000 108.000000
139.000000 112.000000
193.000000 116.000000
207.000000 112.000000
218.000000 112.000000
236.000000 119.000000
247.000000 130.000000
164.000000 144.000000
164.000000 162.000000
164.000000 177.000000
164.000000 191.000000
150.000000 202.000000
157.000000 205.000000
164.000000 205.000000
175.000000 205.000000
182.000000 202.000000
106.000000 148.000000
114.000000 144.000000
128.000000 144.000000
139.000000 148.000000
128.000000 151.000000
114.000000 151.000000
193.000000 148.000000
203.000000 144.000000
218.000000 144.000000
225.000000 148.000000
218.000000 155.000000
203.000000 151.000000
135.000000 245.000000
142.000000 231.000000
157.000000 220.000000
164.000000 223.000000
175.000000 220.000000
189.000000 231.000000
200.000000 245.000000
189.000000 256.000000
178.000000 263.000000
168.000000 263.000000
153.000000 263.000000
142.000000 256.000000
135.000000 245.000000
157.000000 234.000000
168.000000 234.000000
175.000000 234.000000
196.000000 245.000000
175.000000 248.000000
168.000000 248.000000
157.000000 248.000000
}
