version: 1
n_points: 68
{
61.000000 159.000000
65.000000 188.000000
72.000000 214.000000
80.000000 236.000000
91.000000 261.000000
105.000000 279.000000
120.000000 287.000000
138.000000 297.000000
167.000000 305.000000
200.000000 297.000000
214.000000 287.000000
229.000000 276.000000
243.000000 257.000000
251.000000 232.000000
254.000000 210.000000
262.000000 185.000000
262.000000 159.000000
83.000000 126.000000
98.000000 116.000000
112.000000 112.000000
127.000000 112.000000
141.000000 112.000000
192.000000 116.000000
207.000000 112.000000
221.000000 112.000000
236.000000 116.000000
247.000000 126.000000
167.000000 145.000000
167.000000 163.000000
163.000000 177.000000
163.000000 192.000000
149.000000 206.000000
156.000000 206.000000
167.000000 210.000000
174.000000 206.000000
181.000000 206.000000
105.000000 148.000000
116.000000 145.000000
127.000000 141.000000
138.000000 148.000000
127.000000 152.000000
116.000000 152.000000
192.000000 148.000000
203.000000 145.000000
218.000000 145.000000
225.000000 148.000000
218.000000 152.000000
203.000000 152.000000
138.000000 247.000000
145.000000 232.000000
160.000000 225.000000
167.000000 225.000000
174.000000 225.000000
189.000000 232.000000
196.000000 247.000000
189.000000 254.000000
178.000000 261.000000
167.000000 265.000000
156.000000 261.000000
145.000000 257.000000
141.000000 247.000000
160.000000 236.000000
167.000000 236.000000
174.000000 236.000000
196.000000 243.000000
174.000000 247.000000
167.000000 250.000000
156.000000 247.000000
}
