version: 1
n_points: 68
{
63.000000 160.000000
66.000000 189.000000
74.000000 210.000000
81.000000 236.000000
88.000000 257.000000
103.000000 275.000000
121.000000 286.000000
139.000000 297.000000
168.000000 304.000000
197.000000 297.000000
215.000000 286.000000
229.000000 275.000000
243.000000 257.000000
251.000000 232.000000
254.000000 210.000000
262.000000 185.000000
262.000000 160.000000
84.000000 127.000000
95.000000 116.000000
113.000000 109.000000
128.000000 109.000000
139.000000 113.000000
193.000000 113.000000
207.000000 113.000000
218.000000 113.000000
236.000000 116.000000
247.000000 127.000000
168.000000 145.000000
164.000000 163.000000
164.000000 174.000000
164.000000 189.000000
150.000000 203.000000
157.000000 203.000000
164.000000 207.000000
175.000000 203.000000
182.000000 203.000000
106.000000 149.000000
117.000000 142.000000
128.000000 142.000000
139.000000 149.000000
128.000000 153.000000
117.000000 153.000000
193.000000 149.000000
204.000000 142.000000
218.000000 145.000000
225.000000 149.000000
218.000000 153.000000
204.000000 153.000000
135.000000 243.000000
146.000000 228.000000
160.000000 221.000000
168.000000 221.000000
175.000000 221.000000
189.000000 232.000000
200.000000 243.000000
189.000000 254.000000
178.000000 261.000000
168.000000 261.000000
153.000000 261.000000
146.000000 254.000000
139.000000 243.000000
157.000000 232.000000
168.000000 232.000000
175.000000 236.000000
197.000000 243.000000
178.000000 247.000000
168.000000 250.000000
157.000000 247.000000
}
