version: 1
n_points: 68
{
63.000000 162.000000
66.000000 188.000000
73.000000 213.000000
81.000000 235.000000
91.000000 260.000000
106.000000 278.000000
120.000000 289.000000
138.000000 296.000000
167.000000 307.000000
200.000000 296.000000
218.000000 289.000000
229.000000 278.000000
243.000000 256.000000
250.000000 235.000000
254.000000 209.000000
261.000000 184.000000
265.000000 159.000000
84.000000 126.000000
95.000000 116.000000
113.000000 112.000000
128.000000 112.000000
142.000000 112.000000
193.000000 116.000000
207.000000 112.000000
221.000000 112.000000
236.000000 119.000000
247.000000 126.000000
167.000000 144.000000
167.000000 162.000000
164.000000 177.000000
164.000000 191.000000
149.000000 206.000000
156.000000 206.000000
167.000000 209.000000
174.000000 206.000000
185.000000 206.000000
106.000000 148.000000
117.000000 144.000000
128.000000 144.000000
138.000000 148.000000
128.000000 152.000000
117.000000 152.000000
193.000000 148.000000
203.000000 144.000000
218.000000 144.000000
229.000000 148.000000
218.000000 155.000000
203.000000 152.000000
138.000000 245.000000
146.000000 231.000000
160.000000 224.000000
167.000000 224.000000
174.000000 224.000000
189.000000 231.000000
200.000000 245.000000
189.000000 256.000000
178.000000 264.000000
167.000000 264.000000
153.000000 264.000000
146.000000 256.000000
138.000000 245.000000
156.000000 235.000000
167.000000 235.000000
174.000000 235.000000
196.000000 245.000000
174.000000 245.000000
167.000000 249.000000
156.000000 249.000000
}
