version: 1
n_points: 68
{
64.000000 162.000000
68.000000 187.000000
71.000000 213.000000
79.000000 235.000000
90.000000 260.000000
104.000000 279.000000
119.000000 290.000000
137.000000 297.000000
170.000000 304.000000
199.000000 297.000000
214.000000 286.000000
229.000000 275.000000
243.000000 257.000000
251.000000 235.000000
254.000000 209.000000
262.000000 187.000000
262.000000 158.000000
82.000000 129.000000
97.000000 114.000000
112.000000 110.000000
126.000000 110.000000
137.000000 114.000000
192.000000 114.000000
203.000000 110.000000
218.000000 110.000000
236.000000 118.000000
247.000000 129.000000
166.000000 143.000000
163.000000 162.000000
163.000000 176.000000
163.000000 191.000000
148.000000 206.000000
155.000000 206.000000
166.000000 209.000000
174.000000 206.000000
181.000000 206.000000
104.000000 147.000000
115.000000 143.000000
126.000000 143.000000
137.000000 147.000000
126.000000 151.000000
115.000000 151.000000
192.000000 147.000000
203.000000 143.000000
218.000000 143.000000
225.000000 147.000000
218.000000 154.000000
203.000000 151.000000
141.000000 246.000000
144.000000 235.000000
159.000000 224.000000
166.000000 224.000000
174.000000 224.000000
188.000000 231.000000
196.000000 246.000000
188.000000 253.000000
177.000000 260.000000
166.000000 264.000000
155.000000 264.000000
148.000000 257.000000
141.000000 246.000000
159.000000 235.000000
166.000000 235.000000
174.000000 235.000000
196.000000 246.000000
174.000000 249.000000
166.000000 249.000000
155.000000 249.000000
}
