version: 1
n_points: 68
{
63.000000 160.000000
67.000000 190.000000
70.000000 212.000000
78.000000 237.000000
89.000000 259.000000
107.000000 281.000000
122.000000 292.000000
136.000000 300.000000
165.000000 307.000000
198.000000 300.000000
217.000000 289.000000
228.000000 278.000000
242.000000 259.000000
250.000000 234.000000
253.000000 208.000000
257.000000 186.000000
261.000000 157.000000
81.000000 127.000000
92.000000 117.000000
111.000000 109.000000
125.000000 109.000000
136.000000 113.000000
191.000000 113.000000
202.000000 109.000000
217.000000 113.000000
231.000000 117.000000
242.000000 127.000000
162.000000 142.000000
162.000000 160.000000
162.000000 175.000000
162.000000 190.000000
147.000000 204.000000
154.000000 204.000000
162.000000 208.000000
173.000000 204.000000
180.000000 204.000000
103.000000 149.000000
114.000000 146.000000
125.000000 146.000000
136.000000 149.000000
125.000000 153.000000
114.000000 153.000000
191.000000 149.000000
202.000000 146.000000
213.000000 149.000000
224.000000 149.000000
213.000000 153.000000
198.000000 153.000000
136.000000 248.000000
143.000000 234.000000
158.000000 226.000000
165.000000 226.000000
173.000000 226.000000
184.000000 234.000000
195.000000 245.000000
184.000000 256.000000
176.000000 263.000000
165.000000 267.000000
154.000000 267.000000
143.000000 259.000000
140.000000 248.000000
158.000000 237.000000
165.000000 237.000000
173.000000 237.000000
191.000000 245.000000
173.000000 248.000000
165.000000 252.000000
154.000000 252.000000
}
