version: 1
n_points: 68
{
58.000000 158.000000
61.000000 187.000000
68.000000 208.000000
76.000000 230.000000
83.000000 255.000000
97.000000 273.000000
111.000000 284.000000
133.000000 291.000000
165.000000 298.000000
194.000000 294.000000
216.000000 284.000000
230.000000 269.000000
244.000000 251.000000
251.000000 226.000000
255.000000 205.000000
262.000000 180.000000
262.000000 154.000000
79.000000 126.000000
90.000000 119.000000
108.000000 111.000000
122.000000 111.000000
137.000000 111.000000
190.000000 115.000000
201.000000 111.000000
216.000000 111.000000
233.000000 115.000000
244.000000 126.000000
162.000000 144.000000
162.000000 162.000000
162.000000 176.000000
158.000000 190.000000
144.000000 201.000000
151.000000 201.000000
162.000000 205.000000
172.000000 201.000000
183.000000 201.000000
101.000000 147.000000
111.000000 144.000000
122.000000 144.000000
137.000000 147.000000
126.000000 151.000000
111.000000 151.000000
190.000000 147.000000
201.000000 140.000000
212.000000 144.000000
223.000000 147.000000
212.000000 151.000000
201.000000 151.000000
122.000000 233.000000
133.000000 223.000000
155.000000 219.000000
162.000000 223.000000
172.000000 219.000000
194.000000 223.000000
208.000000 230.000000
190.000000 244.000000
176.000000 248.000000
162.000000 251.000000
147.000000 251.000000
137.000000 244.000000
122.000000 230.000000
151.000000 230.000000
162.000000 230.000000
176.000000 230.000000
205.000000 230.000000
176.000000 237.000000
162.000000 237.000000
151.000000 237.000000
}
