version: 1
n_points: 68
{
58.000000 160.000000
62.000000 185.000000
69.000000 206.000000
76.000000 231.000000
83.000000 253.000000
98.000000 271.000000
115.000000 282.000000
133.000000 289.000000
166.000000 299.000000
198.000000 292.000000
216.000000 282.000000
230.000000 271.000000
244.000000 249.000000
252.000000 224.000000
255.000000 203.000000
262.000000 181.000000
266.000000 153.000000
80.000000 128.000000
94.000000 117.000000
108.000000 110.000000
123.000000 110.000000
137.000000 113.000000
191.000000 113.000000
201.000000 113.000000
216.000000 113.000000
234.000000 117.000000
244.000000 128.000000
162.000000 145.000000
162.000000 160.000000
158.000000 174.000000
158.000000 188.000000
144.000000 199.000000
151.000000 203.000000
162.000000 203.000000
173.000000 203.000000
184.000000 199.000000
101.000000 149.000000
112.000000 145.000000
123.000000 142.000000
137.000000 149.000000
126.000000 153.000000
112.000000 153.000000
191.000000 145.000000
201.000000 142.000000
212.000000 142.000000
223.000000 145.000000
212.000000 153.000000
201.000000 149.000000
123.000000 231.000000
133.000000 224.000000
155.000000 221.000000
166.000000 221.000000
173.000000 221.000000
194.000000 224.000000
209.000000 231.000000
194.000000 246.000000
180.000000 249.000000
166.000000 253.000000
151.000000 249.000000
137.000000 246.000000
123.000000 231.000000
151.000000 228.000000
166.000000 228.000000
176.000000 228.000000
209.000000 231.000000
176.000000 239.000000
166.000000 239.000000
151.000000 239.000000
}
