version: 1
n_points: 68
{
59.000000 160.000000
62.000000 185.000000
70.000000 207.000000
77.000000 232.000000
84.000000 253.000000
98.000000 271.000000
116.000000 282.000000
134.000000 292.000000
166.000000 300.000000
198.000000 292.000000
220.000000 282.000000
231.000000 271.000000
245.000000 249.000000
252.000000 224.000000
256.000000 203.000000
263.000000 178.000000
263.000000 153.000000
80.000000 128.000000
91.000000 117.000000
109.000000 113.000000
123.000000 113.000000
134.000000 113.000000
188.000000 113.000000
202.000000 113.000000
216.000000 113.000000
231.000000 117.000000
245.000000 128.000000
163.000000 146.000000
163.000000 164.000000
159.000000 178.000000
159.000000 189.000000
145.000000 199.000000
152.000000 203.000000
163.000000 203.000000
173.000000 203.000000
184.000000 199.000000
102.000000 149.000000
113.000000 146.000000
123.000000 142.000000
134.000000 149.000000
123.000000 153.000000
113.000000 153.000000
188.000000 146.000000
202.000000 142.000000
213.000000 142.000000
224.000000 146.000000
213.000000 149.000000
198.000000 149.000000
120.000000 232.000000
134.000000 224.000000
152.000000 217.000000
163.000000 221.000000
173.000000 217.000000
195.000000 221.000000
213.000000 232.000000
195.000000 246.000000
181.000000 253.000000
163.000000 257.000000
148.000000 253.000000
134.000000 246.000000
123.000000 232.000000
148.000000 228.000000
163.000000 228.000000
177.000000 228.000000
209.000000 232.000000
177.000000 242.000000
163.000000 242.000000
152.000000 242.000000
}
