version: 1
n_points: 68
{
59.000000 161.000000
63.000000 186.000000
70.000000 208.000000
77.000000 229.000000
84.000000 254.000000
98.000000 272.000000
116.000000 283.000000
134.000000 294.000000
167.000000 301.000000
199.000000 294.000000
217.000000 283.000000
231.000000 272.000000
245.000000 251.000000
253.000000 226.000000
256.000000 204.000000
263.000000 179.000000
263.000000 154.000000
80.000000 129.000000
91.000000 118.000000
109.000000 111.000000
124.000000 111.000000
134.000000 115.000000
188.000000 115.000000
202.000000 111.000000
217.000000 111.000000
231.000000 118.000000
245.000000 125.000000
163.000000 147.000000
163.000000 165.000000
159.000000 179.000000
159.000000 190.000000
145.000000 201.000000
152.000000 204.000000
163.000000 204.000000
174.000000 204.000000
184.000000 201.000000
102.000000 150.000000
113.000000 143.000000
124.000000 143.000000
134.000000 150.000000
124.000000 154.000000
113.000000 154.000000
188.000000 147.000000
202.000000 143.000000
213.000000 143.000000
224.000000 147.000000
213.000000 150.000000
199.000000 150.000000
120.000000 233.000000
134.000000 222.000000
152.000000 219.000000
163.000000 222.000000
174.000000 219.000000
195.000000 222.000000
213.000000 233.000000
195.000000 247.000000
181.000000 254.000000
167.000000 258.000000
149.000000 258.000000
134.000000 247.000000
124.000000 233.000000
149.000000 229.000000
163.000000 229.000000
177.000000 229.000000
210.000000 229.000000
177.000000 244.000000
163.000000 244.000000
152.000000 244.000000
}
