version: 1
n_points: 68
{
60.000000 161.000000
64.000000 186.000000
71.000000 208.000000
79.000000 234.000000
86.000000 256.000000
101.000000 278.000000
119.000000 289.000000
137.000000 300.000000
170.000000 307.000000
199.000000 300.000000
218.000000 285.000000
232.000000 274.000000
247.000000 252.000000
254.000000 226.000000
258.000000 205.000000
261.000000 179.000000
265.000000 153.000000
82.000000 128.000000
93.000000 117.000000
108.000000 113.000000
122.000000 113.000000
137.000000 113.000000
188.000000 117.000000
203.000000 113.000000
214.000000 113.000000
232.000000 117.000000
243.000000 128.000000
163.000000 146.000000
163.000000 164.000000
163.000000 179.000000
159.000000 190.000000
144.000000 201.000000
152.000000 205.000000
163.000000 205.000000
174.000000 205.000000
185.000000 201.000000
101.000000 150.000000
112.000000 146.000000
122.000000 142.000000
137.000000 150.000000
126.000000 153.000000
112.000000 153.000000
188.000000 146.000000
203.000000 142.000000
214.000000 142.000000
225.000000 146.000000
214.000000 153.000000
199.000000 150.000000
122.000000 234.000000
133.000000 226.000000
155.000000 219.000000
163.000000 219.000000
174.000000 219.000000
196.000000 223.000000
210.000000 234.000000
196.000000 256.000000
181.000000 263.000000
166.000000 267.000000
152.000000 263.000000
137.000000 256.000000
122.000000 234.000000
152.000000 230.000000
166.000000 230.000000
181.000000 230.000000
210.000000 234.000000
181.000000 252.000000
166.000000 252.000000
152.000000 252.000000
}
