version: 1
n_points: 68
{
64.000000 158.000000
64.000000 184.000000
71.000000 206.000000
78.000000 232.000000
86.000000 257.000000
100.000000 276.000000
119.000000 287.000000
137.000000 302.000000
170.000000 313.000000
200.000000 302.000000
218.000000 287.000000
233.000000 272.000000
247.000000 254.000000
255.000000 224.000000
258.000000 202.000000
262.000000 180.000000
262.000000 155.000000
82.000000 129.000000
93.000000 118.000000
108.000000 114.000000
122.000000 114.000000
137.000000 114.000000
189.000000 114.000000
203.000000 114.000000
218.000000 114.000000
233.000000 118.000000
244.000000 125.000000
163.000000 147.000000
163.000000 162.000000
159.000000 177.000000
159.000000 191.000000
144.000000 202.000000
152.000000 202.000000
163.000000 206.000000
174.000000 202.000000
181.000000 202.000000
104.000000 147.000000
111.000000 144.000000
122.000000 144.000000
137.000000 151.000000
126.000000 151.000000
111.000000 151.000000
189.000000 147.000000
200.000000 144.000000
214.000000 144.000000
225.000000 147.000000
214.000000 151.000000
200.000000 151.000000
122.000000 235.000000
133.000000 224.000000
155.000000 217.000000
163.000000 221.000000
174.000000 217.000000
196.000000 224.000000
211.000000 235.000000
196.000000 257.000000
181.000000 268.000000
166.000000 272.000000
152.000000 268.000000
137.000000 261.000000
126.000000 235.000000
152.000000 228.000000
166.000000 228.000000
181.000000 228.000000
211.000000 235.000000
181.000000 254.000000
166.000000 257.000000
152.000000 257.000000
}
