version: 1
n_points: 68
{
60.000000 158.000000
64.000000 184.000000
71.000000 206.000000
75.000000 231.000000
86.000000 257.000000
101.000000 275.000000
119.000000 286.000000
137.000000 301.000000
167.000000 312.000000
200.000000 301.000000
218.000000 286.000000
233.000000 272.000000
247.000000 253.000000
255.000000 228.000000
258.000000 202.000000
262.000000 180.000000
262.000000 154.000000
82.000000 129.000000
93.000000 118.000000
108.000000 114.000000
123.000000 114.000000
137.000000 114.000000
189.000000 114.000000
203.000000 114.000000
214.000000 114.000000
233.000000 118.000000
244.000000 125.000000
163.000000 147.000000
163.000000 162.000000
159.000000 176.000000
159.000000 191.000000
145.000000 202.000000
152.000000 202.000000
163.000000 206.000000
174.000000 202.000000
181.000000 202.000000
101.000000 151.000000
112.000000 147.000000
123.000000 143.000000
137.000000 151.000000
126.000000 151.000000
112.000000 154.000000
189.000000 147.000000
200.000000 143.000000
214.000000 143.000000
222.000000 147.000000
214.000000 151.000000
200.000000 151.000000
123.000000 235.000000
134.000000 224.000000
156.000000 220.000000
163.000000 220.000000
174.000000 220.000000
196.000000 224.000000
211.000000 235.000000
196.000000 257.000000
181.000000 268.000000
167.000000 272.000000
152.000000 268.000000
137.000000 261.000000
123.000000 235.000000
152.000000 231.000000
163.000000 228.000000
181.000000 228.000000
211.000000 235.000000
181.000000 257.000000
167.000000 257.000000
152.000000 257.000000
}
