version: 1
n_points: 68
{
60.000000 158.000000
64.000000 187.000000
71.000000 209.000000
79.000000 231.000000
86.000000 257.000000
101.000000 279.000000
119.000000 289.000000
137.000000 300.000000
170.000000 311.000000
199.000000 300.000000
221.000000 286.000000
232.000000 275.000000
247.000000 253.000000
254.000000 227.000000
258.000000 202.000000
261.000000 180.000000
265.000000 154.000000
82.000000 129.000000
93.000000 121.000000
108.000000 114.000000
122.000000 114.000000
137.000000 118.000000
188.000000 118.000000
203.000000 114.000000
218.000000 114.000000
232.000000 118.000000
243.000000 129.000000
163.000000 147.000000
163.000000 165.000000
163.000000 180.000000
163.000000 191.000000
144.000000 202.000000
155.000000 205.000000
163.000000 205.000000
177.000000 205.000000
185.000000 202.000000
101.000000 151.000000
112.000000 147.000000
126.000000 143.000000
137.000000 151.000000
126.000000 154.000000
112.000000 154.000000
192.000000 147.000000
203.000000 143.000000
214.000000 143.000000
225.000000 147.000000
214.000000 154.000000
199.000000 151.000000
122.000000 238.000000
133.000000 227.000000
155.000000 220.000000
166.000000 220.000000
174.000000 220.000000
196.000000 224.000000
214.000000 235.000000
199.000000 257.000000
181.000000 268.000000
166.000000 271.000000
152.000000 268.000000
137.000000 260.000000
126.000000 235.000000
152.000000 231.000000
166.000000 231.000000
181.000000 231.000000
210.000000 235.000000
181.000000 257.000000
166.000000 257.000000
155.000000 257.000000
}
