version: 1
n_points: 68
{
60.000000 158.000000
64.000000 184.000000
71.000000 206.000000
75.000000 231.000000
86.000000 256.000000
100.000000 275.000000
119.000000 286.000000
137.000000 300.000000
170.000000 307.000000
199.000000 300.000000
221.000000 286.000000
232.000000 271.000000
246.000000 249.000000
253.000000 224.000000
257.000000 202.000000
261.000000 176.000000
264.000000 151.000000
82.000000 129.000000
93.000000 118.000000
108.000000 114.000000
122.000000 114.000000
137.000000 114.000000
188.000000 114.000000
202.000000 114.000000
217.000000 111.000000
232.000000 118.000000
242.000000 125.000000
162.000000 147.000000
162.000000 162.000000
162.000000 176.000000
162.000000 191.000000
144.000000 202.000000
151.000000 202.000000
162.000000 206.000000
173.000000 202.000000
184.000000 202.000000
100.000000 147.000000
111.000000 144.000000
122.000000 144.000000
137.000000 151.000000
126.000000 151.000000
111.000000 155.000000
191.000000 147.000000
202.000000 144.000000
213.000000 144.000000
224.000000 147.000000
213.000000 151.000000
199.000000 151.000000
122.000000 235.000000
133.000000 224.000000
155.000000 220.000000
166.000000 220.000000
173.000000 216.000000
199.000000 224.000000
213.000000 235.000000
195.000000 256.000000
181.000000 264.000000
166.000000 267.000000
151.000000 267.000000
137.000000 256.000000
122.000000 235.000000
151.000000 227.000000
166.000000 227.000000
181.000000 227.000000
210.000000 235.000000
181.000000 253.000000
166.000000 256.000000
151.000000 253.000000
}
