version: 1
n_points: 68
{
63.000000 165.000000
66.000000 194.000000
73.000000 215.000000
81.000000 240.000000
91.000000 261.000000
105.000000 279.000000
120.000000 286.000000
137.000000 290.000000
166.000000 293.000000
198.000000 290.000000
216.000000 283.000000
230.000000 272.000000
244.000000 254.000000
251.000000 229.000000
255.000000 208.000000
258.000000 183.000000
262.000000 158.000000
81.000000 126.000000
91.000000 115.000000
105.000000 108.000000
120.000000 105.000000
134.000000 108.000000
187.000000 108.000000
201.000000 105.000000
216.000000 105.000000
230.000000 112.000000
244.000000 122.000000
162.000000 144.000000
162.000000 162.000000
159.000000 176.000000
159.000000 190.000000
148.000000 204.000000
155.000000 204.000000
162.000000 204.000000
173.000000 204.000000
180.000000 204.000000
102.000000 151.000000
113.000000 144.000000
123.000000 144.000000
134.000000 147.000000
123.000000 151.000000
113.000000 154.000000
187.000000 147.000000
201.000000 140.000000
212.000000 140.000000
223.000000 144.000000
212.000000 151.000000
198.000000 151.000000
130.000000 240.000000
141.000000 229.000000
155.000000 222.000000
162.000000 222.000000
173.000000 222.000000
187.000000 226.000000
201.000000 236.000000
187.000000 240.000000
177.000000 243.000000
166.000000 247.000000
155.000000 247.000000
145.000000 243.000000
134.000000 240.000000
155.000000 233.000000
166.000000 233.000000
177.000000 233.000000
198.000000 236.000000
177.000000 233.000000
166.000000 233.000000
155.000000 233.000000
}
