version: 1
n_points: 68
{
62.000000 167.000000
66.000000 191.000000
73.000000 216.000000
80.000000 238.000000
91.000000 263.000000
105.000000 280.000000
119.000000 288.000000
137.000000 291.000000
169.000000 298.000000
197.000000 291.000000
215.000000 284.000000
229.000000 273.000000
244.000000 256.000000
251.000000 231.000000
254.000000 209.000000
258.000000 184.000000
261.000000 159.000000
80.000000 127.000000
91.000000 117.000000
108.000000 110.000000
119.000000 110.000000
133.000000 110.000000
190.000000 110.000000
201.000000 106.000000
215.000000 106.000000
229.000000 113.000000
244.000000 124.000000
162.000000 145.000000
162.000000 163.000000
162.000000 177.000000
162.000000 188.000000
148.000000 206.000000
155.000000 206.000000
162.000000 206.000000
172.000000 206.000000
180.000000 206.000000
101.000000 149.000000
112.000000 145.000000
123.000000 145.000000
137.000000 149.000000
126.000000 152.000000
112.000000 152.000000
190.000000 149.000000
201.000000 142.000000
212.000000 142.000000
222.000000 145.000000
212.000000 152.000000
201.000000 152.000000
133.000000 241.000000
140.000000 231.000000
158.000000 224.000000
165.000000 224.000000
172.000000 224.000000
187.000000 231.000000
201.000000 238.000000
187.000000 245.000000
176.000000 248.000000
165.000000 248.000000
155.000000 248.000000
144.000000 245.000000
133.000000 241.000000
155.000000 234.000000
165.000000 234.000000
176.000000 234.000000
197.000000 238.000000
176.000000 234.000000
165.000000 234.000000
155.000000 234.000000
}
