version: 1
n_points: 68
{
62.000000 165.000000
66.000000 189.000000
73.000000 214.000000
80.000000 236.000000
87.000000 261.000000
105.000000 278.000000
119.000000 286.000000
137.000000 293.000000
165.000000 300.000000
197.000000 293.000000
215.000000 282.000000
229.000000 271.000000
243.000000 254.000000
250.000000 229.000000
254.000000 204.000000
258.000000 182.000000
261.000000 154.000000
80.000000 129.000000
90.000000 115.000000
108.000000 111.000000
122.000000 108.000000
133.000000 111.000000
190.000000 108.000000
201.000000 104.000000
215.000000 104.000000
229.000000 111.000000
240.000000 122.000000
162.000000 143.000000
162.000000 161.000000
162.000000 175.000000
162.000000 186.000000
147.000000 200.000000
154.000000 204.000000
162.000000 204.000000
172.000000 204.000000
183.000000 200.000000
101.000000 150.000000
112.000000 143.000000
122.000000 143.000000
133.000000 147.000000
126.000000 154.000000
112.000000 154.000000
186.000000 147.000000
201.000000 143.000000
211.000000 143.000000
222.000000 147.000000
211.000000 150.000000
197.000000 150.000000
130.000000 239.000000
140.000000 229.000000
158.000000 221.000000
165.000000 221.000000
172.000000 221.000000
190.000000 225.000000
204.000000 236.000000
190.000000 243.000000
179.000000 246.000000
165.000000 250.000000
154.000000 250.000000
144.000000 246.000000
133.000000 239.000000
154.000000 232.000000
165.000000 232.000000
176.000000 232.000000
201.000000 236.000000
176.000000 236.000000
165.000000 236.000000
154.000000 236.000000
}
