version: 1
n_points: 68
{
58.000000 165.000000
65.000000 190.000000
69.000000 212.000000
76.000000 237.000000
86.000000 258.000000
101.000000 276.000000
115.000000 283.000000
133.000000 290.000000
165.000000 297.000000
197.000000 290.000000
215.000000 283.000000
229.000000 272.000000
243.000000 251.000000
250.000000 230.000000
254.000000 205.000000
258.000000 183.000000
261.000000 155.000000
79.000000 130.000000
90.000000 115.000000
104.000000 112.000000
118.000000 108.000000
133.000000 112.000000
186.000000 108.000000
201.000000 105.000000
215.000000 105.000000
229.000000 112.000000
243.000000 126.000000
161.000000 144.000000
161.000000 162.000000
161.000000 172.000000
158.000000 187.000000
147.000000 201.000000
154.000000 205.000000
161.000000 205.000000
172.000000 201.000000
179.000000 201.000000
101.000000 151.000000
111.000000 144.000000
122.000000 144.000000
133.000000 147.000000
122.000000 151.000000
111.000000 155.000000
186.000000 147.000000
201.000000 140.000000
211.000000 140.000000
222.000000 147.000000
211.000000 151.000000
197.000000 151.000000
126.000000 237.000000
136.000000 226.000000
154.000000 222.000000
165.000000 222.000000
172.000000 219.000000
190.000000 226.000000
204.000000 233.000000
190.000000 240.000000
176.000000 247.000000
165.000000 247.000000
151.000000 247.000000
140.000000 244.000000
126.000000 237.000000
151.000000 230.000000
165.000000 230.000000
176.000000 230.000000
204.000000 233.000000
176.000000 233.000000
165.000000 233.000000
151.000000 233.000000
}
