version: 1
n_points: 68
{
63.000000 168.000000
66.000000 192.000000
73.000000 213.000000
80.000000 238.000000
91.000000 263.000000
105.000000 277.000000
123.000000 288.000000
137.000000 295.000000
169.000000 302.000000
197.000000 295.000000
214.000000 284.000000
229.000000 273.000000
243.000000 256.000000
250.000000 231.000000
253.000000 206.000000
260.000000 182.000000
260.000000 157.000000
84.000000 136.000000
94.000000 125.000000
112.000000 118.000000
123.000000 118.000000
137.000000 118.000000
190.000000 111.000000
204.000000 111.000000
218.000000 111.000000
232.000000 115.000000
243.000000 125.000000
165.000000 146.000000
165.000000 164.000000
165.000000 178.000000
165.000000 192.000000
151.000000 206.000000
158.000000 206.000000
165.000000 206.000000
176.000000 206.000000
183.000000 206.000000
105.000000 153.000000
116.000000 146.000000
126.000000 146.000000
137.000000 150.000000
126.000000 153.000000
116.000000 157.000000
190.000000 146.000000
200.000000 143.000000
214.000000 143.000000
225.000000 146.000000
214.000000 153.000000
200.000000 153.000000
137.000000 242.000000
144.000000 231.000000
158.000000 224.000000
165.000000 224.000000
172.000000 224.000000
190.000000 231.000000
200.000000 242.000000
186.000000 249.000000
176.000000 256.000000
165.000000 259.000000
154.000000 256.000000
144.000000 252.000000
137.000000 242.000000
158.000000 235.000000
165.000000 235.000000
176.000000 235.000000
197.000000 242.000000
176.000000 242.000000
165.000000 245.000000
154.000000 242.000000
}
