version: 1
n_points: 68
{
63.000000 165.000000
67.000000 193.000000
74.000000 214.000000
81.000000 239.000000
92.000000 263.000000
106.000000 281.000000
120.000000 288.000000
137.000000 295.000000
169.000000 302.000000
197.000000 295.000000
214.000000 284.000000
228.000000 274.000000
242.000000 256.000000
249.000000 232.000000
253.000000 207.000000
260.000000 182.000000
260.000000 158.000000
85.000000 133.000000
95.000000 126.000000
109.000000 119.000000
123.000000 119.000000
137.000000 119.000000
190.000000 112.000000
200.000000 112.000000
214.000000 112.000000
232.000000 116.000000
242.000000 126.000000
162.000000 147.000000
162.000000 165.000000
162.000000 179.000000
162.000000 193.000000
148.000000 207.000000
155.000000 207.000000
165.000000 207.000000
176.000000 207.000000
183.000000 203.000000
106.000000 151.000000
113.000000 147.000000
127.000000 147.000000
137.000000 151.000000
127.000000 154.000000
116.000000 154.000000
190.000000 147.000000
200.000000 144.000000
214.000000 144.000000
221.000000 147.000000
214.000000 151.000000
200.000000 151.000000
134.000000 242.000000
144.000000 232.000000
158.000000 225.000000
165.000000 225.000000
172.000000 225.000000
186.000000 232.000000
200.000000 242.000000
186.000000 249.000000
176.000000 256.000000
165.000000 260.000000
155.000000 260.000000
144.000000 253.000000
137.000000 242.000000
155.000000 239.000000
165.000000 235.000000
176.000000 235.000000
197.000000 242.000000
176.000000 242.000000
165.000000 246.000000
155.000000 242.000000
}
