version: 1
n_points: 68
{
63.000000 166.000000
67.000000 194.000000
74.000000 215.000000
81.000000 239.000000
91.000000 261.000000
105.000000 278.000000
119.000000 289.000000
137.000000 296.000000
169.000000 303.000000
197.000000 296.000000
214.000000 285.000000
228.000000 275.000000
242.000000 257.000000
249.000000 232.000000
253.000000 208.000000
260.000000 183.000000
260.000000 159.000000
84.000000 134.000000
95.000000 123.000000
112.000000 116.000000
127.000000 116.000000
137.000000 116.000000
190.000000 109.000000
204.000000 106.000000
218.000000 109.000000
232.000000 113.000000
246.000000 127.000000
165.000000 145.000000
165.000000 162.000000
165.000000 180.000000
165.000000 190.000000
151.000000 208.000000
158.000000 208.000000
165.000000 208.000000
176.000000 208.000000
183.000000 204.000000
105.000000 152.000000
116.000000 148.000000
127.000000 145.000000
137.000000 152.000000
127.000000 155.000000
116.000000 155.000000
190.000000 148.000000
204.000000 145.000000
214.000000 145.000000
225.000000 148.000000
214.000000 152.000000
200.000000 152.000000
134.000000 243.000000
144.000000 232.000000
158.000000 225.000000
165.000000 225.000000
172.000000 225.000000
186.000000 232.000000
197.000000 243.000000
186.000000 250.000000
176.000000 257.000000
165.000000 261.000000
155.000000 257.000000
144.000000 253.000000
137.000000 243.000000
158.000000 236.000000
165.000000 236.000000
176.000000 236.000000
197.000000 243.000000
176.000000 243.000000
165.000000 246.000000
155.000000 243.000000
}
