version: 1
n_points: 68
{
64.000000 166.000000
67.000000 190.000000
74.000000 215.000000
81.000000 239.000000
92.000000 260.000000
106.000000 278.000000
120.000000 288.000000
137.000000 295.000000
168.000000 302.000000
196.000000 295.000000
217.000000 285.000000
228.000000 274.000000
242.000000 253.000000
249.000000 232.000000
256.000000 208.000000
259.000000 183.000000
263.000000 155.000000
85.000000 134.000000
95.000000 127.000000
109.000000 120.000000
123.000000 120.000000
137.000000 120.000000
189.000000 117.000000
200.000000 113.000000
214.000000 113.000000
231.000000 117.000000
242.000000 127.000000
165.000000 148.000000
165.000000 162.000000
161.000000 180.000000
161.000000 194.000000
147.000000 208.000000
154.000000 208.000000
165.000000 208.000000
175.000000 208.000000
182.000000 204.000000
106.000000 152.000000
116.000000 148.000000
126.000000 148.000000
137.000000 152.000000
126.000000 155.000000
116.000000 155.000000
189.000000 148.000000
200.000000 145.000000
214.000000 145.000000
224.000000 148.000000
214.000000 152.000000
200.000000 152.000000
133.000000 243.000000
144.000000 232.000000
158.000000 225.000000
165.000000 225.000000
172.000000 225.000000
186.000000 232.000000
200.000000 243.000000
186.000000 250.000000
175.000000 257.000000
165.000000 257.000000
154.000000 257.000000
144.000000 253.000000
137.000000 243.000000
158.000000 236.000000
165.000000 236.000000
175.000000 236.000000
196.000000 243.000000
175.000000 243.000000
165.000000 243.000000
154.000000 243.000000
}
