version: 1
n_points: 68
{
65.000000 165.000000
68.000000 190.000000
76.000000 215.000000
79.000000 237.000000
90.000000 262.000000
104.000000 280.000000
119.000000 287.000000
137.000000 295.000000
165.000000 305.000000
194.000000 298.000000
216.000000 287.000000
227.000000 277.000000
241.000000 259.000000
248.000000 233.000000
252.000000 208.000000
259.000000 183.000000
259.000000 158.000000
83.000000 122.000000
94.000000 107.000000
108.000000 100.000000
122.000000 97.000000
137.000000 97.000000
191.000000 97.000000
205.000000 93.000000
219.000000 97.000000
234.000000 104.000000
245.000000 122.000000
162.000000 143.000000
162.000000 161.000000
162.000000 176.000000
162.000000 190.000000
151.000000 205.000000
155.000000 208.000000
165.000000 208.000000
173.000000 208.000000
180.000000 205.000000
104.000000 151.000000
112.000000 143.000000
126.000000 143.000000
137.000000 147.000000
126.000000 154.000000
112.000000 154.000000
191.000000 147.000000
201.000000 143.000000
216.000000 143.000000
227.000000 147.000000
216.000000 151.000000
201.000000 151.000000
133.000000 244.000000
144.000000 233.000000
158.000000 226.000000
165.000000 226.000000
173.000000 226.000000
187.000000 233.000000
198.000000 244.000000
187.000000 251.000000
176.000000 259.000000
165.000000 262.000000
155.000000 262.000000
144.000000 255.000000
137.000000 244.000000
155.000000 237.000000
165.000000 237.000000
173.000000 237.000000
198.000000 244.000000
176.000000 244.000000
165.000000 248.000000
155.000000 248.000000
}
