version: 1
n_points: 68
{
61.000000 164.000000
68.000000 192.000000
72.000000 214.000000
79.000000 239.000000
90.000000 261.000000
104.000000 278.000000
119.000000 289.000000
137.000000 296.000000
165.000000 304.000000
194.000000 296.000000
212.000000 289.000000
230.000000 275.000000
241.000000 257.000000
248.000000 232.000000
255.000000 210.000000
259.000000 185.000000
259.000000 156.000000
83.000000 124.000000
90.000000 110.000000
104.000000 103.000000
122.000000 99.000000
133.000000 103.000000
191.000000 99.000000
201.000000 95.000000
216.000000 99.000000
230.000000 106.000000
241.000000 120.000000
162.000000 146.000000
162.000000 164.000000
162.000000 178.000000
162.000000 189.000000
147.000000 207.000000
155.000000 207.000000
162.000000 207.000000
173.000000 207.000000
180.000000 207.000000
101.000000 149.000000
112.000000 146.000000
122.000000 146.000000
137.000000 149.000000
126.000000 153.000000
112.000000 153.000000
191.000000 146.000000
201.000000 142.000000
212.000000 142.000000
223.000000 146.000000
212.000000 153.000000
201.000000 153.000000
133.000000 246.000000
144.000000 235.000000
155.000000 225.000000
165.000000 228.000000
173.000000 225.000000
187.000000 232.000000
198.000000 246.000000
187.000000 253.000000
176.000000 257.000000
165.000000 261.000000
151.000000 261.000000
144.000000 253.000000
137.000000 246.000000
155.000000 239.000000
165.000000 239.000000
173.000000 239.000000
194.000000 243.000000
173.000000 246.000000
165.000000 246.000000
155.000000 246.000000
}
