version: 1
n_points: 68
{
65.000000 164.000000
68.000000 189.000000
76.000000 215.000000
79.000000 236.000000
90.000000 261.000000
108.000000 279.000000
122.000000 287.000000
137.000000 294.000000
166.000000 305.000000
198.000000 297.000000
216.000000 287.000000
230.000000 276.000000
241.000000 258.000000
248.000000 233.000000
256.000000 207.000000
259.000000 182.000000
259.000000 157.000000
83.000000 125.000000
94.000000 107.000000
108.000000 99.000000
122.000000 99.000000
137.000000 99.000000
191.000000 96.000000
205.000000 96.000000
220.000000 96.000000
234.000000 103.000000
245.000000 121.000000
166.000000 143.000000
166.000000 161.000000
162.000000 179.000000
162.000000 189.000000
151.000000 207.000000
158.000000 207.000000
166.000000 207.000000
176.000000 207.000000
184.000000 204.000000
104.000000 150.000000
112.000000 143.000000
126.000000 143.000000
137.000000 150.000000
126.000000 153.000000
112.000000 153.000000
191.000000 146.000000
202.000000 143.000000
216.000000 143.000000
227.000000 146.000000
216.000000 150.000000
202.000000 150.000000
137.000000 243.000000
144.000000 233.000000
158.000000 225.000000
166.000000 225.000000
173.000000 225.000000
187.000000 233.000000
198.000000 243.000000
187.000000 254.000000
176.000000 258.000000
166.000000 261.000000
155.000000 261.000000
144.000000 254.000000
137.000000 243.000000
158.000000 236.000000
166.000000 236.000000
176.000000 236.000000
198.000000 243.000000
176.000000 243.000000
166.000000 247.000000
155.000000 247.000000
}
