version: 1
n_points: 68
{
65.000000 164.000000
68.000000 189.000000
75.000000 214.000000
79.000000 236.000000
90.000000 261.000000
104.000000 279.000000
122.000000 286.000000
137.000000 297.000000
165.000000 304.000000
198.000000 297.000000
216.000000 286.000000
227.000000 276.000000
241.000000 258.000000
248.000000 232.000000
252.000000 207.000000
259.000000 186.000000
259.000000 157.000000
83.000000 124.000000
93.000000 106.000000
108.000000 99.000000
122.000000 96.000000
137.000000 99.000000
191.000000 96.000000
205.000000 96.000000
219.000000 96.000000
234.000000 103.000000
245.000000 121.000000
162.000000 146.000000
165.000000 164.000000
162.000000 178.000000
162.000000 189.000000
151.000000 207.000000
158.000000 207.000000
165.000000 207.000000
176.000000 207.000000
183.000000 207.000000
104.000000 150.000000
111.000000 142.000000
126.000000 142.000000
137.000000 150.000000
126.000000 153.000000
115.000000 153.000000
191.000000 146.000000
201.000000 142.000000
216.000000 142.000000
227.000000 146.000000
216.000000 153.000000
201.000000 153.000000
137.000000 247.000000
144.000000 232.000000
158.000000 225.000000
165.000000 225.000000
173.000000 225.000000
187.000000 232.000000
198.000000 243.000000
187.000000 254.000000
176.000000 261.000000
165.000000 261.000000
155.000000 261.000000
144.000000 254.000000
137.000000 243.000000
155.000000 240.000000
165.000000 236.000000
176.000000 240.000000
198.000000 243.000000
176.000000 247.000000
165.000000 247.000000
155.000000 247.000000
}
