version: 1
n_points: 68
{
62.000000 165.000000
62.000000 190.000000
70.000000 215.000000
77.000000 237.000000
88.000000 262.000000
102.000000 280.000000
117.000000 291.000000
131.000000 299.000000
160.000000 306.000000
193.000000 299.000000
211.000000 288.000000
225.000000 277.000000
240.000000 255.000000
247.000000 230.000000
254.000000 208.000000
258.000000 183.000000
261.000000 157.000000
77.000000 128.000000
88.000000 114.000000
102.000000 110.000000
113.000000 107.000000
127.000000 110.000000
182.000000 107.000000
196.000000 103.000000
211.000000 103.000000
225.000000 110.000000
240.000000 121.000000
156.000000 147.000000
153.000000 165.000000
153.000000 175.000000
153.000000 190.000000
142.000000 204.000000
149.000000 208.000000
156.000000 208.000000
167.000000 204.000000
174.000000 204.000000
95.000000 150.000000
106.000000 147.000000
117.000000 147.000000
127.000000 150.000000
120.000000 154.000000
106.000000 154.000000
182.000000 147.000000
196.000000 143.000000
207.000000 143.000000
218.000000 147.000000
207.000000 154.000000
193.000000 154.000000
127.000000 244.000000
135.000000 233.000000
149.000000 226.000000
156.000000 226.000000
164.000000 226.000000
182.000000 233.000000
193.000000 244.000000
182.000000 251.000000
171.000000 259.000000
156.000000 259.000000
146.000000 259.000000
138.000000 255.000000
127.000000 244.000000
149.000000 237.000000
156.000000 237.000000
167.000000 237.000000
189.000000 244.000000
167.000000 244.000000
156.000000 248.000000
146.000000 244.000000
}
