version: 1
n_points: 68
{
59.000000 164.000000
62.000000 192.000000
70.000000 214.000000
77.000000 239.000000
88.000000 261.000000
102.000000 278.000000
116.000000 289.000000
131.000000 296.000000
163.000000 304.000000
191.000000 296.000000
213.000000 286.000000
227.000000 275.000000
242.000000 257.000000
249.000000 232.000000
252.000000 210.000000
259.000000 185.000000
259.000000 157.000000
77.000000 132.000000
88.000000 121.000000
102.000000 114.000000
116.000000 114.000000
127.000000 117.000000
181.000000 114.000000
195.000000 114.000000
209.000000 110.000000
224.000000 117.000000
238.000000 128.000000
156.000000 146.000000
152.000000 164.000000
152.000000 178.000000
152.000000 192.000000
141.000000 207.000000
145.000000 207.000000
156.000000 210.000000
166.000000 207.000000
173.000000 207.000000
95.000000 153.000000
105.000000 146.000000
116.000000 146.000000
131.000000 153.000000
120.000000 157.000000
105.000000 157.000000
184.000000 149.000000
195.000000 146.000000
206.000000 146.000000
216.000000 149.000000
206.000000 153.000000
195.000000 153.000000
127.000000 246.000000
134.000000 232.000000
148.000000 225.000000
156.000000 228.000000
163.000000 225.000000
181.000000 232.000000
195.000000 246.000000
181.000000 253.000000
170.000000 257.000000
156.000000 261.000000
145.000000 261.000000
138.000000 253.000000
127.000000 246.000000
148.000000 239.000000
156.000000 235.000000
166.000000 239.000000
191.000000 243.000000
166.000000 243.000000
156.000000 246.000000
145.000000 246.000000
}
