version: 1
n_points: 68
{
60.000000 163.000000
60.000000 188.000000
67.000000 213.000000
74.000000 234.000000
84.000000 259.000000
99.000000 277.000000
113.000000 288.000000
131.000000 295.000000
163.000000 302.000000
191.000000 295.000000
212.000000 280.000000
227.000000 270.000000
241.000000 248.000000
248.000000 224.000000
252.000000 202.000000
259.000000 177.000000
262.000000 152.000000
74.000000 131.000000
84.000000 120.000000
99.000000 117.000000
113.000000 117.000000
127.000000 117.000000
180.000000 117.000000
195.000000 113.000000
205.000000 113.000000
223.000000 117.000000
237.000000 128.000000
152.000000 149.000000
152.000000 163.000000
152.000000 177.000000
152.000000 192.000000
138.000000 202.000000
145.000000 206.000000
156.000000 206.000000
166.000000 206.000000
173.000000 202.000000
95.000000 152.000000
106.000000 149.000000
116.000000 145.000000
127.000000 152.000000
116.000000 156.000000
106.000000 156.000000
184.000000 149.000000
195.000000 145.000000
205.000000 145.000000
216.000000 149.000000
205.000000 152.000000
191.000000 152.000000
116.000000 238.000000
127.000000 227.000000
148.000000 224.000000
156.000000 224.000000
166.000000 220.000000
188.000000 224.000000
205.000000 234.000000
188.000000 248.000000
173.000000 256.000000
159.000000 259.000000
145.000000 259.000000
131.000000 252.000000
120.000000 234.000000
145.000000 231.000000
156.000000 231.000000
170.000000 231.000000
202.000000 234.000000
170.000000 245.000000
159.000000 245.000000
145.000000 245.000000
}
