version: 1
n_points: 68
{
58.000000 166.000000
62.000000 191.000000
69.000000 216.000000
76.000000 237.000000
87.000000 262.000000
101.000000 280.000000
116.000000 287.000000
130.000000 295.000000
162.000000 302.000000
191.000000 295.000000
212.000000 284.000000
226.000000 273.000000
241.000000 252.000000
248.000000 227.000000
251.000000 205.000000
259.000000 180.000000
259.000000 155.000000
73.000000 134.000000
83.000000 123.000000
98.000000 116.000000
112.000000 116.000000
126.000000 119.000000
180.000000 116.000000
191.000000 116.000000
205.000000 112.000000
223.000000 116.000000
237.000000 126.000000
151.000000 148.000000
151.000000 162.000000
151.000000 177.000000
151.000000 191.000000
141.000000 205.000000
144.000000 205.000000
155.000000 209.000000
166.000000 205.000000
173.000000 205.000000
94.000000 151.000000
105.000000 148.000000
116.000000 148.000000
126.000000 151.000000
116.000000 155.000000
105.000000 155.000000
180.000000 148.000000
194.000000 144.000000
205.000000 144.000000
216.000000 148.000000
205.000000 151.000000
191.000000 151.000000
123.000000 241.000000
130.000000 230.000000
148.000000 223.000000
155.000000 227.000000
166.000000 223.000000
184.000000 230.000000
198.000000 237.000000
184.000000 248.000000
169.000000 255.000000
159.000000 259.000000
144.000000 259.000000
133.000000 252.000000
123.000000 241.000000
144.000000 234.000000
155.000000 234.000000
169.000000 234.000000
194.000000 237.000000
169.000000 244.000000
159.000000 244.000000
144.000000 244.000000
}
