version: 1
n_points: 68
{
60.000000 164.000000
63.000000 189.000000
67.000000 213.000000
74.000000 235.000000
85.000000 260.000000
99.000000 277.000000
113.000000 288.000000
131.000000 295.000000
163.000000 302.000000
195.000000 295.000000
216.000000 284.000000
230.000000 270.000000
241.000000 249.000000
248.000000 224.000000
255.000000 203.000000
259.000000 178.000000
262.000000 153.000000
74.000000 132.000000
85.000000 121.000000
99.000000 118.000000
113.000000 114.000000
127.000000 118.000000
181.000000 118.000000
195.000000 114.000000
209.000000 114.000000
223.000000 118.000000
237.000000 128.000000
152.000000 149.000000
152.000000 164.000000
152.000000 178.000000
152.000000 192.000000
138.000000 203.000000
145.000000 206.000000
156.000000 206.000000
166.000000 206.000000
173.000000 203.000000
95.000000 153.000000
106.000000 149.000000
117.000000 146.000000
127.000000 153.000000
117.000000 157.000000
106.000000 157.000000
184.000000 149.000000
195.000000 142.000000
205.000000 142.000000
216.000000 149.000000
205.000000 153.000000
191.000000 153.000000
117.000000 238.000000
127.000000 228.000000
149.000000 224.000000
156.000000 224.000000
166.000000 221.000000
188.000000 228.000000
205.000000 235.000000
188.000000 249.000000
173.000000 256.000000
159.000000 260.000000
145.000000 260.000000
131.000000 252.000000
120.000000 238.000000
145.000000 231.000000
159.000000 231.000000
170.000000 231.000000
202.000000 235.000000
170.000000 245.000000
159.000000 245.000000
145.000000 245.000000
}
