version: 1
n_points: 68
{
62.000000 160.000000
65.000000 185.000000
69.000000 207.000000
76.000000 228.000000
83.000000 254.000000
98.000000 272.000000
116.000000 282.000000
134.000000 293.000000
166.000000 300.000000
195.000000 293.000000
217.000000 282.000000
231.000000 268.000000
245.000000 250.000000
253.000000 225.000000
256.000000 203.000000
263.000000 178.000000
263.000000 153.000000
80.000000 128.000000
91.000000 117.000000
109.000000 113.000000
119.000000 113.000000
134.000000 113.000000
188.000000 113.000000
199.000000 113.000000
213.000000 113.000000
231.000000 117.000000
245.000000 128.000000
159.000000 146.000000
159.000000 164.000000
159.000000 178.000000
159.000000 189.000000
145.000000 200.000000
152.000000 203.000000
163.000000 203.000000
173.000000 203.000000
181.000000 200.000000
101.000000 149.000000
112.000000 146.000000
123.000000 142.000000
134.000000 149.000000
123.000000 153.000000
112.000000 153.000000
188.000000 146.000000
199.000000 142.000000
213.000000 142.000000
224.000000 146.000000
213.000000 149.000000
199.000000 149.000000
119.000000 232.000000
134.000000 225.000000
152.000000 218.000000
163.000000 221.000000
173.000000 218.000000
195.000000 221.000000
209.000000 232.000000
191.000000 246.000000
177.000000 254.000000
163.000000 257.000000
148.000000 257.000000
134.000000 246.000000
123.000000 232.000000
148.000000 228.000000
163.000000 228.000000
177.000000 228.000000
206.000000 232.000000
177.000000 243.000000
163.000000 243.000000
148.000000 243.000000
}
