version: 1
n_points: 68
{
61.000000 156.000000
61.000000 181.000000
69.000000 206.000000
72.000000 228.000000
83.000000 253.000000
97.000000 271.000000
112.000000 282.000000
133.000000 293.000000
166.000000 300.000000
194.000000 293.000000
216.000000 282.000000
230.000000 268.000000
245.000000 250.000000
252.000000 224.000000
256.000000 203.000000
263.000000 178.000000
263.000000 153.000000
79.000000 127.000000
90.000000 117.000000
108.000000 109.000000
119.000000 109.000000
133.000000 113.000000
187.000000 113.000000
202.000000 109.000000
216.000000 109.000000
230.000000 117.000000
245.000000 124.000000
162.000000 145.000000
158.000000 160.000000
158.000000 174.000000
158.000000 189.000000
144.000000 199.000000
151.000000 203.000000
162.000000 203.000000
173.000000 203.000000
180.000000 199.000000
101.000000 149.000000
108.000000 142.000000
123.000000 142.000000
133.000000 149.000000
123.000000 153.000000
112.000000 153.000000
187.000000 145.000000
202.000000 142.000000
212.000000 142.000000
223.000000 145.000000
212.000000 149.000000
198.000000 149.000000
119.000000 232.000000
130.000000 221.000000
151.000000 217.000000
162.000000 221.000000
173.000000 217.000000
194.000000 221.000000
209.000000 232.000000
191.000000 246.000000
176.000000 253.000000
162.000000 257.000000
148.000000 253.000000
133.000000 246.000000
123.000000 232.000000
148.000000 228.000000
162.000000 228.000000
176.000000 228.000000
205.000000 232.000000
176.000000 242.000000
162.000000 242.000000
148.000000 242.000000
}
