version: 1
n_points: 68
{
61.000000 161.000000
64.000000 187.000000
68.000000 208.000000
75.000000 230.000000
82.000000 255.000000
97.000000 273.000000
115.000000 283.000000
133.000000 294.000000
165.000000 301.000000
197.000000 294.000000
215.000000 280.000000
229.000000 269.000000
244.000000 248.000000
251.000000 226.000000
255.000000 201.000000
262.000000 179.000000
262.000000 151.000000
79.000000 129.000000
90.000000 118.000000
104.000000 115.000000
118.000000 115.000000
133.000000 115.000000
186.000000 115.000000
197.000000 115.000000
212.000000 111.000000
229.000000 118.000000
240.000000 126.000000
158.000000 147.000000
158.000000 165.000000
158.000000 179.000000
154.000000 190.000000
143.000000 201.000000
151.000000 204.000000
161.000000 204.000000
172.000000 204.000000
179.000000 201.000000
97.000000 151.000000
107.000000 147.000000
122.000000 143.000000
133.000000 151.000000
122.000000 154.000000
107.000000 154.000000
186.000000 147.000000
197.000000 143.000000
212.000000 143.000000
219.000000 147.000000
208.000000 151.000000
197.000000 151.000000
118.000000 233.000000
129.000000 226.000000
151.000000 219.000000
161.000000 222.000000
172.000000 219.000000
194.000000 222.000000
208.000000 230.000000
190.000000 248.000000
176.000000 255.000000
161.000000 258.000000
147.000000 255.000000
133.000000 248.000000
122.000000 233.000000
147.000000 230.000000
161.000000 230.000000
176.000000 230.000000
204.000000 230.000000
176.000000 244.000000
161.000000 244.000000
147.000000 244.000000
}
