version: 1
n_points: 68
{
60.000000 155.000000
60.000000 181.000000
68.000000 206.000000
75.000000 227.000000
82.000000 253.000000
96.000000 271.000000
111.000000 282.000000
132.000000 292.000000
165.000000 300.000000
194.000000 292.000000
215.000000 282.000000
230.000000 267.000000
244.000000 249.000000
251.000000 224.000000
255.000000 202.000000
262.000000 177.000000
262.000000 152.000000
78.000000 127.000000
89.000000 116.000000
107.000000 109.000000
118.000000 109.000000
132.000000 112.000000
187.000000 112.000000
201.000000 112.000000
212.000000 109.000000
230.000000 116.000000
241.000000 123.000000
161.000000 145.000000
158.000000 159.000000
158.000000 173.000000
158.000000 188.000000
143.000000 199.000000
150.000000 202.000000
161.000000 202.000000
172.000000 202.000000
179.000000 199.000000
100.000000 148.000000
107.000000 145.000000
122.000000 141.000000
132.000000 148.000000
122.000000 152.000000
111.000000 152.000000
187.000000 145.000000
197.000000 141.000000
212.000000 141.000000
223.000000 145.000000
212.000000 148.000000
197.000000 148.000000
118.000000 231.000000
129.000000 220.000000
150.000000 217.000000
161.000000 220.000000
172.000000 217.000000
194.000000 220.000000
208.000000 231.000000
190.000000 245.000000
176.000000 253.000000
161.000000 253.000000
147.000000 253.000000
132.000000 245.000000
122.000000 231.000000
147.000000 227.000000
161.000000 227.000000
176.000000 227.000000
205.000000 231.000000
176.000000 238.000000
161.000000 242.000000
147.000000 242.000000
}
