version: 1
n_points: 68
{
56.000000 155.000000
60.000000 180.000000
63.000000 206.000000
70.000000 228.000000
78.000000 253.000000
92.000000 271.000000
107.000000 282.000000
125.000000 289.000000
158.000000 300.000000
190.000000 293.000000
209.000000 282.000000
223.000000 271.000000
238.000000 249.000000
249.000000 224.000000
252.000000 202.000000
256.000000 177.000000
259.000000 151.000000
74.000000 122.000000
85.000000 111.000000
100.000000 108.000000
114.000000 108.000000
129.000000 111.000000
183.000000 111.000000
194.000000 108.000000
209.000000 108.000000
227.000000 111.000000
238.000000 122.000000
154.000000 140.000000
154.000000 159.000000
150.000000 173.000000
150.000000 184.000000
136.000000 195.000000
143.000000 199.000000
154.000000 202.000000
165.000000 199.000000
172.000000 199.000000
96.000000 144.000000
103.000000 140.000000
118.000000 140.000000
129.000000 144.000000
118.000000 148.000000
103.000000 148.000000
183.000000 144.000000
194.000000 140.000000
209.000000 140.000000
216.000000 144.000000
209.000000 148.000000
194.000000 148.000000
114.000000 231.000000
125.000000 220.000000
143.000000 213.000000
154.000000 217.000000
165.000000 213.000000
183.000000 220.000000
198.000000 235.000000
183.000000 249.000000
169.000000 257.000000
154.000000 257.000000
140.000000 257.000000
129.000000 249.000000
118.000000 231.000000
143.000000 224.000000
154.000000 224.000000
169.000000 228.000000
198.000000 235.000000
169.000000 242.000000
154.000000 246.000000
143.000000 246.000000
}
