version: 1
n_points: 68
{
57.000000 154.000000
60.000000 179.000000
64.000000 204.000000
71.000000 226.000000
78.000000 251.000000
93.000000 269.000000
107.000000 280.000000
126.000000 291.000000
158.000000 298.000000
187.000000 291.000000
209.000000 280.000000
223.000000 269.000000
238.000000 251.000000
249.000000 226.000000
252.000000 201.000000
256.000000 179.000000
260.000000 154.000000
75.000000 125.000000
86.000000 114.000000
100.000000 106.000000
115.000000 106.000000
129.000000 110.000000
184.000000 110.000000
194.000000 106.000000
209.000000 106.000000
227.000000 114.000000
238.000000 121.000000
155.000000 139.000000
155.000000 157.000000
151.000000 172.000000
151.000000 183.000000
136.000000 197.000000
144.000000 197.000000
155.000000 201.000000
165.000000 197.000000
173.000000 197.000000
93.000000 143.000000
104.000000 139.000000
115.000000 139.000000
129.000000 146.000000
118.000000 150.000000
104.000000 150.000000
184.000000 143.000000
194.000000 139.000000
205.000000 139.000000
216.000000 143.000000
205.000000 150.000000
194.000000 146.000000
115.000000 233.000000
126.000000 222.000000
144.000000 215.000000
155.000000 215.000000
165.000000 215.000000
184.000000 222.000000
198.000000 233.000000
184.000000 248.000000
169.000000 255.000000
155.000000 259.000000
140.000000 259.000000
129.000000 248.000000
118.000000 233.000000
140.000000 226.000000
155.000000 226.000000
169.000000 226.000000
194.000000 233.000000
169.000000 244.000000
155.000000 244.000000
144.000000 244.000000
}
