version: 1
n_points: 68
{
58.000000 153.000000
61.000000 182.000000
65.000000 204.000000
72.000000 229.000000
79.000000 251.000000
94.000000 269.000000
109.000000 280.000000
127.000000 291.000000
159.000000 298.000000
188.000000 295.000000
210.000000 284.000000
225.000000 269.000000
239.000000 251.000000
247.000000 226.000000
254.000000 204.000000
258.000000 178.000000
261.000000 153.000000
76.000000 120.000000
87.000000 113.000000
105.000000 106.000000
116.000000 106.000000
130.000000 109.000000
185.000000 109.000000
199.000000 106.000000
214.000000 106.000000
228.000000 113.000000
239.000000 124.000000
156.000000 138.000000
156.000000 156.000000
156.000000 171.000000
152.000000 182.000000
138.000000 196.000000
145.000000 196.000000
156.000000 200.000000
167.000000 196.000000
178.000000 196.000000
98.000000 142.000000
105.000000 138.000000
119.000000 138.000000
130.000000 146.000000
119.000000 146.000000
109.000000 149.000000
185.000000 142.000000
196.000000 138.000000
210.000000 138.000000
218.000000 142.000000
210.000000 149.000000
196.000000 146.000000
119.000000 233.000000
130.000000 222.000000
148.000000 215.000000
156.000000 215.000000
167.000000 215.000000
185.000000 222.000000
199.000000 236.000000
185.000000 247.000000
170.000000 255.000000
156.000000 255.000000
141.000000 255.000000
130.000000 247.000000
119.000000 233.000000
145.000000 226.000000
156.000000 226.000000
170.000000 226.000000
196.000000 233.000000
170.000000 240.000000
156.000000 244.000000
145.000000 240.000000
}
