version: 1
n_points: 120
{
90.935500 105.335500
93.361000 103.277500
96.000000 101.438500
98.671000 99.666500
101.686500 98.774500
104.941000 98.617000
108.136500 98.984500
111.095500 100.115500
113.801000 101.766000
116.365500 103.314500
117.140500 105.387500
114.337500 106.703500
111.270500 107.569500
108.177500 108.274500
104.991500 108.642000
101.805500 109.009500
98.557500 109.114500
95.427000 108.589500
92.603000 107.422500
90.883000 105.545000
166.245500 103.569500
168.481000 101.432500
170.874000 99.488500
173.486500 98.069000
176.305500 97.189500
179.415500 97.055500
182.446000 97.354000
185.383000 98.171000
188.204500 99.373500
190.774500 100.817500
190.792500 102.691000
188.412000 104.524500
185.666000 105.793000
182.640000 106.375500
179.516500 106.503500
176.475000 106.205000
173.417500 105.807000
170.362500 105.459000
167.364500 105.011500
166.743000 103.072500
112.754500 182.143500
114.504000 180.008000
116.435500 178.121500
118.425000 176.268000
120.599000 174.669500
122.856000 173.122000
125.136500 171.605500
127.440500 170.161000
129.760500 168.831500
132.284500 168.050500
134.889000 168.462500
137.489500 169.166500
140.113000 169.755500
142.661500 169.150500
145.126000 168.060500
147.742000 167.482000
150.377000 167.937000
152.955500 168.830000
155.455000 169.990500
157.848500 171.310000
160.148500 172.786500
162.398500 174.318500
164.565500 175.970500
166.609000 177.750000
168.542000 179.570000
170.439500 181.410500
169.157000 183.151500
166.782500 184.367000
164.401500 185.676000
162.007500 186.979500
159.601000 188.281000
157.262000 189.660000
154.786000 190.859000
152.322500 192.052000
149.689000 192.866000
146.974000 193.168000
144.214500 193.225000
141.469000 193.111500
138.737500 192.884000
135.974000 192.827500
133.211000 192.770500
130.475000 192.543000
127.801500 192.088500
125.216500 191.301500
122.850500 190.023500
120.538000 188.564500
118.334500 187.036500
116.164000 185.440000
114.295000 183.514000
112.868000 181.632500
114.592500 182.686500
118.343500 181.881000
121.952500 180.746500
125.486000 179.313500
129.154500 178.288000
132.933500 177.783000
136.804500 177.697000
140.679500 177.783000
144.523500 177.998000
148.342000 178.393500
152.104000 179.073500
155.838000 179.831500
159.583000 180.707000
163.303500 181.568500
167.070500 182.084500
165.695000 182.213500
162.050000 181.423500
158.445500 180.460000
154.893500 179.372500
151.214000 178.565000
147.484500 178.033500
143.617500 177.955000
139.768000 177.869000
135.903000 177.869000
132.035000 177.912000
128.399000 178.471000
124.930500 179.546500
121.604000 181.052000
118.085000 182.084500
114.808000 182.643500
}
