version: 1
n_points: 120
{
89.792500 105.725500
92.061500 103.556500
94.678000 101.908500
97.653500 100.914000
100.610500 100.015500
103.702000 99.611000
106.752500 100.112000
109.539500 101.111000
112.301000 102.119500
115.050000 103.467500
115.235000 105.634000
112.555000 107.149500
109.624000 108.253000
106.591500 109.133500
103.515500 109.634500
100.365000 109.735000
97.208000 109.608500
94.157000 109.085500
91.473000 107.706500
89.893000 105.875500
163.730000 104.154000
166.214000 102.083500
168.637500 100.020000
171.265000 98.422000
174.060500 97.123000
177.212500 96.916500
180.327500 97.305500
183.403500 98.002000
186.418000 98.881000
188.935000 100.770500
189.494500 102.774000
186.666000 104.303500
183.914500 105.940500
180.992500 106.999500
177.790500 107.255500
174.601000 106.945500
171.536500 106.144500
168.501500 105.343000
165.275500 105.188000
164.092000 103.843500
112.176000 182.500000
113.731000 180.386000
115.502500 178.461000
117.317500 176.648500
119.317000 175.002000
121.592000 173.701000
123.931000 172.476500
126.153000 171.287000
128.655000 170.717000
131.287000 170.717000
133.870500 171.095500
136.447000 171.493000
139.056500 171.605500
141.484500 170.731000
143.842000 169.744500
146.312500 168.971500
148.910500 169.020000
151.338500 169.952000
153.678000 171.103500
155.974500 172.358500
158.224000 173.707000
160.427500 175.099000
162.537000 176.636000
164.622500 178.214500
166.533500 179.931500
168.326000 181.744000
166.630000 183.517500
164.324500 184.755500
162.154500 186.198500
159.985500 187.640000
157.689500 188.896000
155.456000 190.265000
153.060000 191.352500
150.529000 192.085000
147.962000 192.645500
145.387000 193.136500
142.775500 193.410000
140.151500 193.652000
137.510500 193.749000
134.875500 193.629500
132.270500 193.313000
129.707000 192.788500
127.170000 192.179000
124.704500 191.285500
122.435500 189.995500
120.403000 188.350500
118.390500 186.734500
116.308500 185.177500
114.219500 183.642500
112.224500 182.257500
113.300000 182.633500
116.771500 181.257500
120.439500 180.774000
124.146500 180.377500
127.846500 179.994000
131.616500 179.934000
135.377000 179.814000
139.161500 179.814000
142.942000 179.837500
146.706500 179.934000
150.452500 180.114000
154.102000 180.660000
157.745500 181.313500
161.490500 181.553500
165.171500 181.756000
163.654000 181.853500
159.992500 181.313500
156.377000 180.676500
152.692000 180.148000
149.028000 179.532500
145.276500 179.394000
141.520000 179.274000
137.850000 179.814000
134.108000 179.994000
130.415000 180.354000
126.659000 180.474000
122.991500 180.834000
119.405500 181.493500
115.873000 182.333500
113.540000 182.633500
}
