version: 1
n_points: 120
{
87.441000 107.667000
89.560500 105.398000
92.139500 103.556000
94.930000 102.179500
97.985500 101.574000
101.136000 101.075000
104.319000 101.182500
107.185500 102.499000
109.875000 104.203500
112.507000 105.936500
112.998500 107.326000
110.320500 109.006500
107.426500 110.312000
104.357500 111.114500
101.219500 111.569000
98.062500 111.986000
94.872000 112.102500
91.879000 111.347500
89.187500 109.830500
87.441000 107.629000
161.707500 105.646000
164.268000 103.642000
166.867000 101.647500
169.610000 99.915000
172.612000 99.080500
175.885500 98.691000
179.212500 98.691000
182.345000 99.414000
185.371000 100.590500
187.940000 102.419000
187.892500 104.389500
185.233500 106.280500
182.385000 107.827500
179.268500 108.578500
175.945500 108.706500
172.628500 108.595500
169.437000 108.036500
166.294000 107.315500
163.159000 106.764000
161.985500 105.312500
110.351000 186.284500
111.993000 183.742500
113.587000 181.162000
115.345000 178.743500
117.461500 176.610000
119.110500 174.178000
121.043000 171.948500
123.741000 170.966000
126.711000 171.425500
129.588000 172.284000
132.532000 172.878500
135.542500 173.125500
138.224500 172.044000
140.973000 170.838500
143.868500 170.156000
146.812000 170.638500
149.468500 172.102000
152.008000 173.753000
154.643000 175.263000
157.149500 176.954500
159.603000 178.678000
162.109000 180.379000
164.586000 182.124000
166.915000 183.855000
168.200500 185.592500
166.247500 187.826000
164.378000 190.157500
162.173000 192.227500
159.979500 194.286500
157.824500 196.373500
155.663000 198.436500
153.393000 200.461500
150.898000 202.148000
148.213500 203.491000
145.301000 204.302500
142.232000 204.302500
139.163000 204.302500
136.094000 204.302500
133.035500 204.370000
129.966500 204.370000
126.976000 204.044500
124.124500 203.327500
121.504500 201.882500
118.985000 200.217500
116.631500 198.368500
114.758500 196.158000
113.239000 193.694000
112.375500 190.958500
111.431000 188.439000
110.283500 186.082000
119.990500 184.620500
122.308500 182.847000
124.507000 181.270000
127.067500 180.388000
129.921000 180.114500
132.823500 180.183000
135.754000 180.183000
138.635000 179.910000
141.533500 179.773500
144.391000 179.841500
147.160500 180.421000
149.850000 181.164000
152.424000 182.231000
154.740500 183.625500
154.702000 186.298000
153.153500 188.614500
151.099500 190.571500
148.681000 192.122000
146.139500 193.358500
143.350500 193.701000
140.452500 193.837500
137.522000 193.837500
134.607500 193.769000
131.795000 193.322000
129.008000 192.713500
126.340500 191.858000
123.970500 190.697000
122.070500 188.885500
120.381000 186.854500
120.127000 184.689000
}
