version: 1
n_points: 120
{
86.430500 107.210500
88.712000 104.885000
91.382500 103.091000
94.139500 101.538000
97.134500 100.632000
100.339500 100.377000
103.470000 100.946500
106.428500 102.109000
109.253000 103.597000
111.830500 105.495500
112.657500 107.448000
109.753500 108.865500
106.842500 110.167500
103.711000 110.868500
100.505000 111.240500
97.266000 111.410500
94.008000 111.416000
90.834500 110.914000
88.148000 109.493000
86.255000 107.473500
161.044500 105.464500
163.525000 103.216000
166.206500 101.288000
168.980000 99.553500
172.057000 98.274500
175.317500 97.807000
178.609500 98.148500
181.736000 99.199500
184.659000 100.622500
187.494000 102.330000
187.558000 104.360000
184.997500 106.456000
182.034500 107.843000
178.813500 108.414500
175.490000 108.713000
172.145000 108.597000
168.875500 108.249000
165.645000 107.648500
162.528500 106.890500
161.102500 105.232500
107.924000 185.521000
109.100000 182.738500
110.714000 180.268500
112.278000 177.736500
114.048500 175.410000
116.131500 173.353500
118.135000 171.124000
120.570500 169.453000
123.563000 169.206500
126.507000 169.819000
129.464000 170.435500
132.409500 170.930500
135.413000 171.099500
138.256500 170.231500
141.021000 169.064500
143.934500 168.652500
146.742500 169.685000
149.447000 171.068500
152.065000 172.572500
154.664000 174.120000
157.274000 175.647000
159.720000 177.416000
162.099000 179.241000
164.436000 181.085000
166.409000 183.309000
166.224500 186.087000
164.529500 188.385500
162.219500 190.324500
160.161000 192.446000
157.826500 194.341000
155.709500 196.466500
153.519000 198.553000
150.995500 200.184500
148.284000 201.535500
145.388500 202.389000
142.421000 202.956500
139.389000 203.128000
136.327000 203.128000
133.294500 203.004500
130.284500 202.742500
127.323000 202.207500
124.421500 201.403500
121.649500 200.202000
119.049500 198.678000
116.608500 196.918000
114.606500 194.727500
112.684000 192.435500
111.013500 189.964500
109.514000 187.480000
107.862500 185.274500
117.575000 184.031000
119.586000 182.113000
121.991000 180.757500
124.590500 179.644500
127.394500 179.236000
130.267500 179.023000
133.132500 179.210000
135.964500 179.556000
138.819500 179.769000
141.703000 179.715500
144.551500 179.875500
147.296500 180.355000
149.879000 181.226000
152.433000 182.235000
154.911500 183.413000
154.921500 185.519000
152.848500 187.382500
150.058500 187.707000
147.174000 187.600500
144.290000 187.494000
141.397000 187.547000
138.491500 187.547000
135.586000 187.547000
132.715500 187.547000
129.822500 187.600500
126.917000 187.600500
124.055500 187.707000
121.244500 187.387500
118.859500 186.114500
117.682000 183.977500
}
