version: 1
n_points: 120
{
86.994000 106.418000
89.391500 104.150500
92.264000 102.546000
95.253000 101.279000
98.386500 100.427500
101.610000 100.297500
104.884000 100.753000
108.006500 101.720000
110.938500 103.144500
113.566500 105.121500
113.593500 107.232000
110.640500 108.529000
107.587500 109.820000
104.399500 110.455000
101.128500 110.843500
97.802500 110.976000
94.529500 110.715500
91.428500 109.970500
88.687000 108.529500
86.798500 106.678500
159.937000 105.973000
162.404000 103.559500
165.263000 101.646500
168.262500 99.977500
171.302500 98.465500
174.623000 97.868500
178.094000 97.976000
181.466000 98.435500
184.513000 100.093500
187.415000 101.759000
188.734000 104.089000
186.055500 106.164500
182.865000 107.526000
179.582000 108.549000
176.112000 108.710000
172.634000 108.618000
169.357500 107.851500
166.182000 106.778000
162.860500 106.241000
160.098000 105.973000
108.055500 185.221000
109.977000 182.782000
111.505000 180.154000
113.310500 177.624000
115.261500 175.210500
117.315500 172.919500
119.880000 171.186500
122.712000 170.076500
125.775500 169.972500
128.864000 170.238500
131.935500 170.658000
134.976500 171.177000
138.083500 171.306000
140.979500 170.409500
143.869000 169.300000
146.915000 168.911500
149.815000 169.897500
152.493000 171.475000
155.159500 173.080000
157.566500 174.995000
160.059500 176.856500
162.277500 178.980500
164.612000 180.977000
166.806500 183.070000
168.180500 185.384500
166.666000 187.991500
164.652500 190.335500
162.655000 192.713000
160.579500 195.008500
158.707500 197.412500
156.447500 199.543000
154.020500 201.504500
151.424500 203.207000
148.574000 204.485000
145.537000 205.025500
142.424000 205.219500
139.304000 205.413500
136.186500 205.349000
133.116000 204.896000
130.086000 204.229000
127.097000 203.412000
124.215000 202.296500
121.521000 200.757500
118.972000 199.029000
116.742000 196.949000
114.577000 194.768500
112.704000 192.329000
110.792000 189.963500
109.265000 187.401000
108.314500 184.897500
117.804500 184.527500
119.907000 182.368500
122.477500 180.900500
125.214500 179.787000
128.183000 179.335500
131.197500 179.053500
134.228000 179.053500
137.292000 179.110000
140.342000 179.222500
143.360000 179.448500
146.365500 179.787000
149.362000 180.182000
152.264500 180.708000
154.903000 182.055500
156.630000 184.088000
156.117500 186.963500
154.291500 189.308500
151.418000 190.001500
148.364500 190.057500
145.287500 190.057500
142.217500 190.001500
139.147000 189.945000
136.070000 189.945000
133.015500 189.832000
129.952000 189.888500
126.888000 189.945000
123.962000 189.556000
121.322500 188.431000
119.046000 186.670000
117.635000 184.640000
}
