version: 1
n_points: 120
{
86.381000 104.341000
88.881500 102.627500
91.276000 100.705500
94.038000 99.286500
97.049500 98.515000
100.255500 98.462500
103.351000 98.891000
106.238000 99.949500
108.928500 101.328000
111.279500 103.259000
112.945500 104.754500
110.463000 106.344500
107.365000 106.808000
104.175000 106.913000
100.994000 107.018000
97.791500 107.086000
94.606000 107.227500
91.509000 106.808000
88.704500 105.772500
86.433500 104.341000
161.200500 102.934000
163.738500 101.095500
166.327500 99.428500
168.953000 97.810000
171.685000 96.443000
174.701000 96.012500
177.843500 95.925000
180.881000 96.363000
183.707500 97.432000
186.268000 99.003000
187.307000 100.702500
184.952000 102.469500
182.014500 103.372000
178.954500 103.810000
175.905500 104.292000
172.790000 104.467000
169.633500 104.467000
166.484000 104.423000
163.475000 104.029000
161.025500 103.153000
98.388500 173.711000
100.599500 170.474500
103.179000 167.523000
106.286500 165.184000
109.699000 163.620000
113.332000 162.502000
117.270000 162.255500
121.192000 162.046000
125.172000 161.976000
129.152000 162.046000
133.120500 162.185500
137.116500 162.185500
141.096500 162.255500
145.060000 162.116000
148.990000 161.836500
152.898000 161.417500
156.828000 161.138000
160.765000 161.441000
164.637000 162.026500
168.382500 162.819500
171.381500 165.120000
173.982000 168.000000
176.061000 171.156500
175.614500 174.952500
174.078000 178.374500
172.482500 181.845000
170.749500 185.242000
168.553500 188.482500
165.574000 191.038000
162.460500 193.457500
159.231000 195.709500
155.908500 197.844500
152.340500 199.289500
148.480000 199.904500
144.539500 200.183500
140.570500 200.393000
136.585500 200.463000
132.622500 200.323500
128.770500 199.625000
124.931500 198.892000
121.127000 198.037000
117.672500 196.278000
114.282000 194.230500
111.204500 191.835500
108.395000 189.114500
105.840500 186.262000
103.357500 183.299500
101.112500 180.235000
99.012000 177.128500
98.458000 173.641000
103.973500 173.037000
107.741500 169.875000
113.195000 169.545500
118.679000 169.795000
124.068000 170.543000
129.503500 171.134500
135.001000 171.353500
140.439000 171.042000
145.848000 170.418500
151.278500 169.836000
156.637000 168.996000
162.052500 168.360500
167.470000 168.672500
172.583500 169.732500
171.948500 174.386000
168.762500 178.768500
164.405000 182.011500
159.494000 184.418000
154.628500 186.929000
149.570000 188.702500
144.127500 189.248500
138.629000 189.435500
133.110000 189.498000
127.696500 188.874500
122.460500 187.830000
117.335500 186.078000
112.467500 183.651500
107.802500 181.018000
104.158000 177.524000
103.973500 172.912500
}
