version: 1
n_points: 120
{
89.612500 102.903000
91.856500 100.962000
94.348000 99.582000
96.995500 98.399500
99.865000 97.851500
102.878000 97.750500
105.848000 98.003000
108.445500 99.185500
110.866500 100.819500
113.176000 102.573500
115.526000 103.416500
113.162000 104.772000
110.161000 104.690500
107.148000 104.620000
104.142000 104.519000
101.132500 104.418000
98.147500 104.214500
95.183000 104.014000
92.249000 103.761500
89.562000 103.105000
164.509000 101.394500
166.973000 99.585000
169.580500 98.011000
172.280500 96.572000
175.142000 95.492500
178.134000 94.756000
181.200000 94.561000
184.212500 94.901500
187.148500 95.705000
189.767500 97.193000
189.307500 99.153000
186.379000 99.871000
183.363500 100.240000
180.394000 100.748000
177.400000 101.314500
174.449500 101.948500
171.434500 102.271500
168.426500 102.555500
165.386500 102.733500
164.740000 101.210000
97.991500 170.536500
101.103500 167.643000
104.687500 165.342000
108.580000 163.510500
112.664000 162.100500
116.764500 161.213000
120.986500 160.703000
125.280500 160.338500
129.601500 160.338500
133.840000 160.703000
138.121500 160.994500
142.460000 160.921500
146.690500 160.349000
150.983500 160.047500
155.286500 159.756000
159.501000 159.246000
163.832000 159.352000
168.099000 159.829000
172.223500 160.921500
176.043500 162.617000
179.376500 165.230500
182.704500 167.765000
183.524500 171.591000
182.194500 175.620000
180.522000 179.489500
178.113000 182.994500
175.347500 186.197000
172.669500 189.440000
169.717000 192.483000
166.881000 195.610000
163.460500 198.176500
159.416500 199.641000
155.186500 200.182000
150.889000 200.473500
146.539000 200.473500
142.197500 200.546500
137.864500 200.619000
133.572500 200.328000
129.378500 199.597000
125.169500 198.725500
121.080500 197.413500
117.394500 195.262500
113.802500 192.937000
110.562500 190.172500
107.575500 187.154500
104.613000 184.077500
101.674000 181.065500
99.340000 177.712000
97.709000 174.041000
97.991500 170.390500
102.013500 172.202000
106.012500 168.303000
112.061500 167.703500
118.231000 167.928000
124.339000 168.556000
130.395500 169.353000
136.494500 169.947500
142.626500 169.536500
148.680000 168.543500
154.681500 167.553500
160.707500 166.578500
166.824000 166.128500
172.993500 165.903500
178.910000 166.920000
179.696000 172.049500
176.243000 177.003000
171.617000 180.964000
166.682000 184.613500
161.063500 187.135000
155.230000 189.096500
149.155500 189.972500
142.962500 189.972500
136.800500 189.597500
130.656500 189.073000
124.533000 188.485500
118.568500 187.340500
113.353500 184.283000
108.610500 180.449500
103.811500 176.699500
102.238500 172.427000
}
