version: 1
n_points: 120
{
88.849500 104.735500
91.415000 102.541500
94.302500 100.774500
97.309500 99.290000
100.544000 98.327000
103.919000 98.106000
107.290000 98.327000
110.453500 99.377000
113.530000 100.777500
116.498500 102.108000
117.589500 104.338500
114.541500 105.343500
111.209500 105.710500
107.992000 106.531500
104.754000 107.391500
101.403500 107.664000
97.988500 107.664000
94.695500 107.272000
91.633000 106.155000
88.905000 104.956500
165.004000 101.564500
167.642000 99.580000
170.603500 98.056500
173.491000 96.476500
176.493500 95.301500
179.827000 95.083500
183.182000 95.192500
186.343000 95.891500
189.358000 97.213000
192.142000 98.913000
192.519500 101.013000
189.652500 102.610000
186.597000 103.906000
183.380000 104.668500
180.033000 104.777500
176.686500 104.614000
173.383000 104.287500
170.111500 103.949000
167.011000 103.244500
164.895000 101.673000
109.742500 182.921000
111.443500 180.053000
113.046500 177.214000
114.526000 174.316500
116.112500 171.555000
118.195500 168.978500
120.812000 166.949000
123.716000 165.480000
126.940000 165.147000
130.273000 165.393500
133.580500 165.804000
136.760500 166.441000
140.038000 166.634000
142.994500 165.462500
145.951000 164.381000
149.197500 164.518500
152.308000 165.579000
155.411500 166.787000
158.524000 168.030000
161.572500 169.385000
164.543500 170.872500
167.563500 172.280500
170.332000 174.071500
172.806000 176.288000
173.877000 179.048000
173.671000 182.310500
172.420500 185.270500
170.346000 187.845000
167.983000 190.051500
165.606000 192.359500
163.309000 194.725500
160.695500 196.790500
157.815000 198.471000
154.663000 199.538500
151.431500 200.085000
148.152000 200.537000
144.789000 200.568500
141.437500 200.467000
138.130500 200.120000
134.815500 199.793500
131.557000 199.211000
128.300000 198.714500
125.090000 197.959000
121.940500 196.929000
118.898000 195.704500
116.183500 193.894000
114.098500 191.328000
112.283500 188.666500
110.805000 185.837500
109.536500 183.196000
114.665000 182.595000
117.792500 180.291000
121.078500 178.244000
124.043500 176.465000
127.579000 174.932500
131.421000 174.452000
135.380000 174.422000
139.303000 174.716000
143.224000 175.010000
147.147500 175.245000
151.021500 175.636500
154.774500 176.362500
158.398000 177.590000
161.819000 179.416000
165.213000 180.948500
165.990500 182.838000
162.622000 184.489000
158.824500 185.241000
154.948000 185.594000
151.009500 185.711500
147.071500 185.594000
143.138000 185.417500
139.186000 185.359000
135.271500 185.653000
131.361000 185.888000
127.409000 185.947000
123.516000 185.770500
119.626000 185.535000
115.962500 184.888500
114.841000 182.419000
}
