version: 1
n_points: 120
{
89.627000 102.847500
92.074000 100.828000
94.852500 99.264000
97.767500 97.981500
100.858000 97.366500
104.009500 97.530500
107.174500 97.868000
110.231000 98.608000
113.169500 99.738000
115.805500 101.395500
115.665500 103.725500
112.841500 104.941500
109.737500 105.587500
106.654000 106.334000
103.529500 106.802500
100.348500 107.046500
97.149500 106.913500
94.054000 106.409000
91.381000 104.895500
89.361500 102.980000
164.862000 100.997500
167.397500 98.783500
170.224000 96.925500
173.153000 95.588000
176.300000 94.598500
179.602500 93.930500
182.973500 93.930500
186.081000 95.192000
189.193000 96.581000
192.171000 98.148000
192.877500 100.358500
189.863500 101.851000
186.729500 103.112000
183.466000 103.946500
180.086500 104.113500
176.671000 104.113500
173.308500 103.891000
170.004500 103.402000
166.758000 102.726500
164.806500 100.942000
112.258500 183.921500
113.450000 181.066000
114.536000 178.233500
116.258500 175.631000
118.296000 173.236000
120.499500 170.973000
122.716500 168.756000
125.017500 166.633500
127.401500 164.670500
130.315500 163.750000
133.444000 163.542000
136.187500 164.631500
139.323000 164.674000
142.458000 164.436000
145.545500 163.816000
148.492500 162.764000
151.366000 163.163000
153.774500 165.132500
156.091000 167.271000
158.369500 169.433500
160.603000 171.642500
162.854000 173.834000
165.101500 176.036500
167.509000 178.046000
169.628500 180.271500
171.431000 182.633500
170.619500 185.485000
168.615000 187.885000
166.624000 190.278000
164.350500 192.455500
161.864500 194.382000
159.434500 196.335500
156.870500 198.098000
154.103500 199.569500
151.105500 200.431000
148.097500 201.143000
144.959000 201.306500
141.797500 201.381500
138.631500 201.322000
135.458000 201.322000
132.347000 200.907000
129.324500 200.058500
126.361500 199.031000
123.523500 197.648000
120.689500 196.301000
118.341000 194.294500
116.268000 191.975000
114.351000 189.530500
112.829500 186.792000
111.841000 184.100500
124.454500 181.753000
126.408000 179.737500
128.734500 178.312000
131.268000 177.107500
133.907500 176.363000
136.631500 175.766000
139.411500 175.433500
142.227500 175.495500
144.979500 175.867500
147.764000 176.122000
150.506000 176.558500
153.159500 177.340000
155.797000 178.219000
158.150500 179.700000
160.309500 181.217500
160.774000 183.265000
158.342000 184.419000
155.673000 185.161000
152.907500 185.494500
150.119500 185.656500
147.293500 185.656500
144.496500 185.532500
141.690500 185.408500
138.882000 185.302500
136.076500 185.161000
133.263000 185.082000
130.459000 184.975000
127.662500 184.851000
125.445500 183.940500
124.454500 181.815000
}
