version: 1
n_points: 120
{
90.404500 102.374500
92.749000 100.089500
95.405000 98.327500
98.419500 97.167500
101.604000 96.356500
104.892000 96.177000
108.100000 96.712500
111.216000 97.667000
114.245000 98.950500
117.156000 100.346000
117.137000 102.475500
114.151500 103.789500
111.055500 104.682000
107.911500 105.592000
104.736000 106.367000
101.459000 106.545500
98.182000 106.367000
94.974000 105.844000
92.083000 104.579000
90.345000 102.374500
166.027500 99.927500
168.709500 97.981500
171.593000 96.366500
174.577000 94.907000
177.648500 93.742500
180.899000 93.301500
184.184500 93.593500
187.304000 94.663500
190.241000 96.189500
193.011500 97.873000
192.209000 99.988500
189.397000 101.725000
186.310000 102.894000
183.127000 103.730000
179.799500 103.730000
176.576000 103.156500
173.383500 102.453000
170.127500 101.944000
166.870000 101.656000
166.430500 99.812000
116.385000 181.854000
117.770000 179.699000
119.381500 177.761500
121.044000 175.829500
122.828000 174.033000
124.823500 172.460000
126.911000 171.027000
128.997500 169.633500
131.180000 168.424500
133.572000 167.926500
136.101500 168.063000
138.643000 168.199500
141.201000 168.268000
143.758500 168.199500
146.255500 168.336000
148.582000 169.346500
150.677500 170.745500
152.497000 172.497000
154.459500 174.102500
156.393500 175.779000
158.153500 177.607500
159.862000 179.508000
161.035000 181.737000
161.376500 184.205500
160.311500 186.441000
158.970000 188.578000
157.518000 190.663000
155.938000 192.618000
154.248500 194.539500
152.445000 196.287500
150.505000 197.914000
148.455000 199.418000
146.309000 200.755000
144.039500 201.889500
141.599000 202.540500
139.036500 202.608500
136.495000 202.472000
134.054000 201.944000
131.586500 201.402500
129.146000 200.718000
126.720000 199.924500
124.437000 198.783000
122.595500 197.073500
121.100000 195.038500
119.687500 192.939500
118.551500 190.779000
117.733500 188.459000
117.134000 186.085000
116.453500 183.768500
116.453500 181.581000
137.884000 181.356500
137.470500 181.791000
137.056500 182.225000
136.643000 182.659500
136.483500 183.195000
136.483500 183.795000
136.693000 184.309500
137.045500 184.786000
137.469500 185.210000
137.974000 185.503000
138.506000 185.691500
139.105500 185.691500
139.650500 185.558000
140.188000 185.321500
140.663500 184.968500
141.100500 184.594000
141.497500 184.151500
141.924500 183.746500
142.286000 183.318000
142.549000 182.827000
142.419500 182.284000
142.007500 181.884000
141.492500 181.626500
140.964000 181.423000
140.447000 181.223000
139.875000 181.156000
139.277500 181.163000
138.730000 181.289500
138.186500 181.454000
137.817500 181.823000
}
