version: 1
n_points: 120
{
90.529500 101.374500
93.297000 99.350000
96.073500 97.417000
99.097000 95.858000
102.403500 95.210500
105.823500 95.322500
109.164000 95.939000
112.461500 96.768000
115.641000 97.903500
118.479500 99.637500
117.505500 102.120000
114.280000 103.171000
111.018000 104.064500
107.676000 104.569000
104.315000 105.017000
100.959000 105.409500
97.582500 105.577500
94.318500 105.017000
91.478000 103.672000
90.753500 101.094500
164.620000 99.346500
167.357000 97.226000
170.316000 95.403500
173.288500 93.651000
176.522500 92.449500
179.953000 91.813500
183.431500 91.769500
186.707000 92.837500
189.816000 94.393000
192.800500 96.152000
193.571500 98.453500
190.473000 99.983000
187.263000 101.225500
183.987000 102.283000
180.559500 102.721000
177.068500 102.780000
173.687500 102.252500
170.392000 101.418500
167.251000 100.353000
164.797500 98.991500
111.442500 187.971500
113.436000 184.841000
115.491000 181.758500
117.330000 178.594000
119.493500 175.637500
121.639500 172.716000
124.517000 170.473000
127.795500 168.705000
131.219000 167.419000
134.833000 166.905000
138.564000 166.991000
142.254000 166.905000
145.728000 165.990500
149.396500 165.706500
153.032500 166.220000
156.504500 167.351000
159.416000 169.577000
162.183500 172.002500
164.531500 174.778500
166.728500 177.626000
168.863500 180.566500
170.665500 183.738500
171.987000 187.064500
172.841500 190.537000
172.629500 194.222000
170.885000 197.454000
169.260500 200.717500
167.535500 203.983500
165.380500 206.909500
163.280500 209.923000
160.951000 212.783500
158.091000 215.044000
154.769000 216.661000
151.298000 218.012000
147.704500 218.702000
143.996500 218.886000
140.269500 218.784500
136.636000 218.286500
133.014000 217.687000
129.428000 216.945500
126.095500 215.551000
123.383000 213.100000
121.004500 210.293000
118.761000 207.364500
116.603000 204.436000
114.684000 201.403500
113.583500 198.010500
112.727000 194.538000
111.779000 191.134000
111.614000 187.714500
119.499000 186.403500
122.571500 183.331000
126.215500 180.983000
129.998000 179.102500
133.647000 177.415000
137.778500 176.378000
142.154500 176.205000
146.509500 176.464500
150.767500 177.069500
154.779500 178.548500
158.286000 181.113500
161.991000 183.406500
165.440500 185.934500
167.206500 188.995000
164.806000 192.346500
161.835500 195.501500
158.968500 198.775500
156.348500 202.240500
153.043500 204.979000
148.985500 206.367500
144.841000 207.404500
140.470500 207.664000
136.133500 207.209000
132.068500 205.824500
128.268000 203.901500
124.814500 201.312000
122.697000 197.944500
121.314000 194.105000
120.277000 190.072000
119.931000 185.885000
}
