version: 1
n_points: 120
{
91.545000 95.536500
93.903500 93.287500
96.554500 91.350500
99.518500 89.904500
102.729500 89.118500
106.014500 88.789500
109.305500 88.968500
112.449500 89.889000
115.299500 91.422500
118.220000 92.645000
118.358500 94.834000
115.379500 96.222000
112.398500 97.563500
109.234000 98.418000
105.947500 98.703000
102.645500 98.992500
99.309000 98.992500
96.059000 98.534000
93.095000 97.401500
91.764500 95.317000
166.979000 92.291500
169.598500 90.248000
172.449000 88.490000
175.594500 87.268500
178.777000 86.363500
182.124000 86.126500
185.460000 86.408000
188.667000 87.089500
191.497000 88.692500
194.116500 90.662500
194.307000 93.031500
191.219500 94.332500
187.927000 94.999500
184.596000 95.403000
181.214000 95.518000
177.815500 95.518000
174.519000 95.172500
171.258000 94.632500
168.117000 93.602500
167.382000 92.061000
107.830000 177.978500
109.132000 172.907000
112.123500 168.563000
114.223000 163.875500
116.251000 159.376000
120.735000 156.786500
125.718500 155.011000
130.903000 153.945500
136.304500 153.708500
141.734000 153.590000
146.981500 153.270500
152.179000 152.643000
157.531500 152.998000
162.485000 154.774000
167.417500 156.550000
172.364500 158.391000
175.986000 161.841000
178.864000 166.127000
180.602000 170.837500
181.587000 175.908000
181.824000 181.267000
180.995000 186.381000
179.337500 191.103500
177.527500 195.840500
175.983000 200.631000
174.957000 205.705500
173.891500 210.784500
172.580000 215.763500
170.458500 220.467000
167.972500 224.979000
165.285500 229.205500
160.723500 231.017500
155.784000 232.675000
150.747000 233.740500
145.422500 234.214000
140.147000 233.622000
134.998000 232.675000
130.211000 230.904000
126.438000 227.842000
122.755000 224.395500
120.853000 219.705500
118.991000 215.067500
116.827500 210.575500
114.484500 206.629000
112.523500 202.207000
111.263000 197.389000
110.197500 192.373500
109.132000 187.427000
107.650000 182.653000
107.474500 177.505000
111.038000 178.324500
114.466000 172.082500
120.248500 168.092000
127.128000 165.968500
134.221000 164.867500
141.711500 164.500500
149.144000 163.889000
156.764500 163.889000
164.175500 164.500500
170.946500 166.807000
175.851500 171.694000
179.669000 177.446500
177.883000 184.270000
175.572000 190.740000
173.429500 197.473500
170.741000 204.132500
166.935000 210.143000
162.431500 215.870000
157.760500 221.020000
150.965000 223.222500
143.583000 223.956500
136.316000 223.222500
130.354500 220.029000
126.200500 214.774000
121.981000 209.331000
119.029500 203.076500
115.809000 197.291500
112.506000 191.612000
110.671000 185.038500
110.915500 177.835500
}
