version: 1
n_points: 120
{
90.953500 97.983000
93.468500 95.947500
96.137000 94.182000
98.915000 92.706000
102.044500 92.221500
105.268500 91.991000
108.458500 92.210500
111.432500 93.300000
114.191000 94.889500
117.043000 96.024000
117.246000 98.079000
114.477500 99.407000
111.489500 100.287500
108.403000 100.979000
105.275000 101.555000
102.066000 101.728000
98.860000 101.497500
95.947000 100.748500
93.081000 99.649500
91.068500 97.983000
166.805000 95.075500
169.329000 93.277500
171.965000 91.705500
174.877500 90.560000
177.894500 89.827500
180.948500 89.376000
184.047500 89.488500
187.031000 90.222500
189.850000 91.276500
192.482000 92.776500
192.630500 95.209500
189.750500 96.328500
186.841000 97.332000
183.809500 97.897000
180.706000 98.123000
177.571000 98.179500
174.456000 98.082500
171.403500 97.698500
168.707000 96.695000
166.692500 95.188500
99.921000 166.325000
103.135000 163.416000
107.006500 161.411500
111.098000 160.066000
115.293500 158.965000
119.387500 157.420500
123.409500 155.986000
127.530500 154.723000
131.805000 154.170500
136.162500 154.407500
140.517000 154.657500
144.864500 154.960000
149.248500 154.934000
153.596000 154.565000
157.996500 154.644000
162.371500 154.881000
166.759000 155.038500
171.008000 155.736000
175.014500 157.305000
178.904500 158.985000
182.737000 160.850500
186.457500 163.010500
186.819500 166.887500
185.270500 170.715500
184.059000 174.767500
181.886500 178.322500
178.614500 181.157500
175.682500 184.325000
172.522500 187.264000
168.957500 189.712000
165.544500 192.336000
161.887500 194.572500
157.775000 195.738500
153.414000 196.061000
149.004000 196.080500
144.600000 196.159500
140.212500 196.001500
135.799000 196.001500
131.506000 195.528000
127.143500 195.212500
122.952500 194.171000
119.642000 191.402500
116.513000 188.442000
113.308500 185.529000
109.999000 182.771500
106.632500 180.064000
103.440000 177.105500
100.738500 173.851500
99.921000 169.851000
100.237000 165.615000
103.643500 166.682000
108.814500 163.947500
115.045500 164.021500
121.396500 163.799500
127.780000 163.725500
134.155500 163.652000
140.524000 163.799500
146.883500 164.021500
153.267500 164.095000
159.624000 163.873500
165.799500 162.986500
172.045000 162.340000
178.401000 162.284000
183.538000 164.527000
182.482500 170.103000
177.923000 174.290000
173.095000 178.296500
167.985000 181.780500
162.079500 184.063000
156.011000 185.465500
149.739500 186.046000
143.361500 186.105000
137.013000 185.898000
130.739500 185.233000
124.600000 184.272000
118.933500 182.198000
113.653500 179.278500
108.595500 175.858000
104.062500 172.126500
103.496000 166.386500
}
