version: 1
n_points: 120
{
90.860500 99.147000
93.235000 97.072000
96.039500 95.581000
98.942500 94.307000
101.983500 93.766000
105.138500 93.583000
108.205000 94.056500
111.082000 95.199500
113.834000 96.693500
116.534500 97.785500
116.492000 99.862500
113.848000 101.327500
110.773500 101.811000
107.717000 102.462000
104.622500 102.862000
101.440500 102.935500
98.269000 102.817500
95.223500 102.343500
92.631500 100.918000
91.038000 99.265500
164.009500 97.994000
166.841000 96.041000
169.685000 94.168500
172.579000 92.374000
175.576000 90.893500
178.920500 90.213500
182.329000 89.962500
185.596000 90.716500
188.749000 92.042000
191.780000 93.494500
192.341500 95.702000
189.436000 97.328500
186.152500 97.994000
182.766500 98.341500
179.360500 98.621500
175.964000 98.945500
172.594500 99.312000
169.176500 99.563000
165.780500 99.374500
164.198000 97.680500
101.773000 167.520000
106.723000 164.760000
112.982000 164.905500
119.369000 164.905500
125.710500 164.687500
132.045000 164.833000
138.395000 165.060000
144.732000 165.341000
151.007500 164.978000
157.174000 164.252000
163.474500 163.816000
169.570000 162.799500
175.798500 162.291000
181.783500 163.284500
182.388000 167.996500
178.596500 172.619000
173.274000 175.908000
167.780500 179.036000
161.933000 181.262000
155.846500 182.771500
149.618000 183.551500
143.289500 183.933500
136.902500 183.933500
130.663500 183.251000
124.705500 181.601000
118.885500 179.985000
113.007000 178.463500
107.602000 176.162500
103.525000 172.032000
101.991000 167.229500
97.950000 166.437500
101.625500 164.061000
105.554500 162.142000
109.545000 160.325000
113.538500 158.582500
117.666500 157.278500
121.843000 156.061000
126.108000 155.253000
130.464500 155.171000
134.694500 155.933000
139.033500 156.322500
143.383000 156.098000
147.514500 154.772500
151.660500 153.608500
156.004500 153.361500
160.353500 153.690500
164.639000 154.431000
168.924000 155.253000
173.153000 156.372500
177.300500 157.674500
181.341000 159.160000
185.132000 161.183500
187.425500 164.313000
186.673500 168.435500
184.479000 172.098000
181.737000 175.333000
178.796500 178.432500
175.582000 181.242500
172.315500 184.015000
168.916000 186.674000
165.321000 189.085500
161.420500 190.830000
157.325500 192.370500
153.139500 193.329500
148.809000 193.658500
144.406500 193.658500
140.023500 193.576500
135.679500 193.329500
131.408000 192.749500
127.183500 191.868500
122.950500 190.944500
118.926500 189.467500
115.224000 187.166000
111.418500 185.014000
107.771500 182.674000
104.176500 180.230000
100.962500 177.427500
98.759500 173.908500
97.374500 170.080000
97.950000 166.108500
}
