version: 1
n_points: 120
{
90.898000 102.721500
93.275500 100.503500
95.923500 98.642000
98.926000 97.316500
102.079000 96.686000
105.394000 96.656500
108.646500 96.823500
111.740000 97.757000
114.543000 99.325500
117.190500 101.025500
116.729000 102.888500
113.862000 104.371500
110.770500 105.416500
107.554000 105.949000
104.277500 106.227000
100.991500 106.394000
97.773500 106.672000
94.715000 105.949000
91.935000 104.593000
91.120500 102.276500
165.887500 101.044500
168.198000 98.667500
171.034500 96.921000
174.014000 95.400000
177.155500 94.359500
180.423500 94.055000
183.790500 93.999000
186.990000 94.680000
190.045500 95.816500
192.965500 97.251000
193.428500 99.662500
190.597000 101.351500
187.410500 102.238000
184.152000 102.806500
180.817500 103.090500
177.464000 103.204000
174.107000 103.147500
170.790500 102.920000
167.582500 102.403500
166.115000 100.760500
111.312000 179.587000
112.541500 176.474500
113.880500 173.460500
115.606000 170.573000
117.630500 167.895000
119.255000 164.935000
121.173500 162.260000
123.978000 160.474000
127.209500 159.741000
130.577500 159.546000
133.863000 160.116500
137.025500 161.184000
140.293000 161.579000
143.475500 160.746000
146.596000 159.618500
149.927000 159.328000
153.150500 160.208500
156.175500 161.682500
159.117000 163.339000
161.904500 165.270000
164.784000 167.068500
167.366000 169.250000
169.908000 171.450000
171.903000 174.132500
173.415000 177.084500
174.036000 180.266500
172.783500 183.280000
170.594000 185.801500
168.332500 188.291000
166.112000 190.791500
163.601000 193.052500
160.941000 195.019000
158.193500 196.886000
155.116500 198.169500
151.842000 198.953500
148.471500 199.192500
145.072000 199.192500
141.688500 199.047000
138.319500 198.829500
134.986500 198.468000
131.784500 197.448500
128.531000 196.509000
125.446500 195.134000
122.544500 193.417000
119.673500 191.682500
117.268500 189.392000
114.900000 187.023500
112.700000 184.533500
110.766000 182.018500
111.312000 179.296500
116.993500 180.264500
119.631000 177.838500
122.752000 176.025000
125.871000 174.197000
129.193000 172.760000
132.690500 171.924000
136.259500 171.417000
139.890500 171.434500
143.533000 171.505000
147.158000 171.717000
150.765000 172.054000
154.316500 172.706000
157.644500 173.959000
160.889500 175.511000
163.794000 177.617500
165.293500 179.946000
162.540500 182.214500
159.202500 183.566000
155.618000 183.938000
151.967000 183.938000
148.322500 184.008500
144.671500 184.008500
141.029000 183.938000
137.409500 183.726000
133.787000 183.514000
130.165000 183.302000
126.583500 182.919500
123.050500 182.383500
119.629000 181.677500
116.993500 180.476500
}
