version: 1
n_points: 120
{
94.965500 103.973000
97.167000 102.392500
99.354500 100.823500
101.771500 99.650000
104.412500 99.198000
107.153000 99.198000
109.841500 99.532000
112.487500 100.072500
115.055000 100.886000
117.282000 102.318500
116.196000 104.149500
113.614500 105.015000
110.972000 105.644000
108.317500 106.121500
105.607000 106.265000
102.892500 106.408000
100.152000 106.408000
97.445000 106.456000
94.918000 105.801500
95.204500 103.782000
167.227500 101.749500
169.819500 99.871000
172.744500 98.622500
175.803500 97.670500
178.933000 97.080500
182.129000 96.763000
185.332500 96.973000
188.368000 97.973000
191.310500 99.276000
194.217000 100.569000
193.472000 101.767500
190.326500 102.422500
187.180000 102.930500
183.985000 103.230000
180.774000 103.413500
177.557500 103.535000
174.325500 103.574500
171.118500 103.413500
167.952000 103.118500
167.656500 101.588500
116.618500 170.931000
117.684500 168.255000
118.840500 165.664500
120.738500 163.546000
122.689500 161.435500
124.645000 159.328500
126.771000 157.458500
128.887000 155.631000
131.439000 154.449500
134.249000 154.138500
137.063500 154.526500
139.890500 154.838000
142.663500 155.305500
145.476500 155.374500
148.259000 154.890500
151.065000 154.449500
153.914000 154.594000
156.671500 155.258000
159.341000 156.329000
161.668000 157.942500
163.502000 160.129000
165.213500 162.384500
167.020000 164.525500
168.473500 166.955000
168.939500 169.700500
168.429500 172.462000
166.884500 174.869000
164.985500 177.013500
162.942500 178.982500
161.058500 181.067000
158.928500 182.995000
156.601000 184.676500
154.155000 186.125500
151.505000 187.228000
148.826500 188.217500
146.084500 188.889500
143.270000 189.278000
140.399500 189.356000
137.516000 189.356000
134.692000 189.005500
131.939000 188.345500
129.240500 187.465000
126.723500 186.167500
124.364500 184.638000
122.343500 182.692000
120.795500 180.316500
118.965500 178.168000
117.409500 175.855500
116.618500 173.238000
116.618500 170.464500
135.159500 170.644500
136.146000 169.658000
137.213000 168.783000
138.372000 168.047500
139.641500 167.476500
140.959500 167.027500
142.300500 166.708500
143.664500 166.504500
145.057500 166.489000
146.437500 166.553000
147.750500 166.872500
149.027000 167.413000
150.135000 168.230500
151.090500 169.186000
151.654000 170.393500
151.092000 171.590000
149.851500 172.089000
148.505000 172.314500
147.160000 172.568500
145.832500 172.926000
144.487000 173.201500
143.123000 173.393500
141.753500 173.521500
140.358500 173.521500
138.963500 173.521500
137.576500 173.457500
136.232500 173.201500
135.159500 172.631500
134.843500 171.408000
135.607500 170.516500
}
