version: 1
n_points: 120
{
91.047000 104.999500
93.685000 103.664000
96.349500 102.427000
99.108000 101.423000
101.963000 100.806000
104.869000 100.552000
107.805500 100.552000
110.715500 100.869500
113.483500 101.731500
115.771500 103.420000
115.762000 105.381500
112.907000 105.825500
109.965500 105.952500
107.012000 106.016000
104.050000 106.016000
101.106500 105.889000
98.155000 105.825500
95.193500 105.825500
92.271000 105.707000
91.555000 104.936000
170.886000 102.644500
173.498500 100.954000
176.360500 99.703000
179.305500 98.774000
182.407500 98.480000
185.548000 98.421500
188.629500 98.858000
191.676500 99.614500
194.699000 100.467000
197.621500 101.528000
196.836000 102.644500
193.769000 103.081000
190.661500 103.456000
187.542000 103.712000
184.414500 103.897500
181.276000 104.003500
178.126000 104.003500
174.983500 103.955000
171.895500 103.712000
171.128500 102.401500
112.492500 165.300000
113.561000 162.291000
115.081500 159.528500
116.597500 156.703500
118.450000 154.109500
120.356500 151.570000
123.030000 150.076000
126.163000 149.549000
129.349500 149.614500
132.446500 150.142000
135.638000 150.339500
138.834500 150.537500
142.016000 150.735000
145.229000 150.801000
148.421000 150.577500
151.513000 149.810500
154.589000 149.021500
157.714000 148.521500
160.889000 148.296500
164.066000 148.362500
167.134000 149.124000
169.929000 150.686000
172.449000 152.630000
174.367500 155.067000
175.826000 157.840500
176.221500 160.947500
175.563500 163.980000
173.049500 165.761000
169.914500 166.156500
166.764000 166.486000
163.791000 167.317500
161.264000 169.209000
158.594500 170.932500
156.047000 172.817000
153.210000 174.268000
150.181500 175.320000
147.015000 175.581000
143.821000 175.383000
140.605500 175.317000
137.414000 175.119500
134.244500 174.724000
131.090500 174.200000
128.102000 173.095000
125.212000 171.759000
122.684000 169.955500
120.022000 168.504500
116.891500 168.504500
114.149000 169.517500
112.163000 167.716500
112.624000 164.838500
117.178000 169.035000
120.447000 167.010000
123.892500 165.364500
127.484500 164.142000
131.209000 163.500000
135.039500 163.240000
138.895000 163.305000
142.758500 163.305000
146.615500 163.355000
150.466000 163.440000
154.309000 163.565500
158.172500 163.565500
161.999500 163.760500
165.758000 164.346500
169.335000 165.551500
168.576000 165.714000
164.876500 165.047500
161.108500 164.542000
157.245000 164.542000
153.407500 164.412000
149.590000 164.216500
145.774000 163.956000
141.972000 163.695500
138.139000 163.565500
134.323500 163.848500
130.553500 164.346500
126.840000 164.953000
123.418500 166.235000
120.025500 167.806500
117.243500 169.165000
}
