version: 1
n_points: 120
{
91.866000 107.244000
94.476000 105.677000
97.203000 104.349500
100.092000 103.419500
103.092000 102.869500
106.107500 102.434000
109.146500 102.339000
112.093500 102.947500
114.805000 104.286000
117.071500 106.252000
117.226000 107.776500
114.187500 107.956000
111.152500 108.194500
108.109500 108.346500
105.078500 108.616500
102.050000 108.917000
98.996000 108.955000
95.946000 108.872500
92.968000 108.422500
92.170500 107.168000
171.833500 104.349500
174.497500 102.329000
177.535500 100.990500
180.729000 100.212500
184.049500 99.941000
187.402500 99.910000
190.728000 100.203500
194.026000 100.707500
197.154000 101.815500
199.994500 103.550500
199.762000 104.454500
196.453500 104.822000
193.149500 105.279500
189.851000 105.763000
186.546000 106.261500
183.204500 106.449000
179.850500 106.501500
176.530000 106.291500
173.411500 105.480000
172.358500 103.982500
103.918000 172.151500
107.217000 170.070000
110.798500 168.696000
114.440500 167.439500
118.067000 166.100000
121.699000 164.680000
125.304000 163.264500
128.901000 162.020500
132.713000 161.628000
136.609000 161.785000
140.510500 161.942000
144.430500 162.020500
148.328500 161.785000
152.082000 160.988000
155.687500 159.586000
159.342000 158.644000
163.205500 159.035000
166.947000 160.125000
170.560500 161.565000
174.072500 163.241500
177.583000 164.927500
180.828500 167.056000
183.913000 169.373500
185.356000 172.598500
184.287000 176.150000
181.724000 179.003000
178.713000 181.464500
175.600500 183.791500
172.501000 186.106000
169.323500 188.341000
166.350500 190.764000
162.861000 192.430000
159.169500 193.333500
155.278500 193.512000
151.346000 193.512000
147.413000 193.512000
143.480000 193.512000
139.597000 193.276500
135.752500 192.962500
131.901000 192.543000
128.186500 191.549000
124.561500 190.236500
120.997000 188.740000
117.355500 187.465000
114.012000 185.876000
110.856500 183.830000
108.065500 181.231500
105.928500 178.167000
103.937500 175.076500
104.389000 171.680000
110.942000 173.119500
115.571000 171.195500
120.802500 171.811500
126.064000 172.427000
131.418000 172.812000
136.668500 173.581500
141.925000 174.351000
147.286000 174.241000
152.532000 173.210500
157.688500 171.965500
162.755000 170.580000
167.907000 169.445000
173.234000 169.041000
178.543500 169.195000
181.970500 172.485000
178.667500 176.040500
173.813000 178.352500
168.955000 180.510500
163.872000 182.277000
158.603000 182.815500
153.216000 182.662000
147.838500 182.431000
142.472000 182.200000
137.115000 181.892500
131.730000 181.738500
126.326000 181.738500
121.008500 181.430500
115.972500 179.905500
111.504000 177.452000
111.327000 172.965500
}
