version: 1
n_points: 120
{
92.703500 107.990500
95.588500 106.420500
98.473500 105.034000
101.481000 103.794000
104.614000 102.962500
107.884500 102.812500
111.009000 103.387500
114.040500 104.474500
116.851500 105.945000
119.484500 107.415500
118.565500 109.299500
115.731000 110.739500
112.531500 111.251000
109.342500 111.902500
106.105500 112.338000
102.867500 112.700500
99.594500 112.909000
96.561500 111.954500
93.914500 110.352000
93.023500 107.799000
167.880000 107.896000
170.686500 105.829500
173.584500 103.949500
176.517000 102.096500
179.666500 100.601000
183.051500 100.175000
186.493500 100.545500
189.832000 101.421000
193.012500 102.727500
195.657000 104.949500
197.408500 106.732500
194.127500 107.728000
190.844500 108.926000
187.586500 110.169500
184.141500 110.593000
180.636000 110.645500
177.159000 110.381000
173.755000 109.799500
170.500000 108.847500
167.985500 107.737000
110.415500 189.721500
112.496000 186.273500
114.762500 183.095000
117.226000 179.929000
119.531500 176.687500
122.149000 173.703500
125.408000 171.513500
129.297000 171.216000
133.204000 171.763000
137.191500 172.036000
141.091000 172.515000
145.123000 172.500500
149.042500 171.866500
152.284500 169.607500
156.139000 168.937000
159.694500 170.558000
162.981000 172.822500
165.779000 175.620500
168.321500 178.710000
170.490500 182.051500
172.460000 185.492000
174.683500 188.737000
175.504000 192.540000
175.322000 196.542000
174.899000 200.504000
173.983500 204.340000
172.303000 207.873000
169.723500 210.908000
166.831500 213.709000
163.828000 216.348000
160.812000 218.991500
157.266000 220.810000
153.459000 222.030000
149.548500 222.812500
145.516500 222.995000
141.476500 223.086000
137.444500 223.268500
133.398000 223.359500
129.366000 223.177500
125.469500 222.363000
121.740500 220.863500
118.348000 218.757000
116.432000 215.533500
115.792500 211.688000
114.181500 208.164000
112.478000 204.603000
111.677500 200.723500
111.236000 196.759500
110.962500 192.811500
110.962500 189.265500
115.851000 189.407500
119.739500 186.329000
123.979500 184.098500
128.682500 182.587000
133.387000 181.669500
138.303500 181.129500
143.301500 180.949500
148.299000 181.129500
153.033500 182.355000
157.621000 183.839000
162.155500 185.611500
166.372000 188.259500
170.431000 190.901000
174.156000 193.859500
171.095500 197.416500
167.804000 201.068000
163.868000 204.089000
159.617500 206.619000
155.040500 208.436000
150.272000 209.742000
145.326500 210.102000
140.307500 210.192000
135.274000 210.192000
130.397000 209.502000
125.828500 207.937500
121.570500 205.808500
118.111000 202.644500
116.486500 198.320500
115.761500 193.587500
116.031000 189.227500
}
