version: 1
n_points: 120
{
92.317000 108.538000
94.610500 106.446500
97.301500 104.877500
100.229500 103.864000
103.304500 103.416500
106.428000 103.267500
109.494000 103.656000
112.526000 104.335000
115.138500 105.984500
117.809000 107.527000
117.321500 109.589000
114.325500 110.228500
111.276500 110.825500
108.275500 111.638500
105.247500 112.449000
102.147000 112.764500
99.070000 112.397000
96.049000 111.697000
93.375000 110.161000
92.565500 108.339000
166.128500 108.255500
168.904000 106.047500
171.962500 104.241000
175.127000 102.644000
178.466000 101.423500
181.985500 100.956500
185.557000 100.956500
189.024000 101.718500
192.408500 102.852500
195.507500 104.574000
195.080000 106.714500
191.783000 108.058500
188.355500 109.022500
184.860000 109.597500
181.311500 109.919500
177.749500 110.113500
174.180500 110.241500
170.611000 110.134000
167.131500 109.696500
166.128500 107.826500
111.715500 188.850000
113.445000 186.162500
115.245500 183.521500
116.944000 180.800500
118.844500 178.241000
120.919500 175.834000
123.123500 173.574500
125.736500 171.846000
128.755000 170.866500
131.992500 170.701000
135.082500 171.364000
138.273500 171.778000
141.518000 171.861000
144.616000 171.281000
147.465000 169.834000
150.537000 169.043500
153.788000 169.126500
156.919500 169.766500
159.754000 171.308000
162.303500 173.257000
164.578000 175.497000
166.960500 177.682000
169.156500 180.001500
171.217000 182.465000
172.719000 185.138500
173.622000 188.130500
172.665000 191.095000
170.350000 193.282500
167.743000 195.143500
165.296000 197.259000
162.883500 199.422500
160.211000 201.221000
157.410000 202.824500
154.613500 204.440500
151.756000 205.874500
148.733000 206.833500
145.525500 207.165000
142.261500 207.165000
139.034000 206.984500
135.852000 206.509000
132.652000 206.155500
129.608500 205.255500
126.715500 203.822500
123.898500 202.276000
121.180000 200.552000
118.708000 198.577500
116.666500 196.100000
114.968500 193.511500
112.983500 191.029500
111.964500 188.436000
121.570000 187.872000
124.190500 185.954500
127.006000 184.387000
130.015500 183.234000
132.972500 182.374000
136.108000 181.769000
139.308500 181.341000
142.562500 181.287000
145.774500 181.598500
149.000000 181.798500
152.216000 182.118500
155.373500 182.654000
158.451000 183.544000
161.272000 184.995500
163.644500 186.857500
162.108500 189.051500
159.256500 190.546500
156.209000 191.522000
153.049000 192.027500
149.858000 192.411000
146.610500 192.475000
143.348000 192.475000
140.085000 192.475000
136.822500 192.475000
133.570500 192.390500
130.349500 192.049000
127.138000 191.772000
124.013500 191.331500
121.378000 190.177500
121.889500 187.872000
}
