version: 1
n_points: 120
{
94.193000 111.150500
96.484000 109.745000
99.014000 108.798500
101.642500 108.164500
104.306500 107.793000
106.995500 107.614000
109.697000 107.655000
112.291000 108.308500
114.793500 109.316500
117.115000 110.660000
116.841000 112.123500
114.139500 112.207500
111.441500 112.329500
108.736500 112.410500
106.031500 112.492000
103.313500 112.492000
100.595500 112.492000
97.891000 112.410500
95.222000 112.207500
94.274000 111.110000
169.891500 109.147000
172.711000 107.385500
175.869500 106.329000
179.108000 105.532500
182.407000 105.176000
185.671500 105.718500
188.960000 106.194000
192.225500 106.865000
195.455000 107.670500
198.525500 108.892500
197.815000 109.834000
194.523000 110.267000
191.203500 110.521500
187.853000 110.521500
184.502000 110.521500
181.151500 110.521500
177.801000 110.521500
174.450000 110.521500
171.118000 110.623000
169.993000 109.147000
113.722500 179.618000
114.471000 176.563000
115.582500 173.667000
116.602500 170.682000
117.740000 167.799000
119.191500 165.066500
121.166000 162.653500
123.557000 160.922000
126.668500 160.476500
129.814500 160.476500
132.687500 161.367000
135.799500 161.738000
138.976500 161.812000
142.165500 161.812000
145.354500 161.812000
148.519000 161.663500
151.653000 161.288000
154.712500 160.532500
157.766500 159.809000
160.855500 159.364000
163.890500 159.927500
166.406500 161.820000
168.528000 164.068000
169.217500 167.108000
169.737000 170.201500
170.182000 173.291000
170.542000 176.406000
170.245000 179.418000
168.227000 181.695500
165.121500 181.992000
162.203500 182.774000
159.548000 184.316500
157.286500 186.504500
155.055500 188.735000
152.923000 191.016000
150.707000 193.195500
148.064000 194.869000
145.102000 195.717500
141.948000 195.717500
138.771000 195.643500
135.636000 195.346500
132.602500 194.548000
129.778500 193.395500
127.063500 191.846000
124.652000 189.828500
122.736000 187.370500
120.642500 184.999500
118.273000 182.969000
115.683000 181.430500
113.648500 179.766500
117.614500 181.476500
120.735000 180.032000
123.960000 179.024500
127.258500 178.371000
130.584000 177.755000
133.927000 176.999000
137.287500 176.565500
140.696500 176.782500
144.127500 176.926500
147.587500 176.927500
151.021000 177.143500
154.433500 177.452000
157.706500 178.374500
160.983500 179.237500
164.106000 180.176500
163.565000 180.321000
160.247000 179.719000
156.949000 178.940500
153.711500 177.865500
150.478000 176.893000
147.226000 176.206500
143.842500 175.915500
140.411000 175.891500
137.049500 176.308500
133.772500 176.864000
130.639000 177.865500
127.422000 178.732000
124.178500 179.534000
120.979000 180.480000
117.903500 181.187500
}
