version: 1
n_points: 120
{
93.176000 111.731000
95.578000 109.755000
98.280500 108.235500
101.236500 107.301000
104.262500 106.669500
107.388000 106.510000
110.467000 106.916500
113.495000 107.639000
116.315500 108.943000
118.641500 110.931000
118.559500 112.849500
115.518000 113.382500
112.400000 113.563000
109.290500 113.808500
106.164500 113.968500
103.017000 113.968500
99.878500 114.021500
96.768500 113.763000
93.776500 113.237000
93.602000 111.304500
168.559500 111.098500
171.029500 109.206000
173.645500 107.553000
176.403500 106.141500
179.376000 105.193000
182.465000 104.839500
185.581000 104.984000
188.656500 105.446500
191.675000 106.285500
194.465500 107.492000
194.565500 109.626500
191.569500 110.425500
188.515000 111.141000
185.442500 111.676500
182.346000 111.965000
179.208000 111.965000
176.082000 112.088000
172.988500 112.350500
169.885500 112.543000
168.800000 110.906000
114.452000 182.301000
115.373000 179.369500
116.414500 176.490000
117.379000 173.615500
118.589500 170.830500
120.335500 168.357500
122.427500 166.151000
124.788500 164.365500
127.723000 163.712000
130.678000 163.276500
133.736000 163.058500
136.845500 163.058500
139.955000 163.058500
143.055500 162.986000
146.165500 162.986000
149.242500 163.204000
152.340000 163.276500
155.415000 163.422000
158.473500 163.639500
161.495000 164.002500
164.428500 164.738500
166.667500 166.769000
168.739000 168.958000
170.146000 171.606000
171.162500 174.385000
172.101500 177.208000
172.228000 180.242500
170.289000 182.519000
167.393000 183.172500
164.429000 183.780000
161.819000 185.255000
159.637000 187.344000
157.687500 189.656000
155.901000 192.117000
153.936500 194.444000
151.536000 195.973000
148.646000 196.823500
145.605000 197.114000
142.495500 197.114000
139.455000 196.799500
136.531000 195.991000
133.653500 195.008500
130.892000 193.731000
128.286000 192.141000
125.837000 190.317500
123.359000 188.594000
121.150000 186.602500
118.876500 184.586000
116.550500 182.657000
115.033000 181.502500
118.924500 183.942500
122.068500 182.621500
125.326000 181.715500
128.593000 180.982500
131.891000 180.269500
135.224000 179.682000
138.600000 179.371000
141.998000 179.197500
145.401500 179.058500
148.795500 179.272000
152.165500 179.683500
155.494500 180.336000
158.793500 181.161000
162.105000 181.864500
165.296500 182.649500
164.140500 182.434000
160.904500 181.625500
157.585000 181.076000
154.254500 180.468500
150.920500 179.848500
147.584500 179.345500
144.263500 178.843000
140.870500 178.803000
137.544500 179.244000
134.273000 179.870000
131.025000 180.566500
127.791500 181.285000
124.548000 181.992000
121.488000 183.152000
119.068000 184.301500
}
