version: 1
n_points: 120
{
94.421000 113.959500
96.782500 112.112500
99.427000 110.710000
102.166000 109.477500
105.056000 108.845000
108.049500 108.738500
111.058500 108.832000
113.988000 109.329500
116.854000 110.098500
119.589500 111.135500
118.211500 112.799000
115.502000 113.906000
112.593500 114.545500
109.636500 114.961000
106.682500 115.342000
103.730000 115.664000
100.744000 115.824000
97.728500 115.877500
94.867500 115.611000
94.794000 113.746000
169.003000 111.268500
171.577000 109.551000
174.490500 108.501000
177.491500 107.788500
180.592000 107.639500
183.674500 107.878000
186.735000 108.212500
189.831000 108.403500
192.858500 108.966500
195.708000 110.027000
194.290500 111.650500
191.286000 112.239500
188.208000 112.570500
185.135000 112.892000
182.050500 113.178500
178.937500 113.274000
175.820000 113.321500
172.706000 113.369500
169.665500 113.032000
169.576000 110.838500
108.305000 182.417500
111.830500 182.279000
114.883000 180.711000
118.011500 179.136000
121.195000 177.635000
124.310000 176.046500
127.572000 174.693000
130.947000 174.087000
134.413500 174.434000
137.848000 175.072000
141.286500 175.683500
144.802000 175.822500
147.760500 174.479500
150.899500 173.354000
154.364000 173.462000
157.771500 174.210500
161.086000 175.297000
164.275000 176.776500
167.320000 178.464000
170.439500 180.093000
173.415500 181.893500
176.588000 183.306000
179.908000 183.945000
179.788500 185.563000
177.375000 188.115000
175.139000 190.758000
172.633000 193.091000
170.061000 195.379500
167.188500 197.329500
164.301000 199.314500
161.257000 201.051500
158.027500 202.469500
154.868000 204.017500
151.633000 205.393500
148.256000 206.229500
144.779500 206.576500
141.264000 206.438000
137.842000 205.882500
134.447500 205.188000
131.070500 204.494000
127.801000 203.447000
124.570000 202.039500
121.537000 200.349500
118.815500 198.225000
116.303500 195.826500
113.924000 193.309000
112.192500 190.348000
110.650500 187.332000
108.620500 184.639000
108.582500 182.001000
124.114000 186.808000
126.844500 185.907500
129.703000 185.779000
132.603000 185.779000
135.487500 185.843000
138.387500 185.843000
141.208500 185.586000
144.051500 185.393000
146.936500 185.328500
149.821000 185.393000
152.700500 185.521500
155.567000 185.714500
158.456500 185.779000
161.272500 186.036000
162.193500 187.838500
159.852000 189.330500
157.256500 190.281500
154.491500 190.796000
151.674000 191.246500
148.816000 191.504000
145.955000 191.761000
143.076000 191.890000
140.191500 191.954000
137.337000 191.761000
134.513500 191.396500
131.758000 190.860500
129.050000 190.241000
126.380000 189.509500
123.899500 188.652000
124.242500 186.679500
}
