version: 1
n_points: 120
{
91.457000 109.332500
93.880500 107.255500
96.641500 105.659000
99.537500 104.346000
102.630000 103.655500
105.860500 103.709500
109.039000 104.110000
112.100500 105.137500
114.701000 106.951500
117.479500 108.323000
117.010000 110.723500
114.279000 112.035500
111.114000 112.360000
107.976000 112.901000
104.799000 113.283500
101.563500 113.333500
98.377000 113.008500
95.292500 112.251000
92.354500 111.116500
91.673000 108.900000
166.523000 109.158500
169.175000 107.168000
171.953000 105.371500
174.865000 103.791000
177.974500 102.637000
181.185000 101.869500
184.500500 101.869500
187.730000 102.521000
190.799500 103.769000
193.641000 105.450500
193.665000 107.044000
190.642500 108.366500
187.586500 109.630500
184.363500 110.389500
181.079500 110.716500
177.769500 110.570500
174.455000 110.430000
171.141000 110.299000
167.862000 110.051000
166.801000 108.880500
99.875500 175.625500
103.983000 174.583000
108.076000 173.590000
112.166500 172.987000
116.150500 171.932000
120.108000 170.715500
124.178500 169.821500
128.384500 169.595500
132.581000 169.919500
136.747000 170.428500
140.910000 170.886500
145.141500 171.027500
149.135000 170.047500
152.860500 168.238500
156.952000 167.560000
161.135500 167.969500
165.169500 169.199500
169.213500 170.447000
173.332000 171.443000
177.430000 172.532500
181.419000 173.810000
185.076500 175.248500
184.295000 178.868000
182.380500 182.622000
180.665000 186.443000
178.240000 189.848000
175.628500 193.111000
172.922500 196.312000
169.830000 199.101500
166.426000 201.519500
162.842000 203.651000
158.998500 205.439500
154.918500 206.378500
150.762500 206.981500
146.502500 206.981500
142.273000 206.830500
138.013000 206.830500
133.864000 206.251000
129.800500 205.248000
125.748000 204.051000
122.011000 202.145000
118.654500 199.605000
115.146500 197.318000
111.966500 194.590000
109.277000 191.488000
106.771000 188.249000
104.051500 185.152500
101.411500 181.909500
99.272500 178.499500
99.875500 175.022500
108.115500 179.248000
111.308000 176.904500
116.895000 178.187500
122.665000 178.945000
128.432000 179.703000
134.291500 179.854500
140.152500 180.006000
145.978500 179.703000
151.676500 178.662500
157.442000 177.808500
163.227500 177.126500
169.006500 176.444500
174.794500 175.763000
180.581500 175.293000
180.800000 178.751000
177.103500 183.138000
172.483000 186.710500
167.598500 189.803000
162.298500 192.260000
156.788500 194.241000
151.062500 195.541500
145.263500 196.296500
139.432000 195.993500
133.649500 195.311500
127.939000 193.978500
122.394000 192.070000
117.138000 189.554500
112.182000 186.530500
107.974000 182.961000
107.888500 177.505500
}
