version: 1
n_points: 120
{
90.714000 108.323000
93.065500 106.340000
95.880500 105.020500
98.799000 103.926500
101.767000 103.083000
104.883000 103.114000
107.995500 103.270000
111.003500 103.908500
113.736000 105.351500
116.365500 107.032000
117.135000 109.094000
114.270000 110.250500
111.349000 111.210500
108.310000 111.660500
105.226500 111.969500
102.109500 112.073500
98.989000 112.018000
95.999000 111.344500
93.238000 110.002000
90.818000 108.479500
166.168000 107.931000
168.965500 106.061500
171.427000 103.832500
174.201000 101.986500
177.279500 100.680000
180.584500 100.273500
183.947000 100.495500
187.198500 101.308500
190.328000 102.505000
193.055000 104.420000
193.353000 106.758000
190.485500 108.390000
187.220500 108.975500
183.862000 109.207500
180.480000 109.323500
177.089000 109.357000
173.711000 109.497500
170.322000 109.555500
166.960500 109.371500
166.864000 107.467000
99.672500 175.657000
103.077500 173.383000
106.570500 171.871000
110.060500 170.411500
113.859000 169.371000
117.899500 168.871000
122.036000 168.799500
126.151000 169.014000
130.242500 169.489500
134.363500 169.799500
138.460000 170.228000
142.591500 170.442500
146.745500 170.371000
150.696500 169.371000
154.682000 168.585500
158.742000 167.979500
162.824000 167.942500
166.732500 168.871000
170.656000 169.898500
174.628500 170.808500
178.618000 171.665000
182.456500 172.728000
185.387000 174.645500
184.475500 178.605500
183.022000 182.467000
180.824000 185.925500
177.946000 188.884000
174.989000 191.769000
172.383000 194.909000
169.052000 197.253000
165.313000 198.992000
161.611000 200.795000
157.729000 202.157000
153.655000 202.728500
149.509500 202.728500
145.343500 202.728500
141.189500 202.657000
137.050000 202.442500
132.931000 202.061000
128.913000 201.070500
125.130500 199.421500
121.526000 197.438500
118.175000 195.087500
114.795000 192.840500
111.492500 190.405500
108.187000 187.995000
104.853000 185.623000
101.691000 183.032500
100.265000 179.413500
100.101000 175.514000
105.345500 177.969500
108.970500 175.104500
114.786000 175.858500
120.543000 176.989500
126.241000 178.313500
132.157500 178.723500
138.099000 178.422000
144.017500 178.045000
149.911000 177.517500
155.819500 176.989500
161.683500 176.311000
167.541500 175.632000
173.310000 174.869500
179.223000 174.425500
180.968500 177.983000
177.211000 182.340000
172.465500 185.768500
167.101500 188.299500
161.544000 190.324000
155.896500 191.941500
150.067000 192.947500
144.176000 193.578000
138.264000 193.125500
132.437500 192.194500
126.759000 190.788000
121.160500 189.194500
115.513500 187.391000
110.052500 185.089500
105.421000 181.664500
105.647500 176.688000
}
