version: 1
n_points: 120
{
90.673000 102.460000
93.089000 100.262500
95.841000 98.558500
98.812500 97.105000
101.887500 96.331000
105.187000 96.145000
108.429500 96.620000
111.485000 97.799500
114.302000 99.506500
117.284000 100.670000
117.063000 103.020500
114.288000 104.399000
111.007500 104.698500
107.799000 105.420000
104.612500 106.250000
101.354500 106.736500
98.075000 106.534000
94.926500 105.692000
92.012500 104.149000
90.772500 102.161500
166.096000 101.155500
168.653500 98.884000
171.458000 96.980000
174.476500 95.409000
177.676000 94.267000
181.067000 93.803000
184.356500 94.614000
187.618500 95.681500
190.648500 97.218500
193.527000 99.038500
193.972000 101.081000
191.124000 102.837500
187.788500 103.356000
184.400500 103.704500
180.980500 103.946500
177.530500 103.946500
174.089500 103.893000
170.640000 103.893000
167.352500 103.432000
166.150000 100.833500
101.408500 170.199500
105.113500 168.731000
108.818500 167.310500
112.458000 165.724500
115.910500 163.842500
119.542000 162.444500
123.396000 161.570000
127.382000 161.492000
131.380500 161.492000
135.303000 161.958500
139.181500 162.629000
143.106500 163.047000
147.046000 162.683500
150.836000 161.679500
154.643500 160.715000
158.623500 160.792500
162.516500 161.441000
166.253500 162.815500
170.043000 164.035000
173.925500 164.985000
177.762500 166.001500
181.230000 167.429000
184.683500 169.033500
183.901500 172.516500
181.707000 175.729500
179.470000 178.977000
177.192500 182.187500
174.267500 184.879000
171.282500 187.428000
168.103000 189.722000
164.560500 191.493000
160.923500 193.068000
157.122000 194.231500
153.220000 194.844000
149.234000 194.766000
145.265500 194.533000
141.316500 194.153000
137.401500 193.600000
133.603000 192.632500
129.806500 191.689500
125.963000 190.875000
122.182500 189.744500
118.433500 188.507500
114.868000 186.762000
111.343000 184.959500
107.786500 183.184000
104.807500 180.645000
102.652500 177.558500
101.875000 173.785500
101.564000 169.966000
107.364000 173.676500
107.740500 170.086500
113.092500 171.185500
118.634500 171.478500
124.260000 171.552000
129.868500 171.405500
135.449000 171.039000
141.003500 170.526000
146.565500 170.160000
152.149000 169.860500
157.763500 169.720000
163.312000 169.354000
168.816500 168.630500
174.381500 168.255000
179.773000 168.643000
178.190500 173.105500
173.658500 176.247000
168.957500 179.195500
164.084000 181.730500
158.726500 183.151500
153.227500 184.007500
147.729500 184.666500
142.138500 184.593500
136.628000 184.051500
131.105000 183.201500
125.603500 182.345500
120.145000 181.443000
114.921000 179.688000
109.862000 177.490000
107.070500 173.383500
}
