version: 1
n_points: 120
{
90.814500 104.212500
93.258000 101.975000
96.108000 100.273500
99.117500 98.819500
102.319500 98.007500
105.657000 97.779500
108.967000 98.061500
112.136500 99.100500
115.040000 100.729500
117.815500 102.237500
117.134500 104.360000
114.398000 106.131500
111.302500 107.090500
108.059000 107.655000
104.771500 108.050000
101.462500 108.276000
98.127000 108.163000
94.945000 107.655000
92.143500 106.131500
91.040500 104.043500
165.575000 102.513500
168.028000 100.179500
170.728500 98.149000
173.770500 96.665500
177.012500 95.722000
180.382500 95.422000
183.767500 95.720000
187.051500 96.614000
190.203500 97.865500
192.868000 99.952000
192.884000 102.237000
189.766500 103.646500
186.538500 104.782000
183.209000 105.395000
179.823000 105.731000
176.390500 105.791000
172.977000 105.612000
169.615000 105.159000
166.386500 104.278000
165.873000 102.334500
111.836000 183.842500
113.345500 181.162500
115.066000 178.576000
116.730500 175.953500
118.460000 173.377500
120.007000 170.691000
122.088500 168.432500
124.559500 166.571500
127.146000 164.852000
130.119000 164.158000
133.224500 164.226000
136.221000 164.650500
139.272500 164.972500
142.389000 164.837000
145.381000 164.212500
148.283500 163.343500
151.329000 163.779000
154.230500 164.808500
156.768500 166.599500
159.374000 168.337000
161.805000 170.278500
164.180000 172.308500
166.384000 174.382000
168.533500 176.667500
170.605000 178.930000
172.266000 181.418500
171.640500 184.313000
170.149000 186.951500
168.259000 189.417000
166.205000 191.785000
164.096000 194.026500
161.410000 195.592000
158.642000 197.059000
155.643500 197.961000
152.635000 198.639500
149.550000 199.047000
146.418000 199.182500
143.269500 199.182500
140.145500 198.980500
137.019000 198.753000
133.947000 198.232500
130.912000 197.623000
127.879500 197.064000
124.952500 195.975500
122.023500 194.840500
119.371000 193.243500
117.191500 191.031000
115.104500 188.818000
113.218500 186.400500
111.972000 183.842500
124.904500 181.562000
126.924500 179.887000
129.094000 178.465500
131.464000 177.280500
133.925500 176.430000
136.488500 175.908000
139.157000 175.829500
141.839500 175.760500
144.527000 175.691500
147.226000 175.691500
149.892000 175.829500
152.434500 176.357000
154.824500 177.280000
157.028000 178.701000
159.151500 180.242500
159.906000 182.334000
157.712000 183.632000
155.139500 184.190500
152.478500 184.393500
149.779500 184.393500
147.080500 184.393500
144.393000 184.324500
141.714000 184.186000
139.045500 183.996500
136.372000 183.841000
133.684500 183.772000
130.985500 183.772000
128.314000 183.633500
125.705000 183.357500
125.042500 181.492500
}
