version: 1
n_points: 120
{
89.696000 103.975000
91.935000 101.466000
94.766000 99.672000
97.818000 98.237000
100.948500 97.282000
104.341000 97.345000
107.591000 98.052500
110.806000 99.014500
113.840000 100.482500
116.475500 102.529500
116.241000 104.720000
113.351000 106.382000
110.132500 107.286500
106.892000 108.016000
103.556000 108.458000
100.199000 108.710500
96.821500 108.584000
93.690000 107.716500
90.797000 106.149000
89.948500 103.848500
163.968500 103.039500
167.130000 101.128500
170.059000 98.949500
173.252500 97.234500
176.535500 95.623500
180.063000 94.595500
183.658000 94.859000
187.121000 96.080500
190.387500 97.726500
193.625500 99.464500
194.028500 102.192000
190.805000 103.923500
187.484500 105.438500
183.971500 106.278500
180.333000 106.698500
176.669000 106.638500
173.030000 106.278500
169.441500 105.563500
166.112000 104.419000
164.388500 102.619500
117.078500 182.261000
118.123500 179.890000
119.510500 177.744500
121.224000 175.824000
122.966500 173.915000
124.767500 172.065000
126.591000 170.248000
128.456500 168.452000
130.469500 166.856000
132.805000 165.855000
135.374500 165.730500
137.939500 165.924000
140.498000 166.185500
143.030000 166.625000
145.511500 167.290500
147.992500 168.001500
150.328500 169.058000
152.447500 170.464500
154.314000 172.235500
156.117000 174.070000
157.794000 176.024500
159.168500 178.160500
160.002000 180.578000
160.186500 183.096500
159.585500 185.577500
158.821500 188.006000
157.815000 190.334000
156.384500 192.477000
154.842000 194.550500
153.075500 196.411000
151.344000 198.304500
149.586500 200.176500
147.390500 201.520500
145.032500 202.560500
142.511500 203.098000
139.926500 203.166000
137.428500 202.715500
134.922500 202.285500
132.385500 201.903000
129.985500 201.043000
127.696000 199.873500
125.371000 198.777500
123.098500 197.599500
121.360500 195.850000
120.077500 193.664000
119.022500 191.359000
117.842500 189.142500
117.373500 186.671500
117.287000 184.098500
117.634000 181.636000
137.628500 182.596000
138.107000 182.288000
138.586000 181.980500
139.064500 181.673000
139.543000 181.365000
140.030500 181.122000
140.553000 180.979000
141.110500 180.932000
141.670500 180.894000
142.239500 180.894000
142.712500 181.126000
143.120500 181.514000
143.120500 182.083000
142.907000 182.577000
142.559500 183.002000
142.157000 183.404500
141.767500 183.794000
141.343000 184.143000
140.885000 184.444500
140.447500 184.761500
139.988000 184.916500
139.419000 184.916500
138.900000 184.795500
138.407000 184.612000
138.013500 184.297500
137.706000 183.945500
137.547000 183.442500
137.584000 182.949500
138.009000 182.602000
138.402000 182.286500
}
