version: 1
n_points: 120
{
89.242000 103.332500
92.028000 101.388500
94.943500 99.692000
98.048000 98.262500
101.350500 97.937500
104.528000 98.445000
107.739000 99.098000
110.997000 99.852500
114.188500 100.781000
117.034500 102.351500
115.812000 104.956000
112.698500 106.226500
109.439000 107.100500
106.125500 107.818000
102.779500 108.321500
99.450000 108.843500
96.046000 108.843500
92.962000 107.865000
90.435000 105.727500
89.648000 102.984500
163.322500 102.730000
166.254000 100.571500
169.467000 98.885000
172.603500 97.043500
175.934500 95.591000
179.440000 94.792000
183.103500 94.815000
186.608500 95.823500
189.897000 97.344000
192.654500 99.655000
192.787500 102.115500
189.526000 103.799500
186.101500 105.099500
182.525500 105.800500
178.861000 105.926500
175.189000 105.843000
171.568500 105.447000
167.974000 105.074000
164.514000 104.284500
163.802000 102.357000
104.950500 175.978500
107.707000 173.728000
110.858500 172.018000
113.916500 170.204500
117.236500 168.864500
120.704000 167.925500
124.224000 167.382000
127.836000 167.378500
131.377500 167.894000
134.944000 168.225500
138.517500 168.469500
142.116500 168.551500
145.710500 168.421000
149.313000 168.356000
152.912500 168.271500
156.501000 168.095500
160.103000 168.030000
163.699500 168.140000
167.195500 168.747000
170.558000 169.887500
173.332000 172.109000
175.535500 174.861500
177.559500 177.802000
177.869500 181.288000
175.812500 184.219000
173.467500 186.922000
171.146500 189.656500
168.788500 192.340000
165.907500 194.496500
162.798500 196.307500
159.515500 197.737500
156.084500 198.815500
152.566500 199.577500
149.009000 200.084000
145.422500 200.344500
141.837000 200.084000
138.255500 199.758000
134.715000 199.190500
131.225500 198.346000
127.750500 197.396000
124.341000 196.266500
121.017000 194.901000
117.717000 193.470500
114.499500 191.856500
111.442500 190.014000
108.587500 187.889500
106.183000 185.290000
104.579500 182.143000
104.168500 178.669500
105.341000 175.587500
110.329500 178.214000
113.402000 175.630500
118.332000 175.945500
123.324000 176.008500
128.287000 176.285500
133.271000 176.348000
138.268500 176.323500
143.248000 176.512500
148.247500 176.512500
153.247500 176.512500
158.221500 176.323500
163.173500 175.945500
168.140000 175.693500
173.069000 175.315500
175.047000 176.825500
171.615500 180.332000
167.303000 182.811000
162.766500 184.825500
158.139000 186.631000
153.365500 187.994000
148.438000 188.611000
143.446000 188.674000
138.446000 188.674000
133.480000 188.422000
128.560000 187.855000
123.673000 187.099000
119.022500 185.490500
114.551500 183.360000
110.235000 180.955000
110.393000 177.394500
}
