version: 1
n_points: 120
{
88.754500 103.904500
91.188000 101.364000
94.097500 99.358500
97.281000 97.760000
100.623000 96.662000
104.111500 96.790000
107.499500 97.886500
110.883000 98.989000
114.220000 100.195000
116.859000 102.452500
116.304500 105.299000
113.059000 106.715500
109.648000 107.771000
106.192500 108.553000
102.682000 109.042500
99.135000 109.238500
95.585000 109.085000
92.211500 108.104000
89.081000 106.514500
88.950000 103.464000
164.100000 103.702500
167.107500 101.501000
170.191000 99.422500
173.328500 97.425000
176.667500 95.807000
180.193500 94.632500
183.891500 94.578500
187.425500 95.615000
190.490500 97.615000
193.624500 99.576000
193.536500 102.102000
190.148000 103.643000
186.767000 105.163500
183.187500 106.160000
179.528000 106.715500
175.804500 106.745500
172.111000 106.440000
168.410000 106.105500
164.745000 105.635000
164.207000 103.488000
98.708500 171.806000
102.861500 171.046000
106.941000 170.454500
110.542500 169.525500
114.385000 168.544000
118.387500 167.330000
122.457000 166.434500
126.536000 165.725500
130.702500 165.387500
134.903000 165.556500
139.062000 165.978500
143.248500 166.232000
147.387500 165.894500
151.401500 164.883500
155.557000 164.458500
159.782500 164.526000
164.005500 164.631500
168.195000 164.965500
172.356500 165.472000
176.437500 166.333000
180.303500 167.970500
184.163000 169.689000
184.804000 173.079000
183.245000 176.875500
181.414000 180.591500
178.986000 183.955000
176.026000 186.879000
172.851000 189.586500
169.585000 192.137500
165.946500 194.209000
162.290500 196.215000
158.556500 198.136500
154.636000 199.590500
150.476500 200.013000
146.270000 199.844000
142.036500 199.844000
137.824500 199.708000
133.709000 198.933500
129.647500 198.070500
125.651000 196.972500
121.711000 195.621500
117.852000 194.172000
114.184000 192.169000
110.712500 190.023500
107.343000 187.608500
104.325500 184.729000
101.777000 181.461500
99.499000 178.085500
98.410000 174.384500
99.806500 170.961500
105.961000 176.215500
108.844500 172.966500
114.395000 174.045500
120.161500 174.383000
125.913500 174.876500
131.693500 175.228500
137.478500 175.510500
143.294500 175.487500
149.068000 175.088000
154.798500 174.333000
160.512500 173.516000
166.199500 172.620500
171.864500 171.659000
177.630000 171.281500
181.050500 173.096500
177.262000 177.307500
173.332500 181.513500
168.556000 184.721500
163.446500 187.364500
157.903000 188.833500
152.159000 189.327000
146.356000 189.186000
140.562500 188.974500
134.775500 188.763000
128.995000 188.481000
123.264500 188.110000
117.862500 187.060000
112.887000 184.481000
108.689000 180.565000
105.820000 176.145000
}
