version: 1
n_points: 120
{
88.091000 104.287500
90.585000 101.565000
93.479000 99.254000
96.802500 97.664500
100.345500 96.669000
104.018500 96.609500
107.512500 97.640000
110.820500 99.247000
113.685000 101.548500
116.992500 103.172000
117.960000 105.787000
114.648500 107.264500
111.158000 108.230000
107.615500 109.136000
104.000500 109.686000
100.299500 109.836500
96.631000 109.506000
93.254500 108.371000
90.350500 106.406500
88.211000 104.227500
164.945500 104.183000
167.708500 101.724000
170.733500 99.606000
173.738500 97.489000
177.080500 95.957500
180.649000 95.008500
184.296000 94.956500
187.726000 96.236500
191.020000 97.911000
194.247500 99.673000
194.912000 102.625500
191.645500 104.270500
188.297500 105.831500
184.874500 107.166500
181.242000 107.664000
177.529000 107.719000
173.854500 107.391000
170.267500 106.559000
166.761500 105.675000
165.387500 103.796500
98.279500 172.295500
102.487000 171.815500
106.579000 171.195500
110.609000 170.139000
114.547000 168.610000
118.345500 166.788000
122.469500 166.261500
126.673500 166.536000
130.879500 166.878500
135.057500 167.413000
139.195500 168.113000
143.388000 168.455500
147.548000 167.975500
151.485500 166.741500
155.632500 166.193000
159.858500 166.056000
164.031500 166.534500
168.107000 167.639500
172.138500 168.921500
176.224500 170.073000
180.230500 171.198500
184.244000 172.152000
185.180000 174.782000
183.240000 178.456500
181.257500 182.147000
178.697000 185.472500
175.963500 188.686500
172.941000 191.637500
169.623000 194.204000
166.404500 196.932000
162.891000 199.290500
159.201000 201.265500
155.108500 202.195500
150.912500 202.534000
146.675000 202.465500
142.427000 202.465500
138.179000 202.465500
133.946000 202.328000
129.763500 201.779500
125.704500 200.658500
121.816000 199.058500
118.185500 196.971500
114.732000 194.576500
111.403500 191.993000
108.143500 189.317000
105.364500 186.191000
102.626000 183.040000
99.924000 179.904500
98.279500 176.215500
98.142000 172.364000
105.012500 177.805500
107.529500 173.787500
113.068500 175.248500
118.903000 176.255500
124.858000 176.490500
130.848000 176.490500
136.806500 176.271500
142.787500 176.198500
148.741500 175.979000
154.655500 175.385000
160.518000 174.430500
166.376000 173.368000
172.253000 172.545500
178.219000 172.399500
181.292500 174.725000
178.306000 179.663500
174.439000 184.062500
169.382000 187.078500
163.678500 188.445500
157.916000 189.977000
152.024500 190.698500
146.121000 191.362000
140.178000 191.758500
134.221000 191.539500
128.279500 191.123000
122.415500 190.009500
116.624500 188.640500
111.492500 185.721000
106.762000 182.331000
104.866500 177.294000
}
