version: 1
n_points: 120
{
87.094000 104.696500
89.857500 102.068000
92.892500 99.815500
96.177500 97.993000
99.794000 96.938000
103.596000 96.770000
107.231000 97.687000
110.423500 99.721000
113.570000 101.819500
116.736500 103.877500
116.648500 105.772500
113.133000 107.241000
109.683000 108.758500
106.037000 109.693500
102.302000 110.261500
98.513000 110.527000
94.703500 110.461500
91.662000 108.782500
88.467000 106.856000
87.356000 104.238000
163.658000 103.987000
166.216000 101.429000
169.200000 99.347500
172.223500 97.335500
175.656500 96.090500
179.217500 95.282500
182.820000 94.788500
186.274000 95.724500
189.344500 97.643000
192.273000 99.784500
194.246500 102.177000
191.262500 104.228500
187.894500 105.643000
184.425500 106.770500
180.840000 107.316500
177.196000 107.090500
173.603500 106.702500
170.070000 106.030000
166.561500 105.341000
163.827000 103.817500
109.696000 186.845000
111.157000 183.995500
112.762500 181.268000
114.547500 178.630500
116.635000 176.194000
118.677500 173.726500
120.819500 171.346000
123.371500 169.437500
126.346500 168.206000
129.466500 167.606000
132.665000 167.668500
135.761500 168.307000
138.938500 168.439500
142.030500 167.675500
145.009500 166.577500
148.155500 166.147500
151.303500 166.705000
154.158000 168.168500
156.845500 169.927000
159.451000 171.826500
161.906500 173.906000
164.226500 176.156500
166.393500 178.531500
168.528500 180.920500
170.498000 183.428500
171.442500 186.447000
170.795000 189.528500
168.802000 192.020000
166.227500 193.956500
163.596000 195.826500
160.993500 197.710500
158.341500 199.529500
155.506500 201.024500
152.494000 202.121000
149.447000 203.127000
146.266000 203.584000
143.049500 203.723000
139.813500 203.723000
136.586000 203.653500
133.372500 203.512000
130.223500 202.959000
127.133500 202.150000
124.135000 200.965000
121.622500 199.099000
119.447000 196.818500
117.049000 194.684000
114.731000 192.447500
112.251500 190.442000
109.761000 188.507500
109.835000 186.220000
124.914500 185.148000
126.692500 183.405500
128.849500 182.190500
131.134000 181.186000
133.499000 180.437000
135.905500 179.914000
138.370000 179.686000
140.865000 179.618000
143.365500 179.686000
145.859500 179.795000
148.328000 180.027500
150.773000 180.408500
153.182000 180.915000
155.508500 181.806500
157.315500 183.344500
156.815500 185.446000
154.516000 186.240000
152.127000 186.841000
149.689500 187.267000
147.233000 187.605500
144.755000 187.810500
142.277000 187.985500
139.789500 188.152000
137.289000 188.220000
134.794500 188.083500
132.327000 187.810500
129.876000 187.469000
127.530000 186.923000
125.256000 186.289000
125.119500 184.943000
}
