version: 1
n_points: 120
{
87.751500 104.828500
89.933000 101.842000
92.859000 99.560000
96.232500 97.992000
99.849000 97.034000
103.554500 96.830500
107.078000 98.077500
110.276500 99.933500
113.322500 102.056500
116.562500 103.837500
116.639000 106.164000
113.440000 108.045000
109.886500 109.177000
106.226000 109.981500
102.535500 110.423500
98.831500 110.786000
95.096500 110.665500
91.637500 109.408500
88.740000 107.186000
87.912500 104.305500
161.546000 103.699000
165.190000 102.033000
168.445500 99.860500
171.683000 97.588000
175.312500 95.932500
179.127000 94.919000
183.121500 94.727500
186.886000 95.847500
190.418000 97.684500
193.556500 99.965500
192.955500 103.371000
189.398500 105.034000
185.674500 106.511000
181.809000 107.513500
177.783000 107.513500
173.862500 107.027000
170.001500 106.171000
166.067500 105.606000
162.138000 105.111500
161.899500 103.487000
114.949000 189.261000
116.554000 186.902500
118.206000 184.631500
120.073000 182.478500
122.013500 180.387000
123.828000 178.196000
125.642500 176.005000
127.325000 173.719000
129.259000 171.709500
131.773500 170.643500
134.453000 171.246500
137.248500 171.472500
140.058000 171.171000
142.858000 170.737000
145.669000 170.342000
148.368000 170.921000
150.549500 172.690000
152.701500 174.477000
154.768500 176.469000
156.823500 178.448500
158.589500 180.663500
160.274500 182.954500
161.943500 185.245000
163.585000 187.546500
163.747500 190.255000
162.649500 192.815500
161.261000 195.227000
159.463000 197.434000
157.471000 199.501500
155.533000 201.590500
153.621000 203.648000
151.448500 205.429500
149.370500 207.376000
147.064000 209.009500
144.361000 209.833000
141.557000 210.290500
138.706000 210.441500
135.842500 210.517000
132.996000 210.301500
130.201000 209.872500
127.473500 209.235500
124.856500 208.310000
122.752000 206.486000
121.431000 204.067500
120.521000 201.460500
119.139000 199.028500
117.568000 196.656500
116.512000 194.026000
115.867000 191.310000
115.250500 188.808500
134.895000 188.451500
135.587000 188.190000
136.278500 187.928000
136.970500 187.666500
137.675000 187.473500
138.414500 187.473500
139.154000 187.473500
139.877500 187.543500
140.571500 187.683000
141.290000 187.772500
141.950000 187.944000
142.369000 188.305500
142.508500 188.987500
142.439000 189.698000
142.249000 190.368000
141.798000 190.908500
141.207500 191.337500
140.537500 191.602500
139.861500 191.871000
139.164500 192.005500
138.428000 192.014000
137.734000 191.874000
137.097500 191.595000
136.514000 191.188000
135.943000 190.808000
135.583500 190.258000
135.174500 189.687500
134.965000 189.116500
135.026000 188.460000
135.454000 188.102500
}
