version: 1
n_points: 120
{
87.544000 105.347500
90.118000 102.875500
92.832500 100.549500
95.835500 98.647000
99.267500 97.605000
102.809500 97.253500
106.171500 98.142000
109.210000 99.982000
112.233000 101.902000
115.325500 103.635500
115.645000 106.009500
112.602000 107.750000
109.228500 108.946000
105.793000 109.949000
102.297000 110.734000
98.735000 110.998500
95.153500 110.956000
91.910500 109.816000
89.219000 107.684500
87.798500 105.144000
164.722500 103.613500
167.147500 101.027000
169.991500 98.882500
173.115500 97.148000
176.434000 95.878500
179.958000 95.474500
183.493000 95.795500
186.958500 96.572000
190.181000 98.044000
192.778500 100.382500
193.056000 103.299000
190.067500 105.195500
186.739500 106.420000
183.313000 107.463000
179.783500 107.954500
176.218000 108.004000
172.695000 107.560000
169.194000 107.017500
165.844000 106.018000
164.772000 103.515000
110.850000 195.052000
112.133500 191.581500
114.013000 188.364000
116.187000 185.372000
118.311000 182.349500
120.890000 179.680000
123.372500 176.966000
126.234000 174.697500
129.734000 173.634000
133.425000 173.995500
137.173500 174.085500
140.922000 173.995500
144.528500 173.468000
148.252000 173.272500
151.682000 174.575000
154.683500 176.622500
156.873500 179.622500
159.368000 182.388000
161.660000 185.334500
163.802000 188.347500
165.711000 191.538000
166.880500 195.025500
167.291500 198.675500
167.257000 202.416500
166.699500 206.069500
165.498000 209.591000
164.098000 213.068000
162.711500 216.493000
160.964500 219.806500
159.165000 223.077500
156.828500 225.889000
153.674500 227.864000
150.356500 229.599000
146.925000 231.060500
143.305500 231.919500
139.629500 231.471500
135.987000 230.748500
132.412000 229.712000
128.972500 228.242500
125.708500 226.448000
122.752000 224.215000
120.310000 221.425500
118.314000 218.348000
116.846500 214.936500
115.113500 211.621500
113.422000 208.279500
111.573000 205.052000
110.488500 201.641500
110.398000 197.958500
110.850000 194.419000
118.957000 196.024500
120.400000 192.214000
123.255500 189.301500
126.561000 186.944500
130.413000 185.468500
134.375500 184.566500
138.525000 184.383000
142.695000 184.481500
146.620000 185.468500
150.499500 186.751000
154.258000 188.520500
157.778500 190.721500
160.747000 193.418500
161.676000 197.244000
160.117500 200.839000
157.755500 204.162000
155.554000 207.677000
153.326000 211.146000
150.880000 214.396500
147.223500 215.978000
143.368500 216.919000
139.307500 217.433500
135.412000 216.545500
131.849000 214.770000
128.833500 212.303500
126.033500 209.317000
124.065000 205.869000
121.818000 202.536500
119.943500 199.200000
119.154000 195.531500
}
