version: 1
n_points: 120
{
87.804000 103.682500
90.345000 101.126500
93.090000 98.902000
96.251000 97.249000
99.591500 96.169000
103.179000 96.105500
106.716500 96.516500
110.080500 97.659000
113.033000 99.596500
115.694500 101.960000
115.837000 104.696500
112.743500 106.272000
109.333500 107.240000
105.875000 108.140500
102.396000 108.797000
98.901500 109.302000
95.332500 109.365500
92.107500 108.292000
89.366500 106.255500
88.056500 103.493000
163.218500 102.622500
165.892500 100.003500
168.737500 97.562000
171.860500 95.511500
175.411000 94.254500
179.049500 93.367500
182.797000 93.237000
186.349500 94.381500
189.806500 95.840500
192.799500 98.021000
194.599500 101.101500
191.670000 103.286000
188.238000 104.780000
184.629000 105.596000
180.886500 105.882000
177.122500 105.771500
173.401000 105.495500
169.789000 104.722000
166.239000 103.727500
163.108000 102.567500
107.071500 196.991000
107.071500 192.238000
107.758500 187.658500
109.131500 183.241000
111.869500 179.604500
115.028000 176.157500
118.485500 173.217000
123.054500 172.385500
127.756000 172.729000
132.364500 173.416000
136.959500 173.988000
141.742000 173.988000
146.524500 173.988000
151.146000 174.217000
155.489000 175.475500
159.833500 177.365500
163.869500 179.784000
167.404000 182.820500
169.939000 186.766500
172.242500 190.801000
174.218000 194.899000
174.593500 199.546000
174.708000 204.281500
174.120000 208.925000
172.762500 213.285000
171.732500 217.763500
170.842000 222.234000
169.278500 226.504500
166.922500 230.526500
164.801500 234.593500
161.799000 238.053500
157.969500 240.666500
153.539500 242.196500
148.987000 242.997500
144.333000 243.455500
139.577500 243.570000
134.849000 243.341000
130.621500 241.853000
126.380000 240.103500
122.739000 237.264000
120.285000 233.436500
117.901500 229.565500
115.985500 225.474500
113.864000 221.408000
112.565000 217.230500
111.649500 212.725000
109.975500 208.521000
108.081500 204.389500
106.957000 199.974500
107.300500 195.503500
110.137500 196.321000
110.991000 190.125500
115.307500 186.007500
121.368500 184.614500
127.960500 184.614500
134.452000 184.046500
141.026000 183.932500
147.492000 184.501000
153.728000 185.838500
159.999500 187.269000
165.924500 189.322500
170.701500 193.125000
173.443000 198.154500
171.511000 204.047500
169.928000 210.065000
167.874000 215.988500
165.098000 221.535000
160.841500 226.311500
155.964000 230.507000
150.057000 232.690500
143.698000 233.713500
137.300500 233.600000
131.259500 231.781500
126.259500 228.014000
121.929500 223.314500
118.434000 218.091500
115.138000 212.783500
113.116000 207.142000
110.933000 201.393500
110.364500 195.639000
}
