version: 1
n_points: 120
{
87.240500 106.315000
89.785500 103.823500
92.610500 101.644000
95.637500 99.782000
99.044500 98.747500
102.516000 99.242000
105.999500 99.955500
109.385000 101.084000
112.536500 102.748500
115.550500 104.623500
115.443000 107.524000
112.389000 109.274500
109.003500 110.242000
105.497500 110.877000
101.994500 111.397500
98.484000 111.843000
94.986000 111.414000
91.531000 110.625500
88.352500 109.037000
87.455000 106.100500
162.675000 105.254500
165.608500 102.834500
168.799500 100.792500
172.008000 98.767000
175.586500 97.508000
179.322500 96.912000
183.135000 96.862500
186.766500 97.874000
190.243500 99.374000
193.135000 101.698500
193.205500 104.936500
189.907500 106.804000
186.267500 107.849500
182.570000 108.711000
178.782500 109.128000
174.948500 109.068500
171.156500 108.830000
167.485000 107.876500
163.825000 107.042500
163.092500 104.897000
99.688500 178.535000
102.745500 175.856500
106.333500 173.924000
110.150500 172.397500
114.077000 171.261000
118.086000 170.407000
122.129000 169.745500
126.215500 169.711500
130.057500 170.647500
134.098000 171.109500
138.205500 171.336500
142.328000 171.185000
146.309500 170.218000
150.140500 168.766000
154.156000 168.230000
158.181500 168.798000
162.160000 169.758000
166.020500 171.196000
169.805000 172.776500
173.567500 174.419000
177.152500 176.389000
180.548500 178.321500
180.516500 182.190000
178.909500 185.877500
177.578500 189.599500
175.947000 193.352000
173.424000 196.562000
170.717500 199.609500
167.686500 202.370000
164.058000 204.286500
160.339000 206.030500
156.558000 207.641500
152.599000 208.734000
148.535500 209.230000
144.414500 209.373000
140.282500 209.297500
136.184500 208.931000
132.128500 208.366500
128.181500 207.202000
124.249000 206.068500
120.490000 204.468500
116.799500 202.676000
113.121000 200.860000
109.835500 198.459500
106.755500 195.775500
103.723500 193.168000
101.285500 189.906500
99.915500 186.097000
99.414500 182.079000
99.840000 178.307500
105.130000 182.382500
106.374500 178.030000
112.005500 177.842000
117.740500 178.534500
123.541500 178.927000
129.386500 179.084000
135.240500 179.241000
141.117000 179.241000
146.993000 179.241000
152.826000 178.970500
158.533500 177.984000
164.323000 177.592000
170.142500 177.278000
176.000500 177.356500
178.278000 180.899000
175.715000 185.868500
171.703500 190.021500
166.697500 192.880000
161.218500 194.900000
155.658000 196.717000
149.912500 197.617500
144.115000 198.246000
138.293500 197.887000
132.480500 197.460500
126.719000 196.754000
121.002500 195.654500
115.542000 193.601500
110.736000 190.422500
106.362500 186.732000
104.737500 181.754000
}
