version: 1
n_points: 120
{
88.287000 106.541500
90.301000 103.843000
92.956500 101.751000
96.037000 100.389000
99.304500 99.389500
102.688500 99.094500
105.920500 99.941000
108.825500 101.675500
111.640500 103.545500
114.563000 105.248500
115.930500 107.150500
112.968000 108.792500
109.751500 109.879000
106.450000 110.727500
103.122000 111.337500
99.754500 111.693500
96.345500 111.734000
93.111000 110.825000
90.270000 109.128000
88.327500 106.622000
163.529500 106.066500
166.254500 103.666500
169.324000 101.731500
172.336500 99.745500
175.660000 98.310500
179.173500 97.387500
182.778000 97.250500
186.205000 98.360000
189.485000 99.925500
192.646000 101.669500
193.358500 103.988500
190.626500 106.317500
187.309500 107.776000
183.801500 108.606000
180.196000 108.964000
176.568000 109.000000
172.985000 108.606500
169.403500 108.204500
165.959500 107.508500
163.778000 105.818000
98.309000 176.571000
102.338500 175.821000
106.240500 174.702000
110.002000 173.273500
113.620500 171.467000
117.314000 169.730000
121.123000 168.548500
125.204500 168.398500
129.227500 168.908000
133.212000 169.811000
137.215000 170.498000
141.281500 170.492000
145.267000 169.748000
149.093000 168.565000
152.952500 167.424000
156.842500 168.237500
160.756500 169.346000
164.688500 170.556500
168.604000 171.711500
172.513000 172.822000
176.446500 173.851000
180.312500 174.771500
183.106500 176.472500
181.994500 180.219500
179.933000 183.743000
177.424000 186.902000
175.174000 190.187000
172.345000 192.973000
168.992500 195.258500
165.449500 197.245500
161.925500 199.270000
158.166000 200.829000
154.251000 201.987500
150.279000 202.812500
146.210000 203.037500
142.105500 203.112500
138.009000 202.950000
133.969000 202.512500
129.971500 201.912500
126.020500 200.998500
122.131000 199.813500
118.427000 198.113500
115.054000 195.891000
111.881000 193.441000
108.747000 190.872000
105.730000 188.264000
102.725500 185.629500
100.385000 182.372500
98.302000 179.113500
98.908500 176.121000
105.022500 179.078000
108.700500 176.361000
114.332000 177.313000
120.071500 177.719500
125.791000 178.331000
131.553500 178.765000
137.347500 178.942000
143.146500 178.806500
148.909500 178.466500
154.654500 177.878000
160.419000 177.448000
166.124500 176.700500
171.879500 176.293000
177.636000 176.157000
178.307500 178.891000
173.799000 182.372000
169.490000 186.118000
164.384500 188.705000
159.270500 191.284000
153.752000 192.979500
148.069000 193.886000
142.272500 194.022000
136.512000 193.546500
130.827500 192.595500
125.168500 191.441000
119.502500 190.354000
113.900500 188.966000
108.640500 186.635500
104.411500 182.994000
105.022500 178.127000
}
