version: 1
n_points: 120
{
88.486500 106.644500
90.777500 103.984000
93.565500 101.858000
96.722500 100.341500
99.968000 99.226000
103.457000 99.011000
106.715000 100.276000
109.837500 101.929500
112.667500 103.960000
115.534000 105.866000
115.120000 108.330000
112.141500 109.900000
108.793000 110.717000
105.429500 111.532500
102.084500 112.185500
98.574500 112.370000
95.053000 112.185500
91.873500 111.201500
89.222500 109.412500
88.732500 106.398500
163.812500 105.479500
166.774000 103.241000
169.705500 101.012500
172.942000 99.189500
176.340000 97.742000
179.919500 96.966000
183.590000 97.339500
187.207000 98.078500
190.523000 99.694000
193.390000 102.004500
192.821000 104.904500
189.756000 106.947000
186.329000 108.261500
182.766500 109.162000
179.097500 109.541500
175.382000 109.374500
171.718000 108.968000
168.102000 108.428500
164.630000 107.501500
163.979000 105.201000
108.329000 186.461500
109.235500 182.940500
110.605000 179.586500
112.205500 176.305500
114.167500 173.262500
116.863500 170.834000
119.955500 168.952000
123.464500 168.196000
126.971000 168.757000
130.479500 169.638000
133.810500 170.759500
137.409500 171.160000
141.065000 171.320500
144.701000 171.079500
148.047500 169.766500
151.377000 168.516500
154.935000 168.917000
158.342000 170.130500
161.400500 172.079500
164.309500 174.267500
166.858500 176.896500
169.182000 179.701000
171.420500 182.544500
173.677000 185.397500
175.558000 188.400000
175.593000 191.938500
173.898000 195.075000
171.794000 197.980500
169.534500 200.719500
167.034500 203.372500
164.223500 205.596500
160.990000 207.254000
157.586500 208.497500
153.992500 208.892500
150.337000 209.052500
146.655500 209.052500
142.974000 209.052500
139.312500 208.966000
135.682000 208.652000
132.081000 208.157500
128.552000 207.290000
125.051000 206.241500
121.627000 204.940000
118.483500 203.114500
115.534000 201.037000
112.688500 198.832000
110.091000 196.314500
108.489500 193.211000
108.169000 189.662000
108.329000 186.141000
114.486500 187.966500
117.315000 184.877500
120.674500 182.365500
124.407000 180.405500
128.507500 179.567000
132.719500 179.892500
136.944500 180.194000
141.208500 180.283000
145.446000 180.478500
149.693000 180.674000
153.770500 181.498000
157.736000 182.927000
161.684500 184.347500
165.639000 185.622500
169.508500 186.834500
167.396500 189.623000
164.232500 192.330000
160.323000 193.957000
156.339500 195.330000
152.194000 195.976000
147.930500 195.910500
143.709500 195.585000
139.524000 195.129500
135.291500 194.934000
131.085500 194.673500
127.037500 193.892000
122.920500 193.306000
118.880500 192.590000
115.033500 191.379000
114.681500 187.836500
}
