version: 1
n_points: 120
{
163.373500 106.007000
166.116500 103.585000
169.079500 101.399500
172.288500 99.591500
175.638500 97.988000
179.164000 96.812000
182.832500 96.838500
186.332500 97.908500
189.723500 99.413000
192.875000 101.275500
194.545000 104.059000
191.462000 106.025500
188.137500 107.652500
184.584000 108.662000
180.893000 108.967500
177.177500 108.824000
173.528500 108.346500
169.854000 108.060000
166.342500 107.133000
163.612500 105.863500
88.341000 105.999500
90.927000 103.356000
93.806500 101.163500
96.877500 99.590500
100.285000 98.846500
103.937000 98.789500
107.256500 100.023500
110.435000 101.825000
113.612000 103.557000
116.790000 105.322000
116.844500 107.484000
113.538000 108.975000
110.022000 110.045000
106.513000 111.018500
102.915000 111.550000
99.304500 111.950500
95.629000 111.836000
92.170500 110.975500
89.368500 108.915000
88.570000 105.828000
115.682000 188.248500
117.540500 186.421500
119.136000 184.389500
120.929000 182.523500
122.699000 180.692000
124.733000 179.066500
126.956000 177.786500
129.230500 176.641500
131.438500 175.394000
133.609500 174.144500
135.941500 173.361000
138.403000 172.805500
140.969000 172.592500
143.569500 172.525000
146.076500 173.011000
148.485500 173.989000
150.607000 175.463000
152.578500 177.071500
154.509500 178.758000
156.148500 180.756500
157.458000 182.997000
158.611000 185.299000
159.844000 187.590500
160.693000 190.009500
161.120500 192.545000
160.452000 194.871000
158.652000 196.700500
156.784500 198.500500
154.889500 200.294000
152.851500 201.889000
150.747500 203.390000
148.669000 204.928500
146.529000 206.396500
144.193500 207.531500
141.718500 208.272000
139.211000 208.883000
136.627000 209.100500
134.032500 208.965500
131.507500 208.493000
129.070500 207.885500
126.845000 206.767000
124.811000 205.340000
122.878000 203.719500
121.388000 201.647000
120.424000 199.333500
119.373500 197.047500
118.333000 194.745500
117.275500 192.405500
116.424500 190.057500
116.019500 187.843500
134.622000 188.446500
135.379500 188.194000
136.136500 187.942000
136.893500 187.689500
137.649500 187.433000
138.400500 187.292500
139.198500 187.292500
139.989500 187.337000
140.770000 187.446000
141.548500 187.581000
142.300500 187.799500
143.044000 188.040500
143.472000 188.517500
143.421500 189.240000
142.872500 189.815500
142.195500 190.200500
141.449500 190.419500
140.688500 190.601500
139.947500 190.786000
139.196500 190.986000
138.430500 191.063000
137.632500 191.063000
136.834000 191.063000
136.057500 190.972500
135.308500 190.826000
134.763000 190.434000
134.468000 189.758000
134.391500 188.992000
134.535000 188.292500
135.237500 188.062000
}
