version: 1
n_points: 120
{
88.974000 106.000000
91.133000 103.292500
93.996000 101.350000
97.273500 100.130500
100.730000 99.582000
104.247000 99.425500
107.563000 100.130500
110.880000 101.307000
113.835500 103.153500
116.740000 105.022000
115.994500 107.602000
113.028500 109.469000
109.669000 110.456500
106.284000 111.109500
102.820500 111.603000
99.316000 111.924000
95.907000 111.304000
92.574000 110.268500
89.634000 108.524500
89.358000 105.725500
164.405000 104.906500
167.309000 102.580000
170.210000 100.256500
173.304500 98.231000
176.825000 97.117000
180.488000 96.589000
184.185000 96.666000
187.767500 97.560500
191.061000 99.270500
194.017000 101.449000
194.319000 103.648000
191.220500 105.679500
187.972500 107.460500
184.473500 108.662000
180.787500 109.000500
177.053500 108.965500
173.359500 108.685500
169.743500 107.998000
166.240500 106.952000
164.405000 104.749000
117.238000 190.687500
118.694500 188.432500
120.117000 186.195000
121.920000 184.227000
123.651500 182.191000
125.459500 180.218500
127.277000 178.328500
129.508000 176.888000
131.968500 175.887000
134.525000 175.514500
137.178500 175.725500
139.771000 176.217000
142.419500 176.428000
144.944500 175.725500
147.501500 175.233500
150.049500 175.891500
152.480500 176.999500
154.775000 178.407500
157.060000 179.820500
159.237000 181.337500
161.301000 183.050000
163.131500 184.974500
164.821500 187.020000
166.296500 189.240000
167.112000 191.688000
166.083000 194.035000
164.123000 195.854000
162.190500 197.716500
160.276000 199.561000
158.228000 201.293000
156.027500 202.812000
153.785500 204.231500
151.370000 205.371000
148.872000 206.346000
146.390500 207.358500
143.822000 208.168000
141.176500 208.459500
138.511000 208.319000
135.879500 208.038000
133.204000 207.897500
130.550000 207.687000
128.003500 207.098500
125.738000 205.720000
123.972500 203.814000
122.577000 201.681500
121.031500 199.535500
119.988500 197.171500
119.066500 194.766000
118.067500 192.416000
117.378500 190.125500
131.911500 188.381500
133.150500 187.850500
134.387000 187.313500
135.693500 187.092000
137.008500 186.886500
138.326500 186.685000
139.644500 186.481000
140.966000 186.345500
142.314000 186.345500
143.651500 186.277500
145.000000 186.277500
146.332500 186.209500
147.515000 186.609000
148.134000 187.621500
147.766000 188.817500
146.707000 189.604000
145.561000 190.208500
144.374500 190.716000
143.135500 191.097000
141.851000 191.368500
140.535000 191.504000
139.218500 191.640000
137.870000 191.640000
136.522000 191.640000
135.217500 191.504000
133.992500 191.187000
132.853500 190.613500
131.799000 189.875000
131.368500 188.974000
132.250500 188.110000
}
