version: 1
n_points: 120
{
90.866000 101.133000
93.021500 98.883000
95.937000 97.379500
99.017000 96.069000
102.221500 95.319000
105.635000 95.131500
109.110500 95.131500
112.386500 95.819000
115.362000 97.174500
118.246000 98.788000
118.920500 100.882500
115.883000 101.909000
112.592500 102.570500
109.290500 103.071000
106.146000 103.696000
102.901500 104.196000
99.526000 104.446000
96.102000 104.321000
93.568000 102.647500
90.991000 101.133000
167.097500 98.352000
169.744000 96.679500
172.206000 94.650000
174.798000 92.869500
177.596000 91.589500
180.876500 91.427500
184.224000 91.427500
187.258500 92.455000
190.189500 93.588500
192.843500 95.316500
194.453000 97.614000
191.933500 99.217500
189.008500 100.353000
185.930000 101.165500
182.582000 101.165500
179.234500 101.165500
175.944500 101.003000
172.796500 100.408000
169.672000 99.899000
167.097500 98.352000
108.999000 189.720000
110.711000 186.250500
111.814000 182.160000
113.431500 178.305500
116.297000 175.327500
119.871500 173.054000
123.757500 171.212500
127.735500 169.563000
131.464000 168.043000
135.590500 166.860500
139.813500 166.297500
144.248500 166.185000
148.730000 166.185000
153.212000 166.185000
157.676500 166.256500
161.024500 168.775500
164.123500 171.732000
167.078000 174.802500
169.250000 178.470500
171.759000 181.874500
173.864000 185.559000
175.437500 189.621500
175.888000 193.956500
175.437500 198.312000
173.748500 202.223000
172.397500 205.969500
170.840500 209.725500
169.658500 213.629000
167.603500 217.341000
164.769000 220.320500
161.801500 223.057500
159.043500 225.867000
155.299500 227.781500
151.237000 228.682500
146.820000 228.907500
142.338500 228.907500
137.856500 228.907500
133.375000 228.907500
129.496000 227.557000
126.382500 225.500500
123.324500 222.963500
120.469000 219.786500
118.019500 216.645500
115.755500 213.305500
114.213500 209.686000
113.503000 205.458500
112.099000 201.716000
110.445000 197.886500
109.449500 193.836500
108.886500 189.720000
115.926000 190.438000
116.965500 185.224000
120.678000 182.090000
125.924000 180.400500
130.777000 178.512000
135.794000 177.220000
140.962500 175.828500
146.507000 175.431000
151.938000 176.396000
157.019000 178.313000
161.922500 180.499500
166.269000 183.807000
170.185000 187.158500
170.613500 192.645000
168.301500 197.539500
165.380000 201.608500
163.243500 206.328500
160.847500 210.901000
157.597500 214.886500
152.610500 216.775000
147.535000 218.156500
141.879500 218.464500
136.430000 217.600500
131.843000 215.184500
127.461500 212.501500
123.280500 209.143000
120.497500 205.057500
118.410500 200.484000
117.218000 195.390500
115.826500 190.338500
}
