version: 1
n_points: 120
{
91.598500 97.078500
93.477500 94.597500
95.916000 92.795000
98.825000 91.606500
101.799500 90.682500
104.942000 90.598500
108.089000 90.744500
111.065000 91.524000
113.947000 92.579500
116.581000 94.232000
118.066000 96.320500
115.606000 98.157000
112.617500 98.930000
109.565000 99.502500
106.441500 99.771500
103.323000 100.024000
100.166000 100.066000
97.165500 99.519000
94.316000 98.461000
91.598500 97.036500
168.746500 93.531000
170.947000 91.508500
173.611000 89.937000
176.381500 88.578500
179.378500 87.951000
182.529000 87.951000
185.576000 88.390500
188.420500 89.429000
191.308500 90.443000
193.832500 92.005500
194.502500 94.266500
191.858500 95.759500
189.029000 96.948500
186.037000 97.619000
182.910000 97.692000
179.759500 97.692000
176.620000 97.645000
173.811000 96.684500
171.175000 95.138500
168.746500 93.672500
108.027500 184.974000
108.274500 179.787500
109.799500 175.303000
112.251500 170.848500
114.895500 166.751000
118.723500 163.497500
123.262000 161.769500
128.200000 160.535000
133.197500 159.671500
138.538500 159.548000
143.535000 160.535000
148.820000 160.598000
153.554500 159.177500
158.864500 159.301000
163.353500 161.573500
167.969000 163.823000
171.680000 167.163500
174.613500 171.266000
176.900500 175.606500
178.448500 180.379000
178.505000 185.705000
178.505000 191.066500
178.135000 196.305500
177.153500 201.378500
175.282000 205.861000
173.920500 210.400500
172.688500 215.136500
171.099500 219.810500
169.618500 224.407500
167.643500 228.872000
164.594000 232.457500
160.433500 234.839000
155.793000 236.443500
151.125000 238.048000
146.019000 238.665500
140.760000 238.418500
135.877500 237.431000
131.109000 236.621500
127.538000 233.498500
124.329500 230.167000
121.676000 226.218000
119.351000 221.986500
117.462500 217.421000
115.557000 212.913500
113.952500 208.098000
112.431500 203.532500
110.619500 198.963000
108.768500 194.475500
107.904500 189.667000
107.657500 184.480500
112.452500 183.866500
114.854000 177.726000
119.815500 173.855000
126.715500 172.528000
133.657000 170.960000
140.378000 169.271000
147.690000 169.271000
155.002000 169.271000
161.255000 171.151500
167.222000 174.461000
171.719500 179.364500
175.538500 184.786000
175.538500 192.098000
173.490000 198.699000
170.834000 204.742000
167.659000 210.563500
164.079500 216.082500
160.264000 221.215000
155.153000 225.429500
149.132000 227.894000
142.224000 228.979500
135.481500 228.135000
129.922500 224.616500
125.446000 219.985500
121.907500 214.310000
118.862500 208.146000
116.433000 201.905000
113.297000 196.181000
111.608000 189.722500
112.332000 182.781000
}
