version: 1
n_points: 120
{
92.002000 95.606500
93.692500 93.137500
96.466500 91.433000
99.291000 89.826500
102.392000 88.921500
105.622500 88.667000
108.839500 89.127000
111.942000 90.079500
114.949000 91.377500
118.017000 92.301500
119.607500 94.263500
117.030000 96.133000
113.940000 97.114500
110.723000 97.654000
107.524500 98.142000
104.300500 98.542000
100.999500 98.542000
97.785000 98.230500
94.871000 97.018500
92.091000 95.517500
168.414000 92.438500
170.353500 90.073500
172.914000 88.269500
175.777500 86.892500
178.733000 85.795500
181.915500 85.711000
185.047500 86.251000
188.144500 86.908000
190.951000 88.211000
193.361000 90.250000
195.433000 92.091000
192.646000 93.638500
189.722500 94.907000
186.637000 95.597500
183.455500 95.796000
180.248500 95.796000
177.041500 95.796000
174.036000 95.060500
171.184000 93.891500
168.461000 92.486000
107.765000 175.686500
109.628500 171.306500
112.394500 166.904500
115.189500 162.644500
119.007500 159.411000
123.963500 157.818500
129.057500 156.434000
134.097500 155.176000
139.425000 155.050000
144.804500 155.050000
150.184000 155.050000
155.563500 155.050000
160.890500 155.176000
165.830500 156.651000
169.970500 159.624000
173.359500 163.642500
176.050500 168.095000
179.108500 172.159500
181.722500 176.393000
182.006500 181.695500
180.874000 186.801000
179.615500 191.505500
178.357500 196.375500
176.973000 201.184500
175.715000 206.138000
174.375000 211.001000
172.820500 215.925500
170.807500 220.243500
168.668000 224.803000
166.292000 229.277000
161.972500 231.758500
157.267000 233.419000
152.141000 234.198500
147.094000 234.953500
141.871000 235.331000
136.491500 235.331000
131.953500 233.584000
127.781000 230.805500
124.004000 227.662000
120.710000 223.974500
117.706500 219.855000
115.441000 215.372500
114.300000 210.390500
113.302000 205.264500
112.421000 200.205000
111.648500 195.029500
109.696000 190.495500
107.891000 185.853000
107.387500 180.688500
107.387500 175.309000
111.660500 180.695500
113.659000 174.325000
119.338500 170.198500
126.010500 168.059500
133.083500 166.324500
140.630500 166.324500
147.937000 165.401500
155.453000 165.269500
162.914500 165.533500
169.276000 168.195000
174.770500 172.478000
177.978000 178.599000
177.739500 185.523000
175.886500 192.393000
173.231500 198.907000
170.041000 204.981000
166.469500 211.019500
162.932000 216.828500
158.728500 222.314000
151.971500 223.940000
144.968500 225.258500
137.421500 225.258500
131.839000 221.837000
127.134000 217.240000
123.035000 211.978500
119.468000 206.302000
116.610000 200.052000
114.033500 193.746000
112.188000 187.202000
111.397000 180.036000
}
