version: 1
n_points: 120
{
92.159000 95.797000
93.983500 93.269000
96.700500 91.606000
99.691000 90.693000
102.738000 89.788000
105.956500 89.485000
109.147000 89.779000
112.101000 90.923000
114.983000 92.296500
117.953500 93.452000
118.846000 95.265500
116.274000 97.181000
113.221500 98.119500
110.162000 99.019500
106.970000 99.432500
103.711500 99.432500
100.453000 99.432500
97.331000 98.833500
94.394000 97.697000
92.007500 95.847500
167.900500 93.038500
170.194000 90.860000
172.935500 89.213000
175.935500 88.104500
178.899500 86.948000
182.035500 86.474000
185.246000 86.566500
188.196000 87.735500
191.010000 89.238500
193.897500 90.522500
194.104500 92.950000
191.387000 94.571000
188.451000 95.617000
185.354000 96.133000
182.138000 96.226500
178.911500 96.226500
175.685000 96.226500
172.541500 95.757500
169.641500 94.685500
167.853500 92.850500
105.748500 171.260000
107.591000 167.308500
111.012000 164.021500
114.808000 160.979500
118.771500 158.348000
123.034500 155.972000
127.724500 154.500000
132.592500 153.721500
137.444000 152.833500
142.411500 152.611500
147.432000 152.611500
152.228000 152.167000
157.248000 152.167000
162.088500 153.085500
166.724000 154.705000
171.057500 157.175000
175.471500 159.201500
179.416500 161.857000
182.429500 165.686000
183.341000 170.404500
183.674000 175.339000
183.785000 180.333000
182.895000 185.145000
181.232000 189.695000
179.002000 193.925000
176.950000 198.187000
174.682500 202.410000
172.354500 206.554500
169.281500 210.296000
166.579500 214.038000
163.290500 217.619000
158.727500 218.881500
154.013000 220.102500
149.032500 220.324500
144.012000 220.324500
138.992000 220.324500
134.095000 220.289000
129.842500 218.107500
125.749000 215.884500
121.813000 213.078000
118.383500 209.850500
115.410000 206.013500
113.237500 201.779000
111.079000 197.575500
109.189500 193.157500
107.746500 188.823000
106.414500 184.247500
105.748500 179.399000
105.193500 174.569500
105.748500 170.039000
108.011000 177.859000
109.447500 171.342000
114.446000 167.768000
120.857500 165.343000
127.654000 164.625000
134.455500 163.804000
141.302500 163.188500
148.286500 162.983500
155.300000 162.983500
162.313500 162.983500
169.327000 162.983500
175.468500 165.091000
180.131500 169.667500
181.568000 176.272000
180.252500 182.849000
176.761000 188.679500
172.865500 194.153000
168.338000 199.230500
163.307000 203.745500
157.553500 207.373500
151.386500 209.429000
144.542500 210.480500
137.781000 210.072000
131.739000 207.375500
125.778500 204.346500
120.922500 199.886000
116.664500 194.822000
113.486500 189.284500
110.268000 183.722000
107.703500 177.961500
}
