version: 1
n_points: 120
{
87.583000 105.835500
89.602500 103.068500
92.495500 101.063500
95.578500 99.348500
98.846500 98.303000
102.280000 97.794000
105.737000 98.372000
108.950500 99.771500
111.890500 101.642500
114.839000 103.394000
116.041000 105.867500
113.236500 107.819500
109.906500 108.919500
106.451500 109.504000
103.026500 110.110500
99.540000 110.570500
96.009500 110.721500
92.588000 110.161500
89.739500 108.313500
87.481000 105.988000
165.209500 103.146500
167.620500 100.653000
170.552000 98.708000
173.696500 97.118000
176.824500 95.722500
180.312500 95.471500
183.830500 95.653000
187.132500 96.756500
190.192000 98.432500
193.226500 100.160500
193.775000 102.894000
191.014000 104.963000
187.845500 106.428500
184.481500 107.287000
181.005000 107.724500
177.468000 107.842000
173.932000 107.683500
170.588000 106.908500
167.566500 105.233500
165.108500 103.096000
111.518000 194.701000
111.786000 190.932500
113.756500 187.992000
116.002000 184.928500
118.762000 182.363000
121.559000 179.894500
124.584500 177.649000
127.573000 175.324000
130.426500 173.316500
134.166000 173.163500
137.998500 173.253000
141.842000 173.253000
145.373000 172.424000
149.098000 171.912500
152.512500 173.139000
155.586000 175.141000
158.286500 177.801500
160.547000 180.835500
162.461500 184.117500
164.573000 187.237000
166.267500 190.616000
167.371500 194.226500
167.997000 197.941000
167.997000 201.784500
167.997000 205.628000
167.461000 209.346000
166.388500 212.909500
165.048000 216.319500
163.434000 219.639000
161.003000 222.539000
158.180500 224.988500
155.164500 227.154500
151.765500 228.749000
148.139500 229.721500
144.382500 230.268000
140.578500 230.487500
136.741000 230.536000
133.335500 229.195500
129.957500 227.845500
126.579500 226.205500
123.572500 224.006000
120.729500 221.517000
118.605000 218.436000
116.523500 215.345000
114.771500 212.110500
113.430000 208.622500
112.767000 204.928000
112.114500 201.284500
111.307000 197.641500
111.160500 193.896500
118.803500 195.429500
120.313500 191.698000
123.112500 188.899000
126.763500 187.179500
130.621500 185.964500
134.829000 185.437000
139.050500 184.999000
143.410000 184.999000
147.473000 185.660500
150.761500 187.703000
154.703000 189.124000
158.179500 191.345000
161.222500 194.098500
161.798000 198.060000
160.007000 201.839500
158.114500 205.563500
156.178500 209.144500
154.015500 212.642000
151.231500 215.517500
147.429500 217.043500
143.265000 218.070000
138.984000 218.222000
135.019000 216.966500
131.230000 215.405000
128.065500 212.760500
125.528000 209.723000
123.575000 206.188500
121.427000 202.785500
120.059000 198.991000
118.610500 195.332500
}
