version: 1
n_points: 120
{
87.856000 103.798000
89.894500 100.888500
92.774500 98.699500
95.904000 96.936000
99.269500 95.909500
102.825000 96.336000
106.237000 97.489500
109.625000 98.712500
112.934000 100.145000
115.791000 102.101500
115.118500 105.241000
112.249000 107.271500
108.690500 107.911500
105.157500 108.759500
101.601000 109.350500
97.953500 109.491500
94.306000 109.368000
91.075000 108.009000
88.519500 105.814500
87.915500 103.204500
164.269000 102.327000
167.104000 99.975000
170.163500 97.845500
173.277000 95.862000
176.707500 94.414500
180.301000 93.738500
183.902000 94.517500
187.319500 95.696500
190.541000 97.372000
193.302000 99.718000
193.808500 102.904500
190.484500 104.419000
187.169500 106.107500
183.625000 107.017000
179.927500 107.186500
176.222500 106.894000
172.615500 106.317500
169.236500 105.109000
165.671000 104.418000
164.325500 101.988000
110.290000 201.988500
111.675500 197.708000
112.335000 193.207500
113.807500 189.071500
116.146000 185.266500
118.384500 181.425500
121.481000 178.112500
124.852500 175.446000
129.112000 174.700000
133.731000 175.014500
138.090500 175.979000
142.740000 175.828000
146.684000 174.380000
151.377000 174.380000
155.362500 176.183000
159.054000 178.693000
162.564500 181.606500
164.988000 185.508500
166.885000 189.706500
168.761000 193.842500
170.381500 197.909000
171.689500 202.202500
171.689500 206.895500
171.370000 211.513500
170.304000 215.849000
169.877500 220.403500
169.131500 224.884000
168.598500 229.421000
166.811500 233.277500
164.547500 236.969500
162.416000 240.653000
158.561500 242.619000
154.983000 244.947500
150.994500 246.653000
146.478000 247.079500
141.785000 247.079500
137.091500 247.079500
132.669000 246.439500
128.729500 244.627500
125.213500 242.250500
122.035500 239.104500
119.185500 235.828000
116.638500 232.215000
114.767000 228.270000
113.910500 223.727000
112.421500 219.681000
111.583000 215.235000
110.823000 210.960000
110.396500 206.424500
110.290000 201.775500
115.451500 202.988000
117.753500 197.829500
120.712500 193.004500
124.746000 189.462000
130.091500 187.648000
135.462000 186.272500
141.252500 185.743500
147.171500 185.743500
152.394000 187.661000
157.275500 190.539000
162.025500 193.279000
165.448000 197.608500
167.503000 202.636000
167.745500 208.262500
166.620000 213.815500
164.689500 219.026000
162.213000 223.703500
159.094000 228.034000
155.022000 231.657000
150.005000 234.060000
144.424000 235.044000
138.617500 235.361500
133.614000 233.493000
128.791500 230.928000
124.717000 227.699500
121.270000 223.424000
119.007000 218.689000
117.157000 213.587000
116.086000 208.054000
115.134000 202.565000
}
