version: 1
n_points: 120
{
88.126000 102.291000
90.330000 99.714000
93.065000 97.555000
96.209500 96.035000
99.401500 94.647500
102.976000 94.580500
106.485000 94.904000
109.341000 96.993000
112.473000 98.580500
115.418500 100.390500
116.106500 103.487000
113.118500 105.247500
109.774500 106.326000
106.413500 107.344500
102.977000 108.072500
99.427500 108.334000
95.837000 108.334000
92.704500 106.925500
89.882500 104.966500
88.021500 102.343000
165.745500 99.066000
168.150000 96.745000
171.252500 95.160500
174.492000 93.846500
177.575000 92.404000
181.054000 92.203500
184.595500 92.203500
187.843500 93.413000
190.647000 95.412000
193.214000 97.681000
193.123500 100.742000
190.390000 102.874000
187.109000 103.928500
183.682500 104.576500
180.179500 104.827000
176.644000 104.786000
173.195000 104.322500
170.047000 102.893500
167.052000 101.221500
165.645500 98.615500
109.481500 196.575000
110.998000 192.301500
113.131000 188.242500
115.025500 184.079000
117.477000 180.170500
119.900500 176.334500
123.288500 173.566500
127.947000 173.312000
132.442500 174.091500
136.981000 175.276500
141.770000 175.380000
146.404500 174.966500
151.128500 174.553000
155.433000 176.281500
159.329500 178.747000
162.980000 181.732000
166.076000 185.177500
168.457000 189.155000
170.129500 193.552500
170.984000 198.198500
172.343500 202.385500
172.860500 207.078000
172.860500 211.884000
172.430500 216.579000
171.481500 221.113500
170.792500 225.644000
169.862000 230.127500
167.903500 234.094500
166.012000 238.163000
163.865500 242.069000
160.031500 244.247000
155.775000 246.099500
151.213500 246.823500
146.613000 247.749000
141.832500 247.857000
137.026500 247.857000
132.619500 246.513000
128.555000 244.495000
124.722500 242.450500
121.643500 239.205000
119.128000 235.481000
116.719000 231.494000
115.347000 227.047500
113.927500 222.740500
112.357000 218.465000
111.342500 213.927000
110.267000 209.457500
109.275000 204.921500
109.481500 200.201000
109.585000 195.438000
113.513000 197.642500
116.096500 192.623000
120.287000 188.737000
125.822000 186.723000
132.049000 185.733000
138.307000 185.079000
144.704000 185.196500
150.381500 186.488000
155.962000 188.366500
161.848000 190.048500
167.009000 193.287500
170.298500 198.258000
171.400000 204.297000
169.996500 210.312000
168.350500 216.187500
165.961000 222.023000
163.293500 227.353500
159.557500 231.677000
154.022000 234.590000
148.131000 236.410500
141.926500 237.095000
135.550500 236.977500
130.558500 233.934500
125.882500 230.187500
121.967000 225.796500
118.966000 220.591000
117.035500 215.032500
115.626000 209.266500
113.983000 203.639000
113.748000 197.290500
}
