version: 1
n_points: 120
{
88.413000 104.223000
90.519000 101.676000
93.493500 99.916500
96.662500 98.645000
99.940000 97.831000
103.421500 97.831000
106.819500 98.289000
109.790500 99.933000
112.680000 101.680500
115.704000 103.241500
115.312500 106.024000
112.390000 107.691000
109.221500 108.871500
105.765000 109.104000
102.301000 109.278000
98.856000 109.510500
95.374500 109.510500
92.206000 108.448000
89.400500 106.430500
88.587500 103.700000
166.002500 101.986500
168.187500 99.713500
170.874000 97.776000
173.796500 96.185500
176.903000 95.015500
180.226000 94.713500
183.548000 95.099500
186.780500 95.915500
189.500500 97.844500
192.247500 99.762000
192.842000 102.351000
190.185000 104.369500
187.077000 105.606500
183.865500 106.513000
180.545500 106.880000
177.183500 106.860000
173.914000 106.279000
170.814500 105.430000
167.959000 103.853500
165.826000 101.766500
105.490000 190.691000
106.881500 186.433000
109.433500 182.698500
112.305500 179.027500
115.628000 176.126500
119.741000 174.080000
124.213000 172.681000
128.998000 172.740500
133.490500 174.074000
138.142000 174.355000
142.941000 174.355000
147.633500 174.053500
152.382500 173.933500
156.792000 175.514000
161.025000 177.408500
165.305000 179.414000
168.856500 182.389000
171.791500 186.070000
174.367000 189.956000
176.629500 194.008000
177.474500 198.613500
177.384500 203.397500
175.750000 207.631500
174.629000 212.036500
173.048000 216.244000
171.783500 220.676500
170.779500 225.160000
168.985000 229.218500
166.195500 233.010500
162.998500 236.106000
158.762500 238.224000
154.584000 239.952500
149.946000 240.943000
145.200000 241.175000
140.418500 241.070000
135.854000 240.124500
131.363500 239.224500
127.097500 237.488000
123.099500 235.387000
119.772500 232.296500
116.872500 228.715000
114.659500 224.736500
112.982000 220.438500
111.411000 216.110000
110.110000 211.735500
108.372000 207.453000
106.509500 203.304000
105.701000 198.760500
105.384500 194.069000
105.384500 189.848000
108.390500 192.576000
111.070000 187.367000
116.895500 185.936000
123.238000 185.093000
129.582500 184.355000
136.092000 184.355000
142.601500 184.355000
149.111000 184.355000
155.430500 185.198000
161.630500 186.673500
167.460000 188.868000
172.441000 192.546000
174.473000 198.208000
173.330500 204.329000
171.461000 210.193000
168.733500 215.827000
164.760500 220.222000
159.643000 223.952500
154.240000 227.145500
148.328500 229.358500
141.819000 229.358500
135.454500 230.096500
129.842000 227.883000
124.790000 224.384000
120.548500 219.873000
117.138000 214.772500
114.068500 209.636500
111.558000 203.970000
109.128000 198.482500
108.390500 192.470500
}
