version: 1
n_points: 120
{
94.417500 103.385500
96.370000 101.601500
98.768500 100.283000
101.393500 99.579500
104.086500 99.108500
106.810000 98.900000
109.551000 98.922000
112.202000 99.528500
114.360000 101.081500
116.570000 102.551000
118.493000 103.559000
115.924000 104.334000
113.182500 104.334000
110.450000 104.488000
107.747000 104.880500
105.013000 104.990000
102.271000 104.990000
99.529500 104.990000
96.905500 104.447500
94.527000 103.385500
170.038000 100.998500
171.906000 99.226500
174.168500 97.919500
176.629500 97.052000
179.164500 96.436000
181.776500 96.297500
184.408000 96.297500
187.015000 96.564500
189.566000 97.079000
191.890000 98.274500
192.869000 99.673500
190.369500 100.450500
187.839500 101.147000
185.289500 101.776500
182.691000 102.080500
180.065000 102.152500
177.433500 102.154500
174.802000 102.154500
172.190000 102.000000
170.038000 100.883000
116.998500 165.651000
117.058000 162.841500
118.049500 160.205500
118.540500 157.437500
119.934000 155.019500
121.850000 152.923500
124.135000 151.416500
126.764000 150.418500
129.439500 149.585000
132.286500 149.340500
135.155000 149.340500
138.000000 149.518500
140.847000 149.637000
143.701000 149.756000
146.556000 149.637000
149.328000 148.953500
152.058000 148.154500
154.866000 147.858000
157.734500 147.858000
160.555500 148.077500
162.943000 149.616500
165.132500 151.427000
166.807500 153.694500
168.005000 156.251500
168.420000 159.025000
168.420000 161.893500
168.420000 164.762000
168.420000 167.630500
168.006000 170.391500
166.682500 172.913000
164.623000 174.845000
162.316000 176.454000
159.806500 177.779000
157.199000 178.929000
154.401000 179.481500
151.547000 179.648000
148.685500 179.707000
145.826000 179.817000
142.982500 180.063000
140.114000 180.063000
137.355500 179.472000
134.730500 178.520000
132.075500 177.539000
129.448000 176.409500
126.966000 175.009500
124.657000 173.366000
122.427500 171.603000
120.239500 169.819500
118.521500 167.589000
116.939000 165.532000
119.669000 170.456000
121.875500 167.880500
124.809500 165.917500
127.767500 164.049500
131.301500 163.829500
134.784500 164.365000
138.300000 164.664000
141.865500 164.721500
145.430000 164.672500
148.883000 163.989000
152.309500 163.211000
155.856000 163.360500
159.125000 164.688500
162.227500 166.349500
165.272000 168.057000
164.674500 167.747000
161.662000 166.123000
158.608000 164.466500
155.353500 163.383000
151.780500 163.383000
148.241500 163.574500
144.975500 164.785000
141.426500 164.976000
137.860500 164.920500
134.512500 164.084000
130.973000 163.893000
127.442000 164.020500
124.761000 166.065000
121.916000 167.962500
119.796500 170.328500
}
