version: 1
n_points: 120
{
95.565000 103.564000
97.545000 102.333000
99.590500 101.093500
101.783000 100.165500
104.160000 99.947500
106.573000 99.947500
108.986000 99.947500
111.378500 100.059500
113.532500 101.098000
115.093500 102.839000
116.191000 104.037500
113.815500 104.383500
111.442000 104.744000
109.064000 104.972500
106.651000 104.972500
104.237500 104.972500
101.824500 104.972500
99.411500 104.972500
97.014500 104.858500
95.489000 103.526000
171.902500 101.212000
173.886000 99.852500
176.075000 98.779000
178.392500 98.024000
180.801500 97.697000
183.264500 97.697000
185.727500 97.697000
188.145500 98.064500
190.470500 98.780000
192.626500 99.914500
192.119000 100.313000
189.688000 100.596500
187.363500 101.365500
185.003500 102.009000
182.593500 102.408500
180.135000 102.438500
177.671500 102.438500
175.211000 102.479000
172.772500 102.356500
171.943500 100.926000
114.977500 165.491000
115.657000 162.716500
116.854000 160.102000
118.440500 157.665500
120.039500 155.232500
121.492500 152.739500
123.483500 150.741000
126.135000 149.809000
129.046000 149.769500
131.961500 149.769500
134.877500 149.769500
137.759500 150.035500
140.634500 150.327000
143.550000 150.327000
146.392000 149.927500
149.128000 149.001000
151.936000 148.276000
154.797500 147.862000
157.677000 147.471500
160.543500 147.149000
163.192500 147.979000
165.480500 149.765000
167.534000 151.816000
169.361000 154.060500
170.991000 156.471000
172.169000 159.110000
172.679000 161.956500
171.712000 164.562500
169.393500 166.297500
167.135000 168.080000
164.778000 169.758000
162.279000 171.235000
159.704000 172.584500
157.151500 173.951500
154.417500 174.904500
151.598500 175.541500
148.731500 175.924000
145.834500 176.152000
142.920500 176.195000
140.005000 176.195000
137.100500 176.083500
134.227000 175.666000
131.350500 175.193500
128.666500 174.190000
126.100000 172.873000
123.444500 171.731500
120.770000 170.616500
118.084500 169.555000
115.802500 167.922000
114.866000 165.379500
118.627000 169.037500
121.331500 166.866000
124.393500 165.168500
127.591000 163.767000
130.949000 162.802000
134.447000 162.826000
137.932000 163.122500
141.437500 163.122500
144.923500 163.024000
148.363500 162.529000
151.840000 162.284500
155.345000 162.284500
158.771500 162.965500
162.108000 164.022000
165.137000 165.682000
164.807000 165.608500
161.623500 164.235000
158.427000 163.010000
155.049500 162.333500
151.569000 162.526000
148.097500 162.860500
144.636000 163.270500
141.142000 163.369000
137.636500 163.369000
134.239500 162.777500
130.742500 162.728000
127.344500 163.338500
124.251500 164.917500
121.193000 166.520500
118.873500 168.741500
}
