version: 1
n_points: 120
{
95.712500 104.592000
97.665500 103.054000
100.057500 102.199500
102.521000 101.606500
105.026500 101.290000
107.564000 101.161500
110.105500 101.097500
112.548000 101.629500
114.605500 103.099500
116.629000 104.604500
117.405000 105.683000
114.896000 106.073500
112.447000 106.708000
109.915000 106.836000
107.369000 106.836000
104.823500 106.836000
102.277500 106.836000
99.738000 106.758000
97.272500 106.191500
95.680500 104.431500
173.101000 102.435500
175.265500 100.530500
177.634000 98.847000
180.500000 98.293000
183.451000 98.289500
186.386500 98.491500
189.231500 99.202500
192.063500 100.031500
194.802000 101.078500
197.481500 102.278000
197.490000 102.999000
194.540000 103.016500
191.665500 103.621000
188.792500 104.270000
185.902000 104.770000
182.965000 104.931000
180.026500 104.851500
177.124500 104.423500
174.259000 104.005500
173.221500 102.315000
111.493500 166.748000
112.313500 163.779500
113.873000 160.977500
115.625000 158.286500
117.602000 155.798000
119.945500 153.636500
122.649500 151.962000
125.756500 151.560000
128.892500 152.153000
132.074000 152.509000
135.293500 152.572500
138.518000 152.572500
141.742000 152.572500
144.966000 152.572500
148.190500 152.572500
151.382000 152.309500
154.428000 151.402500
157.526000 150.636500
160.625500 149.977500
163.831500 149.851000
167.001000 150.143500
170.030000 151.197500
172.560000 153.075000
174.487500 155.644500
176.469500 158.151500
178.512000 160.634000
179.271000 163.691000
177.815500 166.326500
175.118500 168.065000
172.188000 169.403500
169.223000 170.653500
166.343000 172.033000
163.344000 173.198000
160.167000 173.616000
156.997500 174.136000
153.830500 174.651500
150.693500 175.365000
147.529000 175.798000
144.304500 175.798000
141.080500 175.798000
137.856500 175.798000
134.642500 175.715500
131.522500 175.048500
128.554500 173.848500
125.521500 172.831500
122.373000 172.207000
119.311000 171.320500
116.265000 170.321500
113.498500 168.724500
111.367000 166.748000
116.045000 169.238500
119.357500 167.201000
123.016000 165.884000
126.863500 165.111000
130.783500 164.807500
134.740000 164.807500
138.696000 164.807500
142.652500 164.807500
146.596500 164.929000
150.553000 164.929000
154.509000 164.929000
158.465500 164.929000
162.421500 164.929000
166.348000 165.128000
170.199000 165.839500
169.790000 165.900000
165.912500 165.536000
161.978500 165.354000
158.022500 165.354000
154.066000 165.354000
150.110000 165.354000
146.163500 165.293000
142.207000 165.293000
138.255000 165.232500
134.317000 165.111000
130.361000 165.111000
126.424000 165.126500
122.627500 165.984500
118.935500 167.079500
115.923500 168.996000
}
