version: 1
n_points: 120
{
92.896000 117.810000
95.871500 116.753000
98.972000 116.045500
102.123000 115.587000
105.220500 114.921500
108.363500 114.501500
111.512000 114.087500
114.668000 113.674500
117.854000 113.519500
121.053000 113.519500
120.369000 113.519500
117.169500 113.519500
113.989500 113.674000
110.864000 114.140000
107.815000 114.781000
104.696500 115.225500
101.589000 115.794000
98.498000 116.362500
95.411000 116.931500
92.534000 117.551500
164.879000 112.623000
168.222500 112.303000
171.659500 112.303000
175.096500 112.303000
178.533000 112.303000
181.932000 112.623000
185.315000 113.074500
188.636000 113.921500
191.976000 114.603500
195.341500 115.181000
195.289000 115.041000
192.044000 114.168500
188.723500 113.582000
185.317000 113.422500
182.030500 112.886000
178.680000 112.409500
175.243000 112.409500
171.806000 112.409500
168.369000 112.409500
164.932000 112.409500
109.232000 185.787000
112.196000 184.495000
114.905500 182.685500
117.833000 181.291500
120.604000 179.588000
123.400000 177.925000
126.249000 176.446000
129.321000 175.449500
132.478000 174.931000
135.740000 175.121000
138.923000 175.788000
142.192000 175.906000
145.450500 175.751000
148.477000 174.587500
151.648000 173.890500
154.796500 174.538500
157.836000 175.743500
160.877000 176.959000
163.966500 178.063500
166.995000 179.274500
169.853000 180.860500
172.779000 182.334000
175.605500 183.984500
178.311000 185.775500
177.584000 188.327000
175.600500 190.877500
173.197000 193.068500
170.409000 194.793500
167.944500 196.891000
165.500000 199.049500
162.656500 200.646500
159.826000 202.278000
157.034500 203.977500
153.875500 204.717000
150.607000 204.899000
147.323500 204.899000
144.050000 205.029000
140.814000 205.484000
137.530500 205.484000
134.328500 205.082500
131.281500 203.927500
128.204500 202.793500
125.208000 201.510500
122.514500 199.709000
119.907000 197.762000
117.507000 195.550500
115.475000 193.070000
113.281000 190.686500
111.268000 188.213000
109.297000 185.787000
126.239000 187.321000
128.365500 187.397000
130.828000 186.787500
133.390500 186.482500
135.940000 186.101500
138.535500 185.949000
141.151000 185.949000
143.766000 185.949000
146.381500 185.949000
148.997000 185.949000
151.612500 185.949000
154.228000 185.949000
156.804500 186.178000
159.321500 186.723000
159.470500 188.988500
157.136000 189.959500
154.806500 191.134500
152.349500 191.952000
149.785000 192.350000
147.205000 192.731000
144.589500 192.731000
141.974000 192.731000
139.358500 192.731000
136.743000 192.731000
134.179000 192.431500
131.690000 191.893000
129.149000 191.323000
126.734000 190.464000
124.867500 188.980500
126.315000 187.244500
}
