version: 1
n_points: 32
{
92.000000 102.000000
100.500000 99.000000
109.000000 96.500000
120.500000 102.000000
112.000000 105.000000
100.500000 105.000000
164.000000 99.000000
175.500000 93.500000
184.500000 96.500000
193.000000 99.000000
184.500000 102.000000
173.000000 102.000000
118.000000 168.500000
126.500000 160.000000
138.000000 154.000000
141.000000 157.000000
147.000000 154.000000
158.500000 160.000000
164.000000 165.500000
158.500000 171.500000
149.500000 174.500000
141.000000 177.500000
135.000000 177.500000
126.500000 174.500000
120.500000 168.500000
135.000000 163.000000
141.000000 163.000000
149.500000 163.000000
164.000000 165.500000
149.500000 165.500000
141.000000 165.500000
135.000000 165.500000
}
