version: 1
n_points: 32
{
93.500000 100.500000
102.000000 97.500000
110.500000 97.500000
119.000000 100.500000
110.500000 103.500000
102.000000 103.500000
165.000000 97.500000
173.500000 95.000000
185.000000 95.000000
193.500000 97.500000
185.000000 100.500000
173.500000 100.500000
119.000000 163.500000
127.500000 158.000000
136.500000 155.000000
142.000000 155.000000
148.000000 155.000000
159.000000 158.000000
168.000000 163.500000
159.000000 166.500000
150.500000 169.500000
145.000000 169.500000
136.500000 169.500000
127.500000 166.500000
122.000000 163.500000
136.500000 160.500000
142.000000 160.500000
150.500000 160.500000
168.000000 163.500000
150.500000 160.500000
145.000000 160.500000
136.500000 160.500000
}
