version: 1
n_points: 32
{
94.500000 103.500000
103.000000 101.000000
112.000000 98.000000
120.500000 101.000000
112.000000 106.500000
103.000000 106.500000
166.500000 101.000000
175.000000 95.000000
183.500000 98.000000
192.000000 98.000000
186.500000 103.500000
175.000000 103.500000
117.500000 167.000000
126.000000 161.000000
137.500000 158.500000
143.500000 158.500000
149.000000 158.500000
163.500000 161.000000
175.000000 164.000000
163.500000 169.500000
155.000000 172.500000
146.000000 172.500000
134.500000 172.500000
126.000000 169.500000
117.500000 164.000000
134.500000 164.000000
143.500000 164.000000
155.000000 164.000000
175.000000 164.000000
152.000000 164.000000
143.500000 164.000000
137.500000 164.000000
}
