version: 1
n_points: 32
{
93.500000 113.500000
99.500000 110.500000
108.500000 110.500000
121.000000 113.500000
111.500000 116.500000
99.500000 116.500000
166.000000 113.500000
175.000000 110.500000
187.000000 110.500000
193.000000 110.500000
187.000000 116.500000
175.000000 116.500000
111.500000 188.500000
121.000000 179.500000
136.000000 176.500000
142.000000 176.500000
151.000000 176.500000
163.000000 182.500000
175.000000 188.500000
163.000000 200.500000
151.000000 204.000000
142.000000 207.000000
130.000000 204.000000
124.000000 197.500000
115.000000 185.500000
133.000000 185.500000
142.000000 185.500000
151.000000 185.500000
172.000000 188.500000
151.000000 194.500000
142.000000 194.500000
133.000000 194.500000
}
