version: 1
n_points: 120
{
11.366938 13.166937
11.670125 12.909688
12.000000 12.679813
12.333875 12.458312
12.710812 12.346813
13.117625 12.327125
13.517062 12.373062
13.886938 12.514437
14.225125 12.720750
14.545687 12.914312
14.642563 13.173438
14.292188 13.337938
13.908812 13.446188
13.522187 13.534313
13.123938 13.580250
12.725687 13.626188
12.319688 13.639313
11.928375 13.573688
11.575375 13.427812
11.360375 13.193125
20.780687 12.946188
21.060125 12.679063
21.359250 12.436063
21.685813 12.258625
22.038187 12.148687
22.426938 12.131937
22.805750 12.169250
23.172875 12.271375
23.525562 12.421688
23.846812 12.602187
23.849062 12.836375
23.551500 13.065563
23.208250 13.224125
22.830000 13.296938
22.439563 13.312938
22.059375 13.275625
21.677187 13.225875
21.295313 13.182375
20.920562 13.126437
20.842875 12.884063
14.094312 22.767937
14.313000 22.501000
14.554438 22.265187
14.803125 22.033500
15.074875 21.833687
15.357000 21.640250
15.642062 21.450688
15.930063 21.270125
16.220063 21.103938
16.535563 21.006312
16.861125 21.057813
17.186187 21.145813
17.514125 21.219438
17.832687 21.143812
18.140750 21.007562
18.467750 20.935250
18.797125 20.992125
19.119438 21.103750
19.431875 21.248812
19.731063 21.413750
20.018563 21.598312
20.299813 21.789813
20.570687 21.996312
20.826125 22.218750
21.067750 22.446250
21.304938 22.676313
21.144625 22.893937
20.847812 23.045875
20.550187 23.209500
20.250937 23.372438
19.950125 23.535125
19.657750 23.707500
19.348250 23.857375
19.040312 24.006500
18.711125 24.108250
18.371750 24.146000
18.026812 24.153125
17.683625 24.138938
17.342188 24.110500
16.996750 24.103437
16.651375 24.096312
16.309375 24.067875
15.975188 24.011063
15.652062 23.912688
15.356312 23.752938
15.067250 23.570563
14.791813 23.379562
14.520500 23.180000
14.286875 22.939250
14.108500 22.704062
14.324063 22.835812
14.792938 22.735125
15.244063 22.593312
15.685750 22.414188
16.144313 22.286000
16.616688 22.222875
17.100562 22.212125
17.584937 22.222875
18.065438 22.249750
18.542750 22.299187
19.013000 22.384187
19.479750 22.478938
19.947875 22.588375
20.412938 22.696063
20.883813 22.760562
20.711875 22.776688
20.256250 22.677937
19.805688 22.557500
19.361687 22.421563
18.901750 22.320625
18.435562 22.254188
17.952188 22.244375
17.471000 22.233625
16.987875 22.233625
16.504375 22.239000
16.049875 22.308875
15.616312 22.443313
15.200500 22.631500
14.760625 22.760562
14.351000 22.830437
}
