version: 1
n_points: 120
{
11.224063 13.215687
11.507687 12.944562
11.834750 12.738563
12.206687 12.614250
12.576313 12.501938
12.962750 12.451375
13.344062 12.514000
13.692438 12.638875
14.037625 12.764938
14.381250 12.933438
14.404375 13.204250
14.069375 13.393688
13.703000 13.531625
13.323937 13.641687
12.939438 13.704313
12.545625 13.716875
12.151000 13.701063
11.769625 13.635687
11.434125 13.463313
11.236625 13.234438
20.466250 13.019250
20.776750 12.760438
21.079687 12.502500
21.408125 12.302750
21.757562 12.140375
22.151563 12.114562
22.540937 12.163187
22.925438 12.250250
23.302250 12.360125
23.616875 12.596312
23.686812 12.846750
23.333250 13.037937
22.989313 13.242563
22.624063 13.374937
22.223813 13.406937
21.825125 13.368187
21.442062 13.268062
21.062687 13.167875
20.659437 13.148500
20.511500 12.980438
14.022000 22.812500
14.216375 22.548250
14.437812 22.307625
14.664687 22.081063
14.914625 21.875250
15.199000 21.712625
15.491375 21.559562
15.769125 21.410875
16.081875 21.339625
16.410875 21.339625
16.733812 21.386937
17.055875 21.436625
17.382062 21.450688
17.685562 21.341375
17.980250 21.218062
18.289062 21.121437
18.613813 21.127500
18.917313 21.244000
19.209750 21.387937
19.496813 21.544812
19.778000 21.713375
20.053438 21.887375
20.317125 22.079500
20.577813 22.276812
20.816688 22.491437
21.040750 22.718000
20.828750 22.939688
20.540563 23.094438
20.269313 23.274812
19.998188 23.455000
19.711188 23.612000
19.432000 23.783125
19.132500 23.919062
18.816125 24.010625
18.495250 24.080687
18.173375 24.142063
17.846937 24.176250
17.518937 24.206500
17.188813 24.218625
16.859437 24.203688
16.533812 24.164125
16.213375 24.098562
15.896250 24.022375
15.588062 23.910688
15.304438 23.749437
15.050375 23.543813
14.798813 23.341812
14.538562 23.147188
14.277437 22.955313
14.028063 22.782187
14.162500 22.829187
14.596438 22.657187
15.054937 22.596750
15.518313 22.547187
15.980813 22.499250
16.452063 22.491750
16.922125 22.476750
17.395187 22.476750
17.867750 22.479688
18.338313 22.491750
18.806562 22.514250
19.262750 22.582500
19.718187 22.664188
20.186312 22.694188
20.646438 22.719500
20.456750 22.731687
19.999063 22.664188
19.547125 22.584563
19.086500 22.518500
18.628500 22.441562
18.159562 22.424250
17.690000 22.409250
17.231250 22.476750
16.763500 22.499250
16.301875 22.544250
15.832375 22.559250
15.373938 22.604250
14.925688 22.686688
14.484125 22.791687
14.192500 22.829187
}
