version: 1
n_points: 120
{
10.930125 13.458375
11.195063 13.174750
11.517437 12.944500
11.866250 12.772438
12.248188 12.696750
12.642000 12.634375
13.039875 12.647813
13.398188 12.812375
13.734375 13.025438
14.063375 13.242062
14.124813 13.415750
13.790062 13.625813
13.428313 13.789000
13.044688 13.889313
12.652437 13.946125
12.257812 13.998250
11.859000 14.012813
11.484875 13.918437
11.148438 13.728813
10.930125 13.453625
20.213438 13.205750
20.533500 12.955250
20.858375 12.705937
21.201250 12.489375
21.576500 12.385063
21.985688 12.336375
22.401563 12.336375
22.793125 12.426750
23.171375 12.573813
23.492500 12.802375
23.486563 13.048687
23.154187 13.285063
22.798125 13.478438
22.408562 13.572313
21.993188 13.588313
21.578563 13.574438
21.179625 13.504563
20.786750 13.414438
20.394875 13.345500
20.248188 13.164062
13.793875 23.285563
13.999125 22.967813
14.198375 22.645250
14.418125 22.342938
14.682688 22.076250
14.888813 21.772250
15.130375 21.493562
15.467625 21.370750
15.838875 21.428187
16.198500 21.535500
16.566500 21.609813
16.942812 21.640687
17.278063 21.505500
17.621625 21.354813
17.983563 21.269500
18.351500 21.329812
18.683563 21.512750
19.001000 21.719125
19.330375 21.907875
19.643687 22.119312
19.950375 22.334750
20.263625 22.547375
20.573250 22.765500
20.864375 22.981875
21.025063 23.199063
20.780938 23.478250
20.547250 23.769687
20.271625 24.028437
19.997438 24.285812
19.728063 24.546688
19.457875 24.804562
19.174125 25.057688
18.862250 25.268500
18.526688 25.436375
18.162625 25.537813
17.779000 25.537813
17.395375 25.537813
17.011750 25.537813
16.629438 25.546250
16.245812 25.546250
15.872000 25.505562
15.515562 25.415937
15.188062 25.235312
14.873125 25.027188
14.578938 24.796063
14.344812 24.519750
14.154875 24.211750
14.046938 23.869812
13.928875 23.554875
13.785438 23.260250
14.998812 23.077562
15.288562 22.855875
15.563375 22.658750
15.883437 22.548500
16.240125 22.514312
16.602937 22.522875
16.969250 22.522875
17.329375 22.488750
17.691688 22.471688
18.048875 22.480187
18.395063 22.552625
18.731250 22.645500
19.053000 22.778875
19.342562 22.953187
19.337750 23.287250
19.144188 23.576812
18.887438 23.821437
18.585125 24.015250
18.267437 24.169812
17.918813 24.212625
17.556562 24.229688
17.190250 24.229688
16.825937 24.221125
16.474375 24.165250
16.126000 24.089188
15.792563 23.982250
15.496313 23.837125
15.258812 23.610688
15.047625 23.356813
15.015875 23.086125
}
