version: 1
n_points: 120
{
10.803812 13.401312
11.089000 13.110625
11.422812 12.886375
11.767437 12.692250
12.141813 12.579000
12.542438 12.547125
12.933750 12.618313
13.303562 12.763625
13.656625 12.949625
13.978813 13.186938
14.082187 13.431000
13.719188 13.608187
13.355313 13.770938
12.963875 13.858562
12.563125 13.905062
12.158250 13.926312
11.751000 13.927000
11.354313 13.864250
11.018500 13.686625
10.781875 13.434188
20.130562 13.183063
20.440625 12.902000
20.775813 12.661000
21.122500 12.444187
21.507125 12.284313
21.914687 12.225875
22.326187 12.268562
22.717000 12.399938
23.082375 12.577813
23.436750 12.791250
23.444750 13.045000
23.124688 13.307000
22.754313 13.480375
22.351688 13.551813
21.936250 13.589125
21.518125 13.574625
21.109437 13.531125
20.705625 13.456062
20.316063 13.361313
20.137812 13.154063
13.490500 23.190125
13.637500 22.842312
13.839250 22.533562
14.034750 22.217063
14.256063 21.926250
14.516438 21.669187
14.766875 21.390500
15.071312 21.181625
15.445375 21.150813
15.813375 21.227375
16.183000 21.304437
16.551188 21.366312
16.926625 21.387438
17.282062 21.278938
17.627625 21.133063
17.991813 21.081563
18.342813 21.210625
18.680875 21.383563
19.008125 21.571562
19.333000 21.765000
19.659250 21.955875
19.965000 22.177000
20.262375 22.405125
20.554500 22.635625
20.801125 22.913625
20.778063 23.260875
20.566188 23.548188
20.277438 23.790563
20.020125 24.055750
19.728313 24.292625
19.463687 24.558312
19.189875 24.819125
18.874437 25.023063
18.535500 25.191938
18.173562 25.298625
17.802625 25.369563
17.423625 25.391000
17.040875 25.391000
16.661812 25.375563
16.285563 25.342813
15.915375 25.275938
15.552687 25.175438
15.206188 25.025250
14.881187 24.834750
14.576063 24.614750
14.325812 24.340937
14.085500 24.054437
13.876687 23.745562
13.689250 23.435000
13.482812 23.159312
14.696875 23.003875
14.948250 22.764125
15.248875 22.594687
15.573813 22.455562
15.924312 22.404500
16.283438 22.377875
16.641562 22.401250
16.995562 22.444500
17.352438 22.471125
17.712875 22.464437
18.068938 22.484437
18.412063 22.544375
18.734875 22.653250
19.054125 22.779375
19.363937 22.926625
19.365188 23.189875
19.106063 23.422812
18.757313 23.463375
18.396750 23.450063
18.036250 23.436750
17.674625 23.443375
17.311438 23.443375
16.948250 23.443375
16.589437 23.443375
16.227812 23.450063
15.864625 23.450063
15.506937 23.463375
15.155563 23.423437
14.857437 23.264312
14.710250 22.997187
}
