version: 1
n_points: 120
{
10.874250 13.302250
11.173937 13.018812
11.533000 12.818250
11.906625 12.659875
12.298312 12.553437
12.701250 12.537187
13.110500 12.594125
13.500813 12.715000
13.867313 12.893062
14.195813 13.140187
14.199188 13.404000
13.830063 13.566125
13.448438 13.727500
13.049938 13.806875
12.641063 13.855438
12.225312 13.872000
11.816187 13.839438
11.428562 13.746313
11.085875 13.566187
10.849813 13.334812
19.992125 13.246625
20.300500 12.944937
20.657875 12.705813
21.032812 12.497188
21.412813 12.308188
21.827875 12.233562
22.261750 12.247000
22.683250 12.304438
23.064125 12.511688
23.426875 12.719875
23.591750 13.011125
23.256937 13.270563
22.858125 13.440750
22.447750 13.568625
22.014000 13.588750
21.579250 13.577250
21.169687 13.481438
20.772750 13.347250
20.357563 13.280125
20.012250 13.246625
13.506937 23.152625
13.747125 22.847750
13.938125 22.519250
14.163813 22.203000
14.407687 21.901312
14.664438 21.614937
14.985000 21.398312
15.339000 21.259563
15.721937 21.246562
16.108000 21.279812
16.491937 21.332250
16.872062 21.397125
17.260437 21.413250
17.622438 21.301188
17.983625 21.162500
18.364375 21.113937
18.726875 21.237188
19.061625 21.434375
19.394938 21.635000
19.695812 21.874375
20.007438 22.107063
20.284688 22.372563
20.576500 22.622125
20.850812 22.883750
21.022562 23.173063
20.833250 23.498938
20.581563 23.791937
20.331875 24.089125
20.072437 24.376062
19.838438 24.676562
19.555937 24.942875
19.252562 25.188063
18.928062 25.400875
18.571750 25.560625
18.192125 25.628187
17.803000 25.652438
17.413000 25.676687
17.023312 25.668625
16.639500 25.612000
16.260750 25.528625
15.887125 25.426500
15.526875 25.287063
15.190125 25.094687
14.871500 24.878625
14.592750 24.618625
14.322125 24.346062
14.088000 24.041125
13.849000 23.745438
13.658125 23.425125
13.539312 23.112188
14.725563 23.065938
14.988375 22.796063
15.309688 22.612562
15.651813 22.473375
16.022875 22.416937
16.399687 22.381688
16.778500 22.381688
17.161500 22.388750
17.542750 22.402812
17.920000 22.431062
18.295687 22.473375
18.670250 22.522750
19.033062 22.588500
19.362875 22.756937
19.578750 23.011000
19.514688 23.370438
19.286438 23.663563
18.927250 23.750187
18.545562 23.757188
18.160937 23.757188
17.777188 23.750187
17.393375 23.743125
17.008750 23.743125
16.626938 23.729000
16.244000 23.736062
15.861000 23.743125
15.495250 23.694500
15.165313 23.553875
14.880750 23.333750
14.704375 23.080000
}
