version: 1
n_points: 120
{
10.797625 13.042625
11.110188 12.828437
11.409500 12.588188
11.754750 12.410813
12.131187 12.314375
12.531937 12.307813
12.918875 12.361375
13.279750 12.493688
13.616062 12.666000
13.909937 12.907375
14.118187 13.094312
13.807875 13.293062
13.420625 13.351000
13.021875 13.364125
12.624250 13.377250
12.223937 13.385750
11.825750 13.403438
11.438625 13.351000
11.088062 13.221562
10.804187 13.042625
20.150063 12.866750
20.467312 12.636938
20.790937 12.428562
21.119125 12.226250
21.460625 12.055375
21.837625 12.001563
22.230438 11.990625
22.610125 12.045375
22.963438 12.179000
23.283500 12.375375
23.413375 12.587813
23.119000 12.808687
22.751812 12.921500
22.369312 12.976250
21.988187 13.036500
21.598750 13.058375
21.204187 13.058375
20.810500 13.052875
20.434375 13.003625
20.128187 12.894125
12.298562 21.713875
12.574938 21.309313
12.897375 20.940375
13.285813 20.648000
13.712375 20.452500
14.166500 20.312750
14.658750 20.281938
15.149000 20.255750
15.646500 20.247000
16.144000 20.255750
16.640062 20.273187
17.139563 20.273187
17.637062 20.281938
18.132500 20.264500
18.623750 20.229563
19.112250 20.177187
19.603500 20.142250
20.095625 20.180125
20.579625 20.253312
21.047812 20.352438
21.422687 20.640000
21.747750 21.000000
22.007625 21.394562
21.951812 21.869062
21.759750 22.296813
21.560312 22.730625
21.343688 23.155250
21.069188 23.560312
20.696750 23.879750
20.307562 24.182188
19.903875 24.463687
19.488563 24.730563
19.042562 24.911188
18.560000 24.988063
18.067438 25.022938
17.571313 25.049125
17.073187 25.057875
16.577813 25.040437
16.096312 24.953125
15.616437 24.861500
15.140875 24.754625
14.709062 24.534750
14.285250 24.278813
13.900562 23.979437
13.549375 23.639312
13.230063 23.282750
12.919688 22.912437
12.639062 22.529375
12.376500 22.141063
12.307250 21.705125
12.996688 21.629625
13.467688 21.234375
14.149375 21.193188
14.834875 21.224375
15.508500 21.317875
16.187938 21.391813
16.875125 21.419187
17.554875 21.380250
18.231000 21.302312
18.909813 21.229500
19.579625 21.124500
20.256563 21.045063
20.933750 21.084063
21.572937 21.216562
21.493562 21.798250
21.095312 22.346062
20.550625 22.751438
19.936750 23.052250
19.328563 23.366125
18.696250 23.587812
18.015937 23.656063
17.328625 23.679437
16.638750 23.687250
15.962063 23.609313
15.307562 23.478750
14.666937 23.259750
14.058438 22.956437
13.475312 22.627250
13.019750 22.190500
12.996688 21.614062
}
