version: 1
n_points: 120
{
11.201562 12.862875
11.482062 12.620250
11.793500 12.447750
12.124438 12.299938
12.483125 12.231438
12.859750 12.218813
13.231000 12.250375
13.555687 12.398188
13.858313 12.602438
14.147000 12.821687
14.440750 12.927062
14.145250 13.096500
13.770125 13.086313
13.393500 13.077500
13.017750 13.064875
12.641562 13.052250
12.268437 13.026813
11.897875 13.001750
11.531125 12.970187
11.195250 12.888125
20.563625 12.674312
20.871625 12.448125
21.197563 12.251375
21.535062 12.071500
21.892750 11.936563
22.266750 11.844500
22.650000 11.820125
23.026563 11.862687
23.393563 11.963125
23.720938 12.149125
23.663438 12.394125
23.297375 12.483875
22.920437 12.530000
22.549250 12.593500
22.175000 12.664312
21.806188 12.743562
21.429313 12.783938
21.053313 12.819437
20.673313 12.841688
20.592500 12.651250
12.248938 21.317062
12.637937 20.955375
13.085938 20.667750
13.572500 20.438813
14.083000 20.262563
14.595562 20.151625
15.123313 20.087875
15.660063 20.042313
16.200187 20.042313
16.730000 20.087875
17.265187 20.124312
17.807500 20.115188
18.336312 20.043625
18.872937 20.005938
19.410812 19.969500
19.937625 19.905750
20.479000 19.919000
21.012375 19.978625
21.527938 20.115188
22.005437 20.327125
22.422062 20.653813
22.838062 20.970625
22.940562 21.448875
22.774313 21.952500
22.565250 22.436187
22.264125 22.874312
21.918437 23.274625
21.583687 23.680000
21.214625 24.060375
20.860125 24.451250
20.432562 24.772063
19.927063 24.955125
19.398312 25.022750
18.861125 25.059188
18.317375 25.059188
17.774687 25.068313
17.233062 25.077375
16.696562 25.041000
16.172313 24.949625
15.646187 24.840688
15.135063 24.676687
14.674312 24.407812
14.225312 24.117125
13.820312 23.771563
13.446938 23.394313
13.076625 23.009687
12.709250 22.633187
12.417500 22.214000
12.213625 21.755125
12.248938 21.298813
12.751687 21.525250
13.251563 21.037875
14.007687 20.962937
14.778875 20.991000
15.542375 21.069500
16.299437 21.169125
17.061812 21.243437
17.828312 21.192062
18.585000 21.067937
19.335187 20.944188
20.088438 20.822312
20.853000 20.766063
21.624188 20.737938
22.363750 20.865000
22.462000 21.506187
22.030375 22.125375
21.452125 22.620500
20.835250 23.076687
20.132938 23.391875
19.403750 23.637062
18.644437 23.746562
17.870313 23.746562
17.100062 23.699687
16.332062 23.634125
15.566625 23.560688
14.821063 23.417562
14.169187 23.035375
13.576313 22.556188
12.976437 22.087438
12.779813 21.553375
}
