version: 1
n_points: 120
{
11.106188 13.091938
11.426875 12.817687
11.787812 12.596813
12.163687 12.411250
12.568000 12.290875
12.989875 12.263250
13.411250 12.290875
13.806688 12.422125
14.191250 12.597188
14.562313 12.763500
14.698688 13.042312
14.317687 13.167938
13.901188 13.213812
13.499000 13.316437
13.094250 13.423937
12.675437 13.458000
12.248563 13.458000
11.836937 13.409000
11.454125 13.269375
11.113125 13.119563
20.625500 12.695562
20.955250 12.447500
21.325437 12.257062
21.686375 12.059563
22.061688 11.912688
22.478375 11.885438
22.897750 11.899062
23.292875 11.986437
23.669750 12.151625
24.017750 12.364125
24.064937 12.626625
23.706563 12.826250
23.324625 12.988250
22.922500 13.083562
22.504125 13.097188
22.085812 13.076750
21.672875 13.035937
21.263938 12.993625
20.876375 12.905563
20.611875 12.709125
13.717813 22.865125
13.930438 22.506625
14.130812 22.151750
14.315750 21.789562
14.514062 21.444375
14.774437 21.122312
15.101500 20.868625
15.464500 20.685000
15.867500 20.643375
16.284125 20.674187
16.697563 20.725500
17.095063 20.805125
17.504750 20.829250
17.874312 20.682813
18.243875 20.547625
18.649687 20.564812
19.038500 20.697375
19.426437 20.848375
19.815500 21.003750
20.196562 21.173125
20.567937 21.359063
20.945438 21.535062
21.291500 21.758937
21.600750 22.036000
21.734625 22.381000
21.708875 22.788812
21.552563 23.158812
21.293250 23.480625
20.997875 23.756438
20.700750 24.044937
20.413625 24.340688
20.086938 24.598813
19.726875 24.808875
19.332875 24.942312
18.928937 25.010625
18.519000 25.067125
18.098625 25.071063
17.679688 25.058375
17.266313 25.015000
16.851937 24.974187
16.444625 24.901375
16.037500 24.839312
15.636250 24.744875
15.242563 24.616125
14.862250 24.463062
14.522937 24.236750
14.262313 23.916000
14.035438 23.583313
13.850625 23.229688
13.692063 22.899500
14.333125 22.824375
14.724063 22.536375
15.134813 22.280500
15.505437 22.058125
15.947375 21.866563
16.427625 21.806500
16.922500 21.802750
17.412875 21.839500
17.903000 21.876250
18.393438 21.905625
18.877688 21.954563
19.346812 22.045313
19.799750 22.198750
20.227375 22.427000
20.651625 22.618562
20.748812 22.854750
20.327750 23.061125
19.853063 23.155125
19.368500 23.199250
18.876188 23.213938
18.383937 23.199250
17.892250 23.177187
17.398250 23.169875
16.908938 23.206625
16.420125 23.236000
15.926125 23.243375
15.439500 23.221312
14.953250 23.191875
14.495313 23.111062
14.355125 22.802375
}
