version: 1
n_points: 120
{
11.203375 12.855937
11.509250 12.603500
11.856563 12.408000
12.220937 12.247687
12.607250 12.170813
13.001188 12.191313
13.396812 12.233500
13.778875 12.326000
14.146187 12.467250
14.475687 12.674437
14.458187 12.965687
14.105187 13.117688
13.717187 13.198438
13.331750 13.291750
12.941187 13.350312
12.543563 13.380812
12.143688 13.364187
11.756750 13.301125
11.422625 13.111937
11.170188 12.872500
20.607750 12.624688
20.924688 12.347938
21.278000 12.115687
21.644125 11.948500
22.037500 11.824813
22.450312 11.741312
22.871688 11.741312
23.260125 11.899000
23.649125 12.072625
24.021375 12.268500
24.109687 12.544813
23.732937 12.731375
23.341188 12.889000
22.933250 12.993313
22.510813 13.014188
22.083875 13.014188
21.663563 12.986375
21.250563 12.925250
20.844750 12.840813
20.600812 12.617750
14.032312 22.990188
14.181250 22.633250
14.317000 22.279187
14.532312 21.953875
14.787000 21.654500
15.062437 21.371625
15.339562 21.094500
15.627187 20.829187
15.925187 20.583813
16.289437 20.468750
16.680500 20.442750
17.023438 20.578937
17.415375 20.584250
17.807250 20.554500
18.193188 20.477000
18.561563 20.345500
18.920750 20.395375
19.221812 20.641562
19.511375 20.908875
19.796187 21.179188
20.075375 21.455313
20.356750 21.729250
20.637687 22.004562
20.938625 22.255750
21.203563 22.533938
21.428875 22.829187
21.327437 23.185625
21.076875 23.485625
20.828000 23.784750
20.543813 24.056938
20.233062 24.297750
19.929313 24.541937
19.608812 24.762250
19.262937 24.946188
18.888188 25.053875
18.512187 25.142875
18.119875 25.163312
17.724688 25.172687
17.328937 25.165250
16.932250 25.165250
16.543375 25.113375
16.165563 25.007313
15.795188 24.878875
15.440437 24.706000
15.086187 24.537625
14.792625 24.286812
14.533500 23.996875
14.293875 23.691312
14.103687 23.349000
13.980125 23.012563
15.556812 22.719125
15.801000 22.467188
16.091812 22.289000
16.408500 22.138437
16.738437 22.045375
17.078937 21.970750
17.426437 21.929188
17.778437 21.936937
18.122438 21.983438
18.470500 22.015250
18.813250 22.069813
19.144938 22.167500
19.474625 22.277375
19.768812 22.462500
20.038688 22.652188
20.096750 22.908125
19.792750 23.052375
19.459125 23.145125
19.113437 23.186812
18.764937 23.207062
18.411687 23.207062
18.062062 23.191562
17.711312 23.176063
17.360250 23.162813
17.009563 23.145125
16.657875 23.135250
16.307375 23.121875
15.957812 23.106375
15.680687 22.992562
15.556812 22.726875
}
