version: 1
n_points: 120
{
11.300562 12.796812
11.593625 12.511188
11.925625 12.290938
12.302437 12.145938
12.700500 12.044562
13.111500 12.022125
13.512500 12.089063
13.902000 12.208375
14.280625 12.368813
14.644500 12.543250
14.642125 12.809437
14.268937 12.973688
13.881937 13.085250
13.488938 13.199000
13.092000 13.295875
12.682375 13.318188
12.272750 13.295875
11.871750 13.230500
11.510375 13.072375
11.293125 12.796812
20.753438 12.490937
21.088687 12.247687
21.449125 12.045813
21.822125 11.863375
22.206063 11.717813
22.612375 11.662688
23.023063 11.699188
23.413000 11.832937
23.780125 12.023687
24.126438 12.234125
24.026125 12.498563
23.674625 12.715625
23.288750 12.861750
22.890875 12.966250
22.474937 12.966250
22.072000 12.894562
21.672937 12.806625
21.265937 12.743000
20.858750 12.707000
20.803812 12.476500
14.548125 22.731750
14.721250 22.462375
14.922688 22.220188
15.130500 21.978687
15.353500 21.754125
15.602937 21.557500
15.863875 21.378375
16.124688 21.204187
16.397500 21.053062
16.696500 20.990813
17.012687 21.007875
17.330375 21.024938
17.650125 21.033500
17.969812 21.024938
18.281938 21.042000
18.572750 21.168312
18.834688 21.343187
19.062125 21.562125
19.307437 21.762812
19.549187 21.972375
19.769188 22.200937
19.982750 22.438500
20.129375 22.717125
20.172062 23.025688
20.038937 23.305125
19.871250 23.572250
19.689750 23.832875
19.492250 24.077250
19.281063 24.317438
19.055625 24.535937
18.813125 24.739250
18.556875 24.927250
18.288625 25.094375
18.004938 25.236187
17.699875 25.317563
17.379562 25.326062
17.061875 25.309000
16.756750 25.243000
16.448313 25.175313
16.143250 25.089750
15.840000 24.990562
15.554625 24.847875
15.324438 24.634187
15.137500 24.379812
14.960938 24.117438
14.818938 23.847375
14.716688 23.557375
14.641750 23.260625
14.556688 22.971062
14.556688 22.697625
17.235500 22.669563
17.183812 22.723875
17.132062 22.778125
17.080375 22.832438
17.060437 22.899375
17.060437 22.974375
17.086625 23.038688
17.130688 23.098250
17.183688 23.151250
17.246750 23.187875
17.313250 23.211437
17.388188 23.211437
17.456312 23.194750
17.523500 23.165187
17.582937 23.121063
17.637563 23.074250
17.687188 23.018937
17.740562 22.968312
17.785750 22.914750
17.818625 22.853375
17.802437 22.785500
17.750937 22.735500
17.686563 22.703312
17.620500 22.677875
17.555875 22.652875
17.484375 22.644500
17.409688 22.645375
17.341250 22.661188
17.273312 22.681750
17.227187 22.727875
}
