version: 1
n_points: 120
{
11.316187 12.671812
11.662125 12.418750
12.009187 12.177125
12.387125 11.982250
12.800437 11.901312
13.227937 11.915313
13.645500 11.992375
14.057688 12.096000
14.455125 12.237937
14.809938 12.454688
14.688187 12.765000
14.285000 12.896375
13.877250 13.008062
13.459500 13.071125
13.039375 13.127125
12.619875 13.176187
12.197812 13.197188
11.789813 13.127125
11.434750 12.959000
11.344188 12.636812
20.577500 12.418313
20.919625 12.153250
21.289500 11.925437
21.661062 11.706375
22.065313 11.556188
22.494125 11.476688
22.928937 11.471187
23.338375 11.604688
23.727000 11.799125
24.100062 12.019000
24.196437 12.306688
23.809125 12.497875
23.407875 12.653187
22.998375 12.785375
22.569938 12.840125
22.133563 12.847500
21.710938 12.781562
21.299000 12.677312
20.906375 12.544125
20.599688 12.373938
13.930312 23.496437
14.179500 23.105125
14.436375 22.719812
14.666250 22.324250
14.936687 21.954687
15.204937 21.589500
15.564625 21.309125
15.974438 21.088125
16.402375 20.927375
16.854125 20.863125
17.320500 20.873875
17.781750 20.863125
18.216000 20.748812
18.674563 20.713313
19.129062 20.777500
19.563063 20.918875
19.927000 21.197125
20.272938 21.500312
20.566437 21.847313
20.841062 22.203250
21.107937 22.570812
21.333188 22.967312
21.498375 23.383063
21.605187 23.817125
21.578688 24.277750
21.360625 24.681750
21.157563 25.089688
20.941938 25.497937
20.672563 25.863688
20.410062 26.240375
20.118875 26.597938
19.761375 26.880500
19.346125 27.082625
18.912250 27.251500
18.463062 27.337750
17.999562 27.360750
17.533687 27.348063
17.079500 27.285812
16.626750 27.210875
16.178500 27.118188
15.761938 26.943875
15.422875 26.637500
15.125562 26.286625
14.845125 25.920562
14.575375 25.554500
14.335500 25.175438
14.197938 24.751313
14.090875 24.317250
13.972375 23.891750
13.951750 23.464312
14.937375 23.300438
15.321438 22.916375
15.776938 22.622875
16.249750 22.387812
16.705875 22.176875
17.222313 22.047250
17.769313 22.025625
18.313688 22.058062
18.845938 22.133688
19.347438 22.318562
19.785750 22.639187
20.248875 22.925812
20.680062 23.241813
20.900813 23.624375
20.600750 24.043312
20.229437 24.437687
19.871063 24.846937
19.543563 25.280062
19.130437 25.622375
18.623188 25.795938
18.105125 25.925563
17.558812 25.958000
17.016687 25.901125
16.508563 25.728063
16.033500 25.487687
15.601812 25.164000
15.337125 24.743063
15.164250 24.263125
15.034625 23.759000
14.991375 23.235625
}
