version: 1
n_points: 120
{
11.443125 11.942063
11.737937 11.660937
12.069313 11.418812
12.439813 11.238062
12.841188 11.139812
13.251812 11.098688
13.663187 11.121063
14.056188 11.236125
14.412437 11.427812
14.777500 11.580625
14.794813 11.854250
14.422437 12.027750
14.049812 12.195438
13.654250 12.302250
13.243438 12.337875
12.830687 12.374063
12.413625 12.374063
12.007375 12.316750
11.636875 12.175187
11.470562 11.914625
20.872375 11.536437
21.199813 11.281000
21.556125 11.061250
21.949313 10.908563
22.347125 10.795438
22.765500 10.765812
23.182500 10.801000
23.583375 10.886188
23.937125 11.086562
24.264563 11.332812
24.288375 11.628937
23.902438 11.791562
23.490875 11.874937
23.074500 11.925375
22.651750 11.939750
22.226937 11.939750
21.814875 11.896562
21.407250 11.829062
21.014625 11.700313
20.922750 11.507625
13.478750 22.247312
13.641500 21.613375
14.015438 21.070375
14.277875 20.484437
14.531375 19.922000
15.091875 19.598312
15.714813 19.376375
16.362875 19.243188
17.038062 19.213562
17.716750 19.198750
18.372688 19.158812
19.022375 19.080375
19.691437 19.124750
20.310625 19.346750
20.927187 19.568750
21.545562 19.798875
21.998250 20.230125
22.358000 20.765875
22.575250 21.354688
22.698375 21.988500
22.728000 22.658375
22.624375 23.297625
22.417188 23.887937
22.190938 24.480062
21.997875 25.078875
21.869625 25.713188
21.736438 26.348063
21.572500 26.970437
21.307312 27.558375
20.996562 28.122375
20.660688 28.650688
20.090438 28.877188
19.473000 29.084375
18.843375 29.217562
18.177813 29.276750
17.518375 29.202750
16.874750 29.084375
16.276375 28.863000
15.804750 28.480250
15.344375 28.049437
15.106625 27.463188
14.873875 26.883437
14.603438 26.321938
14.310562 25.828625
14.065437 25.275875
13.907875 24.673625
13.774688 24.046688
13.641500 23.428375
13.456250 22.831625
13.434313 22.188125
13.879750 22.290563
14.308250 21.510313
15.031063 21.011500
15.891000 20.746063
16.777625 20.608438
17.713938 20.562562
18.643000 20.486125
19.595562 20.486125
20.521937 20.562562
21.368312 20.850875
21.981437 21.461750
22.458625 22.180812
22.235375 23.033750
21.946500 23.842500
21.678687 24.684188
21.342625 25.516562
20.866875 26.267875
20.303937 26.983750
19.720063 27.627500
18.870625 27.902812
17.947875 27.994563
17.039500 27.902812
16.294313 27.503625
15.775063 26.846750
15.247625 26.166375
14.878687 25.384563
14.476125 24.661438
14.063250 23.951500
13.833875 23.129812
13.864437 22.229437
}
