version: 1
n_points: 120
{
11.369188 12.247875
11.683563 11.993438
12.017125 11.772750
12.364375 11.588250
12.755562 11.527688
13.158563 11.498875
13.557313 11.526312
13.929063 11.662500
14.273875 11.861187
14.630375 12.003000
14.655750 12.259875
14.309688 12.425875
13.936188 12.535937
13.550375 12.622375
13.159375 12.694375
12.758250 12.716000
12.357500 12.687188
11.993375 12.593563
11.635125 12.456188
11.383563 12.247875
20.850625 11.884438
21.166125 11.659688
21.495625 11.463188
21.859687 11.320000
22.236812 11.228438
22.618562 11.172000
23.005938 11.186063
23.378875 11.277812
23.731250 11.409562
24.060250 11.597062
24.078813 11.901188
23.718812 12.041063
23.355125 12.166500
22.976188 12.237125
22.588250 12.265375
22.196375 12.272438
21.807000 12.260312
21.425438 12.212312
21.088375 12.086875
20.836562 11.898563
12.490125 20.790625
12.891875 20.427000
13.375813 20.176437
13.887250 20.008250
14.411687 19.870625
14.923438 19.677563
15.426187 19.498250
15.941313 19.340375
16.475625 19.271313
17.020312 19.300937
17.564625 19.332187
18.108062 19.370000
18.656063 19.366750
19.199500 19.320625
19.749562 19.330500
20.296437 19.360125
20.844875 19.379812
21.376000 19.467000
21.876812 19.663125
22.363063 19.873125
22.842125 20.106313
23.307188 20.376313
23.352438 20.860937
23.158812 21.339437
23.007375 21.845938
22.735813 22.290312
22.326812 22.644687
21.960313 23.040625
21.565313 23.408000
21.119688 23.714000
20.693062 24.042000
20.235937 24.321562
19.721875 24.467312
19.176750 24.507625
18.625500 24.510063
18.075000 24.519938
17.526563 24.500187
16.974875 24.500187
16.438250 24.441000
15.892938 24.401563
15.369063 24.271375
14.955250 23.925313
14.564125 23.555250
14.163562 23.191125
13.749875 22.846438
13.329062 22.508000
12.930000 22.138188
12.592313 21.731437
12.490125 21.231375
12.529625 20.701875
12.955438 20.835250
13.601812 20.493437
14.380688 20.502688
15.174563 20.474937
15.972500 20.465688
16.769437 20.456500
17.565500 20.474937
18.360437 20.502688
19.158438 20.511875
19.953000 20.484188
20.724937 20.373313
21.505625 20.292500
22.300125 20.285500
22.942250 20.565875
22.810312 21.262875
22.240375 21.786250
21.636875 22.287063
20.998125 22.722562
20.259937 23.007875
19.501375 23.183187
18.717437 23.255750
17.920188 23.263125
17.126625 23.237250
16.342437 23.154125
15.575000 23.034000
14.866687 22.774750
14.206687 22.409813
13.574438 21.982250
13.007812 21.515812
12.937000 20.798313
}
