version: 1
n_points: 120
{
11.357563 12.393375
11.654375 12.134000
12.004938 11.947625
12.367812 11.788375
12.747938 11.720750
13.142312 11.697875
13.525625 11.757062
13.885250 11.899938
14.229250 12.086688
14.566812 12.223187
14.561500 12.482812
14.231000 12.665938
13.846687 12.726375
13.464625 12.807750
13.077813 12.857750
12.680063 12.866938
12.283625 12.852187
11.902938 12.792938
11.578938 12.614750
11.379750 12.408188
20.501188 12.249250
20.855125 12.005125
21.210625 11.771062
21.572375 11.546750
21.947000 11.361688
22.365063 11.276687
22.791125 11.245313
23.199500 11.339562
23.593625 11.505250
23.972500 11.686813
24.042687 11.962750
23.679500 12.166063
23.269063 12.249250
22.845813 12.292687
22.420063 12.327687
21.995500 12.368187
21.574313 12.414000
21.147063 12.445375
20.722562 12.421812
20.524750 12.210062
12.721625 20.940000
13.340375 20.595000
14.122750 20.613187
14.921125 20.613187
15.713812 20.585938
16.505625 20.604125
17.299375 20.632500
18.091500 20.667625
18.875937 20.622250
19.646750 20.531500
20.434313 20.477000
21.196250 20.349937
21.974812 20.286375
22.722938 20.410563
22.798500 20.999562
22.324562 21.577375
21.659250 21.988500
20.972562 22.379500
20.241625 22.657750
19.480812 22.846438
18.702250 22.943938
17.911188 22.991688
17.112813 22.991688
16.332937 22.906375
15.588188 22.700125
14.860687 22.498125
14.125875 22.307938
13.450250 22.020312
12.940625 21.504000
12.748875 20.903688
12.243750 20.804688
12.703188 20.507625
13.194313 20.267750
13.693125 20.040625
14.192312 19.822813
14.708312 19.659813
15.230375 19.507625
15.763500 19.406625
16.308062 19.396375
16.836813 19.491625
17.379188 19.540312
17.922875 19.512250
18.439312 19.346563
18.957563 19.201062
19.500563 19.170188
20.044187 19.211312
20.579875 19.303875
21.115500 19.406625
21.644125 19.546563
22.162562 19.709312
22.667625 19.895000
23.141500 20.147938
23.428187 20.539125
23.334187 21.054437
23.059875 21.512250
22.717125 21.916625
22.349563 22.304063
21.947750 22.655313
21.539437 23.001875
21.114500 23.334250
20.665125 23.635687
20.177563 23.853750
19.665688 24.046312
19.142437 24.166187
18.601125 24.207313
18.050812 24.207313
17.502938 24.197063
16.959937 24.166187
16.426000 24.093688
15.897937 23.983563
15.368813 23.868063
14.865813 23.683438
14.403000 23.395750
13.927312 23.126750
13.471438 22.834250
13.022063 22.528750
12.620313 22.178438
12.344938 21.738563
12.171812 21.260000
12.243750 20.763562
}
