version: 1
n_points: 120
{
11.362250 12.840188
11.659437 12.562938
11.990438 12.330250
12.365750 12.164563
12.759875 12.085750
13.174250 12.082062
13.580813 12.102937
13.967500 12.219625
14.317875 12.415688
14.648813 12.628187
14.591125 12.861062
14.232750 13.046437
13.846312 13.177062
13.444250 13.243625
13.034688 13.278375
12.623938 13.299250
12.221687 13.334000
11.839375 13.243625
11.491875 13.074125
11.390063 12.784562
20.735937 12.630562
21.024750 12.333438
21.379313 12.115125
21.751750 11.925000
22.144437 11.794937
22.552937 11.756875
22.973813 11.749875
23.373750 11.835000
23.755688 11.977063
24.120687 12.156375
24.178563 12.457812
23.824625 12.668938
23.426313 12.779750
23.019000 12.850812
22.602187 12.886313
22.183000 12.900500
21.763375 12.893437
21.348813 12.865000
20.947813 12.800437
20.764375 12.595062
13.914000 22.448375
14.067687 22.059313
14.235062 21.682562
14.450750 21.321625
14.703812 20.986875
14.906875 20.616875
15.146688 20.282500
15.497250 20.059250
15.901188 19.967625
16.322187 19.943250
16.732875 20.014563
17.128187 20.148000
17.536625 20.197375
17.934438 20.093250
18.324500 19.952313
18.740875 19.916000
19.143812 20.026062
19.521937 20.210313
19.889625 20.417375
20.238063 20.658750
20.598000 20.883563
20.920750 21.156250
21.238500 21.431250
21.487875 21.766562
21.676875 22.135562
21.754500 22.533313
21.597938 22.910000
21.324250 23.225188
21.041563 23.536375
20.764000 23.848938
20.450125 24.131563
20.117625 24.377375
19.774188 24.610750
19.389563 24.771187
18.980250 24.869187
18.558937 24.899062
18.134000 24.899062
17.711063 24.880875
17.289938 24.853687
16.873313 24.808500
16.473063 24.681062
16.066375 24.563625
15.680813 24.391750
15.318062 24.177125
14.959188 23.960313
14.658563 23.674000
14.362500 23.377938
14.087500 23.066688
13.845750 22.752312
13.914000 22.412063
14.624187 22.533062
14.953875 22.229813
15.344000 22.003125
15.733875 21.774625
16.149125 21.595000
16.586312 21.490500
17.032438 21.427125
17.486313 21.429313
17.941625 21.438125
18.394750 21.464625
18.845625 21.506750
19.289562 21.588250
19.705562 21.744875
20.111187 21.938875
20.474250 22.202188
20.661687 22.493250
20.317563 22.776812
19.900312 22.945750
19.452250 22.992250
18.995875 22.992250
18.540312 23.001062
18.083938 23.001062
17.628625 22.992250
17.176188 22.965750
16.723375 22.939250
16.270625 22.912750
15.822938 22.864937
15.381312 22.797937
14.953625 22.709688
14.624187 22.559562
}
