version: 1
n_points: 120
{
11.870688 12.996625
12.145875 12.799062
12.419313 12.602937
12.721438 12.456250
13.051562 12.399750
13.394125 12.399750
13.730187 12.441500
14.060937 12.509063
14.381875 12.610750
14.660250 12.789813
14.524500 13.018688
14.201813 13.126875
13.871500 13.205500
13.539687 13.265187
13.200875 13.283125
12.861562 13.301000
12.519000 13.301000
12.180625 13.307000
11.864750 13.225188
11.900562 12.972750
20.903437 12.718687
21.227438 12.483875
21.593062 12.327813
21.975438 12.208813
22.366625 12.135063
22.766125 12.095375
23.166563 12.121625
23.546000 12.246625
23.913812 12.409500
24.277125 12.571125
24.184000 12.720937
23.790813 12.802812
23.397500 12.866312
22.998125 12.903750
22.596750 12.926687
22.194688 12.941875
21.790688 12.946813
21.389813 12.926687
20.994000 12.889812
20.957062 12.698562
14.577312 21.366375
14.710562 21.031875
14.855063 20.708063
15.092313 20.443250
15.336187 20.179437
15.580625 19.916062
15.846375 19.682312
16.110875 19.453875
16.429875 19.306188
16.781125 19.267312
17.132938 19.315812
17.486313 19.354750
17.832937 19.413187
18.184562 19.421813
18.532375 19.361313
18.883125 19.306188
19.239250 19.324250
19.583938 19.407250
19.917625 19.541125
20.208500 19.742812
20.437750 20.016125
20.651688 20.298063
20.877500 20.565687
21.059188 20.869375
21.117438 21.212563
21.053687 21.557750
20.860563 21.858625
20.623188 22.126687
20.367812 22.372812
20.132313 22.633375
19.866063 22.874375
19.575125 23.084563
19.269375 23.265687
18.938125 23.403500
18.603313 23.527188
18.260562 23.611187
17.908750 23.659750
17.549937 23.669500
17.189500 23.669500
16.836500 23.625688
16.492375 23.543187
16.155062 23.433125
15.840438 23.270937
15.545563 23.079750
15.292938 22.836500
15.099438 22.539562
14.870688 22.271000
14.676187 21.981938
14.577312 21.654750
14.577312 21.308062
16.894938 21.330562
17.018250 21.207250
17.151625 21.097875
17.296500 21.005938
17.455188 20.934562
17.619937 20.878438
17.787562 20.838562
17.958063 20.813063
18.132188 20.811125
18.304688 20.819125
18.468812 20.859063
18.628375 20.926625
18.766875 21.028813
18.886312 21.148250
18.956750 21.299187
18.886500 21.448750
18.731437 21.511125
18.563125 21.539313
18.395000 21.571063
18.229063 21.615750
18.060875 21.650188
17.890375 21.674187
17.719188 21.690188
17.544812 21.690188
17.370438 21.690188
17.197063 21.682188
17.029062 21.650188
16.894938 21.578937
16.855438 21.426000
16.950937 21.314563
}
