version: 1
n_points: 120
{
11.380875 13.124937
11.710625 12.958000
12.043688 12.803375
12.388500 12.677875
12.745375 12.600750
13.108625 12.569000
13.475687 12.569000
13.839438 12.608688
14.185438 12.716437
14.471438 12.927500
14.470250 13.172688
14.113375 13.228188
13.745688 13.244063
13.376500 13.252000
13.006250 13.252000
12.638312 13.236125
12.269375 13.228188
11.899188 13.228188
11.533875 13.213375
11.444375 13.117000
21.360750 12.830562
21.687313 12.619250
22.045063 12.462875
22.413187 12.346750
22.800937 12.310000
23.193500 12.302687
23.578688 12.357250
23.959563 12.451813
24.337375 12.558375
24.702687 12.691000
24.604500 12.830562
24.221125 12.885125
23.832687 12.932000
23.442750 12.964000
23.051813 12.987187
22.659500 13.000438
22.265750 13.000438
21.872937 12.994375
21.486937 12.964000
21.391063 12.800187
14.061563 20.662500
14.195125 20.286375
14.385188 19.941063
14.574687 19.587937
14.806250 19.263687
15.044562 18.946250
15.378750 18.759500
15.770375 18.693625
16.168688 18.701812
16.555812 18.767750
16.954750 18.792437
17.354312 18.817187
17.752000 18.841875
18.153625 18.850125
18.552625 18.822187
18.939125 18.726312
19.323625 18.627688
19.714250 18.565188
20.111125 18.537063
20.508250 18.545313
20.891750 18.640500
21.241125 18.835750
21.556125 19.078750
21.795938 19.383375
21.978250 19.730062
22.027687 20.118437
21.945438 20.497500
21.631187 20.720125
21.239313 20.769562
20.845500 20.810750
20.473875 20.914687
20.158000 21.151125
19.824313 21.366563
19.505875 21.602125
19.151250 21.783500
18.772687 21.915000
18.376875 21.947625
17.977625 21.922875
17.575688 21.914625
17.176750 21.889937
16.780562 21.840500
16.386312 21.775000
16.012750 21.636875
15.651500 21.469875
15.335500 21.244438
15.002750 21.063063
14.611437 21.063063
14.268625 21.189688
14.020375 20.964562
14.078000 20.604813
14.647250 21.129375
15.055875 20.876250
15.486562 20.670562
15.935562 20.517750
16.401125 20.437500
16.879938 20.405000
17.361875 20.413125
17.844812 20.413125
18.326937 20.419375
18.808250 20.430000
19.288625 20.445687
19.771563 20.445687
20.249938 20.470063
20.719750 20.543312
21.166875 20.693938
21.072000 20.714250
20.609562 20.630938
20.138562 20.567750
19.655625 20.567750
19.175937 20.551500
18.698750 20.527062
18.221750 20.494500
17.746500 20.461938
17.267375 20.445687
16.790437 20.481063
16.319188 20.543312
15.855000 20.619125
15.427312 20.779375
15.003187 20.975812
14.655437 21.145625
}
