version: 1
n_points: 120
{
11.483250 13.405500
11.809500 13.209625
12.150375 13.043688
12.511500 12.927437
12.886500 12.858688
13.263438 12.804250
13.643313 12.792375
14.011688 12.868438
14.350625 13.035750
14.633938 13.281500
14.653250 13.472062
14.273438 13.494500
13.894063 13.524313
13.513687 13.543313
13.134813 13.577063
12.756250 13.614625
12.374500 13.619375
11.993250 13.609063
11.621000 13.552812
11.521313 13.396000
21.479187 13.043688
21.812188 12.791125
22.191938 12.623812
22.591125 12.526563
23.006187 12.492625
23.425313 12.488750
23.841000 12.525438
24.253250 12.588437
24.644250 12.726938
24.999312 12.943812
24.970250 13.056812
24.556687 13.102750
24.143687 13.159937
23.731375 13.220375
23.318250 13.282687
22.900562 13.306125
22.481313 13.312687
22.066250 13.286437
21.676437 13.185000
21.544812 12.997813
12.989750 21.518937
13.402125 21.258750
13.849813 21.087000
14.305063 20.929938
14.758375 20.762500
15.212375 20.585000
15.663000 20.408062
16.112625 20.252562
16.589125 20.203500
17.076125 20.223125
17.563813 20.242750
18.053812 20.252562
18.541062 20.223125
19.010250 20.123500
19.460938 19.948250
19.917750 19.830500
20.400688 19.879375
20.868375 20.015625
21.320062 20.195625
21.759062 20.405188
22.197875 20.615938
22.603562 20.882000
22.989125 21.171688
23.169500 21.574813
23.035875 22.018750
22.715500 22.375375
22.339125 22.683062
21.950063 22.973938
21.562625 23.263250
21.165437 23.542625
20.793813 23.845500
20.357625 24.053750
19.896187 24.166687
19.409813 24.189000
18.918250 24.189000
18.426625 24.189000
17.935000 24.189000
17.449625 24.159562
16.969062 24.120313
16.487625 24.067875
16.023312 23.943625
15.570187 23.779563
15.124625 23.592500
14.669438 23.433125
14.251500 23.234500
13.857062 22.978750
13.508188 22.653938
13.241062 22.270875
12.992188 21.884563
13.048625 21.460000
13.867750 21.639937
14.446375 21.399438
15.100312 21.476437
15.758000 21.553375
16.427250 21.601500
17.083562 21.697688
17.740625 21.793875
18.410750 21.780125
19.066500 21.651312
19.711063 21.495687
20.344375 21.322500
20.988375 21.180625
21.654250 21.130125
22.317937 21.149375
22.746312 21.560625
22.333437 22.005063
21.726625 22.294062
21.119375 22.563813
20.484000 22.784625
19.825375 22.851937
19.152000 22.832750
18.479813 22.803875
17.809000 22.775000
17.139375 22.736563
16.466250 22.717312
15.790750 22.717312
15.126062 22.678812
14.496562 22.488187
13.938000 22.181500
13.915875 21.620687
}
