version: 1
n_points: 120
{
11.587938 13.498812
11.948562 13.302563
12.309188 13.129250
12.685125 12.974250
13.076750 12.870313
13.485563 12.851562
13.876125 12.923438
14.255062 13.059313
14.606438 13.243125
14.935562 13.426937
14.820688 13.662437
14.466375 13.842438
14.066437 13.906375
13.667813 13.987813
13.263188 14.042250
12.858438 14.087563
12.449312 14.113625
12.070187 13.994312
11.739313 13.794000
11.627937 13.474875
20.985000 13.487000
21.335812 13.228687
21.698062 12.993688
22.064625 12.762063
22.458313 12.575125
22.881438 12.521875
23.311688 12.568188
23.729000 12.677625
24.126562 12.840938
24.457125 13.118688
24.676063 13.341563
24.265937 13.466000
23.855563 13.615750
23.448313 13.771187
23.017688 13.824125
22.579500 13.830687
22.144875 13.797625
21.719375 13.724937
21.312500 13.605937
20.998188 13.467125
13.801937 23.715187
14.062000 23.284188
14.345313 22.886875
14.653250 22.491125
14.941437 22.085938
15.268625 21.712937
15.676000 21.439187
16.162125 21.402000
16.650500 21.470375
17.148937 21.504500
17.636375 21.564375
18.140375 21.562562
18.630312 21.483313
19.035563 21.200937
19.517375 21.117125
19.961813 21.319750
20.372625 21.602812
20.722375 21.952562
21.040187 22.338750
21.311312 22.756438
21.557500 23.186500
21.835438 23.592125
21.938000 24.067500
21.915250 24.567750
21.862375 25.063000
21.747937 25.542500
21.537875 25.984125
21.215438 26.363500
20.853938 26.713625
20.478500 27.043500
20.101500 27.373938
19.658250 27.601250
19.182375 27.753750
18.693562 27.851562
18.189563 27.874375
17.684562 27.885750
17.180563 27.908562
16.674750 27.919937
16.170750 27.897188
15.683687 27.795375
15.217562 27.607937
14.793500 27.344625
14.554000 26.941688
14.474063 26.461000
14.272687 26.020500
14.059750 25.575375
13.959687 25.090438
13.904500 24.594938
13.870313 24.101437
13.870313 23.658188
14.481375 23.675937
14.967438 23.291125
15.497438 23.012313
16.085313 22.823375
16.673375 22.708687
17.287938 22.641188
17.912688 22.618688
18.537375 22.641188
19.129188 22.794375
19.702625 22.979875
20.269437 23.201438
20.796500 23.532438
21.303875 23.862625
21.769500 24.232437
21.386937 24.677063
20.975500 25.133500
20.483500 25.511125
19.952188 25.827375
19.380063 26.054500
18.784000 26.217750
18.165813 26.262750
17.538438 26.274000
16.909250 26.274000
16.299625 26.187750
15.728563 25.992188
15.196312 25.726063
14.763875 25.330562
14.560813 24.790063
14.470187 24.198438
14.503875 23.653437
}
