version: 1
n_points: 120
{
11.539625 13.567250
11.826313 13.305813
12.162688 13.109687
12.528688 12.983000
12.913063 12.927062
13.303500 12.908437
13.686750 12.957000
14.065750 13.041875
14.392312 13.248062
14.726125 13.440875
14.665188 13.698625
14.290688 13.778562
13.909562 13.853188
13.534437 13.954812
13.155938 14.056125
12.768375 14.095562
12.383750 14.049625
12.006125 13.962125
11.671875 13.770125
11.570688 13.542375
20.766063 13.531937
21.113000 13.255937
21.495313 13.030125
21.890875 12.830500
22.308250 12.677938
22.748188 12.619563
23.194625 12.619563
23.628000 12.714813
24.051063 12.856563
24.438437 13.071750
24.385000 13.339313
23.972875 13.507312
23.544438 13.627812
23.107500 13.699687
22.663937 13.739937
22.218688 13.764188
21.772562 13.780188
21.326375 13.766750
20.891437 13.712063
20.766063 13.478312
13.964438 23.606250
14.180625 23.270312
14.405688 22.940188
14.618000 22.600062
14.855562 22.280125
15.114937 21.979250
15.390438 21.696813
15.717063 21.480750
16.094375 21.358313
16.499063 21.337625
16.885313 21.420500
17.284188 21.472250
17.689750 21.482625
18.077000 21.410125
18.433125 21.229250
18.817125 21.130437
19.223500 21.140812
19.614937 21.220813
19.969250 21.413500
20.287938 21.657125
20.572250 21.937125
20.870062 22.210250
21.144562 22.500187
21.402125 22.808125
21.589875 23.142312
21.702750 23.516313
21.583125 23.886875
21.293750 24.160312
20.967875 24.392937
20.662000 24.657375
20.360437 24.927813
20.026375 25.152625
19.676250 25.353063
19.326687 25.555062
18.969500 25.734313
18.591625 25.854187
18.190687 25.895625
17.782688 25.895625
17.379250 25.873062
16.981500 25.813625
16.581500 25.769437
16.201062 25.656938
15.839438 25.477812
15.487312 25.284500
15.147500 25.069000
14.838500 24.822187
14.583312 24.512500
14.371063 24.188938
14.122938 23.878688
13.995563 23.554500
15.196250 23.484000
15.523813 23.244312
15.875750 23.048375
16.251938 22.904250
16.621562 22.796750
17.013500 22.721125
17.413563 22.667625
17.820312 22.660875
18.221812 22.699813
18.625000 22.724812
19.027000 22.764813
19.421688 22.831750
19.806375 22.943000
20.159000 23.124437
20.455562 23.357187
20.263562 23.631438
19.907062 23.818313
19.526125 23.940250
19.131125 24.003438
18.732250 24.051375
18.326313 24.059375
17.918500 24.059375
17.510625 24.059375
17.102812 24.059375
16.696313 24.048813
16.293688 24.006125
15.892250 23.971500
15.501687 23.916438
15.172250 23.772188
15.236187 23.484000
}
