version: 1
n_points: 120
{
11.774125 13.893812
12.060500 13.718125
12.376750 13.599813
12.705312 13.520563
13.038312 13.474125
13.374438 13.451750
13.712125 13.456875
14.036375 13.538562
14.349187 13.664563
14.639375 13.832500
14.605125 14.015438
14.267437 14.025937
13.930188 14.041187
13.592063 14.051312
13.253937 14.061500
12.914188 14.061500
12.574438 14.061500
12.236375 14.051312
11.902750 14.025937
11.784250 13.888750
21.236438 13.643375
21.588875 13.423187
21.983687 13.291125
22.388500 13.191562
22.800875 13.147000
23.208938 13.214813
23.620000 13.274250
24.028188 13.358125
24.431875 13.458813
24.815687 13.611562
24.726875 13.729250
24.315375 13.783375
23.900437 13.815188
23.481625 13.815188
23.062750 13.815188
22.643937 13.815188
22.225125 13.815188
21.806250 13.815188
21.389750 13.827875
21.249125 13.643375
14.215312 22.452250
14.308875 22.070375
14.447812 21.708375
14.575313 21.335250
14.717500 20.974875
14.898938 20.633312
15.145750 20.331688
15.444625 20.115250
15.833562 20.059562
16.226813 20.059562
16.585938 20.170875
16.974937 20.217250
17.372062 20.226500
17.770688 20.226500
18.169313 20.226500
18.564875 20.207937
18.956625 20.161000
19.339063 20.066562
19.720813 19.976125
20.106938 19.920500
20.486313 19.990938
20.800812 20.227500
21.066000 20.508500
21.152188 20.888500
21.217125 21.275188
21.272750 21.661375
21.317750 22.050750
21.280625 22.427250
21.028375 22.711938
20.640187 22.749000
20.275437 22.846750
19.943500 23.039562
19.660812 23.313063
19.381937 23.591875
19.115375 23.877000
18.838375 24.149438
18.508000 24.358625
18.137750 24.464688
17.743500 24.464688
17.346375 24.455437
16.954500 24.418312
16.575312 24.318500
16.222313 24.174437
15.882938 23.980750
15.581500 23.728562
15.342000 23.421312
15.080312 23.124938
14.784125 22.871125
14.460375 22.678812
14.206062 22.470813
14.701813 22.684562
15.091875 22.504000
15.495000 22.378062
15.907312 22.296375
16.323000 22.219375
16.740875 22.124875
17.160937 22.070687
17.587062 22.097812
18.015937 22.115813
18.448438 22.115938
18.877625 22.142937
19.304188 22.181500
19.713313 22.296813
20.122937 22.404688
20.513250 22.522063
20.445625 22.540125
20.030875 22.464875
19.618625 22.367562
19.213938 22.233187
18.809750 22.111625
18.403250 22.025813
17.980313 21.989438
17.551375 21.986438
17.131187 22.038563
16.721563 22.108000
16.329875 22.233187
15.927750 22.341500
15.522312 22.441750
15.122375 22.560000
14.737937 22.648438
}
