version: 1
n_points: 120
{
11.647000 13.966375
11.947250 13.719375
12.285063 13.529438
12.654563 13.412625
13.032813 13.333687
13.423500 13.313750
13.808375 13.364562
14.186875 13.454875
14.539438 13.617875
14.830187 13.866375
14.819937 14.106188
14.439750 14.172812
14.050000 14.195375
13.661312 14.226062
13.270563 14.246063
12.877125 14.246063
12.484813 14.252688
12.096063 14.220375
11.722062 14.154625
11.700250 13.913063
21.069938 13.887313
21.378688 13.650750
21.705687 13.444125
22.050438 13.267687
22.422000 13.149125
22.808125 13.104938
23.197625 13.123000
23.582062 13.180813
23.959375 13.285687
24.308187 13.436500
24.320687 13.703312
23.946188 13.803187
23.564375 13.892625
23.180312 13.959563
22.793250 13.995625
22.401000 13.995625
22.010250 14.011000
21.623562 14.043812
21.235688 14.067875
21.100000 13.863250
14.306500 22.787625
14.421625 22.421187
14.551813 22.061250
14.672375 21.701937
14.823688 21.353813
15.041937 21.044687
15.303437 20.768875
15.598562 20.545687
15.965375 20.464000
16.334750 20.409562
16.717000 20.382313
17.105687 20.382313
17.494375 20.382313
17.881937 20.373250
18.270688 20.373250
18.655313 20.400500
19.042500 20.409562
19.426875 20.427750
19.809188 20.454937
20.186875 20.500312
20.553563 20.592312
20.833437 20.846125
21.092375 21.119750
21.268250 21.450750
21.395312 21.798125
21.512687 22.151000
21.528500 22.530313
21.286125 22.814875
20.924125 22.896563
20.553625 22.972500
20.227375 23.156875
19.954625 23.418000
19.710938 23.707000
19.487625 24.014625
19.242062 24.305500
18.942000 24.496625
18.580750 24.602937
18.200625 24.639250
17.811937 24.639250
17.431875 24.599937
17.066375 24.498875
16.706688 24.376062
16.361500 24.216375
16.035750 24.017625
15.729625 23.789687
15.419875 23.574250
15.143750 23.325312
14.859562 23.073250
14.568812 22.832125
14.379125 22.687812
14.865562 22.992812
15.258563 22.827687
15.665750 22.714437
16.074125 22.622812
16.486375 22.533687
16.903000 22.460250
17.325000 22.421375
17.749750 22.399687
18.175187 22.382313
18.599438 22.409000
19.020688 22.460438
19.436812 22.542000
19.849187 22.645125
20.263125 22.733062
20.662063 22.831187
20.517563 22.804250
20.113063 22.703187
19.698125 22.634500
19.281813 22.558563
18.865063 22.481063
18.448062 22.418187
18.032937 22.355375
17.608812 22.350375
17.193062 22.405500
16.784125 22.483750
16.378125 22.570812
15.973937 22.660625
15.568500 22.749000
15.186000 22.894000
14.883500 23.037688
}
