version: 1
n_points: 120
{
11.802625 14.244938
12.097812 14.014062
12.428375 13.838750
12.770750 13.684688
13.132000 13.605625
13.506187 13.592313
13.882312 13.604000
14.248500 13.666187
14.606750 13.762313
14.948688 13.891937
14.776438 14.099875
14.437750 14.238250
14.074188 14.318188
13.704562 14.370125
13.335313 14.417750
12.966250 14.458000
12.593000 14.478000
12.216062 14.484687
11.858438 14.451375
11.849250 14.218250
21.125375 13.908563
21.447125 13.693875
21.811312 13.562625
22.186438 13.473562
22.574000 13.454937
22.959312 13.484750
23.341875 13.526563
23.728875 13.550437
24.107312 13.620812
24.463500 13.753375
24.286313 13.956312
23.910750 14.029938
23.526000 14.071312
23.141875 14.111500
22.756312 14.147312
22.367188 14.159250
21.977500 14.165188
21.588250 14.171188
21.208188 14.129000
21.197000 13.854812
13.538125 22.802187
13.978813 22.784875
14.360375 22.588875
14.751437 22.392000
15.149375 22.204375
15.538750 22.005813
15.946500 21.836625
16.368375 21.760875
16.801687 21.804250
17.231000 21.884000
17.660812 21.960438
18.100250 21.977812
18.470063 21.809938
18.862437 21.669250
19.295500 21.682750
19.721438 21.776312
20.135750 21.912125
20.534375 22.097062
20.915000 22.308000
21.304938 22.511625
21.676938 22.736687
22.073500 22.913250
22.488500 22.993125
22.473562 23.195375
22.171875 23.514375
21.892375 23.844750
21.579125 24.136375
21.257625 24.422438
20.898563 24.666187
20.537625 24.914313
20.157125 25.131438
19.753438 25.308688
19.358500 25.502188
18.954125 25.674187
18.532000 25.778688
18.097438 25.822063
17.658000 25.804750
17.230250 25.735312
16.805937 25.648500
16.383813 25.561750
15.975125 25.430875
15.571250 25.254938
15.192125 25.043688
14.851938 24.778125
14.537937 24.478313
14.240500 24.163625
14.024062 23.793500
13.831312 23.416500
13.577563 23.079875
13.572812 22.750125
15.514250 23.351000
15.855562 23.238437
16.212875 23.222375
16.575375 23.222375
16.935938 23.230375
17.298437 23.230375
17.651062 23.198250
18.006438 23.174125
18.367062 23.166062
18.727625 23.174125
19.087563 23.190188
19.445875 23.214312
19.807063 23.222375
20.159063 23.254500
20.274188 23.479813
19.981500 23.666313
19.657062 23.785187
19.311438 23.849500
18.959250 23.905812
18.602000 23.938000
18.244375 23.970125
17.884500 23.986250
17.523937 23.994250
17.167125 23.970125
16.814187 23.924563
16.469750 23.857563
16.131250 23.780125
15.797500 23.688688
15.487438 23.581500
15.530313 23.334937
}
