version: 1
n_points: 120
{
11.432125 13.666562
11.735062 13.406937
12.080187 13.207375
12.442187 13.043250
12.828750 12.956938
13.232563 12.963688
13.629875 13.013750
14.012562 13.142188
14.337625 13.368937
14.684938 13.540375
14.626250 13.840438
14.284875 14.004437
13.889250 14.045000
13.497000 14.112625
13.099875 14.160438
12.695438 14.166688
12.297125 14.126062
11.911563 14.031375
11.544313 13.889563
11.459125 13.612500
20.815375 13.644813
21.146875 13.396000
21.494125 13.171437
21.858125 12.973875
22.246813 12.829625
22.648125 12.733688
23.062562 12.733688
23.466250 12.815125
23.849937 12.971125
24.205125 13.181313
24.208125 13.380500
23.830313 13.545813
23.448313 13.703812
23.045437 13.798687
22.634937 13.839562
22.221187 13.821312
21.806875 13.803750
21.392625 13.787375
20.982750 13.756375
20.850125 13.610062
12.484438 21.953187
12.997875 21.822875
13.509500 21.698750
14.020812 21.623375
14.518812 21.491500
15.013500 21.339437
15.522312 21.227687
16.048063 21.199437
16.572625 21.239937
17.093375 21.303563
17.613750 21.360813
18.142688 21.378438
18.641875 21.255938
19.107563 21.029812
19.619000 20.945000
20.141938 20.996188
20.646187 21.149938
21.151688 21.305875
21.666500 21.430375
22.178750 21.566562
22.677375 21.726250
23.134563 21.906063
23.036875 22.358500
22.797563 22.827750
22.583125 23.305375
22.280000 23.731000
21.953563 24.138875
21.615313 24.539000
21.228750 24.887687
20.803250 25.189937
20.355250 25.456375
19.874813 25.679938
19.364812 25.797313
18.845312 25.872688
18.312812 25.872688
17.784125 25.853813
17.251625 25.853813
16.733000 25.781375
16.225062 25.656000
15.718500 25.506375
15.251375 25.268125
14.831812 24.950625
14.393313 24.664750
13.995812 24.323750
13.659625 23.936000
13.346375 23.531125
13.006438 23.144063
12.676438 22.738688
12.409062 22.312438
12.484438 21.877813
13.514437 22.406000
13.913500 22.113063
14.611875 22.273438
15.333125 22.368125
16.054000 22.462875
16.786438 22.481813
17.519063 22.500750
18.247312 22.462875
18.959563 22.332812
19.680250 22.226063
20.403437 22.140812
21.125812 22.055563
21.849312 21.970375
22.572688 21.911625
22.600000 22.343875
22.137937 22.892250
21.560375 23.338812
20.949813 23.725375
20.287312 24.032500
19.598562 24.280125
18.882812 24.442688
18.157937 24.537063
17.429000 24.499188
16.706187 24.413937
15.992375 24.247312
15.299250 24.008750
14.642250 23.694312
14.022750 23.316312
13.496750 22.870125
13.486062 22.188188
}
