version: 1
n_points: 120
{
11.339250 13.540375
11.633188 13.292500
11.985062 13.127562
12.349875 12.990813
12.720875 12.885375
13.110375 12.889250
13.499438 12.908750
13.875438 12.988563
14.217000 13.168938
14.545687 13.379000
14.641875 13.636750
14.283750 13.781313
13.918625 13.901312
13.538750 13.957562
13.153313 13.996187
12.763687 14.009187
12.373625 14.002250
11.999875 13.918062
11.654750 13.750250
11.352250 13.559938
20.771000 13.491375
21.120687 13.257687
21.428375 12.979062
21.775125 12.748313
22.159938 12.585000
22.573062 12.534187
22.993375 12.561938
23.399812 12.663562
23.791000 12.813125
24.131875 13.052500
24.169125 13.344750
23.810688 13.548750
23.402562 13.621937
22.982750 13.650937
22.560000 13.665437
22.136125 13.669625
21.713875 13.687188
21.290250 13.694437
20.870062 13.671437
20.858000 13.433375
12.459062 21.957125
12.884688 21.672875
13.321312 21.483875
13.757563 21.301437
14.232375 21.171375
14.737438 21.108875
15.254500 21.099937
15.768875 21.126750
16.280313 21.186187
16.795437 21.224937
17.307500 21.278500
17.823937 21.305312
18.343187 21.296375
18.837062 21.171375
19.335250 21.073187
19.842750 20.997438
20.353000 20.992812
20.841562 21.108875
21.332000 21.237313
21.828563 21.351063
22.327250 21.458125
22.807063 21.591000
23.173375 21.830687
23.059438 22.325688
22.877750 22.808375
22.603000 23.240687
22.243250 23.610500
21.873625 23.971125
21.547875 24.363625
21.131500 24.656625
20.664125 24.874000
20.201375 25.099375
19.716125 25.269625
19.206875 25.341062
18.688688 25.341062
18.167938 25.341062
17.648688 25.332125
17.131250 25.305312
16.616375 25.257625
16.114125 25.133813
15.641312 24.927688
15.190750 24.679813
14.771875 24.385938
14.349375 24.105062
13.936563 23.800687
13.523375 23.499375
13.106625 23.202875
12.711375 22.879062
12.533125 22.426687
12.512625 21.939250
13.168188 22.246188
13.621313 21.888063
14.348250 21.982312
15.067875 22.123687
15.780125 22.289188
16.519687 22.340438
17.262375 22.302750
18.002188 22.255625
18.738875 22.189688
19.477438 22.123687
20.210438 22.038875
20.942688 21.954000
21.663750 21.858687
22.402875 21.803187
22.621063 22.247875
22.151375 22.792500
21.558187 23.221062
20.887687 23.537437
20.193000 23.790500
19.487063 23.992687
18.758375 24.118437
18.022000 24.197250
17.283000 24.140687
16.554688 24.024313
15.844875 23.848500
15.145062 23.649313
14.439187 23.423875
13.756562 23.136187
13.177625 22.708063
13.205937 22.086000
}
