version: 1
n_points: 120
{
11.334125 12.807500
11.636125 12.532813
11.980125 12.319812
12.351562 12.138125
12.735938 12.041375
13.148375 12.018125
13.553688 12.077500
13.935625 12.224937
14.287750 12.438313
14.660500 12.583750
14.632875 12.877562
14.286000 13.049875
13.875937 13.087312
13.474875 13.177500
13.076562 13.281250
12.669313 13.342063
12.259375 13.316750
11.865813 13.211500
11.501563 13.018625
11.346562 12.770188
20.762000 12.644438
21.081688 12.360500
21.432250 12.122500
21.809562 11.926125
22.209500 11.783375
22.633375 11.725375
23.044563 11.826750
23.452313 11.960187
23.831063 12.152313
24.190875 12.379812
24.246500 12.635125
23.890500 12.854688
23.473562 12.919500
23.050062 12.963062
22.622563 12.993313
22.191312 12.993313
21.761187 12.986625
21.330000 12.986625
20.919062 12.929000
20.768750 12.604188
12.676063 21.274938
13.139188 21.091375
13.602313 20.913812
14.057250 20.715563
14.488812 20.480313
14.942750 20.305563
15.424500 20.196250
15.922750 20.186500
16.422563 20.186500
16.912875 20.244812
17.397687 20.328625
17.888313 20.380875
18.380750 20.335438
18.854500 20.209937
19.330437 20.089375
19.827938 20.099062
20.314563 20.180125
20.781688 20.351937
21.255375 20.504375
21.740687 20.623125
22.220312 20.750187
22.653750 20.928625
23.085438 21.129188
22.987687 21.564563
22.713375 21.966188
22.433750 22.372125
22.149062 22.773438
21.783438 23.109875
21.410312 23.428500
21.012875 23.715250
20.570062 23.936625
20.115437 24.133500
19.640250 24.278938
19.152500 24.355500
18.654250 24.345750
18.158188 24.316625
17.664562 24.269125
17.175187 24.200000
16.700375 24.079062
16.225812 23.961188
15.745375 23.859375
15.272813 23.718062
14.804187 23.563437
14.358500 23.345250
13.917875 23.119937
13.473313 22.898000
13.100938 22.580625
12.831563 22.194813
12.734375 21.723188
12.695500 21.245750
13.420500 21.709563
13.467562 21.260813
14.136563 21.398187
14.829313 21.434812
15.532500 21.444000
16.233563 21.425687
16.931125 21.379875
17.625438 21.315750
18.320687 21.270000
19.018625 21.232563
19.720437 21.215000
20.414000 21.169250
21.102062 21.078813
21.797687 21.031875
22.471625 21.080375
22.273812 21.638188
21.707313 22.030875
21.119688 22.399438
20.510500 22.716313
19.840812 22.893937
19.153437 23.000937
18.466188 23.083313
17.767312 23.074188
17.078500 23.006438
16.388125 22.900188
15.700437 22.793187
15.018125 22.680375
14.365125 22.461000
13.732750 22.186250
13.383812 21.672937
}
