version: 1
n_points: 120
{
11.351812 13.026563
11.657250 12.746875
12.013500 12.534187
12.389688 12.352438
12.789938 12.250937
13.207125 12.222437
13.620875 12.257687
14.017062 12.387562
14.380000 12.591188
14.726938 12.779687
14.641813 13.045000
14.299750 13.266438
13.912812 13.386313
13.507375 13.456875
13.096438 13.506250
12.682813 13.534500
12.265875 13.520375
11.868125 13.456875
11.517938 13.266438
11.380062 13.005437
20.696875 12.814187
21.003500 12.522438
21.341062 12.268625
21.721312 12.083187
22.126562 11.965250
22.547812 11.927750
22.970938 11.965000
23.381438 12.076750
23.775437 12.233187
24.108500 12.494000
24.110500 12.779625
23.720813 12.955813
23.317312 13.097750
22.901125 13.174375
22.477875 13.216375
22.048813 13.223875
21.622125 13.201500
21.201875 13.144875
20.798313 13.034750
20.734125 12.791813
13.979500 22.980313
14.168188 22.645312
14.383250 22.322000
14.591313 21.994187
14.807500 21.672187
15.000875 21.336375
15.261062 21.054063
15.569937 20.821437
15.893250 20.606500
16.264875 20.519750
16.653063 20.528250
17.027625 20.581312
17.409063 20.621562
17.798625 20.604625
18.172625 20.526563
18.535438 20.417938
18.916125 20.472375
19.278813 20.601063
19.596062 20.824938
19.921750 21.042125
20.225625 21.284813
20.522500 21.538563
20.798000 21.797750
21.066688 22.083437
21.325625 22.366250
21.533250 22.677312
21.455063 23.039125
21.268625 23.368938
21.032375 23.677125
20.775625 23.973125
20.512000 24.253312
20.176250 24.449000
19.830250 24.632375
19.455437 24.745125
19.079375 24.829937
18.693750 24.880875
18.302250 24.897813
17.908687 24.897813
17.518187 24.872563
17.127375 24.844125
16.743375 24.779062
16.364000 24.702875
15.984937 24.633000
15.619063 24.496938
15.252937 24.355062
14.921375 24.155438
14.648938 23.878875
14.388063 23.602250
14.152313 23.300062
13.996500 22.980313
15.613062 22.695250
15.865562 22.485875
16.136750 22.308187
16.433000 22.160062
16.740687 22.053750
17.061062 21.988500
17.394625 21.978687
17.729937 21.970063
18.065875 21.961437
18.403250 21.961437
18.736500 21.978687
19.054313 22.044625
19.353063 22.160000
19.628500 22.337625
19.893937 22.530313
19.988250 22.791750
19.714000 22.954000
19.392437 23.023812
19.059812 23.049187
18.722438 23.049187
18.385063 23.049187
18.049125 23.040563
17.714250 23.023250
17.380688 22.999562
17.046500 22.980125
16.710563 22.971500
16.373188 22.971500
16.039250 22.954187
15.713125 22.919687
15.630313 22.686563
}
