version: 1
n_points: 120
{
11.212000 12.996875
11.491875 12.683250
11.845750 12.459000
12.227250 12.279625
12.618562 12.160250
13.042625 12.168125
13.448875 12.256562
13.850750 12.376812
14.230000 12.560313
14.559437 12.816187
14.530125 13.090000
14.168875 13.297750
13.766562 13.410813
13.361500 13.502000
12.944500 13.557250
12.524875 13.588812
12.102688 13.573000
11.711250 13.464562
11.349625 13.268625
11.243562 12.981063
20.496063 12.879938
20.891250 12.641063
21.257375 12.368688
21.656562 12.154312
22.066938 11.952938
22.507875 11.824438
22.957250 11.857375
23.390125 12.010063
23.798437 12.215813
24.203187 12.433063
24.253563 12.774000
23.850625 12.990438
23.435562 13.179813
22.996437 13.284812
22.541625 13.337312
22.083625 13.329812
21.628750 13.284812
21.180187 13.195438
20.764000 13.052375
20.548562 12.827438
14.634813 22.782625
14.765438 22.486250
14.938812 22.218062
15.153000 21.978000
15.370812 21.739375
15.595937 21.508125
15.823875 21.281000
16.057063 21.056500
16.308688 20.857000
16.600625 20.731875
16.921813 20.716313
17.242438 20.740500
17.562250 20.773187
17.878750 20.828125
18.188938 20.911313
18.499063 21.000187
18.791062 21.132250
19.055937 21.308062
19.289250 21.529438
19.514625 21.758750
19.724250 22.003062
19.896062 22.270063
20.000250 22.572250
20.023312 22.887062
19.948187 23.197187
19.852687 23.500750
19.726875 23.791750
19.548063 24.059625
19.355250 24.318812
19.134438 24.551375
18.918000 24.788062
18.698313 25.022063
18.423813 25.190062
18.129062 25.320062
17.813938 25.387250
17.490813 25.395750
17.178563 25.339437
16.865313 25.285688
16.548188 25.237875
16.248188 25.130375
15.962000 24.984188
15.671375 24.847188
15.387313 24.699938
15.170063 24.481250
15.009688 24.208000
14.877812 23.919875
14.730313 23.642813
14.671688 23.333938
14.660875 23.012313
14.704250 22.704500
17.203563 22.824500
17.263375 22.786000
17.323250 22.747563
17.383063 22.709125
17.442875 22.670625
17.503812 22.640250
17.569125 22.622375
17.638813 22.616500
17.708813 22.611750
17.779937 22.611750
17.839063 22.640750
17.890062 22.689250
17.890062 22.760375
17.863375 22.822125
17.819938 22.875250
17.769625 22.925563
17.720938 22.974250
17.667875 23.017875
17.610625 23.055563
17.555937 23.095188
17.498500 23.114563
17.427375 23.114563
17.362500 23.099438
17.300875 23.076500
17.251687 23.037188
17.213250 22.993188
17.193375 22.930312
17.198000 22.868688
17.251125 22.825250
17.300250 22.785812
}
