version: 1
n_points: 120
{
11.155250 12.916562
11.503500 12.673562
11.867938 12.461500
12.256000 12.282813
12.668812 12.242188
13.066000 12.305625
13.467375 12.387250
13.874625 12.481563
14.273563 12.597625
14.629312 12.793938
14.476500 13.119500
14.087312 13.278313
13.679875 13.387562
13.265688 13.477250
12.847437 13.540188
12.431250 13.605438
12.005750 13.605438
11.620250 13.483125
11.304375 13.215938
11.206000 12.873062
20.415312 12.841250
20.781750 12.571438
21.183375 12.360625
21.575437 12.130437
21.991813 11.948875
22.430000 11.849000
22.887937 11.851875
23.326062 11.977937
23.737125 12.168000
24.081813 12.456875
24.098437 12.764437
23.690750 12.974937
23.262687 13.137438
22.815687 13.225062
22.357625 13.240813
21.898625 13.230375
21.446063 13.180875
20.996750 13.134250
20.564250 13.035562
20.475250 12.794625
13.118813 21.997312
13.463375 21.716000
13.857313 21.502250
14.239562 21.275562
14.654563 21.108062
15.088000 20.990687
15.528000 20.922750
15.979500 20.922313
16.422187 20.986750
16.868000 21.028188
17.314688 21.058688
17.764563 21.068938
18.213812 21.052625
18.664125 21.044500
19.114062 21.033938
19.562625 21.011937
20.012875 21.003750
20.462438 21.017500
20.899438 21.093375
21.319750 21.235937
21.666500 21.513625
21.941938 21.857688
22.194938 22.225250
22.233687 22.661000
21.976562 23.027375
21.683438 23.365250
21.393313 23.707062
21.098562 24.042500
20.738437 24.312062
20.349812 24.538438
19.939438 24.717188
19.510562 24.851937
19.070812 24.947187
18.626125 25.010500
18.177813 25.043063
17.729625 25.010500
17.281938 24.969750
16.839375 24.898812
16.403188 24.793250
15.968813 24.674500
15.542625 24.533313
15.127125 24.362625
14.714625 24.183812
14.312437 23.982063
13.930312 23.751750
13.573438 23.486187
13.272875 23.161250
13.072437 22.767875
13.021062 22.333687
13.167625 21.948438
13.791187 22.276750
14.175250 21.953813
14.791500 21.993188
15.415500 22.001062
16.035875 22.035688
16.658875 22.043500
17.283562 22.040437
17.906000 22.064062
18.530938 22.064062
19.155938 22.064062
19.777687 22.040437
20.396687 21.993188
21.017500 21.961688
21.633625 21.914437
21.880875 22.103188
21.451937 22.541500
20.912875 22.851375
20.345813 23.103188
19.767375 23.328875
19.170687 23.499250
18.554750 23.576375
17.930750 23.584250
17.305750 23.584250
16.685000 23.552750
16.070000 23.481875
15.459125 23.387375
14.877812 23.186312
14.318938 22.920000
13.779375 22.619375
13.799125 22.174312
}
