version: 1
n_points: 120
{
11.094312 12.988062
11.398500 12.670500
11.762187 12.419813
12.160125 12.220000
12.577875 12.082750
13.013938 12.098750
13.437437 12.235812
13.860375 12.373625
14.277500 12.524375
14.607375 12.806563
14.538063 13.162375
14.132375 13.339438
13.706000 13.471375
13.274062 13.569125
12.835250 13.630313
12.391875 13.654813
11.948125 13.635625
11.526438 13.513000
11.135125 13.314312
11.118750 12.933000
20.512500 12.962813
20.888437 12.687625
21.273875 12.427812
21.666062 12.178125
22.083437 11.975875
22.524188 11.829062
22.986438 11.822313
23.428187 11.951875
23.811312 12.201875
24.203063 12.447000
24.192062 12.762750
23.768500 12.955375
23.345875 13.145437
22.898438 13.270000
22.441000 13.339438
21.975562 13.343188
21.513875 13.305000
21.051250 13.263188
20.593125 13.204375
20.525875 12.936000
12.338563 21.475750
12.857688 21.380750
13.367625 21.306812
13.817813 21.190687
14.298125 21.068000
14.798438 20.916250
15.307125 20.804313
15.817000 20.715688
16.337812 20.673437
16.862875 20.694562
17.382750 20.747312
17.906063 20.779000
18.423437 20.736812
18.925187 20.610437
19.444625 20.557312
19.972812 20.565750
20.500688 20.578937
21.024375 20.620687
21.544563 20.684000
22.054688 20.791625
22.537938 20.996312
23.020375 21.211125
23.100500 21.634875
22.905625 22.109437
22.676750 22.573937
22.373250 22.994375
22.003250 23.359875
21.606375 23.698313
21.198125 24.017187
20.743312 24.276125
20.286313 24.526875
19.819562 24.767063
19.329500 24.948812
18.809562 25.001625
18.283750 24.980500
17.754562 24.980500
17.228063 24.963500
16.713625 24.866688
16.205938 24.758813
15.706375 24.621562
15.213875 24.452687
14.731500 24.271500
14.273000 24.021125
13.839063 23.752938
13.417875 23.451062
13.040688 23.091125
12.722125 22.682688
12.437375 22.260687
12.301250 21.798063
12.475812 21.370188
13.245125 22.026937
13.605562 21.620812
14.299375 21.755688
15.020188 21.797875
15.739187 21.859562
16.461688 21.903562
17.184812 21.938813
17.911812 21.935938
18.633500 21.886000
19.349812 21.791625
20.064062 21.689500
20.774938 21.577562
21.483062 21.457375
22.203750 21.410187
22.631312 21.637062
22.157750 22.163438
21.666563 22.689187
21.069500 23.090187
20.430812 23.420562
19.737875 23.604187
19.019875 23.665875
18.294500 23.648250
17.570312 23.621813
16.846937 23.595375
16.124375 23.560125
15.408062 23.513750
14.732812 23.382500
14.110875 23.060125
13.586125 22.570625
13.227500 22.018125
}
