version: 1
n_points: 120
{
11.011375 13.035937
11.323125 12.695625
11.684875 12.406750
12.100312 12.208063
12.543188 12.083625
13.002313 12.076187
13.439063 12.205000
13.852562 12.405875
14.210625 12.693563
14.624063 12.896500
14.745000 13.223375
14.331062 13.408062
13.894750 13.528750
13.451937 13.642000
13.000063 13.710750
12.537437 13.729563
12.078875 13.688250
11.656812 13.546375
11.293812 13.300812
11.026375 13.028438
20.618188 13.022875
20.963562 12.715500
21.341687 12.450750
21.717312 12.186125
22.135063 11.994687
22.581125 11.876062
23.037000 11.869563
23.465750 12.029563
23.877500 12.238875
24.280938 12.459125
24.364000 12.828188
23.955687 13.033812
23.537188 13.228938
23.109313 13.395812
22.655250 13.458000
22.191125 13.464875
21.731813 13.423875
21.283438 13.319875
20.845188 13.209375
20.673437 12.974562
12.284937 21.536938
12.810875 21.476937
13.322375 21.399438
13.826125 21.267375
14.318375 21.076250
14.793188 20.848500
15.308687 20.782688
15.834188 20.817000
16.359938 20.859813
16.882188 20.926625
17.399438 21.014125
17.923500 21.056938
18.443500 20.996938
18.935688 20.842688
19.454062 20.774125
19.982312 20.757000
20.503937 20.816813
21.013375 20.954937
21.517312 21.115188
22.028063 21.259125
22.528813 21.399812
23.030500 21.519000
23.147500 21.847750
22.905000 22.307063
22.657187 22.768375
22.337125 23.184062
21.995438 23.585812
21.617625 23.954687
21.202875 24.275500
20.800563 24.616500
20.361375 24.911313
19.900125 25.158188
19.388562 25.274438
18.864062 25.316750
18.334375 25.308187
17.803375 25.308187
17.272375 25.308187
16.743250 25.291000
16.220437 25.222438
15.713062 25.082313
15.227000 24.882313
14.773188 24.621437
14.341500 24.322063
13.925437 23.999125
13.517938 23.664625
13.170563 23.273875
12.828250 22.880000
12.490500 22.488063
12.284937 22.026937
12.267750 21.545500
13.126563 22.225687
13.441187 21.723437
14.133563 21.906063
14.862875 22.031938
15.607250 22.061312
16.356000 22.061312
17.100812 22.033938
17.848437 22.024812
18.592688 21.997375
19.331937 21.923125
20.064750 21.803812
20.797000 21.671000
21.531625 21.568188
22.277375 21.549937
22.661562 21.840625
22.288250 22.457937
21.804875 23.007812
21.172750 23.384812
20.459813 23.555688
19.739500 23.747125
19.003062 23.837312
18.265125 23.920250
17.522250 23.969812
16.777625 23.942438
16.034938 23.890375
15.301937 23.751188
14.578062 23.580063
13.936563 23.215125
13.345250 22.791375
13.108313 22.161750
}
