version: 1
n_points: 120
{
10.886750 13.087063
11.232188 12.758500
11.611562 12.476938
12.022187 12.249125
12.474250 12.117250
12.949500 12.096250
13.403875 12.210875
13.802938 12.465125
14.196250 12.727438
14.592063 12.984687
14.581062 13.221562
14.141625 13.405125
13.710375 13.594812
13.254625 13.711688
12.787750 13.782687
12.314125 13.815875
11.837938 13.807688
11.457750 13.597812
11.058375 13.357000
10.919500 13.029750
20.457250 12.998375
20.777000 12.678625
21.150000 12.418437
21.527938 12.166937
21.957062 12.011313
22.402188 11.910312
22.852500 11.848562
23.284250 11.965563
23.668063 12.205375
24.034125 12.473062
24.280812 12.772125
23.907812 13.028562
23.486812 13.205375
23.053187 13.346312
22.605000 13.414563
22.149500 13.386313
21.700437 13.337813
21.258750 13.253750
20.820187 13.167625
20.478375 12.977187
13.712000 23.355625
13.894625 22.999437
14.095313 22.658500
14.318437 22.328813
14.579375 22.024250
14.834687 21.715812
15.102438 21.418250
15.421437 21.179688
15.793313 21.025750
16.183312 20.950750
16.583125 20.958562
16.970188 21.038375
17.367313 21.054938
17.753812 20.959437
18.126188 20.822187
18.519437 20.768438
18.912938 20.838125
19.269750 21.021062
19.605687 21.240875
19.931375 21.478313
20.238312 21.738250
20.528312 22.019562
20.799187 22.316437
21.066063 22.615063
21.312250 22.928563
21.430312 23.305875
21.349375 23.691063
21.100250 24.002500
20.778437 24.244563
20.449500 24.478313
20.124188 24.713812
19.792687 24.941188
19.438312 25.128062
19.061750 25.265125
18.680875 25.390875
18.283250 25.448000
17.881187 25.465375
17.476688 25.465375
17.073250 25.456688
16.671563 25.439000
16.277938 25.369875
15.891687 25.268750
15.516875 25.120625
15.202813 24.887375
14.930875 24.602313
14.631125 24.335500
14.341375 24.055937
14.031437 23.805250
13.720125 23.563437
13.729375 23.277500
15.614313 23.143500
15.836562 22.925687
16.106188 22.773812
16.391750 22.648250
16.687375 22.554625
16.988187 22.489250
17.296250 22.460750
17.608125 22.452250
17.920687 22.460750
18.232437 22.474375
18.541000 22.503438
18.846625 22.551063
19.147750 22.614375
19.438562 22.725812
19.664437 22.918063
19.601937 23.180750
19.314500 23.280000
19.015875 23.355125
18.711188 23.408375
18.404125 23.450688
18.094375 23.476312
17.784625 23.498188
17.473688 23.519000
17.161125 23.527500
16.849312 23.510437
16.540875 23.476312
16.234500 23.433625
15.941250 23.365375
15.657000 23.286125
15.639938 23.117875
}
