version: 1
n_points: 120
{
10.968937 13.103563
11.241625 12.730250
11.607375 12.445000
12.029063 12.249000
12.481125 12.129250
12.944313 12.103813
13.384750 12.259688
13.784562 12.491687
14.165313 12.757062
14.570312 12.979688
14.579875 13.270500
14.180000 13.505625
13.735812 13.647125
13.278250 13.747687
12.816937 13.802938
12.353938 13.848250
11.887063 13.833187
11.454688 13.676063
11.092500 13.398250
10.989062 13.038187
20.193250 12.962375
20.648750 12.754125
21.055688 12.482563
21.460375 12.198500
21.914062 11.991563
22.390875 11.864875
22.890187 11.840938
23.360750 11.980937
23.802250 12.210562
24.194562 12.495688
24.119438 12.921375
23.674813 13.129250
23.209312 13.313875
22.726125 13.439187
22.222875 13.439187
21.732813 13.378375
21.250187 13.271375
20.758437 13.200750
20.267250 13.138938
20.237437 12.935875
14.368625 23.657625
14.569250 23.362813
14.775750 23.078937
15.009125 22.809812
15.251687 22.548375
15.478500 22.274500
15.705312 22.000625
15.915625 21.714875
16.157375 21.463687
16.471688 21.330437
16.806625 21.405812
17.156063 21.434062
17.507250 21.396375
17.857250 21.342125
18.208625 21.292750
18.546000 21.365125
18.818687 21.586250
19.087688 21.809625
19.346062 22.058625
19.602937 22.306062
19.823687 22.582937
20.034312 22.869312
20.242938 23.155625
20.448125 23.443313
20.468438 23.781875
20.331187 24.101937
20.157625 24.403375
19.932875 24.679250
19.683875 24.937687
19.441625 25.198812
19.202625 25.456000
18.931062 25.678687
18.671312 25.922000
18.383000 26.126188
18.045125 26.229125
17.694625 26.286313
17.338250 26.305187
16.980313 26.314625
16.624500 26.287688
16.275125 26.234063
15.934188 26.154438
15.607062 26.038750
15.344000 25.810750
15.178875 25.508437
15.065125 25.182562
14.892375 24.878563
14.696000 24.582062
14.564000 24.253250
14.483375 23.913750
14.406313 23.601063
16.861875 23.556438
16.948375 23.523750
17.034813 23.491000
17.121312 23.458313
17.209375 23.434188
17.301813 23.434188
17.394250 23.434188
17.484687 23.442937
17.571437 23.460375
17.661250 23.471563
17.743750 23.493000
17.796125 23.538187
17.813562 23.623438
17.804875 23.712250
17.781125 23.796000
17.724750 23.863563
17.650938 23.917188
17.567187 23.950312
17.482688 23.983875
17.395563 24.000688
17.303500 24.001750
17.216750 23.984250
17.137187 23.949375
17.064250 23.898500
16.992875 23.851000
16.947937 23.782250
16.896812 23.710938
16.870625 23.639563
16.878250 23.557500
16.931750 23.512812
}
