version: 1
n_points: 120
{
10.943000 13.168437
11.264750 12.859438
11.604062 12.568687
11.979437 12.330875
12.408437 12.200625
12.851187 12.156688
13.271437 12.267750
13.651250 12.497750
14.029125 12.737750
14.415688 12.954437
14.455625 13.251188
14.075250 13.468750
13.653562 13.618250
13.224125 13.743625
12.787125 13.841750
12.341875 13.874813
11.894187 13.869500
11.488812 13.727000
11.152375 13.460562
10.974813 13.143000
20.590312 12.951688
20.893438 12.628375
21.248938 12.360312
21.639437 12.143500
22.054250 11.984813
22.494750 11.934313
22.936625 11.974438
23.369812 12.071500
23.772625 12.255500
24.097313 12.547812
24.132000 12.912375
23.758437 13.149437
23.342437 13.302500
22.914125 13.432875
22.472938 13.494312
22.027250 13.500500
21.586875 13.445000
21.149250 13.377187
20.730500 13.252250
20.596500 12.939375
13.856250 24.381500
14.016687 23.947688
14.251625 23.545500
14.523375 23.171500
14.788875 22.793688
15.111250 22.460000
15.421563 22.120750
15.779250 21.837187
16.216750 21.704250
16.678125 21.749437
17.146687 21.760687
17.615250 21.749437
18.066063 21.683500
18.531500 21.659063
18.960250 21.821875
19.335438 22.077813
19.609188 22.452813
19.921000 22.798500
20.207500 23.166812
20.475250 23.543437
20.713875 23.942250
20.860063 24.378187
20.911438 24.834437
20.907125 25.302063
20.837438 25.758688
20.687250 26.198875
20.512250 26.633500
20.338938 27.061625
20.120562 27.475812
19.895625 27.884687
19.603562 28.236125
19.209312 28.483000
18.794563 28.699875
18.365625 28.882562
17.913187 28.989937
17.453688 28.933937
16.998375 28.843563
16.551500 28.714000
16.121562 28.530313
15.713563 28.306000
15.344000 28.026875
15.038750 27.678187
14.789250 27.293500
14.605813 26.867062
14.389188 26.452687
14.177750 26.034938
13.946625 25.631500
13.811063 25.205188
13.799750 24.744812
13.856250 24.302375
14.869625 24.503062
15.050000 24.026750
15.406937 23.662688
15.820125 23.368063
16.301625 23.183563
16.796937 23.070812
17.315625 23.047875
17.836875 23.060188
18.327500 23.183563
18.812438 23.343875
19.282250 23.565062
19.722313 23.840187
20.093375 24.177312
20.209500 24.655500
20.014688 25.104875
19.719438 25.520250
19.444250 25.959625
19.165750 26.393250
18.860000 26.799563
18.402938 26.997250
17.921063 27.114875
17.413438 27.179188
16.926500 27.068188
16.481125 26.846250
16.104187 26.537938
15.754188 26.164625
15.508125 25.733625
15.227250 25.317062
14.992938 24.900000
14.894250 24.441437
}
