version: 1
n_points: 120
{
10.975500 12.960313
11.293125 12.640812
11.636250 12.362750
12.031375 12.156125
12.448937 12.021125
12.897375 12.013188
13.339562 12.064562
13.760063 12.207375
14.129125 12.449563
14.461813 12.745000
14.479625 13.087063
14.092937 13.284000
13.666688 13.405000
13.234375 13.517563
12.799500 13.599625
12.362687 13.662750
11.916562 13.670687
11.513438 13.536500
11.170813 13.281937
11.007062 12.936625
20.402313 12.827813
20.736563 12.500438
21.092188 12.195250
21.482563 11.938937
21.926375 11.781812
22.381187 11.670938
22.849625 11.654625
23.293688 11.797688
23.725812 11.980063
24.099937 12.252625
24.324938 12.637688
23.958750 12.910750
23.529750 13.097500
23.078625 13.199500
22.610813 13.235250
22.140313 13.221438
21.675125 13.186938
21.223625 13.090250
20.779875 12.965938
20.388500 12.820937
13.383938 24.623875
13.383938 24.029750
13.469812 23.457313
13.641438 22.905125
13.983688 22.450563
14.378500 22.019687
14.810688 21.652125
15.381813 21.548188
15.969500 21.591125
16.545562 21.677000
17.119937 21.748500
17.717750 21.748500
18.315562 21.748500
18.893250 21.777125
19.436125 21.934438
19.979187 22.170687
20.483687 22.473000
20.925500 22.852563
21.242375 23.345813
21.530313 23.850125
21.777250 24.362375
21.824188 24.943250
21.838500 25.535187
21.765000 26.115625
21.595312 26.660625
21.466562 27.220437
21.355250 27.779250
21.159813 28.313063
20.865313 28.815812
20.600188 29.324188
20.224875 29.756688
19.746188 30.083313
19.192438 30.274562
18.623375 30.374688
18.041625 30.431938
17.447187 30.446250
16.856125 30.417625
16.327687 30.231625
15.797500 30.012937
15.342375 29.658000
15.035625 29.179562
14.737687 28.695687
14.498188 28.184313
14.233000 27.676000
14.070625 27.153813
13.956188 26.590625
13.746937 26.065125
13.510188 25.548687
13.369625 24.996813
13.412562 24.437938
13.767188 24.540125
13.873875 23.765687
14.413438 23.250937
15.171062 23.076812
15.995062 23.076812
16.806500 23.005813
17.628250 22.991563
18.436500 23.062625
19.216000 23.229813
19.999938 23.408625
20.740562 23.665312
21.337688 24.140625
21.680375 24.769313
21.438875 25.505938
21.241000 26.258125
20.984250 26.998562
20.637250 27.691875
20.105187 28.288937
19.495500 28.813375
18.757125 29.086312
17.962250 29.214188
17.162562 29.200000
16.407438 28.972687
15.782438 28.501750
15.241188 27.914313
14.804250 27.261437
14.392250 26.597938
14.139500 25.892750
13.866625 25.174187
13.795563 24.454875
}
