version: 1
n_points: 120
{
10.905062 13.289375
11.223187 12.977937
11.576313 12.705500
11.954688 12.472750
12.380562 12.343438
12.814500 12.405250
13.249937 12.494438
13.673125 12.635500
14.067063 12.843563
14.443812 13.077938
14.430375 13.440500
14.048625 13.659313
13.625438 13.780250
13.187188 13.859625
12.749313 13.924687
12.310500 13.980375
11.873250 13.926750
11.441375 13.828188
11.044063 13.629625
10.931875 13.262562
20.334375 13.156812
20.701062 12.854313
21.099937 12.599063
21.501000 12.345875
21.948313 12.188500
22.415312 12.114000
22.891875 12.107812
23.345813 12.234250
23.780438 12.421750
24.141875 12.712312
24.150688 13.117062
23.738437 13.350500
23.283438 13.481188
22.821250 13.588875
22.347812 13.641000
21.868562 13.633563
21.394562 13.603750
20.935625 13.484562
20.478125 13.380313
20.386563 13.112125
12.461063 22.316875
12.843188 21.982063
13.291688 21.740500
13.768812 21.549688
14.259625 21.407625
14.760750 21.300875
15.266125 21.218187
15.776938 21.213938
16.257188 21.330938
16.762250 21.388687
17.275688 21.417063
17.791000 21.398125
18.288688 21.277250
18.767563 21.095750
19.269500 21.028750
19.772687 21.099750
20.270000 21.219750
20.752562 21.399500
21.225625 21.597062
21.695937 21.802375
22.144063 22.048625
22.568562 22.290187
22.564563 22.773750
22.363688 23.234687
22.197312 23.699938
21.993375 24.169000
21.678000 24.570250
21.339688 24.951187
20.960812 25.296250
20.507250 25.535812
20.042375 25.753812
19.569750 25.955188
19.074875 26.091750
18.566938 26.153750
18.051813 26.171625
17.535312 26.162188
17.023063 26.116375
16.516063 26.045813
16.022687 25.900250
15.531125 25.758563
15.061250 25.558563
14.599937 25.334500
14.140125 25.107500
13.729437 24.807437
13.344437 24.471937
12.965438 24.146000
12.660687 23.738312
12.489437 23.262125
12.426813 22.759875
12.480000 22.288438
13.141250 22.797812
13.296812 22.253750
14.000687 22.230250
14.717562 22.316813
15.442687 22.365875
16.173313 22.385500
16.905062 22.405125
17.639625 22.405125
18.374125 22.405125
19.103250 22.371312
19.816688 22.248000
20.540375 22.199000
21.267813 22.159750
22.000062 22.169563
22.284750 22.612375
21.964375 23.233563
21.462937 23.752688
20.837187 24.110000
20.152313 24.362500
19.457250 24.589625
18.739062 24.702188
18.014375 24.780750
17.286687 24.735875
16.560063 24.682562
15.839875 24.594250
15.125312 24.456813
14.442750 24.200187
13.842000 23.802813
13.295312 23.341500
13.092187 22.719250
}
