version: 1
n_points: 120
{
11.035875 13.317687
11.287625 12.980375
11.619563 12.718875
12.004625 12.548625
12.413063 12.423687
12.836063 12.386812
13.240063 12.492625
13.603188 12.709437
13.955063 12.943188
14.320375 13.156063
14.491312 13.393812
14.121000 13.599063
13.718937 13.734875
13.306250 13.840938
12.890250 13.917188
12.469312 13.961688
12.043188 13.966750
11.638875 13.853125
11.283750 13.641000
11.040938 13.327750
20.441188 13.258313
20.781813 12.958312
21.165500 12.716437
21.542063 12.468188
21.957500 12.288813
22.396687 12.173438
22.847250 12.156313
23.275625 12.295000
23.685625 12.490687
24.080750 12.708687
24.169812 12.998563
23.828312 13.289687
23.413688 13.472000
22.975188 13.575750
22.524500 13.620500
22.071000 13.625000
21.623125 13.575812
21.175438 13.525562
20.744937 13.438562
20.472250 13.227250
12.288625 22.071375
12.792312 21.977625
13.280062 21.837750
13.750250 21.659188
14.202563 21.433375
14.664250 21.216250
15.140375 21.068562
15.650562 21.049813
16.153437 21.113500
16.651500 21.226375
17.151875 21.312250
17.660187 21.311500
18.158375 21.218500
18.636625 21.070625
19.119062 20.928000
19.605313 21.029688
20.094562 21.168250
20.586063 21.319562
21.075500 21.463938
21.564125 21.602750
22.055812 21.731375
22.539062 21.846438
22.888313 22.059062
22.749312 22.527438
22.491625 22.967875
22.178000 23.362750
21.896750 23.773375
21.543125 24.121625
21.124063 24.407312
20.681188 24.655687
20.240687 24.908750
19.770750 25.103625
19.281375 25.248438
18.784875 25.351562
18.276250 25.379687
17.763188 25.389063
17.251125 25.368750
16.746125 25.314062
16.246437 25.239062
15.752562 25.124813
15.266375 24.976688
14.803375 24.764187
14.381750 24.486375
13.985125 24.180125
13.593375 23.859000
13.216250 23.533000
12.840687 23.203688
12.548125 22.796563
12.287750 22.389187
12.363563 22.015125
13.127812 22.384750
13.587563 22.045125
14.291500 22.164125
15.008938 22.214938
15.723875 22.291375
16.444188 22.345625
17.168437 22.367750
17.893313 22.350812
18.613688 22.308312
19.331813 22.234750
20.052375 22.181000
20.765563 22.087563
21.484938 22.036625
22.204500 22.019625
22.288438 22.361375
21.724875 22.796500
21.186250 23.264750
20.548063 23.588125
19.908812 23.910500
19.219000 24.122438
18.508625 24.235750
17.784063 24.252750
17.064000 24.193313
16.353437 24.074437
15.646062 23.930125
14.937812 23.794250
14.237562 23.620750
13.580063 23.329438
13.051438 22.874250
13.127812 22.265875
}
