version: 1
n_points: 120
{
11.060813 13.330562
11.347188 12.998000
11.695688 12.732250
12.090312 12.542687
12.496000 12.403250
12.932125 12.376375
13.339375 12.534500
13.729688 12.741188
14.083438 12.995000
14.441750 13.233250
14.390000 13.541250
14.017687 13.737500
13.599125 13.839625
13.178688 13.941562
12.760563 14.023188
12.321813 14.046250
11.881625 14.023188
11.484188 13.900187
11.152812 13.676562
11.091563 13.299812
20.476562 13.184938
20.846750 12.905125
21.213188 12.626563
21.617750 12.398687
22.042500 12.217750
22.489937 12.120750
22.948750 12.167438
23.400875 12.259813
23.815375 12.461750
24.173750 12.750562
24.102625 13.113062
23.719500 13.368375
23.291125 13.532687
22.845813 13.645250
22.387187 13.692687
21.922750 13.671812
21.464750 13.621000
21.012750 13.553562
20.578750 13.437687
20.497375 13.150125
13.541125 23.307688
13.654438 22.867562
13.825625 22.448313
14.025688 22.038187
14.270938 21.657812
14.607938 21.354250
14.994438 21.119000
15.433063 21.024500
15.871375 21.094625
16.309938 21.204750
16.726312 21.344938
17.176188 21.395000
17.633125 21.415063
18.087625 21.384937
18.505938 21.220813
18.922125 21.064563
19.366875 21.114625
19.792750 21.266313
20.175062 21.509937
20.538688 21.783438
20.857312 22.112063
21.147750 22.462625
21.427563 22.818062
21.709625 23.174688
21.944750 23.550000
21.949125 23.992313
21.737250 24.384375
21.474250 24.747563
21.191813 25.089938
20.879313 25.421563
20.527938 25.699562
20.123750 25.906750
19.698313 26.062188
19.249063 26.111563
18.792125 26.131563
18.331937 26.131563
17.871750 26.131563
17.414062 26.120750
16.960250 26.081500
16.510125 26.019687
16.069000 25.911250
15.631375 25.780188
15.203375 25.617500
14.810438 25.389312
14.441750 25.129625
14.086063 24.854000
13.761375 24.539313
13.561188 24.151375
13.521125 23.707750
13.541125 23.267625
14.310813 23.495812
14.664375 23.109687
15.084312 22.795687
15.550875 22.550687
16.063437 22.445875
16.589938 22.486563
17.118063 22.524250
17.651062 22.535375
18.180750 22.559812
18.711625 22.584250
19.221312 22.687250
19.717000 22.865875
20.210563 23.043437
20.704875 23.202813
21.188562 23.354312
20.924563 23.702875
20.529062 24.041250
20.040375 24.244625
19.542437 24.416250
19.024250 24.497000
18.491312 24.488813
17.963687 24.448125
17.440500 24.391188
16.911438 24.366750
16.385687 24.334187
15.879687 24.236500
15.365063 24.163250
14.860062 24.073750
14.379188 23.922375
14.335187 23.479563
}
