version: 1
n_points: 120
{
20.421688 13.250875
20.764563 12.948125
21.134937 12.674938
21.536062 12.448937
21.954812 12.248500
22.395500 12.101500
22.854063 12.104812
23.291563 12.238563
23.715438 12.426625
24.109375 12.659437
24.318125 13.007375
23.932750 13.253187
23.517187 13.456563
23.073000 13.582750
22.611625 13.620938
22.147188 13.603000
21.691063 13.543313
21.231750 13.507500
20.792813 13.391625
20.451563 13.232938
11.042625 13.249937
11.365875 12.919500
11.725812 12.645437
12.109687 12.448813
12.535625 12.355813
12.992125 12.348688
13.407063 12.502937
13.804375 12.728125
14.201500 12.944625
14.598750 13.165250
14.605562 13.435500
14.192250 13.621875
13.752750 13.755625
13.314125 13.877313
12.864375 13.943750
12.413063 13.993813
11.953625 13.979500
11.521313 13.871937
11.171062 13.614375
11.071250 13.228500
14.460250 23.531063
14.692562 23.302688
14.892000 23.048687
15.116125 22.815438
15.337375 22.586500
15.591625 22.383312
15.869500 22.223312
16.153813 22.080188
16.429813 21.924250
16.701187 21.768062
16.992687 21.670125
17.300375 21.600687
17.621125 21.574063
17.946188 21.565625
18.259563 21.626375
18.560688 21.748625
18.825875 21.932875
19.072312 22.133937
19.313688 22.344750
19.518563 22.594562
19.682250 22.874625
19.826375 23.162375
19.980500 23.448812
20.086625 23.751188
20.140062 24.068125
20.056500 24.358875
19.831500 24.587563
19.598063 24.812562
19.361187 25.036750
19.106437 25.236125
18.843438 25.423750
18.583625 25.616063
18.316125 25.799563
18.024188 25.941437
17.714813 26.034000
17.401375 26.110375
17.078375 26.137563
16.754062 26.120687
16.438437 26.061625
16.133813 25.985688
15.855625 25.845875
15.601375 25.667500
15.359750 25.464938
15.173500 25.205875
15.053000 24.916687
14.921688 24.630938
14.791625 24.343187
14.659437 24.050687
14.553062 23.757188
14.502437 23.480438
16.827750 23.555812
16.922438 23.524250
17.017063 23.492750
17.111687 23.461188
17.206187 23.429125
17.300062 23.411562
17.399812 23.411562
17.498687 23.417125
17.596250 23.430750
17.693562 23.447625
17.787562 23.474937
17.880500 23.505063
17.934000 23.564688
17.927688 23.655000
17.859063 23.726937
17.774438 23.775063
17.681188 23.802437
17.586063 23.825187
17.493437 23.848250
17.399562 23.873250
17.303812 23.882875
17.204062 23.882875
17.104250 23.882875
17.007188 23.871562
16.913563 23.853250
16.845375 23.804250
16.808500 23.719750
16.798938 23.624000
16.816875 23.536562
16.904688 23.507750
}
