version: 1
n_points: 120
{
11.121750 13.250000
11.391625 12.911563
11.749500 12.668750
12.159187 12.516312
12.591250 12.447750
13.030875 12.428187
13.445375 12.516312
13.860000 12.663375
14.229437 12.894187
14.592500 13.127750
14.499313 13.450250
14.128562 13.683625
13.708625 13.807063
13.285500 13.888687
12.852562 13.950375
12.414500 13.990500
11.988375 13.913000
11.571750 13.783563
11.204250 13.565563
11.169750 13.215687
20.550625 13.113312
20.913625 12.822500
21.276250 12.532063
21.663062 12.278875
22.103125 12.139625
22.561000 12.073625
23.023125 12.083250
23.470938 12.195063
23.882625 12.408812
24.252125 12.681125
24.289875 12.956000
23.902562 13.209938
23.496562 13.432562
23.059188 13.582750
22.598437 13.625063
22.131688 13.620688
21.669937 13.585688
21.217938 13.499750
20.780062 13.369000
20.550625 13.093625
14.654750 23.835938
14.836813 23.554063
15.014625 23.274375
15.240000 23.028375
15.456437 22.773875
15.682438 22.527313
15.909625 22.291062
16.188500 22.111000
16.496063 21.985875
16.815625 21.939312
17.147313 21.965688
17.471375 22.027125
17.802437 22.053500
18.118063 21.965688
18.437687 21.904187
18.756187 21.986438
19.060063 22.124938
19.346875 22.300937
19.632500 22.477563
19.904625 22.667188
20.162625 22.881250
20.391437 23.121813
20.602687 23.377500
20.787063 23.655000
20.889000 23.961000
20.760375 24.254375
20.515375 24.481750
20.273812 24.714562
20.034500 24.945125
19.778500 25.161625
19.503438 25.351500
19.223188 25.528938
18.921250 25.671375
18.609000 25.793250
18.298813 25.919812
17.977750 26.021000
17.647063 26.057437
17.313875 26.039875
16.984938 26.004750
16.650500 25.987188
16.318750 25.960875
16.000438 25.887313
15.717250 25.715000
15.496562 25.476750
15.322125 25.210187
15.128937 24.941938
14.998563 24.646438
14.883313 24.345750
14.758437 24.052000
14.672313 23.765687
16.488937 23.547687
16.643812 23.481313
16.798375 23.414188
16.961688 23.386500
17.126062 23.360813
17.290813 23.335625
17.455562 23.310125
17.620750 23.293187
17.789250 23.293187
17.956437 23.284688
18.125000 23.284688
18.291563 23.276187
18.439375 23.326125
18.516750 23.452687
18.470750 23.602187
18.338375 23.700500
18.195125 23.776062
18.046813 23.839500
17.891938 23.887125
17.731375 23.921063
17.566875 23.938000
17.402313 23.955000
17.233750 23.955000
17.065250 23.955000
16.902188 23.938000
16.749063 23.898375
16.606687 23.826687
16.474875 23.734375
16.421063 23.621750
16.531312 23.513750
}
