version: 1
n_points: 120
{
11.358250 12.641625
11.627688 12.360375
11.992125 12.172437
12.377125 12.008625
12.777688 11.914875
13.204375 11.891438
13.638813 11.891438
14.048312 11.977375
14.420250 12.146812
14.780750 12.348500
14.865063 12.610312
14.485375 12.738625
14.074063 12.821312
13.661312 12.883875
13.268250 12.962000
12.862687 13.024500
12.440750 13.055750
12.012750 13.040125
11.696000 12.830937
11.373875 12.641625
20.887187 12.294000
21.218000 12.084938
21.525750 11.831250
21.849750 11.608688
22.199500 11.448688
22.609562 11.428437
23.028000 11.428437
23.407312 11.556875
23.773688 11.698562
24.105438 11.914563
24.306625 12.201750
23.991688 12.402188
23.626062 12.544125
23.241250 12.645687
22.822750 12.645687
22.404312 12.645687
21.993063 12.625375
21.599563 12.551000
21.209000 12.487375
20.887187 12.294000
13.624875 23.715000
13.838875 23.281312
13.976750 22.770000
14.178937 22.288187
14.537125 21.915937
14.983937 21.631750
15.469687 21.401563
15.966938 21.195375
16.433000 21.005375
16.948812 20.857563
17.476688 20.787188
18.031063 20.773125
18.591250 20.773125
19.151500 20.773125
19.709563 20.782062
20.128062 21.096937
20.515438 21.466500
20.884750 21.850313
21.156250 22.308812
21.469875 22.734313
21.733000 23.194875
21.929688 23.702687
21.986000 24.244563
21.929688 24.789000
21.718563 25.277875
21.549688 25.746188
21.355062 26.215688
21.207313 26.703625
20.950437 27.167625
20.596125 27.540063
20.225188 27.882188
19.880437 28.233375
19.412437 28.472687
18.904625 28.585313
18.352500 28.613437
17.792313 28.613437
17.232063 28.613437
16.671875 28.613437
16.187000 28.444625
15.797812 28.187562
15.415563 27.870438
15.058625 27.473312
14.752437 27.080687
14.469437 26.663187
14.276687 26.210750
14.187875 25.682312
14.012375 25.214500
13.805625 24.735813
13.681188 24.229563
13.610812 23.715000
14.490750 23.804750
14.620688 23.153000
15.084750 22.761250
15.740500 22.550062
16.347125 22.314000
16.974250 22.152500
17.620313 21.978562
18.313375 21.928875
18.992250 22.049500
19.627375 22.289125
20.240313 22.562438
20.783625 22.975875
21.273125 23.394813
21.326687 24.080625
21.037688 24.692438
20.672500 25.201062
20.405438 25.791062
20.105937 26.362625
19.699687 26.860813
19.076313 27.096875
18.441875 27.269562
17.734938 27.308062
17.053750 27.200063
16.480375 26.898063
15.932688 26.562687
15.410063 26.142875
15.062188 25.632188
14.801312 25.060500
14.652250 24.423813
14.478312 23.792313
}
