version: 1
n_points: 120
{
11.449813 12.134813
11.684688 11.824687
11.989500 11.599375
12.353125 11.450812
12.724937 11.335313
13.117750 11.324813
13.511125 11.343063
13.883125 11.440500
14.243375 11.572437
14.572625 11.779000
14.758250 12.040062
14.450750 12.269625
14.077188 12.366250
13.695625 12.437812
13.305188 12.471438
12.915375 12.503000
12.520750 12.508250
12.145687 12.439875
11.789500 12.307625
11.449813 12.129563
21.093312 11.691375
21.368375 11.438562
21.701375 11.242125
22.047687 11.072313
22.422313 10.993875
22.816125 10.993875
23.197000 11.048813
23.552563 11.178625
23.913563 11.305375
24.229063 11.500687
24.312812 11.783312
23.982312 11.969938
23.628625 12.118562
23.254625 12.202375
22.863750 12.211500
22.469938 12.211500
22.077500 12.205625
21.726375 12.085562
21.396875 11.892312
21.093312 11.709062
13.503438 23.121750
13.534313 22.473437
13.724937 21.912875
14.031437 21.356063
14.361937 20.843875
14.840438 20.437188
15.407750 20.221187
16.025000 20.066875
16.649687 19.958938
17.317312 19.943500
17.941875 20.066875
18.602500 20.074750
19.194312 19.897188
19.858062 19.912625
20.419187 20.196687
20.996125 20.477875
21.460000 20.895437
21.826687 21.408250
22.112562 21.950813
22.306062 22.547375
22.313125 23.213125
22.313125 23.883312
22.266875 24.538187
22.144188 25.172313
21.910250 25.732625
21.740063 26.300062
21.586063 26.892063
21.387438 27.476312
21.202313 28.050937
20.955437 28.609000
20.574250 29.057188
20.054188 29.354875
19.474125 29.555438
18.890625 29.756000
18.252375 29.833188
17.595000 29.802312
16.984687 29.678875
16.388625 29.577687
15.942250 29.187313
15.541187 28.770875
15.209500 28.277250
14.918875 27.748313
14.682813 27.177625
14.444625 26.614187
14.244063 26.012250
14.053937 25.441562
13.827438 24.870375
13.596063 24.309438
13.488062 23.708375
13.457187 23.060063
14.056563 22.983313
14.356750 22.215750
14.976938 21.731875
15.839438 21.566000
16.707125 21.370000
17.547250 21.158875
18.461250 21.158875
19.375250 21.158875
20.156875 21.393937
20.902750 21.807625
21.464938 22.420562
21.942312 23.098250
21.942312 24.012250
21.686250 24.837375
21.354250 25.592750
20.957375 26.320438
20.509937 27.010313
20.033000 27.651875
19.394125 28.178687
18.641500 28.486750
17.778000 28.622438
16.935188 28.516875
16.240313 28.077063
15.680750 27.498188
15.238437 26.788750
14.857812 26.018250
14.554125 25.238125
14.162125 24.522625
13.951000 23.715312
14.041500 22.847625
}
