version: 1
n_points: 120
{
11.500250 11.950812
11.711562 11.642188
12.058312 11.429125
12.411375 11.228312
12.799000 11.115187
13.202813 11.083375
13.604938 11.140875
13.992750 11.259937
14.368625 11.422187
14.752125 11.537688
14.950938 11.782937
14.628750 12.016625
14.242500 12.139313
13.840375 12.206750
13.440563 12.267750
13.037562 12.317750
12.624937 12.317750
12.223125 12.278813
11.858875 12.127313
11.511375 11.939687
21.051750 11.554813
21.294187 11.259187
21.614250 11.033687
21.972188 10.861562
22.341625 10.724438
22.739438 10.713875
23.130938 10.781375
23.518062 10.863500
23.868875 11.026375
24.170125 11.281250
24.429125 11.511375
24.080750 11.704812
23.715312 11.863375
23.329625 11.949687
22.931938 11.974500
22.531063 11.974500
22.130188 11.974500
21.754500 11.882563
21.398000 11.736437
21.057625 11.560750
13.470625 21.960812
13.703563 21.413312
14.049312 20.863063
14.398687 20.330562
14.875937 19.926375
15.495437 19.727313
16.132188 19.554250
16.762187 19.397000
17.428125 19.381250
18.100562 19.381250
18.773000 19.381250
19.445438 19.381250
20.111313 19.397000
20.728813 19.581375
21.246312 19.953000
21.669937 20.455313
22.006312 21.011875
22.388562 21.519938
22.715312 22.049125
22.750812 22.711938
22.609250 23.350125
22.451937 23.938188
22.294687 24.546937
22.121625 25.148063
21.964375 25.767250
21.796875 26.375125
21.602563 26.990687
21.350938 27.530438
21.083500 28.100375
20.786500 28.659625
20.246562 28.969812
19.658375 29.177375
19.017625 29.274812
18.386750 29.369187
17.733875 29.416375
17.061438 29.416375
16.494187 29.198000
15.972625 28.850687
15.500500 28.457750
15.088750 27.996813
14.713313 27.481875
14.430125 26.921563
14.287500 26.298813
14.162750 25.658062
14.052625 25.025625
13.956062 24.378688
13.712000 23.811937
13.486375 23.231625
13.423438 22.586063
13.423438 21.913625
13.957562 22.586938
14.207375 21.790625
14.917312 21.274812
15.751312 21.007438
16.635437 20.790563
17.578813 20.790563
18.492125 20.675187
19.431625 20.658687
20.364313 20.691688
21.159500 21.024375
21.846312 21.559750
22.247250 22.324875
22.217437 23.190375
21.985813 24.049125
21.653938 24.863375
21.255125 25.622625
20.808688 26.377437
20.366500 27.103562
19.841062 27.789250
18.996437 27.992500
18.121063 28.157312
17.177688 28.157312
16.479875 27.729625
15.891750 27.155000
15.379375 26.497312
14.933500 25.787750
14.576250 25.006500
14.254188 24.218250
14.023500 23.400250
13.924625 22.504500
}
