version: 1
n_points: 120
{
11.519875 11.974625
11.747938 11.658625
12.087563 11.450750
12.461375 11.336625
12.842250 11.223500
13.244563 11.185625
13.643375 11.222375
14.012625 11.365375
14.372875 11.537062
14.744188 11.681500
14.855750 11.908188
14.534250 12.147625
14.152688 12.264938
13.770250 12.377437
13.371250 12.429063
12.963938 12.429063
12.556625 12.429063
12.166375 12.354188
11.799250 12.212125
11.500937 11.980937
20.987562 11.629812
21.274250 11.357500
21.616937 11.151625
21.991937 11.013063
22.362437 10.868500
22.754438 10.809250
23.155750 10.820813
23.524500 10.966938
23.876250 11.154813
24.237188 11.315312
24.263063 11.618750
23.923375 11.821375
23.556375 11.952125
23.169250 12.016625
22.767250 12.028313
22.363937 12.028313
21.960625 12.028313
21.567688 11.969687
21.205188 11.835688
20.981687 11.606312
13.218563 21.407500
13.448875 20.913563
13.876500 20.502688
14.351000 20.122438
14.846438 19.793500
15.379312 19.496500
15.965563 19.312500
16.574063 19.215187
17.180500 19.104187
17.801437 19.076438
18.429000 19.076438
19.028500 19.020875
19.656000 19.020875
20.261063 19.135687
20.840500 19.338125
21.382188 19.646875
21.933937 19.900188
22.427063 20.232125
22.803687 20.710750
22.917625 21.300563
22.959250 21.917375
22.973125 22.541625
22.861875 23.143125
22.654000 23.711875
22.375250 24.240625
22.118750 24.773375
21.835313 25.301250
21.544313 25.819312
21.160187 26.287000
20.822437 26.754750
20.411313 27.202375
19.840937 27.360187
19.251625 27.512812
18.629062 27.540563
18.001500 27.540563
17.374000 27.540563
16.761875 27.536125
16.230313 27.263437
15.718625 26.985563
15.226625 26.634750
14.797937 26.231313
14.426250 25.751687
14.154687 25.222375
13.884875 24.696938
13.648687 24.144687
13.468312 23.602875
13.301813 23.030938
13.218563 22.424875
13.149188 21.821188
13.218563 21.254875
13.501375 22.232375
13.680938 21.417750
14.305750 20.971000
15.107188 20.667875
15.956750 20.578125
16.806938 20.475500
17.662813 20.398563
18.535812 20.372937
19.412500 20.372937
20.289188 20.372937
21.165875 20.372937
21.933563 20.636375
22.516437 21.208437
22.696000 22.034000
22.531562 22.856125
22.095125 23.584937
21.608187 24.269125
21.042250 24.903813
20.413375 25.468187
19.694188 25.921688
18.923313 26.178625
18.067812 26.310063
17.222625 26.259000
16.467375 25.921937
15.722312 25.543312
15.115312 24.985750
14.583063 24.352750
14.185813 23.660563
13.783500 22.965250
13.462938 22.245188
}
