version: 1
n_points: 120
{
10.947875 13.229437
11.200313 12.883563
11.561938 12.632938
11.947313 12.418563
12.355813 12.287875
12.785000 12.224250
13.217125 12.296500
13.618813 12.471438
13.986313 12.705312
14.354875 12.924250
14.505125 13.233438
14.154563 13.477438
13.738312 13.614937
13.306437 13.688000
12.878312 13.763813
12.442500 13.821312
12.001188 13.840188
11.573500 13.770188
11.217438 13.539188
10.935125 13.248500
20.651187 12.893313
20.952562 12.581625
21.319000 12.338500
21.712062 12.139750
22.103063 11.965312
22.539062 11.933938
22.978813 11.956625
23.391562 12.094563
23.774000 12.304063
24.153312 12.520062
24.221875 12.861750
23.876750 13.120375
23.480687 13.303562
23.060188 13.410875
22.625625 13.465563
22.183500 13.480250
21.741500 13.460437
21.323500 13.363563
20.945812 13.154188
20.638562 12.887000
13.939750 24.337625
13.973250 23.866563
14.219563 23.499000
14.500250 23.116063
14.845250 22.795375
15.194875 22.486812
15.573063 22.206125
15.946625 21.915500
16.303313 21.664562
16.770750 21.645437
17.249813 21.656625
17.730250 21.656625
18.171625 21.553000
18.637250 21.489062
19.064062 21.642375
19.448250 21.892625
19.785812 22.225188
20.068375 22.604437
20.307688 23.014688
20.571625 23.404625
20.783438 23.827000
20.921437 24.278312
20.999625 24.742625
20.999625 25.223063
20.999625 25.703500
20.932625 26.168250
20.798562 26.613688
20.631000 27.039938
20.429250 27.454875
20.125375 27.817375
19.772562 28.123562
19.395563 28.394313
18.970688 28.593625
18.517437 28.715187
18.047812 28.783500
17.572312 28.810938
17.092625 28.817000
16.666937 28.649438
16.244688 28.480687
15.822437 28.275688
15.446563 28.000750
15.091188 27.689625
14.825625 27.304500
14.565437 26.918125
14.346438 26.513813
14.178750 26.077813
14.095875 25.616000
14.014313 25.160563
13.913375 24.705188
13.895062 24.237063
14.850437 24.428687
15.039188 23.962250
15.389062 23.612375
15.845437 23.397437
16.327687 23.245562
16.853625 23.179625
17.381312 23.124875
17.926250 23.124875
18.434125 23.207563
18.845188 23.462875
19.337875 23.640500
19.772437 23.918125
20.152812 24.262313
20.224750 24.757500
20.000875 25.229937
19.764312 25.695438
19.522313 26.143062
19.251938 26.580250
18.903938 26.939688
18.428687 27.130437
17.908125 27.258750
17.373000 27.277750
16.877375 27.120812
16.403750 26.925625
16.008187 26.595063
15.691000 26.215375
15.446875 25.773563
15.178375 25.348188
15.007375 24.873875
14.826313 24.416563
}
