version: 1
n_points: 120
{
10.982000 12.974750
11.236812 12.611062
11.596813 12.337438
11.988000 12.117000
12.408687 11.988687
12.853125 12.042000
13.279625 12.186188
13.703125 12.339063
14.116750 12.518125
14.473875 12.762688
14.389812 13.155125
14.031125 13.408938
13.586313 13.488938
13.144687 13.594938
12.700125 13.668812
12.244188 13.686438
11.788250 13.671000
11.384375 13.501125
11.064937 13.226812
10.989437 12.900562
20.533625 12.790875
20.888000 12.496875
21.270437 12.230688
21.659625 11.982750
22.088438 11.801813
22.537625 11.717313
22.987750 11.814687
23.414938 11.962063
23.817625 12.171500
24.162750 12.464750
24.226063 12.863062
23.810562 13.052375
23.396187 13.263438
22.953125 13.377125
22.490938 13.398312
22.027812 13.361750
21.576937 13.289687
21.154563 13.138625
20.708875 13.052250
20.540688 12.748500
13.786250 25.248562
13.959437 24.713500
14.041875 24.150938
14.225938 23.633937
14.518250 23.158313
14.798063 22.678187
15.185125 22.264063
15.606563 21.930750
16.139000 21.837500
16.716375 21.876812
17.261312 21.997375
17.842500 21.978500
18.335500 21.797500
18.922125 21.797500
19.420313 22.022875
19.881750 22.336625
20.320563 22.700813
20.623500 23.188562
20.860625 23.713313
21.095125 24.230313
21.297687 24.738625
21.461188 25.275312
21.461188 25.861937
21.421250 26.439187
21.288000 26.981125
21.234687 27.550438
21.141437 28.110500
21.074813 28.677625
20.851437 29.159688
20.568438 29.621188
20.302000 30.081625
19.820187 30.327375
19.372875 30.618437
18.874312 30.831625
18.309750 30.884937
17.723125 30.884937
17.136437 30.884937
16.583625 30.804938
16.091188 30.578437
15.651687 30.281312
15.254437 29.888063
14.898188 29.478500
14.579812 29.026875
14.345875 28.533750
14.238812 27.965875
14.052687 27.460125
13.947875 26.904375
13.852875 26.370000
13.799563 25.803062
13.786250 25.221937
14.431437 25.373500
14.719188 24.728687
15.089063 24.125563
15.593250 23.682750
16.261437 23.456000
16.932750 23.284063
17.656562 23.217938
18.396438 23.217938
19.049250 23.457625
19.659437 23.817375
20.253187 24.159875
20.681000 24.701062
20.937875 25.329500
20.968187 26.032812
20.827500 26.726937
20.586188 27.378250
20.276625 27.962937
19.886750 28.504250
19.377750 28.957125
18.750625 29.257500
18.053000 29.380500
17.327188 29.420188
16.701750 29.186625
16.098938 28.866000
15.589625 28.462438
15.158750 27.928000
14.875875 27.336125
14.644625 26.698375
14.510750 26.006750
14.391750 25.320625
}
