version: 1
n_points: 120
{
11.015750 12.786375
11.291250 12.464250
11.633125 12.194375
12.026188 12.004375
12.425187 11.830937
12.872000 11.822563
13.310625 11.863000
13.667625 12.124125
14.059125 12.322563
14.427312 12.548813
14.513312 12.935875
14.139812 13.155938
13.721813 13.290750
13.301687 13.418062
12.872125 13.509063
12.428437 13.541750
11.979625 13.541750
11.588062 13.365687
11.235312 13.120812
11.002688 12.792875
20.718187 12.383250
21.018750 12.093125
21.406562 11.895062
21.811500 11.730813
22.196875 11.550500
22.631750 11.525438
23.074437 11.525438
23.480438 11.676625
23.830875 11.926500
24.151750 12.210125
24.140438 12.592750
23.798750 12.859250
23.388625 12.991062
22.960313 13.072062
22.522437 13.103375
22.080500 13.098250
21.649375 13.040313
21.255875 12.861688
20.881500 12.652688
20.705687 12.326937
13.685187 24.571875
13.874750 24.037688
14.141375 23.530313
14.378187 23.009875
14.684625 22.521313
14.987562 22.041812
15.411062 21.695812
15.993375 21.664000
16.555312 21.761437
17.122625 21.909562
17.721250 21.922500
18.300563 21.870812
18.891063 21.819125
19.429125 22.035187
19.916187 22.343375
20.372500 22.716500
20.759500 23.147188
21.057125 23.644375
21.266188 24.194063
21.373000 24.774812
21.542938 25.298188
21.607563 25.884750
21.607563 26.485500
21.553812 27.072375
21.435188 27.639187
21.349062 28.205500
21.232750 28.765937
20.987938 29.261813
20.751500 29.770375
20.483187 30.258625
20.003937 30.530875
19.471875 30.762438
18.901688 30.852937
18.326625 30.968625
17.729063 30.982125
17.128312 30.982125
16.577437 30.814125
16.069375 30.561875
15.590312 30.306313
15.205438 29.900625
14.891000 29.435125
14.589875 28.936750
14.418375 28.380938
14.240937 27.842562
14.044625 27.308125
13.917813 26.740875
13.783375 26.182188
13.659375 25.615188
13.685187 25.025125
13.698125 24.429750
14.189125 24.705313
14.512063 24.077875
15.035875 23.592125
15.727750 23.340375
16.506125 23.216625
17.288375 23.134875
18.088000 23.149562
18.797687 23.311000
19.495250 23.545813
20.231000 23.756062
20.876125 24.160937
21.287312 24.782250
21.425000 25.537125
21.249562 26.289000
21.043813 27.023438
20.745125 27.752875
20.411687 28.419187
19.944688 28.959625
19.252750 29.323750
18.516375 29.551313
17.740813 29.636875
16.943812 29.622187
16.319813 29.241813
15.735312 28.773438
15.245875 28.224563
14.870750 27.573875
14.629437 26.879062
14.453250 26.158313
14.247875 25.454875
14.218500 24.661313
}
