version: 1
n_points: 120
{
11.051625 13.027875
11.314875 12.709500
11.686687 12.489562
12.082812 12.330625
12.492500 12.228875
12.927687 12.228875
13.352438 12.286125
13.723812 12.491625
14.085000 12.710062
14.463000 12.905188
14.414062 13.253000
14.048750 13.461375
13.652688 13.608937
13.220625 13.638000
12.787625 13.659750
12.357000 13.688812
11.921812 13.688812
11.525750 13.556000
11.175062 13.303812
11.073438 12.962500
20.750312 12.748313
21.023438 12.464187
21.359250 12.222000
21.724563 12.023188
22.112875 11.876938
22.528250 11.839187
22.943500 11.887438
23.347562 11.989437
23.687562 12.230562
24.030938 12.470250
24.105250 12.793875
23.773125 13.046188
23.384625 13.200812
22.983187 13.314125
22.568188 13.360000
22.147938 13.357500
21.739250 13.284875
21.351813 13.178750
20.994875 12.981687
20.728250 12.720812
13.186250 23.836375
13.360188 23.304125
13.679187 22.837312
14.038187 22.378438
14.453500 22.015812
14.967625 21.760000
15.526625 21.585125
16.124750 21.592562
16.686312 21.759250
17.267750 21.794375
17.867625 21.794375
18.454187 21.756688
19.047812 21.741688
19.599000 21.939250
20.128125 22.176063
20.663125 22.426750
21.107063 22.798625
21.473938 23.258750
21.795875 23.744500
22.078688 24.251000
22.184313 24.826687
22.173063 25.424688
21.968750 25.953937
21.828625 26.504562
21.631000 27.030500
21.472938 27.584563
21.347438 28.145000
21.123125 28.652313
20.774438 29.126313
20.374813 29.513250
19.845312 29.778000
19.323000 29.994062
18.743250 30.117875
18.150000 30.146875
17.552312 30.133750
16.981750 30.015563
16.420437 29.903063
15.887187 29.686000
15.387438 29.423375
14.971562 29.037063
14.609063 28.589375
14.332437 28.092063
14.122750 27.554813
13.926375 27.013750
13.763750 26.466938
13.546500 25.931625
13.313688 25.413000
13.212625 24.845063
13.173063 24.258625
13.173063 23.731000
13.548813 24.072000
13.883750 23.420875
14.611937 23.242000
15.404750 23.136625
16.197813 23.044375
17.011500 23.044375
17.825187 23.044375
18.638875 23.044375
19.428812 23.149750
20.203813 23.334187
20.932500 23.608500
21.555125 24.068250
21.809125 24.776000
21.666313 25.541125
21.432625 26.274125
21.091687 26.978375
20.595063 27.527750
19.955375 27.994062
19.280000 28.393187
18.541062 28.669812
17.727375 28.669812
16.931812 28.762062
16.230250 28.485375
15.598750 28.048000
15.068563 27.484125
14.642250 26.846563
14.258563 26.204563
13.944750 25.496250
13.641000 24.810312
13.548813 24.058812
}
