version: 1
n_points: 120
{
11.802188 12.923187
12.046250 12.700188
12.346063 12.535375
12.674188 12.447437
13.010813 12.388563
13.351250 12.362500
13.693875 12.365250
14.025250 12.441062
14.295000 12.635188
14.571250 12.818875
14.811625 12.944875
14.490500 13.041750
14.147813 13.041750
13.806250 13.061000
13.468375 13.110062
13.126625 13.123750
12.783875 13.123750
12.441187 13.123750
12.113188 13.055938
11.815875 12.923187
21.254750 12.624813
21.488250 12.403313
21.771062 12.239937
22.078688 12.131500
22.395563 12.054500
22.722062 12.037187
23.051000 12.037187
23.376875 12.070562
23.695750 12.134875
23.986250 12.284313
24.108625 12.459188
23.796187 12.556313
23.479937 12.643375
23.161188 12.722062
22.836375 12.760063
22.508125 12.769063
22.179188 12.769312
21.850250 12.769312
21.523750 12.750000
21.254750 12.610375
14.624813 20.706375
14.632250 20.355187
14.756187 20.025688
14.817562 19.679688
14.991750 19.377437
15.231250 19.115437
15.516875 18.927063
15.845500 18.802312
16.179938 18.698125
16.535812 18.667562
16.894375 18.667562
17.250000 18.689812
17.605875 18.704625
17.962625 18.719500
18.319500 18.704625
18.666000 18.619187
19.007250 18.519313
19.358250 18.482250
19.716812 18.482250
20.069437 18.509687
20.367875 18.702063
20.641562 18.928375
20.850938 19.211813
21.000625 19.531437
21.052500 19.878125
21.052500 20.236687
21.052500 20.595250
21.052500 20.953813
21.000750 21.298938
20.835313 21.614125
20.577875 21.855625
20.289500 22.056750
19.975812 22.222375
19.649875 22.366125
19.300125 22.435188
18.943375 22.456000
18.585687 22.463375
18.228250 22.477125
17.872812 22.507875
17.514250 22.507875
17.169438 22.434000
16.841313 22.315000
16.509438 22.192375
16.181000 22.051188
15.870750 21.876188
15.582125 21.670750
15.303437 21.450375
15.029938 21.227438
14.815188 20.948625
14.617375 20.691500
14.958625 21.307000
15.234438 20.985063
15.601187 20.739687
15.970937 20.506187
16.412688 20.478687
16.848063 20.545625
17.287500 20.583000
17.733187 20.590187
18.178750 20.584063
18.610375 20.498625
19.038688 20.401375
19.482000 20.420063
19.890625 20.586063
20.278437 20.793688
20.659000 21.007125
20.584312 20.968375
20.207750 20.765375
19.826000 20.558312
19.419187 20.422875
18.972562 20.422875
18.530188 20.446813
18.121938 20.598125
17.678313 20.622000
17.232563 20.615063
16.814062 20.510500
16.371625 20.486625
15.930250 20.502562
15.595125 20.758125
15.239500 20.995313
14.974562 21.291062
}
