version: 1
n_points: 120
{
11.945625 12.945500
12.193125 12.791625
12.448813 12.636688
12.722875 12.520687
13.020000 12.493438
13.321625 12.493438
13.623250 12.493438
13.922313 12.507437
14.191562 12.637250
14.386688 12.854875
14.523875 13.004687
14.226938 13.047937
13.930250 13.093000
13.633000 13.121562
13.331375 13.121562
13.029687 13.121562
12.728063 13.121562
12.426438 13.121562
12.126812 13.107313
11.936125 12.940750
21.487813 12.651500
21.735750 12.481563
22.009375 12.347375
22.299063 12.253000
22.600188 12.212125
22.908062 12.212125
23.215937 12.212125
23.518187 12.258062
23.808812 12.347500
24.078312 12.489313
24.014875 12.539125
23.711000 12.574563
23.420437 12.670687
23.125438 12.751125
22.824188 12.801063
22.516875 12.804813
22.208938 12.804813
21.901375 12.809875
21.596563 12.794562
21.492938 12.615750
14.372188 20.686375
14.457125 20.339562
14.606750 20.012750
14.805063 19.708188
15.004938 19.404062
15.186563 19.092437
15.435438 18.842625
15.766875 18.726125
16.130750 18.721187
16.495188 18.721187
16.859687 18.721187
17.219938 18.754438
17.579313 18.790875
17.943750 18.790875
18.299000 18.740938
18.641000 18.625125
18.992000 18.534500
19.349688 18.482750
19.709625 18.433937
20.067937 18.393625
20.399062 18.497375
20.685063 18.720625
20.941750 18.977000
21.170125 19.257562
21.373875 19.558875
21.521125 19.888750
21.584875 20.244563
21.464000 20.570312
21.174187 20.787188
20.891875 21.010000
20.597250 21.219750
20.284875 21.404375
19.963000 21.573062
19.643937 21.743938
19.302187 21.863063
18.949813 21.942688
18.591438 21.990500
18.229312 22.019000
17.865063 22.024375
17.500625 22.024375
17.137563 22.010437
16.778375 21.958250
16.418813 21.899188
16.083313 21.773750
15.762500 21.609125
15.430563 21.466438
15.096250 21.327063
14.760563 21.194375
14.475312 20.990250
14.358250 20.672438
14.828375 21.129687
15.166438 20.858250
15.549188 20.646062
15.948875 20.470875
16.368625 20.350250
16.805875 20.353250
17.241500 20.390313
17.679688 20.390313
18.115437 20.378000
18.545437 20.316125
18.980000 20.285563
19.418125 20.285563
19.846438 20.370687
20.263500 20.502750
20.642125 20.710250
20.600875 20.701062
20.202938 20.529375
19.803375 20.376250
19.381187 20.291687
18.946125 20.315750
18.512187 20.357563
18.079500 20.408812
17.642750 20.421125
17.204563 20.421125
16.779937 20.347188
16.342813 20.341000
15.918062 20.417313
15.531437 20.614687
15.149125 20.815062
14.859188 21.092688
}
