version: 1
n_points: 120
{
11.964063 13.074000
12.208187 12.881750
12.507188 12.774938
12.815125 12.700812
13.128312 12.661250
13.445500 12.645188
13.763188 12.637187
14.068500 12.703687
14.325688 12.887438
14.578625 13.075563
14.675625 13.210375
14.362000 13.259187
14.055875 13.338500
13.739375 13.354500
13.421125 13.354500
13.102937 13.354500
12.784688 13.354500
12.467250 13.344750
12.159062 13.273938
11.960062 13.053937
21.637625 12.804438
21.908188 12.566313
22.204250 12.355875
22.562500 12.286625
22.931375 12.286188
23.298313 12.311438
23.653938 12.400313
24.007938 12.503937
24.350250 12.634813
24.685188 12.784750
24.686250 12.874875
24.317500 12.877062
23.958188 12.952625
23.599062 13.033750
23.237750 13.096250
22.870625 13.116375
22.503312 13.106438
22.140563 13.052938
21.782375 13.000687
21.652687 12.789375
13.936687 20.843500
14.039188 20.472438
14.234125 20.122187
14.453125 19.785812
14.700250 19.474750
14.993187 19.204563
15.331188 18.995250
15.719563 18.945000
16.111563 19.019125
16.509250 19.063625
16.911687 19.071562
17.314750 19.071562
17.717750 19.071562
18.120750 19.071562
18.523812 19.071562
18.922750 19.038688
19.303500 18.925313
19.690750 18.829563
20.078187 18.747187
20.478938 18.731375
20.875125 18.767937
21.253750 18.899687
21.570000 19.134375
21.810938 19.455562
22.058688 19.768937
22.314000 20.079250
22.408875 20.461375
22.226937 20.790813
21.889813 21.008125
21.523500 21.175438
21.152875 21.331688
20.792875 21.504125
20.418000 21.649750
20.020875 21.702000
19.624688 21.767000
19.228813 21.831437
18.836688 21.920625
18.441125 21.974750
18.038062 21.974750
17.635063 21.974750
17.232063 21.974750
16.830313 21.964437
16.440313 21.881062
16.069312 21.731063
15.690188 21.603938
15.296625 21.525875
14.913875 21.415063
14.533125 21.290187
14.187313 21.090563
13.920875 20.843500
14.505625 21.154812
14.919688 20.900125
15.377000 20.735500
15.857938 20.638875
16.347938 20.600938
16.842500 20.600938
17.337000 20.600938
17.831563 20.600938
18.324562 20.616125
18.819125 20.616125
19.313625 20.616125
19.808187 20.616125
20.302688 20.616125
20.793500 20.641000
21.274875 20.729937
21.223750 20.737500
20.739062 20.692000
20.247312 20.669250
19.752813 20.669250
19.258250 20.669250
18.763750 20.669250
18.270437 20.661625
17.775875 20.661625
17.281875 20.654062
16.789625 20.638875
16.295125 20.638875
15.803000 20.640812
15.328437 20.748062
14.866938 20.884937
14.490438 21.124500
}
