version: 1
n_points: 120
{
11.612000 14.726250
11.983937 14.594125
12.371500 14.505688
12.765375 14.448375
13.152563 14.365187
13.545438 14.312687
13.939000 14.260938
14.333500 14.209312
14.731750 14.189937
15.131625 14.189937
15.046125 14.189937
14.646187 14.189937
14.248688 14.209250
13.858000 14.267500
13.476875 14.347625
13.087063 14.403187
12.698625 14.474250
12.312250 14.545312
11.926375 14.616437
11.566750 14.693938
20.609875 14.077875
21.027812 14.037875
21.457438 14.037875
21.887062 14.037875
22.316625 14.037875
22.741500 14.077875
23.164375 14.134313
23.579500 14.240187
23.997000 14.325437
24.417687 14.397625
24.411125 14.380125
24.005500 14.271062
23.590438 14.197750
23.164625 14.177812
22.753812 14.110750
22.335000 14.051187
21.905375 14.051187
21.475750 14.051187
21.046125 14.051187
20.616500 14.051187
13.654000 23.223375
14.024500 23.061875
14.363188 22.835687
14.729125 22.661438
15.075500 22.448500
15.425000 22.240625
15.781125 22.055750
16.165125 21.931188
16.559750 21.866375
16.967500 21.890125
17.365375 21.973500
17.774000 21.988250
18.181313 21.968875
18.559625 21.823438
18.956000 21.736313
19.349563 21.817312
19.729500 21.967938
20.109625 22.119875
20.495812 22.257938
20.874375 22.409312
21.231625 22.607563
21.597375 22.791750
21.950688 22.998062
22.288875 23.221937
22.198000 23.540875
21.950063 23.859687
21.649625 24.133563
21.301125 24.349187
20.993063 24.611375
20.687500 24.881187
20.332062 25.080813
19.978250 25.284750
19.629313 25.497187
19.234437 25.589625
18.825875 25.612375
18.415437 25.612375
18.006250 25.628625
17.601750 25.685500
17.191312 25.685500
16.791062 25.635313
16.410187 25.490938
16.025562 25.349187
15.651000 25.188813
15.314312 24.963625
14.988375 24.720250
14.688375 24.443812
14.434375 24.133750
14.160125 23.835812
13.908500 23.526625
13.662125 23.223375
15.779875 23.415125
16.045687 23.424625
16.353500 23.348437
16.673813 23.310312
16.992500 23.262687
17.316938 23.243625
17.643875 23.243625
17.970750 23.243625
18.297687 23.243625
18.624625 23.243625
18.951563 23.243625
19.278500 23.243625
19.600562 23.272250
19.915187 23.340375
19.933812 23.623562
19.642000 23.744937
19.350812 23.891813
19.043688 23.994000
18.723125 24.043750
18.400625 24.091375
18.073687 24.091375
17.746750 24.091375
17.419812 24.091375
17.092875 24.091375
16.772375 24.053937
16.461250 23.986625
16.143625 23.915375
15.841750 23.808000
15.608438 23.622563
15.789375 23.405562
}
